<?xml version="1.0" encoding="utf-8"?>
<!-- Generator: Adobe Illustrator 27.5.0, SVG Export Plug-In . SVG Version: 6.00 Build 0)  -->
<svg version="1.1"
	 id="svg3875" xmlns:dc="http://purl.org/dc/elements/1.1/" xmlns:cc="http://creativecommons.org/ns#" xmlns:svg="http://www.w3.org/2000/svg" xmlns:rdf="http://www.w3.org/1999/02/22-rdf-syntax-ns#" xmlns:inkscape="http://www.inkscape.org/namespaces/inkscape" xmlns:sodipodi="http://sodipodi.sourceforge.net/DTD/sodipodi-0.dtd"
	 xmlns="http://www.w3.org/2000/svg" xmlns:xlink="http://www.w3.org/1999/xlink" x="0px" y="0px" viewBox="0 0 466.1 894.3"
	 style="enable-background:new 0 0 466.1 894.3;" xml:space="preserve">
<style type="text/css">
	.st0{fill:#C197A7;}
	.st1{fill:#FFFFFF;}
	.st2{fill:#F5F5FF;}
	
		.st3{fill:none;stroke:#FFFFFF;stroke-width:28.5089;stroke-linecap:round;stroke-miterlimit:43.0985;stroke-dasharray:28.5089,57.0176;}
	.st4{font-family:'MalayalamMN-Bold';}
	.st5{font-size:42.2086px;}
</style>
<sodipodi:namedview  bordercolor="#666666" borderopacity="1.0" id="base" inkscape:current-layer="layer1" inkscape:cx="372.04724" inkscape:cy="526.18109" inkscape:document-units="px" inkscape:guide-bbox="true" inkscape:pageopacity="0.0" inkscape:pageshadow="2" inkscape:window-height="851" inkscape:window-maximized="1" inkscape:window-width="1440" inkscape:window-x="0" inkscape:window-y="1" inkscape:zoom="0.66136926" pagecolor="#ffffff" showgrid="false" showguides="true">
	</sodipodi:namedview>
<g id="layer1" inkscape:groupmode="layer" inkscape:label="Layer 1">
	<g id="g4628" transform="matrix(1.0552147,0,0,1.0552147,-25.323925,-35.351459)">
		<g id="g4606" transform="translate(5.9428981,-11.456457)">
			<g id="g4566" transform="matrix(1.5784367,0,0,1.5784367,305.59699,-473.79175)">
				
					<path id="path4028" sodipodi:cx="-118.3046" sodipodi:cy="512.276" sodipodi:rx="92.586205" sodipodi:ry="92.586205" sodipodi:type="arc" class="st0" d="
					M60.4,438.2c0,54.8-44.4,99.2-99.2,99.2S-138,493-138,438.2c0-54.8,44.4-99.2,99.2-99.2S60.4,383.4,60.4,438.2L60.4,438.2z"/>
				<rect id="rect4540" x="-121.1" y="499.9" class="st1" width="164.6" height="8.1"/>
				<rect id="rect4544" x="-53.2" y="558.7" class="st1" width="28.8" height="21.3"/>
				<rect id="rect4546" x="-53.2" y="740.9" class="st0" width="28.8" height="21.3"/>
				<rect id="rect4548" x="-121.1" y="774" class="st1" width="164.6" height="19.8"/>
				<g id="g4552">
					<rect id="rect4542" x="-57.2" y="520.5" class="st1" width="36.7" height="27.2"/>
					<rect id="rect4550" x="-62" y="531.5" class="st2" width="11.9" height="5.1"/>
				</g>
				<g id="g4562">
					<path id="path4558" inkscape:connector-curvature="0" class="st3" d="M-70.4,533.7v132.9l0,0"/>
					
						<path id="path4560" sodipodi:cx="-154.31035" sodipodi:cy="687.16101" sodipodi:end="6.2803262" sodipodi:rx="33.066502" sodipodi:ry="33.066502" sodipodi:start="0" sodipodi:type="arc" class="st0" d="
						M-64.5,671.1c0,3.2-2.6,5.9-5.9,5.9s-5.9-2.6-5.9-5.9s2.6-5.9,5.9-5.9C-67.2,665.2-64.6,667.9-64.5,671.1h-5.9H-64.5z"/>
				</g>
			</g>
			<g id="g4598" transform="translate(69.552673,0)">
				<text transform="matrix(0.9477 0 0 0.9477 -43.0641 876.6873)" class="st1 st4 st5">BAUHAUS</text>
				<text transform="matrix(0.9477 0 0 0.9477 169.7222 876.9992)" class="st0 st4 st5">LAMP</text>
				<g>
					<text transform="matrix(0.9477 0 0 0.9477 289.579 876.443)" class="st1 st4 st5">1923</text>
				</g>
			</g>
		</g>
	</g>
</g>
</svg>
