<?xml version="1.0" encoding="utf-8"?>
<!-- Generator: Adobe Illustrator 27.5.0, SVG Export Plug-In . SVG Version: 6.00 Build 0)  -->
<svg version="1.1"
	 id="svg3875" xmlns:dc="http://purl.org/dc/elements/1.1/" xmlns:cc="http://creativecommons.org/ns#" xmlns:svg="http://www.w3.org/2000/svg" xmlns:rdf="http://www.w3.org/1999/02/22-rdf-syntax-ns#" xmlns:inkscape="http://www.inkscape.org/namespaces/inkscape" xmlns:sodipodi="http://sodipodi.sourceforge.net/DTD/sodipodi-0.dtd"
	 xmlns="http://www.w3.org/2000/svg" xmlns:xlink="http://www.w3.org/1999/xlink" x="0px" y="0px" viewBox="0 0 466.1 894.31"
	 style="enable-background:new 0 0 466.1 894.31;" xml:space="preserve">
<style type="text/css">
	.st0{fill:#FFC0D5;}
	.st1{fill:#F5F5FF;}
	
		.st2{fill:none;stroke:#F5F5FF;stroke-width:17.1164;stroke-linecap:round;stroke-miterlimit:25.8758;stroke-dasharray:17.1164,34.2327;}
	.st3{fill:#FFFFFF;}
	.st4{font-family:'MalayalamMN-Bold';}
	.st5{font-size:42.2086px;}
</style>
<sodipodi:namedview  bordercolor="#666666" borderopacity="1.0" id="base" inkscape:current-layer="layer1" inkscape:cx="372.04724" inkscape:cy="526.18109" inkscape:document-units="px" inkscape:guide-bbox="true" inkscape:pageopacity="0.0" inkscape:pageshadow="2" inkscape:window-height="851" inkscape:window-maximized="1" inkscape:window-width="1440" inkscape:window-x="0" inkscape:window-y="1" inkscape:zoom="0.66136926" pagecolor="#ffffff" showgrid="false" showguides="true">
	</sodipodi:namedview>
<g id="layer1" inkscape:groupmode="layer" inkscape:label="Layer 1">
	<g id="g4628" transform="matrix(1.0552147,0,0,1.0552147,-25.323925,-35.351459)">
		<g id="g4606" transform="translate(5.9428981,-11.456457)">
			<g id="g4566" transform="matrix(1.5784367,0,0,1.5784367,305.59699,-473.79175)">
				
					<path id="path4028" sodipodi:cx="-118.3046" sodipodi:cy="512.276" sodipodi:rx="92.586205" sodipodi:ry="92.586205" sodipodi:type="arc" class="st0" d="
					M60.36,438.2c0,54.78-44.41,99.18-99.18,99.18S-138,492.97-138,438.2c0-54.78,44.41-99.18,99.18-99.18S60.36,383.42,60.36,438.2
					L60.36,438.2z"/>
				<rect id="rect4540" x="-121.12" y="499.92" class="st1" width="164.6" height="8.08"/>
				<rect id="rect4544" x="-53.22" y="558.7" class="st1" width="28.8" height="21.31"/>
				<rect id="rect4546" x="-53.22" y="740.94" class="st0" width="28.8" height="21.31"/>
				<rect id="rect4548" x="-121.12" y="774" class="st1" width="164.6" height="19.84"/>
				<g id="g4552">
					<rect id="rect4542" x="-57.19" y="520.49" class="st1" width="36.74" height="27.19"/>
					<rect id="rect4550" x="-62.04" y="531.52" class="st1" width="11.9" height="5.14"/>
				</g>
				<g id="g4562">
					<path id="path4558" inkscape:connector-curvature="0" class="st2" d="M-70.42,533.75V666.7l0,0"/>
					
						<path id="path4560" sodipodi:cx="-154.31035" sodipodi:cy="687.16101" sodipodi:end="6.2803262" sodipodi:rx="33.066502" sodipodi:ry="33.066502" sodipodi:start="0" sodipodi:type="arc" class="st0" d="
						M-64.54,671.13c0,3.25-2.63,5.88-5.88,5.88s-5.88-2.63-5.88-5.88s2.63-5.88,5.88-5.88c3.24,0,5.87,2.62,5.88,5.86l-5.88,0.02
						H-64.54z"/>
				</g>
			</g>
			<g id="g4598" transform="translate(69.552673,0)">
				<text transform="matrix(0.9477 0 0 0.9477 -43.0641 876.6876)" class="st3 st4 st5">BAUHAUS</text>
				<text transform="matrix(0.9477 0 0 0.9477 169.7223 876.9995)" class="st0 st4 st5">LAMP</text>
				<g>
					<text transform="matrix(0.9477 0 0 0.9477 289.5791 876.4433)" class="st3 st4 st5">1923</text>
				</g>
			</g>
		</g>
	</g>
</g>
</svg>
