<?xml version="1.0" encoding="utf-8"?>
<!-- Generator: Adobe Illustrator 27.5.0, SVG Export Plug-In . SVG Version: 6.00 Build 0)  -->
<svg version="1.1" id="Capa_1" xmlns="http://www.w3.org/2000/svg" xmlns:xlink="http://www.w3.org/1999/xlink" x="0px" y="0px"
	 viewBox="0 0 1560.26 1514.11" style="enable-background:new 0 0 1560.26 1514.11;" xml:space="preserve">
<style type="text/css">
	.st0{fill:#E6FDFF;}
	.st1{fill:#999898;}
	.st2{fill:#775D40;}
	.st3{fill:#604830;}
	.st4{fill:#6F8C46;}
	.st5{fill:#9E7272;}
	.st6{fill:#601212;}
	.st7{fill:#9B3E3E;}
	.st8{fill:#7F2B2B;}
	.st9{fill:#C15F5F;}
	.st10{fill:#440808;}
	.st11{fill:#7F4F47;}
	.st12{fill:#916D66;}
	.st13{fill:#876158;}
	.st14{fill:#EAD1CC;}
	.st15{fill:#A07C72;}
	.st16{fill:#87655D;}
	.st17{fill:#D3A092;}
	.st18{fill:#B78C7D;}
	.st19{fill:#93573F;}
	.st20{fill:#F2E3DF;}
	.st21{fill:#BC9186;}
	.st22{fill:#9B6E65;}
	.st23{fill:#875838;}
	.st24{fill:#E5B5AC;}
	.st25{fill:#D39C8D;}
	.st26{fill:#842323;}
	.st27{fill:#79816A;}
	.st28{fill:#A9B58F;}
	.st29{fill:#E2D1BF;}
	.st30{fill:#EDE2E5;}
	.st31{fill:#DBBAD8;}
	.st32{fill:#DDBDAF;}
	.st33{fill:#EABF5E;}
	.st34{fill:#A87F74;}
	.st35{fill:#89675F;}
	.st36{fill:#874F31;}
	.st37{fill:#724C46;}
	.st38{fill:#3A2928;}
	.st39{fill:#E8D0C4;}
	.st40{fill:#A87E73;}
	.st41{fill:#D39163;}
	.st42{fill:#AD6B3E;}
	.st43{fill:#B56B39;}
	.st44{fill:#E0E0E0;}
	.st45{fill:#CCCAC8;}
	.st46{fill:#D8BAAD;}
	.st47{fill:#F7C2B5;}
	.st48{fill:#302A1D;}
	.st49{fill:#C1A399;}
	.st50{fill:#D8B4AB;}
	.st51{fill:#6D4E47;}
	.st52{fill:#A57467;}
	.st53{fill:#351818;}
	.st54{fill:#EFD7D0;}
	.st55{fill:#7C4633;}
	.st56{fill:#EFCCC5;}
	.st57{fill:#160F0E;}
	.st58{fill:#9E602D;}
	.st59{fill:#E5A495;}
	.st60{fill:#302D2B;}
	.st61{fill:#BA9D95;}
	.st62{fill:#CEAEA3;}
	.st63{fill:#AA857D;}
	.st64{fill:#DDBCB3;}
	.st65{fill:#593F39;}
	.st66{fill:#755651;}
	.st67{fill:#AF8D85;}
	.st68{fill:#7D8C4F;}
</style>
<g id="XMLID_189_">
	<g id="XMLID_192_">
		<g id="XMLID_113_">
			<g id="XMLID_101_">
				<path id="XMLID_781_" class="st0" d="M35.96,669.39c0,38.71,29.5,70.09,65.9,70.09c25.76,0,48.07-15.73,58.9-38.64
					c6.53,5.48,14.77,8.77,23.74,8.77c21.18,0,38.35-18.26,38.35-40.79c0-5.51-1.03-10.76-2.89-15.55
					c20.22-0.8,36.38-18.48,36.38-40.18c0-2.75-0.26-5.44-0.76-8.04c2.29,0.74,4.72,1.14,7.24,1.14c3,0,5.87-0.57,8.54-1.6
					c15.46,16.59,36.9,26.88,60.6,26.88c43.47,0,79.35-34.57,84.66-79.28c7.78,4.39,16.65,6.89,26.07,6.89
					c28.32,0,51.69-22.5,55.18-51.61c2.02,0.68,4.16,1.05,6.39,1.05c11.63,0,21.07-10.03,21.07-22.41
					c0-12.37-9.43-22.41-21.07-22.41c-5.35,0-10.22,2.12-13.94,5.61c-9.75-17.14-27.43-28.59-47.64-28.59
					c-22.72,0-42.25,14.49-50.9,35.25c-15.4-16.11-36.53-26.06-59.83-26.06c-35.18,0-65.39,22.65-78.45,54.98
					c-6.9-4.97-15.22-7.87-24.18-7.87c-11.04,0-21.1,4.41-28.74,11.65c-11.22-8.08-24.75-12.8-39.32-12.8
					c-38.78,0-70.22,33.44-70.22,74.69c0,10.27,1.95,20.05,5.47,28.96C62.62,602.42,35.96,632.59,35.96,669.39z"/>
				<g id="XMLID_775_">
					<path id="XMLID_777_" class="st1" d="M493.97,1138.85l66.38,53.07l38.29-1.65l46.06,33.57c-3.27-5.36-6.6-11.06-9.99-17.07
						c-18.72-33.16-107.22-90.67-177-108.36c-69.78-17.69-306.82-110.08-306.82-110.08L69.65,859.58l-49.06-8.5L0,865.21
						c0,4.97,122.53,116.09,122.53,116.09L493.97,1138.85z"/>
					<path id="XMLID_776_" class="st1" d="M686.3,1257.79c15.14,3.72,46.77,15.23,68.22,30.71c-0.24-0.29-0.49-0.58-0.73-0.87
						c-31.57-37.78-27.63-41.98-57.33-83.32c-16.72-23.28-33.98-31.86-48.68-35.66l1.53,0.99
						C649.3,1169.63,667.06,1253.06,686.3,1257.79z"/>
				</g>
				<path id="XMLID_774_" class="st2" d="M697.95,1280.98c-10.16-17.76-39.62-86.89-48.77-113.53
					c-9.14-26.64-51.82-30.44-55.6-35.04c-3.79-4.6-54.12-38.53-57.17-39.8s-37.59-39.32-99.56-41.85s-132.47-60.72-157.87-68.33
					c-25.4-7.61-7.44-7.32-10.49-13.66c-3.05-6.34-17.72-23.47-22.79-22.2c-5.08,1.27-126.35,29.61-130.41,29.61L0,1447.78
					c58.93,12.68,37.59,12.68,99.56,35.51s131.05,5.07,273.29,13.95c142.23,8.88,126.99,0,212.33-1.27s79.25-63.42,103.62-93.87
					s-1.02-83.72-5.08-100.21s-16.26-24.1-28.45-38.06C643.08,1249.87,708.11,1298.74,697.95,1280.98z"/>
				<path id="XMLID_773_" class="st3" d="M674.73,1260.24c-3.28-1.74,13.86,71.78,19.76,96.77c36.92-3.92,61.15-6.51,61.15-6.51
					S678.68,1262.34,674.73,1260.24z"/>
				<path id="XMLID_00000022557522752587435190000015238253835277856190_" class="st3" d="M0,1454.54
					c15.66,0.97,13.54,4.06,129.45,2.12s61.09-21.28,61.09-21.28s-34.46-66.74-39.16-73.51s-4.7,22.25-9.4,24.19
					s-31.33-70.61-31.33-70.61l92.41,47.39c0,0,46.2,109.3,43.85,111.24c-1.79,1.47,195.22-22.67,290.41-34.42l-21.79-48.78
					c0,0-135.49-51.27-150.37-60.94s65.78,116.08,65.78,116.08s-43.08-13.54-51.69-26.12c-8.61-12.57-38.38-46.44-42.29-51.27
					c-3.91-4.84-33.68-55.14-33.68-55.14s-101.81,5.81-104.95,4.84s-88.49-80.29-88.49-80.29l186.39,52.23l-113.53-73.51
					c0,0,200.49,62.88,216.94,61.91s151.08-28.97,151.08-28.97l-252.89-69.69c0,0-87.72-31.92-126.09-46.44
					c-38.38-14.51-123.74-42.56-127.66-42.56c-3.91,0.01-44.08,1.47-44.08,1.47"/>
				<path id="XMLID_771_" class="st3" d="M676.97,1479.53l4.12,7.95c0,0-0.74-3.08-1.94-8.18
					C678.43,1479.37,677.71,1479.45,676.97,1479.53z"/>
				<path id="XMLID_770_" class="st4" d="M167.3,1110.51c7.64-14.04,42.24-40.33,56.92-45.29c14.68-4.96,57.7-7.29,64.14-6.69
					c6.44,0.6,65.69,6.09,81.15,7.52c15.46,1.43,76.6,15.53,76.6,15.53s36.67,11.83,59.94,28.73
					c23.27,16.91,23.71,27.48,32.55,30.41c8.85,2.93,20.9,8.47,39.65,12.21s26.65,2.37,36.27,11.69c7.65,7.41,6.97,54.81,62.45,71.7
					c-19.4-15.96,90.89-36.7,57.09-41.66c-78.23-11.47-196.32-106.69-227.5-122.23c-31.17-15.53-31.35-13.44-34.35-24.25
					c-3.01-10.81-83.74-70.97-90.35-69.48c-6.61,1.49-374.65-68.93-379.8-69.41L0,1102.85
					C54.49,1109.33,161.73,1120.75,167.3,1110.51z"/>
				<path id="XMLID_769_" class="st5" d="M1262.18,935.52l-114.27,78.74l197.85,33.56l111.09-67.13l-16.93-12.91l80.41-28.4
					C1520.34,939.4,1265.36,935.52,1262.18,935.52z"/>
				<path id="XMLID_768_" class="st6" d="M1502.58,541.4l-147-16.45c0,0-18.2,32.91-20.23,34.56c-2.02,1.65-16.86,45.25-16.86,45.25
					l82.27,139.04l95.76-137.4l-44.5-15.63h23.6L1502.58,541.4z"/>
				<path id="XMLID_767_" class="st7" d="M1288.14,584.18c-24.95,53.48-23.6,192.52-23.6,192.52l182.07-18.1
					c0.67-4.11,51.92-96.26,51.92-96.26s-50.57,6.58-112.61-21.39s-30.35-116.01-30.35-116.01S1313.09,530.7,1288.14,584.18z"/>
				<path id="XMLID_766_" class="st8" d="M1271.7,759.96l33.12,12.74l120.85-12.01c9.36-6.13,19.39-12.7,29.64-19.44
					c14.79-27.79,43.21-78.91,43.21-78.91s-39.6,5.15-91.7-13.04l-80.12,82.26l46.55-71L1271.7,759.96z"/>
				<g id="XMLID_763_">
					<path id="XMLID_765_" class="st9" d="M1288.14,584.18c-2.75,5.88-5.17,12.81-7.31,20.46c17.54-21.21,44.91-41.74,69.14-57.62
						c2.38-13.12,5.61-22.08,5.61-22.08S1313.09,530.7,1288.14,584.18z"/>
					<path id="XMLID_764_" class="st9" d="M1275.88,625.88c-4.06,20.95-6.68,44.68-8.36,67.01
						c18.62-57.89,77.27-106.24,77.27-106.24L1275.88,625.88z"/>
				</g>
				<path id="XMLID_762_" class="st6" d="M1311.39,783.59l146.56-14.57c2.05-0.2,3.9-1.61,4.93-3.77
					c7.11-14.79,38.34-71.4,52.56-97.07c2.87-5.18-0.24-12.15-5.36-12.04c-6.91,0.14-16.46-0.02-28.04-1.14
					c-1.6-0.16-3.2,0.44-4.45,1.68c-21.35,20.96-44.57,44.13-63.58,63.39c-5.66,5.73-13.43-2.95-9.25-10.33
					c0.21-0.38,0.43-0.75,0.64-1.12c3.93-6.97-2.84-15.47-8.66-10.86c-25.5,20.23-63.8,50.76-89.4,71.74
					C1301.93,773.92,1304.89,784.23,1311.39,783.59z"/>
				<path id="XMLID_761_" class="st6" d="M710.95,1045.24c6.35,0,68.78,85.2,68.78,85.2l103.68,71l103.68-25.82l37.03-77.45
					l27.5-144.58l240.17-18.07c10.58,5.16,142.83,27.11,176.69-20.65s24.33-109.72,17.99-118.76c-6.35-9.04-19.05-37.44-50.78-49.05
					c-31.74-11.62-56.07-11.62-66.66-11.62s-69.83,19.36-69.83,19.36s-57.14-21.94-60.31-29.69s-40.21-101.98-40.21-101.98
					l-232.77-25.82l-230.65,76.16L634.22,797.39c0,0,19.61,201.38,21.72,206.54C658.05,1009.09,704.61,1045.24,710.95,1045.24z"/>
				<path id="XMLID_760_" class="st10" d="M851.54,890.95c-103.77-70.68-142.01,131.68-142.01,131.68l92.85,33.89
					c43.69,67.78,231.22,58.09,231.22,58.09s-101.95-83.27-100.13-88.11C935.29,1021.67,955.32,961.63,851.54,890.95z"/>
				<path id="XMLID_759_" class="st11" d="M834.32,906.47c-4.25-22.27-28.52-73.9-28.52-73.9l-42.17,4.84
					c-1.82,5.16-23.36,72.61,14.26,97.78C815.51,960.36,838.57,928.74,834.32,906.47z"/>
				<path id="XMLID_758_" class="st10" d="M1387.71,785.41c0,0,3.48,1.18,8.81,3.43l2.73-2.94
					C1392.26,785.32,1387.71,785.41,1387.71,785.41z"/>
				<path id="XMLID_757_" class="st10" d="M1356.67,928.61l-0.82,0.11C1355.85,928.71,1356.14,928.68,1356.67,928.61z"/>
				<path id="XMLID_756_" class="st10" d="M1192.33,743.78c0,0-8.73-36.79-111.1-69.71c-102.37-32.92-300.71,37.81-300.71,37.81
					S954.25,868.69,962.56,873.6s217.87,60.93,217.87,60.93l86.5-25.17c0,0,75.39-30.02,76.19-65.84
					c0.61-27.58-33.11-47.12-48.66-54.66l-51.82,63.89l0.5,7.23c0,0-1.03-1.51-2.99-4.16l-8.63,10.64c0,0-23.3,12.88-44.73-33.6
					c-21.43-46.48-117.46-92.95-117.46-92.95c86.32,7.71,155.87,95.66,170.81,115.91l2.49-3.07l-1.09-16.01
					c0,0-19.84-30.98-108.72-101.67c-88.88-70.68-238.87-22.27-238.87-22.27s53.17-29.05,142.05-29.05
					C1124.87,683.75,1192.33,743.78,1192.33,743.78z"/>
				<path id="XMLID_755_" class="st10" d="M1334.22,855.81c2.24,2.65,3.43,4.16,3.43,4.16l-0.57-7.23L1334.22,855.81z"/>
				<path id="XMLID_754_" class="st10" d="M1259.7,928.61l65.16-9.58c0,0,36.5,0,89.67-5.81s39.68-57.13,39.68-57.13
					s-3.97,12.59-21.43,30.02s-64.28,6.78-73.01,0.97c-8.73-5.81,82.53,3.87,68.25-64.87c-14.29-68.75-108.72-54.22-116.65-54.22
					l-14.54,17.93c21.09,2.05,67.79,12.34,65.33,63.41C1359.14,911.91,1268.63,927.25,1259.7,928.61z"/>
				<path id="XMLID_753_" class="st12" d="M984.54,716.25c0,0,142.44,11.13,162.47,28.56c20.02,17.43,7.74-39.69,7.74-39.69
					l-31.4-10.16c0,0-131.97-6.78-157,15.49C941.3,732.71,984.54,716.25,984.54,716.25z"/>
				<path id="XMLID_752_" class="st13" d="M1213.58,933.9c34.59-15.17,35.8-16.46,34.28-24.53l-10.52-157.53
					c0,0-26.5-36.1-58.36-33.51c-31.86,2.58-50.06,10-50.06,10s-1.21,30.98,16.38,51.63c17.6,20.65,8.19,25.17,8.19,25.17
					s8.8,52.93,15.17,59.7c6.37,6.78-16.69,30.01-16.08,33.56C1153.2,901.95,1178.99,949.07,1213.58,933.9z"/>
				<path id="XMLID_751_" class="st12" d="M1214.79,910.67c9.1,2.26,10.32,4.84,16.99-5.49s14.26-40.66,15.17-43.89l-20.63-40.02
					c0,0-62.2,36.14-68.27,72.29C1151.99,929.71,1205.69,908.41,1214.79,910.67z"/>
				<path id="XMLID_750_" class="st14" d="M1227.55,916.65c25.94,25.65,86.01-2.42,87.83-29.04s-4.1-67.77-16.84-84.71
					c-12.74-16.94-33.22-31.95-33.22-35.34l-55.98-36.3l-4.1,50.83l19.11,59.54C1224.37,841.62,1201.61,890.99,1227.55,916.65z"/>
				<path id="XMLID_749_" class="st15" d="M1140.76,802.88l15.17,16.78l47.94-14.2c0,0,8.19-26.14-1.82-50.02
					c-10.01-23.88-14.87-23.88-26.7-18.39s-1.21,51.31-0.61,52.28C1175.35,790.29,1142.28,802.88,1140.76,802.88z"/>
				<path id="XMLID_748_" class="st16" d="M970.88,734.16c0,0-13.65-21.3-51.42-30.01c-37.77-8.71-83.28,19.36-83.28,19.36
					l16.84,39.69c1.37-0.97,20.48-2.9,30.04-4.36C892.61,757.4,970.88,734.16,970.88,734.16z"/>
				<path id="XMLID_747_" class="st17" d="M1493.01,911.63c-1.82-27.11-52.79-83.91-70.39-74.87c-17.6,9.04-60.68,60.03-60.68,60.03
					l115.29,57.44C1483.3,952.3,1494.83,938.74,1493.01,911.63z"/>
				<path id="XMLID_746_" class="st18" d="M1493.01,911.63c-1.34-19.89-29.13-55.76-50.79-69.89c-7.18-2.32-13.11-3.27-16.26-2.06
					c-8.26,3.16,12.26,66.54,24.13,101.03l27.14,13.52C1483.3,952.3,1494.83,938.74,1493.01,911.63z"/>
				<path id="XMLID_745_" class="st19" d="M1295.9,841.82c27.31-16.14,7.28-37.44,7.28-37.44l-35.4,3.87
					C1267.79,808.26,1268.59,857.95,1295.9,841.82z"/>
				<path id="XMLID_744_" class="st20" d="M1335.24,829.66l-47.33,9.68c0,0-9.71-9.04-30.34,9.68s-23.67,81.32-23.67,81.32
					l159.59,5.16l-47.94-67.13L1335.24,829.66z"/>
				<path id="XMLID_743_" class="st17" d="M1362.55,854.19c-9.1-17.43-19.42-17.43-38.23,12.26
					c-18.81,29.69-129.86,44.53-129.86,44.53l72.21,37.44C1304.9,949.71,1371.65,871.62,1362.55,854.19z"/>
				<path id="XMLID_742_" class="st18" d="M1256.22,924.39c0,0,16.37,8.92,34.11,17.39c36.81-19.06,79.63-73.41,72.22-87.6
					c-5.79-11.08-12.06-15.11-20.7-8.96c4.72,3.41,8.98,9.26,8.12,19.14C1348.15,885.19,1256.22,924.39,1256.22,924.39z"/>
				<path id="XMLID_741_" class="st21" d="M1209.94,855.16c0,0-37.62,3.55-44.6-30.66s-4.85,36.47-4.85,36.47l45.21,6.13
					L1209.94,855.16z"/>
				<path id="XMLID_740_" class="st21" d="M1218.43,864.19c-34.59,4.84-65.54-28.72-65.84-29.69l13.96,40.34l48.85,9.68
					L1218.43,864.19z"/>
				<path id="XMLID_739_" class="st17" d="M1147.74,789c-21.24-25.82-63.11-49.05-63.11-49.05l-54.01,34.21
					c31.55,0,94.66,44.54,94.66,44.54s-1.82,16.14-0.61,29.69s-6.67,25.82-6.67,25.82l15.78,10.97
					c15.17-7.75,13.96-37.44,13.96-37.44s3.03,23.24,16.99,31.63s42.48,15.49,42.48,15.49l1.82-18.07c0,0-23.67-8.39-32.77-12.91
					c-9.1-4.52-5.46-39.37-5.46-39.37S1168.98,814.82,1147.74,789z"/>
				<g id="XMLID_734_">
					<path id="XMLID_738_" class="st7" d="M1461.09,909.7c-20.54,33.03-139.09,10.79-163.07,4.21
						c21.71,11.25,121.03,74.68,186.34,12.57c71.95-68.42,19.04-214.28-61.37-210.41s-87.03,0.6-115.6,21.9
						c-12.93,9.64-22.12-1.34-28.3-16.24c-3.75-18.27-6.34-34.06-6.34-34.06c-87.82-187.18-391.47-121.34-561.81-6.45
						C545.32,792.94,610.61,1001.94,639,1041.37c30.68,42.6,82.52,29.69,82.52,29.69s15.87,145.87,157.65,166.52
						s211.6-222.03,211.6-222.03l-34.92,7.75c0,0-25.4,78.74-89.93,135.54c-64.53,56.8-193.62-19.36-191.5-69.71
						c2.12-50.34,44.11-113.94,44.11-113.94l-19.84-5.81c0,0-49.2,45.51-85.71,30.98c-30.52-12.14-76.78-134.06-42.06-216.89
						c35.71-85.21,134.12-159.76,336.48-157.82s207.13,70.68,207.13,70.68s-10.67,52.41,18.39,79.11l-1.45,3.88
						c4.23,2.58,56.61,40.02,88.87,9.04c32.27-30.98,108.97-36.14,125.9-6.45s2.12,71,2.12,71s24.33-32.27,17.98-60.67
						C1466.37,792.23,1484.36,872.26,1461.09,909.7z"/>
					<polygon id="XMLID_737_" class="st18" points="1454.18,905.52 1436.89,949.29 1514.25,968.44 1494.23,931.65 					"/>
					<path id="XMLID_736_" class="st8" d="M1513.73,829.95c0,0,11.11-69.71-64.28-93.92c-75.39-24.21-157.92,61.97-161.89,61.97
						l0.78,2.56c11.25,0.11,22.52-3.07,32.03-12.21c32.27-30.98,108.97-36.14,125.9-6.45s2.12,71,2.12,71s24.33-32.27,17.98-60.67
						c0,0,17.99,80.03-5.29,117.47c-16.12,25.92-92.62,17.8-136.38,9.92l3.07,10.06c40.24,19.61,107.87,43.12,156.58-3.2
						c6.67-6.34,12.27-13.35,16.87-20.85c3.35-11.75,5.19-26.16,4.56-43.73c-2.38-66.81-69.05-108.44-69.05-108.44
						C1500.24,762.17,1513.73,829.95,1513.73,829.95z"/>
					<path id="XMLID_735_" class="st7" d="M1395.92,912.28c-0.71,0.15,1.03,0.75,4.7,1.63
						C1398.1,912.77,1396.48,912.16,1395.92,912.28z"/>
				</g>
				<path id="XMLID_733_" class="st7" d="M1395.92,914.22c-0.71,0.15,1.03,0.75,4.7,1.63C1398.1,914.7,1396.48,914.1,1395.92,914.22
					z"/>
				<path id="XMLID_732_" class="st9" d="M709.9,695.41c80.32-70.55,327.08-100.94,441.3-111.48
					c-130.41-41.35-319.06,15.55-440.24,97.28c-100.17,67.55-119.28,182.19-107.57,257.8c22.27,52.91,44.1,97.19,44.1,97.19
					l68.78,11.62c0,0-75.12-25.82-88.87-85.2c-12.85-55.49,15.72-180.87,19.17-197.06c-3.27,15.45-28.85,130.21-2.24,186.73
					c28.57,60.67,68.78,78.74,68.78,78.74C656.91,997.37,606.92,785.88,709.9,695.41z"/>
				<path id="XMLID_731_" class="st22" d="M873.46,971.98l-9.41-14.52L815.2,976.5c0,2.58,20.06,15.18,20.06,15.18L873.46,971.98z"
					/>
				<path id="XMLID_730_" class="st23" d="M779.81,945.84c0,0-9.3,15.49,7.69,23.02s26.7,3.87,28.92,0.43
					c2.23-3.44,5.87-22.16,6.07-23.24l-12.34-53.57c-1.21,0-21.04-6.24-24.88,5.81s-15.58,12.48-15.58,12.48h14.97
					c0,0-18,4.52-13.75,18.07s-2.83,21.51-2.83,21.51S777.99,948.64,779.81,945.84z"/>
				<path id="XMLID_729_" class="st20" d="M787.9,941.32c2.63,16.57,42.27,23.67,44.5,23.67s29.13-33.56,31.55-40.88
					c2.43-7.31,3.84-18.72,2.83-19.79l-50.97-8.18l-13.65-15.17L816.22,897c0,0-19.82-4.52-23.26-1.29c-3.44,3.23,0.4,9.04,0.4,9.04
					S785.27,924.76,787.9,941.32z"/>
				<path id="XMLID_728_" class="st24" d="M815.31,924.76c0,0,5.36,3.23,12.64-2.04c7.28-5.27,3.24-15.71,3.24-15.71
					S832.5,921.75,815.31,924.76z"/>
				<path id="XMLID_727_" class="st10" d="M816.12,899.05c-11.83,1.94-13.96,17.27-13.96,17.27c6.83-11.3,15.47-15.01,15.47-15.01
					L816.12,899.05z"/>
				<path id="XMLID_726_" class="st22" d="M1028.68,1082.68c-55.98-27.59-57.8-126.82-57.8-130.69s-57.8-33.4-61.44-33.88
					s-20.93,64.38-21.39,70.19s5.46,64.38,5.46,64.38s0.91,28.08,8.65,30.98l73.27-5.32c0,0,15.47,71.16,74.63,105.52
					c59.16,34.37,33.22,9.2,33.22,9.2S1084.66,1110.27,1028.68,1082.68z"/>
				<path id="XMLID_725_" class="st24" d="M912.63,923.91c9.1-8.23-25.03,0.48-30.04-15.01l-51.42,60.51
					c1.37,2.9,42.32,20.81,42.32,20.81s-2.73,30.98,5.46,50.83c0,0-25.03,22.75-20.48,49.37c4.55,26.62,43.23,35.82,55.98,35.34
					c12.74-0.48,91.02-31.95,91.02-31.95l-2.28-15.49c0,0-55.52-34.85-100.57-12.59c0,0-17.29-61.47,1.37-81.32
					C903.99,984.42,903.53,932.14,912.63,923.91z"/>
				<path id="XMLID_724_" class="st18" d="M835.27,991.68c0,0,35.5-62.44,56.43-76l-20.93-6.29c0,0-67.81,38.24-71.45,60.51
					C795.68,992.16,835.27,991.68,835.27,991.68z"/>
				<polygon id="XMLID_723_" class="st18" points="1233,1101.71 1253.63,1149.48 1281.54,1119.79 				"/>
				<path id="XMLID_722_" class="st25" d="M1193.25,1032.33c31.55,1.29,79.49,28.4,79.49,28.4l5.16-11.94
					c0,0-109.53-71.32-165.36-71.32s-92.84-18.72-92.84-18.72l-18.2,1.29L959.51,997c1.37,6.78,39.14,75.03,40.5,75.03
					c1.37,0,68.26,9.2,68.26,9.2s130.44-3.07,167.45,36.95l10.92-5.81c0,0-30.61-36.7-61.89-48.73
					c-28.52-10.97-69.78-24.85-69.78-24.85S1161.7,1031.04,1193.25,1032.33z"/>
				<path id="XMLID_721_" class="st18" d="M1182.04,961.18c-2.28-0.48-138.8-41.63-138.8-41.63l-28.7,37.91
					c0,0,54.64,51.16,116.07,40.51C1192.05,987.32,1184.32,961.67,1182.04,961.18z"/>
				<path id="XMLID_720_" class="st18" d="M1193.25,1032.33c13.63,0.56,30.31,5.93,44.87,11.86
					c-51.61-32.76-172.3-47.36-172.3-47.36c-9.1,41.95-67.96,60.03-67.96,60.03l36.12,19.68c17.12,2.33,34.29,4.69,34.29,4.69
					s130.44-3.07,167.45,36.95l10.92-5.81c0,0-30.61-36.7-61.89-48.73c-28.52-10.97-69.78-24.85-69.78-24.85
					S1161.7,1031.04,1193.25,1032.33z"/>
				<path id="XMLID_719_" class="st26" d="M1526.88,1008.76l-281.46-51.23l-183.06-65.47l-53.43,39.35
					c12,9.45,157.62,165.6,157.62,165.6l40.21-0.13l32.1,46.37l-3.22-16.33l19.11-18.29l-6.36-15.74l67.36,74.54l22.77-8.88
					c0,0,62.53,23.98,64.68,68.21l85.84-0.97l-28.27-55.24l54.71-70.34l-95.21-55.62l91.07,22.85L1526.88,1008.76z"/>
				<g id="XMLID_715_">
					<path id="XMLID_718_" class="st6" d="M1520.1,1034.33c-89.83-21.46-219.61-53.32-219.61-53.32l-120.8-46.98l-95.09-34.01
						l165.2,196.34l-1.4-3.47l67.36,74.54l22.77-8.88c0,0,5.16,1.98,12.56,5.85c-48.72-62.03-120.51-148.29-175.84-193.11
						c71.86,49.74,235.11,163.78,298.99,225.59l-13.48-26.33l34.71-44.62c-110.93-62.11-326.09-182.5-359.64-200.69
						c28.73,13.59,187.91,79.92,288.17,121.53l-3.73-2.18l91.07,22.85L1520.1,1034.33z"/>
					<path id="XMLID_717_" class="st6" d="M1295.94,1096.88l36.82,46.37l-1.08-4.77c-31.63-42.21-146.59-162.42-208.31-225.76
						l-9.65,12.61l154.97,171.63L1295.94,1096.88z"/>
					<path id="XMLID_716_" class="st6" d="M1130.31,892.06l-16.66,10.7c3.06,3.13,6.31,6.46,9.72,9.96l14.1-18.42L1130.31,892.06z"
						/>
				</g>
				<g id="XMLID_706_">
					<path id="XMLID_714_" class="st27" d="M1302.96,1260.21l-7-0.96C1295.96,1259.25,1298.51,1259.67,1302.96,1260.21z"/>
					<path id="XMLID_713_" class="st27" d="M1170.77,1145.29c0,0-2.04-0.25-5.59-0.52
						C1167.03,1144.98,1168.89,1145.16,1170.77,1145.29z"/>
					<path id="XMLID_712_" class="st27" d="M1217.87,1164.03c-6.84,0.69-11.32,2.19-11.32,2.19S1210.92,1165.15,1217.87,1164.03z"/>
					<path id="XMLID_711_" class="st27" d="M951.01,940.03c-0.55,5.23-13.67,125.01,21.87,150.6
						c35.53,25.58,106.05,11.05,106.05,11.05s36.59,37.29,86.25,43.09c3.55,0.27,5.59,0.52,5.59,0.52c-1.88-0.13-3.74-0.3-5.59-0.52
						c-19.47-1.48-84.36-3.59-107.02,31.34c-26.79,41.28,13.67,43.61,73.8,49.42c60.13,5.81,122.45,33.72,122.45,33.72l109.33,9.3
						l-60.79-8.34c-4.45-0.55-7-0.96-7-0.96l7,0.96c23.96,2.95,102.9,9.77,134.03-23.34l-49.2-15.7c0,0,1.64,20.93-28.7,17.45
						c-30.34-3.49-54.12-23.55-54.12-23.55s39.36,22.68,57.41,5.23c18.04-17.45,68.07-13.96,68.07-13.96s-52.48-19.19-69.71-7.85
						c-17.22,11.34-52.48,0.87-52.48,0.87l27.06-9.59c0,0-47.56,15.7-71.35-9.6c-15.11-16.07-34.17-17.35-46.08-16.15
						c-6.95,1.12-11.32,2.19-11.32,2.19s4.49-1.51,11.32-2.19c17.32-2.8,50.67-5.9,72.32,6.56c0,0-12.3-17.45-35.26-47.1
						c-22.96-29.66-76.27-13.08-98.41-26.17c-22.14-13.08-36.08-49.72-36.08-49.72s-75.45,22.68-112.35,3.49
						c-36.9-19.19-24.6-105.55-24.6-105.55L951.01,940.03z"/>
					<path id="XMLID_710_" class="st28" d="M965.23,1047.6c-15.31-29.93-6.19-81.83-0.85-105.31l-3.66-0.62
						c-8.5,37.67-22.64,140.89,34.25,149.53c68.89,10.47,76.27,0.87,76.27,0.87s56.59,46.23,77.09,41.87
						c0,0-55.77-28.79-68.89-54.95c0,0-22.96,1.14-62.09-24.16c-3.28-1.02-6.39-2.26-9.26-3.75
						c-23.73-12.34-27.11-52.46-26.51-79.52c-0.49-10.84,0.05-18.15,0.05-18.15l-8.2-1.74c0,0-12.57,92.45,39.36,116.29
						c20.11,9.23,33.83,13.76,43.09,15.83c-17.49-1.28-43.44-5.58-58.39-19.32c-23.84-21.9-43.37-82.62-29.89-121.62l-0.9-0.15
						c-5.47,18.52-12.38,55.18,0.18,84.56c21.87,51.17,43.23,58.44,73.8,61.64C1040.66,1088.88,985.45,1087.14,965.23,1047.6z"/>
					<g id="XMLID_707_">
						<path id="XMLID_709_" class="st28" d="M1146.13,1140.95c1.51,0.43,3.03,0.83,4.57,1.2c1.3-0.24,2.04-0.35,2.04-0.35
							L1146.13,1140.95z"/>
						<path id="XMLID_708_" class="st28" d="M1140.74,1144.19c-27.43,0.73-66.14,6.57-82.58,31.92
							c-26.79,41.28,13.67,43.61,73.8,49.42c37.45,3.62,75.74,15.81,99.3,24.49l-39.48-21l72.17,18.32l-62.33-27.04l83.65,27.04
							l-82.01-41c0,0,31.16,10.47,69.71,27.91c38.54,17.45,62.33,9.6,62.33,9.6s-86.11-26.17-114.81-42.74
							c-28.7-16.57-119.73-6.98-126.29-27.91C1089.44,1158.04,1122.27,1148.37,1140.74,1144.19z"/>
					</g>
				</g>
				<path id="XMLID_705_" class="st25" d="M880.15,912.35c0,0,45.5,48.95,81.02,50.02s50.65-23.66,50.65-23.66
					S888.62,829.96,885.79,829.4s-70.36-17.88-70.36-17.88l-36.77,31.37c0,0,8.9,39.73,37.28,63.37
					C844.32,929.9,880.15,912.35,880.15,912.35z"/>
				<path id="XMLID_704_" class="st29" d="M1019,950.85c-1.72-10.6-15.17-22.89-15.17-22.89l-40.35-2.12c0,0-25.17,8.48-32.76,44.52
					c0,0-13.11,4.24-13.11,14.84c0,10.6,12.76,14.84,12.76,14.84s-7.59,16.96,8.97,22.05c0,0,12.76,15.26,25.52,6.36
					c0,0,33.11,10.6,36.9-13.14c0,0,12.07-1.27,14.14-11.45s-1.72-13.57-1.72-13.57s8.28-3.39,9.31-12.72
					c1.03-9.33-7.24-15.69-7.24-15.69S1020.72,961.45,1019,950.85z"/>
				<path id="XMLID_703_" class="st30" d="M1064.2,978.48c24-22.47,51.51-69.58,51.51-69.58l67.56-8.09c0,0-11.43-26.32-58.9-19.26
					C1076.89,888.61,1012,893.7,1012,893.7l-3.84,54.66C1008.16,948.36,1040.2,1000.95,1064.2,978.48z"/>
				<path id="XMLID_702_" class="st31" d="M1417.73,853.72c0,0-60.3,44.65-110.4,55.03c-50.1,10.39-126.77-6.56-126.77-6.56
					s-20.05-9.24-44.27-4.66c-24.21,4.58-48.32,16.96-48.32,16.96l47.74,52.04c0,0,97.19-1.75,103.5-2.69s173.69-17.53,173.69-17.53
					l74.37-11.06l3.97-15.25l17.2-5.49l6.27-32.7l-80.1,12.89l-3.71-7.27l8.71-7.16L1417.73,853.72z"/>
				<path id="XMLID_701_" class="st32" d="M596.6,862.08c-1.85-8.63-16.26-7.57-16.26-7.57l-15.55,1.44c0,0-20.58,19.36,1.36,39.34
					l11.36-4.3c0,0-8.52-6.77-9.48-17.71c0,0,8.1,14.44,20.61,11.71l7.24-4.77c0,0-10.13-0.88-14.62-7.82
					C581.26,872.4,598.45,870.71,596.6,862.08z"/>
				<path id="XMLID_700_" class="st33" d="M695.02,715.63c0.04,0.76,0.05,1.23,0.05,1.23C695.11,716.42,695.09,716.01,695.02,715.63
					z"/>
				<path id="XMLID_699_" class="st33" d="M682.06,709.56c0,0,2.92,1.3,6.35,9.8s-3.8,10.61,0.48,19.85
					c4.27,9.24,21.38,5.96,21.38,5.96l40.76,22.74c0,0,6.43,5.91,11.07,8.38c4.64,2.47,6.67,0.42,15.4-1.52
					c8.73-1.94,6.72-9.31,6.72-9.31c5.59-1,8.26-21.79,8.26-21.79s-4.05-17.65-14.15-26.57c-10.1-8.92-29.87-3.35-29.87-3.35
					s0,0-6.64-6.91c-6.64-6.91-14.25-0.95-14.25-0.95s-1.4-4.38-9.12-6.54c-7.72-2.16-13.9,7.85-13.9,7.85
					c-4.45-10.56-17.06-6.45-17.06-6.45c6.19,0.96,7.31,11.28,7.51,14.87c0.07,0.39,0.09,0.79,0.05,1.23c0,0,0-0.47-0.05-1.23
					C694.02,710.05,682.06,709.56,682.06,709.56z"/>
				<path id="XMLID_698_" class="st18" d="M775.12,751.61c2.04-4.33-1.5-11.17-4.38-15.63c-8.74,5.97-20.47,5.96-20.47,5.96
					s-11.94-16.37-25.72-15.18c-11.21,0.97-20.65,11.6-23.79,15.53c3.43,5.5,19.66,32.66,13.43,44.41c0,0,3.99,3.71,11.66,0.58
					l4.39,6.13l3.47,2.78c0,0,11.97,6.84,23.31,1.64c5.15-2.36,11.33-9.26,16.69-17.32c2.47-12.44-7.52-25.85-7.52-25.85
					S771.89,758.46,775.12,751.61z"/>
				<path id="XMLID_695_" class="st34" d="M775.12,751.61c2.04-4.33-1.5-11.17-4.38-15.63c-8.74,5.97-20.47,5.96-20.47,5.96
					s-11.94-16.37-25.72-15.18c-0.77,0.07-1.53,0.18-2.29,0.34c12.62,10.31,28.18,25.34,27.91,36.59
					c-0.27,11.1-7.3,24.71-13.05,34.04c4.36,1.65,12.28,3.6,19.9,0.1c5.15-2.36,11.33-9.26,16.69-17.32
					c2.47-12.44-7.52-25.85-7.52-25.85S771.89,758.46,775.12,751.61z"/>
				<path id="XMLID_694_" class="st25" d="M812.66,775.27c-11.23-12.01-50.86,4.63-50.86,4.63s-12.6-4.97-27.83,8.54
					c-15.23,13.51-10.71,33.85-10.71,33.85l67.12,3.7C795.79,825.19,823.89,787.29,812.66,775.27z"/>
				<path id="XMLID_693_" class="st35" d="M969.34,709.29c-23.06-1.29-62.2,27.11-64.02,27.43l67.96,7.42
					C975.71,741.24,992.4,710.58,969.34,709.29z"/>
				<path id="XMLID_692_" class="st15" d="M1060.66,710.58c-26.7-41.63-81.31-16.46-81.31-16.46s-45.81,49.05-46.72,50.02l71.6-11.3
					C1004.23,732.85,1087.36,752.21,1060.66,710.58z"/>
				<path id="XMLID_689_" class="st31" d="M1056.99,712.65c-88.72-13.9-177.33,22.36-177.33,22.36l63.53,64l107.85-13.67
					C1054.37,770.62,1052.73,731.68,1056.99,712.65z"/>
				<g id="XMLID_675_">
					<path id="XMLID_688_" class="st36" d="M719.87,928.43c0,0-0.06,0.22-0.14,0.6C719.83,928.65,719.87,928.43,719.87,928.43z"/>
					<path id="XMLID_687_" class="st36" d="M699.82,875.35c-3.03,10.17,6.76,32.99,10.96,47.63s-3.03,19.6-3.03,19.6
						c8.15-0.43,11.31-10.9,11.98-13.54c0.08-0.38,0.14-0.6,0.14-0.6s-0.05,0.22-0.14,0.6c-0.44,2.09-1.5,9.52,3.64,17.51
						c6.06,9.43,8.86,3.97,8.86,3.97c-6.06-4.71,2.57-17.86,2.57-17.86c0.47,5.46,10.03,10.17,10.03,10.17s-7.93-15.13,0.23-23.81
						s-0.23-16.87-0.23-16.87l33.58-30.02c0,0,3.03-8.43,3.03-17.36s-8.16-27.04-23.32-26.05c-15.16,0.99-26.35-0.99-34.75,4.47
						c-8.4,5.46-3.96,24.31-3.96,24.31S702.85,865.18,699.82,875.35z"/>
					<g id="XMLID_676_">
						<path id="XMLID_686_" class="st22" d="M766.69,910.25c10.24-2.38,25.04-15.46,26.33-21.25c1.3-5.79-10.61-24.87-21.11-30.98
							c-3.81-2.22-10.27-4.7-17.41-6.8c-5.47,5.9-17.49,9.51-22.97,12.04c-7.49,3.46-7.56,17.72-7.56,17.72
							c-3.8,2.77,2.42,18.62,6.53,27.96C741.92,910.21,759.92,911.82,766.69,910.25z"/>
						<path id="XMLID_685_" class="st37" d="M770.75,893.35c2.22-0.63,0.62-9.19,0.62-9.19s-1.18,5.99-2.31,6.73
							c-1.12,0.74-28.34-5.48-29.84-4.5l3.56,1.92C743.25,888.42,768.53,893.97,770.75,893.35z"/>
						<path id="XMLID_684_" class="st37" d="M776.62,895.85l1.22-10.78C773.05,889.34,776.62,895.85,776.62,895.85z"/>
						<path id="XMLID_683_" class="st37" d="M779.61,886.28l-1.18,6.33C782.17,890.37,779.61,886.28,779.61,886.28z"/>
						<path id="XMLID_682_" class="st37" d="M739.22,894.79c-2.6,5.72,1.78,12.95,1.78,12.95c-2.59-9.84,3.88-18.91,3.88-18.91
							S741.82,889.08,739.22,894.79z"/>
						<path id="XMLID_681_" class="st37" d="M749.54,859.41c-10,6.65-9.48,20.93-9.48,20.93l2.47,0.75c0,0-0.31-7.73,1.26-12.05
							C745.36,864.73,749.54,859.41,749.54,859.41z"/>
						<path id="XMLID_680_" class="st38" d="M758.03,870.23c0.54-2.4-1.16-4.88-3.79-5.55s-5.2,0.74-5.74,3.14s1.16,4.88,3.79,5.55
							C754.92,874.04,757.49,872.63,758.03,870.23z"/>
						<path id="XMLID_678_" class="st38" d="M753.67,897.18c0.54-2.4-1.16-4.88-3.79-5.55s-5.2,0.74-5.74,3.14s1.16,4.88,3.79,5.55
							C750.57,900.98,753.13,899.58,753.67,897.18z"/>
					</g>
				</g>
				<path id="XMLID_672_" class="st39" d="M814.43,828.35c34.15-59.05-32.39-49.97-49.78-37.71c0,0-96.43,41.03-113.91,44.13
					c-17.48,3.11-70.47,16.59-70.47,16.59l1.77,13.48C582.05,864.85,780.28,887.4,814.43,828.35z"/>
				<path id="XMLID_669_" class="st18" d="M751.06,816.15c-3.77,20.8-37.39,39.31-70.14,52.73c54.69-1.37,115.15-10.06,133.16-39.93
					C789.44,810.35,755.72,790.4,751.06,816.15z"/>
				<path id="XMLID_668_" class="st32" d="M587.75,861.46l9.72-11.12c0,0-36.04-6.35-52.71-1.32c-16.66,5.02-27.7,18.89-27.7,18.89
					l9.19,8.51C526.25,876.41,554.71,856.7,587.75,861.46z"/>
				<path id="XMLID_667_" class="st39" d="M612.14,860.64l-7-9.71c0,0-16.92-6.28-23.36-6.3c-6.44-0.02-14.16,1.13-15.21,1.29
					c-1.05,0.16-21.3,9.36-11.42,35.59l16.57-1.81l-2.97-17.15C568.76,862.53,595.48,878.11,612.14,860.64z"/>
				<path id="XMLID_666_" class="st18" d="M1077.35,825.79l32.16,65.19l20.63-1.29c0,0-3.64-12.91-20.02-51.63
					c-16.38-38.73-46.12-56.15-46.12-56.15s-1.21-10.33-30.95-19.36c-29.73-9.04-57.65,27.11-57.65,27.11l18.81,101.98
					c0,0,70.39,12.26,67.36-18.07C1058.54,843.22,1077.35,825.79,1077.35,825.79z"/>
				<path id="XMLID_663_" class="st30" d="M816.81,849.09c0,0,116.7,127.97,252.52,107.77l52.53-66.47
					c0,0-137.56-95.54-176.01-154.99c0,0-35.55-4.95-66.2-0.39s-80.23,42.38-80.23,42.38l-16.13-1.51l-9.26,11.15l-13.52,2.01
					l-2.42,4.92l-17.34,3.23l-5.52,9.29C735.23,806.48,756.72,858.03,816.81,849.09z"/>
				<g id="XMLID_652_">
					<path id="XMLID_660_" class="st31" d="M759.27,791.56l-1.18,2.4l-17.18,3.2c10.92,14.52,32.25,34.45,69.49,40.5
						C810.41,837.66,774.72,821.82,759.27,791.56z"/>
					<path id="XMLID_656_" class="st31" d="M945.85,735.4c0,0-35.55-4.95-66.2-0.39c-24.8,3.69-62,29.15-75.29,38.74
						c22.26,8.68,64.35,5.77,143.94-34.71C947.44,737.81,946.62,736.59,945.85,735.4z"/>
					<path id="XMLID_653_" class="st31" d="M779.48,780.46l-5.45,6.57l-5.45,0.81c11.3,15.73,25.79,30.86,41.94,36.77
						C810.53,824.61,790.7,804.44,779.48,780.46z"/>
				</g>
				<path id="XMLID_648_" class="st31" d="M868.36,859.02c0,0,40.75-25.61,107.2-37.45l21.4-42.29l-51.11-43.88l-22.07,4.59
					l48.82,35.75l-6.28,36.13C966.32,811.86,904.95,815.78,868.36,859.02z"/>
				<path id="XMLID_644_" class="st30" d="M1027.9,823.56c10.64,1.68,23.43,29.1,23.43,29.1l26.25,4.91l-19.1-15.75
					c0,0-4.56-25.39-26.51-33.86c-21.95-8.47-58.18,28.21-58.18,28.21l-56.11,25.29l65.95-15.68
					C983.65,845.78,1017.27,821.88,1027.9,823.56z"/>
				<path id="XMLID_641_" class="st31" d="M1023.35,829.46c20.73-3.08,35.14,12.35,35.14,12.35s-12.71-26.93-31.25-24.66
					c-18.54,2.27-45.64,26.83-45.64,26.83s-70.14,18.74-73.29,19.21l84.4-8.16C992.71,855.04,1002.61,832.55,1023.35,829.46z"/>
				<path id="XMLID_640_" class="st31" d="M886.96,858.06l77.34-16.39C948.05,826.49,886.96,858.06,886.96,858.06z"/>
				<path id="XMLID_639_" class="st31" d="M869.5,791.74c0,0,3.43,15.62,11.78,23.17L869.5,791.74z"/>
				<path id="XMLID_638_" class="st31" d="M1133.68,892.72l-50.78,1.69c0,0-20.1-16.56-67.07-20.82
					c-46.97-4.25-95.14,31.26-95.14,31.26c80.96-39.24,149.91,0.99,149.91,0.99L1133.68,892.72z"/>
				<path id="XMLID_636_" class="st31" d="M1155.92,893.15c0,0-55.15-41.98-97.43-51.33c0,0-17.14-9.18-35.43-3.85
					s-25.65,28.58-25.65,28.58s70.96,3.78,81.56,19.15L1155.92,893.15z"/>
				<path id="XMLID_633_" class="st40" d="M1346.37,966.12c0,0-32.97,22.14-48.89,6.66s-44.14-10.05-44.14-10.05l-40.89,14.7
					c6.24-0.93,90.77,30.2,108.25,39.91c17.48,9.71,76.92,56.88,76.92,56.88l3.16-2.97l-9.99-16.65l13.11,13.73l5.67-5.33
					l-11.81-15.95l14.03,13.86l5.74-5.4l-12.89-16.66l15.03,14.65l12.97-12.19l-33.7-36.23c0,0-17.75,1.41-24.94-9.22
					c-7.18-10.63-5.14-17.09-5.14-17.09L1346.37,966.12z"/>
				<path id="XMLID_632_" class="st39" d="M1353.88,963.41l-3.19-24.29c-43.44,5.16-64.84-13.16-119.15-16.16
					c-32.6-1.8-53.85,7.16-65.63,14.61c-18.6-12.33-52.06-32.94-65.19-30.99l-41.32,16.57l-10.46,27.62l-6.41,21.16
					c0,0,75.9,13.42,103.72,8.95C1197.72,995.83,1353.88,963.41,1353.88,963.41z"/>
				<path id="XMLID_631_" class="st39" d="M1463.94,915.1c-7.55-1.48-59.15,6.84-68.16,8.18c-9.01,1.34-17.85-0.6-33.71-4.76
					c-15.86-4.16-37.41,27.72-37.41,27.72l0.82,15.52c19.1,14.76,132.71,16.75,132.71,16.75l0.62-6.79l-20.13-6.03l20.58,1.09
					l1.18-13.05l-23.55-4.45l23.9,0.61l1.12-12.37c-8.58-1.09-24.19-1.14-24.19-1.14s15.36-3.66,24.83-5.91L1463.94,915.1z"/>
				<g id="XMLID_627_">
					<path id="XMLID_629_" class="st18" d="M1070.11,918.84c-3.56,2.09-7.57,4.46-11.73,6.92l-9.47,25.01l-6.41,21.16
						c0,0,39.55,6.99,72.01,9.2l-54.55-16.35c-0.95-15.67,15.14-41.22,21.33-50.43L1070.11,918.84z"/>
					<path id="XMLID_628_" class="st17" d="M1191.7,974.02c-7.09,5.45-44.68,6.16-44.68,6.16l0.3,1
						c52.55,14.21,206.56-17.77,206.56-17.77l-1.41-10.73l-181.93-6.79C1170.53,945.89,1198.79,968.57,1191.7,974.02z"/>
				</g>
				<path id="XMLID_626_" class="st41" d="M1021.93,744.68l55.02,26.03c0,0,15.57,1.29,21.24-9.04c5.66-10.33,5.26-16.78,5.26-16.78
					s4.45-3.44,3.84-11.19s-8.5-9.25-8.5-9.25s2.43-8.61-1.01-11.83c-3.44-3.23-12.14-19.58-25.28-23.67
					c-13.15-4.09-31.96,7.31-31.96,7.31s-10.72-6.45-20.23,3.87c-9.51,10.33-5.46,20.4-5.46,20.4
					C1010.2,727.61,1021.93,744.68,1021.93,744.68z"/>
				<path id="XMLID_625_" class="st42" d="M1067.24,723.78c-14.56,3.62-25.89-23.85-25.89-23.85c-6.47,6.24-3.44,21.51-3.24,22.59
					l26.03,42.13l12.81,6.06c0,0,15.57,1.29,21.24-9.04c5.66-10.33,5.26-16.78,5.26-16.78s4.45-3.44,3.84-11.19
					c-0.03-0.36-0.08-0.71-0.14-1.05c-3.83-4.96-10.99-5.19-10.99-5.19s5.87-3.23,0.4-13.98c-5.46-10.76-25.49-11.4-25.49-11.4
					l7.89,9.25c-5.46-5.16-16.38-5.81-16.38-5.81c8.9,3.01,10.92,10.54,10.92,10.54c-2.43-2.8-14.56-5.38-14.56-5.38
					S1081.8,720.15,1067.24,723.78z"/>
				<path id="XMLID_624_" class="st17" d="M1099.39,750.17c-2.67,0.82-6.57,1.45-12.13,1.18c-13.35-0.65-20.63-26.89-20.63-26.89
					c-14.97,2.37-25.28-7.75-25.28-7.75c-6.55,0.13-14.98,4.2-20.82,7.49c0.04,12.91,1.28,60.58,17.19,67.16
					c10.31,4.27,25.99,3.1,39.13-3.9c2.61-2.13,5.02-4.57,6.77-7.29c6.67-10.33,4.65-16.57,4.65-16.57
					S1097.15,767.03,1099.39,750.17z"/>
				<path id="XMLID_622_" class="st31" d="M1120.19,905.63c0,0-30.7-9.77-61.06,15.6c-30.36,25.37-12.6,57.92-12.6,57.92
					S1047.3,915.17,1120.19,905.63z"/>
				<path id="XMLID_621_" class="st18" d="M905.56,733.1c-8.43,0.11-17.36,0.64-25.9,1.91c-29.55,4.4-76.7,39.71-80.05,42.23
					c11.61,12.19,37.42,32.05,73.32,17.9C901.64,783.83,906.55,755.27,905.56,733.1z"/>
				<path id="XMLID_620_" class="st43" d="M901.58,685.09c6.27-2.8,13.75-8.61,13.96-9.25c0.2-0.65,4.65-25.82-1.21-32.92
					c-5.87-7.1-13.96-3.44-13.96-3.44s-9.3-14.2-28.12-5.81c-18.81,8.39-32.57,32.49-32.57,32.49l23.46,29.69
					c0,0,18.41-3.01,22.86-4.09C890.45,690.68,895.31,687.88,901.58,685.09z"/>
				<path id="XMLID_618_" class="st15" d="M903.8,725.1c24.85,1.67,13.17-58.06,9.47-74.57c-3.78,4.27-15.14,1.2-15.14,1.2
					s-0.81,8.18-13.35,13.77c-7.61,3.39-23.77,0.85-36.3-1.96l10.71,21.87C859.2,685.41,874.98,723.17,903.8,725.1z"/>
				<path id="XMLID_617_" d="M871.94,698.64c3.94-2.26,14.46-4.95,14.46-4.95C879.53,689.39,871.94,698.64,871.94,698.64z"/>
				<path id="XMLID_616_" class="st43" d="M885.5,686.16c0,0-12.44-9.25-18.41,4.63c0,0,4.05-4.73,10.11-5.27
					C883.27,684.98,885.5,686.16,885.5,686.16z"/>
				<path id="XMLID_615_" class="st44" d="M854.55,642.97c-2.81,9.52-30.29,9.52-43.09,9.14c-12.8-0.38-18.11,12.18-18.11,12.18
					s-13.74,2.67-21.86,18.28s0.54,35.59,0.54,35.59h6.24l8.83,5.91l66.82,30.08c0,0,9.99-3.43,16.24-17.13
					c6.24-13.71,4.37-25.13,4.37-25.13l-11.55,3.05l9.68-12.94l-10.3,1.52c0,0,0-6.09,12.49-9.52s20.92-20.56,20.92-20.56
					c-5.93,5.33-19.67,6.47-19.67,6.47c-7.81,3.05-19.05-6.85-19.05-6.85s10.62,1.14,24.04,0.38c13.43-0.76,14.36-22.08,14.36-22.08
					s-6.56,20.94-19.05,10.28c-12.49-10.66-29.04-1.9-29.04-1.9C857.67,652.11,854.55,642.97,854.55,642.97z"/>
				<g id="XMLID_612_">
					<path id="XMLID_614_" class="st45" d="M874.84,693.99c12.49-3.43,20.92-20.56,20.92-20.56c-5.93,5.33-19.67,6.47-19.67,6.47
						c-5.45,2.13-12.57-2.06-16.38-4.78c-7.04,1.98-16.09,5.75-20.23,12.54c-7.28,11.94-25.49,16.46-25.49,16.46l3.64,11.3
						c0,0,22.45-8.71,27.61-21.62c5.16-12.91,18.51-10.65,18.51-10.65s-9.1,0.97-10.01,8.71c-0.91,7.75-3.03,13.55-3.03,13.55
						l-8.5,18.07l23.06-16.46l-16.38,24.53c0,0,13.57,0.92,25.83-12.69c0.25-4.31-0.18-6.98-0.18-6.98l-11.55,3.05l9.68-12.94
						l-10.3,1.52C862.35,703.51,862.35,697.42,874.84,693.99z"/>
					<path id="XMLID_613_" class="st45" d="M854.99,646.19c-0.95,6.01-5.46,13.13-21.27,14.05c-27.91,1.61-45.21,11.3-50.06,23.88
						c-4.85,12.59-1.82,21.3-1.82,21.3s1.82-28.08,22.76-30.34c20.93-2.26,47.33-9.04,47.33-9.04s-21.48,11.39-34.59,14.52
						c-13.11,3.13-23.67,18.07-23.67,18.07s22.15,2.9,36.41-11.62c8.14-8.29,19.73-11.63,28.18-12.98c-0.77-0.6-1.21-0.99-1.21-0.99
						s2.14,0.23,5.71,0.41c3.92-0.38,6.46-0.32,6.46-0.32s-1.12,0.13-2.95,0.46c4.07,0.13,9.19,0.14,14.82-0.18
						c13.43-0.76,14.36-22.08,14.36-22.08s-6.56,20.94-19.05,10.28c-12.49-10.66-29.04-1.9-29.04-1.9
						C853.85,654.93,855.02,649.53,854.99,646.19z"/>
				</g>
				<path id="XMLID_609_" class="st39" d="M853.35,718.24c-0.99-3.77-2.05-7.51-3.14-10.9c-0.35-0.18-0.69-0.39-1.03-0.64
					c-9.1-6.78-25.79,3.23-25.79,3.23l-16.69-27.11c-11.74,3.3-27.03,20.01-34.44,28.79l0.85,6.46l5.07,3.06l8.54,34.98l10.52-7.29
					l15.41,21.74l34-17.76c-1.53-0.48-2.56-0.79-2.69-0.79c-0.66,0,4.28-29.56,4.28-29.56L853.35,718.24z"/>
				<path id="XMLID_608_" class="st46" d="M853.35,718.24c-0.99-3.77-2.05-7.51-3.14-10.9c-0.35-0.18-0.69-0.39-1.03-0.64
					c-9.1-6.78-25.79,3.23-25.79,3.23l-16.69-27.11c-0.81,0.23-1.64,0.52-2.49,0.87c-0.3,11.37-0.07,25.7,2.79,28.17
					c4.85,4.2,18.51,12.26,16.69,23.88s-6.67,22.27-6.67,22.27s7.62,0.87,16.2,1.82l13.45-7.02c-1.53-0.48-2.56-0.79-2.69-0.79
					c-0.66,0,4.28-29.56,4.28-29.56L853.35,718.24z"/>
				<path id="XMLID_607_" class="st17" d="M1352.46,952.68l-27.41,1.13l0.42,7.96c14.61,11.29,84.5,15.11,116.57,16.28l-74.15-19.98
					l26.67-10.32L1352.46,952.68z"/>
				<path id="XMLID_606_" class="st43" d="M960.23,651.2l29.73-20.98c0,0-4.85-10.97-15.47-20.01c-10.62-9.04-27.91,4.84-27.91,4.84
					s-7.59-9.36-26.09,7.1c-18.51,16.46,6.98,37.11,6.98,37.11L960.23,651.2z"/>
				<path id="XMLID_605_" class="st15" d="M985.18,676.75c3.03-3.35,1.62-10.71,0.17-15.68c-9.62,2.83-20.39-0.74-20.39-0.74
					s-6.58-18.65-19.55-21.74c-10.55-2.51-22.07,4.38-26.01,7.05c1.67,6.09,9.29,35.95,0.43,44.85c0,0,2.67,4.62,10.55,4.07
					l2.39,6.95c0,0,6.36-0.95,11.64-4.03c0,0-7.17,6.71-9.21,7.64c0,0,9.16,9.92,20.96,8.58c5.36-0.61,12.88-5.07,19.97-10.84
					c5.61-10.67,0.03-26.02,0.03-26.02S980.38,682.06,985.18,676.75z"/>
				<path id="XMLID_604_" class="st41" d="M976.92,625.38c-9.41-2.26-32.77,4.52-35.5,15.81c-2.73,11.3,4.55,25.17,4.55,25.17
					l48.54,26.79c0,0,11.53-9.68,22.76-9.68c11.23,0,18.51-6.78,18.51-6.78c-5.46,0.32-14.56-6.13-14.56-6.13s6.07,0.97,13.96-0.65
					c7.89-1.61,9.1-17.43,9.1-17.43s-1.82,6.13-10.32,7.42c-8.5,1.29-20.02-10-20.02-10s12.44-1.94,19.72-3.87
					c7.28-1.94,6.98-14.2,6.98-14.2s-5.76,10.33-12.44,4.84c-6.67-5.49-23.06,0.97-23.06,0.97s10.92-9.36,18.81-9.68
					s15.78-12.59,15.78-12.59s-9.71,8.71-19.72,4.84s-28.52,6.78-28.52,6.78l3.94-11.94C995.43,615.06,986.33,627.64,976.92,625.38z
					"/>
				<path id="XMLID_602_" class="st47" d="M951.09,696.11l2.39,6.95c0,0,6.36-0.95,11.64-4.03c0,0-7.17,6.71-9.21,7.64
					c0,0,9.16,9.92,20.96,8.58c5.36-0.61,12.88-5.07,19.97-10.84c5.61-10.67,0.03-26.02,0.03-26.02s4.22,5.22,9.02-0.09
					c3.03-3.35,1.62-10.71,0.17-15.68c-8.49,2.5-17.88,0.01-19.96-0.61c-11.81-0.58-17.95-12.08-17.95-12.08h-27.32
					c2.4,9.54,7.62,34.16-0.29,42.11C940.55,692.04,943.21,696.66,951.09,696.11z"/>
				<path id="XMLID_601_" class="st33" d="M917.61,985.19c0,10.6,12.76,14.84,12.76,14.84s-7.59,16.96,8.97,22.05
					c0,0,9.7,11.6,20.64,8.67c2.09-5.62-5.3-14.82-5.3-14.82c8.02,2.71,10.54,8.12,11.09,12.78c3.2,0.89,14.2,3.56,23.27,1.01
					c-0.27-0.97-0.62-2.1-1.08-3.4c-2.76-7.84-23.62-15.26-23.62-15.26s4.66-2.97,15.35,1.06c5.69,2.14,11.68,8.5,16.5,13.9
					c2.74-2.37,4.79-5.81,5.57-10.72c0,0,12.07-1.27,14.14-11.45s-1.72-13.57-1.72-13.57s8.28-3.39,9.31-12.72
					c0.32-2.87-0.25-5.47-1.18-7.68c-0.02-0.04-0.04-0.09-0.05-0.13c-2.11-4.89-6.01-7.88-6.01-7.88s0.48-0.05,1.06-0.47
					c-6.81-6.35-16.66,5.56-16.66,5.56s-6.29-2.23-9.48,3.29c-3.19,5.51-0.95,13.25-0.95,13.25s-7.76-3.39-11.9,0.85
					s-2.07,16.85-2.07,16.85s-2.24-10.18-9.92-10.18c-7.67,0-10.95,7.63-10.95,7.63s-0.86-9.43-8.79-10.81s-13.79,2.86-13.79,2.86
					c-5.72-1.97-5.67-12.35-4.99-19.1C923.93,973.53,917.61,977.83,917.61,985.19z"/>
				<path id="XMLID_600_" class="st48" d="M729.65,757.27c0,0-1.52,7.31-9.71,8.82l0.4,2.26
					C720.34,768.35,730.36,767.59,729.65,757.27z"/>
				<path id="XMLID_599_" class="st33" d="M728.33,753.93c-4.55,3.98-13.35,7.1-13.35,7.1l1.01,1.61
					C722.06,761.25,728.33,753.93,728.33,753.93z"/>
				<path id="XMLID_598_" class="st44" d="M846.65,776.76c6.83-0.97,22.75,8.23,29.58-7.26c6.83-15.49,17.75-27.11,23.66-22.27
					c5.92,4.84,22.75,5.32,28.22-4.84c5.46-10.17,15.02-32.43,15.02-32.43s-16.76,29.05-26.39,20.81
					c-9.64-8.24-32.77-13.55-37.77-3.39c-5.01,10.17-15.81,21.92-21.27,18.37c-5.46-3.55-25.18-4.52-27.91,1.29l-19.11,5.81
					c-0.91,0-15.89,33.58,4.13,39.87C834.81,799.02,839.82,777.73,846.65,776.76z"/>
				<path id="XMLID_597_" class="st45" d="M842.87,742.89c-2.78,0.01-5.5,0.27-7.75,0.84c-0.06,0.06-0.13,0.13-0.19,0.19
					c-1.47,1.57-3.15,2.42-5.03,2.88c-0.05,0.08-0.09,0.16-0.13,0.24l-19.11,5.81c-0.24,0-1.46,2.33-2.75,5.88
					c8.51-0.27,25.37-4.95,29.75-11.25C839.05,745.48,840.91,743.99,842.87,742.89z"/>
				<path id="XMLID_594_" class="st46" d="M849,734.43c9.94-5.47,8.22-30.98,1.37-34.99c-6.85-4.01-14.05,11.3-14.05,11.3
					l0.34,10.21C836.66,720.94,839.06,739.9,849,734.43z"/>
				<path id="XMLID_591_" class="st49" d="M849.19,704.12c-2.34-1.37-4.73,0.31-6.63,2.51c1.57-1.31,3.34-1.98,5.08-0.96
					c4.47,2.61,5.97,17.59,1.21,23.84C855.42,724.72,854.08,706.98,849.19,704.12z"/>
				<path id="XMLID_590_" class="st9" d="M1244.47,686.31c6.71,18.73,9.77,32.99,9.77,32.99S1255.46,705.86,1244.47,686.31z"/>
				<path id="XMLID_589_" class="st9" d="M1248.47,618.61c52.97,23.87,78.47,48.68,90.73,67.7c-12.58-30.58-36.34-73.12-74.35-85.13
					c-61.29-19.36-149.88-22.59-149.88-22.59l-151.7,34.21C968.12,613.44,1141.06,570.2,1248.47,618.61z"/>
				<path id="XMLID_587_" class="st9" d="M1096.16,610.86L1210.24,627C1165.34,586.33,1099.8,610.22,1096.16,610.86z"/>
				<path id="XMLID_586_" class="st9" d="M1378.56,751.57c0,0-24.38,7.13-48.16,16.87C1354.76,761.86,1378.56,751.57,1378.56,751.57
					z"/>
				<path id="XMLID_585_" class="st9" d="M1301.33,782.55c8.12-4.96,18.54-9.79,29.07-14.11c-13.72,3.71-27.63,6.23-37.54,5.07
					c-27.51-3.23-52.9-21.3-52.9-21.3C1239.96,755.44,1274.88,798.68,1301.33,782.55z"/>
				<path id="XMLID_584_" class="st9" d="M1345.76,746.4l-84.64,7.75c1.59,1.29,25.4,20.01,50.26,10.33
					C1336.24,754.79,1345.76,746.4,1345.76,746.4z"/>
				<path id="XMLID_583_" class="st9" d="M1315.08,745.11l70.89-12.91C1360.57,712.84,1315.08,745.11,1315.08,745.11z"/>
				<g id="XMLID_580_">
					<path id="XMLID_582_" class="st8" d="M792.6,1025.28c-13.84,13.66-33.88,32.68-52.02,47.07c-5.75,4.56-11.63,7.89-17.46,10.28
						c5.44,27.71,27.61,107.87,106.19,142.76c-32.4-21.88-52.77-52.28-65.32-78.69c3.37,4.41,7.34,8.72,12.03,12.78
						c32.8,28.4,120.09,41.31,120.09,41.31s-130.13-44.54-135.42-88.42c-2.95-24.45,12.66-54.11,27.06-75.59
						C789.31,1032.85,790.94,1029,792.6,1025.28z"/>
				</g>
				<path id="XMLID_578_" d="M962.36,672.61c0.4-5.16-9.1-0.86-9.1-0.86l0.3,0.43l2.63,7.85
					C956.19,680.03,961.95,677.77,962.36,672.61z"/>
				<path id="XMLID_577_" class="st41" d="M967.42,665.83c-6.78-5.49-16.49-5.16-16.49-5.16l0.2,2.69
					C958.52,661.53,967.42,665.83,967.42,665.83z"/>
				<path id="XMLID_576_" class="st43" d="M926.76,662.17l0.2,2.37c0,0,5.87-1.08,13.86-2.9
					C940.82,661.64,931.51,660.24,926.76,662.17z"/>
				<path id="XMLID_575_" d="M940.72,669.81c0,0-3.03,3.33-6.37,3.66c-3.34,0.32-6.07-2.69-6.07-2.69v3.87
					C928.28,674.65,935.25,680.14,940.72,669.81z"/>
				<path id="XMLID_574_" class="st15" d="M978.74,702.19"/>
				<g id="XMLID_573_">
					<g>
						<path class="st15" d="M969.94,751.81c3.22,0,3.22-5,0-5C966.73,746.81,966.72,751.81,969.94,751.81L969.94,751.81z"/>
					</g>
				</g>
				<path id="XMLID_568_" class="st50" d="M1005.89,678.3c3.03-3.35,1.62-10.71,0.17-15.68c-8.49,2.5-17.88,0.01-19.96-0.61
					c-11.81-0.58-17.95-12.08-17.95-12.08h-10.7c12.67,12.82,28.95,31.73,27.54,43.08c-1.4,11.31-7.95,18.4-12.8,22.2
					c1.5,0.19,3.07,0.22,4.69,0.04c5.36-0.61,12.88-5.07,19.97-10.84c5.61-10.67,0.03-26.02,0.03-26.02
					S1001.09,683.61,1005.89,678.3z"/>
				<path id="XMLID_566_" d="M900.87,690.25c3.94-2.26,14.46-4.95,14.46-4.95C908.45,681,900.87,690.25,900.87,690.25z"/>
				<path id="XMLID_565_" class="st43" d="M914.42,677.77c0,0-12.44-9.25-18.41,4.63c0,0,4.05-4.73,10.11-5.27
					C912.2,676.59,914.42,677.77,914.42,677.77z"/>
				<path id="XMLID_563_" class="st51" d="M895.31,697.75c-1.21-6.13-7.89-12.67-7.89-12.67s5.46,7.26,6.37,14.2s0,11.29,0,11.29
					s8.34,2.58,9.71-4.03l-7.81,2.82C895.69,709.37,896.52,703.88,895.31,697.75z"/>
				<path id="XMLID_561_" class="st51" d="M903.42,712.84c-0.83,2.02-4.48,1.21-4.48,1.21s-6.9,1.69-7.36,1.69l6.98-0.48
					c0,0,1.82,1.29,4.4,0.65c2.58-0.65,2.28-2.82,2.28-2.82l5.84-5.24L903.42,712.84z"/>
				<path id="XMLID_560_" class="st51" d="M891.41,713.16l-0.4,3.33C892.83,715.48,891.41,713.16,891.41,713.16z"/>
				<path id="XMLID_559_" class="st51" d="M907.64,706.65c0.51,0.43,2.98,2.37,5.16,1.29L907.64,706.65z"/>
				<path id="XMLID_558_" class="st18" d="M1050.93,793.84c8.33,0.13,17.63-1.97,25.92-6.38c2.61-2.13,5.02-4.57,6.77-7.28
					c6.67-10.33,4.65-16.57,4.65-16.57s8.88,3.41,11.12-13.44c-2.67,0.82-6.57,1.45-12.13,1.18c-13.35-0.65-20.63-26.89-20.63-26.89
					c-2.98,0.47-5.78,0.44-8.35,0.1c4.32,12.16,12.59,38.73,7.54,51.75C1063.03,783.49,1057.01,789.4,1050.93,793.84z"/>
				<path id="XMLID_557_" class="st52" d="M1035.88,748.88c-0.91-3.66-4.75-4.95-4.75-4.95l0.1,0.38c0,0,4.1,3.07,3.34,6.62
					s-2.28,19.2-2.28,19.2s4.85,3.39,7.74,2.42c2.88-0.97,4.85-3.71,4.85-3.71s-3.34,1.45-6.37,1.56s-4.35-1.51-4.35-1.51
					S1036.79,752.53,1035.88,748.88z"/>
				<path id="XMLID_556_" class="st52" d="M1053.38,776.58c0,0-5.92,0.97-8.8,0.97s-11.23,1.13-11.23,1.13l1.52,1.45
					c0,0,7.74-0.48,11.98-0.65C1051.1,779.32,1053.38,776.58,1053.38,776.58z"/>
				<path id="XMLID_555_" class="st52" d="M1038.97,783.68l8.04-0.81C1042.15,779.96,1038.97,783.68,1038.97,783.68z"/>
				<path id="XMLID_554_" class="st42" d="M1021.98,743.34l10.32,0.97C1028.8,740.92,1021.98,743.34,1021.98,743.34z"/>
				<path id="XMLID_553_" class="st42" d="M1059.3,741.72c-6.37,0-12.89,4.03-12.89,4.03c15.93-3.07,22.76,0.32,22.76,0.32
					S1065.67,741.72,1059.3,741.72z"/>
				<path id="XMLID_552_" d="M1030.32,753.99c0-2.67-1.43-4.84-3.19-4.84c-1.76,0-3.19,2.17-3.19,4.84s1.43,4.84,3.19,4.84
					C1028.9,758.83,1030.32,756.66,1030.32,753.99z"/>
				<path id="XMLID_551_" d="M1053.38,753.99c0-2.67-1.43-4.84-3.19-4.84s-3.19,2.17-3.19,4.84s1.43,4.84,3.19,4.84
					S1053.38,756.66,1053.38,753.99z"/>
				<path id="XMLID_550_" class="st20" d="M794.85,920.14c0.77-1.95,0.68-3.84-0.2-4.23c-0.88-0.39-2.21,0.87-2.97,2.82
					c-0.77,1.95-0.68,3.84,0.2,4.23C792.75,923.35,794.08,922.08,794.85,920.14z"/>
				<g id="XMLID_539_">
					<path id="XMLID_549_" class="st53" d="M1285.7,765.65c12.7-33.47-14.42-47.81-14.42-47.81c-9.96-25.75-39.83-14.71-39.83-14.71
						s-2.4-2.21-18.54,0.37c-16.14,2.57-17.63,19.37-17.63,19.37l6.64,15.45l50.48,50.51
						C1252.39,788.82,1272.99,799.12,1285.7,765.65z"/>
					<path id="XMLID_548_" class="st54" d="M1272.53,771.93c-2.78,0.07-6.7-0.4-12.01-2.17c-12.75-4.27-13.44-31.63-13.44-31.63
						c-15.04-1.8-22.56-14.39-22.56-14.39c-6.36-1.66-15.49-0.04-21.93,1.55c-3.08,12.49-13.39,58.9,0.39,69.6
						c8.94,6.94,24.37,10.1,38.76,6.93c3.04-1.35,5.96-3.05,8.31-5.19c8.94-8.16,8.5-14.74,8.5-14.74S1266.3,787.61,1272.53,771.93z
						"/>
					<path id="XMLID_547_" class="st6" d="M1235.83,752.81c-6.16-1.74-13.44,0.38-13.44,0.38c16.13,1.39,21.91,6.53,21.91,6.53
						S1241.99,754.55,1235.83,752.81z"/>
					<path id="XMLID_546_" d="M1208.36,759.64c0.65-2.58-0.21-5.07-1.91-5.55c-1.7-0.48-3.6,1.22-4.25,3.81
						c-0.65,2.58,0.21,5.07,1.91,5.55C1205.82,763.93,1207.72,762.23,1208.36,759.64z"/>
					<path id="XMLID_545_" d="M1235.95,765.95c0.65-2.58-0.21-5.07-1.91-5.55c-1.7-0.48-3.6,1.22-4.25,3.81
						c-0.65,2.58,0.21,5.07,1.91,5.55C1233.4,770.24,1235.3,768.53,1235.95,765.95z"/>
					<path id="XMLID_544_" class="st6" d="M1213.17,752.32c0,0-3.84-9.9-12.95-2.8C1199.98,749.71,1209.23,746.51,1213.17,752.32z"
						/>
					<path id="XMLID_543_" class="st6" d="M1212.47,764.04c0,0-2.22,4.52-4.96,5.27c-2.73,0.75,0.51,10.65,7.79,4.52
						c0,0-7.48,1.18-6.27-1.61C1210.24,769.42,1210.95,769.96,1212.47,764.04z"/>
					<path id="XMLID_542_" class="st6" d="M1207.51,783.35l11.23,0.48C1214.79,778.51,1207.51,783.35,1207.51,783.35z"/>
					<path id="XMLID_541_" class="st6" d="M1217.07,786.58c0,0-6.59-1.35-5.76-0.65C1214.34,788.52,1217.07,786.58,1217.07,786.58z"
						/>
					<path id="XMLID_540_" class="st6" d="M1221.62,792.07c0,0-8.04,3.07-13.96-1.29c-0.12-0.09,0.36,0.36,1.23,0.99
						C1211.62,793.76,1218.16,797.58,1221.62,792.07z"/>
				</g>
				<path id="XMLID_538_" class="st19" d="M1260.91,801.26c1.21,13.88,21.54,20.33,23.36,22.59l55.95-13.77
					c3.08,0.18,4.43,0.54,4.43,0.54s1.27-0.84,3.23-2.43l5.88-1.45c0.75,0.6,7.53-5.59,9.09-15.98c1.58-2.81,2.96-5.88,3.96-9.19
					c5.46-18.07-12.74-22.91-13.65-23.88c-8.54-9.09-17.9-8.07-17.9-8.07c-7.71-14.02-24.99-5.93-30.98-2.55
					c-5.9,1.29-18.61-0.4-28.19,3.2c-10.32,3.87-7.89,29.37-7.89,29.37S1259.7,787.39,1260.91,801.26z"/>
				<path id="XMLID_537_" class="st55" d="M1353.34,806.85l0.41-0.1c0.75,0.6,7.53-5.59,9.09-15.98c1.58-2.81,2.96-5.88,3.96-9.19
					c5.46-18.07-12.74-22.91-13.65-23.88c-8.54-9.09-17.9-8.07-17.9-8.07c-6.11-11.11-18.23-8.33-25.97-5.02
					c10.06,3.42,21,9.3,25.17,19.22c8.5,20.22,4.45,27.54,4.45,27.54S1348.71,801.82,1353.34,806.85z"/>
				<g id="XMLID_527_">
					<path id="XMLID_536_" class="st56" d="M1322.97,857.17c19.7-1.81,35.08-62.41,35.08-62.41c-0.06-0.49-0.12-0.98-0.19-1.46
						c-6-5.7-14.67-12.76-20.5-12.37c-9.71,0.65-22.76-13.23-22.76-13.23s0,5.81-7.28,17.1c-7.28,11.3-25.79,2.9-25.79,2.9
						c-0.48,0.61-0.91,1.34-1.3,2.16c-0.8,11.93-1.06,35.96,7.68,53.25C1298.53,852.87,1312.44,858.13,1322.97,857.17z"/>
					<path id="XMLID_535_" class="st18" d="M1320.06,857.28c0.99,0.01,1.96-0.02,2.91-0.11c19.7-1.81,35.08-62.41,35.08-62.41
						c-0.06-0.49-0.12-0.98-0.19-1.46c-4.57-4.34-10.68-9.46-15.91-11.49c1.26,10.35,3.4,36.15-3.36,55.45
						C1335.32,846.61,1327.99,852.98,1320.06,857.28z"/>
					<path id="XMLID_534_" class="st52" d="M1314.61,826.01c0,0,9.91,3.66,13.35,2.37s0.4-9.47,0.4-9.47
						C1329.78,827.51,1314.61,826.01,1314.61,826.01z"/>
					<path id="XMLID_533_" class="st52" d="M1327.81,835.63l3.49,1.29l-3.94-4.2c0,0-3.49,2.58-4.25,2.26s-3.79-2.1-3.79-2.1
						l-9.86,3.23l8.95-0.65c0,0,1.97,1.94,4.85,2.42C1326.14,838.38,1327.81,835.63,1327.81,835.63z"/>
					<path id="XMLID_532_" class="st52" d="M1315.98,838.86c0.91,0,6.67,4.03,10.16,0.32L1315.98,838.86z"/>
					<path id="XMLID_531_" class="st52" d="M1315.98,801.22l0.48-1.87c-10.17-9.12-21.76,1.03-21.38,0.86
						C1305.14,795.76,1315.98,801.22,1315.98,801.22z"/>
					<path id="XMLID_530_" class="st52" d="M1347.38,809.82c-2.58-16.3-15.32-6.94-15.32-6.94
						C1344.95,799.17,1347.38,809.82,1347.38,809.82z"/>
					<path id="XMLID_529_" class="st57" d="M1311.1,812.29c0.31-3.19-1.68-6.02-4.43-6.32c-2.75-0.3-5.23,2.05-5.53,5.24
						c-0.31,3.19,1.68,6.02,4.43,6.32C1308.31,817.83,1310.79,815.48,1311.1,812.29z"/>
					<path id="XMLID_528_" class="st57" d="M1342.8,816.97c0.31-3.19-1.68-6.02-4.43-6.32c-2.75-0.3-5.23,2.05-5.53,5.24
						c-0.31,3.19,1.68,6.02,4.43,6.32S1342.5,820.16,1342.8,816.97z"/>
				</g>
				<path id="XMLID_526_" class="st58" d="M1197.59,716.71c10.62-18.07,2.43-30.01,2.43-30.01c-4.55-61.64-69.48-31.3-69.48-31.3
					s-18.81,3.87-18.51,25.17c0.3,21.3,11.23,35.5,11.23,35.5l43.69,17.43C1166.94,733.49,1186.97,734.78,1197.59,716.71z"/>
				<path id="XMLID_525_" class="st59" d="M1184.54,717.41l-3.43-8.44c0,0-6.37,9.04-27,6.45c-20.63-2.58-29.73-27.43-29.73-27.43
					s-1.39,1.05-3.2,2.45c-0.45,18.56,1.82,51.06,21.79,62.34C1162.17,763.63,1176.93,736.42,1184.54,717.41z"/>
				<path id="XMLID_524_" class="st10" d="M1150.67,739.52c0,0-6.27,2.58-7.69,1.51c-1.42-1.08-3.64-6.67-3.64-6.67
					s0.61,8.82,2.83,9.68C1144.4,744.9,1150.67,739.52,1150.67,739.52z"/>
				<path id="XMLID_523_" class="st10" d="M1123.79,720.66l15.03,8.09C1138.82,728.75,1132.75,719.97,1123.79,720.66z"/>
				<path id="XMLID_522_" class="st10" d="M1152.09,735.66l20.21,0.51C1164.75,731.61,1152.09,735.66,1152.09,735.66z"/>
				<path id="XMLID_521_" class="st10" d="M1164.41,740.36c1.5-1.08,2.12-3.03,1.73-4.88c-2.76-0.4-5.72-0.47-8.57-0.38
					c-0.26,1.26-0.05,2.65,0.71,3.83C1159.69,741.14,1162.43,741.79,1164.41,740.36z"/>
				<path id="XMLID_520_" class="st10" d="M1135.02,730.04c1.13-0.19,2.08-0.86,2.73-1.79c-2.27-1.41-5.1-3.16-7.53-4.63
					c-0.23,0.73-0.3,1.53-0.18,2.35C1130.43,728.62,1132.66,730.44,1135.02,730.04z"/>
				<polygon id="XMLID_519_" class="st60" points="810.05,713.73 787.6,711.79 784.97,721.69 789.83,715.23 809.04,714.59 				"/>
				<path id="XMLID_518_" class="st60" d="M798.14,721.34c-2.35-1-6.63,2.55-6.63,2.55l4.27,5.21
					C795.78,729.09,800.49,722.33,798.14,721.34z"/>
				<path id="XMLID_517_" class="st46" d="M803.23,725.37c0,0-2.87,6.19-8.9,5.9c0,0,4.68,0.45,6.49-0.58
					C802.63,729.67,803.23,725.37,803.23,725.37z"/>
				<path id="XMLID_516_" class="st45" d="M823.7,789.97c-3.52,1.16-6.28,2.12-8.42,2.91c19.61,5.79,24.6-15.16,31.37-16.12
					c6.83-0.97,22.75,8.23,29.58-7.26s17.75-27.11,23.66-22.27c5.92,4.84,22.75,5.32,28.22-4.84c5.46-10.17,15.02-32.43,15.02-32.43
					s-16.76,29.05-26.39,20.81c-1.45-1.24-3.2-2.41-5.15-3.47c-7.34,4.15-16.4,7.99-23.56,7.16c-13.96-1.61-16.38,19.69-24.27,27.43
					c-7.89,7.75-17.29,9.04-20.63,5.49s-0.91-9.04-0.91-9.04s-11.23,4.52-7.59,11.29C838.27,776.41,836.45,785.77,823.7,789.97z"/>
				<path id="XMLID_515_" class="st44" d="M833.41,745.76c5.16-7.42,16.69-7.75,16.69-7.75s-14.26-1.29-19.42,4.2
					s-12.74,2.26-23.36,3.55c-10.62,1.29-12.44,6.78-12.44,6.78s-0.61,2.58,5.16,4.2C805.8,758.34,828.25,753.18,833.41,745.76z"/>
				<path id="XMLID_514_" class="st45" d="M831.32,703.48c-0.25,0.79,13.57,19.68,13.57,19.68l-3.21-24.4L831.32,703.48z"/>
				<g id="XMLID_103_">
					<path id="XMLID_513_" class="st61" d="M126.35,1119.39c19.95-7.02,16.77-78.62,16.77-78.62l-52.61-36.15
						c0,0-11.56,27.73-10.7,67.04C80.68,1110.96,106.41,1126.41,126.35,1119.39z"/>
					<path id="XMLID_512_" class="st62" d="M130.98,1029.61l63.15-87.14c0,0-58.11-16.77-74.7-15.18S94.1,946.46,94.1,946.46
						s-13.03,19.41-13.17,40.79s21.39,47.5,25.23,48.24C110.01,1036.24,130.98,1029.61,130.98,1029.61z"/>
					<path id="XMLID_511_" class="st61" d="M101.58,1031.4c13.65,15.49,32.95,16.03,32.95,16.03l50.59-103.23
						c-2.56-0.5-41.96-13.9-60.94-11.17c-18.98,2.74-22.55,26.13-22.55,26.13s-7.62,3.34-12.85,18.38
						c-5.22,15.04,8.57,34.84,8.57,34.84s-7.27-24.42,1.92-31.74s12.26-7.25,12.26-7.25S87.93,1015.91,101.58,1031.4z"/>
					<path id="XMLID_510_" class="st61" d="M104.2,949.33c-12.49,16.71,1.07,52.4,1.07,52.4l5-22.78c0,0-3.93,58.1,2.5,67.59
						s30.34,14.81,30.34,14.81s-20.71-35.31-20.35-42.53l58.19-91.23C180.95,927.59,116.69,932.62,104.2,949.33z"/>
					<path id="XMLID_509_" class="st61" d="M378.01,1170.51c0,0,18.74-33.6,50.34-70.06C459.94,1064,476,979.14,476,979.14
						s5.89-20.5,6.43-33.03c0.54-12.53-6.43-8.54-11.24-8.54c-4.82,0-19.28-10.25-35.88-8.54s-21.42,21.64-21.42,21.64
						c-43.37,17.09-68.01,92.84-68.01,92.84s-56.76,30.19-56.23,32.47l15.53,70.06C305.18,1147.73,378.01,1170.51,378.01,1170.51z"
						/>
					<path id="XMLID_508_" class="st62" d="M382.83,1157.98c0,0,0.98,0.02,2.76,0c8.26-13.05,23-34.73,42.76-57.53
						C459.94,1064,476,979.14,476,979.14s5.89-20.5,6.43-33.03c0.54-12.53-6.43-8.54-11.25-8.54c-2.81,0-8.89-3.48-16.76-6.04
						c-7.13,8.73-14.79,21.2-10.55,28.83c6.96,12.53,17.14,18.23,17.14,18.23s-19.81,39.3-24.63,56.39
						c-4.82,17.09-21.42,45-21.42,45v-26.2L382.83,1157.98z"/>
					<path id="XMLID_507_" class="st63" d="M513.13,906.99l-5.18-22.78l-21.42-6.83c0,0-3.57,5.32-4.46,8.35
						c-0.89,3.04,1.07,2.66,1.25,5.32c0.18,2.66,5.35,5.13,7.85,7.4c2.5,2.28,5.18,5.7,5.18,5.7l7.85,3.23l-1.61-8.16
						c0,0,1.43,3.8,3.03,5.51C507.24,906.42,513.13,906.99,513.13,906.99z"/>
					<path id="XMLID_506_" class="st62" d="M370.78,957.78c11.51-2.28,43.37-27.62,46.32-32.18s49-37.59,49-37.59
						s-6.43-13.67-10.17-15.09c-3.75-1.42-56.76,24.78-69.61,25.92c-12.85,1.14-49.8,25.06-52.21,25.92l3.75,31.61
						C337.85,956.36,359.26,960.06,370.78,957.78z"/>
					<path id="XMLID_505_" class="st61" d="M336.74,947.04l1.11,9.32c0,0,21.42,3.7,32.93,1.42c11.51-2.28,43.37-27.62,46.32-32.18
						s49-37.59,49-37.59s-2.2-4.68-4.77-8.84c-18.57,8.62-72.9,33.95-70.46,34.19c2.95,0.28,23.03-1.71,23.03-1.71
						s-48.46,26.48-60.78,28.19C348.78,940.44,342.6,943.36,336.74,947.04z"/>
					<path id="XMLID_504_" class="st62" d="M328.74,919.62c-7.5-6.83-49.8-2.85-50.6-2.85l15.8,36.45
						C293.94,953.22,336.24,926.45,328.74,919.62z"/>
					<path id="XMLID_503_" class="st61" d="M280.28,975.72c0,0,8.3,3.99,30.79,0.28c22.49-3.7,57.03-42.72,57.03-45
						c0-2.28-6.69-14.52-34.54-16.8c-27.85-2.28-77.91,22.78-78.98,23.64l-2.14,52.4c2.14,6.27,10.44,12.25,11.78,11.96
						C265.56,1001.92,280.28,975.72,280.28,975.72z"/>
					<path id="XMLID_502_" class="st61" d="M258.33,948.67c14.46-15.38,48.46-32.18,48.46-32.18s-24.63-16.8-52.48-15.09
						c-27.85,1.71-35.61,27.91-35.61,27.91l12.58,19.08C231.28,948.38,243.87,964.05,258.33,948.67z"/>
					<path id="XMLID_501_" class="st61" d="M267.85,969.35c-2.7-21.52-13.04-45.43-13.04-45.43l-45.41,2.87l-29.68-5.74L139.7,939.7
						l-22.48,7.17c0,0,4.5,88.48,7.19,102.82c2.7,14.35,99.37,110,99.37,110l100.72-3.35l5.85-99.96l-45.41-1.91l-21.58-38.74
						C263.36,1015.74,270.55,990.87,267.85,969.35z"/>
					<path id="XMLID_500_" class="st62" d="M218.38,905.38l-4.44-11.96l-1.2-44.97c0,0-26.51,6.96-29.36,7.1
						c-2.85,0.14-0.62,19.1-5.65,35.16s-16.42,59.21-16.42,59.21l31.84,26.05l30.53-29.87L218.38,905.38z"/>
					<g id="XMLID_497_">
						<path id="XMLID_499_" class="st61" d="M175.89,961.84l12.26,10.03c-3.71-15.72-7.51-36.96-7.21-44.28
							C181.36,917.68,177.62,947.44,175.89,961.84z"/>
						<path id="XMLID_498_" class="st61" d="M218.11,904.67c-2.81,0.63-4.77,1.28-4.77,1.28l-1.87,31.61c0,0-10.98,1.71-11.78,1.42
							c-0.52-0.18-1.6,18.51-2.88,33.4l26.88-26.29l-5.31-40.72L218.11,904.67z"/>
					</g>
					<g id="XMLID_480_">
						<path id="XMLID_494_" class="st39" d="M241.36,881.56c0,0-10.5-43.53-14.66-49.04c-4.17-5.51-22.42-0.64-40.33,7.88
							c-17.91,8.51-18.64,49.64-18.64,49.64s6.25,25.48,6.81,28.14c0.56,2.66,53.05,7.67,53.05,7.67l7.28-10.13l-4.69-10.03
							l2.1-4.23l-1.16-3.44l0.95-13.73L241.36,881.56z"/>
						<path id="XMLID_493_" class="st61" d="M241.36,881.56c0,0-10.5-43.53-14.66-49.04c-0.53-0.7-1.28-1.23-2.23-1.6
							c0.29,0.23,0.55,0.48,0.77,0.77c4.17,5.51,14.66,49.04,14.66,49.04l-9.28,2.71l-0.95,13.72l1.16,3.44l-2.1,4.23l4.69,10.03
							l-7.28,10.13c0,0-43.07-4.11-51.6-6.86c0,0.01,0,0.02,0.01,0.03c0.56,2.66,53.05,7.67,53.05,7.67l7.28-10.13l-4.69-10.03
							l2.1-4.23l-1.16-3.44l0.95-13.73L241.36,881.56z"/>
						<path id="XMLID_492_" class="st62" d="M219.37,900.13l-1.1-2.18l1.04,4.4l1.65-0.28l10.71-2.49l-0.53-1.59l0.14-1.96
							C226.78,897.61,219.37,900.13,219.37,900.13z"/>
						<path id="XMLID_491_" class="st64" d="M208.75,851.98c-0.9-8.09-2.05-14.69-3.75-18.99c-5.82,1.8-12.24,4.37-18.63,7.41
							c-17.91,8.51-18.64,49.64-18.64,49.64s6.25,25.48,6.81,28.14c0.31,1.46,16.21,3.62,30.53,5.28
							c-0.18-8.7-0.66-22.09-1.99-26.36c-2.02-6.49-11.44-18.64-11.44-18.64S210.41,866.93,208.75,851.98z"/>
						<path id="XMLID_490_" class="st65" d="M127.89,901.11c-3.21,9.18,9.78,20.11,9.78,20.11s-5.17-11.84,0.99-17.82
							c0,0-5.86,9.23,3.29,17.37c8.52,7.58,7.67,14.53,7.51,15.47c0.18-0.95,1.62-7.88,6.51-10.45c0.69-0.36,2.61,6.01,6.85,7.14
							s4.93-8.22,4.93-8.22l12.14-36.34l-6.39-22.1c0,0,16.52-10.24,23.9-17.69c7.38-7.45,5.47-11.09,15.96-12.84
							s13.22,0.32,14.43,0.62c1.21,0.29,2.95,2.22,2.95,2.22s1.42-6.79-1.22-10.26c-2.64-3.47-13.66-5.1-13.66-5.1
							s-9.89-3.47-19.77-2.46c-9.89,1.02-11.62,4.56-11.62,4.56s-10.82-2.47-20.14,2.13c-9.32,4.59-16.04,19.7-16.04,19.7
							s-9.4,4.22-16.29,13.12c-6.89,8.89-1.18,22.36,1.79,25.55C136.77,889,131.1,891.94,127.89,901.11z"/>
						<path id="XMLID_489_" class="st65" d="M149.48,936.23c-0.01,0.07-0.02,0.11-0.02,0.11S149.47,936.3,149.48,936.23z"/>
						<path id="XMLID_488_" class="st64" d="M181.37,890.69c0.37-6.37-3.09-14.61-3.09-14.61s-7.05-9-16.4-5.58
							c-9.35,3.42,1.17,22.75,7.83,27.89C176.37,903.53,181,897.06,181.37,890.69z"/>
						<g id="XMLID_484_">
							<path id="XMLID_487_" class="st66" d="M217.65,823.52c-1.08-0.21-1.77-0.31-1.77-0.31s-3.58-1.26-8.58-2.04
								c-1.97,0.91-3.94,1.91-5.92,3.03c-19.89,11.32-13.97,18.03-20.75,19.43c-6.77,1.4-10.13,1.75-10.13,1.75
								s10.2,5.68,18.35-4.43C196.41,831.57,202.48,825.55,217.65,823.52z"/>
							<path id="XMLID_486_" class="st66" d="M181.4,834.15c4.21-4.1,12.87-9.23,21.4-13.48c-2.15-0.14-4.42-0.15-6.69,0.09
								c-9.89,1.02-11.62,4.56-11.62,4.56s-0.86-0.2-2.31-0.38c-8.86,8.72-21.32,14.17-20.75,14.03
								C162.03,838.82,172.52,842.81,181.4,834.15z"/>
							<path id="XMLID_485_" class="st66" d="M213.38,835.73c10.49-1.75,13.22,0.32,14.43,0.62c1.21,0.29,2.95,2.22,2.95,2.22
								s1.42-6.79-1.22-10.26c-0.78-1.02-2.28-1.88-4.01-2.59c-3.37,0.32-7.8,1.13-13.62,2.69c-26.16,7.01-11.63,14.91-24.57,20.59
								c-12.94,5.68-21.99,6.47-21.99,6.47s15.67,2.14,20.72,2.36c4.16-2.99,8.46-6.34,11.35-9.26
								C204.8,841.12,202.88,837.48,213.38,835.73z"/>
						</g>
						<path id="XMLID_483_" class="st66" d="M222.57,859.57l-0.66-3.1c0,0-6.24-0.12-12,1.03c-5.76,1.16-12.79,14.49-12.79,14.49
							s9.1-9.64,12.38-11.37C212.79,858.91,222.57,859.57,222.57,859.57z"/>
						<path id="XMLID_482_" class="st66" d="M223.07,864.46c0,0-4.83-1.04-11.24,1.55c-6.42,2.6-6.87,7.01-6.87,7.01
							c6.88-7.48,17.94-5.84,17.94-5.84L223.07,864.46z"/>
						<path id="XMLID_481_" class="st66" d="M220.95,869.39c-0.53-2.52-2.42-4.21-4.22-3.78c-1.79,0.43-2.82,2.83-2.28,5.35
							c0.53,2.52,2.42,4.21,4.22,3.78C220.46,874.3,221.48,871.91,220.95,869.39z"/>
					</g>
					<path id="XMLID_479_" class="st62" d="M157.03,1010.47c-11.78-0.38-32.13,12.15-32.13,12.15l2.5-0.76
						c1.07-0.38,5.71,7.97,22.49,12.15c16.78,4.18,47.12-16.71,61.4-18.23c14.28-1.52,40.7-1.9,40.7-1.9s9.64-44.05,9.64-51.26
						s-7.5-34.93-7.5-34.93s-20.71,28.1-36.77,37.21c-16.06,9.11-20.71,12.15-20.35,13.67c0.36,1.52,2.5,34.17,2.5,34.17
						l-14.28-31.9c0,0-13.57,6.08-14.64,6.08s12.85,4.56,12.85,4.56s-20.35,0.76-17.49,0.76s12.14,6.46,12.14,6.46
						S168.81,1010.85,157.03,1010.47z"/>
					<path id="XMLID_478_" class="st62" d="M187.02,1038.18c-7.85,7.59-10.35,25.82-10.35,25.82l23.92-10.25
						c-8.57,3.42-13.92,15.57-13.92,15.57l5.71,11.77c0,0,17.49-9.49,25.35-13.67c7.85-4.18-1.78-17.47-1.78-17.47
						s6.78,8.73,14.28,13.29c7.5,4.56,19.99-0.76,23.2-2.28c3.21-1.52,5.35-4.18,5.71-5.32c0.36-1.14-7.5-13.29-7.5-13.29
						l-19.64-0.37l17.85-7.21c0,0-26.06-11.77-37.13-9.11s-8.21,7.97-8.21,7.97S194.87,1030.59,187.02,1038.18z"/>
					<path id="XMLID_477_" class="st62" d="M278.41,1059.07c-19.99,1.14-63.19,33.41-66.76,33.79l23.56-3.04
						c10.71-5.7,69.61-17.47,69.61-17.47S298.4,1057.93,278.41,1059.07z"/>
					<path id="XMLID_476_" class="st62" d="M366.73,933.23c0.88-1.17,1.37-1.95,1.37-2.22c0-2.28-6.69-14.52-34.54-16.8
						c-11.32-0.93-26.32,2.67-40.2,7.32c-11.16,6.87-17.1,14.9-17.1,14.9l43.37-3.7c0,0-10.98,12.53-12.05,13.95
						C306.67,947.9,353.82,936.4,366.73,933.23z"/>
					<path id="XMLID_475_" class="st61" d="M92.06,1160.07c0,0,40.34-15.95,45.69-35.69s-8.57-34.55-8.57-34.55
						s-19.99-15.57-41.77-12.53c-21.78,3.04-35.34,48.6-30.7,63.41C61.36,1155.52,92.06,1160.07,92.06,1160.07z"/>
					<path id="XMLID_474_" class="st61" d="M115.08,1184.75c2.95-0.28,5.09-6.83,5.89-7.12c0.8-0.28,8.57,1.71,8.57,1.71l7.5-11.11
						l4.02,1.42l6.96-18.51c0,0-15.8-18.23-16.87-18.23c-1.07,0-17.14-0.57-17.14-0.57l-21.69,40.15l6.16,7.31
						C98.48,1179.82,112.14,1185.04,115.08,1184.75z"/>
					<path id="XMLID_473_" class="st62" d="M149.89,1161.21l6.78-11.39c0,0-17.49-26.2-27.49-28.48c-10-2.28-57.47-8.35-64.97-7.21
						c-7.5,1.14-12.14,25.44-11.07,31.14c1.07,5.7,45.34,34.55,45.34,34.55s1.43-13.29,6.43-14.43s2.14-4.94,5.35-13.29
						s13.57-3.42,12.49-11.39C121.69,1132.73,149.89,1161.21,149.89,1161.21z"/>
					<path id="XMLID_472_" class="st61" d="M475.2,893.99c9.1-1.14,19.55-11.68,19.55-11.68l18.03,5.32c0,0,3.21,9.68,7.5,11.58
						c4.28,1.9,9.46,0.95,9.46,0.95s-10.17-19.56-13.03-19.56c-2.86,0-19.01-9.11-19.01-9.11s-35.07-2.85-40.16-3.13
						s-27.04,25.35-29.72,27.62l26.24-5.13C454.04,890.86,466.09,895.13,475.2,893.99z"/>
					<path id="XMLID_471_" class="st61" d="M505.45,914.78c0,0,1.87-7.12-0.8-11.96c-2.68-4.84-13.12-8.26-13.12-8.26l-10.71-11.39
						l-29.99,4.84c0,0,14.46,13.67,25.17,13.67c10.71,0,17.14,2.56,20.88,5.13C500.63,909.37,505.45,914.78,505.45,914.78z"/>
					<path id="XMLID_470_" class="st67" d="M369.97,1142.61c0,0,17.67-50.12,20.35-71.2c2.68-21.07-5.13-58.64,19.28-73.47
						c7.5-4.56,10.17-33.03,10.17-33.03l-16.06,23.35c0,0-33.74,30.76-33.2,46.7c0.54,15.95-77.11,72.91-77.11,72.91
						s33.2,16.52,34.81,17.09c1.61,0.57,41.23-51.26,40.7-47.84c-0.54,3.42-28.38,86.57-28.38,86.57L369.97,1142.61z"/>
					<path id="XMLID_462_" class="st61" d="M236.43,1182.17c15.02,11.41,52.21,15.97,52.21,15.97s72.23,33.47,105.85,34.23
						c33.61,0.76,123.73-10.65,123.73-10.65s-19.31-35.75-22.17-38.04c-2.86-2.28-84.39-20.54-84.39-20.54s-70.8-50.97-109.42-62.38
						l-92.26,22.82c0.72,3.04,0.72,3.04,0.72,3.04S221.41,1170.76,236.43,1182.17z"/>
					<path id="XMLID_419_" class="st61" d="M675.72,1252.13c-26.22-6.09-73.91-28.91-90.59-41.59
						c-16.69-12.68-61.99-12.68-61.99-12.68s-10.49-18.26-23.36-21.3c-12.87-3.04-86.3-1.52-86.3-1.52l39.58,45.14
						c0,0,30.99,41.08,72.47,59.84s160.68,7.61,165.45,7.61s4.29-10.14,2.86-14.2C692.41,1269.38,701.94,1258.22,675.72,1252.13z"/>
					<path id="XMLID_117_" class="st67" d="M288.64,1198.14c0,0,72.23,33.47,105.85,34.23c14.9,0.34,40.91-1.72,65.24-4.11
						c11.26,12.93,35.78,38.18,65.8,51.76c39.99,18.09,152.18,8.37,164.49,7.65l-158.29-52.79c0,0-28.61,5.07-37.67,1.52
						c-9.06-3.55-33.85-35.5-33.85-35.5s-173.56-41.59-194.54-42.6c-15.69-0.76-42.04-19.66-54.33-29.15
						c2.53,9.51,12.24,43.25,25.1,53.01C251.45,1193.58,288.64,1198.14,288.64,1198.14z"/>
					<path id="XMLID_108_" class="st67" d="M782.47,1299.05c-0.84,0,0.84,0.81,3.19,1.81
						C784.28,1299.8,783.08,1299.05,782.47,1299.05z"/>
					<path id="XMLID_106_" class="st67" d="M798.36,1298.67c0,0,3.75-6.27,6.96-13.1s-27.84-21.07-29.99-22.21
						c-2.14-1.14-25.7,1.14-38.02,1.14s-28.38-18.8-33.2-20.5c-4.82-1.71-48.73,6.83-48.73,6.83l17.14,35.31
						c5.35,0.57,92.64,43.86,92.64,43.86l4.28-1.14l7.5-5.7c0,0,0,0,0.54-1.71c0.54-1.71,4.28-1.14,7.5-4.56
						c3.21-3.42,8.92-8.73,8.92-8.73s-4.74-4.65-8.23-7.31c-2.35-0.99-4.03-1.81-3.19-1.81c0.61,0,1.8,0.75,3.19,1.81
						c3.66,1.54,8.95,3.51,8.95,3.51L798.36,1298.67z"/>
					<path id="XMLID_105_" class="st68" d="M248.06,1089.26c-0.71,0.19,16.78,12.34,16.78,12.34l-4.64,0.95c0,0,5,4.18,20.88,7.21
						c15.89,3.04,29.27-8.73,29.27-8.73l2.14-0.38c8.92-4.18,17.31-18.23,17.31-18.23l-5.53,1.33c4.82-12.53,2.5-31.71,2.5-31.71
						c-15.53,3.04-17.31,18.8-17.31,18.8l-1.96-5.51l-5.53,10.82l-10.89-17.66l0.18,3.99c-5.53-4.56-20.17-10.25-20.71-11.2
						c-0.54-0.95,5.35,26.01,5.35,26.01l-7.5-1.52l9.64,10.63c0,0-8.39-3.8-13.39-3.8C259.66,1082.61,248.78,1089.07,248.06,1089.26
						z"/>
					<path id="XMLID_104_" class="st68" d="M338.02,1105.58c0,0-27.49,1.52-31.06-10.06l-7.68,3.61c0.54,0,17.14,14.43,36.23,13.48
						L338.02,1105.58z"/>
				</g>
				<g id="XMLID_97_">
					<polygon id="XMLID_120_" class="st3" points="525.73,1357.01 524.37,1397.58 425.8,1360.38 425.8,1417.87 306.71,1377.3 
						224.57,1373.91 232.52,1483.13 640.72,1481.27 					"/>
				</g>
			</g>
		</g>
	</g>
</g>
</svg>
