<?xml version="1.0" encoding="utf-8"?>
<!-- Generator: Adobe Illustrator 27.5.0, SVG Export Plug-In . SVG Version: 6.00 Build 0)  -->
<svg version="1.1" id="Layer_1" xmlns="http://www.w3.org/2000/svg" xmlns:xlink="http://www.w3.org/1999/xlink" x="0px" y="0px"
	 viewBox="0 0 1674.94 1685" style="enable-background:new 0 0 1674.94 1685;" xml:space="preserve">
<style type="text/css">
	.st0{fill:#3FA9F5;stroke:#000000;stroke-width:5;stroke-miterlimit:10;}
	.st1{fill:#DBC70F;stroke:#000000;stroke-width:5;stroke-miterlimit:10;}
	.st2{fill:#C1272D;stroke:#000000;stroke-width:5;stroke-miterlimit:10;}
	.st3{fill:#F4AA06;stroke:#000000;stroke-width:5;stroke-miterlimit:10;}
	.st4{fill:#0071BC;stroke:#000000;stroke-width:5;stroke-miterlimit:10;}
</style>
<g>
	<path class="st0" d="M1531.52,130.48c25.73-0.04,51.46-0.04,77.2-0.01c-0.04,9.82-0.05,19.65-0.01,29.47
		c-25.74,0.04-51.48,0.04-77.2,0.01C1531.52,150.12,1531.52,140.3,1531.52,130.48z"/>
	<path class="st1" d="M1500.32,146.62c8.03,0.02,16.08,0.03,24.14,0.02c0.02,150.01,0.02,300.02,0.01,450.03
		c-8.07-0.03-16.11-0.04-24.14-0.02C1500.3,446.65,1500.3,296.64,1500.32,146.62z"/>
	<path class="st0" d="M1466.3,156.49c7.19,0,14.64,0.01,21.96,0.01c0.03,160.79,0.03,321.58,0,482.37
		c-7.46-0.03-14.64-0.01-21.96-0.01C1466.27,478.07,1466.27,317.29,1466.3,156.49z"/>
	<path class="st1" d="M1531.53,165.66c21.31-0.03,42.62-0.03,63.94,0c-0.03,9.83-0.04,19.65-0.02,29.47
		c-21.32,0.03-42.64,0.03-63.94,0C1531.52,185.31,1531.52,175.49,1531.53,165.66z"/>
	<path class="st2" d="M1408.15,228.67c14.13-0.01,28.78,0,43.19,0c0.03,95.48,0.06,190.97-0.03,286.45c-14.65-0.01-28.78,0-43.19,0
		C1408.05,419.63,1408.02,324.15,1408.15,228.67z"/>
	<path class="st2" d="M1531.52,204.19c16.89-0.06,33.79-0.04,50.7,0c-0.05,9.82-0.05,19.64-0.01,29.46c-16.91,0.06-33.8,0.04-50.7,0
		C1531.52,223.83,1531.53,214.01,1531.52,204.19z"/>
	<path class="st2" d="M1531.56,288.89c9.8-0.01,19.94,0.01,29.9,0c0.02,94.64,0.04,189.28,0,283.92c-10.16-0.03-19.94,0-29.9,0
		C1531.51,478.17,1531.49,383.53,1531.56,288.89z"/>
	<path class="st1" d="M1408.13,533.15c14.15-0.01,28.79,0.01,43.19,0.01c0.06,53.51,0.06,107.03,0,160.55
		c-14.64-0.05-28.79-0.01-43.19-0.01C1408.04,640.18,1408.04,586.67,1408.13,533.15z"/>
	<path class="st1" d="M1337.03,631.89c10.64-0.07,21.29-0.07,31.94-0.01c0.01,47.55,0.02,95.1-0.01,142.66
		c-10.65,0.06-21.3,0.06-31.94,0.01C1337.01,727,1337,679.44,1337.03,631.89z"/>
	<path class="st0" d="M1376.78,598.07c8.04,0.02,16.08,0.03,24.14,0.01c0.02,31.41,0.02,62.81,0.01,94.22
		c-8.06-0.03-16.11-0.04-24.14-0.01C1376.75,660.89,1376.75,629.48,1376.78,598.07z"/>
	<path class="st0" d="M1273.87,680.39c16.27-0.03,32.55-0.03,48.84,0c0.01,198.52,0.01,397.04-0.01,595.56
		c-16.28,0.03-32.56,0.03-48.84,0C1273.86,1077.43,1273.85,878.91,1273.87,680.39z"/>
	<path class="st3" d="M1221.72,745.06c12.94,0.02,25.89,0.02,38.87,0.02c0.04,257.83,0.03,515.67,0.01,773.51
		c-12.98-0.04-25.94-0.05-38.87-0.02C1221.69,1260.74,1221.69,1002.9,1221.72,745.06z"/>
	<path class="st2" d="M879.17,885.53c56.19-0.02,112.39-0.02,168.58,0c0.02,134.77,0.02,269.53,0,404.29
		c-56.19,0.02-112.39,0.02-168.58,0C879.15,1155.06,879.15,1020.29,879.17,885.53z"/>
	<path class="st2" d="M1148.37,761.26c21.29-0.03,42.6-0.03,63.9,0c0.01,225.47,0.02,450.95-0.01,676.43
		c-21.31,0.03-42.6,0.02-63.9,0C1148.35,1212.22,1148.33,986.74,1148.37,761.26z"/>
	<path class="st4" d="M1066.95,898.22c22.31-0.01,44.63-0.02,66.95,0c0.01,147.48,0.01,294.95,0,442.43
		c-22.32,0.02-44.64,0.02-66.95,0C1066.94,1193.17,1066.94,1045.7,1066.95,898.22z"/>
	<path class="st1" d="M733.06,910.94c40.79-0.04,81.57-0.04,122.38,0c0.06,128.15,0.06,256.3,0,384.45
		c-40.81,0.03-81.59,0.03-122.38,0C733,1167.24,733,1039.09,733.06,910.94z"/>
	<path class="st1" d="M187.13,826.8c16.89-0.04,33.76-0.04,50.65,0.01c0.03,90.41,0.02,180.82,0.01,271.23
		c-16.89,0.04-33.77,0.03-50.65-0.01C187.11,1007.62,187.12,917.21,187.13,826.8z"/>
	<path class="st0" d="M507.8,913.14c64.35-0.02,128.7-0.02,193.05,0c0.02,71.24,0.02,142.48,0,213.72
		c-64.35,0.02-128.7,0.02-193.05,0C507.78,1055.62,507.78,984.38,507.8,913.14z"/>
	<path class="st2" d="M246,809.78c34.55-0.03,69.1-0.03,103.66-0.01c0.01,83.08,0.02,166.17-0.01,249.24
		c-34.55,0.03-69.11,0.03-103.66,0.01C245.98,975.93,245.97,892.86,246,809.78z"/>
	<path class="st3" d="M375.1,842.13c34.56-0.02,69.11-0.03,103.67,0c0.02,166.17,0.02,332.35,0,498.52
		c-34.56,0.02-69.12,0.02-103.67,0C375.09,1174.47,375.09,1008.3,375.1,842.13z"/>
	<path class="st0" d="M127.89,858.27c16.87,0.01,33.75,0.02,50.62,0.02c0.05,79.92,0.05,159.85,0.02,239.77
		c-16.88-0.03-33.75-0.04-50.62-0.02C127.86,1018.12,127.86,938.2,127.89,858.27z"/>
	<path class="st2" d="M80.34,932.5c12.46-0.07,24.92-0.06,37.39,0c0.05,15.2,0.04,30.42,0,45.63c-12.47,0.05-24.92,0.05-37.39,0
		C80.29,962.92,80.3,947.7,80.34,932.5z"/>
	<path class="st1" d="M80.34,997.21c12.47-0.07,24.93-0.07,37.4-0.01c0.03,20.59,0.02,41.19-0.01,61.79
		c-12.47,0.06-24.93,0.06-37.4,0.01C80.3,1038.4,80.31,1017.81,80.34,997.21z"/>
	<path class="st0" d="M1404.85,1036.2c4.85-0.03,9.86,0.01,14.8,0.01c0.02,96.11,0.02,192.16,0,288.29
		c-5.02-0.06-9.86-0.01-14.8-0.01C1404.82,1228.39,1404.82,1132.29,1404.85,1036.2z"/>
	<path class="st2" d="M1337.02,1052.4c20.25-0.06,40.51-0.05,60.77,0c0.03,85.29,0.02,170.6,0.01,255.89
		c-20.27,0.05-40.52,0.04-60.77,0C1337,1222.99,1337.01,1137.69,1337.02,1052.4z"/>
	<path class="st2" d="M507.8,1139.63c66.95-0.02,133.9-0.02,200.85,0c0.02,58.53,0.02,117.07,0,175.6
		c-66.95,0.02-133.9,0.02-200.85,0C507.78,1256.7,507.78,1198.16,507.8,1139.63z"/>
	<path class="st0" d="M286.93,1075.25c21.68-0.05,43.36-0.05,65.05,0c0.03,115.41,0.03,230.83,0,346.25
		c-21.69,0.04-43.37,0.04-65.05,0C286.9,1306.08,286.9,1190.67,286.93,1075.25z"/>
	<path class="st1" d="M1427.84,1149.41c8.03,0,16.07,0.01,24.14,0.01c0.02,63.74,0.02,127.49,0,191.24
		c-8.06-0.03-16.11-0.03-24.14-0.01C1427.81,1276.88,1427.81,1213.19,1427.84,1149.41z"/>
	<path class="st0" d="M1460.68,1181.79c12.46-0.07,24.92-0.06,37.4,0c0.01,58.34,0.02,116.68,0,175.02
		c-12.48,0.05-24.95,0.04-37.4,0C1460.67,1298.47,1460.67,1240.13,1460.68,1181.79z"/>
	<path class="st2" d="M1506.2,1197.94c8.03,0,16.07,0.01,24.14,0.01c0.02,63.74,0.02,127.49,0,191.24
		c-8.06-0.03-16.11-0.03-24.14-0.01C1506.16,1325.43,1506.16,1261.68,1506.2,1197.94z"/>
	<path class="st4" d="M1539.77,1236.94c10.61,0.01,21.26,0.02,31.92,0.02c0.03,69.14,0.02,138.28,0.01,207.43
		c-10.67-0.04-21.3-0.05-31.92-0.02C1539.74,1375.23,1539.75,1306.08,1539.77,1236.94z"/>
	<path class="st2" d="M1581.8,1280.23c14.87-0.05,30.29,0,45.46,0c0.03,74.52,0.07,149.06-0.03,223.58c-15.42-0.06-30.29,0-45.46,0
		C1581.7,1429.28,1581.66,1354.76,1581.8,1280.23z"/>
	<path class="st4" d="M711.01,1294.97c8.04,0.01,16.09,0.02,24.14,0.01c0.02,112.28,0.02,224.55,0.01,336.83
		c-8.06-0.04-16.11-0.05-24.14-0.01C710.99,1519.52,711,1407.25,711.01,1294.97z"/>
	<path class="st1" d="M578.47,1311.22c43.4-0.07,86.79-0.1,130.2,0c-0.04,15.96-0.01,32.27-0.01,48.4c-43.4,0.07-86.8,0.07-130.2,0
		C578.44,1343.28,578.47,1327.35,578.47,1311.22z"/>
	<path class="st1" d="M233.94,1180.38c14.17-0.09,28.41,0.02,42.61,0.02c0.06,101.95,0.06,203.87,0,305.84
		c-14.27-0.13-28.41-0.02-42.61-0.02C233.88,1384.27,233.88,1282.32,233.94,1180.38z"/>
	<path class="st2" d="M598.56,1369.98c35.2-0.12,70.41-0.1,105.62,0c-0.08,21.02-0.08,42.05-0.02,63.13
		c-35.21,0.1-70.43,0.06-105.62,0C598.59,1412.03,598.59,1391,598.56,1369.98z"/>
	<path class="st1" d="M743.02,1327.34c9.49-0.08,19.18,0.01,28.77,0c0.02,101.01,0.04,202.04-0.02,303.05
		c-9.68-0.09-19.18,0-28.77,0C742.96,1529.36,742.94,1428.35,743.02,1327.34z"/>
	<path class="st4" d="M135.87,1359.71c11.53-0.08,23.13,0.01,34.71,0c0.05,69.13,0.07,138.25-0.02,207.38c-11.6-0.1-23.13,0-34.71,0
		C135.8,1497.93,135.77,1428.85,135.87,1359.71z"/>
	<path class="st2" d="M178.58,1276.12c14.8-0.25,29.59-0.2,44.39,0.05c0.04,78.37,0.05,156.79,0.01,235.26
		c-14.8,0.15-29.59,0.15-44.39-0.05C178.54,1432.92,178.54,1354.5,178.58,1276.12z"/>
	<path class="st4" d="M1174.87,1448.18c12.45-0.07,24.92-0.06,37.39,0c0.04,15.2,0.03,30.41,0,45.63c-12.47,0.05-24.93,0.04-37.39,0
		C1174.82,1478.59,1174.83,1463.39,1174.87,1448.18z"/>
	<path class="st2" d="M101.38,1489.07c8.05,0,16.09,0,24.14,0.01c0.03,36.78,0.03,73.57,0,110.37c-8.05-0.03-16.09-0.04-24.14-0.01
		C101.35,1562.65,101.35,1525.86,101.38,1489.07z"/>
	<path class="st0" d="M658.05,1448.14c14.25,0.02,28.51,0.02,42.79,0.01c0.04,61.22,0.04,122.42,0,183.66
		c-14.28-0.06-28.54-0.07-42.79-0.01C658,1570.58,658,1509.36,658.05,1448.14z"/>
	<path class="st2" d="M1119.65,1506.65c6.81-0.05,13.82,0.01,20.73,0.01c0.03,42.18,0.03,84.36,0,126.55
		c-7.02-0.08-13.82-0.01-20.73-0.01C1119.61,1591.01,1119.61,1548.83,1119.65,1506.65z"/>
	<path class="st0" d="M1148.38,1505.29c21.27-0.1,42.57-0.08,63.88,0c0.03,34.53,0.04,69.07,0,103.62c-21.31,0.06-42.6,0.05-63.88,0
		C1148.34,1574.36,1148.33,1539.81,1148.38,1505.29z"/>
	<path class="st1" d="M1592.49,1513.35c16.87-0.06,33.76-0.06,50.64,0c0.03,20.6,0.03,41.2,0,61.8c-16.89,0.04-33.77,0.04-50.64,0
		C1592.45,1554.55,1592.45,1533.95,1592.49,1513.35z"/>
	<path class="st3" d="M21.9,1518.67c23.33-0.12,46.67-0.1,70.01,0c0.09,26.88,0.07,53.79,0,80.72c-23.34,0.08-46.67,0.07-70.01,0
		C21.81,1572.46,21.82,1545.57,21.9,1518.67z"/>
	<path class="st3" d="M1021.75,1544.29c30.13-0.05,60.26-0.05,90.4,0c0.04,29.14,0.02,58.3,0,87.47c-30.14,0.04-60.27,0.04-90.4,0
		C1021.7,1602.59,1021.71,1573.44,1021.75,1544.29z"/>
	<path class="st2" d="M622.15,1586.1c8.04,0.01,16.08,0.01,24.14,0.02c0.05,15.21,0.04,30.45,0,45.69
		c-8.05-0.04-16.1-0.05-24.14-0.02C622.09,1616.55,622.1,1601.32,622.15,1586.1z"/>
	<path class="st4" d="M21.88,1609.02c31.95-0.1,63.92-0.07,95.88,0c-0.06,12.69-0.06,25.4-0.04,38.13
		c-31.95,0.06-63.92,0.05-95.88,0C21.88,1634.43,21.9,1621.72,21.88,1609.02z"/>
</g>
</svg>
