<?xml version="1.0" encoding="utf-8"?>
<!-- Generator: Adobe Illustrator 27.5.0, SVG Export Plug-In . SVG Version: 6.00 Build 0)  -->
<svg version="1.1" id="Layer_1" xmlns:vectornator="http://vectornator.io"
	 xmlns="http://www.w3.org/2000/svg" xmlns:xlink="http://www.w3.org/1999/xlink" x="0px" y="0px" viewBox="0 0 1702.7 2000"
	 style="enable-background:new 0 0 1702.7 2000;" xml:space="preserve">
<style type="text/css">
	.st0{fill:#DBB99C;}
	.st1{fill:#2F4D51;}
	.st2{fill:#EFAFAC;}
	.st3{fill:#8E5A57;}
	.st4{fill:#E2BC99;}
	.st5{fill:#F7DEC9;}
	.st6{fill:#FFDEBF;}
	.st7{fill:#5B4337;}
	.st8{stroke:#000000;stroke-linejoin:round;}
	.st9{fill:#8E2319;}
	.st10{fill:#423637;stroke:#000000;stroke-linejoin:round;}
	.st11{stroke:#000000;stroke-width:1.46;stroke-linejoin:round;}
	.st12{fill:#423637;stroke:#000000;stroke-width:1.46;stroke-linejoin:round;}
	.st13{fill:#D34436;}
	.st14{fill:#C6B655;}
	.st15{fill:#AD8ED6;}
	.st16{fill:#791014;}
	.st17{fill:#CD7480;}
	.st18{fill:#F8FDFA;}
	.st19{fill:#EBCACD;}
	.st20{fill:#C280E5;}
	.st21{fill:#CCF2F1;}
	.st22{fill:#710914;}
	.st23{fill:#90072A;}
	.st24{fill:#9AB4E2;}
	.st25{fill:#90072A;stroke:#90072A;stroke-linejoin:round;}
	.st26{fill:#F8FDFA;stroke:#F8FDFA;stroke-linejoin:round;}
	.st27{fill:#F8FDFA;stroke:#90072A;stroke-linejoin:round;}
	.st28{fill:none;stroke:#FFB900;stroke-width:8.12;stroke-linecap:round;stroke-linejoin:round;}
	.st29{fill:none;stroke:#FFB900;stroke-width:6.87;stroke-linecap:round;stroke-linejoin:round;}
	.st30{fill:none;stroke:#FFB900;stroke-width:3.69;stroke-linecap:round;stroke-linejoin:round;}
</style>
<g>
	<path class="st0" d="M645.3,1435.2c-0.5-0.8,0.4-2.3,9-21.4c10-22,12.9-26.6,17.1-61c2.3-18.5,3.4-49.3,3.4-49.4
		c0.4-0.4,29.5,21.2,33.7,22.8c11.5,4.3,79.2,29.7,101.3,36c29.5,8.4,63.5,7.2,93.7,3.5c38.8-4.9,74.9-30.4,105.3-53.2
		c7.5-5.6,24.3-32.3,30.8-38.8c1.1-1.1-6.4,24.3-6.4,24.3s0.4,26.3,2.3,35.1c6.9,31.1,10.1,52.5,17,83.8
		c7.1,32.4,17.8,34.8,21.9,45.1c2.8,7,119.8,116,111.1,140c-3.7,10.2-502.2,13.7-502.2,12.9c0-0.1-1.8-32.9-5.4-67.2
		c-2.9-27.4-7.4-57-9.6-63.3c-1.7-4.7-3.4-8.9-4.8-12.1C657.2,1458.7,647,1438.2,645.3,1435.2z"/>
	<path class="st1" d="M683.2,1614.7c0-1.4,492.6-14.3,495.3-14.3c0.3,0,10.4,33.4,15.6,83.4c3.8,36.3-17.1,86.8-33.7,129.9
		c-23.3,60.5-40.6,186.3-40.6,186.3H610.7c0,0,30.7-57.9,34.4-66.2c12.6-27.7,17.9-81.6,23.9-95.6
		C685.9,1798.4,683.5,1628.7,683.2,1614.7z"/>
	<path class="st2" d="M650.5,1433.7c-9.4-12.5-36.3-33.3-53.7-28.9c-9.4,2.3-21.3,13.4-26.7,20.3c-14,17.5-17.6,37.1-35.8,50.7
		c-6.2,4.7-21.3-16.9-41.1-11.3c-13.2,3.7-52.7,20.7-62.9,28c-39.8,28.4-75.9,66-112,98.8c-13.4,12.1-39.1,25.1-55.3,34.1
		c-26.9,15-45.1,9.6-73.4,19.9c-28.9,10.5-43.3,13.8-68.5,36.2c-40.6,36.2-51.9,157.2-58.5,193.5c-6.3,34.6-21.4,65.4-21.4,123.4
		c0,2.1,569.6,1.4,569.6,1.4s41.8-58.9,50.8-94.9c9.4-37.6,16.9-78.4,23-117c2.5-16.1,7.5-170.7,2.5-210.1
		c-1.6-12.7-8.9-90-15.4-101.1C669,1472.2,654,1438.5,650.5,1433.7z"/>
	<path class="st2" d="M1048.7,1389.1c4.3,27.7,1.8,35.5,16.2,56.7c10.2,15.1,21.3,23.8,31.2,39c13.9,21.4,56.3,59.7,60.7,66.5
		c22.2,34.2,41,110.6,37.4,158c-4.3,56.7-98.1,290.7-98.1,290.7h574.6c0,0,3.7-35.4-0.7-83.1c-1.8-19.7-4.6-61.8-10.1-83.2
		c-6.8-26.3-26.8-58.4-48.4-82.7c-5.7-6.4-43.1-40.9-58-53.4c-26.4-22.2-53.9-39.7-78.5-64.2c-10.5-10.5-21.7-24.4-30.1-36.7
		c-11.2-16.5-39-53.2-57.2-63.9c-26.3-15.4-96.8-19.3-116.9-19.3c-6.4,0-20.2,0-37.5-21c-9.8-11.8-14-28-31.4-50.7
		c-19.3-25.1-44.7-47.7-71.9-61c-7.4-3.6-92-39-90.4-30.7C1042,1363,1047.5,1381,1048.7,1389.1z"/>
	<path class="st3" d="M1041,1356.5c-1.5-6.6,55.9,19.8,91.4,47.7c35.4,27.9,38.8,67.4,38.8,67.4l4.7,75.8l-65.7-48.2
		c0,0-46.8-42.1-53.5-66.9C1050,1407.5,1042.5,1363.1,1041,1356.5z"/>
	<path class="st3" d="M615.3,1450.5c-46.2,16.7-2.2,77.7-57.4,197.3c-55.2,119.6-172.8,286.9-177.4,301.7
		c-4.6,14.8,62.5-24.6,107.5-68.8c45-44.2,71-33.9,110.4-144C637.8,1626.6,661.6,1433.8,615.3,1450.5z"/>
	<path class="st4" d="M539.6,919.4c-18.5-5.6-9.5,32.4-7.7,38.6c5.3,17.4,10.9,40.9,12.6,59.1c1.8,18.5,10.6,42.7,19.5,59.5
		c6.2,11.6,31.8,34.4,32.9,33.1c1.6-1.9-4.3-21.1-5.4-23c-6.4-10.7-11.5-30.8-13.2-43.7c-1.1-8.9-1.8-53.4-3-65.7
		c-0.8-8.6-1-29.9-5.8-37.9"/>
	<path class="st5" d="M564.3,835.8c-0.9,36.4,1.3,71.8,7,110c1.6,10.8,3.8,14.6,1.8,31.1c-5.3,44.1,8.6,88.4,23.6,131.2
		c7.1,20.4,15.3,53.5,19.3,72.3c9.3,44.2,30,91,58.9,117.4c13.4,12.2,43.3,27.9,69.9,38.6c35.8,14.4,73.5,20,118.2,24.6
		c7.6,0.8,57.1-11.5,64.7-14.5c25.6-10.4,48.4-27.3,72.2-40.9c19.5-11.2,63.2-60.9,69.1-68.7c13.8-18.4,32.9-39.1,48.1-102.2
		c4.9-20.3,1.9-31.6,4.4-31.6c0.7,0,9,4.3,20.2,0c6.6-2.5,22.8-19.4,28.3-23.8c27.3-22.1,37.6-54,43.6-87.1
		c2.4-12.9,1.3-28.3,2.6-41.2c1.4-13.5,7.4-35.5-6.4-49.3c-7.3-7.3-28.8-4.8-34,4.6c-5.3,9.7-10,29.5-15.1,39.7
		c-2.8,5.5-5.8,18.3-9.9,21.3c-4.2,3-13.1,18.6-14.2,30c-0.6,6.3-3.9,15.7-4.9,14.2c-4.2-6.1-2.2-22-0.4-34.3
		c1.8-11.9,4.1-30,5-39.7c1.4-16.5-16.3-59.8-19.8-78.8c-1.2-6.5-2.2-27.7-4.7-33.8c-2.1-5.1-9.9-35.2-4.4-48.3
		c3.2-7.5,1.2-28.6-1.6-36.4c-4.5-12.8-9.4-19.7-17.7-30.7c-6.7-8.9-15.8-20.4-23.2-27.4c-23.1-21.7-60-47.8-78.8-57.2
		c-24.2-12.1-97.7-29.9-103.5-32.4c-15.3-6.8-43.4-7.2-49.3-8.9c-10.3-3-6.5-46.9-4.7-63.8c0.8-7.5,4-17.2,1.4-24.7
		c-0.2-0.7-1.4-4-2.8-2.7c-4.5,4-3,14.8-5.8,19.8c-9.4,17.1-11.8,40.5-18,59c-1.8,5.3-3.3,19.1-8.4,22.7c-3.9,2.7-14.7,0.2-19.5,0.9
		c-11.6,1.6-25.8,6.1-35.7,11.8c-23.5,13.5-79.8,39.4-85.4,43.9c-31.1,25.2-66.1,61.6-67.8,70.7"/>
	<path class="st6" d="M1089.5,2000c3.6-18.9,1-68.1,2.5-87.2c2.7-35,3.1-74.2-8.1-108.2c-7.4-22.4-19.7-40.5-30-61.5
		c-6.3-12.9-14.8-27.3-24.8-37.7c-26.1-27.3-69.5-37.6-103.1-47.2c-24.5-7-52-25-78.7-26.3c-27.8-1.3-58.9,8.5-83.7,20.6
		c-12.3,6-35.1,22.1-47.5,27.4c-9,3.8-20.6-4.3-24.1-12.7c-6.2-14.7,14.4-27.1,24.3-33.8c31.1-21.1,60.8-39.1,94.6-53.5
		c10.6-4.5,31-7.6,38.5-12.3c7.6-4.6-36-10.5-47.5-7.9c-12.8,2.8-65.8-1.7-78.7,0c-21.4,2.9-43.5,26.5-64.9,31.2
		c-12.4,2.7-34.9-1.2-29-18.5c4.5-13.2,27.2-26.5,37-35.2c36.6-32.2,78.6-35.7,126-39.4c21-1.7,42.3,3.2,62,6.9
		c2,0.4,12.2,0.7,12.1-0.7c-0.8-6.1-12.1-8.5-16.5-9.3c-15.3-2.9-27.2-12.2-43.3-13.5c-32.1-2.5-56.7-14.1-87.8-23
		c-9-2.6-52.7-9.2-66.8-14.9c-21.8-8.8-55.9-15.3-42.1-45.2c4.8-10.3,48.6-4.2,59-2.2c8.1,1.5,17.8,6.6,26,8.2
		c15.3,2.9,28.5,3,43.5,7.6c6.9,2.1,5.5,0.2,18.7,4.7c24.1,8.2,59.7,17.5,73.2,20.1c22.7,4.4,62.6,17.2,62.6,7.3
		c0-8-30-18.7-57.1-30.2c-26.7-11.3-54-23.5-83.2-43.6c-8.5-5.8-38.7-16.2-46.9-22.5c-9.9-7.5-26.1-26.5-13.9-44.4
		c13.9-20.4,39.8-0.9,49.1,2.3c8.7,3,59,23.3,68.9,27.3c10.1,4.1,49.9,18.8,58.8,24.5c15.2,9.7,73.1,42.8,85.5,49.7
		c8.8,4.9,44.2,17.8,51.5,21.9c13.1,7.3,26.9,10.7,40.3,18.2c59.3,33.2,106.2,78.2,157,123.5c18.8,16.8,42.5,29.8,54.9,52.7
		c31.2,57.4,31.9,119,38.4,182.2c1.8,17.4,6.1,35,8.4,52.5c5.2,38.5,7.6,52.5,11.1,91.2c1.4,15.9-1.9,35.1,0.2,50.8"/>
	<path class="st7" d="M840.9,455.6c-8.7,1.7-7.3,22.2-11,29.9c-10.7,22.1-21,98.2-28.1,105.2c-6.7,6.6-13.3,5.1-35.4,9.5
		c-18.3,3.7-32.2,11.1-48.5,21.3C695,635.8,664.4,653.4,644,671c-4.8,4.1-28.2,26.4-32.8,33.2c-7.5,11.2-18.4,21.7-24.2,33.8
		c-16.3,33.6-12,70.9-14.7,105.7c-1,12.8-7.7,59.9-5.3,70.7c2,9.2,4.7,17.5,4.3,25c-0.2,3.7,2,27,3.1,30.2
		c0.8,2.3-3.8-19.8-12.1-27.8c-4.1-4-17.7-25-28.6-18.2c-9.7,6.1-7.4,16.2-2.7,29.9c8.3,24.3,14.5,47.4,19.2,71.5
		c0.6,2.9,5.2,23.9,6.6,33.4c3.6,24.2-54.9-41.5-54.9-77.1c0-20.7,5.5-32.2,0-41.9c-9.4-16.6-31.3-17.8-37.4-46.2
		c-5.3-24.6,9.4-22.3,13.7-36.4c1.4-4.4-10.2-15.5-13.8-31.4c-3.6-15.7-5.2-23.8-5.6-39.7c-0.2-8.2,7.2-31.5,12.4-37.7
		c7.5-8.8,21-9.9,27.5-19.6c8.9-13.2-2.5-31.4,3.7-44.4c4.3-9,8.5-22.5,15.3-29.8c3.8-4.1,9.1-8.2,12.3-13
		c8.8-13.1,14.9-29.3,22.6-43.2c12.8-23.3,5-50,3.7-74.8c-1.4-27.2,17.9-54,39.5-68.4c39.7-26.5,87.9-26.7,131.2-43.3
		c28.6-11,62.7-31.9,94.8-27.7c9.3,1.2,16.3,7.7,22.5,13.9c14.5,14.7,13.6,24.7,6.5,43.9C848.5,447.1,846.4,454.6,840.9,455.6z"/>
	<path class="st7" d="M827.6,461c-2.4,1.3,0.5,28.9,1,44.4c0.4,12.2-4.8,25.7-5.1,37.9c-0.2,10.3-10.9,33.9,0,37.2
		c9.9,3,23.9,10.2,36.5,9.3c18.5-1.3,59,10.4,71.7,14.9c24.6,8.8,87.5,41.4,98.1,47.9c25.1,15.3,49.3,44.5,66.2,69.2
		c15.7,23.1,7.1,49.1,12,79.9c1.5,9.5,6.9,43.5,13.5,75c1.6,7.8,18,44.2,18,68c0,9.4-15.7,52.5-7.4,66.7c0.4,0.7,7.4-34,18.1-44.5
		c12.1-11.8,14.6-68.1,49.9-65.1c28.2,2.4,6.6,109.5,6.6,114.9c0,2.2,16.4-19.2,16.6-19.6c2.9-5.4,12.9-13.4,17.7-16.9
		c23.9-17,29.7-59.5,29.7-80.5c0-10.4,22.7-22.1,28.6-43c3.1-11,7.8-28.5-1.3-39.5c-8.3-10-11.5-11.8-11.1-25.6
		c0.6-28.1,26.6-45.5,14.2-77.6c-6.4-16.5-27.1-22.6-33.3-32c-9.9-14.9-3.2-46.9-8-56.6c-15-29.8-51.7-73.3-83.6-106.6
		c-37.2-38.9-71-75.1-115.3-106.7c-19.5-13.9-38.2-30.6-59.1-42.2c-14-7.7-29-9.6-44-13.9c-12.7-3.7-22.2-11.4-36.1-8.2
		c-17,3.9-41.8,14-51.1,29C859.2,395.1,831.2,459.1,827.6,461z"/>
	<path class="st8" d="M703.5,1294.1c2.5,0-16.3,15.5-8.5,23.1c4.3,4.2,20.1,10.9,26.1,11.7c2.1,0.3,15.2,2,17.6-7.5
		c3.3-12.9-0.2-14.9-10.9-20C725.7,1300.5,706.3,1291.9,703.5,1294.1"/>
	<path class="st8" d="M610.7,1395.9c-8.3,10.7,6.5,13.2,15.5,14.9c11,2,18.3,6.1,25.8-4.6c1.5-2.1,5.8-5.7,4.9-8.2
		c-1.5-4.3-9.7-6-14.1-6.5C635,1390.5,617.7,1384.7,610.7,1395.9"/>
	<path class="st8" d="M628.2,1576.6c1.3,1.4,1.6,5.4,7.1,4.8c7.4-0.8,19.6-13.6,22.2-20.5c1.5-3.9,3.8-8.2,0.6-12
		c-2.3-2.7-3.2-1.1-6,0.1c-6.9,3-17.1,15.3-19.4,18.1C631,1569.2,627.5,1575.8,628.2,1576.6z"/>
	<path class="st8" d="M690.4,1654.9c-1.3,0.9-0.4,4.4,2.7,6.1c9.3,5.3,18.5-6.6,21.8-13c1.5-2.9-0.2-7.5-1.4-11
		c-2.2-6.5-4.8-1.2-7.4,1c-2,1.7-7.8,7.8-9.6,9.8c-3.1,3.3-4.8,3.2-6,7.5"/>
	<path class="st9" d="M864.6,1160.9"/>
	<path class="st3" d="M1322,1904.8c-6.2-28.4,28.8-163.4,44.8-228.9c16-65.5,24.4-95.8,37-98.1c12.5-2.3,8.3,40.3,6.4,84
		c-2,43.8-25.5,68.9-49,126.3C1337.5,1845.7,1328.2,1933.2,1322,1904.8z"/>
	<path class="st3" d="M1355.6,1954.9c13.2-22,125.1-99.4,177.6-123.6c52.6-24.1,58.4-69.6,71.8-28.3c13.4,41.3-51.4,73.1-73.8,77.7
		C1508.8,1885.3,1342.3,1976.9,1355.6,1954.9z"/>
	<path class="st10" d="M890,877.7c1.5,0.8,28.1-0.4,31.6-1c18.1-2.6,48.5-13.5,71.7-29.7c10.2-7.2,37.9-10.5,57.2-3.2
		c6.2,2.3,45.7,18.7,45.5,18c-2.3-7.3-9.1-16.2-13.9-21.9c-6.3-7.4-23-21.7-41.1-26.6c-31.1-8.3-74.8,10.1-79.6,13
		c-3.2,2-27.4,10.7-71.7,15.7"/>
	<path class="st10" d="M809.5,836.3c3.2,0.5-2,41.8-4.8,41.8c-28.1,0.3-42.6-10.5-55.1-15.4c-24.9-9.8-45.4-19.2-72.6-18.9
		c-8.5,0.1-12.5,0.6-46.2,8.4c-6.1,1.4-26.3,16.9-27,16.5c-0.6-0.4,15.1-36.8,36.3-47.1c5.3-2.6,27-9.6,54.1-9.1
		c29.3,0.5,59.9,10.3,83.3,15.9C791.9,831.8,806,835.7,809.5,836.3z"/>
	<g>
		<path class="st11" d="M848.3,879.4c-5.2-9.1-3.5-21.3-1.5-32.4l0.3,0c0.7,6.8,0.2,13.5,1.4,20.3c0.4,2.5,1.2,5.3,1.9,7.6
			c0.2,0.7,0.9,2.9,0.4,2.2"/>
		<path class="st11" d="M850.8,875c4.7-10.5,2.5-20,5.3-31.1l0.1,0c-0.1,9.9,3.6,23.9-3.2,32.9"/>
		<path class="st11" d="M861.6,871.3c5.1-3.1,7.8-22,9.1-26.9l0.2,0c0,13.2,0.1,18.2-5.5,28.9"/>
		<path class="st11" d="M889.1,873.7c-3.6-9.8-5.4-22-4.8-32.2l1.3-0.1c0.8,8.9,3.7,23.1,7.5,31.7"/>
		<path class="st11" d="M886.5,872.5c-7.1-5.9-8.7-17.2-9.2-25.8l0.4-0.1c1.4,8.9,4.9,17,9.7,24.5"/>
		<path class="st11" d="M802.8,873.3c-2.5,1,0.3-1.7,0.9-2.5c2.1-3,2.8-7.3,4-10.8c3.3-9.4,5.6-18.6,9.5-28.2l0.6,0.2
			c-2.8,11.5-3,38.5-13.3,46.3"/>
		<path class="st12" d="M833.4,871.4c-1.5-11.3-2.7-20.4,2.5-31.5l0.6,0.2c-2.5,6.8-4,13.5-2.9,20.8c0.5,3.2,3.1,7.3,2.6,10.5"/>
		<path class="st11" d="M820,874.1c-3.1-11.7,7.8-22.9,8.6-35l0,0c0.8,10.7-4.1,25-6.8,35"/>
	</g>
	<path class="st13" d="M748.3,1184.5c-6,0,8.9,13.7,12.8,17.9c5.9,6.3,19.7,13.9,27.4,17c21.5,8.4,31,12.4,61,10.9
		c39.3-1.9,41.9-3.6,48-4.7c20.6-4,37.6-15,42.3-28.4c2.3-6.5,9.1-12.1,13.3-17.9c0.7-0.9-14.4,3-16.3,3c-13-0.1-25.9-6.4-38.9-6.1
		c-4.3,0.1-8.6,0.4-12.9,0.9c-10,1.1-17.3,7.7-26.8,7.9c-14.6,0.3-29-7.4-43.5-7.1c-12.3,0.3-27.2,6.6-34.7,6.6
		C770.4,1184.5,755.8,1184.5,748.3,1184.5z"/>
	<path class="st9" d="M739.7,1180.2c-2.3-1,15.3-6.6,19.2-9.2c14.7-10.2,27.8-15.4,42.8-22.2c8.3-3.8,19-8.1,28-7.1
		c6.9,0.8,10.9,5.4,18.2,6.2c11.2,1.3,21.7-10.1,33.6-7.6c14.2,3,30.6,14.4,44.3,19.5c7.9,2.9,16.8,6.5,24.8,9.5
		c1.1,0.4,9,3.4,9,5.1c0,3.6-13.2,7.8-18.2,7.9c-18.5,0.4-47-6.2-55.2-5c-8.1,1.1-16.3,5.9-24.5,7.2c-3.3,0.5-7.7,1.6-10.8,1.6
		c-12.7,0-22.2-7-30.8-7.7c-14-1.1-21.1,3.3-31.5,5.9c-10.4,2.5-23.8,2.1-34.5,0.9C749.2,1184.6,742.2,1181.3,739.7,1180.2z"/>
	<path class="st14" d="M983.6,335.9c2.4-1.6-1.1-16.2-0.9-16.4c5.3-4.4,10.3-1.8,15.4-4.9c3.9-2.4,4.9-7.6,10-9.1
		c5.6-1.6,12-0.5,17.6-2.3c3.7-1.2,3.6-4.4,6.1-6.4c2.8-2.3,8.2-2.7,11.6-5.9c7.3-7,2.6-13.9,5.7-21.7c2.5-6.3,7.4-11.7,9.7-18.3
		c1.7-4.9-3.3-13.7,5.3-14.1c17.2-0.8,32.5,15.5,44.1,26.8c2.2,2.1,3.3,5.7,5.7,7.6c10.7,8.2,21.7-3.1,32,3.4
		c6.2,3.9-3.1,18.4,2,23.4c3.9,3.8,11.1-0.3,14.7,2.9c3.2,2.9,4.2,9,7.4,11.7c3.7,3,11.9-0.5,14.7,2.9c4.1,5,1.5,16.6,5.5,22.5
		c2.3,3.4,7.9,4.7,9.2,8.8c1.3,4,1.7,17-0.4,20.7c-2.1,3.7-8.2,9.3-5.9,14.4c1.7,3.7,19.9,11.7,18,18.8c-2.1,7.8-16.8,3.6-20.2,10.3
		c-3.1,6,3.2,12.8,0,18.9c-1,1.9-22.2,12.4-25.8,14.6c-5,3.1-4.1,11.6-7.4,16.4c-3.5,5.2-23.9,21.6-30.3,23.3
		c-12.7,3.4-13.7-15.7-21.7-11.8c-11.9,5.7-22.2,20.6-36.1,20.6c-4,0-25.8-12-29.7-14.7c-6-4.2-2.8-13.4-7.2-17.5
		c-2.6-2.4-6.6-1.9-9.4-3.6c-2.5-1.6-3.4-5.1-5.4-7.2c-4.4-4.5-10.1-7.9-14.4-12.4c-1.8-1.9-2.1-3.4-1.9-6c0-0.6,1.7-1.8,0.8-2.4
		c-2.7-1.7-17.7-3.8-10.5-11.7c5-5.5,16.6-1.9,22.8-3c16.4-2.8,31.5-17.7,37.7-33.3c0.5-1.2-0.9-3-0.5-4.6c0.6-2.3,4.7-5.7,3.5-8.2
		c-3.9-8.1-19.6,3.6-22.7,0.9c-3.2-2.9,0.2-7.8-6.4-9.5c-5.2-1.3-14.9,4.2-18.9-0.6c-3.7-4.4-1.1-13.7-6-16.7
		c-6.3-3.9-12.8,6-18.8,2.2c-6.6-4.2-2.2-4.9-0.6-9.5c0.1-0.3,0.4-2.5,1.1-2C984.5,333.8,980.5,337.9,983.6,335.9z"/>
	<path class="st13" d="M394.2,538.2c-1.3,0.2-0.5,2.8-0.8,4c-0.5,2.2-3.4,5.3-5.3,6.5c-2.8,1.7-6.4-0.2-8.8,2.4
		c-8.5,9.3-7.3,19,4.7,25.4c2.8,1.5,6.6-0.3,9.7,1c4.9,2,6.9,7,11.4,9.5c2.7,1.6,7.4,1.3,9.1,4.2c2.1,3.6,4.5,15.8,3.5,19.9
		c-1.3,5.1-4.9,11.6-4.1,16.9c0.6,3.8,7.6,3.8,9.7,5.9c1.9,1.8,1,6.9,1.8,9.2c2.7,8,13.5,11.6,21.5,11.1c6.6-0.4,31.1-5.2,34.4-10.3
		c4.1-6.3-1.2-11.1,2.2-17.3c1.9-3.4,4.6-5,8.3-5.5c0.3,0,2.5,0,2.5,0c-0.2-1.5-7-5.5-8.1-6.8c-3.7-4.6-10.7-22.6-6.1-28
		c3.5-4.1,8.4-3.2,13.1-4.5c4.8-1.3,8.7-3.1,13.7-2.8c3.4,0.1,4.7,4.1,7.2,5.6c7,4.2,12.8,0.6,17.5-5.2c5.4-6.7,2.3-13,2.4-20.8
		c0.1-6.8-1.2-17,0.6-23.4c1.3-4.7,5-8.9,5.6-13.6c0.8-5.8-3.8-11.3-2.6-16.9c2.9-13.9,27.1-1.9,31.7-16.2c2.2-7-1.9-32.3-3.2-40.8
		c-0.4-2.3,0.3-10.1-1.8-11.4c-2.3-1.4-8.8-5.6-11.1-5.7c-3.7-0.2-12.9,3.1-15.5,0c-5.3-6.4,5.4-18.4,3.3-22
		c-5.9-10-17.7-6-24.8-14.1c-8.4-9.7,9.3-19.7-1.3-28.4c-8.7-7.1-14,6.1-21.5,7.2c-7,1.1-11.1-7.2-18.1-5.3
		c-23,6.3-25.2,29.3-31.3,48.3c-1.4,4.3-3.7,7.9-4.8,12.4c-0.7,2.9,1.8,12.2,0.4,14c-1.2,1.6-10.9-4.2-11.7-4.9
		c-5.8-5.3-9-18.5-19.9-9.9c-9.7,7.6,9.2,25-1.8,40.2c-2.2,3-7.4,9.5-11.1,10.5c-10.3,2.9-22.8-15.9-26.9,8.4
		c-0.4,2.6-1.2,4.8-0.9,7.6c1.6,20.1,31,28.5,28,46.1c-2.2,12.9-10.3,6.8-18.6,9.6c-5.9,1.9-7.8,9.8-9.3,14.9"/>
	<path class="st15" d="M681.2,249c-3.8-4.1-16-5.6-15,3.3c0.6,5.8,8.5,4.5,11.5,7.5c5.6,5.4,5.4,13.9,13.8,18.9
		c9.2,5.5,21.3-6,32-0.8c13.7,6.6,22,16.7,38,17c14.8,0.2,10.2-14.4,11.9-23.4c0.9-4.6,6.2-10.6,9.6-13.8c4.7-4.4,11.7-2.5,16.6-7.5
		c3.6-3.6,1.3-13.6,7.6-13.5c5.9,0.1,13.6,15.3,18.4,12.7c10.6-5.6-6-17.8-2.6-20.5c1.5-1.2,12,1.9,14,2.2c5.9,0.7,36.1,4,40,2
		c20.4-10-5.8-22.9,3.8-29.9c1.5-1.1,33.8,10.4,27.6-7.7c-9.3-27.5-62-16-83.1-10.7c-18.2,4.5-37.7,11.5-56.6,11.8
		c-18.8,0.3-27.9-6.4-46.1,7c-6.6,4.9,3.9,22.2-5.7,30.7c-5.4,4.8-19.8,6.8-26.6,4.9c-3.3-0.9-4.3-3.9-8.3-2.8c-3.5,1-1.5,7.1-3,9
		c-2.1,2.6-5.1,3-7,6.4"/>
	<path class="st16" d="M695,371.1c-3.2,0.6-4.2-4-6.8-5c-3.6-1.5-14.4-2.4-18.2-1.7c-3.9,0.7-0.7,6.6-5.2,7.4
		c-2.8,0.5-12.3-1.1-14.1,1.5c-7.1,10.2,8.3,32,5.7,43.4c-2.4,10.1-27.7,9.4-32.7,16.5c-6.9,9.9,2.8,15.2,5.7,23.5
		c2.1,5.9-4.9,10.1,0.2,19.5c2.5,4.7,9.6,1.4,12.3,5c3.9,5.2-1.8,11.3,8.8,13.1c11.6,2,19.6-6.7,30.3-7.6c6.3-0.5,7.2,5.8,12.7,7.2
		c18.9,4.9,23.4-11.2,32.1-23.6c2.3-3.3,10.9-3.1,10.8-7.4c-0.4-12.5-19.8-19-20-32.4c-0.2-9.7,18-24.4,15.1-31
		c-3.4-7.6-12.8-10.4-19.9-12.8c-2.3-0.8-6.2-0.9-8.6-0.5c-0.1,0-2.5,0.4-2.5,0.4c-0.1-0.6,2.6-4.4,2.8-4.7c1.9-4,2.2-12.5-0.6-16.2
		c-4.5-6.1-9.8,5.1-14.1,5.1c-4.7,0-11.5-5-15.7-1.8c-3,2.4-5.1,6.1-7.2,9.1"/>
	<path class="st16" d="M903.2,206.7c-3.7-2.8-7.4-4.6-10.8-7.8c-5.8-5.6-17.1-7.8-17.6,2.2c-0.3,5.4,17.2,33,2.4,36.1
		c-7,1.5-8.3-4.7-13.1-7.3c-7.4-4-15.2-5.7-23.3-6c-4.1-0.1-8.8-3.4-9.8,2.3"/>
	<path class="st17" d="M904.8,207.8c0.5-3.6,2.3-7.3,4-10.4c1-1.9,2.1-3.3,3.6-4.8c16.9-17.3-0.3,13.5,11.3,17
		c8,2.4,12.9-8.8,14.6-8c1.6,0.8-4.3,14.3,3.6,12.7c4.2-0.8,5.7-6.5,10.2-6.9c5.6-0.5,5.1,5.7,9.4,6.8c4.3,1.1,8.5-3.8,12.9-2.6
		c2.6,0.7,2.7,4.7,5.9,5.4c4.2,0.9,7.7-3.9,11.6-2.8c1.7,0.5,2,2.7,3.5,3.4c4.4,2.1,18.3-1.7,20.9-0.3c5.7,3.2,1,13,4.7,14.8
		c4.6,2.2,17.3-9,21.4-1.8c3.6,6.3-2.2,15.2-2.1,21.6c0,3.2,5,6,6.5,8.5c2.1,3.3,3,9.7,3.2,13.6c0.2,5.9-9.7,8.2-13.4,11.8
		c-2.8,2.7,0.5,9.1-1.3,12.4c-3.8,6.8-11.8,1.8-16.4,3.8c-4.5,2-4.2,10-9.4,11c-5.2,1-10.6-6.4-16.3-4.4c-1.9,0.7-2.6,8.6-3,10.2
		c-1.2,5.6-4.8,10-6.3,15.4c-0.8,2.9-0.5,7.1-2.2,9.6c-0.3,0.5-2,0.6-2.4,0.4c-6-3.3-7.6-10-15.6-4.7c-4.8,3.2-16,25-20.7,24.4
		c-1.4-0.2,0.5-5.5-0.4-4.4c-5.3,6.1-6.6,19.6-18,21.8c-15.1,2.9,2.6-15.9-8-22.2c-9-5.3-22.2,11.1-30.9,3.9
		c-1.3-1.1-6.1-19.5-6-19.6c1.6-3,8.2-5.8,8.2-9.8c0-4.8-9.3-2.5-8.6-7.4c0.3-2.6,12.3-14.2,8.9-17.7c-3.5-3.7-16.2-3.1-18.8-8.1
		c-2.9-5.5,3.7-14.2-3.1-19.6c-3.1-2.4-12,5.9-13.9,2.5c-2.6-4.7,3.8-13-6.7-11.8c-4.1,0.5-20.4,8.6-21.8,7.7
		c-2.4-1.3-3.8-23.8-2.6-25.5c1-1.4,12.7,3,11.7-0.8c-2.3-8.9-18.5-7.6-14.6-22.7c1.3-4.9,15.8,5.6,19.9,4.6c4.5-1.1-3.1-11,4.6-10
		c7.6,1,30.5,17.2,35.8,14.6c8-3.9-8.3-19.1-6.3-25.6c1-3.2,8.6,4,9.8,3.6c4.3-1.5-7.4-13.6-2.9-18.2c6.1-6.3,14.2,2.6,19.5,5.2
		c0.6,0.3,4.3,1.5,4.9,0.6c0-0.1,0.8-3.9,1.7-3.1c0.8,0.7,0.4,3.6,0.8,4.4c0.7,1.7,4.8,2.6,6.2,3.4"/>
	<path class="st17" d="M542.3,427.6c-2.6-1.4-5,2-7.8,0.3c-4.3-2.5,10.2-16.8,9.1-19.9c-1.5-4.1-12.2,0.1-15.3-2.1
		c-4.1-2.8-1.4-8.9-3.7-12.4c-1.8-2.7-6.9,0.5-9.3-0.1c-2.1-0.6-4.4-7.8-4.8-9.6c-1.6-7.4,3-11.6,4.1-18.1c0.8-4.7-2.6-4.2-4-7.4
		c-2.8-6-3-18.4,2.7-22.9c11.9-9.4,21.1,2.7,31.8,6.6c5.6,2.1,13.1-4.1,18.6-2.6c2.3,0.6,3.9,3.3,6.2,4c5.6,1.5,11.3-19.2,22.2-14.6
		c7.4,3.1,8.2,16.1,7.4,22.4c-0.3,2.2-2,8.1,1.3,9.1c4.8,1.5,17.1-10.5,20.5-8.4c2.3,1.5,6.4,3.5,7.9,5.8c1.4,2.2,1,5.7,3.1,7.5
		c3.9,3.1,11.4,0.5,13.8,6.6c2.3,5.8-2.1,17.6-0.1,20c2.3,2.7,7,0.4,9.5,2.4c5.7,4.5,6.2,20.4,4.4,26.5
		c-6.1,20.2-23.7-13.2-30.6,3.7c-2,4.9,0,9.9,1,14.7c1.1,5.2-0.7,28.3-4.9,31.6c-6.9,5.3-9.3-0.7-14.8-2.7c-0.2-0.1-0.4-0.1-0.6,0.1
		c-1.4,1.1-1.6,6.9-2,8.3c-1.6,5.7-7.3,16.2-13.7,17.7c-14.7,3.5-14.8-3.6-19.9-14.6c-1.1-2.4-3.8-6.5-3.9-9.1
		c-0.2-4.5,2-10.4,0.4-14.8c-2.1-5.7-20.5,6.3-21.6,0.9c-0.9-4.2,17.8-37.4-1.4-28.5c-1.8,0.8-3.9,1.3-5.5,2.4
		c-2.8,1.9-4.8,4.9-7.3,7.2"/>
	<path class="st18" d="M720.6,418.5c0-2.1-8.8,7.9-7,12c2.3,5.3,7.8,1.8,9.9,5.4c4.5,7.4-3,19.1,1.7,24.8c5.1,6.4,12.9-1,17.4,1.2
		c2.1,1.1,0.1,8.5,5.4,9.5c3.5,0.7,24.5-3.3,25.2-2.9c5.6,2.8,4.3,9.2,12.8,9.9c12.7,1.1,14.2-16.8,27.7-19c5.4-0.9,9.5,5.8,14.5,7
		c3.3,0.8,8.4-4.8,12.4-5.4c7.2-1,13.5,4.7,21.1,3.7c11-1.4,17.3-13.8,24.4-20.3c2.9-2.7,6.8-3.7,9.9-5.8c4.2-2.8,5.8-7.4,8.7-11.2
		c2.8-3.6,7.1-5.4,9.9-8.7c2.9-3.4,2.8-8.3,6.2-11.2c11.9-9.9,20.5,2.4,18.2-20.3c-1.6-15.6-13.1-23.4-28.1-21.5
		c-3.6,0.5-19.6,3.6-21.1-0.8c-2.5-7.6-8.3-15.3-5.8-23.6c0.9-3,8.9-20.5,8.3-21.5c-3.8-6.6-16.5,3.8-17.4-1.2
		c-1.3-8,9.6-18.9,1.7-26.9c-5.2-5.2-16.6,1.2-17.4,0.4c-1.4-1.4-0.9-5.3-1.2-7c-1.7-7.5-6.7-15.9-14.1-19
		c-3.9-1.7-11.3-4.4-15.7-2.5c-0.8,0.4-3.6,5.3-4.1,5c-1.5-1-1-11.3-2.5-13.7c-5.4-8.8-18.5-14.4-28.6-12.4
		c-18.9,3.8-8.8,11.8-17.7,22.9c-3.6,4.6-15.2,7.2-19.1,13.1c-5.3,7.9-0.3-5.1-12.1-1.1c-3.7,1.2-4.2,10.4-5.5,7
		c-1.7-4-2.5,3.3-5.6-0.1c-9.7-11-24.6-14.5-32.7,0c-2.6,4.8-3.3,8.9-1,12.4c2.5,3.7,9.4,5.6,9,6.1c-0.6,0.8-19.2,8.9-19.2,8.9
		s-7.2,5.1-14,9.9c-9.6,6.8,14.1,12.7-6.1,35.5c-19.2,21.7,20.2,3.3,18,10.8c-2.3,8,19.7,13.1,24,18.2c6.7,8.1-13.7,18.3-13.7,22.3
		c0,7.2,18.8,1.4,21.9,3.3c4.4,2.6,2.2,18.7,2.5,22.8"/>
	<path class="st19" d="M945.2,364.9c-4.8-7.7-15.6-2.5-14.7,6.8c0.4,3.8,5.4,5.6,5.6,10.1c0.2,3.9-5.1,6.7-4.9,9.3
		c0.1,1.3,4.1,4.2,4.6,6.8c0.8,4.1-2.7,8.8-1.7,12.8c0.8,3.1,7.3,1.1,8.6,5c2.7,7.6-5.7,16.3,0.7,24c13,15.9,27.8-3.6,38-10
		c2.2-1.4,4.9,1.4,7,0.1c4.6-2.9,2.5-11.2,7-13.4c3.1-1.5,7.5,0.9,10.9,0.6c5.5-0.4,11.9-2.2,17.1-4.1c15.5-5.4,14-10.7,23.4-22.2
		c5.7-7,11.9-10.5,12.1-20.8c0.1-4-0.8-18.8-7.6-18.9c-9.9,0-9.9,16.5-19.5,15.8c-8.2-0.7-2.2-10.9-7.4-13
		c-4.2-1.7-11.1,3.9-14.1,1.4c-1.8-1.4-8.7-16-11.9-14.9c-4.2,1.4-2.8,9.2-8.8,9c-4.5-0.1-3.1-7.6-6.3-10c-6-4.5-9.6,3.7-14.1,5.4
		c-0.8,0.3-0.8-1-0.9-1.4c-0.9-3.6-4.9-8.7-9.4-7c-9.7,3.7-2.5,23.3-7.9,26.6c-1.6,1-3.8-0.9-5.4-0.6c-3.4,0.5-7.7,4.2-11,5.4"/>
	<path class="st19" d="M1167.6,544.7c-2.2-2.7-7.9-5.2-11.3-6.5c-34.9-13-6.4,35.9-12.7,43.6c-6.8,8.4-18.2-0.5-25.9,0.4
		c-15.2,1.6-2.7,17.7-3.1,20.5c-0.2,1.5-3,2.6-3.5,3.7c-1.1,3.1,1,9.4,2.3,12.3c4.3,9.4,15.1,8.2,21.7,9.7c0,0-1,7.8-1,8.3
		c0,2.9,3,10.5,6,11.4c4.7,1.3,21.7-7.2,21.8-7.1c6.9,5.5,0.7,21.1,5.8,27.3c11.3,13.6,19.9-2.2,27,0.5c1.6,0.6,2.7,4.6,4,5.8
		c6.6,6.4,11.9,12,22.1,9.2c13.6-3.8,22.5-15.4,21.8-29.7c-0.2-4-3.9-13.5-1.8-17.1c3.7-6.6,16.4-3.6,20.7-8.9
		c0.6-0.7-1.3-1.3-2.1-1.7c-3.5-1.5-6.4-4.3-4.8-8.6c2.8-7.5,10.9-8.7,16.4-13.3c9.7-8,8.2-24.3,6.3-35.3c-2.7-16-12.3-7.2-19-11.4
		c-5.8-3.7-3.3-14.3-11.1-18c-6-2.9-13.6-8.6-19.8-10.4c-7.6-2.1-16.2,1.2-24,0.2c-11-1.5-21.8-6.7-32.1,1c-2.8,2.2-0.2,5.9-3,8
		c-6.7,5-16.1,3.7-21.5,10.5"/>
	<path class="st20" d="M1167.5,447.6c-3.6-0.7-8.1,10.2-9.9,13.4c-3.5,6.2-1.7,9.3-2,15.9c-0.2,3-3.7,4.9-4.8,7.3
		c-3.6,7.7-5.5,15.8-2.3,24.1c3.9,10,16.7,4.1,23.7,7.1c7.3,3.1,8.1,14.3,16.6,15.4c4.8,0.7,10.5-3,15.1-3.7c6.1-1,11.7,3,18,1.9
		c8.8-1.6,12.9-8.7,19.7-13.5c11.9-8.5,14.7,1.4,22.3-19.4c3.9-10.6,2.3-54.9-4.2-63.1c-5-6.4-15.8,1.1-22.1-5.8
		c-8.7-9.7-10-27.4-27-27c-8.7,0.2-21.3,26.1-28,32.8c-2.5,2.6-6.6,7.7-10.6,8c-3.4,0.2-8.3-6.5-10.8-2.1
		c-2.5,4.3-1.4,15.9-1.6,20.5"/>
	<path class="st21" d="M573.9,343.9c-6.2,0.9-20.7-23.3-22.5-29.3c-0.3-1.1-3.6-8-2.3-9.4c4.1-4.1,11.5-1.7,15.1-6.5
		c6.5-8.7-1.2-18.6,11.5-21.5c14.5-3.3,27.4,12.2,42.9,2.2c12.7-8.2,18-36.2,26.1-49.2c4.1-6.7,12.9-0.1,19.1-2.2
		c22.7-7.5,29.9-28.8,53.5-5.1c2.7,2.7,5.5,18.7,2.6,21.9c-2.4,2.6-6.8,1.1-9.8,2.8c-3.7,2.1-5.3,7.1-9.3,9.5
		c-2.4,1.4-12.4,4.4-10.9,8.8c2.5,7.2,13.9,8.6,16.2,15.2c8.2,23.5-24.7,37.7-28.3,44.4c-5.2,10-5.2-0.8-4.5,10.2
		c0.2,3.9,8.8,20.8,6.7,24.5c-2.3,4.1-24.2,17.7-27.9,20.2c-2.2,1.5-15.2-4.4-17.1-2.8c-12.3,10.3-20.3-7.5-31.4-15.8
		c-2.4-1.8-8.3-1-9.6-2.5c-4.1-5,4.7-14.3,1.3-18.1c-3.1-3.4-18.4,5.7-22,5.5c-3.8-0.2-5.6-10.2-8.5-12.4"/>
	<path class="st22" d="M501.2,581.3c-4.9-9.8-23.6-10.4-27.5,0c-4.1,10.6,2.5,17.7,7.9,26.8c1,1.6,7.1,8.2,5.9,10.6
		c-2.9,5.8-14.3,8.9-18.9,13c-8,7.1-12.9,28.5-7.1,38.2c3.4,5.6,16.1,3.2,18.9,7.9c5.6,9.4-8.5,26.9,10.6,28.3
		c12.4,1,31.1-9.4,39-18.5c3.4-4,10.1-10.8,12.2-15.7c0.7-1.6-0.8-3,0.8-4.3c11.5-9.2,25.7-7.8,39-12.6c12.8-4.7,24.3-17,30.3-29.1
		c1.7-3.4,2.2-7.4,2.8-11c0.5-3.4,0.4-6.8,0.4-10.2c0-20.6-29.6,1.3-34.2-2c-3.1-2.2-3.9-9.7-5.9-13c-4.7-7.9-17.3-31.1-27.9-31.1
		c-14.8,0-14.1,21.5-23.2,27.5c-9.9,6.6-7.6-36.3-21.2-18.1c-1.1,1.5-1.9,3.5-2.8,5.1c-1.5,3-2.1,5.3-3.1,8.7
		c-0.5,1.6-3.1,8.7-3.9,11"/>
	<path class="st22" d="M562.2,500.3c-5.5-10.9-11.9-16.5-24.4-15c-4.1,0.5-7.2,1.3-8.7,5.5c-5.1,15.4,9.5,26.8,12.2,40.1
		c0.7,3.6-2.2,6.8-3.5,9.8c-4,9.3-8.3,18.1-2.8,28.3c9.8,18,38.2-5.2,44.1-0.8c4,3-8.8,30.7,0,36.2c12.1,7.5,24.6-7.1,32.7-14.6
		c1-0.9,5.9-7.5,7.5-7.1c1.4,0.4,1.9,6.3,6.3,6.7c21.1,1.9,47.6-38.6,53.9-55.1c1.4-3.7-0.1-5.6-1.6-9c-5.5-12.8-15.4-14.6-27.5-9.4
		c-3,1.3-11.8,7.8-15.3,4.3c-2.4-2.4,2.1-12.5,3.1-15c4.1-9.5,10.7-25.2,3.5-35c-2.9-4-6.3-6.1-10.2-8.7
		c-26.8-17.1-26,19.1-45.6,27.5c-6.3,2.7-17.6-12.9-23.6-3.9c-1.4,2.2-0.2,5.5-0.8,7.9c-1.6,7.1-6.4,13.2-10.2,19.3"/>
	<path class="st23" d="M1024.4,466.8c0-5.9-8.4-3.1-11-4.8c-1.7-1.1-3.2-18-7.6-20.9c-14.6-9.7-16.2,8.9-23.3,10.3
		c-5.2,1-10.7-2.3-15.8-1c-4.9,1.2-12.9,8.3-15.1,12.7c-0.8,1.6,0.8,3.4,1.7,4.5c2.2,2.7,3,6.4,6.9,7.2c4.6,0.9,15.6-3.8,17.2,4.1
		c0.8,4,2.7,10.4,1.7,14.4c-1,3.9-8.6,12-5.8,16.1c9.7,14.6,25.2-3.3,29.8-1c1.4,0.7,2.2,15.4,6.5,18.9c5.7,4.6,18.3,3.1,25.1,2.1
		c1.2-0.2,4.9-2.1,6.2-1.4c3.2,2,1.7,10.5,8.2,7.5c10.2-4.7,32.4-30.2,23-41.5c-6.4-7.7-18.4,1.1-21.3-10.3
		c-3.5-14.1,4.9-37.8-12-46.3c-6.9-3.5-9.1,16.7-16.8,19.2c-2.9,1-10.4,3.3-13,0.7c-0.5-0.5-2.5-10.3-3.4-5.5"/>
	<path class="st24" d="M1123.9,481.9c1.7-13.8,7.3-22.2-3.8-33.3c-2.2-2.3-7.5-3.8-10.6-2.7c-6.6,2.2-17.8,12.3-19.2,18.9
		c-1.2,5.4,1.5,10.4-3.4,14.8c-3.5,3.1-8,3.9-11.3,6.5c-3.5,2.8-4.7,7.3-7.9,9.9c-6,5.1-15.9,7.9-19.9,15.1
		c-7.6,13.6,7.2,8.2,10.6,18.5c3.8,11.5-10.8,33.9,3.8,41.9c6.9,3.7,16.8,0.3,24,3.4c3.1,1.3,2.7,8.2,4.8,11
		c4.4,5.7,12.3,7.5,19.2,8.2c10.2,1,35.8-5.9,35-18.9c-0.5-7.8-10.6-14.4-5.5-23c6.6-11,16.5-7,26.4-10.6
		c11.8-4.3,26.1-18,27.8-30.9c1.3-9.9-2.1-28.7-13.7-32.6c-7.5-2.5-15.7,4.9-23,3.1c-3.6-0.9-3.4-4.9-6.2-6.5
		c-2.9-1.7-6.8-0.2-9.9-1.7c-5.6-2.6-6.7-18.4-8.6-18.2c-9,1.3-15.2,10-20.9,16.1"/>
	<path class="st25" d="M729.6,381.7c0,7.9,5.2,14.1,5.3,23.3h-0.2c0.1-9.7-5.3-14.8-5.3-23.3"/>
	<path class="st25" d="M732.1,420.6c-1.4,8.3-0.7,14.4,7.6,18.8l0,0c-8.7-4-9.4-10.7-8-19.1"/>
	<path class="st25" d="M757.3,452.8c13.7,11.1,16.4,1.3,28.9-2.8l0.1,0.1c-12.7,4.3-15.2,14.2-29.3,3"/>
	<path class="st25" d="M796.2,453.2c5.3-2.6,8.6-3.4,14.2-4.6l0,0.2c-5.3,1.5-8.8,2.5-13.9,5.1"/>
	<path class="st25" d="M835.1,448c6.6-3.9,11.2,15.2,29.5,0.4l0.4,0.6c-18.5,22-22.5-3.6-29.7-0.6"/>
	<path class="st25" d="M874.4,436.8c11.9-9.7,21.6-15,31.1-28.6l1.1,0.4c-5.7,17.1-18.4,19.8-30,29.6"/>
	<path class="st25" d="M919.9,389.2c-1-22.9-15.5-14.2-30.3-10.4l0,0c13.1-5.4,33-15,31.8,10"/>
	<path class="st25" d="M876.6,353.1c-0.4-16.7,15.5-30.7-8-37.9l0.1-0.8c26.2,1,9.9,24.7,9.5,38.8"/>
	<path class="st25" d="M858.2,293.6c-3.7-1.7-10.5-6.1-14.7-4.2c-1.8,0.8-0.4,4.2-2.9,4c-5-0.4-9.8-6.1-15.5-6.7v-1.1
		c3.6-0.3,17.6,0.9,14.8,6.8c-1,2,1.5-4.9,3.6-5.7c4.7-1.7,11.8,3,15.4,5.5"/>
	<path class="st25" d="M812.7,275.5c-19.1-5.6-14.7-8.3-27.2,10.8L785,286c9.5-20.5,8.8-20.4,28.1-11.5"/>
	<path class="st25" d="M765.3,298.7c-7.1,3.7-15.4,5.9-23.2,3c-0.3-0.1-3.1-0.8-3.5-0.3c-4.2,5.4,6,14.1,3.6,17.1
		c-5.7,6.9-14.7,7.4-18.8,16.8l-0.6-0.3c2.8-9,9.7-14.9,18.6-17c2.7-0.6-3.6-4.3-4.9-6.8c-1.7-3.3-2.9-7.9-0.6-11.2
		c1.2-1.6,21.3,0.3,28.4-3.2"/>
	<path class="st25" d="M725.9,354.1c0.9,11.3,9.8,10.6,5.8,23.8l-0.7-0.1c3.1-12.8-6-12.2-6.8-23.7"/>
	<path class="st25" d="M869.5,393.5c-2.7,14.3-6.6,25.6-23.2,27c-5,0.4-7.5-5.2-6.5-9.5c0.5-2,2.7-7.8,1.8-5.9
		c-7.2,14.6-9.9,5.8-11,6.6c-9.6,6.7-6.5,10.6-19.1,10.3c-2,0-5.6,1.1-7.5-0.3c-5.1-3.7-0.2-12.5,4.1-14.6c2.7-1.3-2.9,7.2-3.1,5.1
		c-0.6-5.3,4.4-9.2,7.7-12.5l0.8,0.6c-2.2,2.8-3.8,6-6.1,8.7c-0.7,0.8-2.9,1-2.4,1.9c0.8,1.5,5.5-3.6,4.1-2.8
		c-14.5,7.5,2.1,15.8,11.3,12c3.9-1.6,4.8-6.9,8.2-9.3c4.6-3.2,4.3,2.5,4.8,2.2c3.5-1.6,4.5-8.5,8.9-8.3c2.5,0.1-1.7,10.1,0.6,12.7
		c1.7,1.9,5.6,0.4,7.5-0.2c13.3-4.1,13.9-12.4,17.8-24.6"/>
	<path class="st25" d="M844.7,380.2c0.6-0.8,1.1-1.6,1.7-2.3c6.9-9.1-2,2.1,1-6.5c0.4-1.1,11.2-14,6.9-15.1
		c-3.2-0.8-7.5,2.4-8.7-3.4c-0.9-3.9,2.4-7.7,2.1-11.8c-0.5-7.7-10.1-11.8-14.6-17.4c-3.4-4.3-3.4-12.8-8.8-15.3
		c-6.9-3.1-19.7,4.9-19.8,12.2c-0.1,9.1,11.3,2.3,13,5.7c3.3,6.8-23.1,27.9-12.5,33.1l-0.2,0.3c-13.2-5.6,11.9-26.2,12.5-32.1
		c0.1-1-2-0.9-3-1c-6.6-0.5-12.6-2.2-10.8-10.4c2-9.1,18.6-14.7,25.4-7.6c3.5,3.6,21.3,28.7,21.7,32.9c0.3,3.8-3,7.7-2.3,11.1
		c0.9,3.9,7.6-0.5,8.3,4.3c0.6,4.4-3.2,13.4-7.3,15.7c-0.9,0.5-3.4-0.2-2.9,0.6c2.5,3.6,5.6-0.9-1.1,7.8"/>
	<path class="st25" d="M776.9,332.3c-1.2,4.3,1.3,13.7-0.7,17.2c-2.5,4.4-8.9,4.4-12.7,7.4c-3.9,3.2-11.1,16.2-12.5,20.5
		c-4,11.7,11.3,2.2,10.9,10.4c-0.2,3.9-3.8,7.5-4.9,11.2c-2.4,8,1.9,8.2,1.9,10.3c0.1,5.5-4.6,30.3,13.2,17.4
		c3.7-2.7,6.7-6.2,10.6-8.7l0.8,1c-3.8,2.9-7.1,6.5-11,9.2c-2.7,1.9-7,2-10.1,1.8c-12.3-0.9-3.8-15.2-4.1-20.7
		c-0.1-1.3-3.1-0.2-3.5-1.4c-1-3.1-0.4-6.7,0.4-9.8c1-3.6,4.9-7.3,5.4-10.9c0.4-3.4-16.9,2.6-12.3-11.3c0.6-1.8,12-20.8,13.6-22
		c1.6-1.3,10.9-4.3,11.1-4.9c1.5-5-3.5-16.5,5.2-17.7"/>
	<path class="st25" d="M782,371.8c-9.2,15.1,6,5.4,12.1,8.8c4.6,2.6,1.1,8.1,3.6,10.7c1.6,1.6,4.1-2.1,5.9-3.5c3.5-2.6,7-3.9,11-5.5
		l0,0.1c-5.8,2.8-11.1,9.2-17.5,10.5c-5.8,1.2-2-8-3.5-10c-2.6-3.5-26.8,7.4-13.6-12.5"/>
	<path class="st25" d="M819.8,359.5c0.2-2,0.3-4.7,1.2-6.6c5.8-12.3,7.5,10.2,8.1,11.3c1.1,2.3,5.1-0.5,7.6-1.1l0.2,0.6
		c-17.9,7.9-8.6-21.9-14.3-4"/>
	<path class="st25" d="M789.1,315.8c-1.9-3.3-11.7-15.3-16.1-14.4c-21.2,4.4-9.1,22.1-9.4,22.7c-2.3,4.2-13.5,16.4-18.1,17.9
		c-5.3,1.7-5.2-8-0.2-2.8c0.1,0.1-3.3,26-3.3,27.7l-1.2,0.1c-7.3-26.1,5.8-30,20-43.8c1.6-1.6-4.6-1.7-5.5-3.8
		c-2-4.5,1.9-9.6,4.3-13c11.1-15.4,27.6-8.2,31,9.1"/>
	<path class="st25" d="M726.7,348.3c-1,0.9-8.1,13.1-5.1,14.4c1.1,0.5,5.1-2.4,8-0.4c7.3,5,3.2,21.4,2.2,27.3l-1-0.2
		c-0.1-3.3-2.2-22.8-3.4-23.8c-3-2.5-7.6,2.3-10.5-2.4c-3-4.9,4-15.2,7.4-17.9"/>
	<path class="st25" d="M740.4,400c-0.1,9.5-9.3,12.8-11.9,21.1c-1.1,3.7,8,4,9.9,7.8c3.6,7.3-0.6,11.1,7.2,15.9l-0.3,0.6
		c-2.4,0-5.9-1.1-7.7-2.7c-3-2.7-0.8-10.3-3.3-12c-3.9-2.5-11.1-4-10.2-9.9c1.3-8.8,11.5-12,13.4-20.1"/>
	<path class="st25" d="M764.6,451.5c-0.2-3.4,1-6.1,3.1-8.8c6.4-8.2,6.5,14.5,13.5,10.9c5.5-2.8,13.7-16,20.8-15.4
		c3.2,0.2,2.8,11.6,4.1,8.6c2.2-5.3,13.3-10.8,19.6-7.3l0,0.3c-9.3-1.7-13.8,9.7-22.1,10c-6.4,0.3-0.6-7.7-0.1-8.4
		c1-1.5-3.4,1.3-5,2.2c-1.3,0.7-2.5,1.6-3.5,2.6c-4.1,3.7-8.3,9.9-14.2,11c-9.7,1.8-10.5-23.7-14.2-6.2"/>
	<path class="st25" d="M869.4,422.7c2.8-1.5,16.2-11.8,14.8-16.9c-0.4-1.6-7.1,6.3-5.6-2.4c1.2-7.5,10.4-13.3,7.7-21.7
		c-3.9-12.2-24.1-9.3-22.3-12.4l0.3,1.2c-5.1-1.9,21.1-7.3,25.6,11.2c1.8,7.4-3.4,20.4-9.7,22.2c-1.8,0.5,3.8,0.5,5.5,1.3
		c1.2,0.5,0.3,3.4,0.1,4.1c-2,7.1-9.7,14.6-15.9,17.5"/>
	<path class="st25" d="M864.6,350.1c-1.8-4.4-6.6-8.3-6.7-13.3c-0.2-7.4,4.1-15.6-2.2-22.2c-2-2.1-6.2-0.7-8.1-3
		c-2.5-2.9,1.8-11.5-0.2-12.4c-7.5-3.2-30.1,8.4-32.3-4.8l1.1-1c8.5,6.5,21.8-2.1,31.2,2c9.3,4.1,2.6,7.4,2.7,11.4
		c0,1,9.9,4.8,11.3,7.4c3.4,6.7,4.9,27.9,5.3,35.3"/>
	<path class="st25" d="M801.6,290.1c-21.9,13.4-3.2,14.1-1.7,25c0.6,4.2-3.6,11.1-4.5,15.4c-0.2,1.1,0.8,5.5,0.3,6.1
		c-3.7,5-9.8,4-12.6,10.2c-3,6.5,0.1,11.8,3.8,17.3l-0.8,0.8c-4.6-4.8-7.9-8.6-8.4-15.7c-0.4-5.2,4.8-11.6,9.6-13
		c1.6-0.5,4.5,2,5,0.4c2.1-5.8,0.4-13.6,3.4-19.7c0.3-0.6,0.1-1.3,0-2c-1.4-5.9-10.1-5.7-8.6-13.6c1.1-5.8,8.2-14.1,14.5-14.4"/>
	<path class="st25" d="M527.6,349c-1.1,2.4-6,7.2-5.4,10.1c0.1,0.5,10.4,0,9,6.6c-0.8,3.8-2.7,8.1-4.4,11.7c-1,2.2-4.9,8.1-3.9,6
		c7.1-14.1,8.3,0.8,14.9,3.5c2.1,0.9,10.5-0.7,11.2,1.6c2.2,7.1-14.9,24.8-2.7,27.6l-0.7,1c-15-5.4,3.8-26,2.4-26.7
		c-3.5-1.7-8.2,0.6-12.1-1.3c-1.7-0.8-6.6-9-7.3-8.9c-3.2,0.3-3.7,3.3-7.7,2.6c-1.2-0.2,1.3-2.1,1.9-3.1c2.2-3.3,6.2-10.4,6.5-14.3
		c0.6-8.1-12.1-0.7-6.2-11.3c1.5-2.6,2.5-4.1,5.5-5"/>
	<path class="st25" d="M568.4,423.6c-0.9,6.3,5.4,2.3,5.9,8.2c0.3,3.1-2,5.2-2.7,8c-0.2,0.7-0.3,2.4,0.3,2c3.3-2.2,10-8.9,13.7-2.3
		c1.5,2.7-1.3,22.1,1.9,22.8c1.5,0.3,3.5-0.8,4.6,0.4c2.2,2.3,2.9,4.6,6.4,5.3l-0.2,0.7c-8.5-0.3-15.8-5.8-16.2-13.8
		c-0.1-1.5,1.4-15,0.7-15.2c-4.1-1.2-8.4,4.4-13.1,3.4c-5.6-1.2,2.3-9.3,2-11.3c-0.9-4.8-8.5-1.3-5.7-9.2"/>
	<path class="st25" d="M610.5,444.4c-10.7,1.5-7.3-25.1-5.7-25.8c4.3-1.9,3.7,5.3,8.5,4.7c3.4-0.5,5.7-7.1,8.9-8.8
		c6.2-3.3,3.8,5.3,3.8,0.7c0-4.8,16-24.3,14-19l-0.8-0.4c3.7-0.6-8.3,23.4-13.2,23.8c-3.9,0.3-4.3,4.9-11.8,6.4
		c-5.8,1.1-8.1-2.5-6.3-6.2c0.4-0.9,0,2,0,3c0.1,2.5,0.1,3.1,0.2,5.8c0.2,4.7-1.1,12,0.8,14.6"/>
	<path class="st25" d="M610.7,378.9c-1.1,1.2-12.1,15.9-14.5,13.6c-2.7-2.6-0.9-11.9-4.7-13.3c-4.4-1.6-14,14.3-20.3,7.6
		c-5.4-5.7-2.9-37.2-12.7-24.2l-0.6-0.5c10.1-18.2,15,10.9,15.1,18.8c0,0.1-0.9,2.2-0.3,2.6c4.2,2.8,14.7-8.2,20.5-7.1
		c9.3,1.7,1.7,15.7,3.1,12.7c1.4-2.9,3.2-5.6,5.6-7.8c1.6-1.5,3.8-2.4,5.7-3.5"/>
	<path class="st25" d="M540.1,353.9c8.7,7.6,20.4,18.5,21,30.6c0.2,4.1-2.5,11-1.7,15c0.2,0.9,12.3,2.2,14.1,3.8
		c2.2,1.9,5.3,5.5,5.4,8.5c0,0.2-0.6,5.2-0.2,5.4c0.7,0.3,1.1-2.9,1.2-3.2c0.2-0.8-2.5-1.8-1.8-1.6c1.9,0.4,4.1-0.1,5.8,1
		c1.9,1.2-1.6,4.4-1.1,6.5c0.8,3.2,7.2,1.2,9.1,3.8c4,5.7,2.5,20.2,10.3,11.4l1,1.1c-10.7,16.1-11.1-5.7-14.9-11
		c-2.4-3.3-8.1-1.1-10.1-5.2c-4.8-9.9,11.3-10.4,0.7-2.8c0,0-0.6-6.7-0.8-7.3c-0.6-1.8-3.5-5.3-4.7-6.5c-9-8.6-15.3,4-14.8-10.8
		c0.1-3.2,0.6-3.9,0.3-7.6c-0.9-12-26-26.9-18.4-32.5"/>
	<path class="st25" d="M585.1,409.2c12.3-28,15.1-4.8,25.9-1.4c0.5,0.1,7.5-10.2,8.5-10.8l2.1,1.4c-1.3,3.9-3.7,8.8-6.5,12.1
		c-8.4,9.8-12.2-7.5-16.7-8.3c-4.1-0.7-7.2,4-9.9,6.3"/>
	<path class="st25" d="M954.8,367.4c-2.3,2.6-4.7,4.8-7.2,7.2l-0.3-0.3c2.5-2.5,4.9-5.1,7.2-7.8"/>
	<path class="st25" d="M946.2,386.7c-0.7,5.3,5.4,14.7,10.1,16.3c0.5,0.2,2,0.9,1.9,1.6c-1,5.9-11.9,9.6-9.5,16.6
		c1.8,5.3,13.2-2.1,16.3-0.6c4.7,2.3-1,6.6,0.6,9.5c0.7,1.4,4.5-9.6,9.2-8.7c4,0.7,2.5,7.1,7,8.1l-0.4,0.5c-4.3-1.2-3.5-5.9-5.3-6.9
		c-0.7-0.4-12.5,14.4-14,6.3c-0.4-2.2,3.5-5.4,3.3-6.2c0-0.1-4.1,0.8-4.2,0.9c-4.7,1.4-11.4,4.2-15-1.1c-3.1-4.4,1.8-10.6,4.6-13.5
		c1.6-1.6,7.6-1.7,5.9-3.2c-5.7-5.1-12.6-9.5-12.2-19.6"/>
	<path class="st25" d="M1005.3,401.8c7.4-1.5,17.4-10.4,23.9-10.6c1.5,0,2.1,4.9,2.7,3.5c1.4-3.4,3.6-5.2,7.2-7.8
		c1.4-1,13.2-12.8,8.6-14.5c-15.5-5.6-11.1,14-23.7,13.9c-6.4-0.1-4-8.5-8.2-10.4c-3.2-1.4-8.1,3.2-10-1.6
		c-1.7-4.3,1.4-10.4-3.4-13.7c-3.3-2.2-24.4,4.8-25.9,8.4l-0.9-0.5c2.4-7.5,19.3-14,27.7-11.1c6.1,2.1,4.3,15.6,5,15.9
		c12.1,4.6,4-4.5,14,9.1c4.9,6.5,16.3-27.9,27.6-10.4c3.9,6-7.9,15.8-11.8,19c-1.9,1.6-23.6,11.4-32.6,13.2"/>
	<path class="st25" d="M959.5,373.3c2.6-7.9,2,9.6,2.3,10.8c0.7,2.8,10.1-3.1,12,1.7c1.5,4-3.7,15.1-0.6,17.6
		c0.2,0.1,23-4.6,23.5-5.3c1.4-1.9-1.3-4.7-1.8-6.4l0.8-0.5c9.1,13.2-22.3,16.1-24.8,14.2c-5.5-4.1,1.8-14.4,1.5-19.1
		c-0.2-4.2-9.8,2.1-12.6-1c-3-3.3,3.5-15.6,0.9-11.9"/>
	<path class="st25" d="M985.5,378.5c5.6-1.8,2.8-1.5,6.2,0.3c1.4,0.8,4.6-1.7,4.9-0.1c1.8,9.3-17.2,20.1-6.8,7.1l0.7,0.4
		c-9.3,16.9-0.7-12.1,6.9-4.5c0.1,0.1-0.4,0-0.5,0c-5.5,1.1-7.6-1-10.3-5.3"/>
	<path class="st25" d="M1197.7,546.8c-3.2,11.2-14.4,14.2-22.9,10.9c-0.4-0.2,0,1.2,0.5,1.3c0.3,0.1-10.9,5.5-9.7,9.1
		c0,0.1,13.5,5.9,6.7,14c-3.2,3.7-9.2,3.7-12.1,7.5c-0.7,1,0.6,5.5-2.6,7.6c-4.4,2.9-11-1.6-14.7,1.9c-5.1,4.7-3,7.2-0.3,11.3
		c1,1.6,2.5,7.1,2.5,5.2c-0.1-2.7,3.7-2.1,5.6-0.8l-0.3,3.1c-2.7,8.4-29.8-8.2-12.1-23.7c3.5-3,9.8-4.2,14.2-2.2
		c0,0,0.8,1.6,0.9,1.4c4.7-12.6,8-7.5,12.8-14c4.1-5.7-16.5-8.8-0.6-22.9c13.6-12.1,12.2,5.2,29.4-11.6"/>
	<path class="st25" d="M1159.1,623.7c0.2-2.2,4.6-12.8,8.8-8.7c2.9,2.8,2.3,4.8,2.1,8.3c-0.1,1.6-1,5.7,0.2,4.7
		c1.5-1.5-2.4-2-1.8-3.9c1.3-3.8,3.4-7.6,5.1-11.2c0.8-1.8,2-7.7,1.1-5.9c-4.3,9.3,8.1-24.1,6.9-20.5c0,0-3.8-7.3-1.5-11.6
		c12-22.5,7.6,6.2,23.4-9.1c9.3-9-13.7-2.9-0.7-17.1c5.5-5.9,6.9,8,7.1,9.8l-1.2,0.3c-0.6-1.2-1.3-2.4-1.9-3.6
		c-4.5-9.4,6.2,4.4-4.1,0.5c-1.3-0.5,5.1-1.3,8.5,3.5c2.5,3.5-2.6,9.1-4.8,11.2c-3.8,3.6-14.2,10.4-18.2,3.1
		c-0.3-0.5-1.1-3.4-0.4-4.1c1.1-1,2.9,0.6,4.3,0.4c0.2,0-7.1,4.6-9.3,10.8c-0.1,0.4,4.2,4.6,4.3,6.5c0.2,3.2-5.1,9.5-6.5,12.2
		c-1.1,2.2,0.2,7.9-2,7c-1.2-0.5-1.6-2.1-2.8-2.6c-2.1-0.9,4.9,2.7,4.6,4.9c-0.9,6.1-5.2,18.9-10.9,22c-5.7,3.1-6.5-9.3-3.9-11
		c4.9-3.2-2.6,3.4-3.7,4.5"/>
	<path class="st25" d="M1224.2,547.2c16.1-1.3,0.5,12.3,7.2,16.8c2.1,1.4,7-5.3,11-1.5c2.7,2.6,1.6,6.2,1.4,9.4
		c-0.1,1.5,0,5.9,0.4,4.5c0.9-3.5,10.9-16.8,16.7-9.1c2.2,3-0.8,9.2,0.8,12.7c3.2,6.9,10.7,11.6,4.5,21.9
		c-7.8,12.8-16.1-2.5-24.8,0.9c-6.9,2.7,4.7,20.8-2.1,25c-4.2,2.6-6.7-0.8-8.9-3.9c-0.6-0.9-2.7-3.4-1.9-2.6
		c1.4,1.5,3.8,0.4,4.8,1.1c1,0.7,0.8,11.8,1.7,13.7c2,3.9,7.1,6.5,6.4,11.7c-1,7.4-12.1,7.4-17.5,10.5c-5.2,3.1-8.4,10-11.1,15.2
		l-0.9-0.3c0.3-11.5,6.8-25,19.2-26.9c1.3-0.2,2.4,3,3.3,1.9c0.5-0.6-0.3-1.6-0.8-2.3c-4.9-7.2-9.6-17.2-6.7-26.3
		c1.1-3.4,4.1-5.8,7.5-3.2c4.2,3.2-1,6.8,0.3,8.1c0.6,0.6-0.4-6.8-0.5-7.1c-0.9-2.9-2.8-5.7-1.5-8.9c2.1-5,2.6-11.2,9.4-12.9
		c4.4-1.1,14.9,6.8,17.6,3.6c6.5-7.9-2.9-12.1-4.4-18.6c-0.2-0.9-1.1-9.9,0-10.2c1.2-0.4,5-0.4,3.9,0.1c-14.6,6.7-23.6,20.4-18.7-3
		c0.3-1.4-3,0.3-4.3,0.9c-3.9,1.7-8,1.8-10.7-2.1c-4.7-6.7,4.8-13,1.4-17.3"/>
	<path class="st25" d="M1183.7,629.1c-2.2,1.1-1.3,6.1-1.9,8.7c-3.1,12,0.9,10.9,10.6,11.2c1.4,0,4.5,0.1,5.6-1.3
		c0.1-0.1-5.4-5.1-5-6.9c2-9.5,21.5-12.4,23.1-22.3c0.3-1.8-20.9,4.9-16.8-9c1-3.4,32.2-37.3,26.3-24.7c-1.2,2.6-5-4.1-5.1-7
		c-0.6-11.1,5.9-17.7,1.8-4l-1.3-0.3c0.8-4.4-0.8-8.7,5.1-8.5c2.9,0.1-1.1,12.7-2.7,14.3c-0.9,0.9,2.6-1.2,3.7-0.7
		c2.9,1.3,4,3.8,2.3,6.1c-5.3,7.2-12.7,12.3-18.9,18.7c-2.1,2.1-3.6,4.8-5.8,6.8c-0.9,0.7-3.7,0.9-2.9,1.7c4.4,4.3,19-3.7,19.9,7.5
		c0.6,7.7-14.6,15.9-19.5,20.2c-1.3,1.2-6.8-1.5-5.3-0.5c4.4,2.7,9.7,10,3.4,14.5c-3.9,2.7-10.4,2.1-14.8,1.9
		c-17.8-0.8-6.4-30.5,0.6-27.3"/>
	<path class="st25" d="M1206.7,590.1c11,25.2-32.4,2.2-11.1,29.3c2.2,2.8,0.2,0.8,6.4,2.7l0.7,4.3c-3.8,0.3-5.2,2.4-9.3,1.6
		c-4.8-0.8-14.3-18.8-10.9-23.4c4.6-6.1,22.5-4,19.8-12.9"/>
	<path class="st25" d="M668.7,304.4c-3.1-1.4-7.4,10.4-5.2,14.4c2.6,4.6,11.7-2.4,9.5,8.6c-1.1,5.5-13.4,13-13.4,13.1
		c-0.1,1,0-2.6,1-2.9c1.8-0.4-0.4,3.8-1.1,5.6c-1.2,3-3.6,8.3-1.8,11.4c2.1,3.6,13.6,0.6,15.6-1.5c1.9-2-5-3.9,1.8-5.6
		c3.9-1,7.1,1.3,10.8,1.2l0.1,0.7c-1.5,0.9-8.4,2.4-10.1,1.8c-0.9-0.3-1-3.8-0.8-2.9c2.5,10-14,17.4-20.3,8.4
		c-10.3-14.7,12.2-20,15.3-29.6c2.6-8.2-9.3-2.1-9.6-10.5c-0.1-3.9,4.6-18.7,9.1-13.1"/>
	<path class="st25" d="M695.2,342.9c5.9-7,19.8-13.1,22.1-19.7c0.9-2.6-2.3-12.6-0.2-13.7c5.1-2.5,13.8,0.8,13.4-8.3
		c-0.2-6.2-14.4-13.1-19.8-11c-3.6,1.4,1.6,16.7-5.1,17.7c-2.7,0.4-4.9-2.1-7.3-1.6c-4,0.8-7.4,5.2-12.2,3c-2.6-1.2-3.7-8.1-5.4-8.5
		c-0.4-0.1-0.3,1,0,1.2c0.6,0.3-1,13.4-0.3,16.8l-1,0.4c-2.7-4.6-6.7-20.5,2.1-22.1c5.8-1.1,3.5,5.8,4.8,7.7
		c2.1,2.9,10.6-2.9,12.9-3c1.9-0.1,3.9,4.5,5,2.9c5.1-7.1-2.3-21.8,11.8-18.4c8.2,2,26.9,11.2,16.9,22.3c-4.6,5.1-13.4,8.7-12.6,1.6
		c0.1-0.7,0.3,1.3,0.5,1.9c0.8,3,0.9,4.2,0.8,7.5c-0.2,5.3-4.2,12.9-10.1,13.9c-0.6,0.1-5.4-2-4.1-2.6c13.1-6.1-9.3,13.7-9.3,13.7"
		/>
	<path class="st25" d="M677.8,332.7c-6.4,14.9,17.1-1.9,22.8-1.6c1.3,0.1,2.5,4.4,1.7,3.4c-4-5.1,2.4-8.8,1.9-14.9
		c-0.4-5.1-9-2.4-11.7-0.6c-1.6,1-6.9,1.1-5.2,1.9c5.5,2.5-2.9,5.4-2.8,6.7l-0.9,0.1c-1.8-5.1,13.8-24.8,23.4-10.3
		c1.8,2.8-1.4,17.2-5.1,17.6c-7.2,0.7-0.3-0.9-1.5-0.8c-7.7,0.5-15.2,9.6-23,7.7c-6.7-1.6-4.2-7.1-0.9-11"/>
	<path class="st26" d="M843.4,1692.7c-2.2,4.1-35.8-29.2-20.4-33.2c17.5-4.6-12.7,9.9,19.6,32.1c4.8,3.3-0.7-12.8-3.3-17.3"/>
	<path class="st26" d="M856.7,1687.1c-2.7-6,7.3-8.1,12.8-11.8c29.6-19.6,25.2,15.3,5.1,16c-6,0.2-19.1-5.2-16.7-5.2
		c7.5,0.1,12.8,3.7,19.4,2.1c7.5-1.8,8.1-9.6,11.5-14.8"/>
	<path class="st26" d="M834.9,1701.3c-9.5-8.6-34.9-5.6-45.1,4.8c-1.6,1.6,4.6-1.5,6.8-1c5.3,1.3,10.6,2.5,16.1,1.8
		c8.6-1.1-8.8-24.4,22.4-5.9c5.9,3.5-15.5,7.4-22.5,8.3"/>
	<path class="st26" d="M864.2,1705.1c-15.5,5,46.7,45.1,22.4,17.5c-1.8-2-4-3.6-6-5.5c-10.5-10.4-39.2-3.1-16.3-13.2
		c14.6-6.4,8,0.8,18.8,10.9c5.2,4.8,9.1,9.1,12.5,15.2"/>
	<path class="st26" d="M687,1874.5c-3.8-0.1-5-42,1.7-42.2c3.7-0.1,8.1,25.9,7,29.4c-1.4,4.1-13.8,3.3-8.5,12c2,3.2,5.1-8.3,6-12
		c1.4-5.5-2.7-12.4-3.3-17.8c-0.4-3.4,3.5-9.5,0.2-10.1c-0.5-0.1-1.4,2.2-1.7,2.6"/>
	<path class="st26" d="M707.7,1866.6c4.4-4,27.6-19.4,26.6-3.6c-0.2,3.1-0.5,6.9-2.8,9.2c-7.1,7.2-19.4-1.7-26.9,5.7l-1.1-1
		c7.6-12.2,16.3-0.4,25.2-6.4c2.3-1.5,2-5.2,2.2-7.5c0.8-10.5-15.2-0.3-21.5,5.4"/>
	<path class="st26" d="M688.6,1898.8c-5.3,0.5-10.4,13-13.4,17.5c-1.4,2.2-3,4.8-4,7.1c-0.4,1-1.1,4.2-0.8,3.1
		c0.1-0.3,14.1-32.5,18-27.5c2.9,3.8-3.4,8.7-4.5,13.5c-0.8,3.4-13.7,22.9-17.4,14.6"/>
	<path class="st26" d="M699.8,1915.5c-5.9,1.1-3.4,9.1-4.7,14.7c-0.9,3.8-1.8,7.5-2.2,11.4c-1.3,11.3-6.7,11.8,3.3,6.7
		c7.7-3.9,7.4-35.8,7.4-35.8c0.8,8.7,5.2,23.1,2.2,31.5c-1.6,4.5-16.9,15.8-19.3,8.4c-2.1-6.5,6.3-29.2,8.8-35.3"/>
	<path class="st26" d="M724.2,1897.9c18.2,18.3,54.9-4.3,19.8-3.1c-3.3,0.1-6.2-0.3-9.6-0.1l-0.2-2.9c4-0.8,36.6-0.8,28.1,10.8
		c-8.4,11.4-33.3,5.7-40.6-3"/>
	<path class="st26" d="M991.8,1894.9c-27-19.3-9.5-68.8-1.5-21.9c0.7,4,4.1,8.6,4.1,12.2c0,0-4.8,9.4-2,4.5
		c3.3-5.7-3.8-7.1-4.4-12.9c-0.4-4.2-0.6-8.5-1.4-12.7c-2-10.2-9.2-13.7-9.2-0.4c0,6.9,5.1,13.7,8.3,19.3"/>
	<path class="st26" d="M1003.6,1880.6c1.9-3.1,23.5-20.3,26.1-18.8c4.7,2.7-2.5,19.3-5.5,22.4c-5.3,5.4-14.5,3.8-20.9,7.6l-0.7-0.9
		c5.9-7,16.1-4.2,21.1-11.2c2.6-3.7,2.4-16.9,7.7-16c1,0.2-1.6,1.1-2.5,1.6c-2.8,1.7-5.8,2.3-8.9,3.4c-6.4,2.2-10.9,6.6-14.1,12.5"
		/>
	<path class="st26" d="M976.5,1901.1c6.2,1.1-21.2-6.1-26.1-12c-5.8-7-1.3-20.2,7.9-13.9c9.9,6.8,27,20.7,17.7,25.3
		c-7.5,3.6-6.2-5-9.7-11c-1.5-2.7-14.5-21.7-17.8-9.7"/>
	<path class="st26" d="M1000.1,1899.5c36.6-8.2,34.1,37.5,8.1,21.8c-7.8-4.7-13-12.3-21-16.4l0.2-1.3c8.3-4,17.6,12.5,24.5,15
		c3.8,1.4,13.1-3.1,14.1-2.4c0.1,0.1,0-0.3,0-0.4c-0.1-3.5-2.5-7.1-5.4-8.9c-5.9-3.6-12.6-6.5-19.4-4.9"/>
	<path class="st26" d="M973.9,1914.3c4.7-6.1-9.3-15.6-18.1-16.3c-2.9-0.2-23.5,5-17.9-0.9c6.8-7.3,39.3,12.9,36.6,17.2
		c-16.4,25.7-27.4-18.3-37.4-16.7c-1.3,0.2,2.7-0.2,4-0.3c2.6-0.2,4.9-0.8,7.4-1.3c6.6-1.3,12.6-0.1,17.8,4.2"/>
	<path class="st26" d="M985.4,1922.6c-9.4-1-1.5,17.6,6.1,22c2.7,1.5,14,1.1,13.8,0.9c-4-3.2-8.5-3.4-12.6-10.7
		c-2.8-4.9-1.6-11.9-1.6-11.9c2.1,5.5,5.6,14.8,10.4,18.7c1.7,1.4,5.8,1.2,6.3,3.9c3.4,19-50.1-16.2-25.9-24.1"/>
	<path class="st26" d="M954.2,1933.9c-8.7,6.1-24.1-6.2-27.3-17.8c-1.2-4.2,1.8-14.2,8-10.5c4.2,2.6,6.7,10.9,10.5,14.4
		c4.7,4.3,6.7,17.9,8.3,13.7c1.8-4.8-6.5-7.7-10.5-10.9c-4.8-3.8-4.3-16.1-10.3-15.1"/>
	<path class="st26" d="M959.8,1942.4c-1.8,23.7,36.5,18.3,8.5,4.4c-2.9-1.4-25.6,24-9.4-5.3c1.6-2.8,8,1.4,11.2,2.9"/>
	<path class="st26" d="M989.7,1718.1c-7.9,0.5-7.7-9-8.6-16.4c-3.4-28.8,20.4-19.7,13.1,5.4c-1.3,4.4-30.7-5.7-4.4,10.3
		c3.7,2.2,0.9-8.4,2-12.6"/>
	<path class="st26" d="M1002.1,1717.7c1.5,0,41.2,1.2,23.6,13c-9.3,6.2-20.2,1.9-29.6,1.1l0.6-2.1c8.8-0.5,18.2,3.5,27.3-0.5
		c1.6-0.7,2.2-2.4,1.9-4c-1.2-8.2-19-5.6-23.9-5.7"/>
	<path class="st26" d="M972.2,1724.5c-22.1-29.3-15.9,0.2,8.5,2.1l-0.4,1.1c-35.5,2.1-27.5-40.2-6.9-4.4"/>
	<path class="st27" d="M986,1738.6c-8.9,6,10,29.4,9.7,19c-0.1-3.3-1.9-6.5-2.9-9.6c-1.5-5.1-27.1-0.5-7.1-10.4
		c6.3-3.1,8.2,2.9,10.2,9.3"/>
	<path class="st25" d="M707.3,1824.3c0-2.7-0.3-6.3,1.4-8.7c3.5-5.2,8.4,6.6,4.1,8.7c-0.3,0.1-0.8,0.5-0.9,0.3
		c-2.8-4.4,15.9-17.7,12.9-0.7c-0.4,2.1,1.2,4.3,0.3,6c-0.8,1.5-6.3,2.5-8,5c-0.4,0.6-0.6,2.8-0.5,2.1c0.1-1.3-1,0.5-2.8-0.8
		c-4.2-3-0.9,3.7-6.8,1.6c-2.4-0.8-8.9-14.9-8.6-17.5c0.7-5.2,12.4-3,13.4,0.2c0,0-4.3,2.4-2.1,2.2c1.9-0.2-9.2-7.9-8,0
		c0.4,2.8,4.8,7,5.7,10.1c0.3,0.9-0.9,3,0,2.7c0.5-0.2,1.2-0.9,1.5-1.2c4.4-4.3,9.7,0.5,7.7,1.8c-6.3,4.5,3.1-14.2,6.2-6.6
		c0.6,1.4-0.8-3-0.8-4.5c0-1.3,1.5-6.9,1.2-7.1c-4-2.5-7.6,4.6-9.8,5.1c-6,1.3,2.6-4.6-1.8-7"/>
	<path class="st25" d="M731.3,1837.1c-6.3,12.9,3.7-0.8,7,1.4c2.7,1.8-1.1,5.7,0.2,8.6c0.6,1.4,2.1-2.5,3.4-3.3
		c2.1-1.4,5.1-4,5.9-6.5c0.8-2.6-7.3-8.2-5.4-6.2c1.1,1.2,0.8-2.9,2.1-3.2c1.6-0.5-2.5-2.3-3.4-3.8c-1-1.6-2.1-3.4-3.5-4.7
		c-0.9-0.9-4.2-2.7-3.1-2.2c4.4,1.9-1.7,0.2,3.1,0.1c2.7,0-1.2,5.3-0.9,8c0.2,2.3,4.2,4,2,6.7c-2.6,3.1-20.4,4.1-8.3,12.4l-1,1.3
		c-16.5-8.8,5.3-23.1,6.6-14.3c0.3,1.9-2.4-3.2-2.7-5.1c-0.4-2.9-1-13.6,4.2-12.2c3.4,0.9,10.4,11.6,9.1,15.1c0,0-3.8,3.8-4.1,1.9
		c-1.6-8.9,22,8.3-2.5,17.4c-4.7,1.8-7.2-4.2-3.9-7.3c0.5-0.5,2.7,0.4,2.2-0.2c-0.4-0.6-6.7,3.8-7.2,4c-3.4,1-5.2-2.3-3.6-4.9
		c0.5-0.8,1.9-2.8,2.7-3.7"/>
	<path class="st25" d="M746.3,1860.8c-5.8,12.1,18.8,1.3,10.3-9.4c-1.9-2.3-9.6,6.8-6.9,5.7c1.7-0.7-1-2-0.1-2.9c2-2.1,7-4.8,10-4.5
		c1.3,0.1,6.3,2.2,7.3,0.9c2.6-3.6,2.2-15.9-2.9-17.7c-1.7-0.6-5.1-0.7-6.6,0.3c-2.2,1.5,0.6,11-2.4,13.7c-3.7,3.3-18,6.2-15,12.3
		c1,2,4.5-0.5,6.8-0.7c4-0.3,6.8,1.4,9.5,4.3l-0.8,1.2c-5.5-5-18.1,2.7-19.8-5.3c-1.7-8,10.9-13,16.8-14.8c1.7-0.5,0-12.7,2.8-15.1
		c2.9-2.5,9-1,11.9,0.6c6.4,3.7,8.4,19.4,2.3,24.1c-3.8,2.9-8-0.8-12,0.8c-2.5,1-6.7,5.1-9.6,3.8c-5.6-2.3,9.4-17.1,12.3-6.7
		c6.4,22.5-23.5,21.9-16.4,8.4"/>
	<path class="st25" d="M699.8,1887.1c0.5,2.3-6.8-3.4-4.3-5.7c3.4-3.2,16.3-1.5,10.9,3.5c-2.1,1.9-3.2,2.4-1.2-2.2
		c1.1-2.6,14.1,0.3,12.1-0.3c-0.3-0.1,3.8-13.6,7.4-6.2c12.7,26-16.4,19.2-18.3,28.3c-0.3,1.3,2-2.3,3.3-2.4c0.5,0,1.7-0.4,1.3-0.6
		c-1-0.6-8.1,2.8-11.3-2.3c-1.6-2.5-0.4-19.9,1.7-13.2c0,0.1-0.4,8.9,1.5,10.7c2.5,2.3,9.6,2,10.5,5.6c1,4-7.2,4.2-9.1,2.6
		c-6.4-5.5,14-10.1,15.4-11.2c3.6-2.9,2.9-8.4,2.4-12.2c-0.2-1.4,2.9-4.6,1.6-4c-3.2,1.4-2,6.8-5.4,8.5c-1.2,0.6-4.1-0.8-5.3-0.9
		c-1.6-0.1-7,1.8-7.8,1.3c-4.3-2.7,3.5-6-6.4-3.3"/>
	<path class="st25" d="M1004,1845.2c2.3-5-0.7-10.5-1.8-16c-0.4-2.1-2.6-8.4-2-6.3c0.4,1.2,3,3.7,3,2.4c0.1-2.1,5.3-11.6,7.9-11.7
		c3.4-0.1,5.6,6.1,9.1,7.2c4.5,1.4,5-6.7,9.3-0.1c0.8,1.3-1.7,10.1-1.8,12.1c-0.2,9.4,3.8,4.5,4.7,8.8c2.1,9.9-18.2,11.8-23.7,14.2
		c-1.2,0.5-2.5-1-3.4-1.9c-1-0.9-0.6-4.6-1.3-5.9c-2.5-4.7-7.1-7.9-10.6-11.8c-3.1-3.4-9.9-1.2-8.6,3.7c1.1,3.9,3.2-2.6,1.8-5.1
		c-0.8-1.4,5.8,6.3,8.3,7.2c0.9,0.3,4.9-0.5,4.4-0.8c-0.1,0,7.9-3.4,4.9,3.9c-0.5,1.2-4.7,6.4-6.5,2.1c-3.4-7.9,7.3-4.5,3.5-2
		c-5.8,3.7-20.2-5-16-12c4-6.7,11.7,8.9,1.9,11.8c-6.2,1.8-9.3-7.7-5.9-11.7c8.3-9.8,31.6,7.1,28.8,18.1c-0.2,0.8-2.3-1.6-1.5-1.8
		c6.9-1.7,15.8-4.8,21.5-5.4c2.5-0.2-5.7-1.9-6.2-4.3c-1.1-5.1-2.1-18.2,4.8-17.8c2.3,0.2-4.1,2.7-6.5,2.6c-3.2,0-11.1-8-11.1-8
		c4.2-1-5.3,12.7-10.7,9.8c-2.1-1.1,0.4-5,1.5-5.3c1.8-0.6,2.1,3.1,2.6,4.8"/>
	<path class="st25" d="M1048.5,1857.7c-2.1,7-7.8,17.7-4.6,25.5c1.2,2.9,9.4,1.1,12.4,1.3c0.2,0,0.6-0.1,0.5,0
		c-5,4.6-15,0.3-10.4-6.6c1.8-2.7,5.6-4.2,7.8-6.5c0.6-0.6,3.6-3.4,2.7-2.4c-4.3,4.6,10.7,4.6,5.4-12.5c-1.6-5.1-11.5-7.4-16.2-6.8
		c-0.2,0-1.2,0-1.2,0.5c0.2,2.6,10,3.1,7.2,7.9c-5.5,9.5-15,2.9-11.9,21l-1.1,0.2c-4.3-11-2-20.5,9.8-24.2c1-0.3-0.1,3,1,3.1
		c1.5,0.2-2.6-1.3-3.9-2.1c-2.6-1.7-5.7-4-4.7-7.6c2.7-9.3,22.7-0.1,25.4,4.5c5.5,9.6-5.8,30.5-12.1,21c-2.6-4,4.2-9.2,6.2-4.4
		c1.5,3.8-11.6,7.9-11.8,9.8c-0.6,5.1,14.2,1.2,7.6,9.3c-2.7,3.3-16.1-1.1-17.1-5.3c-2-8.6,3.8-19.3,7.6-26.4"/>
	<path class="st25" d="M838.2,1721.4c-0.4,0.1-18.7,8.8-18.6,9c1.3,1.9,2.8,2.3,1.7,6.3c-0.4,1.3-4,6.5-2.6,7.7
		c0.5,0.4,6.9-1.7,8.5-1.5c3.4,0.4,11.2,5,14.3,2.6c1.7-1.3-2.7-5.8-4.4-4.5c-0.8,0.5,2,0.9,2.1,1.9c0.2,2.5,1.9,6.5,3.7,8.4
		c2.2,2.5,6-1.9,8.9-2.6c3.4-0.7,7.3,2.4,10.6,0.9c2.5-1.1,1-13.2,0.7-15.1c-3.8-23-37.9-11.4-28.2,4.3l-0.5,0.5
		c-16.7-12.4,30.3-40.5,32.7-1.9c0.3,4.3,0.4,10.1-2.3,13.9c-2.7,3.9-35.6,5.7-28.7-11.6c2-5,8.2,4,6.4,7.6
		c-0.9,1.8-25.9-1.5-26.3-2.9c-0.8-2.6,1.6-5.6,2.5-7.8c1.1-2.9-1.4-4.7-0.7-7.4c1-3.9,18.1-9.4,20.6-9.5"/>
	<path class="st25" d="M793.4,1736.9c-5.4,6.6-5.2,27.5,7.6,28.8c1.8,0.2,4.6-17.2-0.5-16.8c-1.7,0.1-5.4,12.2-3,13.3
		c7.4,3.5,11.3-19.5,8.8-23.4c-2.1-3.3-13.3-2.2-15.1,0.8c-0.1,0.2,0.7,6.7,0.7,6.9l-0.9,0.1c-2.8-11.5,8.4-19,16.7-11
		c6.8,6.5-0.4,35.2-11.4,28.8c-11.1-6.5,13-33.8,8.7-3.7c-0.3,2.3-1.1,5.8-3.4,7.1c-6.2,3.5-15.8-17.6-15.8-21.6
		c0-4.4,3.5-7.9,6.3-10.8"/>
	<path class="st25" d="M845.1,1778.4c-2.8-2-9.5-5-7.4,2.1c0.9,3,5.9-0.5,8,0.6c3.3,1.7,1,6.2,5.6,3.8c2.4-1.3,3.2-2.1,5-4.2
		c0.7-0.8,2-3.7,1.7-2.7c-0.6,1.8-2.7,4.8-1,5.4c8.4,3.1,21.2-8.8,12.6-17.3c-2.4-2.4-6.5-2-9.5-2.4c-15.7-2.1-5.5,11.4-16.5,7.3
		c-1.4-0.5,0.4,3.1-0.1,4.5c-1.7,4.7,3.4,9.1,2.1,13.5c-1.3,4.1-10.6,8.8-8.7,13.6l-0.7,0c-4.2-8.2,5.9-8.7,6.6-14.6
		c0.4-3.6-8.4-19.2,1.7-19.4c4.2-0.1,7.4,0.5,7.4,2.6c0.1,1.5-8-0.3-6.2-6.5c2.9-9.9,23.3-7.3,27.8-0.2c7.1,11-6.8,31.3-18.7,20.9
		c-5.6-4.9,6.8-10.8,6-5.2c-0.6,4.4-8.7,8.5-12.5,8.3c-1.9-0.1-1.5-4.1-3.4-4.7c-2.7-0.9-7.1,1.6-9.1-1.7c-5.4-8.8,5.5-8.1,10-4.8"
		/>
	<path class="st25" d="M956.8,1738.8c-5.7-4.8-13.4,8.1-13.9,13c-0.3,2.4,3.6-4.3,4.8,1.9c0.9,4.8-9.9,9.4-7,16.7
		c1.9,4.7,8.8-9.9,10.1-9.1c2.1,1.4-1,15.2,1.2,15.2c2.8,0.1,9.8-9.2,14.3-7.8c2.3,0.8,1.3,9.6,1,7.2c-0.1-0.6-0.3-1.1-0.3-1.7
		c0.1-1.2,3.9-3.1,4.3-5.1c0.4-2.2-2.2-19.5-4-19.6c-1.1-0.1,2.2,0.4,3.2,1.1c1.2,0.8-1.6,3-0.8,4.2c0.6,0.9,2.6-0.8,2.7-1.8
		c0.7-8.1-10.3-17.4-16.5-21.1c-0.3-0.2,0.3,0.8,0.3,1.1c-1,6.1-4.1,11.5-4.3,18.1l-1.7-0.2c-0.3-7.6-0.6-4.5,0.8-12.7
		c3.8-22.9,26.2,2.3,25.2,13.7c-1.3,15.8-19-3.8-5.4-4.8c4.1-0.3,5.5,24,1.2,28.6c-3,3.3-5.9,3.5-9.2,0.7c-4.1-3.4,4.6-3.6,3.8-3.8
		c-5.6-1.3-10.4,9.8-17.4,6.5c-8.5-4,2.1-14.4,3.7-15.6c1.9-1.5-2.1,4.5-3.7,6.5c-2.5,3.2-6.4,5.5-10.5,3.6
		c-6.8-3.1,1.7-21.2,6.3-22.9c11.7-4.4-7.4,13.4-4.8-0.1c1.4-7.4,12.2-21.3,19.9-13.2"/>
	<path class="st25" d="M985.6,1764.6c-0.4,2.6-1.6,6.7-0.4,9c1.6,2.9,5.2-4.3,8.3-5.5c1.8-0.7,7.7,0.7,5.9-0.2
		c-2.4-1.2,0.8-16.1,0.7-19.6c0-1.1-0.5-9.5-1.6-9.9c0,0-8.5,6.1-8.3,7.5c0.2,1.1-3.3-9.9-3.3-9.9c-2.4-0.5-2.7,4.1-4.4,5.9
		c-1.2,1.2-5.1,3.6-4.2,5.8c0.4,1,8.5-5.8,0.5-2c-9.4,4.4,0.9,11.8,2.4,16.7c0.8,2.8-1.2,9.1,1,11.4c0.6,0.7,6.2-7.5,6.5-8.2
		c2.8-6.4-2.4-8.8-1.6-14.6l1.8-0.2c0,2.4,2.9,3.4,3.8,5.6c2.6,6.8-1.4,14.1-5.9,19c-1.7,1.8-4.4,2.3-6.7,1.6
		c-0.5-0.2-1.9-2-2.2-2.4c-2.1-3.7,0-8.2-1.1-12c-1.2-4.3-5.8-5.8-6.1-10.6c0-0.7-0.1-1.5,0-2.2c0.6-3.7,4.4-8.1,8-9
		c15.2-3.7,2.5,19.9-4.8,7.9c-2.9-4.8,11.6-17,14.9-16.2c3.6,0.9,5,12.3,2.3,12.6c-7.8,1,5.8-13.5,11.6-7.6c2.7,2.8,1.2,13.1,1,16.3
		c-0.3,4.1,0,13.2-4,16.1c-4.5,3.3-21.8,10.8-16-5.7"/>
	<path class="st28" d="M524.1,564.9c0-3.2-2-5.1-5.3-3.4c-1.8,0.9-3,3.3-3.9,4.9c-2.8,4.7-11.8,9.5-17,5.8
		c-3.8-2.7-6.2-7.4-10.2-10.2c-3.7-2.6-9.8-2.2-12.1-6.8c-2.4-4.7,4.2-11.5,8.7-12.1c5.1-0.7,4.8,5.8,9.7,5.8"/>
	<path class="st28" d="M501.8,534.8c-1.2-0.6-3.2-0.3-3.9-1.5c-0.9-1.6,0.5-8.1,0.5-10.2c0-2.1-2.7-4.5-1.9-6.3
		c1.4-3.3,4.9-5.4,6.8-8.3"/>
	<path class="st28" d="M514,498.9c-2.1-1.1-0.7-8.7,1.5-8.3c3.7,0.7,6.4,2.9,10.7,1.5"/>
	<path class="st28" d="M530.5,489.7c1.2-1.8,6.4-6,5.8-8.7c-0.1-0.4-1-0.5-1-1c0-1,5.9,0.5,6.8,0.5c3.3,0,9.7-1.7,9.7,2.9"/>
	<path class="st28" d="M553.8,497.4c0-2.3-1.2-1.4-1.5,0c-0.9,4.6,6.4,8.5,10.2,7.3c4.6-1.5,9.2-8.7,10.7-13.1c0,0,1-5.3,1.5-5.3
		c0.3,0,1.3,2,1.5,2.4"/>
	<path class="st28" d="M578.5,514c-2.3,0.6-3.9,2.2-3.4,4.9c0.4,2,2.6,1.1,2.9,3.4c0.7,4.9-4.7,8.5-6.8,12.6"/>
	<path class="st28" d="M549.9,541.1c0,6.1,1.6,12.1,2.4,18c0.5,3.5,3.4,6.1,3.4,9.7c0,4.6-6.9,8.9-9.7,11.7"/>
	<path class="st28" d="M505.2,582.9c-2.6,0.4-6.2,2.9-8.7,2.4c-0.7-0.1-11.9-1.7-5.3-0.5c1,0.2,1.9,0,2.9,0"/>
	<path class="st28" d="M524.6,530.5c-2.1,1.4-6.9,3-5.8-1.5c1.2-4.8,8.2-6.3,12.1-6.3"/>
	<path class="st28" d="M1185.8,420.9c-6.4-0.9-3.6-10.7-2.5-14.8c3.5-12.8,8.9-17.7-1.2-30.9c-3.9-5.1-25.7-9.4-29.3-4
		c-4.8,7-2.5,12.8,0,19.9"/>
	<path class="st28" d="M1151.7,418.9c-20.2,2.2,5.5,14.8-2.6,18.7c-5.9,2.9-31.8-0.8-34.2,5.2c-0.4,1,6.2,6.9,7,8.2
		c4.5,7.5,6.3,20.8,17.4,18.7"/>
	<path class="st28" d="M1152.9,462.6c7.9,3.9,1.5,26.6,12.9,24.4c2.5-0.5,5.5-3.2,7.8-4.4c3.5-1.7,2.3-0.5,4.1-3.1"/>
	<path class="st28" d="M1185,433.5c-16.1-2.2,5.5-8.6,10.5-10.3c0.6-0.2,1.3-1,1.9-0.6c5.5,3.8-4,9.4-2.7,13.2
		c2.1,6.1,18.2-11.9,22.3-10.5c4.1,1.4,7,18.9,14,23.7"/>
	<path class="st28" d="M1222.6,463.1c-2.9,1-7.5-0.1-8.6,3.3c-0.6,1.7-1.5,6.4-0.2,8.1c0.4,0.5,1.1,1.5,1.7,1.1c1.6-1.2-3-3.5-5-3.4
		c-4.9,0.1-14.4,4.7-19.1,7.3c-6.3,3.5,0,8.4,2.9,12.2"/>
	<path class="st28" d="M1179.9,503.4c-5.8,0.4-18.5,6.4-22.3,4.2c-4.4-2.5-3-7.2-9.9-6.8c-3.5,0.2-10.2,6.1-11.3,3"/>
	<path class="st28" d="M1157.2,438.2c-1.7,1.8-3.6,3.8-6,4.2c-1.1,0.2-1.7-1.9-1.4-2.9c0.4-1.3,4.9-3.1,5.9-3.7
		c1.3-0.7,3.2-3.5,3.9-2.2C1160.5,435.1,1158.4,437,1157.2,438.2z"/>
	<path class="st28" d="M657.4,508.2c-4.2,0-15.8-4.4-14.7-10.1c0.6-2.8,5.3-5.6,7.7-6.2c0.3-0.1,4-0.4,4.6,0.8c0.3,0.7,0,2.3,0,2.3
		s-0.2-3.4,0.8-4.6c1.3-1.7,2.7-2.3,3.9-4.6c2.3-4.6,0.1-17.1,2.3-19.3c3.6-3.6,5,12.8,13.1,4.6"/>
	<path class="st28" d="M681.3,464.1c-6.2-3.1-0.3-12.5,4.6-10.1c3.2,1.6,0.5,8.4,2.3,10.8c3,4,10.3-5.4,13.9-5.4
		c2.5,0,2.5,4.9,4.6,6.2c2.4,1.5,6.5,2.4,9.3,3.1"/>
	<path class="st28" d="M716.1,489.6c-4,2.6-5.8,5.8-9.3,9.3c-0.4,0.4-1.2,1.3-1.5,0.8c-1.9-2.9,2.1-7.3,0.8-10.1
		c-1.1-2.3-11.3,4-12.4,4.6c-7.9,5.3-14.3,11.1-21.7,17c-2.1,1.7-6.8,5.2-9.3,6.2c-5.6,2.3-9.6,0.8-13.9,7
		c-0.5,0.7-12.4,17-4.6,13.1"/>
	<path class="st28" d="M682.1,519.8c-6.1,0-5.9,5.3,0,2.3c3.3-1.7,7.5-6.2,11.6-6.2c2.5,0,1.7,12.8,10.1,10.1
		c3.8-1.3,15.6-13.3,18.6-16.2"/>
	<path class="st28" d="M733.9,485c-2.9-1.4,1.6,1.3,2.3,3.9c1.4,4.8,0.8,9.4,2.3,13.9"/>
	<path class="st28" d="M665.9,542.2c-1.4-2.4-3.8-4.3-4.6-7c-0.4-1.2,2.3,1.3,3.1,2.3c1.5,1.8,1.7,4,2.3,6.2c0.2,0.8,1.1,3,0.8,2.3
		C666.8,544.9,666.6,543.4,665.9,542.2z"/>
	<path class="st28" d="M833.4,449.8c-11-11-18.3-32.6-3.7-43.5c2.8-2.1,5.9-2.8,9.3-2.8c8.3,0,5.4,9.4,6.5,14.8
		c0.7,3.6,4.2,3.2,6.5,0.9c1.8-1.8,2.1-4.6,3.7-6.5c5.8-6.8,13.6-16.7,21.3-21.3c5.6-3.3,14.1,2.2,18.5-3.7c4.2-5.6,3.7-13,5.6-19.5
		c0.2-0.7,1.5-1.5,0.9-1.9c-2.1-1.1-5.4,3.3-2.8,4.6c8.3,4.1,14.2-5,21.3,7.4c3.5,6.2,5.6,16.2,5.6,23.2c0,1.5-1.2,12.1,1.9,11.1
		c3.2-1.1,1.9-8.7,0-10.2c-4.2-3.4-21.9,1.3-15.7,7.4c1.6,1.7,2.5,0.5,4.6,0.9c6.8,1.4,15,2.7,22.2,1.9c5.6-0.6,9.8-3.6,15.7-2.8
		c12.2,1.7,16,12.3,20.4,22.2c1.5,3.4,6.5,9.3,6.5,13c0,7.4-10.8,2.3-13.9,0.9c-8.2-3.5-21.3-20.5-30.6-13.9
		c-3.5,2.5-17.8,12.9-18.5,16.7c-0.2,0.9-0.6,2,0,2.8c1.1,1.5,5.6,0.9,5.6,0.9s-1.9-0.3-2.8,0c-2.6,1.1-3.8,4.2-5.6,6.5
		c-3.9,5-7.1,10.3-10.2,15.7c-1.1,2-4.1,6.5-1.9,6.5c3.4,0,1.5-8.4,0.9-9.3c-1.7-2.5-7.9-2.5-10.2-1.9c-3.4,1-14.6,15.7-16.7,15.7
		c-2.3,0-3.2-6.1-3.7-7.4c-2-4.9-3.3-17.4-10.2-18.5c-5.3-0.9-6.3,2.1-10.2,3.7c-2.4,1-6.7-0.4-9.3,0c-1.4,0.2-2.4,2.4-3.7,1.9
		c-4.4-1.8-5.2-9.6-9.3-12c-0.6-0.4-0.8,1.2-0.9,1.9c-0.2,1.8,0,3.7,0,5.6c0,4.8-0.9,11.1,0.9,15.7c3.6,8.9,16.3,16,25.9,13.9
		c6.9-1.5,17.3-9.4,25-5.6c6.5,3.3-0.9,27.8,12,31.5c5.3,1.5,19.7-21.6,23.2-26.9c1.7-2.6,2.3-5.6,3.7-8.3c0.6-1.2,1.2-4.9,1.9-3.7
		c1.8,3.6-2,6.1,0,10.2c5.9,11.7,38.9-1.3,47.2-4.6c8.8-3.5,7.5-24.6,2.8-30.6c-6.5-8.1-10.3,8.6-15.8,9.3c-4,0.5-7.5-1-9.3-4.6
		c-0.1-0.2-2-6.6-0.9-5.6c1.3,1.3-1.3,4.2,0,5.6c4.1,4.1,23.1-15.3,25.9-18.5c11.2-12.8,9.5-49.9-0.9-63c-3-3.7-7.7-7.4-12-9.3
		c-27.4-11.7-39.4,16.1-43.5,38.9c-0.6,3.4,1,23.9-0.9,25c-3.7,2.2-3.3-1.4-6.5-0.9c-6.4,0.9-22,13.6-28.7,10.2
		c-3.4-1.7,6-16.3,6.5-19.5c0.1-1,0-2.8-0.9-2.8c-1.3,0-9.5,9.4-10.2,10.2c-0.9,1.1-0.5,3.7-1.9,3.7c-0.7,0-1.6-7.7-2.8-9.3
		c-1.9-2.6-4.7-7.6-7.4-9.3c-1.9-1.2-4.5-0.7-6.5-1.9c-4.5-2.6-15.6-21.5-17.6-25.9c-2.3-5.2-5.6-14.3,0-18.5
		c13.7-10.3,15.6,30.6,30.6,25c2.5-0.9,6-8.5,6.5-9.3c3.8-6,10.3-10.4,13-16.7c3.1-7.2,1.8-16.9,6.5-23.2c1.9-2.6,9.4,0.1,11.1,1.9
		c2.9,2.9,1.1,7.8,3.7,11.1c3.1,3.9,8.1,5.2,11.1,9.3c6.4,8.6-3.5,23.3-7.4,30.6c-1.2,2.3-3.7,10.2-5.5,11.1
		c-2.7,1.3-13.8-2.5-16.7-2.8c-11-1.1-31.5,2.8-35.2,14.8c-0.9,2.9-3.1,17.9,0,20.4c1.7,1.4,13.9,1,13.9-0.9c0-0.9-7.4-1.7-8.3-1.9
		c-6.2-1-26.5,3.4-24.1,13c0.9,3.8,10.3,3.8,13,6.5c4,4,8.8,21.2,3.7,25c-4.5,3.4-8.6-4.9-9.3-8.3c-0.6-3.4-1.1-12.5-3.7-15.7
		c-2.4-3-16.1-5.1-20.4-6.5c-4-1.3-9.5-7-13.9-3.7c-2.3,1.7-4.1,5.7-4.6,8.3c-2.3,11.3,16.5,16.7,24.1,21.3c2.1,1.2,3.3,3.7,5.6,4.6
		c5.8,2.5,22.2-7.5,25-4.6c4.7,4.7-6.9,38.3,13,25"/>
	<path class="st28" d="M639.6,286.5c-4.3-5.3-3.6-12.8-8.1-18c-6.7-7.8-25.8,1.1-24.8,11.3c0.3,3.6,13.1-2.9,16.1,6.3
		c1.3,3.9,2.1,10.6,2,14.7c-0.1,1.8-0.9,4.2-1.4,5.9c-0.1,0.5-0.5,1.3-0.5,1.3s1.1-2.7,2.3-2.8c1.1-0.1,0.8,2.1,0.9,3.1
		c0.2,2.2,0,10.4,4.1,9.3c4.7-1.2,8.1-11.3,9.6-15.1"/>
	<path class="st28" d="M642.9,279.7c-0.7-1.6,1.5-14.5,3.7-15.9c1-0.6,8.4-2.4,9.5-2.2c4.3,1,3.5,5.2,5.9,7.9
		c1.4,1.5,8.3,5.1,4.7,2.2c-0.4-0.3-28.8,11.5-20,14.1c7.1,2.1,10.6-4.9,15.4-7.9c3.3-2.1,7.5-1.3,10.7-2.9c1.2-0.6,6.4-5.6,8.2-2.7
		c0.6,0.9,8.5,29.9,8.2,30c-0.8,0.1,7.3-10.1,6.7-10.6c-1.5-1.2-15-46.1-20.8-13c-5.8,33.1-8.3,23.4-13.9,26.7
		c-3.4,2-11.4-13.6-14.4-11.1"/>
	<path class="st28" d="M647.1,297.4c-1.6,4.1,1.3,3.9,3.3,8.1c1,2.1,0.7,4.7,0.6,7.1c-0.1,4-6.5,6.9-6.2,10.3
		c0.7,7.1,8.7,0.9,10.8-1.6c2.3-2.7,1.8-6.3,3-9.3"/>
	<path class="st28" d="M1046.6,432.6c0,11.4,8.1,2.6,9.8,6c1.9,3.9,1.1,8,3.8,12"/>
	<path class="st28" d="M1061.6,461.1c-2.4,4.9,3.8,9.4,8.3,8.3c2.9-0.7,9.1-7.8,9.8-10.5c0.2-0.8-1-4-0.8-5.3
		c0.5-2.9,4.5-7.5,1.5-10.5c-1.3-1.3-13.5-6.1-13.5-2.3c0,2.4,5.8-4.3,6-4.5c1.3-1.5,2.7-2.9,3.8-4.5c3.6-5.4,4.2-10.4,10.5-13.5"/>
	<path class="st28" d="M1089.4,413c-2.6-1.8-5.6-3.9-8.3-5.3c-6.5-3.3-11.8-1.2-15,5.3c-0.9,1.9-1.2,5.9-2.2,7.5c-1,1.5-6,2.7-7.5,3
		c-7.6,1.5-20.2-2.6-24.8,6.8c-1.7,3.5,17.5,0.1,18.1,2.3c2.1,8.2-26,7-8.3,18.8"/>
	<path class="st28" d="M1078.1,441.6c0,12,4,0.7,9,3.8c3.1,1.8,2.2,7.7,2.2,10.5"/>
	<path class="st28" d="M1178.2,441.6c-2.2,0-13.2,25.9-10.5,28.6c1,1-0.5-2.8-1.5-3.8c-2.4-2.4-4.9-4.5-7.5-6.8
		c-5.8-5.1-16.5-9.6-16.5-18"/>
	<path class="st28" d="M1166.9,420.5c-6.4-2.1-15.4,2-20.3,0c-3.7-1.5-7.2-6.7-10.5-9c-2.8-2-10.5-5.4-8.3-9.8
		c2.9-5.8,14.5-6,18.8-2.3c2.3,2,4.3,5.5,5.3,8.3c0.9,2.7,0.8,1.5,0.8,3.8c0,0.5,0,2,0,1.5c0-6.7,1.9-11.9,4.5-18
		c0.7-1.5,0.6-4.5,2.3-4.5c0.2,0-0.3,7.6,0,8.3c2.2,4.5,11.8,3.5,15.8,4.5"/>
	<path class="st28" d="M1181.2,403.2c4,0,19-11.1,21.1-9.8c1.1,0.8,2,4.3,3,5.3c2.3,2.3,6.3,4.8,5.3,9c-1.2,4.7-3,7-3,12"/>
	<path class="st28" d="M1200,434.1c0,6.6-4.7,16.6-9,21.8c-2.2,2.7-6.8,4.6-6.8,8.3c0,3.3,3.2,3.5,5.3,4.5"/>
	<path class="st28" d="M447.3,656.6c-7.7,5.5-18.5-9.1-27.3,3c-2.5,3.5-5.7,9.2-3.4,13.7c1.8,3.5,6.6,2.5,6.7,7.3
		c0.1,3.9-0.3,14.9,2.8,17.6c2.4,2.1,8.4,3.9,10.1,6.7c1.3,2.2-3.4,6.6-4.9,8.4c-7.1,8.6-12,13.9,0.8,17.9"/>
	<path class="st28" d="M442.5,730.3c0.1,0.4,0.8,4.7,0.8,4.7c1.3,2.4,3.3,0,5.1,1.3c1.2,0.8,1.3,3.3,3.2,3c1.6-0.3,3.2-4.1,5-3.6
		c2,0.6,0.8,5.4,1.8,6.7c3.2,4.5,19.6,0.3,22.6-2.2"/>
	<path class="st28" d="M482,708c-7.5,5.4,1.4-17.3,1.9-18.4"/>
	<path class="st28" d="M469.9,702.3c-3.8,0.6-7.7,1.2-11.5,1.8c-11.8,1.9-9.1-6-7.4-16.2c0.1-0.8,1.3-6.3,0.3-7
		c-0.4-0.3-0.4,1-0.5,1.5c-0.1,2.3-0.3,6.3,3,5.8c3-0.5,5.2-8.2,5.3-10.6c0.3-6.8-6.6-11.3-8.3-17.4c-1.9-6.6,0.1-9.6,0.3-15.3
		c0.1-1.3-3.8-3.5-2.6-3.1c6,1.9,11.8,5.4,15.6,10.7"/>
	<path class="st28" d="M467.3,655.5c-1.8-2.6-10.4-11-10-15.1c0.4-4.2,18.3-2.7,21.3-1.3c12,5.5,1.6,20,20.8,21.7"/>
	<path class="st28" d="M494.1,671.3c-2.4,1.3-3.1,1.3-4.9,4.3c-3.4,5.6,16.7-3.3,17.6-2.8c2.6,1.3,1.6,9.1,2.5,11.4
		c1.6,3.9,7.5,9.4,11.4,10.7"/>
	<path class="st28" d="M506.2,707.6c-1.7,1-9.3,7.2-9.2,7.7c0.1,0.7,1.7-0.2,2.1,0.4c1.3,1.8,1.5,8,1,10.3
		c-0.8,3.6-6.4,12.2-7.8,3.3"/>
	<path class="st28" d="M481,723.4c-2.6,0.4-23.8,7.9-14.6,4.4"/>
	<path class="st28" d="M464.9,718.4c-6.4,1-11.5,5.6-17.5,7.7c-0.6,0.2-1.6,0.8-2,0.3c-2.6-3.1-0.9-10.2-3.6-14
		c-5.2-7.3-31.9-17.2-12.7-23c1.5-0.5,3.2-0.5,4.7-0.8"/>
	<path class="st28" d="M450.6,676.9c-2.6,1.1-9.5,4.7-11.6,1.2c-0.4-0.6-0.8-1.5-0.3-2c2.4-2.6,20.3-4.5,23.7-3.8
		c7,1.4-1.9,22,5.9,15c1.7-1.5,3.3-3.2,4.8-4.9c0.8-1,1.4-2.2,2.3-3.1c1.3-1.5,2.8-2.8,4.2-4.1"/>
	<path class="st28" d="M477.2,678.2l-2,0.3l-2,0.3l-2,0.3l0.4-2.1l1-2.2l1.1-1.6l0,0"/>
	<path class="st28" d="M440.9,648.6c8.1,5.7-4.6,3.2-4.8,2.8c-3.9-7.6,3-19.2-1.5-26.8c-1.1-1.9-13.5-5-14.4-3.2
		c-1.8,3.5,2.7,6.5,4.2,9C430.3,640.2,430.7,641.4,440.9,648.6z"/>
	<path class="st28" d="M430.9,671c-11.3-8.2-13.5,2.1-19.8,10.8c-1.2,1.7-7,8.5-5.9,10.7c0.7,1.4,3.3-0.1,4.7-0.8
		c6.9-3.1,12.8-5.5,20.4-6.7"/>
	<path class="st28" d="M438.9,703.8c-2.5,3.4-5.6,6.5-9,9.1c-2.9,2.2-8.3,3.1-8.5,7.6c-0.2,5.1,4.4,6.1,7,9.3c2.3,2.7,4,7,7.6,8.5
		c6.7,2.7,16.8-0.3,23.2-2.3"/>
	<path class="st28" d="M522.7,555c-1.3,1.9,0.2,4.6,0.4,6.9c0.3,4.2,0.2,8.4-0.1,12.5c-0.2,2.1-3.8,9.3-3,11.6
		c0.2,0.7,1.5,0.6,2.1,0.4c1.5-0.5,2.3-2,3.7-2.7c4.5-2.1,8.9-2.6,13-5.6"/>
	<path class="st28" d="M542.1,545.6c-1.4,0.2-7.4,3-8.6,2.8c-4.3-0.7,5.8-15.4,7.8-16.5c1.3-0.8,8.2-4,9.9-3c3.5,2,1.1,7.1,6.7,3.1"
		/>
	<path class="st28" d="M558.6,514.5c-5.9-0.2-10.3,0.1-16.2-1.6c-2.4-0.7-5.2-3.6-7.5-3.7c-4.4-0.2-11.1,7.8-12.7,7.6
		c-1-0.2-1.4-1.5-2.4-1.7c-4.1-0.9-8.4-1.1-12.3-2.9c0,0-4.9-2.3-5.2-1.9c-1.5,2.1,6.4,7.6,7.6,8.5"/>
	<path class="st28" d="M509.2,543.9c-5,2.6-5.2,7.2-8,11c-1.7,2.4-4.2-1.1-6.1,1c-4.8,5.3,4.4,11.6,8.8,11.8
		c4.7,0.2,8.7-3.6,12.2-6.1"/>
	<path class="st28" d="M527.7,555.5c-6.8,4.9,6.7,19.8,14.8,18.5"/>
	<path class="st28" d="M556.3,552.3c-4.2,5.8-0.3,28.9,9.2,22.8c1.8-1.1,5.9-6.4,7-8.1c3.2-4.9,2.9-4.4,3.5-8.2"/>
	<path class="st28" d="M578,544.7c-3.9,0.6-2.4,4.7-1.5,7.9c1.7,6.1,5.9,17.7,3.1,23.8"/>
	<path class="st28" d="M574.7,541.1c-0.9-5.4-4.4,2.8-3.7,2.7c3.9-0.6,21.6-13.7,22.2-17.4c0.4-2.7-3.7-15.2-6.2-12.9
		c-1.6,1.5,0.9,11,1.4,13c2.7,10.9,4.3,20.8,3.1,32.1"/>
	<path class="st28" d="M566.4,588.9c-4.7,0.8-4.2-1.1-9.3,2.9c-3,2.4-4.4,6.8-8.4,8.3c-3.6,1.3-8.4,1.3-12.2,2"/>
	<path class="st28" d="M680.9,493.5c-0.9-1-5.3-4.2-5-5.4c0.7-2.9,1.9-1.9,3.6-3.4c6.4-5.4,13.8-2.9,19.8,2.4"/>
	<path class="st28" d="M688.9,513.1c-3,0.5-3.1,6.6-4.7,9.8c-3.7,7.5-11,36.8,6.7,28.8c3.8-1.7,6-4.7,9.3-7"/>
	<path class="st28" d="M704.5,541.1c-3.6-1.1,8.2-4,10.3-5.1c2.1-1.1,4.8-2.5,6.2-4.5c0.5-0.7,0.6-4,1.4-4.4
		c1.4-0.7,3.5,0.2,4.7-0.8c1.9-1.5,4.9-6.7,6.3-8.6c0.4-0.6,4.3-6.7,3-7.4c-5.6-2.9-7,9.1-4.9,12.6"/>
	<path class="st28" d="M892.1,446.5c-1.3-8.2-18.2,14.2-18.2,16.1c-0.2,5.9,16,1,18.9,1.1c8.1,0.5,7.7,9.6,14.9,10.8"/>
	<path class="st28" d="M918,460.4c-3.2,1.6-4.2,5.9-5.5,9.2c-3.1,8-5.9,14-10.5,21.1c-0.9,1.3-12.7,20.8-6.6,19.8
		c2.7-0.4,9-7.8,11-9.4c9.2-7.6,18.8-13.7,28.7-20.6c2.7-1.9,10.8-5.9,10.1-10.6c-0.8-4.6-6.4,7.3-1.1,6.4
		c5.8-0.9,13.3-12.1,12.5-17.3"/>
	<path class="st28" d="M947.1,447.4c-10-7.2-19.1-2.4-29.5-2.2c-2.3,0-4.8-0.9-7.1-0.9c-1.4,0-2.8,1.1-4.1,0.7
		c-4.2-1.3,1-16.7,1.8-19c2.9-8.3,4.2-19.2,9-26.4c3.9-5.8,6.9-7.7,10.2-14.1c1.4-2.6,3.4-8.2,1.6-11.4c-2.8-4.9-13.9,1.4-16.9,2.7
		c-10.6,4.5-10.4,8.5-18,17.5c-6,7-13,10.8-6.6,19.8"/>
	<path class="st28" d="M879.2,426.3c-5.2,0.8-10.1-1.3-15.2,0.4c-3.8,1.2-8.2,4.3-11.4,6.7c-8.1,5.8-9,4.1-17.6,7
		c-4,1.3-28.3,12.9-17.9-3.4c0.9-1.4,1.9-2.6,2.8-3.9c1.5-2.3,2.9-4.7,4.4-7c3.5-5.3,2.6-3.7,8.4-8.3"/>
	<path class="st28" d="M833.3,430.2c-12.8,2.1-11.3-13.6-19-19.2c-2.3-1.7-6.6-2.6-9.5-2.7c-1.2,0-3.8,1-3.5-0.1
		c2.3-7.4,23.2-12.7,28.8-6.7"/>
	<path class="st28" d="M834.6,399.5c0.6-3.8,0.5-8.9-1.3-12.3c-0.6-1.1-2.9-3.5-3.1-2.3c-0.4,2.5,4.7,9.2,5.9,10.9
		c5.9,8.2,12.2,11.7,22,11.8"/>
	<path class="st29" d="M875.5,390.1c-1.1-6.6-7.7-7.8-10.4-12.9c-2.2-4.2,0.1-24.6,1.6-28.7c3.3-8.8,16.8,0.2,20.1,4.4
		c4.7,6,0.5,11.8-0.6,18.1"/>
	<path class="st30" d="M722.1,1801c0.7-0.2,0.1-1.5-0.3-2.2C721.5,1798.2,721.4,1801.2,722.1,1801z"/>
	<path class="st30" d="M752.4,1807.6c-1,2-0.4,0.7-1.6,3.8"/>
	<path class="st30" d="M775.3,1827.2c1.5,0,2.9,0,4.4,0"/>
	<path class="st30" d="M768.8,1856.7c0.2,0.5,0.4,1.1,0.5,1.6"/>
	<path class="st30" d="M821.1,1762.8c0,0.7,0,1.5,0,2.2"/>
	<path class="st30" d="M811.3,1786.3c0,1.1,0,2.2,0,3.3"/>
	<path class="st30" d="M820,1810.3c0.2,0.4,0.4,0.7,0.5,1.1"/>
	<path class="st30" d="M853.9,1827.7c0.4,0.2,0.7,0.4,1.1,0.5"/>
	<path class="st30" d="M840.2,1833.7c0.8,1.7,0.2,0.9,2.2,2.2"/>
	<path class="st30" d="M857.7,1803.2c0.2,0.4,0.4,0.7,0.5,1.1"/>
	<path class="st30" d="M861,1845.2c0,2.6-0.3,1.2,1.6,3.8"/>
	<path class="st30" d="M1023.4,1798.2c0.2,1.8,0.2,0.8-0.3,3.1"/>
	<path class="st30" d="M1042.2,1790.6c1.2,1.8,0.7,0.7,1,3.6"/>
	<path class="st30" d="M1042.8,1823.7c-0.6,1.7-0.5,0.8-0.3,2.5"/>
	<path class="st30" d="M1068.1,1824.5c-0.7,1.9-0.7,0.9,0.3,3"/>
	<path class="st30" d="M1076.8,1853c-1.3,1.6-0.8,4.1-0.5,6.2"/>
	<path class="st30" d="M1059.9,1800.9c0.2,1.8-0.2,1,1.5,2.3"/>
	<path class="st30" d="M939,1789.9c-0.5,2.4-0.1,4.9,0.2,7.3"/>
	<path class="st30" d="M953.5,1795.7c0.8-0.2-0.3-1.6-0.6-2.4C952.6,1792.5,952.7,1795.9,953.5,1795.7z"/>
	<path class="st30" d="M971.3,1788.1l0.2,1.8l-0.3,2.5l-0.3,2.5l0,0"/>
	<path class="st30" d="M951.3,1822.9c-0.5,2.5-0.5,1.2-0.2,3.7"/>
	<path class="st30" d="M963.7,1827c0.6-1.4,1.6-3,1-4.4c-0.4-1.1-1.2,2.1-1.5,3.2C963.2,1826.3,963.6,1827.4,963.7,1827z"/>
	<path class="st30" d="M925,1870.1c-0.4-0.5,0-1.8,0.7-1.9C926.4,1868.1,925.4,1870.6,925,1870.1z"/>
	<path class="st30" d="M829.7,1947.7c-0.7,1.9-0.7,0.9,0.3,3"/>
	<path class="st30" d="M850.5,1944.4c0.8-0.5,0.1-2.1-0.6-2.7C849.2,1941.2,849.7,1944.9,850.5,1944.4z"/>
	<path class="st30" d="M872.7,1926.3c0.4,0.2,0.9,0.3,1.3,0.5"/>
	<path class="st30" d="M880.5,1946.3c0,0.4,0.1,0.8,0.1,1.2"/>
	<path class="st30" d="M871.9,1957.1c0.3,2.5-0.1,1.3,1,3.6"/>
</g>
</svg>
