<?xml version="1.0" encoding="utf-8"?>
<!-- Generator: Adobe Illustrator 27.5.0, SVG Export Plug-In . SVG Version: 6.00 Build 0)  -->
<svg version="1.1" id="图层_1" xmlns="http://www.w3.org/2000/svg" xmlns:xlink="http://www.w3.org/1999/xlink" x="0px" y="0px"
	 viewBox="0 0 434.09 422.09" style="enable-background:new 0 0 434.09 422.09;" xml:space="preserve">
<style type="text/css">
	.st0{fill:#DE3C36;}
	.st1{fill:#91ADD2;}
	.st2{fill:#E4D044;}
	.st3{fill:#564E54;}
	.st4{fill:#91F4D2;}
	.st5{fill:#1D1A2B;}
	.st6{fill:#DC9B83;}
	.st7{fill:#B3D3CE;}
	.st8{fill:#00A5BD;}
	.st9{fill:#E2D6D6;}
	.st10{fill:#035186;}
</style>
<circle class="st0" cx="54.32" cy="54.67" r="17"/>
<ellipse class="st1" cx="122.65" cy="54.93" rx="17" ry="17.27"/>
<ellipse class="st2" cx="194.3" cy="55" rx="17" ry="17.33"/>
<ellipse class="st2" cx="265.26" cy="54.37" rx="17" ry="16.71"/>
<ellipse class="st0" cx="336.21" cy="54.45" rx="17" ry="17.73"/>
<ellipse class="st2" cx="398.37" cy="54" rx="17" ry="16.33"/>
<ellipse class="st3" cx="398.37" cy="381.06" rx="17" ry="17.73"/>
<ellipse class="st1" cx="194.3" cy="321.98" rx="17" ry="17.14"/>
<circle class="st4" cx="265.26" cy="321.84" r="17"/>
<ellipse class="st2" cx="54.32" cy="123.92" rx="17" ry="17.6"/>
<ellipse class="st5" cx="122.65" cy="124.56" rx="17" ry="17.61"/>
<circle class="st6" cx="194.3" cy="125.46" r="17"/>
<circle class="st7" cx="265.26" cy="123.76" r="17"/>
<circle class="st5" cx="336.21" cy="123.61" r="17"/>
<circle class="st7" cx="398.37" cy="123.76" r="17"/>
<circle class="st8" cx="336.21" cy="318.52" r="17"/>
<circle class="st9" cx="54.32" cy="380.33" r="17"/>
<circle class="st5" cx="265.26" cy="380.33" r="17"/>
<circle class="st8" cx="54.32" cy="186.97" r="17"/>
<circle class="st9" cx="122.65" cy="186.97" r="17"/>
<circle class="st10" cx="194.3" cy="186.97" r="17"/>
<circle class="st0" cx="265.26" cy="186.97" r="17"/>
<circle class="st10" cx="336.21" cy="186.02" r="17"/>
<circle class="st0" cx="398.37" cy="186.97" r="17"/>
<circle class="st2" cx="194.3" cy="380.33" r="17"/>
<circle class="st9" cx="122.65" cy="315.04" r="17"/>
<circle class="st6" cx="54.32" cy="249.41" r="17"/>
<ellipse class="st2" cx="122.65" cy="249.41" rx="17" ry="17.33"/>
<ellipse class="st2" cx="265.26" cy="254.41" rx="17" ry="17.33"/>
<ellipse class="st5" cx="194.3" cy="249.41" rx="17" ry="17.61"/>
<circle class="st4" cx="336.21" cy="248.47" r="17"/>
<ellipse class="st1" cx="336.21" cy="379.65" rx="17" ry="17.27"/>
<circle class="st9" cx="398.37" cy="254.41" r="17"/>
<circle class="st3" cx="54.32" cy="319.27" r="17"/>
<circle class="st0" cx="122.65" cy="380.33" r="17"/>
<circle class="st0" cx="265.26" cy="186.97" r="17"/>
<circle class="st0" cx="398.37" cy="322.67" r="17"/>
</svg>
