<?xml version="1.0" encoding="utf-8"?>
<!-- Generator: Adobe Illustrator 27.5.0, SVG Export Plug-In . SVG Version: 6.00 Build 0)  -->
<svg version="1.1" id="Layer_1" xmlns="http://www.w3.org/2000/svg" xmlns:xlink="http://www.w3.org/1999/xlink" x="0px" y="0px"
	 viewBox="0 0 980.7 1399.8" style="enable-background:new 0 0 980.7 1399.8;" xml:space="preserve">
<style type="text/css">
	.st0{fill:#F7EADA;}
	.st1{fill:#DF2F13;}
	.st2{opacity:0.3;}
	.st3{fill:url(#SVGID_1_);}
	.st4{opacity:0.4;}
	.st5{opacity:0.8;fill:#C8D2CE;}
	.st6{fill:url(#SVGID_00000057114461466338303310000008012985038327352230_);}
	.st7{fill:none;stroke:#1B1311;stroke-width:6;stroke-miterlimit:10;}
	.st8{fill:#1B1311;}
	.st9{opacity:0.8;fill:#E5370F;}
	.st10{opacity:0.7;fill:#F4D900;}
	.st11{opacity:0.2;}
	.st12{opacity:0.5;fill:#FDDF00;}
</style>
<rect x="0.4" y="-0.2" class="st0" width="980" height="1400"/>
<rect x="582.6" y="509.5" class="st1" width="227.6" height="720"/>
<g class="st2">
	
		<image style="overflow:visible;" width="1250" height="3302" xlink:href="9EA4BC80A26E0F9A.png"  transform="matrix(0.24 0 0 0.24 546.3606 473.3339)">
	</image>
</g>
<linearGradient id="SVGID_1_" gradientUnits="userSpaceOnUse" x1="686.9781" y1="491.514" x2="686.9781" y2="867.579" gradientTransform="matrix(5.152335e-04 1 -1 5.152335e-04 1189.9218 209.0928)">
	<stop  offset="6.989250e-02" style="stop-color:#003D86"/>
	<stop  offset="1" style="stop-color:#002762"/>
</linearGradient>
<circle class="st3" cx="613.1" cy="896.4" r="273.1"/>
<g class="st4">
	
		<image style="overflow:visible;" width="2576" height="2577" xlink:href="9EA4BC80A26E0F9E.png"  transform="matrix(0.24 0 0 0.24 303.9606 587.0939)">
	</image>
</g>
<rect x="437" y="1048.3" class="st5" width="145.7" height="181.3"/>
<linearGradient id="SVGID_00000006700971143852746850000017527631372322280382_" gradientUnits="userSpaceOnUse" x1="822.6492" y1="723.051" x2="663.6492" y2="968.0512" gradientTransform="matrix(5.152335e-04 1 -1 5.152335e-04 1189.9218 209.0928)">
	<stop  offset="0.129" style="stop-color:#F0896A"/>
	<stop  offset="0.9731" style="stop-color:#E0613F"/>
</linearGradient>
<polygon style="fill:url(#SVGID_00000006700971143852746850000017527631372322280382_);" points="215,613 601.1,874.8 215.3,1124.4 
	"/>
<g class="st2">
	
		<image style="overflow:visible;" width="1910" height="2432" xlink:href="9EA4BC80A26E0F99.png"  transform="matrix(0.24 0 0 0.24 178.9206 576.7739)">
	</image>
</g>
<polygon class="st7" points="215,613 601.1,874.8 215.3,1124.4 "/>
<polygon class="st7" points="469.6,555.5 161.8,939.7 161.4,241.7 "/>
<g>
	<polygon class="st8" points="253.2,462.9 248.1,460.7 248.3,831.7 253.3,825.4 	"/>
	<polygon class="st8" points="242.8,458.4 237.7,456.3 237.9,844.7 242.9,838.4 	"/>
	<polygon class="st8" points="263.6,467.4 258.5,465.2 258.7,818.8 263.7,812.4 	"/>
	<polygon class="st8" points="274,471.8 268.9,469.6 269.1,805.8 274.1,799.5 	"/>
	<polygon class="st8" points="294.8,480.7 289.7,478.5 289.8,779.9 294.9,773.5 	"/>
	<polygon class="st8" points="284.4,476.3 279.3,474.1 279.4,792.8 284.5,786.5 	"/>
	<polygon class="st8" points="180.3,431.7 175.3,429.6 175.5,922.5 180.6,916.2 	"/>
	<polygon class="st8" points="201.2,440.6 196.1,438.5 196.3,896.6 201.4,890.3 	"/>
	<polygon class="st8" points="305.2,485.2 300.1,483 300.2,766.9 305.3,760.6 	"/>
	<polygon class="st8" points="222,449.5 216.9,447.4 217.1,870.6 222.2,864.3 	"/>
	<polygon class="st8" points="232.4,454 227.3,451.8 227.5,857.7 232.6,851.3 	"/>
	<polygon class="st8" points="211.6,445.1 206.5,442.9 206.7,883.6 211.8,877.3 	"/>
	<polygon class="st8" points="190.8,436.2 185.7,434 185.9,909.6 191,903.2 	"/>
	<polygon class="st8" points="409.2,529.7 404.1,527.5 404.1,637.2 409.2,630.9 	"/>
	<polygon class="st8" points="419.6,534.1 414.5,531.9 414.5,624.2 419.6,617.9 	"/>
	<polygon class="st8" points="398.8,525.2 393.7,523 393.8,650.2 398.8,643.8 	"/>
	<polygon class="st8" points="315.6,489.6 310.5,487.4 310.6,753.9 315.7,747.6 	"/>
	<polygon class="st8" points="450.8,547.5 445.7,545.3 445.7,585.3 450.8,579 	"/>
	<polygon class="st8" points="388.4,520.8 383.3,518.6 383.4,663.1 388.4,656.8 	"/>
	<polygon class="st8" points="430,538.6 424.9,536.4 424.9,611.3 430,604.9 	"/>
	<polygon class="st8" points="440.4,543 435.3,540.8 435.3,598.3 440.4,592 	"/>
	<polygon class="st8" points="336.4,498.5 331.3,496.3 331.4,728 336.5,721.7 	"/>
	<polygon class="st8" points="378,516.3 372.9,514.1 373,676.1 378,669.8 	"/>
	<polygon class="st8" points="346.8,503 341.7,500.8 341.8,715 346.9,708.7 	"/>
	<polygon class="st8" points="326,494.1 320.9,491.9 321,740.9 326.1,734.6 	"/>
	<polygon class="st8" points="357.2,507.4 352.1,505.2 352.2,702 357.3,695.7 	"/>
	<polygon class="st8" points="367.6,511.9 362.5,509.7 362.6,689.1 367.7,682.7 	"/>
</g>
<polygon class="st5" points="161.4,241.7 164.9,425.1 469.6,555.5 "/>
<polygon class="st9" points="280.1,711.4 528.3,879.8 528.1,412.4 "/>
<line class="st7" x1="528.3" y1="879.8" x2="528" y2="213"/>
<polygon class="st8" points="605.6,410.9 528.1,335.1 543.9,394.5 "/>
<polygon class="st8" points="642.3,364.6 564.8,288.9 580.6,348.3 "/>
<polygon class="st8" points="678.3,321.7 600.8,245.9 616.7,305.3 "/>
<polyline class="st7" points="886.2,1124.1 280.1,711.4 673.6,236.1 "/>
<polygon class="st8" points="583.7,919.3 523.7,952.5 547.7,972 613.1,939.4 "/>
<polygon class="st8" points="622.7,942.9 562.7,976.1 586.7,995.6 652.1,963.1 "/>
<polygon class="st8" points="661.2,969.2 601.2,1002.4 625.2,1021.9 690.6,989.4 "/>
<polygon class="st8" points="697,995.6 637,1028.8 661,1048.3 726.4,1015.7 "/>
<polygon class="st8" points="734,1021.9 674,1055.1 698,1074.6 763.4,1042 "/>
<polygon class="st8" points="772,1048.2 712,1081.4 736,1100.9 801.4,1068.3 "/>
<polygon class="st10" points="553.4,442.7 553.6,727.9 915.1,727.7 "/>
<g class="st11">
	
		<image style="overflow:visible;" width="1808" height="1489" xlink:href="9EA4BC80A26E0F9B.png"  transform="matrix(0.24 0 0 0.24 517.3206 406.6139)">
	</image>
</g>
<polyline class="st7" points="491.8,456.1 141.7,86.3 0,86.4 "/>
<path class="st8" d="M673.6,253.7c-11,0-19.9-8.9-19.9-19.9c0-11,8.9-19.9,19.9-19.9c11,0,19.9,8.9,19.9,19.9
	C693.5,244.8,684.6,253.7,673.6,253.7z"/>
<path class="st8" d="M923,747.6c-11,0-19.9-8.9-19.9-19.9c0-11,8.9-19.9,19.9-19.9c11,0,19.9,8.9,19.9,19.9
	C943,738.7,934,747.6,923,747.6z"/>
<circle class="st8" cx="73.4" cy="715.1" r="19.9"/>
<path class="st8" d="M886.3,1139.8c-8.7,0-15.8-7.1-15.8-15.8c0-8.7,7.1-15.8,15.8-15.8c8.7,0,15.8,7.1,15.8,15.8
	C902,1132.7,895,1139.8,886.3,1139.8z"/>
<path class="st8" d="M530.8,233.9c-11,0-19.9-8.9-19.9-19.9c0-11,8.9-19.9,19.9-19.9c11,0,19.9,8.9,19.9,19.9
	C550.7,224.9,541.8,233.9,530.8,233.9z"/>
<line class="st7" x1="553.6" y1="727.9" x2="923" y2="727.7"/>
<polyline class="st7" points="157.9,237.5 254.8,141.1 129,0 "/>
<polyline class="st7" points="756.8,1313.4 388.8,1313.6 215.3,1124.4 73.6,1124.5 73.4,715.1 "/>
<polyline class="st7" points="756.7,1128.6 756.9,1348.7 980.7,1348.6 "/>
<polyline class="st7" points="903.1,727.7 902.8,179.6 971.1,179.5 "/>
<polyline class="st7" points="673.6,233.8 859.1,233.7 859.1,179.6 902.8,179.6 902.7,-0.4 "/>
<rect x="859.1" y="179.6" class="st9" width="43.7" height="104.1"/>
<rect x="756.8" y="1180.6" class="st12" width="168" height="168"/>
</svg>
