<?xml version="1.0" encoding="utf-8"?>
<!-- Generator: Adobe Illustrator 27.5.0, SVG Export Plug-In . SVG Version: 6.00 Build 0)  -->
<svg version="1.1" id="图层_1" xmlns="http://www.w3.org/2000/svg" xmlns:xlink="http://www.w3.org/1999/xlink" x="0px" y="0px"
	 viewBox="0 0 521.25 675.6" style="enable-background:new 0 0 521.25 675.6;" xml:space="preserve">
<style type="text/css">
	.st0{fill:#FFFFFF;}
	.st1{fill:#E6950A;}
	.st2{fill:none;}
	.st3{fill:#D8BCBB;}
</style>
<g>
	<g>
		<path class="st0" d="M315.13,426.46c10.36,0.09,20.26-2.03,29.67-6.38c21.91-10.13,37.82-26.49,49.62-47.28
			c1.8-3.18,2.01-6.35,1.52-9.55c-1.28-8.4-2.27-16.83-3.65-25.23c-2.65-16.15-6.48-32.02-10.95-47.7
			c-4.76-16.7-10.22-33.22-16.2-49.55c-6.39-17.43-12.81-34.83-23.09-50.49c-9.29-14.16-19.93-26.99-34.09-36.66
			c-12.16-8.3-25.11-13.98-39.85-16.62c-10.34-1.85-20.35-1.79-30.38-0.35c-19.96,2.87-36.71,12.78-51.35,26.11
			c-15.58,14.18-26.68,31.84-35.05,50.91c-7.91,18.02-14.5,36.63-20.47,55.43c-5.52,17.39-10.49,34.95-14.44,52.75
			c-2.67,12.05-4.52,24.29-6.18,36.53c-0.56,4.16-1.55,8.98,0.45,12.79c4.9,9.33,11.2,17.76,18.38,25.56
			c8.95,9.72,19.34,17.51,31.17,23.09c11.49,5.42,23.9,7.71,36.66,7.61c3.23-0.03,4.39-0.99,3.19-4.76
			c-3.59-11.26-6.73-22.66-8.94-34.3c-2.47-13.02-4.74-26.05-6.42-39.22c-1.27-9.97-2.2-19.99-2.35-29.93
			c-0.23-16.01-0.64-32.09,1.67-48.07c0.45-3.09,1-4.19,3.94-3.7c10.3,1.73,20.77,1.37,31.11,1.78c21.33,0.83,42.71,0.25,64.07,0.25
			c1,0,2.02,0.08,2.99-0.07c10.79-1.65,21.71-0.97,32.54-1.94c1.63-0.15,1.92,0.61,2.44,2.17c1.9,5.76,1.24,11.8,1.64,17.59
			c1.03,14.78,1.2,29.6-0.45,44.5c-1.35,12.18-2.31,24.38-4.19,36.53c-2.5,16.2-5.96,32.16-10.51,47.88
			C304.65,426.52,304.5,426.47,315.13,426.46z M282.43,392.09c-5.18-2.64-9.93-5.12-14.74-7.48c-3.77-1.86-7.67-1.74-11.56-0.34
			c-1.14,0.41-1.83,1.21-3.48,0.36c-4.46-2.29-9.22-1.94-13.66,0.32c-4.27,2.18-8.37,4.69-12.52,7.03
			c8.05,7.25,16.11,14.57,27.59,14.36C265.36,406.14,273.85,399.45,282.43,392.09z"/>
		<path class="st1" d="M247.21,483.01c27.05,1.48,53.62-1.11,79.37-9.92c11.78-4.03,23.55-8.57,33.69-15.76
			c18.06-12.8,43.38-11.72,61.15,0.78c9.15,6.44,17,14.19,23.87,22.97c0.47,0.6,0.58,1.49,0.86,2.25c-1.48,0.77-2.18-0.47-2.81-1.3
			c-1.74-2.34-3.15-1.73-4.69,0.19c-4.65,5.8-4.85,13.93-0.45,20.27c4.29,6.2,12.63,9.01,19.42,6.61c2.45-0.87,2.9-2.12,1.41-4.38
			c-2.91-4.43-5.73-8.93-8.38-13.52c-1.51-2.62-4.56-4.39-4.54-7.88c6.25,5.58,9.94,13,14.01,20.06
			c15.85,27.5,25.07,57.43,31.85,88.23c0.48,2.2,0.72,4.45,1.08,6.68c-3.01-1.44-2.66-4.34-2.97-6.93c-0.64-5.2-1.53-5.68-6.26-3.26
			c-5.96,3.05-10.56,10.86-9.77,16.57c0.96,6.94,7.75,14.39,14.27,15.66c4.59,0.89,5.97-0.57,5.79-5.29
			c-0.07-1.9-2.63-3.96,0.08-5.81c1.98,3.01,1.25,6.59,1.82,9.86c1.48,8.48,0.56,17.18,1.23,25.72c0.46,5.92,0.09,11.7-0.2,17.54
			c-5.67,0-11.33,0-17,0c0.17-9.35-5.87-15.89-14.79-16.02c-10.99-0.16-18.03,6.04-18.21,16.02c-21.33,0-42.66,0-63.99,0
			c2.41-8.73,0.29-15.81-6.07-20.3c-5.5-3.89-14.09-3.83-19.61,0.14c-6.29,4.52-8.64,12.03-6.31,20.17c-33.99,0-67.99,0-101.98,0
			c-0.38-1.91-0.6-3.88-1.18-5.73c-2.22-7.11-11.51-11.84-18.64-10.5c-9.32,1.74-12.51,8.59-15.17,16.23c-47.32,0-94.65,0-141.97,0
			c1.17-3.56,2.39-7.03,2.08-10.95c-0.52-6.42-4.83-12.28-10.77-13.96c-7.82-2.22-14.47-0.07-18.74,4.66
			c-5.94,6.59-5.25,13.18-1.56,20.25c-7.67,0-15.33,0-23,0c-0.01-8.32-0.22-16.64,0.01-24.95c0.32-11.44,2.05-22.73,3.84-34.04
			c3.13-19.85,7.84-39.28,14.73-58.11c8.62-23.57,19.33-46.19,35.34-65.74c10.99-13.42,23.31-25.73,40.94-30
			c13.9-3.36,27.47-1.45,39.77,6.27c19.73,12.38,41.07,20.47,63.96,24.41c8.68,1.5,17.35,3.46,26.28,2.73
			C245.74,482.93,246.47,482.97,247.21,483.01z M127.09,579.66c-0.01,8.76,8.28,17.66,16.5,17.71c8.61,0.05,19.1-8.93,18.23-16.39
			c-1.27-10.88-5.23-17.01-17.99-17.69C133.2,562.73,126.86,570.35,127.09,579.66z M275.1,616.58c0.51-12.52-8.13-16.46-17.7-17.26
			c-8.31-0.69-16.9,8.03-16.17,16.55c0.74,8.55,5.58,17.49,16.22,17.55C266.28,633.46,276.34,625.88,275.1,616.58z M198.63,523.35
			c-9.51,0.02-17.62,7.17-17.52,15.6c0.11,9.03,8.74,18.58,16.96,18.48c9.53-0.12,17.06-7.71,17.05-17.59
			C215.11,529.16,209.28,523.33,198.63,523.35z M83.78,588.25c10.91-0.09,18.71-7.25,18.36-17.23
			c-0.37-10.57-6.84-16.35-17.03-16.62c-9.45-0.25-17.21,7.79-16.83,17.21C68.57,579.26,73.47,588.92,83.78,588.25z M377.19,546.35
			c-9.62-0.03-17.07,6.96-17.14,16.09c-0.07,8.97,8.26,18.5,16.31,17.86c10.07-0.79,17.66-7.1,17.82-17.68
			C394.31,554.23,386.28,545.04,377.19,546.35z M121.31,492.69c-0.08-8.49-8.01-17.59-16.05-17.19c-9.3,0.47-17.94,6.03-18.12,17.4
			c-0.16,9.97,9.06,17.45,16.93,17.28C113.56,509.98,121.4,502.95,121.31,492.69z M338.54,536.35c10.29,0.01,17.74-7.1,17.7-16.91
			c-0.03-9.66-7.47-17.1-17.03-17.05c-9.03,0.05-16.83,7.92-17.23,16.73C321.65,526.52,330.32,537.25,338.54,536.35z M400.22,536.36
			c10.67-0.08,18.05-7.16,17.94-17.25c-0.09-8.16-5.53-16.29-17.43-16.66c-8.96-0.28-16.29,8.11-16.82,17.55
			C383.53,526.79,393.3,537.49,400.22,536.36z M155.26,527.32c0.21-9.63-6.6-16.81-16.13-16.97c-10.14-0.17-17.63,6.48-18.07,15.56
			c-0.53,10.95,9.66,18.34,15.91,18.28C147.4,544.09,155.1,537.21,155.26,527.32z M232.12,585.09c0.73-10.13-6-17.36-16.35-17.74
			c-10.17-0.37-17.37,9.16-17.62,16.86c-0.27,8.26,8.57,17.05,16.77,17.2C223.44,601.58,232.94,594.94,232.12,585.09z
			 M418.05,597.27c-0.72,7.4,7.9,16.91,15.1,17c11.09,0.13,19.05-6.95,18.92-16.71c-0.13-10.34-6.23-16.87-17.03-17.29
			C425.77,579.9,418.08,587.84,418.05,597.27z M193.12,633.03c0.01-10.88-5.98-16.78-17.02-16.76c-9.23,0.01-16.13,7.02-16.24,16.49
			c-0.1,8.65,7.84,17.52,15.74,17.6C185.65,650.45,193.11,643.07,193.12,633.03z M335.08,636.71c2.17-9.78-6.92-16.78-16.47-17.38
			c-7.82-0.49-17.01,7.55-16.8,16.73c0.17,7.75,6.36,17.28,16.85,17.26C328.09,653.29,335.09,646.35,335.08,636.71z M377.04,475.15
			c-0.54,10.76,9.14,18.03,16.79,18.1c7.76,0.07,17.46-8.31,17.28-17.19c-0.22-10.9-8.98-17.32-17.06-16.84
			C384.18,459.8,377.05,465.95,377.04,475.15z M274.87,539.34c-9.3,0.09-16.95,7.51-16.77,16.28c0.19,9.3,8.26,16.94,17.8,16.87
			c10.08-0.08,16.26-7.08,16.21-18.35C292.07,544.96,285.41,539.25,274.87,539.34z M335.1,580.32c0.05-10.37-6.29-16.82-16.27-17.19
			c-8.57-0.32-17.37,8.37-16.99,16.54c0.44,9.41,7.77,17.72,16.67,17.69C327.28,597.33,337.13,589.06,335.1,580.32z M111.14,624.87
			c-0.13-11.45-5.79-16.67-17.93-16.54c-9.28,0.1-15.15,6.83-15.24,16.97c-0.09,9.86,8.71,16.69,15.33,16.64
			C104.64,641.86,112.43,634.99,111.14,624.87z M460.06,550.46c1.5-9.88-6.04-16.63-16.77-16.92c-8.42-0.23-16.89,7.42-16.44,16.67
			c0.47,9.71,7.59,17.14,17.27,17.11C453.64,567.29,460.1,560.46,460.06,550.46z M249.66,493.36c-9.28-0.04-19.47,8.82-19.17,16.65
			c0.28,7.4,10.79,17.32,18.46,17.36c6.61,0.03,17.04-6.45,16.77-18.33C265.56,502.65,258.9,491.99,249.66,493.36z M403.08,609.72
			c0-11.87-5.25-16.45-18.82-16.43c-7.89,0.01-14.29,7.15-14.31,15.96c-0.03,9.66,7.19,17.03,16.77,17.11
			C396.27,626.44,403.09,619.51,403.08,609.72z M34.81,580.35c-3.24-0.89-4.93,0.71-5.55,4.36c-1.18,6.92-2.89,13.76-3.94,20.69
			c-0.88,5.76,4.95,10.38,10.91,8.82c2.36-0.62,4.68-1.66,6.78-2.91c7.02-4.15,9.55-11.61,7.05-20.16
			C48.14,584.59,42.25,580.28,34.81,580.35z M181.94,484.09c0.13,6.73,4.58,12.92,11,15.35c8.36,3.16,18.73-1.94,21.36-10.52
			c2.26-7.36,2.17-7.62-5.37-9.2c-6.08-1.28-12.08-2.74-17.96-4.78c-6.58-2.29-8.45-0.95-9.02,6.17
			C181.88,482.09,181.94,483.1,181.94,484.09z M145.87,476.41c6.49,0.09,14.15-5.03,16.42-10.9c0.55-1.43,1.28-2.75-0.59-3.82
			c-8.32-4.77-16.38-10.05-26.13-11.76c-2.78-0.49-3.63,0.54-4.88,2.67C125.04,462.25,135.37,475.98,145.87,476.41z M293.72,500.43
			c10.57,0.24,18.21-6.55,19.33-17.26c0.24-2.3-0.44-4.17-3.26-3.57c-9.65,2.05-19.31,4.08-29.19,4.72
			c-2.11,0.14-1.7,1.57-1.56,2.87C279.74,493.36,287.42,500.29,293.72,500.43z M53,536.35c5.79-0.35,11.18-3.81,13.97-10.52
			c2.63-6.32,1.49-12.38-2.97-17.64c-3.39-4-5.47-3.8-7.68,0.84c-3.27,6.86-6.38,13.81-9.45,20.77
			C44.41,535.41,45.16,536.41,53,536.35z"/>
		<path class="st2" d="M43.13,662.33c-3.69-7.07-4.38-13.66,1.56-20.25c4.26-4.73,10.92-6.89,18.74-4.66
			c5.93,1.69,10.25,7.55,10.77,13.96c0.32,3.92-0.91,7.4-2.08,10.95C62.46,662.33,52.8,662.33,43.13,662.33z"/>
		<path class="st2" d="M351.07,662.33c-2.33-8.14,0.02-15.65,6.31-20.17c5.52-3.97,14.11-4.02,19.61-0.14
			c6.36,4.5,8.48,11.58,6.07,20.3C372.4,662.33,361.74,662.33,351.07,662.33z"/>
		<path class="st2" d="M214.1,662.33c2.66-7.64,5.85-14.49,15.17-16.23c7.13-1.33,16.42,3.39,18.64,10.5
			c0.58,1.85,0.8,3.82,1.18,5.73C237.43,662.33,225.76,662.33,214.1,662.33z"/>
		<path class="st2" d="M447.06,662.33c0.17-9.98,7.22-16.18,18.21-16.02c8.92,0.13,14.95,6.67,14.79,16.02
			C469.05,662.33,458.05,662.33,447.06,662.33z"/>
		<path class="st1" d="M315.13,426.46c-10.63,0.01-10.48,0.06-7.48-10.32c4.54-15.72,8.01-31.68,10.51-47.88
			c1.87-12.15,2.84-24.35,4.19-36.53c1.65-14.9,1.48-29.72,0.45-44.5c-0.4-5.79,0.26-11.83-1.64-17.59
			c-0.51-1.56-0.8-2.32-2.44-2.17c-10.83,0.98-21.75,0.3-32.54,1.94c-0.98,0.15-2,0.07-2.99,0.07c-21.36,0-42.74,0.58-64.07-0.25
			c-10.35-0.4-20.81-0.04-31.11-1.78c-2.94-0.49-3.5,0.61-3.94,3.7c-2.31,15.98-1.9,32.06-1.67,48.07
			c0.14,9.94,1.08,19.96,2.35,29.93c1.68,13.17,3.95,26.2,6.42,39.22c2.21,11.64,5.35,23.04,8.94,34.3c1.2,3.77,0.04,4.74-3.19,4.76
			c-12.76,0.1-25.18-2.19-36.66-7.61c-11.83-5.58-22.22-13.37-31.17-23.09c-7.18-7.8-13.48-16.23-18.38-25.56
			c-2-3.81-1.01-8.63-0.45-12.79c1.66-12.23,3.51-24.48,6.18-36.53c3.94-17.8,8.91-35.35,14.44-52.75
			c5.97-18.8,12.56-37.41,20.47-55.43c8.37-19.06,19.47-36.73,35.05-50.91c14.65-13.33,31.39-23.25,51.35-26.11
			c10.04-1.44,20.05-1.5,30.38,0.35c14.75,2.64,27.69,8.31,39.85,16.62c14.15,9.66,24.79,22.5,34.09,36.66
			c10.28,15.66,16.7,33.06,23.09,50.49c5.99,16.33,11.44,32.84,16.2,49.55c4.47,15.68,8.3,31.55,10.95,47.7
			c1.38,8.39,2.37,16.83,3.65,25.23c0.49,3.2,0.28,6.38-1.52,9.55c-11.79,20.79-27.7,37.15-49.62,47.28
			C335.39,424.43,325.5,426.55,315.13,426.46z"/>
		<path class="st1" d="M282.43,392.09c-8.58,7.36-17.07,14.04-28.37,14.25c-11.48,0.21-19.54-7.1-27.59-14.36
			c4.14-2.34,8.25-4.85,12.52-7.03c4.43-2.27,9.2-2.61,13.66-0.32c1.65,0.85,2.35,0.05,3.48-0.36c3.89-1.4,7.79-1.52,11.56,0.34
			C272.49,386.98,277.24,389.45,282.43,392.09z"/>
		<path class="st2" d="M494.2,609.21c-2.72,1.85-0.16,3.91-0.08,5.81c0.18,4.72-1.2,6.19-5.79,5.29
			c-6.52-1.27-13.31-8.72-14.27-15.66c-0.79-5.72,3.81-13.52,9.77-16.57c4.73-2.42,5.62-1.94,6.26,3.26
			c0.32,2.58-0.03,5.49,2.97,6.93C492.75,601.99,495.22,605.42,494.2,609.21z"/>
		<path class="st3" d="M247.21,483.01c-0.74-0.04-1.47-0.08-2.21-0.12C245.78,482.2,246.51,482.21,247.21,483.01z"/>
		<path class="st2" d="M127.09,579.66c-0.24-9.31,6.1-16.93,16.74-16.37c12.76,0.68,16.72,6.8,17.99,17.69
			c0.87,7.47-9.62,16.45-18.23,16.39C135.37,597.33,127.09,588.43,127.09,579.66z"/>
		<path class="st2" d="M275.1,616.58c1.24,9.3-8.82,16.88-17.65,16.84c-10.64-0.05-15.48-8.99-16.22-17.55
			c-0.73-8.52,7.86-17.24,16.17-16.55C266.97,600.12,275.62,604.06,275.1,616.58z"/>
		<path class="st2" d="M198.63,523.35c10.65-0.02,16.48,5.81,16.49,16.49c0.01,9.88-7.52,17.47-17.05,17.59
			c-8.22,0.1-16.86-9.45-16.96-18.48C181.01,530.52,189.12,523.37,198.63,523.35z"/>
		<path class="st2" d="M83.78,588.25c-10.31,0.67-15.21-8.99-15.51-16.65c-0.37-9.42,7.39-17.46,16.83-17.21
			c10.2,0.28,16.67,6.05,17.03,16.62C102.48,581,94.68,588.16,83.78,588.25z"/>
		<path class="st2" d="M377.19,546.35c9.08-1.31,17.12,7.88,16.99,16.28c-0.15,10.57-7.75,16.89-17.82,17.68
			c-8.05,0.63-16.38-8.89-16.31-17.86C360.12,553.31,367.57,546.32,377.19,546.35z"/>
		<path class="st2" d="M121.31,492.69c0.09,10.26-7.75,17.29-17.24,17.49c-7.87,0.17-17.1-7.31-16.93-17.28
			c0.18-11.37,8.82-16.93,18.12-17.4C113.29,475.1,121.23,484.19,121.31,492.69z"/>
		<path class="st2" d="M338.54,536.35c-8.22,0.9-16.89-9.83-16.55-17.23c0.4-8.81,8.2-16.68,17.23-16.73
			c9.56-0.05,17,7.39,17.03,17.05C356.28,529.25,348.83,536.36,338.54,536.35z"/>
		<path class="st2" d="M400.22,536.36c-6.92,1.14-16.69-9.57-16.32-16.36c0.53-9.44,7.86-17.83,16.82-17.55
			c11.9,0.37,17.34,8.5,17.43,16.66C418.27,529.2,410.89,536.28,400.22,536.36z"/>
		<path class="st2" d="M155.26,527.32c-0.16,9.89-7.86,16.76-18.29,16.87c-6.25,0.06-16.44-7.33-15.91-18.28
			c0.44-9.08,7.93-15.73,18.07-15.56C148.65,510.52,155.47,517.69,155.26,527.32z"/>
		<path class="st2" d="M232.12,585.09c0.82,9.85-8.68,16.49-17.2,16.32c-8.2-0.16-17.04-8.94-16.77-17.2
			c0.25-7.7,7.45-17.23,17.62-16.86C226.12,567.73,232.85,574.96,232.12,585.09z"/>
		<path class="st2" d="M418.05,597.27c0.03-9.43,7.72-17.37,17-17c10.8,0.42,16.9,6.95,17.03,17.29
			c0.13,9.76-7.83,16.84-18.92,16.71C425.96,614.18,417.33,604.67,418.05,597.27z"/>
		<path class="st2" d="M193.12,633.03c-0.01,10.04-7.47,17.42-17.51,17.32c-7.9-0.07-15.84-8.95-15.74-17.6
			c0.11-9.47,7.01-16.47,16.24-16.49C187.14,616.25,193.12,622.14,193.12,633.03z"/>
		<path class="st2" d="M335.08,636.71c0,9.64-7,16.58-16.42,16.6c-10.49,0.03-16.68-9.51-16.85-17.26
			c-0.2-9.18,8.98-17.22,16.8-16.73C328.16,619.93,337.25,626.93,335.08,636.71z"/>
		<path class="st2" d="M377.04,475.15c0.01-9.2,7.14-15.35,17.01-15.94c8.08-0.48,16.85,5.94,17.06,16.84
			c0.18,8.88-9.53,17.26-17.28,17.19C386.19,493.18,376.5,485.91,377.04,475.15z"/>
		<path class="st2" d="M274.87,539.34c10.54-0.1,17.2,5.62,17.24,14.8c0.05,11.27-6.13,18.27-16.21,18.35
			c-9.54,0.08-17.61-7.57-17.8-16.87C257.91,546.86,265.56,539.43,274.87,539.34z"/>
		<path class="st2" d="M335.1,580.32c2.02,8.74-7.82,17.01-16.59,17.04c-8.89,0.03-16.23-8.28-16.67-17.69
			c-0.38-8.16,8.41-16.86,16.99-16.54C328.81,563.5,335.15,569.95,335.1,580.32z"/>
		<path class="st2" d="M111.14,624.87c1.28,10.12-6.5,16.99-17.84,17.07c-6.63,0.05-15.43-6.78-15.33-16.64
			c0.1-10.13,5.97-16.87,15.24-16.97C105.36,608.2,111.02,613.42,111.14,624.87z"/>
		<path class="st2" d="M460.06,550.46c0.03,10-6.42,16.83-15.93,16.86c-9.68,0.03-16.8-7.4-17.27-17.11
			c-0.45-9.25,8.02-16.9,16.44-16.67C454.03,533.83,461.56,540.58,460.06,550.46z"/>
		<path class="st2" d="M249.66,493.36c9.24-1.37,15.91,9.29,16.05,15.68c0.28,11.87-10.15,18.36-16.77,18.33
			c-7.67-0.04-18.17-9.96-18.46-17.36C230.19,502.17,240.38,493.32,249.66,493.36z"/>
		<path class="st2" d="M403.08,609.72c0,9.8-6.81,16.72-16.37,16.64c-9.57-0.08-16.79-7.45-16.77-17.11
			c0.03-8.81,6.42-15.94,14.31-15.96C397.83,593.27,403.08,597.85,403.08,609.72z"/>
		<path class="st2" d="M34.81,580.35c7.44-0.07,13.33,4.24,15.25,10.81c2.5,8.55-0.03,16.01-7.05,20.16
			c-2.11,1.24-4.43,2.29-6.78,2.91c-5.96,1.57-11.79-3.05-10.91-8.82c1.06-6.94,2.76-13.77,3.94-20.69
			C29.88,581.05,31.57,579.45,34.81,580.35z"/>
		<path class="st2" d="M181.94,484.09c0-1-0.07-2,0.01-2.99c0.57-7.12,2.44-8.45,9.02-6.17c5.87,2.04,11.88,3.5,17.96,4.78
			c7.54,1.58,7.63,1.84,5.37,9.2c-2.63,8.58-13,13.68-21.36,10.52C186.53,497.01,182.07,490.82,181.94,484.09z"/>
		<path class="st2" d="M145.87,476.41c-10.5-0.43-20.83-14.17-15.18-23.81c1.25-2.13,2.1-3.16,4.88-2.67
			c9.75,1.71,17.81,6.99,26.13,11.76c1.87,1.07,1.14,2.39,0.59,3.82C160.02,471.39,152.36,476.5,145.87,476.41z"/>
		<path class="st2" d="M293.72,500.43c-6.3-0.14-13.99-7.08-14.67-13.24c-0.14-1.29-0.56-2.73,1.56-2.87
			c9.88-0.64,19.53-2.67,29.19-4.72c2.82-0.6,3.5,1.27,3.26,3.57C311.94,493.88,304.29,500.68,293.72,500.43z"/>
		<path class="st2" d="M53,536.35c-7.84,0.06-8.59-0.94-6.12-6.56c3.07-6.96,6.17-13.9,9.45-20.77c2.22-4.64,4.3-4.84,7.68-0.84
			c4.45,5.26,5.6,11.32,2.97,17.64C64.19,532.54,58.8,536,53,536.35z"/>
		<path class="st2" d="M446.11,483.3c-0.02,3.5,3.02,5.26,4.54,7.88c2.65,4.59,5.47,9.09,8.38,13.52c1.48,2.26,1.04,3.51-1.41,4.38
			c-6.79,2.41-15.13-0.41-19.42-6.61c-4.4-6.34-4.19-14.47,0.45-20.27c1.54-1.92,2.95-2.53,4.69-0.19c0.62,0.84,1.32,2.07,2.81,1.3
			C446.13,483.33,446.11,483.3,446.11,483.3z"/>
	</g>
</g>
</svg>
