<?xml version="1.0" encoding="utf-8"?>
<!-- Generator: Adobe Illustrator 27.5.0, SVG Export Plug-In . SVG Version: 6.00 Build 0)  -->
<svg version="1.1" id="Layer_1" xmlns="http://www.w3.org/2000/svg" xmlns:xlink="http://www.w3.org/1999/xlink" x="0px" y="0px"
	 viewBox="0 0 1222 1544" style="enable-background:new 0 0 1222 1544;" xml:space="preserve">
<style type="text/css">
	.st0{fill:#265EDD;}
	.st1{fill:#DB0B29;}
</style>
<path class="st0" d="M671.8,354c-3.8-7.6-9.5,1.9-9.5,1.9S467.4,739.3,354.6,977l252.8-1.3c0,0,28.5-98.8,39.8-185.8
	C666.2,644,675.6,361.6,671.8,354z"/>
<path class="st1" d="M740,975.7l119.5,5.7c0,0,12-59.9,17.1-113.7c5.7-60.7,0.3-110.9,0-111.8c-0.3-1-3.8-15.2-11.3-1.3
	c-3.6,6.7-26.6,60-56.9,113.1C779.6,917.9,751.4,958.6,740,975.7z"/>
<ellipse class="st1" cx="294.6" cy="558.7" rx="159.2" ry="157.3"/>
<path d="M874.5,996.7c105.4,4.3,187.8,9.3,187.8,9.3s6.4-0.2,6.4-5.3c0-6.4-5.1-6.6-5.1-6.6s-75.7-4.9-186.8-10.6
	c4.7-27.8,11.5-66,13.1-98.9c4.3-90.5,11.7-175.8-5.7-181.8c-14.4-5-46.2,64.4-70.8,108c-29,51.3-101.6,165-101.6,165l-77.7-1.9
	c3.8-9.5,32.6-142.4,41.7-246.4c10.6-120.8,22.6-400.9,13.3-422.7c-5.7-13.3-19-11.4-26.5,5.7c-7.6,17.1-252.1,489-331.7,657.7
	c-1.5,3.1-2.9,6.2-4.4,9.3c-69.9,2.8-125.6,6.9-156.2,10.4c-1-4.2-2.7-8.4-5-12.4c-13.2-22.9-42.7-30.7-65.8-17.3
	c-23.1,13.3-31.1,42.7-17.9,65.6c13.2,22.9,42.7,30.7,65.8,17.3c14.2-8.2,22.7-23.8,24.1-38.9c55.4-9.2,143.2-11.6,149.1-11.7
	c-72.2,153.4-114.5,243.2-106.1,350c7.3,92.8,53.8,127,80.4,140.3c28.2,14.1,87.3,24.4,87.3,24.4s18,6.4,20.5-15.4
	c1-8.9-10.3-11.6-10.3-11.6s-92.4-5.1-125.4-70.3c-38.3-75.6-32.8-140.3,10.8-257.8c10.4-28,37.3-86.7,72.2-160
	c66.5-0.9,139.1-0.8,251,0.2c-17.5,61.6-32.4,107.2-31.4,120c1.9,24.6,13.3,26.5,30.3,20.9c14.1-4.7,68.4-56.1,128.6-139.2
	c47.7,0.8,84.7,2.4,124.6,3.9c-27.4,105.6-58.5,179.3-60.6,213c-2.2,34.5,14,45.5,33,47.4s68.2-5.7,68.2-5.7s10.8-0.8,9.5-9.8
	c-1.3-9-12.1-6.6-12.1-6.6s-52.1,14.3-69.5-0.7c-11.2-9.7,0-56.9,13.3-96.7C843.8,1110,862.2,1061.5,874.5,996.7z M356.4,976.3
	C469.3,740.6,656.7,371,656.7,371s9.5-24.6,13.3-17.1c3.8,7.6-6.5,309.3-24.6,437.9c-9.2,65-25.3,129.6-40.3,183.7
	C516.5,973.1,430.1,973.9,356.4,976.3z M740.1,975.7c9.7-13.8,16.8-24.5,26.5-39.8C840.5,820.3,867.1,752,867.1,752s9.5-7.7,9.5,5.7
	c0,15.2,0,136.5-20.2,223.3C818,979.9,776.1,977.6,740.1,975.7z"/>
<path d="M1077.5,469.6c0,0,0.2-8,5.3-8s4.2,8,4.2,8s-15.5,333.9-15.6,334.5c-0.1,2.8-1.2,6.6-4,6.6c-5.1,0-5.1-7.5-5.1-7.5
	L1077.5,469.6z"/>
<path d="M1136.3,580.7c0.7-1.3,1.7-2.5,3-3.3c1.4-0.9,3.3-1.5,5.3-0.3c3.9,2.6,1.2,6.2,1.2,6.2s-72,98.6-102.4,134.6
	c-23.9,28.4-38.4,49.7-43.5,57.5c-1.1,1.6-3.4,1.9-4.7,0.5l0,0c-1.8-1.8-2.1-4.5-0.7-6.6c6.6-10.3,26.5-40.7,45.1-60.9
	C1061.9,684.3,1125,601.6,1136.3,580.7z"/>
<path d="M998.6,573.1l1.9-1.9c1.6-1.6,4.2-1.4,5.6,0.4c18.7,25.2,133.2,176.2,133.9,182.3c0.7,6.2-4.3,5.1-6.5,4.3
	c-0.7-0.3-1.3-0.7-1.7-1.3c-8.9-12.2-114.4-157.9-133.3-178.7C997.2,576.7,997.2,574.5,998.6,573.1z"/>
<path d="M982.7,671.5c0-1.6,1.3-2.9,2.9-2.9h199.9c0,0,7.8-0.4,6.5,6c-1,5.2-6.5,5.3-6.5,5.3l-200-5.6
	C983.9,674.4,982.7,673.1,982.7,671.5L982.7,671.5z"/>
</svg>
