<?xml version="1.0" encoding="utf-8"?>
<!-- Generator: Adobe Illustrator 27.5.0, SVG Export Plug-In . SVG Version: 6.00 Build 0)  -->
<svg version="1.1" id="图层_1" xmlns="http://www.w3.org/2000/svg" xmlns:xlink="http://www.w3.org/1999/xlink" x="0px" y="0px"
	 viewBox="0 0 595.3 673.1" style="enable-background:new 0 0 595.3 673.1;" xml:space="preserve">
<style type="text/css">
	.st0{fill:#070808;}
	.st1{fill:#FFFFFF;}
	.st2{fill:#71ADE2;}
	.st3{fill:#FCFCFC;}
	.st4{fill:#AF756D;}
	.st5{fill:#F2CA68;}
	.st6{fill:#F0B105;}
	.st7{fill:#D62204;}
	.st8{fill:#027AFA;}
</style>
<path class="st0" d="M129.2,236.4c2.1,0.6,2-0.7,2-2.1c-0.1-3.9-0.1-7.8-0.2-11.8c0-1,0-2,0-3c-0.3-5.7,1.9-11.3,1-17
	c0.9-1.2,1.5-2.4,1-4c0.2-2.7,1.9-5.2,1-8c0.9-1.2,1.5-2.5,1-4c0.1-0.7,0.2-1.3,0.2-2c0.9-0.4,0.9-1.1,0.8-1.9c1-5.7,2-11.4,3-17.1
	c0.1-1.7,1.7-3.1,1.2-5c1.9-5.7,3.9-11.3,5.8-17c1.3-2.2,2.8-4.4,3.2-7c1.8-2.4,3.2-4.9,4-7.8c1.7-1.2,2.6-3,3.1-5
	c3.6-3.5,6.7-7.6,9.5-11.7c5-7,12.7-10.7,18.5-16.5c0.8-0.1,1.6,0,1.9-1c1.3-0.7,2.7-1.5,4-2.2c0.9,0.1,1.3-0.3,1-1.3l-0.1,0.1
	c1.6,0.1,2.8-1.1,4.1-1.8c1.1-0.5,2.4-0.6,3-1.8c0.3-0.1,0.6-0.1,1-0.2c1.8,0.3,2.9-0.8,4-1.8c0.7-0.1,1.3-0.2,2-0.3
	c4.4-1.6,8.7-3.1,13.1-4.7c3.4-0.2,6.8-0.5,10-2c8.9-1.3,17.9-2.8,26.9-3.2c0.7,0,1.3,0,2,0c0.8,0.2,1.7,0.4,2-0.7
	c7.6,0,15.3,0.1,22.9,0.1c2.6,1.7,5.4,0.6,8,0.7c1,0.1,2,0.1,3,0.2c1.2,1.7,3,0.9,4.5,0.9c8,0.2,15.8,1.8,23.5,3.8
	c1.3,0.1,2.6,0.2,4,0.3c9.7,3.5,19.5,6.7,28.7,11.7c17.5,9.5,31.2,22.6,40.7,40c12,22,16.5,45.9,17.5,70.7
	c0.3,7.8,0.1,15.6,0.2,23.4c0,1.7,0,3.3,0,5c-2.2,3.5-2,16.3-2.2,17.9c-0.2,1.9-1,4-0.4,5.5c0.6,1.5,2.2-0.3,3.4-0.6
	c3.3-0.9,6.7-2.6,9.4,1.1c2.6,3.7,5.5,7.2,7.5,11.4c0.9,2,0.8,3.4-0.1,5.3c-5.2,11.4-10.2,23-15.6,34.4c-2.2,4.5-2.2,22.9-2,24.4
	c0.8,6.5-2.5,10.9-7.5,14.5c-4.4,3.1-9.3,2.8-11-0.8c6.5,1.8,14.9-3,15.1-9.1c0.1-6.4,1-12.9-0.7-19.2c-0.6-2.3-0.1-4.8,0.8-7.2
	c2.5-7,6.3-13.4,8.1-20.7c1.4-1.8,2.7-3.6,3-6c0.8-1.7,1.4-3.6,2.5-5c4.5-5.8,3.4-11.2-0.8-16.6c-2.2-2.8-4.2-4.4-7.7-2
	c-2,1.4-4.3,2.3-6.4,3.4c-5,2.7-8,7-9.5,12.3c-0.4,1.5-0.6,3.5,1.2,4.5c1.9,1.1,3-0.4,4.1-1.6c1.3-1.4,2.7-2.8,5-5.2
	c-3.4,9.4-7,11.1-12.3,7c0.3-1.3-0.8-1.9-1.2-2.9c0.6-2.6,1.2-5.1,1.8-7.7c-3-0.7-5,1.7-7.4,2.7c-1.5,0.6-2.8,1.5-4.2,2.2
	c-2.5,1-5,1.9-7,3.6c-3.3,0.9-6,2.7-9,4.3c-0.7-0.2-1,0.2-1.1,0.8c-0.7,0.1-1.6-0.2-1.9,0.9c-1.5,0.2-2.9,0.9-4,2
	c-5.2,1.9-10.1,4.7-14.9,7.4c-0.6-0.2-0.9,0.1-1,0.7c-0.3,0.1-0.6,0.2-1,0.3c-1.1,0.4-2.4,0.6-3.1,1.8c-0.8,0.1-1.8,0.1-1.8,1.2
	c0,8.3-4.5,14.6-9.2,20.8c-1.4,0.9-3.3,1.2-4,3c-1.9-0.3-2.5,1.5-3.9,2.2c-0.7-0.2-1,0.2-1.2,0.8c-3.2-0.2-5.8,1.7-8.9,2.1
	c-8.1,1.1-14.9-2-21.8-5.1c-0.7-0.7-1.3-1.3-2-2c-6-6-10.3-12.9-11.1-21.6c-0.2-2-1.9-2.7-3.7-3.4c-9.7-3.9-19.8-4.5-29.9-3.9
	c-5.1,0.3-8.6,2.6-10.4,8.1c-4.8,15-9.9,30-12.9,45.5c-1.8,9,1,15.1,9.7,18.6c4.6,1.8,9.4,3.4,14.2,4.6c8.3,2,17.6-1.2,21.2-6.8
	c0.8-0.1,1.7,0,1.5-1.2l0-0.2c0.8,0.1,1.4-0.2,1.8-0.9l0,0.1c1.9,0.6,1.9-2,3.4-2c1.2,0.5,1.8-0.4,2.6-1c0.1-0.3,0.2-0.7,0.3-1
	l0.4,0c0.6,2.2,2.5,0.5,3.7,1.2l0,0c-0.9,1.4-2.5,1.7-4,2.2c-0.7-0.2-0.9,0.2-1.1,0.7c-1.5-0.1-2.5,0.7-3.1,1.9
	c-3,0.6-4.2,3.3-6.2,5.2c0.1,1.3-3.8,2.9-0.2,3.7c4.4,1,8.9,2.5,13.6,2c2.4,1.2,5,2.1,6.9,4.2c0.2,0.7-0.1,1.7,1,2
	c0.1,1.6,1,2.9,2,4.1c0.1,1,0.2,1.9,0.2,2.8c0.9,4,0.9,8.1,0.9,12.1c0,2-0.2,3.2-2.6,2.8c-1.9-0.3-3.8-0.2-5.8-0.5
	c-6.2-1.1-12.5-1.7-18.8-2.4c-1.2-0.1-2.8-0.6-2.8,1.6c0.1,3.3-0.9,6.4-2.5,9.2c-1.2,2.2,0.2,2.5,1.6,2c8.1-3,16.5-1.7,24.8-1.9
	c4.9-0.1,9.5,1.7,14,3.4c0.7,0.3,2.3,0.2,2,1.6c-0.3,1.7-2,0.5-2.9,1c-1.4-1.4-3.2-1.1-4.9-1.2c-5.8-2.1-11.7-2.2-17.7-1.7
	c-3.1-0.8-5.8,0.5-8.4,1.7c-1.3,0.2-2.7,0.1-3.8,0.6c-6,2.5-11.7,2.9-17.9-0.3c-7.3-3.8-15.5-4.5-23.7-4.2c-5,0.2-10.1,0-15.1,0.6
	c14.4-5.5,28.8-4.6,43.7,0.6c-0.3-5.2-2.7-9.3-3.9-13.5c-0.5-1.9-6.1-0.5-9.4-0.6c-2.3-0.1-4.5,0.3-6.8,0.7
	c-3.6,0.6-7.9,1.5-11.1-0.5c-3.1-1.9,1.1-5.1-0.1-7.7c-0.1-0.1-0.1-0.3-0.1-0.5c0.4-2,1.6-3.7,1.2-5.9c2.8-4.9,5.6-9.7,12.1-10.4
	c0.9-0.1,1.7-1.5,2.5-2.2c-1.7-0.1-1.7-2-3.4-2.7c-4-1.7-9.1-2.4-10.9-7.2c-1.4-3.6-3.1-3.2-6-1.7c-2.6,1.4-3.6,3.5-4.4,6
	c-1.6,1.7-2.6,3.8-3,6.1l0,0c-0.5,0.2-1,0.4-0.7,1.1c-1.6,2.7-2.3,5.6-2.3,8.8c-0.6,0.2-0.9,0.5-0.7,1.2c-0.1,0.6-0.2,1.3-0.4,2
	c-1.7,2.1-0.6,5.3-2.8,7.2c-1-0.4-1-1.1-0.8-2c1.6-7.1,3.3-14.1,4.9-21.2c1.2-0.2,0.9-1.2,1-2c1.7-4.6,4.6-8.5,8-12
	c0.6-0.1,1.3-0.1,1.9-0.2c1.7,0.2,3.3,0.5,3-2.2c-0.2-2.9-0.1-5.8,0.8-8.6c0.7-3.7,1.3-7.3,2-11c0.2-3.4,2.6-6.4,2.2-10
	c0.4-0.1,1-0.1,0.7-0.7c-0.1-0.1-0.8,0-1.2,0.1c-2.2,1.3-4.3,2.5-6.5,3.8c-0.6-0.2-0.9,0-1.1,0.6c-0.9,0.6-2.3-0.3-3,1
	c-4.2,1.8-8.6,0.9-12.9,1.4c-1.3-0.1-2.6-0.2-3.9-0.3l0,0c-4.8-2.3-9.6-4.5-13.8-7.9c-0.1-0.3-0.3-0.6-0.6-0.8
	c-3.1-3.7-5.6-7.9-7.6-12.3c-1.1-4.1-0.2-8.8-4-12c-5.6-5.5-10-12.1-16.6-17.6c-0.9,3.2-1.8,5.7-1.5,8.5c0.7,8.3,1.8,16.7,1.9,25
	c0.1,7.1,1.1,14.1,1.4,21.2c0.1,3.5-0.2,7.5,1.7,11c4.6,8,9.3,15.9,13.9,23.9c0,2.3,2,3.4,3,5c0.3,2.1,1.9,3.6,3.1,5.2
	c-0.3,1.2,0.9,1.8,1.3,2.7c-0.6,0.1,0.4,3.3-1.4,0.8c-4.3-6.3-8.5-12.7-12.7-19c-1.7-2.6-3.1-5.5-5.8-8.1c-0.2,1.2-0.5,1.8-0.4,2.4
	c1.6,7.7,3.2,15.4,4.9,23c2.6,11.4,4.2,22.9,7.9,34c0.4,2,0.9,4,1.3,6c2,6.8,3.7,13.6,6.7,20c0.3,0.7,0,1.6,1,2
	c-0.3,2.5,1.3,4.4,2.2,6.4c5.8,13.1,12.6,25.6,24.1,36c-0.9-5.5-4.3-9.5-4.3-14.5c1.5,1.6,2.4,3.5,3.2,5.6c2.8,7,5.7,14.1,11.8,18.7
	c7.2,5.4,15.2,9.5,24,11.8l0,0c0.1,0.6,0.4,1,1,0.8c5.2,1.5,10.5,3,16,3.2c3.9,2,8,0.5,12,0.8c4.1,0.9,8-0.6,12-0.9
	c4.4,0.4,8.3-1,12.1-2.9c2.1,0.4,4-0.8,5.9-1.2c4.4-1.1,8.2-3.4,12-5.8c1.9-0.5,3.9-1,5-3c1.4-0.1,2.5-0.7,3-2c2.9,0,3.3-3.7,6-4
	c4.8-3.3,7.7-7.8,8.6-13.6c0.6-3.4,0.9-6.7,1.6-10.1c2.4-11.4,3.4-22.9,3.6-34.5c0-2.4,1.9-4.5,1-7c0-2.7,0-5.3,0-8c0-1,0-2,0-3
	c0-1.3,0-2.7,0-4c1.6-1.8,1.2-3.9,1-6c0.1-1.3,0.3-2.6,0.1-3.9c-1.1-8.7,0.3-16.5,8.1-21.9c0.7-0.7,1.4-1.4,2-2
	c5.2-4.3,10.4-8.6,15-13.6c3.9-4.2,7.9-8.3,12.9-11.2c-5.9,8.6-14.2,14.9-21,22.8c-2.1,2.5-3.7,5.8-6.9,7.3c-6.4,3.1-9.7,7.7-8.2,15
	c0.4,1.7,0.4,3.5,0.6,5.3c-0.7,4.5-0.5,9.1-0.3,13.7c-1.8,21.5-2.2,43.2-8.3,64.3c1.8-1,3.4-2,4.4-3.5c7-10.9,13.7-22,19-34
	c5.3-12.1,8.8-24.7,12.6-37.2c5.8-19.2,11-38.6,16.6-57.9c0.5-1.8-0.5-2-1.2-2.7c2.8-1,1.5-4.9,4.3-6c0.6,3.3,2,6.2,4,8.9
	c-1.4,0.3-3.1,0.2-3.4,2.2c-0.8,4.4-2.9,8.4-3.9,12.6c-2.5,10.6-5.5,21.1-8.3,31.6c-1.9,7.1-3.3,14.5-5.8,21.4
	c-2.6,7.1-5.2,14.1-7.8,21.2c-0.7,2-0.1,3.5,1.3,5.3c4.2,5.4,10.5,8,15.1,12.7c6.4,6.3,13.1,12.3,20,18.1
	c6.6,5.6,12.6,11.9,19.4,17.5c7.9,6.5,14.2,14.9,21.5,22.2c3.8,3.8,9.1,5.8,13.9,7.5c4,1.4,8.4,2.5,12.4,4.1
	c11.6,4.5,21.5,12.4,33.2,16.6c1.7,0.6,1.9,2.1,1.8,3.7c-8.5,0.2-15.1-4.8-22-8.4c-8.4-4.3-16.8-8.5-25.6-11.7
	c-0.8-0.3-1.8-1.5-2.3,0.2c-0.3,0.9-0.3,2,0.6,2.7c5.6,4.1,7.8,11,12.8,15.8c3.4,3.3,2.6,7.2-0.6,11c-5,5.9-9.6,12.2-14.9,17.9
	c-3,3.2-2.2,5.6,0.2,8.4c5.1,5.7,10.2,11.5,15.5,17.1c1.8,1.9,2.3,3.8,2.3,6.2c-0.1,7.9-1.7,15.2-4.5,22.8c-2,5.4-3,11.6-3.8,17.6
	c-0.8,6-3.7,11.6-4.9,17.5c-0.9,4.5-4.6,8.1-3.9,13c-1.7,0-3.3,0-5,0c1.4-4.5,2.9-8.9,4.1-13.4c5-18.6,10.7-37,13.3-56.1
	c0.4-2.7,0.3-4.2-1.4-6c-6.1-6.7-12-13.5-18.3-20.1c-2.1-2.2-1.5-3.6-0.1-5.4c5.9-7.6,11.7-15.3,17.9-22.7c2-2.4,1.6-4.1,0.1-6
	c-6.7-8.5-12.8-17.5-20.3-25.2c-18.1-18.7-36.1-37.4-56.2-54l0,0c-6.5-6-13-12-20.6-17.5c0.9,7.6,1.8,14.5,2.6,21.5
	c0,1.7,0.1,3.3,0.1,5c-0.4,9.7-0.2,19.5-1.4,29.2c-1.7,14.2-2.3,28.5-4.8,42.7c-1.5,8.5-3,17-3.6,25.5c-0.3,4.2-2.2,8.3-1.2,12.6
	c-1,0.9-1,1.9-0.3,3c-1.1,0.3-0.8,1.3-1,2c-3,13.1-5.9,26.3-8.9,39.4c-3.5,15.3-7.2,30.6-12,45.6c-1.3,0-2.7,0-4,0
	c4.1-16.3,9.3-32.4,12.5-48.9c1.8-9.3,4.8-18.4,5.5-27.9c3.2-7.7,2.5-16,4-24.4c-7.3,6.1-14.7,12.1-22,18.2
	c-3.8,2.9-7.9,5.4-11.1,9.1c-7.7,5.9-15.5,11.9-23.4,17.9c-2.9-14-5.8-27.7-8.7-41.5c-1.9,3.2-2.7,6.4-3.8,9.5
	c-0.8,2.3-0.4,3.6,1.6,5.4c1.8,1.6,5.1,2.1,4.8,5.9c-0.9,11.2-0.1,22.5,0.1,33.8c-0.4,6-0.5,12,0,18c-1.2,4.4,0.7,8.4,1.7,12.5
	c-0.5,1.2,0.7,1.6,0.9,2.5c-0.4,3.5,2,6.5,1.8,10c-1.3,0-2.7,0-4,0c-0.7-2.6-1.6-5.2-1.9-7.8c-0.2-1.8-0.9-2.4-2.4-2.2
	c-2.6,0.2-5.1-0.2-7.7-0.9c-3.9-1-5.9,0.5-5,4.8c0.4,2,0.7,4.1,1,6.1c-1.3,0-2.7,0-4,0c-0.3-1.1-0.8-2.2-0.9-3.3
	c-0.8-9-0.8-9-10-11.4c-0.8-0.2-1.5-0.6-2.3-0.8c-3.7-1.1-5.8-0.2-5.6,4.1c0.1,3.8-0.1,7.6-0.2,11.4c-1.3,0-2.7,0-4,0
	c0-4.7,0.1-9.3,0-13.9c0-1.2,0.6-3-1.6-2.9c-2.4,0.1-4.5-0.8-6.7-1.1c-2.6-0.4-4.1,0.1-3.7,3.3c0.7,4.9,1.4,9.8,1,14.7
	c-1.3,0-2.7,0-4,0c-0.4-13.7-2.4-27.2-2-41c0-0.3,0-0.7,0-1c-2.5-12.9,1.2-24.6,7.9-35.4c4-6.4,4.2-13.3-0.5-20.5
	c-0.4,0.5-1,1-1.2,1.5c-5.4,11.9-10.7,23.8-16.1,35.8c-0.7,1.5-0.9,3.8-2.3,4.1c-2,0.3-2.4-2.2-3.4-3.6c-3.8-5.3-7.5-10.7-11.3-16.1
	c3.5,20.3,9.1,39.8,14.5,59.4c1.5,5.6,4.7,10.7,4.4,16.8c-42,0-84,0-125.9,0c0.3-1.6-0.8-2.7-1.5-4c-6.9-13.9-13.9-27.8-18.7-42.7
	c-1.2-3.7-3.6-7.5-2-11.4c1.7-4,4.2-7.7,6.3-11.4c6.6-11.5,13.3-22.9,19.9-34.3c0.6-0.2,1.1-0.6,0.8-1.2c-0.1-0.2-0.6-0.4-0.9-0.5
	c-12.8-0.1-25.6-0.3-38.4-0.1c-3.3,0-4.4-1.2-3.5-3.9c1.9-6.1,3.3-12.3,5.8-18.3c3.2-7.6,8.1-14.3,11.3-21.9c3.1-4.2,6.8-8,8.8-13
	c0.6-0.3,1.9,0.4,1.7-1.1c1.1-1.5,2.2-2.9,3.5-4.6c-2.6-0.6-4.4,0.3-6.3,1.6c-0.3,0-0.7,0.1-1,0.2c-1.4-0.7-2,0.6-3,1
	c-5.4,0.5-10.2,2.7-15,5c-2.7-0.5-4.8,1-7,2c-0.8-0.2-1.7-0.5-2,0.7c-3.3,1.2-6.9,1.3-10,3.3c-1.4,1.3-3.7,0-5,1.7
	c-4.3,1.4-8.7,2.8-13,4.3c-0.3,0-0.7,0-1,0c-0.7-0.2-1,0.2-1.1,0.8c-2.7,0.3-5,2.3-7.9,2c0-1.3,0-2.7,0-4c6.5-2,13.1-4,19.6-6
	c4.2-1.3,134.4-47.9,134.4-53.2 M145.1,238.4c-0.6,0.1-1,0.3-0.7,1c-0.1,0.7-0.2,1.3-0.4,2c-1.3,3-2.5,6.1-3.8,9.1
	c-1.3,2.8-1,4.9,1.5,7.1c3.7,3.4,7,7.2,10.4,10.9c0.6,0.7,1.3,1.3,1.9,2c4.5,5,9,10,13.6,14.9c0.8,0.9,1.5,2.6,3.1,2
	c1.6-0.6,1.6-2.3,1.6-3.9l0,0c1.6-2.5,3.1-5.2,4.9-7.5c0.9-1.2,1.6-2.5,1-3.6c-3.7-6.3-1.7-14.4-6.4-20.4c3.4,4.1,6.3,2.4,9-0.9
	c4-4.8,9.3-6,15.2-5.7c2.5,0.1,5-0.1,7.5,0c7.9,0.4,14.4,4.4,19,10c3.4,4.1,7.6,9.9,2.7,16.3c-0.3,0.4-0.2,1.4,0.1,1.9
	c1.4,2.6,2.9,5.2,4.5,7.7c2,3.1,3.7,3.8,5.7-0.3c2.9-5.8,4.6-12,6.4-18.1c0.8-2.5,1.4-6-0.7-8.1c-4-3.9-8.2-7.7-13.2-10.7
	c-6.7-4-14.1-6.3-21-9.8c-3.7-1.9-8.4-4.7-13.1-1.9c-5.4,3.2-10.8,6.7-15.9,10.5c-3,2.2-7.9,3.6-6.3,9.1c-2.5-2.4-4.3-4.2,0.2-7
	c6.7-4.2,12.8-9.2,19.1-14c2.5-1.9,5-3,8.1-2.4c0.4,1.1,1.3,0.8,2.1,0.7c3.1,1.6,6.4,2.8,9.9,3.3l0,0c4,1.7,8.1,3.3,12.1,5
	c1.1,1.1,2.4,1.9,4,1.9c1.7,1.6,3.7,2.6,5.9,3.1c0.5,0.8,0.9,1.7,2.1,1.6c3.6,2.8,7.4,5.4,10,9.3l0.2,0.4c1.7,3,0.3,6.4,1,9.5
	c-0.1,0.6-0.2,1.3-0.4,1.9c-1.9,5.1-3.8,10.2-5.8,15.2c-1.6,4-0.7,5.2,3.8,5c11.1-0.6,22.3-0.8,32.8,4c2.6,1.2,2.1-0.7,2.5-2
	c1.3-4.8,3.1-9.6,6.5-12.9c5.8-5.8,11.7-11.4,17.1-17.8c6.7-8,16.7-10.2,27.2-9.6c7.6,0.4,13.5,3.1,15.3,9.8
	c1.8,6.7,3.4,14.4-3.1,19.6c-4.5,3.6-5.1,6.9-2,11.4c0.1,0.1,0.1,0.3,0.1,0.5c0,2.5,1.5,2.1,3,1.4c5-2.5,10-5.1,15-7.7
	c0.7,0.2,0.9-0.2,1.1-0.8l0,0c1.6-0.1,2.9-0.9,3.9-2.1c3.9-1.1,7.4-3.3,11-5.2c0.8,0.2,1-0.4,1.2-0.9l0.3-0.1
	c0.9-0.4,1.9-0.7,2.8-1.1c3.3-1.7,6.5-3.3,9.8-5c2.4-1.1,5-1.8,7-3.7c2.2-1,4.3-2.2,6.5-2.9c2.6-0.8,2.8-2.9,2.2-4.7
	c-2.4-7.4-3.8-15.1-7.1-22.2c-0.3-1.4-0.7-2.8-1-4.2c-2.3-6.9-4.6-13.9-7-20.8c0-0.6,0-1.2,0-1.8c-0.3-1.1-0.7-2.3-1-3.4
	c-0.8-5.3-2.3-10.4-1.8-15.9c1.9-1.1,0.7-2.7,0.8-4.1c0.3-1,1.6-1.7,1-3c1.4-6.6,4.9-12.2,7.6-18.1c0.3,0,0.4-0.2,0.4-0.5
	c5-3.8,4.6-8.4,1.7-13.1c-0.7-1.1,0-2.8-1.5-3.3c-0.1-1.6-0.8-2.9-1.9-4c-2-5.1-4.1-10.1-8-14.1c0-0.8-0.1-1.7-1.1-2
	c-1.3-2.9-3.4-5.1-5.9-7c0.1-1.4-0.7-2.1-1.8-2.7c-8.8-10.3-20.2-17-32-23.3c-5.6-3-10.5-2.8-15.1,1.5c-0.6,0.7-1.9,0.2-2.2,1.4
	c-9.3,4.4-18.1,9.9-28,13.1c-4.3,0.8-8.6,1.5-13,2.3c-3.5,1.7-7.4,0.4-11,1c-3,0-5.9,0-8.9,0c-4.4-0.3-8.8-0.7-13.1-1
	c-3.7-2.1-7.8-2.4-12-2.2c-1.1-1.7-2.6-0.7-4-0.8c-0.3-0.1-0.6-0.2-1-0.3c-6-2.8-12.6-3.5-19-5c-0.6-1.5-2-0.6-3-0.9
	c-4.3-2.1-9.2-2.2-13.5-4c-6.3-2.7-11.7-1.7-16.5,3.2c-0.7-0.2-0.9,0.3-1.1,0.8c-9.7,6.4-17.4,14.8-23.7,24.5
	c-0.1,0.4-0.1,0.8-0.2,1.2c-7,9-11.2,19.3-14.1,30.2c-1.6,0.6-0.6,2-1,3c-1.2,2.4-1.3,5.1-2.2,7.6c-0.9,2.6-1.2,5.2,0,7.5
	c2.9,5.7,6.1,11.3,9.2,16.9c0.4,2.3,0.8,4.7,1.2,7c0,2,0,4,0,6c-0.4,4-0.9,8-1.3,12c-1.6,0.9-0.5,2.9-1.7,4c0,0.7,0,1.3,0,2
	C148.5,228.4,146.8,233.4,145.1,238.4L145.1,238.4z M274,535.5L274,535.5c1.4,1.9,3.5,3.6,5.5,2.6c1.6-0.8-0.7-3.5-0.2-4.8
	c0.9-2.6-3.1-4.8-0.2-7.1c3.3,0,6.7,0,10,0c3-0.7,6.1-1.3,9.1-2c2.8-2,6.6-1.9,8.9-4.7c0.6-0.2,1.3-0.2,1.8-0.6
	c12.2-9.3,21.7-20.9,29.6-33.8c2-3.2,4.5-6.5,5.5-10.9c-1,0.4-1.6,0.4-1.8,0.7c-5.2,6.3-10.8,12.1-17.2,17.3
	c-5.6,4.6-12.2,7.2-18,11.4c-2.4,0.9-4.7,1.9-7.1,2.8c-1,0.4-2.4-0.6-2.9,1c-0.8,0.1-1.6,0.2-2.4,0.3c-0.5,0.3-1,0.7-1.6,1
	c-3.5-0.1-6.7,1.1-10,2c-1.7,0-3.6-1-5,0.7c-6,0.1-12,0.2-18,0.3c-0.7,0-1.3,0-2,0c-1-0.1-2-0.2-3-0.3c-0.7-1.5-1.9-0.8-3-0.7
	c-6-1.7-11.9-3.4-17.9-5c-2.7-1.1-5.4-2.1-8.1-3.2c-0.3-1.1-1.2-0.9-1.9-1c-18.1-9.9-31.8-24.4-42.5-42c4.3,11,9.2,21.5,15.8,31
	c3.6,5.2,6.4,11,12.4,14.1c0.2,0.7-0.1,1.7,1,2c8.3,10.1,19.1,16.3,31.2,20.7c0.6,0.1,1.3,0.2,1.9,0.3c3.9,2.1,8.3,2.7,12.7,3
	c-0.6,1.6-1.1,3-1.7,4.7c3.9,0,7.5,0,11,0c0.3,0,0.7,0,1,0C269.4,535.3,271.7,535.4,274,535.5z M260.7,572.9
	c0.1-0.1,0.2-0.2,0.2-0.3c0-0.2-0.1-0.5-0.2-0.7c-0.1-1.4-0.1-2.7-0.2-4.1v0c-0.1-1.7-1.4-1.5-2.5-1.6c-5.4-0.4-10.5,1.3-15.9,1.3
	c1.4,5.7,2.7,11,4,16.2c0.3,1.2,1,3.1,1.7,3.2c3.8,0.3,7.7,1.2,11.2-0.3c2.8-1.2,1.2-4.5,1.4-6.8
	C260.7,577.6,260.6,575.2,260.7,572.9z M264.6,585.8c4.1,3.1,8.5,1.5,12.8,0.6c0.8-0.2,1.5-0.2,1.8-1.3c1.4-5.5,3.7-10.7,3.9-16.5
	c0-0.9,0.2-2.3-1.2-2.2c-5.6,0.4-11.4-1.4-16.9,1C264,573.5,264.4,579.6,264.6,585.8z M252.5,621.8c0.1,5.7,0.1,11.3,0.2,17l-0.1,0
	c-0.8,3.4,1.3,4.7,4.1,5.2c3,0.5,6.1,0.8,9.2,1.2c2.5,0.3,3.4-0.6,3.4-3.3c-0.2-8.6,0.1-17.3-0.1-25.9c-0.1-4,2.4-8.7,0.7-11.5
	c-2.2-3.4-7.7,0-11.4-1.6c-2.2-1-2.9,0.2-3.1,1.6C254.4,610.3,252.3,615.9,252.5,621.8L252.5,621.8z M363,465.7c0-2.8-0.1-5.7,0-8.5
	c0.1-2.6,0.1-6.7-1.6-7.1c-3.5-0.8-1.7,3.4-2.8,5.1c-5.8,9.5-8.8,20.5-15.1,29.8c-1.4,2.1-3.4,4-4.5,6.5
	c-3.7,8.5-9.9,15.6-16.2,21.7c-10,9.6-21.9,17.7-37.1,17.1c-1.8-0.1-3,0.6-2.6,2.6c2.6,11.9,4.6,24,8.3,35.5
	c1.8,5.5,1.6,11.1,3.2,16.5c1.7,5.6,3,11.6,3.8,17.6c0.3,2.4,1.4,3.5,4.4,1.8c10.3-5.7,18.4-14.3,27.8-21.2
	c5-3.7,10.3-7.4,14.8-11.9c4.2-4.1,10.6-6.4,10.6-13.9c-0.1-6.4,1.3-12.8,2.5-19c2-10.6,2.7-21.2,3.3-31.8
	C362.7,493,361.8,479.3,363,465.7z M217.1,606.5c1.9-2.9,3.7-5.1,4.9-7.6c2.9-6.4,5.1-13.2,8.3-19.5c6.9-13.4,12.6-27.3,19-40.9
	c1.5-3.1,0.9-4.7-2.4-5.9c-6.5-2.3-13.4-3.2-19.5-7.3c-10.5-7-19.7-15.5-27.9-24.9c-7.2-8.3-12.4-18.1-16.7-28.3
	c-0.5-1.2-1.1-2.9-2.6-2.6c-1.8,0.3-1.2,2.3-1,3.4c1.2,8.1,1.5,16.3,4.6,24.1c0.5,1.4,1.2,2.8,1.1,4.2c-0.1,8.7,2.8,16.9,4.1,25.3
	c1.8,11.4,4.2,22.7,6.7,34c2.1,9.7,3.8,19,9.1,27.7C208.6,594.6,214.6,599.2,217.1,606.5z M283,294.6c0.1,2.5-0.3,5.1,0.4,7.4
	c3.7,11.8,19.5,23.8,34.1,17.6c12.1-5.1,20.1-15.1,18.5-28.3c-0.3-2.5-0.7-5.7-2.3-7.3c-1.4-1.4-4.4,0.5-6.6,1.2
	c-0.6,0.2-1.3,0.1-2,0.1c-10.5,0.7-19.4-2.4-25.7-11.2c-2.1-3-4.3-3.1-6.8-0.8C286.6,279.1,282.3,285.7,283,294.6z M228.1,294.7
	c0.3-4.9-0.9-9.8-3.6-14.5c-2.1-3.6-3.6-4-7.5-1.6c-10.5,6.7-21.8,7.4-32.5,0.4c-3-2-3.9-1.1-5.3,1.1c-5.7,8.9-5.6,21,0.7,29.7
	c7,9.7,18.7,14.3,31.3,9.7C221.1,315.9,228.1,306.4,228.1,294.7z M130.3,309.8c-3.5-11.8-15.9-19.4-19.8-30.5
	c-1.4-4,0.4-10.2,4.3-14.9c2.1-2.6,4.2-5,6.4-7.5c3.4-3.9,6.8-8,12.7-2.7 M286.2,626.3c0,0-0.1,0-0.1,0c0-4.5,0-9,0-13.4
	c0-9.5-0.3-9.7-9.8-8.7c-1.8,0.2-2,0.8-2.2,2.4c-1.7,11.8-0.6,23.8-1,35.6c-0.1,2.5,0.5,3.8,3.5,4.2c2.1,0.3,4.1,0.7,6.2,0.9
	c3,0.3,3.6-1,3.5-3.6C286.1,637.9,286.2,632.1,286.2,626.3z M235,626.7c0,2.5-0.1,6,0,9.5c0.2,5.2,3.8,5.2,7.7,5.2
	c3.9,0,5.6-1.7,5.6-5.7c-0.1-10.5-1.3-21.2,4.2-30.9c0.2-0.4-0.2-1.3-0.5-1.7c-2-2.6-12.2-1.8-13.4,1.3
	C235.9,611.1,234.4,618.2,235,626.7z M285.4,561c-0.6-1.6-1.4-2.9-1.4-4.4c0.1-7.1-2.9-12.3-9.5-15.4c-2.8-1.3-9.4-1.2-9.2,0.5
	c0.7,6-2.5,11.8-0.4,18c0.8,2.5,1.7,2.5,3.5,2.6C274,562.8,279.5,561.3,285.4,561z M243,561.6c4.7,3,9.4-0.2,14,0.7
	c2.7,0.5,3.9-0.9,3.9-3.6c0-5.5,0.1-10.9,0.2-16.4c0-1.3-0.2-2.5-1.7-2.6c-3.3-0.1-6.9-0.9-8.4,3.8C249,549.7,246.5,555.8,243,561.6
	z M276.1,591.3c-4.1,0-8-0.1-11.9,0c-3.7,0.1-4.4,3.6-4.7,5.9c-0.2,2,2.8,1.7,4.7,2.1C270.7,600.6,274.1,597.6,276.1,591.3z
	 M257.2,591.3c-3.7,0-6.9-0.1-10.2,0c-3.3,0.1-4.3,3.3-4.6,5.4c-0.4,2.7,2.6,1.2,4.1,1.5C251.9,599.5,255.4,597.3,257.2,591.3z
	 M328.1,265c-0.1,0.5-0.2,1-0.4,1.4c-0.5,0.9-2.4,1.3-1.1,2.6c0.7,0.7,1.9,1.2,3,1.4c1.7,0.3,1.7-1.5,1.9-2.3
	c0.6-2.3,0.7-4.6-0.3-7.1c-1-2.5-2.2-4.3-5-4.4c-4.1-0.1,0.9,1.4-0.4,2.8C322.3,263.4,322.7,263.7,328.1,265z M270.1,651.6
	c-0.5-2.2-2-2.3-3.8-2.4c-3.7-0.3-7.5-0.7-11.1-1.4c-1.3-0.2-2.5-1.3-3,0.6c-0.4,1.7,0,3.6,2.1,3.7c4.2,0.2,8.3,0.8,12.4,1.9
	C267.9,654.4,270,653.8,270.1,651.6z M336.3,262c-0.1,4-0.3,7.3-2.8,10.1c-1.1,1.2-0.5,3.1,1.1,4.3c1.8,1.4,2.3-0.4,3.1-1.1
	C343.8,269.9,343.7,267.4,336.3,262z M211.8,253.1c-9.5-5.6-23.4-4.8-29.1,1.9C192.7,251.6,202.2,251.8,211.8,253.1z M281.3,600.2
	c2.8-0.2,6,0.9,5.8-3.5c-0.1-3-2.2-5-4.5-4.9c-3.3,0.2-4.7,3.7-5.2,6.3C276.7,601.3,280.1,599.5,281.3,600.2z M202.2,274.6
	c2.4,0.2,4.1-1.1,5.9-2.1c1.1-0.6,2.3-0.8,1.9-2.3c-0.4-1.2-1.7-0.6-2.6-0.7c-2.8-0.5-5.3,1.8-8.2,0.6c-1.5-0.6-3.8-3.2-4.9-0.3
	c-1,2.5,2.1,3.2,3.9,4C199.5,274.3,200.9,274.3,202.2,274.6z M310.8,268.5c3.3,6.8,8.7,9.3,15,4.6
	C320.6,272.1,316.8,268,310.8,268.5z M282.3,656.2c1.5-0.6,4,1.3,4.6-1.1c0.8-3.3-2.6-2.9-4.2-3.4c-2.1-0.7-4.5-0.4-6.8-0.5
	c-1.2-0.1-1.9,0.3-1.8,1.6c0.1,1.1-0.3,2.4,1.5,2.4C277.9,655.2,279.9,657,282.3,656.2z M213.1,262c0.1-2.5-1-4.2-3.6-4.4
	c-2.8-0.2-4.3,1.4-4.4,4.2c-0.2,4.3,3.7,2.2,5.6,3.2C212.7,266.1,213,263.7,213.1,262z M238.9,645.3c-0.8,0.5-2.7-0.8-2.8,1.5
	c0,0.9-0.5,2.2,0.9,2.4c3.1,0.5,6.1,0.8,9.2,1.1c1.7,0.2,1.8-0.9,1.8-2.2c0-1.2-0.4-2-1.7-1.8C243.9,646.9,241.7,645.1,238.9,645.3z
	 M251.2,398.9c0.2,0.7-1.3,4.4,2.4,4.3c3.8-0.1,2.8-4.4,3.3-6.7c0.8-3.4-2.5-1.9-4.1-2.2C249.4,393.6,250.9,396,251.2,398.9z
	 M340.9,258.9c-2.4-6.9-9.6-9.8-15.5-7.2C330.6,253.6,335.9,254.7,340.9,258.9z M199.8,278.8c-4.3-0.2-7-2.9-9.5-5.7
	c-1.5-1.7-2.7-2.2-4.3-0.1c-1.9,2.5,0.9,2.8,1.8,3.4C191.3,279.1,195.3,280,199.8,278.8z M192,260.5c0.6,1.3-0.8,3.4,1.3,3.8
	c1.9,0.4,1.4-1.7,1.9-2.8c0.4-0.8,1.3-1.4,1.9-2.2c0.6-0.9,2-1.5,1.6-2.9c-0.4-1.3-1.6-0.7-2.5-0.9c-1.6-0.4-3.1,0-3.7,1.6
	C192.1,258.2,192.2,259.5,192,260.5z M185.4,260.6c-1.8,3.1-6.6,3.4-4.6,7.9c0.3,0.7,0.1,2.4,2.2,1.5
	C187.1,268.2,187.1,265.2,185.4,260.6z M219,272.5c-2.6,0.5-3.8-2-4.2-0.8c-1.7,4-6,4.2-9.4,7.1C210.8,278.4,214.2,275.6,219,272.5z
	 M308.1,273.3c-1.7-1.1-0.8-4.5-3.9-4.9c-1-0.1-2.1,0.6-1.8,1.7c0.6,2.4,1.8,4.6,4.5,5.2C308,275.7,308.2,274.6,308.1,273.3z
	 M315.6,257.9c-1.9-1.1-3.1,0.1-3.9,0.8c-1,0.8-1.9,2.2-1.6,3.8c0.2,0.8,0.9,0.9,1.5,0.9c1.9,0.1,1.4-1.9,2.3-2.7
	C314.8,259.9,315.2,258.8,315.6,257.9z"/>
<path class="st1" d="M368.2,471.3c0-1.7-0.1-3.3-0.1-5c2.6-4.8,7.2-4,11.6-4c2.1,0,4.3,0,6.4,0l0,0c-0.3,2.8,0.5,5.5,0.1,8.3
	c-1,6.2,0.6,7.7,6.9,7.8c6,0.1,8.6,2.6,8.9,8.6c0.4,7.4,0.4,7.4,7.5,7.4c1.7,0,3.3,0.1,5,0c2.6-0.2,3.4,1,3.5,3.5
	c0.1,3.9-1.8,8.9,0.9,11.5c2.7,2.6,7.6,0.6,11.6,0.9c1.6,0.1,7.8,9,7.1,10.4c-0.2,0.4-0.5,0.9-1,1.1c-1.5,0.7-3.5,1.3-2.3,3.5
	c1.1,2,2.9,0.5,4.5,0.3c6.7-1,11.1,2.9,11.1,9.6c0,6.2-0.2,12.3,0.1,18.5c0.2,3.8-1.2,5.1-4.9,4.7c-3.9-0.4-7.3-0.1-10,3.8
	c-3,4.5-1.3,10.9,4,12.2c1.4,0.3,3.2,1.2,3,2.2c-0.9,4.2,2.6,5.4,4.8,7.2c3.4,3,4,6.5,3.1,10.6c-0.3,1.4-0.6,3.2-0.1,4.4
	c1.5,3.4,4.6,6.7,0,10c1.2,7.3,0.3,14.5,0,21.8c-0.2,6.4-0.1,12.9,0,19.3c0,4.2-1,9.1-3.3,11.5c-3,3.1-4.3,6.1-4.7,10
	c-35.6,0-71.3,0-107,0c4.8-15,8.5-30.3,12-45.6c3-13.1,5.9-26.2,8.9-39.4c0.9-0.1,2.1,0.4,2.5-0.7c0.4-1.1-0.8-1-1.5-1.3
	c-0.7-1.1-0.7-2.1,0.3-3c3.3-2.6,4-8.6,10-7.5c0.1,0,0.7-0.8,0.7-1.2c-0.4-7.5,1.5-15.1-1-22.6c-0.9-2.7-2.6-6,1.7-7.9
	c2.5-1.1,1.4-2.8,0.4-4.5c-0.8-1.3-2.9-0.8-3.4-3.1c5,0.3,4.7-3,4.6-6.3c-0.1-2.5-0.1-5,0-7.5c0.4-15.2-1.3-30.4,0.9-45.5
	C371.3,473.2,370.6,471.6,368.2,471.3z"/>
<path class="st2" d="M503.2,541.2c0.7,0.6,1.4,1.4,2.5,1.1c0.1,1,0.6,1.8,1.2,2.6c2.7,3.5,7.2,3.5,10.6,5.7
	c7.2,4.4,14.5,8.4,22.1,12.1c12.1,6,23.8,12.9,35.8,19c2.2,1.1,3.3,4.4,6.5,3.6c0,27.5-0.1,55,0.1,82.5c0,3-0.6,3.6-3.6,3.6
	c-42.2-0.1-84.3-0.1-126.4-0.1c-0.8-4.9,3-8.5,3.9-13c1.2-5.9,4.1-11.6,4.9-17.5c0.8-6,1.8-12.2,3.8-17.6c2.8-7.5,4.3-14.9,4.5-22.8
	c0-2.4-0.5-4.3-2.3-6.2c-5.3-5.5-10.3-11.4-15.5-17.1c-2.5-2.7-3.2-5.1-0.2-8.4c5.2-5.7,9.8-12,14.9-17.9c3.2-3.8,4.1-7.6,0.6-11
	c-4.9-4.8-7.1-11.7-12.8-15.8c-1-0.7-0.9-1.8-0.6-2.7c0.5-1.7,1.5-0.5,2.3-0.2c8.9,3.2,17.3,7.3,25.6,11.7
	C488.1,536.4,494.7,541.4,503.2,541.2z"/>
<path class="st1" d="M18.2,525.3c2.9,0.3,5.2-1.8,7.9-2c0.4-0.3,0.7-0.5,1.1-0.8c0.3,0,0.7,0,1,0c0.4,1.5,13-4.2,13-4.2
	c1.3-1.7,3.6-0.5,5-1.7c3.4,2.9,8.5,1.2,10-3.3c0.3-1.2,1.2-0.9,2-0.7c1.1,3,3.6,1.8,5.5,1.6c2.1-0.2,1.4-2.2,1.5-3.6
	c4.8-2.3,9.6-4.4,15-5c0.1,1.2,0.8,1.8,2,1.8l0,0c-0.3,2.3-2.4,3.9-3.8,4.8c-4.3,2.7-2.3,6-2,9.3c-3.2,7.6-8.1,14.2-11.3,21.9
	c-2.5,6-3.9,12.2-5.8,18.3c-0.9,2.8,0.2,4,3.5,3.9c12.8-0.2,25.6,0,38.4,0.1c0,0.6,0,1.2,0.1,1.8c-6.6,11.4-13.3,22.9-19.9,34.3
	c-2.2,3.8-4.7,7.4-6.3,11.4c-1.6,3.9,0.8,7.7,2,11.4c4.8,14.9,11.8,28.8,18.7,42.7c0.6,1.3,1.8,2.4,1.5,4c-25.1,0-50.2-0.1-75.3,0.1
	c-3.3,0-3.7-1-3.7-3.9C18.2,620.1,18.2,572.7,18.2,525.3z M77.3,508.6c-0.1,0-0.3,0-0.4,0.1c0,0,0.1,0.2,0.1,0.4
	c0.1,0,0.3,0,0.4-0.1C77.5,508.9,77.4,508.7,77.3,508.6z"/>
<path class="st1" d="M293.3,661.3c-0.2-0.8-1.5-1.3-0.9-2.5c1.5-1.7,3.1-3.3,4.5-5.2c1-1.4,1.6-4,0-4.2c-2.7-0.3-3.6-3.2-6.2-3.2
	c-0.5-6-0.4-12,0-18c2.6-0.8,0.5-4.3,2.3-5c5.6-2,9-6.8,13.7-9.9c4.5-3,6.9-8.6,13.5-9.2c3-0.3,2.8-5.8-0.2-7
	c3.2-3.6,7.3-6.2,11.1-9.1c3.5,2.4,7.4,2.3,11.3,2c3.4-0.2,5.8,0.7,6.8,4.2c-0.7,9.5-3.7,18.6-5.5,27.9
	c-3.2,16.6-8.4,32.6-12.5,48.9c-11.3,0-22.7,0-34,0C296.1,667.8,297.1,663.6,293.3,661.3z"/>
<path class="st3" d="M442,671.3c0.4-3.9,1.7-6.8,4.7-10c2.3-2.4,3.4-7.3,3.3-11.5c-0.1-6.4-0.2-12.9,0-19.3c0.3-7.3,1.2-14.5,0-21.8
	c4.6-3.4,1.5-6.6,0-10c-0.5-1.2-0.2-3,0.1-4.4c0.9-4.1,0.3-7.6-3.1-10.6c-2.1-1.9-5.7-3-4.8-7.2c0.2-0.9-1.6-1.8-3-2.2
	c-5.3-1.3-7.1-7.7-4-12.2c2.6-3.9,6-4.2,10-3.8c3.6,0.4,5.1-0.9,4.9-4.7c-0.3-6.2-0.1-12.3-0.1-18.5c0-6.7-4.4-10.6-11.1-9.6
	c-1.6,0.2-3.4,1.7-4.5-0.3c-1.2-2.2,0.8-2.8,2.3-3.5c0.4-0.2,0.8-0.7,1-1.1c0.6-1.4-5.5-10.2-7.1-10.4c-3.9-0.4-8.9,1.7-11.6-0.9
	c-2.7-2.6-0.7-7.6-0.9-11.5c-0.1-2.5-0.9-3.7-3.5-3.5c-1.7,0.1-3.3,0-5,0c-7.2,0-7.2,0-7.5-7.4c-0.3-6-2.9-8.5-8.9-8.6
	c-6.3-0.1-7.9-1.6-6.9-7.8c0.5-2.9-0.4-5.6-0.1-8.3c20.1,16.6,38.1,35.4,56.2,54c7.5,7.7,13.6,16.8,20.3,25.2c1.5,1.9,1.9,3.6-0.1,6
	c-6.2,7.4-12,15.1-17.9,22.7c-1.4,1.8-2,3.2,0.1,5.4c6.3,6.5,12.2,13.4,18.3,20.1c1.7,1.8,1.7,3.4,1.4,6
	c-2.7,19.2-8.3,37.6-13.3,56.1c-1.2,4.5-2.7,8.9-4.1,13.4C445.4,671.3,443.7,671.3,442,671.3z"/>
<path class="st3" d="M223.1,671.3c0.3-6-2.9-11.2-4.4-16.8c-5.4-19.6-11.1-39.1-14.5-59.4c3.8,5.4,7.5,10.8,11.3,16.1
	c1,1.4,1.4,3.9,3.4,3.6c1.4-0.2,1.6-2.6,2.3-4.1c5.3-11.9,10.7-23.9,16.1-35.8c0.2-0.6,0.8-1,1.2-1.5c4.8,7.2,4.5,14.1,0.5,20.5
	c-6.7,10.8-10.4,22.5-7.9,35.4c0.1,0.3,0.1,0.7,0,1c-0.4,13.7,1.7,27.3,2,41C229.8,671.3,226.4,671.3,223.1,671.3z"/>
<path class="st0" d="M582,585.3c-3.2,0.8-4.3-2.5-6.5-3.6c-12-6.1-23.7-13-35.8-19c-7.6-3.8-14.9-7.7-22.1-12.1
	c-3.4-2.1-7.9-2.1-10.6-5.7c-0.6-0.8-1.1-1.6-1.2-2.6c4-1.3,7.2,1.3,10.2,2.8c9.4,4.6,18.5,10.1,27.8,15
	c10.7,5.7,21.4,11.2,32.2,16.7c1.8,0.9,4.1,1,6.2,1.5C582,580.6,582,583,582,585.3z"/>
<path class="st4" d="M252.1,671.3c0.1-3.8,0.3-7.6,0.2-11.4c-0.1-4.3,1.9-5.2,5.6-4.1c0.8,0.2,1.5,0.6,2.3,0.8
	c9.2,2.4,9.1,2.3,10,11.4c0.1,1.1,0.6,2.2,0.9,3.3C264.8,671.3,258.4,671.3,252.1,671.3z"/>
<path class="st3" d="M237.1,671.3c0.4-5-0.4-9.8-1-14.7c-0.4-3.2,1.2-3.7,3.7-3.3c2.2,0.3,4.4,1.3,6.7,1.1c2.2-0.1,1.5,1.8,1.6,2.9
	c0.1,4.7,0,9.3,0,13.9C244.4,671.3,240.8,671.3,237.1,671.3z"/>
<path class="st3" d="M275.1,671.3c-0.3-2-0.6-4.1-1-6.1c-0.9-4.3,1.1-5.8,5-4.8c2.5,0.6,5,1.1,7.7,0.9c1.5-0.1,2.2,0.5,2.4,2.2
	c0.3,2.6,1.2,5.2,1.9,7.8C285.8,671.3,280.4,671.3,275.1,671.3z"/>
<path class="st3" d="M293.3,661.3c3.8,2.3,2.9,6.5,3.8,10c-0.7,0-1.3,0-2,0C295.2,667.8,292.8,664.8,293.3,661.3z"/>
<path class="st1" d="M152,217.4c0.4-4,0.9-8,1.3-12c3.5-2,3.5-4,0-6c-0.4-2.3-0.8-4.7-1.2-7c1.8-0.2,2.2-1.2,1.6-2.8
	c-1.1-2.8-1.5-5.7-1.8-8.7c-0.2-2.5-1.6-4.7-4.3-5.5c-1.7-0.5-1.8-1.5-2.1-3.2c-0.8-4,2.4-8.1-0.5-11.9c0.4-1-0.6-2.4,1-3
	c0.9,0.2,2.1,1.4,2.6,0.3c1.9-4.2,6.4-7.4,5.1-12.8c-0.5-2.2,0.9-3.4,2-3.1c6.5,1.9,5.5-3.7,5.4-6.2c-0.2-2.8,2.2-6.1-1-8.5
	c0.1-0.4,0.1-0.8,0.2-1.2c1,0.1,2,0.4,2.9,0.2c3.4-0.6,8.3,0.2,6.2-6.3c-0.6-1.8,1.6-3.6,4-3.2c1.2,0.2,3,0.7,3-0.5
	c-0.2-5.4,3.5-6.5,7.4-7.7c1.3-0.4,1.1-1.9,1.4-3c0.7-2.7,2.2-4.2,5.3-4.1c7.3,0.2,14.7-1.2,21.9,0.9c1,0.3,2,0,2.6-0.9
	c1,0.3,2.4-0.6,3,0.9c1.1,3.8,0.5,9.6,7.6,5.6c1-0.6,3.2-0.1,4.2,0.8c3.2,2.6,5.1,0.3,7.2-1.4c0.3,0.1,0.6,0.2,1,0.3
	c0.9,2.6,2.4,2.2,4,0.8c4.2-0.2,8.2,0.2,12,2.2c2.3,3.7,9.1,5.9,12.7,4.5c2.7-1.1,0.2-2.3,0.4-3.4c3,0,5.9,0,8.9,0
	c1.1,5.4,5.3,2.1,8,2.7c2.9,0.7,3.1-1.6,3-3.7c4.3-0.8,8.6-1.5,13-2.3c1.8,3.8,4.7,0.2,7,1.1c3,1.2,4.8,0,7-2.4
	c2.7-2.9,6.1-5.8,11-5.7c5.5,0.1,5.9-1.2,2.9-6.1c0.3-1.2,1.6-0.7,2.2-1.4c2.8,0.5,5.5,0.3,8.2-0.6c3.8-1.3,7,0.9,7.6,4.8
	c0.4,2.5,0.9,3.5,4.2,3.8c4.6,0.4,11.2-0.8,12.1,6.9c0.2,1.6,1.9,0.9,3,0.8c4.3-0.2,6.2,2,5.3,6.1c-0.6,2.8,0.7,3,2.6,2.4
	c1.5-0.4,3.4-0.6,4-2.5c1,0.6,1.9,1.3,1.8,2.7c-1.7,2.5-1,5.4,0.2,7.3c1.1,1.8,3.8,1.1,5.7-0.2c1,0.3,1,1.1,1.1,2
	c-0.7,3,1.2,5.8,0.9,8.8c-0.6,5.7,1.4,7.2,7.2,5.3c1.1,1.1,1.9,2.4,1.9,4c-1.2,5.5-3.4,10.9-0.1,16.4c0,0.3-0.2,0.4-0.4,0.5
	c-3.9-0.5-6.9,0.2-7.6,4.9c-0.6,4.4-2.3,8.8,0,13.3c0.6,1.3-0.7,2-1,3c-3.2,0.8-1.2,2.6-0.8,4.1c-0.5,5.4,1,10.6,1.8,15.9
	c-1.1,0.2-1.9,0.7-1.6,2c0.3,1.4,1.2,1.9,2.6,1.5c0,0.6,0,1.2,0,1.8c0,2.5-3.6,4.3-1.4,7.1c1.5,2,1.3,3.8,0.8,6
	c-1.2,5.8,1.8,8.6,7.6,7.8c0.3,1.4,0.7,2.8,1,4.2c-3.8,5.8-1.8,12.4-2.1,18.5c-0.2,3.6-2.5,7.7,0.4,11.3c-2,1.9-4.6,2.6-7,3.7
	c0-1.4,1.3-1.8,1.9-2.7c0.1-0.1,0.1-0.3,0.2-0.4c-0.1,0.1-0.2,0.3-0.2,0.4c-0.8,0-1.7,0.1-2.5-0.1c-7.5-2-10,0.1-9.2,7.8
	c-0.9,0.4-1.9,0.7-2.8,1.1c-2.1-2.3-9.5-3.6-12.3-1.4c-2.5,1.9-1.2,5-0.1,7.6c-1.1,1.1-2.3,1.9-3.9,2.1c-0.2-1.9-1.3-2.8-3.2-3.1
	c-3.5-0.6-4.8-5.5-4.1-6.1c4-3.9,1.9-8.5,2.1-12.7c0.1-3.2,0.8-5.6,3.8-6.4c2.9-0.8,2.1-2.9,2.4-4.7c0.1-0.2,0.1-0.3,0.2-0.5
	c-0.1,0.1-0.2,0.3-0.3,0.4c-0.3,0-0.5,0-0.8,0c-0.8-1-1.5-2-2.3-3c1.6-0.7,4.9,2.3,4.8-1.8c-0.1-2.3-0.5-5.5-4.7-4.3
	c-2.5,0.7-3.8-1.2-3.9-3.4c-0.2-5.3-3.9-5.3-7.6-5.2c-2.3,0.1-4.5,0.7-6.5,1.8c-0.3-0.3-0.6-0.6-1-0.9c0.5-3.4-5-4.4-3.4-8.2
	c-0.6,0-1.2,0-1.9,0c-1.3,0-2.7,0-4-0.2c-3.6-0.5-6.4-0.1-5.4,4.6c0.4,1.8-1,2-2,2.3c-3,0.7-6,1.9-9.3,1.2c-1.1-0.2-2-0.6-3.2,0.2
	c-5.2,3.4-9.8,8.2-16.9,7.9c-1.1-0.1-1.9,0.7-2.6,1.8c-2,2.8-4.3,5.4-8,6.1c-1.8,0.3-4.2,1.7-3.2,3.3c1.1,1.7,2.5,4.5,5.8,3.8
	c6-1.3,6-1.3,6,4.8c0,1.8,0.1,3.7,0,5.5c-0.3,3.4-6.2,8-9.1,7.2c-4.9-1.5-6.3-0.7-6.8,4.5c-0.2,2.3-1,3.4-3.3,3.2
	c-5.7-0.6-11.5-0.3-17.2,0c-0.9,0-1.9-0.3-2.9-0.7c-2.8-1.1-4.7-2-1.8-5.5c2.9-3.6,1.4-6.8-3-7.8c0.1-0.6,0.2-1.3,0.4-1.9
	c4.2-0.5,5.6-4.3,5.4-7.1c-0.2-3-3.8-2.9-6.4-2.4l-0.2-0.4c0.1-2.1,1.9-1.9,3.2-2.4c1-0.3,1.7-1.1,1.6-2.2c-0.1-0.5-0.8-1.3-1.2-1.3
	c-6.1,0.3-7.2-3.6-6.6-9.1c-3.1,2-6.7,1.8-7,5.7c-1.2,0.1-1.6-0.9-2.1-1.6c0.3-1.3,2.2-2,1.4-3.4c-0.8-1.3-2.4-0.8-3.7-0.7
	c-1.3,0.1-2.5,0.6-3.7,0.9c-1.6-0.1-2.9-0.8-4-1.9c0.1-0.8,0.1-1.7,0.5-2.4c0.7-1.2,2.7-2.1,1.6-3.7c-1.2-1.8-3.2-0.9-5-0.6
	c-3,0.6-6.1,1.1-9.2,1.6l0,0c-0.1-4.1-5.3-1.8-6.1-5.2c1.4-0.9,3.2-1.8,4.5,0c1.5,2,3.3,0.8,5,1.1c1.8,0.3,3.1-0.8,3.1-2.5
	c0.1-2.1-1.9-1.5-3-1.4c-7.3,0.2-14.4-3.7-21.8-0.9c-0.4,0.1-1.1,0.1-1.4-0.1c-3.9-2.5-6.6,1.2-9.6,1.7c-6.9,1-2.2,5.5-3.6,7.9
	c-0.3,0.5-0.1,1.3,0,2c0.2,2.7-1.1,3.5-3.6,3.4c-3.3-0.1-6.6,0-10,0c-1.9,0-2.9,0.6-2.6,3c0.5,5.1,0.4,10.4,0.5,15.5
	c0,0.9-0.2,1.9,0.8,2.1c5.9,1,8.1,3.9,5.2,9.6c-0.1,0.1,0,0.4,0.1,0.5c4.6,3.9,1.8,9.8,3.8,14.3l0,0c-1-0.2-2.3,0.3-2.8-1.4
	c-1.4-4.9-8.8-5.3-8.6-11.5c0-0.1-1.5-0.2-2.3-0.2c-1.5,0-3,0-4.4,0c-0.6-0.7-1.3-1.3-1.9-2c2.6-3.6,0.2-7.9,1.5-11.8
	c0.4-1.2-1.3-1.8-2.4-1.9c-6.7-1.1-7.4-2.3-6.1-8.8c0.3-1.6,2.5-3.9-1.1-4.6c0.1-0.7,0.2-1.3,0.4-2c0.2-0.3,0.5-0.7,0.7-1l0,0
	c1.5,0,3,0.1,4.4,0c1.4-0.1,3.1,0.4,3.5-1.7c0.4-1.9-0.4-3.1-2.2-3.9c-0.7-0.3-1.7-0.1-1.9-1.3c2.1-1.2,2.5-3.6,3.5-5.6
	c1.2-2.4-0.5-2.4-2.1-2.4c0-0.7,0-1.3,0-2c1.7-0.2,3.9,0.6,4.4-1.9C155,217.9,153.4,217.6,152,217.4z M152.1,176.4
	c0.1,0.1,0.3,0.1,0.4,0.2C152.4,176.6,152.3,176.5,152.1,176.4c-0.2-0.5-0.5-1.1-0.7-1.6c-0.2,0.1-0.4,0.3-0.6,0.4
	C151.3,175.6,151.7,176,152.1,176.4z M164.1,264.4c0-0.9-0.3-1.7-1.2-1.8c-0.7-0.1-1.4,0.2-1.3,1c0.1,0.9,0.4,2,1.6,2.2
	C164,266,164,265.1,164.1,264.4z M285.3,239.8c-1.2-0.6-2.2-0.7-2.9,0.6c-0.2,0.3,0.2,1.2,0.2,1.2
	C283.8,241.5,284.6,240.8,285.3,239.8z M275,248.3c0.2-0.2,0.5-0.6,0.6-1c0-0.1-0.5-0.6-0.6-0.5c-0.4,0.1-1,0.4-1.1,0.7
	C273.7,248.2,274.3,248.3,275,248.3z M272.7,116.2c-0.3-0.1-0.6-0.4-0.8-0.3c-0.2,0.1-0.2,0.5-0.4,0.8c0.3,0.1,0.6,0.4,0.8,0.3
	C272.5,116.9,272.6,116.5,272.7,116.2z M337.4,223.9c-0.2,0-0.5,0-0.7-0.1c0.1,0.1,0.2,0.2,0.3,0.3S337.3,224,337.4,223.9z
	 M275.4,252.8c-0.1-0.1-0.3-0.1-0.4-0.1c0,0.1-0.1,0.3-0.1,0.3c0.1,0.1,0.3,0.1,0.4,0.2C275.3,253,275.3,252.9,275.4,252.8z"/>
<path class="st1" d="M324.1,487.4c-2.7,0.3-3.1,4-6,4c-3.1-2.4-2.9,0-3,2c-1,2-3,2.4-5,3c-9.6-3.1-12.6-3-12,5.8
	c-2,0.4-3.8,1.5-5.9,1.2c-4.4-0.8-9-2.2-12.1,2.9c-4,0.4-7.9,1.8-12,0.9c-0.2-1.5,1.5-1.5,2.3-3c-3.4,1.3-5.6-3.9-8.8-0.9
	c-1.6,1.5-3.9,1.7-5.5,3.1c-5.5-0.2-10.8-1.7-16-3.2c-0.4-0.3-0.7-0.5-1-0.8l0,0c0-2.1,1.5-4.8-1.8-5.9c-2.2-0.7-4.7-1.9-6.7-1.5
	c-4.1,0.9-4.4-1.2-4.8-4.2c-0.2-1.7-0.1-4.3-3.1-3.8c-4.6,0.8-5.1-2.5-5.2-5.5c-0.1-3.1-0.7-3.6-3.7-2.8c-4.1,1.1-6.1-1-5-5
	c2-7.4,1.2-9-6-11.4c-2.6-0.9-3.8-1.7-2.5-4.9c1.4-3.5-2.4-7.5,0.6-11.1c-4.2-2.6-0.8-5.1-0.1-7.9c0.5-1.9,2.9-4.2-0.1-6.2
	c-2.7-1.8-9.8-1.6-10.6,0.7c-2.3,6.3-7,6-12.1,5.2c-1-0.4-0.7-1.3-1-2c1.1-0.8,1.4-2,1-3.1c-1.7-4.3-0.6-8.9-1.4-13.3
	c-1.1-6.1-0.8-6.2-6.3-3.7c-0.4-2-0.9-4-1.3-6c0.3-0.4,0.9-0.8,0.9-1.1c-1-8.4-1-16.8-0.6-25.1c0.1-2.5-1.9-2.8-2.9-4.3
	c5.6-0.4,11.6,4.5,12.1,9.3c0.7,7.4,2.1,8.6,9.4,8.7c1.4,0,2.6-0.3,3.9-0.4c1.3-0.1,2.4,0.4,2.4,1.8c0.1,2.5,1.3,4.8,1.1,7.4
	c-0.6,7.1-0.2,7.5,7,7.7c1.1,0,2.4,0,3.4-0.3c2.2-0.8,3.4-0.6,3.6,2.1c0.2,3.6,2.4,5.8,6,6.2c7.3,0.8,12.7,8,20.8,6.2
	c0.2,0,0.6,0.2,0.8,0.5c1.7,1.9,3.4,1.1,4.8-0.2c1.9-1.9,3.7-1.4,5.9-0.9c2.9,0.6,6,1.4,7.6-2.4c3.6,0,7.3,0,10.9,0
	c0.3,1,0.8,1.8,1.9,1.5c0.9-0.2,1-1,1.1-1.8c1.5-1.7,3.3-0.6,5-0.7c0.1,0.6,0.2,1.4,1,1.4c0.8,0,0.9-0.8,1-1.4c0.7,0,1.3,0,2,0
	c2,3.9,5.3,6.5,9.4,5.3c3-0.9,5-5.2,9.2-2.6c0.1,0.1,0.8-0.3,0.8-0.4c-0.3-3.2,4-6,0.6-9.4c2.5-0.4,3.9,1.4,5.4,2.9
	c1.2,1.3,2.3,1.9,4.3,1.4c4.6-1.2,7.4-6.1,5.8-11.2c-0.6-2.1-1.2-3.1-4.1-2.6c-7.7,1.4-11.8-0.9-14.3-7.2c-2,3.5-5,1.5-8.1,1.5
	c5.7-2.4,7.7-7.3,10-12.2c1.7-3.9,1.1-5.9-3-6.6c-1.6-0.3-3.2-0.5-4.9,0c-0.1-1-0.2-1.9-0.2-2.8c1.3-2.3,1-3.9-2-4.1
	c-1.1-0.2-0.8-1.3-1-2c2.9-0.8,3.7-3.6,3.4-5.5c-0.4-2.2-3.8-2.2-5.4-1.9c-1.6,0.3-4.2,0.8-4.9,3.3c-4.7,0.5-9.2-0.9-13.6-2
	c-3.6-0.8,0.3-2.4,0.2-3.7c2.2,1.2,5.4,1.7,6.9,0.7c1.7-1,1.3-4.1-0.8-6c0.7-1.2,1.6-2.1,3.1-1.9c0.4-0.2,0.7-0.5,1.1-0.7
	c1.5-0.5,3-0.8,4-2.2c0.4-0.4,1.3-0.5,0.4-1.3c-0.1,0.4-0.3,0.9-0.4,1.3c-1.1-0.6-3.1,1-3.7-1.2c0-0.4,0-0.8,0-1.2c0,0-0.3,0-0.4,0
	c0,0.4,0.1,0.8,0.1,1.1c-0.1,0.3-0.2,0.7-0.3,1c-1.4-1-2.2-0.5-2.6,1c-1.6-0.1-1.5,2.6-3.4,2c0-1.5,0.3-3-0.6-4.6
	c-1.6,2.1-0.6,3.3,0.5,4.5c-0.4,0.7-1,1-1.8,0.9c0.1-0.1,0.2-0.2,0.3-0.4c-0.1,0-0.1,0-0.2-0.1c0,0.2-0.1,0.4-0.1,0.6
	c0.2,1.2-0.7,1.1-1.5,1.2c-2.9,0.2-5.9,0.1-8.7,0.8c-2.8,0.7-5.7,3.2-7.7-1.2c-0.2-0.4-1.4-0.6-1.8-0.4c-2.5,1.4-5.6,1.2-8.1,1.5
	c-3.6,0.4-8.1,0.1-10.9-3.4c-5.3-6.8-5-14.5-3-22.3c1-3.9,0.8-8.6,5.9-10.2c0.9-0.3,0.8-1.4,0.4-2.2c-3.8-6.8,3.5-11.9,2.9-18.2
	c-0.1-1.4,1.6-1.4,2.8-1.4c2.3-0.1,5,0.5,2.8-3.7c-0.7-1.3,0.6-6.4,3.1-5.8c3.3,0.8,6.6,0.9,9.3,0.1c6.7-1.8,12.3,2.5,18.6,2.4
	c2.5,0,2.4,2.1,2.2,3.6c-0.8,5.6,1.5,11.1,0.2,16.7c-0.5,2,1.2,3.1,2.7,2.4c4.2-1.9,8.2,0.2,12.3,0.1c0.7,0.7,1.3,1.3,2,2
	c-2.1,2.9-1.2,4.5,2.1,5.1c2.7,0.5,6.3,3.3,5.9,4.1c-1.6,3.4,1,2.2,2.2,3.1c4.6,3.1,9.6,1.7,14.4,1.6c2.2,0,5.5-0.6,5.5-4
	c0-3.3,1.1-4.5,4.5-4.4c1.2,0,3.6,0.3,4-2c0.4-2.2-1.5-2.6-3-3.4c0.7-1.9,2.6-2.1,4-3c6.6,1,6.7,1,6.6-5c0-1.3,0.5-1.6,1.4-2.1
	c7.6-4.2,8.5-8.8,3-14.9c0.7-1.1,2-1.3,3.1-1.8c0.1,0.7-0.3,1.5,0.7,1.9c0.1-0.7,0.2-1.5,0.3-2.2c0.1-0.6,0.4-0.9,1-0.7
	c1.6,3.3,4.8,1,5.7,0.4c3.1-1.9,5.1-0.7,7.8,1.8c-1.3-4.1,2.5-6.3,1.4-9.6c1.1-1.1,2.5-1.8,4-2c10.4,5,12.1,4.1,12-6
	c2.1-1.7,4.6-2.6,7-3.6c0,3.1,1.6,3.1,3.7,1.9c2-1,3.9-1.9,5.3,0.9c-0.1,0.1-0.1,0.3-0.2,0.4c0.1-0.1,0.1-0.3,0.2-0.4
	c0.3,0,0.6,0,0.9,0c0.4,0.9,1.5,1.6,1.2,2.9c0.5,2.1-3.4,4.1-0.5,5.9c3.8,2.4,8.3,0.1,12.5,0.8c0.3-2.2,0.6-4.4,1-6.5
	c0.3-1.3,0.8-2.5,1.3-3.7c0.3-0.7,1.4-1.6,1.9-0.8c1.9,3.2,6.6,3.4,7.8,7.3c-0.3,2.4-1.6,4.2-3,6c-2.8-2.2-5-3.1-6.1,1.8
	c-0.5,2.3-1,4.5-0.9,6.8c0.1,2.2-0.4,4.4-2.5,4.9c-4.8,1.1-4.7,5.1-4.3,8.2c1.1,7.3-2.6,14.2-1.2,21.4c0.5,2.5-1.5,3-3.5,2.9
	c-1.9-0.1-4.6,0.6-4.3-2.5c0.3-4.5-2.2-4.9-6.8-4.7c5.5,3.6,3.1,5.2-0.5,6.4c-3.4,1.2-6.9,1.5-10.6,1c-6.4-0.9-7.3,0.1-6.4,6.3
	c0.3,1.8,0,3.7,0.2,5.5c0.3,2.9-0.7,4.5-3.9,4.1c-1.6-0.2-2.8,0.3-3.2,2.2c-0.9,3.9-3.7,6.4-7.3,7.3c-2.7,0.7-1.2,2.1-1.4,3.3
	c-0.2,1.2,3.4,0.7,1.3,2.6c-1.2,1.1-2.8,1.5-4.6,1c-2.7-0.8-5.6-1-8.4,0.6c4,0.3,7.1,1.5,7.6,5.9c-0.7,0.7-1.4,1.4-2,2
	c-1.5-1.4-2.7-4.1-5.2-2.6c-2,1.2-5,2.4-4.7,5.3c0.7,6.6-0.4,13.1-0.2,19.6c0,1.5-0.3,3.1,1.8,3.5c0.2,2.1,0.7,4.2-1,6
	c-2.7,1.3-2.7,2.6,0,4c0,1,0,2,0,3c-2.8,2.7-2.8,5.3,0,8c0.9,2.5-1,4.6-1,7c-4.7,3-5.8,8-6.3,12.9c-0.4,4.4-2.9,7.3-7.1,6.5
	c-1.5-0.3-2.3,0.2-2.4,1.7c-0.1,2,0,4,0,6c0,1,0.3,2.1,1.3,2.5c1.4,0.6,2-0.6,2.7-1.6c0.7-1.1,1.4-2.7,2.9-2.3
	c1.6,0.4,1.5,2.4,1.9,3.7c0.7,2.9-0.8,3.7-3.5,3.8c-5.4,0.1-6.8,2.4-4.6,7.4c0.5,1.1,0.9,1.8,0.6,3.1
	C322.1,477.8,323.1,482.6,324.1,487.4z M305.2,365.3c0.7,0.7,1.3,1.3,2,2c-2.4,4.6,1.2,9.3-0.3,14c-0.3,1,1,1,1.8,1
	c5.8,0,5.6,0.4,5.7,6.2c0.1,3.7-2.6,9.9,5.2,10.1c1.2,0,1.2,1.5,1.8,2.1c2.3,2.7,1.6,6,1.7,9.1c0,1.4,0.2,2.8,1.7,3.3
	c1.9,0.6,2.8-1,3.5-2.1c1.2-1.7,1.2-3.8-0.3-5.5c-1-1.1-1.4-2.6-0.8-3.7c2-3.4,1.1-7.3,2.3-10.8c0.9-2.5-0.5-4.7-2.7-6.4
	c-2.1-1.6-4.1,0.6-6.1,0c-1-0.4-0.6-1.4-0.9-2c1.8-0.8,2.1-2.1,1.7-4.1c-0.5-2.5-0.6-5.2-0.5-7.9c0.1-2.9-0.7-4.4-3.9-4.2
	c-2.7,0.2-4.6-0.5-3.7-4c0.7-3.2-1.3-4.1-4.1-3.9c-2.4,0.1-4.5-0.5-4.3-3.4c0.2-2.6-0.9-2.7-3.2-2.7c-3.2,0-6.9,0-5.4-5.6
	c0.6-2.2,0.4-4.8,1-7.2c0.4-1.5,0.1-2.1-1.2-3.2c-2.7-2.2-4.9-6.3-7.9-0.3c-0.1,0.3-0.9,0.4-1.4,0.4c-1.6,0-3.3,0.2-3.4,2.1
	c-0.1,2,1.5,2.7,3.3,2.9c1.5,0.7,4.1-0.2,4.5,2.3c0.4,2.5-0.6,4.4-3,5.5c-1.6,0.7-4,1.3-3.2,3.6c0.8,2.1,1.7,4.7,4.8,4.8
	c2.9,0.1,5.8,0.5,8.7,0.8c0.4,1,0.8,2,1.3,3c-0.7,1.5-1.7,3,0.1,4.4C301.9,367,303.6,366.1,305.2,365.3z M359.2,350.8
	c-2.8-1-3.9,1.1-5,3c-0.2,0.4,0.1,1.7,0.3,1.8c2.1,0.3,2.7-1.8,4-2.9C359.1,352.4,359.6,351.9,359.2,350.8z M249.4,502.9
	c-0.3-0.2-0.5-0.4-0.7-0.4c-0.2,0-0.5,0.2-0.8,0.3c0.2,0.1,0.4,0.4,0.7,0.4S249.1,503,249.4,502.9z"/>
<path class="st2" d="M363,465.7c-1.2,13.6-0.3,27.3-1.1,40.8c-0.6,10.6-1.4,21.2-3.3,31.8c-1.2,6.2-2.5,12.6-2.5,19
	c0.1,7.5-6.4,9.8-10.6,13.9c-4.5,4.5-9.8,8.2-14.8,11.9c-9.4,6.9-17.4,15.5-27.8,21.2c-3.1,1.7-4.1,0.6-4.4-1.8
	c-0.8-6-2.1-12-3.8-17.6c-1.7-5.5-1.4-11.1-3.2-16.5c-3.7-11.5-5.7-23.6-8.3-35.5c-0.4-2,0.8-2.7,2.6-2.6
	c15.3,0.6,27.1-7.5,37.1-17.1c6.3-6.1,12.5-13.2,16.2-21.7c1.1-2.5,3.1-4.4,4.5-6.5c6.4-9.3,9.3-20.3,15.1-29.8
	c1.1-1.7-0.7-5.9,2.8-5.1c1.7,0.4,1.7,4.5,1.6,7.1C362.9,460,363,462.9,363,465.7z"/>
<path class="st4" d="M217.1,606.5c-2.6-7.4-8.5-11.9-12.3-18.1c-5.3-8.7-7-18.1-9.1-27.7c-2.5-11.3-4.9-22.6-6.7-34
	c-1.3-8.5-4.2-16.6-4.1-25.3c0-1.4-0.6-2.9-1.1-4.2c-3.1-7.7-3.4-16-4.6-24.1c-0.2-1.1-0.8-3.1,1-3.4c1.4-0.2,2.1,1.4,2.6,2.6
	c4.3,10.2,9.4,20,16.7,28.3c8.2,9.4,17.4,17.8,27.9,24.9c6.1,4.1,12.9,5,19.5,7.3c3.4,1.2,3.9,2.8,2.4,5.9
	c-6.4,13.6-12.1,27.5-19,40.9c-3.2,6.2-5.4,13-8.3,19.5C220.9,601.5,219,603.6,217.1,606.5z"/>
<path class="st1" d="M198.1,325.6c4.3-0.5,8.8,0.5,12.9-1.4c0.2,0.7,0.2,1.9,1.2,1.6c1.2-0.3,1.4-1.6,1.8-2.6
	c0.1-0.6,0.5-0.8,1.1-0.6c2.6,1.5,2.4,5.1,4.8,6.8c-0.7,3.7-1.3,7.3-2,11c-4.7,0.9-7,3-4.4,8c0.4,0.8,0.4,1.9,0.6,2.8
	c-0.6,0.1-1.3,0.1-1.9,0.2c-2.3-0.2-4.6-0.5-6.8-0.4c-1.3,0.1-3.6,0.4-3.1,2.3c0.9,3.4-1.1,6.9,0.9,10c-0.1,0.1-0.1,0.3-0.2,0.4
	c0.1-0.1,0.1-0.3,0.2-0.4c0.4,0,0.7,0,1.1,0c-0.1,0.8,0.2,1.8-1,2c-10.4,1.4-11.4,3.5-5.9,12.3c0.6,0.9,0.4,1.7-0.1,2.2
	c-2.2,2.5-2.2,5.2-1.3,8.3c0.6,2-2.2,3.5-1.4,6c0.4,1.1-1.2,1.1-2.1,0.4c-4.6-3.4-8.7-7-7.4-13.6c0.2-0.8,0-1.6,0-2.5
	c0-1.4,0-3-1.5-3.3c-1.5-0.3-3.6-1.3-4.6,1c-0.6,1.2-1.6,1-2.5,1.1c-0.4-0.9-1.6-1.5-1.3-2.7c3.4-1,2.3-3.9,2.2-6
	c0-1.3-1.4-1.6-3-1.6c-2.2-0.1-2.5,0.8-2.4,2.5c-1-1.7-3-2.8-3-5c1.5-3.5,1.5-7,0.4-10.6c-1-3.1-2.9-4.6-6.4-4.8
	c-2.1-0.1-1.9-2.1-1.4-4c0.8-3.2,0.8-6.6,0.1-9.9c-1.1-5.2-5.2-10.4,0-15.7c0.6-0.6,0.3-2.2,0.4-3.4c0-4.1,0.3-8.3-0.1-12.5
	c-0.4-5.2-0.1-9.8,6.1-11.3c3.7,3.2,2.9,7.9,4,12c-1.5,2.5-1,5.5-0.8,8c0.5,7,1.5,7.3,8.4,4.3c0.3,0.2,0.5,0.4,0.6,0.8
	c-1.9,7.9-1.9,7.9,5.9,7.9c2.6,0,5.3,0,7.9-0.1l0,0c0.1,1.1-0.4,2.5,1.1,2.8C197.2,328.5,197.9,327.2,198.1,325.6z"/>
<path class="st5" d="M385.4,341.7c0.8,0.7,1.8,0.9,1.2,2.7c-5.6,19.3-10.8,38.6-16.6,57.9c-3.8,12.5-7.3,25.1-12.6,37.2
	c-5.2,12-11.9,23.1-19,34c-0.9,1.5-2.5,2.5-4.4,3.5c6.1-21.1,6.5-42.8,8.3-64.3c1-4.5,0.6-9.1,0.3-13.7c-0.2-1.8-0.3-3.5-0.6-5.3
	c-1.5-7.3,1.8-12,8.2-15c3.2-1.5,4.7-4.8,6.9-7.3c6.7-7.8,15.1-14.2,21-22.8C380.5,346.3,383,344,385.4,341.7z"/>
<path class="st3" d="M176.4,377.4c1-0.1,2,0.1,2.5-1.1c1.1-2.3,3.1-1.3,4.6-1c1.6,0.3,1.6,1.9,1.5,3.3c0,0.8,0.1,1.7,0,2.5
	c-1.3,6.6,2.7,10.3,7.4,13.6c0.9,0.6,2.5,0.7,2.1-0.4c-0.8-2.5,2-4,1.4-6c-0.9-3.1-0.9-5.8,1.3-8.3c0.5-0.6,0.7-1.3,0.1-2.2
	c-5.5-8.8-4.5-10.9,5.9-12.3c-1.6,7.1-3.2,14.1-4.9,21.2c-0.2,0.9-0.2,1.6,0.8,2c0.2,4,3.1,7,3.8,11.4c0.4-0.6,0.2-0.8-0.3-0.5
	c-0.4,0.2-0.7,0.6-1,0.9c0.2,0.2,0.5,0.6,0.6,0.5c0.4-0.1,0.8-0.4,0.8-0.9c2.2-0.5,4.1-0.7,6,0.3c0.9,0.5,1.6,2.8,3.1,0.9
	c1-1.2,0.7-2.4,0-3.7c-1.7-3.2,2-10,5.8-11.1c0,0.2,0,0.3,0.1,0.5c1.1,2.6-3,5.8,0.1,7.7c3.3,2,7.5,1.1,11.1,0.5
	c2.3-0.4,4.5-0.7,6.8-0.7c3.3,0.1,8.9-1.3,9.4,0.6c1.2,4.2,3.6,8.3,3.9,13.5c-14.9-5.2-29.3-6.1-43.7-0.6c5-0.6,10-0.4,15.1-0.6
	c8.2-0.3,16.4,0.4,23.7,4.2c6.2,3.2,11.9,2.9,17.9,0.3c1.1-0.5,2.5-0.4,3.8-0.6c0,2.3,0.4,4.7-1,6.9c6.8,0.4,6.8,0.4,8.1,2.7
	c-17.6,1.1-35.1-1-52.7-0.9c11.4,3.2,22.9,5.1,34.7,5.6c-1.6,3.8-4.7,3-7.6,2.4c-2.2-0.5-4.1-1-5.9,0.9c-1.3,1.3-3.1,2.1-4.8,0.2
	c-0.2-0.2-0.6-0.5-0.8-0.5c-8.1,1.8-13.5-5.4-20.8-6.2c-3.6-0.4-5.8-2.5-6-6.2c-0.2-2.7-1.4-2.9-3.6-2.1c-1.1,0.4-2.3,0.4-3.4,0.3
	c-7.2-0.2-7.6-0.6-7-7.7c0.2-2.6-1-4.9-1.1-7.4c-0.1-1.5-1.1-2-2.4-1.8c-1.3,0.1-2.5,0.4-3.9,0.4c-7.2-0.1-8.7-1.3-9.4-8.7
	c-0.4-4.8-6.5-9.7-12.1-9.3c1,1.5,3.1,1.7,2.9,4.3c-0.4,8.4-0.4,16.8,0.6,25.1c0,0.3-0.6,0.8-0.9,1.1c-3.7-11.1-5.3-22.7-7.9-34
	c-1.8-7.6-3.3-15.3-4.9-23c-0.1-0.5,0.2-1.2,0.4-2.4c2.8,2.6,4.1,5.5,5.8,8.1c4.2,6.4,8.4,12.8,12.7,19
	C176.8,380.7,175.9,377.4,176.4,377.4z M259.5,417.6c0.3,0.1,0.6,0.4,0.8,0.3c0.2-0.1,0.2-0.5,0.4-0.8c-0.3-0.1-0.6-0.4-0.8-0.3
	C259.7,416.9,259.6,417.3,259.5,417.6z"/>
<path class="st3" d="M245.9,265.3c4.4,1,6,4.2,3,7.8c-2.8,3.5-1,4.4,1.8,5.5c0.9,0.4,1.9,0.7,2.9,0.7c5.7-0.3,11.5-0.6,17.2,0
	c2.3,0.2,3.1-0.9,3.3-3.2c0.5-5.2,1.9-6,6.8-4.5c2.9,0.9,8.8-3.8,9.1-7.2c0.1-1.8,0-3.6,0-5.5c0-6,0-6.1-6-4.8
	c-3.3,0.7-4.7-2.1-5.8-3.8c-1-1.6,1.4-2.9,3.2-3.3c3.8-0.7,6-3.3,8-6.1c0.8-1.1,1.5-1.9,2.6-1.8c7,0.4,11.6-4.5,16.9-7.9
	c1.2-0.8,2.1-0.4,3.2-0.2c3.2,0.7,6.2-0.5,9.3-1.2c1-0.2,2.4-0.5,2-2.3c-1-4.8,1.8-5.1,5.4-4.6c1.3,0.2,2.6,0.1,4,0.2
	c0.6,0,1.2,0,1.9,0c-1.6,3.9,3.9,4.8,3.4,8.2c-2.1,0.2-2.8-2.6-5-2.4c-0.1-0.6-0.2-1.4-1-1.4s-0.9,0.8-1,1.4
	c-6.6,2.4-13.2,4.8-19.9,7.1c-7.9,2.9-15.6,6.4-23.5,10.3c2.6,1.6,4.5,0.3,6.2-0.3c12.1-4.3,24.2-8.4,36.5-12.1
	c1.1-0.3,2-1.3,3.1-0.6c6.9,4.5,13.8,9.1,21,13.8c-2.4,1.4-4.4,2.4-6.8,3.8c4.7,0.7,8-1.5,11.5-2.8c0.3,0,0.5,0,0.8,0l0.1,0.1
	c-0.3,1.8,0.6,3.9-2.4,4.7c-3,0.8-3.7,3.2-3.8,6.4c-0.1,4.2,1.9,8.8-2.1,12.7c-0.6,0.6,0.6,5.5,4.1,6.1c1.9,0.3,3,1.2,3.2,3.1l0,0
	c-0.4,0.3-0.7,0.5-1.1,0.8c-5,2.6-10,5.2-15,7.7c-1.5,0.8-3,1.1-3-1.4c0-0.2,0-0.4-0.1-0.5c-3-4.5-2.4-7.7,2-11.4
	c6.5-5.3,4.9-13,3.1-19.6c-1.7-6.6-7.7-9.3-15.3-9.8c-10.5-0.6-20.5,1.5-27.2,9.6c-5.4,6.4-11.2,12-17.1,17.8
	c-3.4,3.4-5.2,8.2-6.5,12.9c-0.3,1.3,0.2,3.2-2.5,2c-10.5-4.8-21.7-4.6-32.8-4c-4.5,0.2-5.4-1-3.8-5
	C242.2,275.5,244,270.4,245.9,265.3z M272.3,284c0.1-0.3,0.4-0.6,0.3-0.8c-0.1-0.2-0.5-0.2-0.8-0.4c-0.1,0.3-0.4,0.6-0.3,0.8
	C271.7,283.8,272.1,283.9,272.3,284z"/>
<path class="st5" d="M283,294.6c-0.7-8.9,3.6-15.5,9.8-21.2c2.5-2.3,4.7-2.1,6.8,0.8c6.3,8.8,15.2,11.8,25.7,11.2
	c0.7,0,1.4,0.1,2-0.1c2.2-0.7,5.1-2.6,6.6-1.2c1.6,1.5,2,4.7,2.3,7.3c1.6,13.2-6.4,23.2-18.5,28.3c-14.7,6.1-30.4-5.9-34.1-17.6
	C282.7,299.8,283.1,297.1,283,294.6z"/>
<path class="st3" d="M228.1,294.7c0,11.7-7,21.2-16.9,24.8c-12.6,4.6-24.3,0-31.3-9.7c-6.3-8.7-6.3-20.9-0.7-29.7
	c1.4-2.1,2.2-3.1,5.3-1.1c10.7,7,21.9,6.3,32.5-0.4c3.8-2.4,5.4-2,7.5,1.6C227.2,284.9,228.4,289.8,228.1,294.7z"/>
<path class="st2" d="M142.4,344.2c-0.1-0.1-0.1-0.4-0.2-0.4c-11.8-3.9-13.2-13-11.8-23.6c0.4-3.4-0.3-7,0-10.5
	c0.6-6.1-2.7-11.2-4.2-16.8c-2.2-8-6.4-15.3-7.9-23.6c-0.7-4.1,2.7-6.1,4.9-8.3c5.3-5.3,9.8-5,15.3,0.1c3.9,3.6,7.6,7.2,9.4,12.4
	c0.4,1.3,0.8,2.9-0.3,3.7c-1.3,0.9-2.8,0.4-4.1-0.7c-1.6-1.5-2.9-3.6-5.7-3.9c0.6,3.5,3.6,4.9,5.7,7c2.3,2.2,3.6,4.8,3.6,7.8
	c-0.1,15.6,1.5,31,2.9,46.5c0.3,3.5,0.1,7,0.1,10.5C147.5,345.9,144.9,346,142.4,344.2z"/>
<path class="st1" d="M234.2,505.5c6,1.7,11.9,3.4,17.9,5c0.1,1.1-0.2,2.4,1.4,2.6c1.3,0.1,1.5-0.9,1.6-1.9c1,0.1,2,0.2,3,0.3
	c0.1,0.6,0.2,1.4,1,1.4s0.9-0.8,1-1.4c6-0.1,12-0.2,18-0.3c2.2,3.7,3.8,2.5,5-0.7c3.3-0.9,6.5-2.1,10-2c0.3,0.4,0.8,1.3,1,1.3
	c1.2-0.4,0.7-1.4,0.6-2.2c0.8-0.1,1.6-0.2,2.4-0.3c-0.2,2.3,1,3.6,3.2,3c5.5-1.3,6.1,1.7,5.9,5.9c0,1.1,0.6,2.2,1,3.2
	c-2.3,2.8-6.1,2.8-8.9,4.7c-4.9-4.2-7.3-3.7-9.1,2c-3.3,0-6.7,0-10,0c-1.2-2.8-2,0.5-3,0.2c-0.2-0.4-0.3-0.8-0.5-1.3
	c-0.2,0.4-0.3,0.8-0.5,1.3c-0.9,0.2-2-0.3-2.5,0.9c-0.1,0.2,0.2,0.7,0.4,0.7c1.2,0.2,1.6-0.7,2.1-1.5c0.3,0,0.7,0,1,0
	c0,1.7-0.3,3-2.1,4c-2.5,1.4-4.6,3.3-6.9,5c-0.3,0-0.7,0-1,0c-2.4-0.8-1.6-3.6-2.5-4.7c-1.4-1.6-4.3-3.3-5.9-3.8
	c-4.2-1.3-9.1-0.7-13.6,0.7c-0.6-0.1-1.3-0.2-1.9-0.3c0-2.8,0.1-5.7-0.1-8.5c-0.1-1.5,0.9-3.8-1.6-4c-1.9-0.2-1.9,1.7-2.5,3.1
	c-2.6,6-6-1.6-9.2,0.4c-1.3,0.9-2.7-0.6-2.7-2.5c0-1.5,0-3.1,2.1-3.3c0.9-0.1,2.1,0.3,2.2-1.5c-2.4-1-4.7-0.3-7.1,0.2
	c-3.1,0.6-6.3,0.5-6.2-4c0-1.7-0.3-1.8-1.9-1.1c-1.3,0.6-2.9,0.4-4.4,0.5c-1.1-0.3-0.8-1.2-1-2c3.2-1.4,3-3.9,1.7-6.8
	c2.4,0.3,3.8,1.3,5.3,2.3c2.1,1.4,4.5,2.9,7.3,1.3c0.8,0.1,1.7-0.1,1.9,1c-0.2,2.4,0.1,4.7,2.9,5.4
	C231.2,508.3,233.2,507.8,234.2,505.5z M232.9,511.5c2.1,0.9,3.4,1.3,5.2-0.3C236.3,510.2,235.1,510,232.9,511.5z M281.7,521.1
	c-0.3-0.1-0.6-0.4-0.8-0.3c-0.2,0.1-0.2,0.5-0.4,0.8c0.3,0.1,0.6,0.4,0.8,0.3C281.5,521.8,281.6,521.3,281.7,521.1z"/>
<path class="st4" d="M171.7,252c-1.6-5.6,3.3-6.9,6.3-9.1c5.1-3.8,10.4-7.2,15.9-10.5c4.7-2.8,9.4,0.1,13.1,1.9
	c6.9,3.4,14.3,5.7,21,9.8c5,3,9.2,6.7,13.2,10.7c2.1,2.1,1.5,5.6,0.7,8.1c-1.9,6.1-3.5,12.3-6.4,18.1c-2.1,4.1-3.7,3.4-5.7,0.3
	c-1.6-2.5-3.1-5.1-4.5-7.7c-0.3-0.5-0.4-1.5-0.1-1.9c4.9-6.4,0.6-12.2-2.7-16.3c-4.6-5.6-11.2-9.6-19-10c-2.5-0.1-5,0.1-7.5,0
	c-5.9-0.2-11.2,1-15.2,5.7C178,254.4,175.1,256.1,171.7,252C171.7,252,171.7,252,171.7,252z"/>
<path class="st3" d="M178,438.4c5.1,0.7,9.8,1.1,12.1-5.2c0.9-2.3,7.9-2.5,10.6-0.7c3,2,0.6,4.2,0.1,6.2c-0.7,2.7-4.1,5.2,0.1,7.9
	c-3,3.6,0.8,7.6-0.6,11.1c-1.3,3.2-0.2,4,2.5,4.9c7.2,2.4,8,4.1,6,11.4c-1.1,4,0.9,6.1,5,5c2.9-0.8,3.6-0.3,3.7,2.8
	c0.1,3,0.6,6.2,5.2,5.5c3-0.5,2.9,2.1,3.1,3.8c0.4,2.9,0.7,5.1,4.8,4.2c2-0.5,4.5,0.8,6.7,1.5c3.3,1,1.8,3.7,1.8,5.9
	c-8.8-2.3-16.8-6.4-24-11.8c-6.1-4.6-9.1-11.7-11.8-18.7c-0.8-2.1-1.7-3.9-3.2-5.6c0,5,3.4,8.9,4.3,14.5
	c-11.5-10.4-18.3-22.9-24.1-36C179.3,442.8,177.7,440.9,178,438.4z"/>
<path class="st3" d="M385.4,341.7c-2.4,2.3-4.9,4.6-7.3,6.9c-5,2.9-9.1,7-12.9,11.2c-4.6,5-9.8,9.3-15,13.6
	c-0.5-4.4-3.6-5.6-7.6-5.9c2.8-1.6,5.7-1.5,8.4-0.6c1.9,0.6,3.5,0.1,4.6-1c2.1-1.9-1.5-1.4-1.3-2.6c0.2-1.2-1.3-2.7,1.4-3.3
	c3.6-0.9,6.4-3.5,7.3-7.3c0.5-2,1.6-2.4,3.2-2.2c3.2,0.3,4.1-1.2,3.9-4.1c-0.2-1.8,0.1-3.7-0.2-5.5c-0.9-6.2,0-7.2,6.4-6.3
	c3.7,0.5,7.1,0.2,10.6-1c3.5-1.2,5.9-2.8,0.5-6.4c4.6-0.2,7.1,0.2,6.8,4.7c-0.2,3.2,2.5,2.4,4.3,2.5c2,0.1,4-0.3,3.5-2.9
	c-1.3-7.2,2.3-14.1,1.2-21.4c-0.5-3-0.5-7,4.3-8.2c2.2-0.5,2.6-2.7,2.5-4.9c-0.1-2.3,0.4-4.5,0.9-6.8c1.2-4.8,3.3-4,6.1-1.8
	c-1.8,7.2-5.6,13.7-8.1,20.7c-0.9,2.4-1.4,4.9-0.8,7.2c1.7,6.4,0.9,12.9,0.7,19.2c-0.1,6.2-8.6,10.9-15.1,9.1l-0.1-0.1
	c-2-2.7-3.3-5.7-4-8.9C386.9,336.8,388.2,340.7,385.4,341.7z"/>
<path class="st3" d="M289.2,318.3c-4.1,0.2-8.1-2-12.3-0.1c-1.5,0.7-3.2-0.4-2.7-2.4c1.3-5.6-1-11.1-0.2-16.7
	c0.2-1.6,0.3-3.7-2.2-3.6c-6.3,0.1-11.8-4.2-18.6-2.4c-2.7,0.7-6,0.6-9.3-0.1c-2.5-0.6-3.8,4.5-3.1,5.8c2.2,4.2-0.5,3.6-2.8,3.7
	c-1.1,0.1-2.9,0-2.8,1.4c0.6,6.4-6.7,11.4-2.9,18.2c0.4,0.8,0.6,1.9-0.4,2.2c-5.1,1.6-4.9,6.3-5.9,10.2c-2,7.8-2.3,15.5,3,22.3
	c2.7,3.5,7.3,3.9,10.9,3.4c2.6-0.3,5.6,0,8.1-1.5c0.4-0.2,1.6,0,1.8,0.4c2,4.5,4.8,1.9,7.7,1.2c2.8-0.6,5.8-0.5,8.7-0.8
	c-3.5,5.6-12.9,8.8-21.2,6.8c-4.8-1.2-9.6-2.8-14.2-4.6c-8.7-3.4-11.5-9.5-9.7-18.6c3-15.6,8.1-30.5,12.9-45.5
	c1.8-5.5,5.3-7.8,10.4-8.1c10.2-0.5,20.3,0,29.9,3.9c1.8,0.7,3.5,1.4,3.7,3.4C278.9,305.5,283.2,312.3,289.2,318.3z"/>
<path class="st3" d="M168.2,292.4c-6.2,1.5-6.5,6.1-6.1,11.3c0.3,4.1,0.1,8.3,0.1,12.5c0,1.1,0.3,2.8-0.4,3.4
	c-5.2,5.3-1.1,10.5,0,15.7c0.7,3.3,0.8,6.6-0.1,9.9c-0.5,1.8-0.6,3.9,1.4,4c3.5,0.1,5.4,1.7,6.4,4.8c1.1,3.6,1.1,7.1-0.4,10.6
	c-4.6-8-9.3-15.9-13.9-23.9c-2-3.4-1.6-7.5-1.7-11c-0.3-7.1-1.4-14.1-1.4-21.2c-0.1-8.4-1.1-16.7-1.9-25c-0.2-2.8,0.7-5.3,1.5-8.5
	C158.2,280.2,162.6,286.9,168.2,292.4z"/>
<path class="st3" d="M252.7,638.8c-0.1-5.7-0.1-11.3-0.2-17v0c-0.1-5.9,2-11.5,2.8-17.3c0.2-1.4,0.8-2.6,3.1-1.6
	c3.7,1.7,9.2-1.8,11.4,1.6c1.8,2.8-0.8,7.5-0.7,11.5c0.3,8.6,0,17.3,0.1,25.9c0,2.7-0.8,3.6-3.4,3.3c-3.1-0.4-6.1-0.7-9.2-1.2
	C253.9,643.5,251.8,642.2,252.7,638.8C252.6,638.8,252.7,638.8,252.7,638.8z"/>
<path class="st3" d="M172.2,283.5c-2.1-4.6,0.8-10.4-3.8-14.3c-0.1-0.1-0.1-0.4-0.1-0.5c2.9-5.7,0.8-8.6-5.2-9.6
	c-0.9-0.2-0.7-1.2-0.8-2.1c-0.1-5.2,0-10.4-0.5-15.5c-0.2-2.4,0.7-3,2.6-3c3.3,0,6.6-0.1,10,0c2.4,0.1,3.8-0.7,3.6-3.4
	c-0.1-0.7-0.2-1.5,0-2c1.4-2.4-3.2-7,3.6-7.9c3.1-0.4,5.7-4.2,9.6-1.7c0.4,0.2,1,0.3,1.4,0.1c7.4-2.8,14.5,1,21.8,0.9
	c1.1,0,3.1-0.7,3,1.4c-0.1,1.7-1.3,2.7-3.1,2.5c-1.6-0.2-3.5,0.9-5-1.1c-1.4-1.8-3.1-1-4.5,0c0.8,3.4,6,1.1,6.1,5.2
	c-3.5-0.5-6.8-1.7-9.9-3.3c0.1-0.6,0.8-1.3-0.1-1.6c-0.9-0.3-1.6,0.2-2,1c-3.1-0.6-5.6,0.4-8.1,2.4c-6.2,4.9-12.4,9.8-19.1,14
	c-4.5,2.8-2.7,4.6-0.2,7l0,0c4.7,6,2.8,14,6.4,20.4c0.6,1.1-0.1,2.4-1,3.6C175.3,278.3,173.8,281,172.2,283.5z M190.9,225.9
	c-0.1,0.3-0.2,0.5-0.4,0.8c0.3,0.1,0.6,0.4,0.8,0.3c0.2-0.1,0.2-0.5,0.4-0.8C191.4,226.1,191.1,226,190.9,225.9z"/>
<path class="st3" d="M289.3,383.4c1.6-0.5,3.2-0.3,4.9,0c4.1,0.7,4.7,2.7,3,6.6c-2.2,5-4.3,9.8-10,12.2c3,0,6,2,8.1-1.5
	c2.5,6.3,6.6,8.6,14.3,7.2c2.9-0.5,3.5,0.5,4.1,2.6c1.5,5.1-1.2,10-5.8,11.2c-2,0.5-3.1-0.1-4.3-1.4c-1.5-1.6-2.9-3.3-5.4-2.9
	c-0.3-1.6-0.7-3.2-1-4.9c0.9-0.5,2.6,0.6,2.9-1c0.3-1.4-1.4-1.4-2-1.6c-4.5-1.7-9-3.5-14-3.4c-8.3,0.2-16.7-1.1-24.8,1.9
	c-1.3,0.5-2.8,0.2-1.6-2c1.5-2.8,2.5-5.9,2.5-9.2c0-2.3,1.6-1.8,2.8-1.6c6.3,0.7,12.6,1.2,18.8,2.4c2,0.4,3.9,0.3,5.8,0.5
	c2.4,0.3,2.7-0.8,2.6-2.8C290.1,391.4,290.1,387.4,289.3,383.4z"/>
<path class="st3" d="M368.2,471.3c2.4,0.3,3.1,1.9,2.8,3.9c-2.3,15.1-0.5,30.3-0.9,45.5c-0.1,2.5-0.1,5,0,7.5
	c0.1,3.3,0.4,6.7-4.6,6.3c0.5,2.3,2.6,1.8,3.4,3.1c1,1.7,2.1,3.4-0.4,4.5c-4.3,1.9-2.6,5.1-1.7,7.9c2.5,7.5,0.6,15.1,1,22.6
	c0,0.4-0.5,1.2-0.7,1.2c-6-1.1-6.7,4.9-10,7.5c-1-4.3,0.9-8.4,1.2-12.6c0.7-8.5,2.2-17,3.6-25.5c2.5-14.1,3.1-28.5,4.8-42.7
	C368,490.9,367.8,481.1,368.2,471.3z"/>
<path class="st3" d="M286.2,626.3c0,5.8-0.1,11.6,0,17.4c0.1,2.7-0.5,4-3.5,3.6c-2.1-0.2-4.2-0.6-6.2-0.9c-2.9-0.4-3.5-1.7-3.5-4.2
	c0.3-11.9-0.7-23.8,1-35.6c0.2-1.6,0.4-2.2,2.2-2.4c9.5-1,9.8-0.8,9.8,8.7c0,4.5,0,9,0,13.4C286.1,626.3,286.2,626.3,286.2,626.3z"
	/>
<path class="st2" d="M235,626.7c-0.7-8.4,0.9-15.5,3.6-22.4c1.2-3,11.4-3.9,13.4-1.3c0.4,0.5,0.7,1.4,0.5,1.7
	c-5.4,9.8-4.2,20.4-4.2,30.9c0,4-1.7,5.7-5.6,5.7c-3.9,0-7.5,0-7.7-5.2C234.9,632.7,235,629.2,235,626.7z"/>
<path class="st3" d="M420.1,282.4c-1.2-3.9-5.9-4.1-7.8-7.3c-0.5-0.9-1.6,0.1-1.9,0.8c-0.6,1.2-1.1,2.4-1.3,3.7
	c-0.5,2.1-0.7,4.3-1,6.5c-4.1-0.7-8.6,1.6-12.5-0.8c-2.9-1.8,1-3.9,0.5-5.9c5.3,4.1,8.9,2.4,12.3-7c-2.3,2.4-3.6,3.8-5,5.2
	c-1.1,1.2-2.2,2.7-4.1,1.6c-1.8-1-1.6-3-1.2-4.5c1.5-5.3,4.6-9.6,9.5-12.3c2.1-1.2,4.4-2.1,6.4-3.4c3.5-2.4,5.6-0.8,7.7,2
	c4.2,5.4,5.2,10.8,0.8,16.6C421.5,278.9,420.9,280.7,420.1,282.4z"/>
<path class="st3" d="M324.1,487.4c-1.1-4.8-2-9.6-0.8-14.5c0.3-1.3-0.1-2-0.6-3.1c-2.1-5-0.7-7.3,4.6-7.4c2.8-0.1,4.2-0.9,3.5-3.8
	c-0.3-1.3-0.2-3.3-1.9-3.7c-1.4-0.4-2.2,1.2-2.9,2.3c-0.6,1-1.3,2.1-2.7,1.6c-1-0.4-1.3-1.4-1.3-2.5c0-2-0.1-4,0-6
	c0.1-1.4,0.8-1.9,2.4-1.7c4.2,0.8,6.7-2.1,7.1-6.5c0.5-4.9,1.5-9.9,6.3-12.9c-0.2,11.6-1.2,23.1-3.6,34.5c-0.7,3.3-1,6.7-1.6,10.1
	C331.8,479.6,328.9,484.1,324.1,487.4z"/>
<path class="st3" d="M307.1,519.4c-0.3-1.1-1-2.2-1-3.2c0.2-4.2-0.4-7.2-5.9-5.9c-2.2,0.5-3.4-0.7-3.2-3c0.6-1.5,2-0.6,2.9-1
	c3.1,2.9,7,1.7,10.6,2.6c0.2-3.1-4.6-2.2-3.5-5.5c5.7-4.2,12.4-6.8,18-11.4c6.4-5.2,12-11,17.2-17.3c0.2-0.3,0.8-0.3,1.8-0.7
	c-0.9,4.4-3.5,7.7-5.5,10.9c-7.9,12.9-17.5,24.5-29.6,33.8C308.5,519.2,307.7,519.2,307.1,519.4z"/>
<path class="st1" d="M217.9,386.4c-3.9,1.1-7.5,7.9-5.8,11.1c0.7,1.3,1,2.5,0,3.7c-1.6,1.9-2.2-0.3-3.1-0.9
	c-1.9-1.1-3.9-0.9-5.8-0.9c-0.9-3.8-3.8-6.8-4-10.8c2.2-1.9,1.1-5.1,2.8-7.2c2.3,0.5,5,1.1,6.9-0.3c1.9-1.5-0.4-10.7-2.8-12.7
	c0.4-2.3,1.5-4.3,3-6.1c-0.3,2.9,1.7,2.9,3.8,3.3c5.1,1,6.4,2.9,5.6,8.2c-0.4,2.4-0.4,4.6,0.8,6.8
	C219.6,382.6,218.3,384.4,217.9,386.4z"/>
<path class="st3" d="M320,597.2c3,1.2,3.2,6.7,0.2,7c-6.6,0.6-9,6.2-13.5,9.2c-4.7,3.1-8.1,7.9-13.7,9.9c-1.8,0.7,0.3,4.1-2.3,5
	c-0.3-11.2-1-22.5-0.1-33.8c0.3-3.8-3-4.3-4.8-5.9c-2-1.8-2.4-3.1-1.6-5.4c1.1-3.1,1.9-6.3,3.8-9.5c2.9,13.8,5.8,27.5,8.7,41.5
	C304.5,609.1,312.2,603.2,320,597.2z"/>
<path class="st3" d="M285.4,561c-5.9,0.3-11.4,1.8-17,1.3c-1.9-0.2-2.7-0.2-3.5-2.6c-2.1-6.2,1.2-12,0.4-18
	c-0.2-1.6,6.4-1.8,9.2-0.5c6.6,3.1,9.6,8.2,9.5,15.4C284,558.1,284.8,559.3,285.4,561z"/>
<path class="st5" d="M265,567.4c5.5-2.4,11.3-0.6,16.9-1c1.4-0.1,1.2,1.3,1.2,2.2c-0.1,5.8-2.5,11-3.9,16.5c-0.3,1.1-1,1.1-1.8,1.3
	c-4.3,0.9-8.7,2.5-12.8-0.6C265.4,579.7,265.1,573.5,265,567.4z"/>
<path class="st3" d="M260.5,567.8c0.1,1.4,0.1,2.7,0.2,4.1c0,0.3,0,0.7,0,1c-0.1,2.3,0,4.7-0.2,7c-0.3,2.3,1.4,5.5-1.4,6.8
	c-3.5,1.6-7.5,0.7-11.2,0.3c-0.6,0-1.4-2-1.7-3.2c-1.4-5.2-2.6-10.5-4-16.2c5.4,0,10.5-1.7,15.9-1.3
	C259.1,566.4,260.4,566.1,260.5,567.8C260.5,567.8,260.5,567.8,260.5,567.8z"/>
<path class="st3" d="M224.2,501.3c-2.8,1.6-5.2,0.1-7.3-1.3c-1.5-1-2.9-2-5.3-2.3c1.3,2.8,1.4,5.4-1.7,6.8c-6-3.1-8.8-8.9-12.4-14.1
	c-6.7-9.5-11.6-20-15.8-31C192.4,476.9,206.1,491.4,224.2,501.3z"/>
<path class="st2" d="M243,561.6c3.5-5.8,6-11.9,8.1-18.2c1.5-4.7,5.1-3.9,8.4-3.8c1.4,0,1.7,1.3,1.7,2.6c-0.1,5.5-0.2,10.9-0.2,16.4
	c0,2.8-1.2,4.1-3.9,3.6C252.4,561.5,247.7,564.6,243,561.6z"/>
<path class="st3" d="M327,320.3c1.4,0.8,3.3,1.2,3,3.4c-0.4,2.3-2.8,2.1-4,2c-3.4-0.1-4.5,1.1-4.5,4.4c0,3.4-3.3,4-5.5,4
	c-4.8,0-9.8,1.5-14.4-1.6c-1.2-0.8-3.8,0.3-2.2-3.1c0.4-0.8-3.2-3.6-5.9-4.1c-3.3-0.6-4.3-2.2-2.1-5.1c6.9,3.1,13.8,6.2,21.8,5.1
	c3.1-0.4,5.7-2.4,8.9-2.1c0.4-0.3,0.8-0.5,1.2-0.8C324.4,321.9,325.1,320.1,327,320.3z"/>
<path class="st3" d="M215.1,101.4c-0.6,1-1.6,1.2-2.6,0.9c-7.2-2.1-14.6-0.7-21.9-0.9c-3.1-0.1-4.6,1.4-5.3,4.1
	c-0.3,1.1-0.1,2.6-1.4,3c-3.9,1.2-7.6,2.3-7.4,7.7c0.1,1.2-1.8,0.7-3,0.5c-2.4-0.4-4.6,1.3-4,3.2c2.1,6.6-2.7,5.7-6.2,6.3
	c-0.9,0.2-1.9-0.2-2.9-0.2c6.2-9.8,13.9-18.1,23.7-24.5c0.4-0.3,0.7-0.5,1.1-0.8c4.8-4.9,10.2-5.9,16.5-3.2
	C205.9,99.3,210.9,99.3,215.1,101.4z"/>
<path class="st3" d="M219.2,380.5c-1.2-2.1-1.1-4.4-0.8-6.8c0.8-5.3-0.4-7.2-5.6-8.2c-2.1-0.4-4.1-0.5-3.8-3.3
	c0.8-2.5,1.8-4.6,4.4-6c2.9-1.5,4.6-1.9,6,1.7c1.8,4.8,6.9,5.5,10.9,7.2c1.6,0.7,1.7,2.6,3.4,2.7c-0.8,0.8-1.6,2.1-2.5,2.2
	C224.7,370.8,222,375.6,219.2,380.5z"/>
<path class="st3" d="M349.1,594.4c-1-3.4-3.4-4.4-6.8-4.2c-3.9,0.2-7.9,0.4-11.3-2c7.3-6.1,14.7-12.1,22-18.2
	C351.6,578.4,352.3,586.7,349.1,594.4z"/>
<path class="st1" d="M297.1,412.5c0.3,1.6,0.7,3.2,1,4.9c-3.2-1-6.5-3.3-9.5,0.8c-0.4,0.6-2.2,0.2-3.4,0.2c-1.5,0-2.1,0.8-2.1,2.2
	c-3.3,0.1-6.6,0.2-10,0.3c-1.3-2.3-1.3-2.3-8.1-2.7c1.4-2.2,1-4.6,1-6.9c2.7-1.2,5.4-2.4,8.4-1.7c-0.1,2.4-4.7,0.9-3.6,3.5
	c1.1,2.6,3.7,0.7,5.7,0.4c0.5-0.1,1.1,0.1,1.5-0.1c4.5-2.4,9.8,1.5,14.1-2C293.9,411.4,295.7,411.1,297.1,412.5z"/>
<path class="st3" d="M377.4,115.7c-0.7,1.9-2.5,2.1-4,2.5c-1.9,0.6-3.2,0.4-2.6-2.4c0.9-4.1-1-6.2-5.3-6.1c-1.1,0.1-2.8,0.7-3-0.8
	c-0.9-7.8-7.6-6.5-12.1-6.9c-3.3-0.3-3.8-1.3-4.2-3.8c-0.6-4-3.8-6.1-7.6-4.8c-2.8,0.9-5.5,1.1-8.2,0.6c4.7-4.3,9.5-4.5,15.1-1.5
	C357.1,98.6,368.5,105.4,377.4,115.7z"/>
<path class="st3" d="M395.2,263.4c-3-3.6-0.6-7.7-0.4-11.3c0.3-6.2-1.6-12.8,2.1-18.5c3.3,7.1,4.7,14.8,7.1,22.2
	c0.6,1.8,0.4,3.9-2.2,4.7C399.4,261.2,397.3,262.4,395.2,263.4z"/>
<path class="st3" d="M386.1,462.3c-2.1,0-4.3,0.1-6.4,0c-4.4,0-8.9-0.8-11.6,4c-0.9-7-1.7-13.9-2.6-21.5
	C373.1,450.3,379.7,456.3,386.1,462.3z"/>
<path class="st3" d="M210.9,506.4c1.5-0.1,3.1,0.1,4.4-0.5c1.6-0.7,1.9-0.6,1.9,1.1c-0.1,4.5,3.1,4.7,6.2,4c2.4-0.5,4.7-1.1,7.1-0.2
	c-0.1,1.8-1.4,1.4-2.2,1.5c-2.1,0.2-2.1,1.7-2.1,3.3c0,1.9,1.3,3.4,2.7,2.5c3.2-2,6.6,5.6,9.2-0.4c0.6-1.4,0.5-3.3,2.5-3.1
	c2.5,0.3,1.5,2.5,1.6,4c0.1,2.8,0.1,5.7,0.1,8.5C230,522.8,219.2,516.5,210.9,506.4z"/>
<path class="st3" d="M144,241.4c3.6,0.7,1.5,3,1.1,4.6c-1.3,6.5-0.6,7.6,6.1,8.8c1.1,0.2,2.8,0.7,2.4,1.9c-1.3,3.9,1.1,8.1-1.5,11.8
	c-3.4-3.6-6.7-7.5-10.4-10.9c-2.5-2.2-2.8-4.3-1.5-7.1C141.5,247.4,142.7,244.4,144,241.4z"/>
<path class="st3" d="M160.2,127.2c3.2,2.4,0.8,5.8,1,8.5c0.1,2.5,1.1,8.1-5.4,6.2c-1.1-0.3-2.6,0.9-2,3.1c1.3,5.3-3.2,8.6-5.1,12.8
	c-0.5,1.2-1.7-0.1-2.6-0.3C149,146.5,153.1,136.1,160.2,127.2z"/>
<path class="st3" d="M145,160.4c2.9,3.8-0.3,7.9,0.5,11.9c0.3,1.7,0.5,2.7,2.1,3.2c2.7,0.8,4.1,3,4.3,5.5c0.2,3,0.6,5.9,1.8,8.7
	c0.6,1.6,0.2,2.6-1.6,2.8c-3.1-5.6-6.3-11.2-9.2-16.9c-1.2-2.4-0.9-4.9,0-7.5C143.7,165.5,143.8,162.8,145,160.4z"/>
<path class="st3" d="M328,95.3c3,4.9,2.5,6.2-2.9,6.1c-4.9-0.1-8.2,2.7-11,5.7c-2.3,2.4-4,3.6-7,2.4c-2.3-0.9-5.2,2.7-7-1.1
	C309.9,105.2,318.7,99.7,328,95.3z"/>
<path class="st3" d="M341.9,295.3c5.5,6.1,4.6,10.8-3,14.9c-0.9,0.5-1.4,0.8-1.4,2.1c0,6,0,6-6.6,5c4.6-6.2,9.2-12.5,9.2-20.8
	C340.1,295.4,341.1,295.4,341.9,295.3z"/>
<path class="st3" d="M276.1,591.3c-2,6.3-5.5,9.3-11.9,8.1c-1.9-0.4-4.9-0.2-4.7-2.1c0.2-2.3,1-5.8,4.7-5.9
	C268.1,591.2,272,591.3,276.1,591.3z"/>
<path class="st3" d="M339.9,401.4c-2.1-0.4-1.8-2.1-1.8-3.5c-0.2-6.5,0.9-13,0.2-19.6c-0.3-2.9,2.7-4.1,4.7-5.3
	c2.5-1.5,3.7,1.2,5.2,2.6c-7.8,5.4-9.2,13.2-8.1,21.9C340.2,398.7,339.9,400,339.9,401.4z"/>
<path class="st3" d="M244.1,527.5c4.5-1.3,9.4-2,13.6-0.7c1.6,0.5,4.5,2.2,5.9,3.8c0.9,1,0.1,3.8,2.5,4.7c-3.6,0-7.1,0-11,0
	c0.6-1.7,1.1-3.1,1.7-4.7C252.3,530.2,248,529.5,244.1,527.5z"/>
<path class="st3" d="M395.8,229.4c-5.8,0.8-8.8-2-7.6-7.8c0.5-2.3,0.7-4-0.8-6c-2.1-2.8,1.4-4.6,1.4-7.1
	C391.2,215.6,393.5,222.5,395.8,229.4z"/>
<path class="st3" d="M154,270.4c1.5,0,3,0,4.4,0c0.8,0,2.3,0.2,2.3,0.2c-0.2,6.2,7.3,6.5,8.6,11.5c0.4,1.6,1.7,1.1,2.8,1.4
	c0,1.5,0,3.2-1.6,3.9c-1.6,0.6-2.2-1.1-3.1-2C163,280.4,158.6,275.4,154,270.4z"/>
<path class="st3" d="M170.3,416.4c5.6-2.5,5.2-2.5,6.3,3.7c0.8,4.4-0.3,9,1.4,13.3c0.4,1,0.1,2.3-1,3.1
	C174,430,172.3,423.1,170.3,416.4z"/>
<path class="st3" d="M257.2,591.3c-1.9,5.9-5.3,8.2-10.7,6.9c-1.5-0.3-4.5,1.2-4.1-1.5c0.3-2.1,1.3-5.2,4.6-5.4
	C250.3,591.2,253.6,591.3,257.2,591.3z"/>
<path class="st3" d="M235.1,244.2c0.2-4,3.9-3.8,7-5.7c-0.7,5.5,0.4,9.4,6.6,9.1c0.4,0,1.1,0.8,1.2,1.3c0.2,1.1-0.6,1.9-1.6,2.2
	c-1.4,0.4-3.1,0.2-3.2,2.4C242.5,249.7,238.7,247,235.1,244.2z"/>
<path class="st3" d="M237.1,107.4c-2.1,1.7-4.1,3.9-7.2,1.4c-1-0.8-3.2-1.3-4.2-0.8c-7.1,4-6.5-1.8-7.6-5.6
	C224.5,103.8,231.1,104.5,237.1,107.4z"/>
<path class="st3" d="M328.1,265c-5.5-1.3-5.8-1.6-2.2-5.7c1.3-1.5-3.7-2.9,0.4-2.8c2.7,0.1,3.9,1.9,5,4.4c1,2.5,1,4.8,0.3,7.1
	c-0.2,0.8-0.2,2.6-1.9,2.3c-1.1-0.2-2.3-0.6-3-1.4c-1.3-1.4,0.6-1.8,1.1-2.6C328,265.9,328,265.4,328.1,265z"/>
<path class="st3" d="M270.1,651.6c-0.1,2.1-2.2,2.8-3.4,2.4c-4.1-1.1-8.2-1.7-12.4-1.9c-2.1-0.1-2.6-2-2.1-3.7c0.5-2,1.8-0.9,3-0.6
	c3.7,0.7,7.4,1.1,11.1,1.4C268.1,649.4,269.6,649.5,270.1,651.6z"/>
<path class="st3" d="M336.3,262c7.4,5.4,7.6,7.9,1.4,13.3c-0.8,0.7-1.4,2.5-3.1,1.1c-1.6-1.2-2.2-3.1-1.1-4.3
	C336,269.3,336.1,266,336.3,262z"/>
<path class="st3" d="M211.8,253.1c-9.5-1.3-19-1.5-29.1,1.9C188.3,248.2,202.2,247.5,211.8,253.1z"/>
<path class="st3" d="M363.1,279.4c-1.1-2.6-2.3-5.6,0.1-7.6c2.8-2.2,10.2-0.9,12.3,1.4l-0.3,0.1c-0.4,0.3-0.8,0.6-1.2,0.9
	C370.5,276.1,367,278.3,363.1,279.4z"/>
<path class="st4" d="M281.3,600.2c-1.2-0.7-4.6,1.2-4-2c0.5-2.6,1.9-6.2,5.2-6.3c2.4-0.1,4.4,1.9,4.5,4.9
	C287.3,601.1,284,600,281.3,600.2z"/>
<path class="st3" d="M206,368.3c2.4,2,4.7,11.2,2.8,12.7c-1.9,1.4-4.5,0.8-6.9,0.3c0.1-0.6,0.2-1.3,0.4-2c0.2-0.4,0.5-0.8,0.7-1.2
	c0-3.1,0.7-6.1,2.3-8.8C205.6,369,205.8,368.6,206,368.3C206.1,368.3,206,368.3,206,368.3z"/>
<path class="st3" d="M387.9,180.4c-2.2-4.4-0.5-8.8,0-13.3c0.6-4.7,3.7-5.4,7.6-4.9C392.8,168.3,389.2,173.9,387.9,180.4z"/>
<path class="st3" d="M267.1,535.2c2.3-1.7,4.4-3.6,6.9-5c1.8-1,2.1-2.3,2.1-4l0,0c1,0.3,1.8-2.9,3-0.2c-2.9,2.4,1.1,4.6,0.2,7.1
	c-0.4,1.2,1.9,3.9,0.2,4.8c-2,1-4.2-0.7-5.6-2.6c1-0.2,2-0.4,1.9-1.8c0-0.5-0.4-1-0.9-0.8c-1.1,0.5-0.7,1.7-0.9,2.6
	C271.7,535.4,269.4,535.3,267.1,535.2z"/>
<path class="st3" d="M292.2,411.3c-4.3,3.5-9.7-0.4-14.1,2c-0.4,0.2-1,0.1-1.5,0.1c-2,0.3-4.6,2.2-5.7-0.4s3.5-1.1,3.6-3.5
	C280.5,409.1,286.5,409.2,292.2,411.3z"/>
<path class="st3" d="M150.3,223.4c1.6,0.1,3.2,0.1,2.1,2.4c-1,2-1.4,4.4-3.5,5.6c0.2,1.2,1.3,1,1.9,1.3c1.7,0.8,2.6,1.9,2.2,3.9
	c-0.4,2.1-2.1,1.7-3.5,1.7c-1.5,0.1-3,0-4.4,0C146.8,233.4,148.6,228.4,150.3,223.4z"/>
<path class="st3" d="M203.1,363.4c-1.9-3.2,0-6.7-0.9-10c-0.5-2,1.8-2.3,3.1-2.3c2.3-0.1,4.6,0.2,6.8,0.4c-3.4,3.5-6.3,7.4-8,12
	C203.9,363.4,203.5,363.4,203.1,363.4L203.1,363.4z"/>
<path class="st2" d="M202.2,274.6c-1.3-0.3-2.6-0.3-3.8-0.8c-1.9-0.8-4.9-1.4-3.9-4c1.1-2.9,3.3-0.3,4.9,0.3
	c2.9,1.2,5.4-1.1,8.2-0.6c0.9,0.1,2.2-0.5,2.6,0.7c0.5,1.5-0.8,1.7-1.9,2.3C206.2,273.5,204.5,274.8,202.2,274.6z"/>
<path class="st3" d="M394.1,141.4c-5.7,1.9-7.8,0.4-7.2-5.3c0.3-3-1.5-5.8-0.9-8.8C390,131.3,392.1,136.3,394.1,141.4z"/>
<path class="st3" d="M378,277.3c0.1,10.1-1.6,11-12,6c0.3-1.1,1.2-0.8,1.9-0.9c0.4-0.3,0.8-0.5,1.1-0.8
	C372,280,374.7,278.1,378,277.3z"/>
<path class="st3" d="M179.8,316.7c-6.9,3-7.9,2.7-8.4-4.3c-0.2-2.5-0.7-5.5,0.8-8C174.2,308.8,176.7,313,179.8,316.7z"/>
<path class="st3" d="M362,285.2c1.1,3.3-2.7,5.5-1.4,9.6c-2.7-2.5-4.7-3.7-7.8-1.8c-1,0.6-4.1,2.9-5.7-0.4
	C351.9,289.9,356.8,287.2,362,285.2z"/>
<path class="st3" d="M395.9,161.8c-3.3-5.5-1-10.9,0.1-16.4c1.6,0.6,0.9,2.2,1.5,3.3C400.5,153.5,401,158,395.9,161.8z"/>
<path class="st3" d="M378.4,272.1c-0.7-7.7,1.7-9.8,9.2-7.8c0.8,0.2,1.6,0.1,2.5,0.1l0,0c-0.6,0.9-1.9,1.4-1.9,2.7
	C384.9,268.8,381.6,270.5,378.4,272.1z"/>
<path class="st3" d="M194.2,325.3c-2.6,0-5.3,0.1-7.9,0.1c-7.8,0-7.8,0-5.9-7.9C184.6,320.8,189.5,323,194.2,325.3z"/>
<path class="st6" d="M310.8,268.5c6-0.5,9.8,3.6,15,4.6C319.5,277.8,314.1,275.3,310.8,268.5z"/>
<path class="st3" d="M290.7,646.3c2.6-0.1,3.5,2.9,6.2,3.2c1.5,0.2,1,2.8,0,4.2c-1.4,1.8-3,3.4-4.5,5.2
	C291.4,654.7,289.5,650.7,290.7,646.3z"/>
<path class="st3" d="M298.1,502.2c-0.6-8.8,2.5-8.9,12-5.8C306.3,498.8,302.5,501,298.1,502.2z"/>
<path class="st3" d="M282.3,656.2c-2.4,0.8-4.4-1-6.7-1c-1.9,0-1.5-1.3-1.5-2.4c-0.1-1.3,0.6-1.7,1.8-1.6c2.3,0.1,4.7-0.2,6.8,0.5
	c1.6,0.5,5.1,0.2,4.2,3.4C286.4,657.5,283.8,655.6,282.3,656.2z"/>
<path class="st3" d="M76.4,521.4c-0.3-3.2-2.3-6.6,2-9.3c1.4-0.9,3.5-2.5,3.8-4.8c1.1,0,2.3-0.1,3,1.1
	C83.2,513.4,79.4,517.2,76.4,521.4z"/>
<path class="st3" d="M211,232.5c3.1-0.5,6.1-1,9.2-1.6c1.8-0.4,3.8-1.2,5,0.6c1.1,1.6-1,2.5-1.6,3.7c-0.4,0.7-0.3,1.6-0.5,2.4
	C219.1,235.8,215,234.2,211,232.5z"/>
<path class="st3" d="M394.9,276.4c-0.3,0-0.6,0-0.9,0l0,0c-1.4-2.7-3.3-1.9-5.3-0.9c-2.2,1.1-3.8,1.2-3.7-1.9
	c1.4-0.7,2.8-1.6,4.2-2.2c2.4-1,4.3-3.4,7.4-2.7C396.1,271.2,395.5,273.8,394.9,276.4z"/>
<path class="st3" d="M279.1,370.2c0.6-2.5,3.2-3,4.9-3.3c1.7-0.3,5-0.3,5.4,1.9c0.3,1.9-0.5,4.8-3.4,5.5
	C284.1,372.3,281.5,371.4,279.1,370.2z"/>
<path class="st2" d="M213.1,262c-0.1,1.7-0.4,4.2-2.4,3c-1.8-1-5.8,1.1-5.6-3.2c0.1-2.8,1.6-4.4,4.4-4.2
	C212.1,257.7,213.3,259.4,213.1,262z"/>
<path class="st3" d="M238.9,645.3c2.8-0.1,4.9,1.6,7.5,1.1c1.3-0.3,1.7,0.6,1.7,1.8c0,1.3-0.1,2.4-1.8,2.2c-3.1-0.3-6.1-0.6-9.2-1.1
	c-1.4-0.2-0.9-1.5-0.9-2.4C236.3,644.4,238.2,645.7,238.9,645.3z"/>
<path class="st6" d="M251.2,398.9c-0.3-2.9-1.8-5.3,1.6-4.6c1.6,0.3,4.9-1.2,4.1,2.2c-0.5,2.3,0.4,6.6-3.3,6.7
	C249.9,403.3,251.4,399.6,251.2,398.9z"/>
<path class="st3" d="M267.2,111.7c-0.2,1.1,2.2,2.4-0.4,3.4c-3.6,1.4-10.4-0.8-12.7-4.5C258.5,111,262.9,111.3,267.2,111.7z"/>
<path class="st2" d="M340.9,258.9c-5-4.3-10.3-5.3-15.5-7.2C331.3,249.2,338.5,252.1,340.9,258.9z"/>
<path class="st3" d="M245.3,253.9c2.7-0.5,6.3-0.7,6.4,2.4c0.2,2.9-1.2,6.6-5.4,7.1C245.6,260.3,247,256.9,245.3,253.9z"/>
<path class="st3" d="M256.1,506.4c1.6-1.4,3.8-1.6,5.5-3.1c3.2-2.9,5.4,2.3,8.8,0.9c-0.7,1.5-2.4,1.5-2.3,3
	C264.1,506.9,260,508.4,256.1,506.4z"/>
<path class="st3" d="M199.8,278.8c-4.4,1.2-8.5,0.3-12-2.4c-0.9-0.7-3.7-0.9-1.8-3.4c1.6-2,2.8-1.6,4.3,0.1
	C192.8,275.9,195.4,278.6,199.8,278.8z"/>
<path class="st2" d="M192,260.5c0.1-1.1,0.1-2.3,0.5-3.3c0.6-1.6,2.1-2,3.7-1.6c0.9,0.2,2.2-0.4,2.5,0.9c0.4,1.4-1,2-1.6,2.9
	c-0.6,0.8-1.4,1.4-1.9,2.2c-0.6,1,0,3.1-1.9,2.8C191.2,263.9,192.6,261.8,192,260.5z"/>
<path class="st3" d="M214.1,351.2c-0.2-1-0.1-2-0.6-2.8c-2.6-5-0.3-7.1,4.4-8c-0.9,2.8-1,5.7-0.8,8.6
	C217.4,351.7,215.8,351.4,214.1,351.2z"/>
<path class="st3" d="M185.4,260.6c1.7,4.6,1.7,7.5-2.4,9.4c-2.1,1-1.8-0.8-2.2-1.5C178.9,264,183.6,263.7,185.4,260.6z"/>
<path class="st3" d="M219.9,329.4c-2.4-1.7-2.2-5.3-4.8-6.8c2.2-1.3,4.3-2.5,6.5-3.8c0.1,0.2,0.3,0.5,0.5,0.7
	C222.6,323,220.1,325.9,219.9,329.4z"/>
<path class="st3" d="M287.1,110.6c0.1,2.2-0.2,4.4-3,3.7c-2.7-0.6-6.9,2.7-8-2.7C279.7,111,283.6,112.3,287.1,110.6z"/>
<path class="st3" d="M385.1,125.3c-1.9,1.3-4.6,2-5.7,0.2c-1.2-1.9-1.8-4.8-0.2-7.3C381.6,120.2,383.8,122.4,385.1,125.3z"/>
<path class="st3" d="M172.1,369.5c-0.1-1.7,0.2-2.6,2.4-2.5c1.5,0.1,2.9,0.3,3,1.6c0,2.2,1.2,5-2.2,6
	C174,373,172.4,371.6,172.1,369.5z"/>
<path class="st3" d="M271.9,359.3c2.1,1.8,2.4,4.9,0.8,6c-1.6,1-4.7,0.5-6.9-0.7C267.6,362.6,268.9,359.9,271.9,359.3z"/>
<path class="st1" d="M307.1,503.5c-1.1,3.2,3.7,2.4,3.5,5.5c-3.6-1-7.6,0.3-10.6-2.6C302.4,505.3,304.7,504.4,307.1,503.5z"/>
<path class="st3" d="M234.2,505.5c-1.1,2.3-3,2.8-5.2,2.2c-2.8-0.7-3.1-3-2.9-5.4C228.8,503.3,231.5,504.4,234.2,505.5z"/>
<path class="st3" d="M280.1,506.2c3.1-5,7.6-3.7,12.1-2.9C288.4,505.2,284.4,506.7,280.1,506.2z"/>
<path class="st3" d="M56.1,513.2c-1.5,4.5-6.6,6.1-10,3.3C49.2,514.5,52.9,514.5,56.1,513.2z"/>
<path class="st3" d="M289.1,526.2c1.8-5.7,4.2-6.3,9.1-2C295.2,524.8,292.1,525.5,289.1,526.2z"/>
<path class="st3" d="M219,272.5c-4.8,3.1-8.1,5.9-13.7,6.3c3.4-2.9,7.7-3.1,9.4-7.1C215.2,270.5,216.4,273,219,272.5z"/>
<path class="st6" d="M308.1,273.3c0,1.3-0.2,2.4-1.2,2.1c-2.6-0.6-3.9-2.8-4.5-5.2c-0.3-1.1,0.8-1.8,1.8-1.7
	C307.3,268.8,306.5,272.3,308.1,273.3z"/>
<path class="st3" d="M65.2,510.5c-0.2,1.4,0.5,3.4-1.5,3.6c-1.9,0.2-4.4,1.5-5.5-1.6C60.4,511.4,62.5,510,65.2,510.5z"/>
<path class="st3" d="M227.1,239.4c1.2-0.3,2.5-0.8,3.7-0.9c1.2-0.1,2.9-0.7,3.7,0.7c0.8,1.4-1.2,2.2-1.4,3.4
	C230.8,242,228.8,241,227.1,239.4z"/>
<path class="st7" d="M265,567.4c0.2,6.1,0.5,12.3-0.3,18.4C264.4,579.6,264,573.5,265,567.4z"/>
<path class="st3" d="M315.6,257.9c-0.5,0.9-0.9,2-1.7,2.8c-0.9,0.8-0.4,2.8-2.3,2.7c-0.7,0-1.3-0.1-1.5-0.9c-0.4-1.6,0.6-3,1.6-3.8
	C312.6,258,313.7,256.8,315.6,257.9z"/>
<path class="st3" d="M84.1,504.2c1.8-1.2,3.7-2.1,6.3-1.6c-1.3,1.7-2.4,3.2-3.5,4.6C85.7,506.5,84.7,505.6,84.1,504.2z"/>
<path class="st3" d="M338.9,422.4c-2.8-2.7-2.8-5.3,0-8C338.9,417,338.9,419.7,338.9,422.4z"/>
<path class="st3" d="M152,217.4c1.3,0.2,2.9,0.5,2.7,2.1c-0.4,2.5-2.7,1.8-4.4,1.9C151.5,220.3,150.5,218.3,152,217.4z"/>
<path class="st7" d="M342.7,399c0.3,4.6,0.6,9.2-0.3,13.7C342.2,408.1,342,403.6,342.7,399z"/>
<path class="st3" d="M153.3,199.4c3.5,2,3.5,4,0,6C153.3,203.4,153.3,201.4,153.3,199.4z"/>
<path class="st3" d="M283.1,510.5c-1.3,3.2-2.8,4.4-5,0.7C279.5,509.5,281.4,510.6,283.1,510.5z"/>
<path class="st3" d="M198.1,325.6c-0.2,1.6-0.9,2.9-2.8,2.6c-1.5-0.3-1.1-1.8-1.1-2.8C195.5,325.4,196.8,325.5,198.1,325.6z"/>
<path class="st3" d="M255.1,511.2c-0.1,1-0.4,2-1.6,1.9c-1.6-0.2-1.3-1.5-1.4-2.6C253.2,510.4,254.4,509.7,255.1,511.2z"/>
<path class="st1" d="M84.1,504.2c0.6,1.3,1.6,2.3,2.8,3c0.1,1.5-1.1,0.8-1.7,1.1c-0.7-1.2-1.9-1.1-3-1.1l0,0c0.3-0.9,0.7-1.9,1-2.8
	C83.5,504.4,83.8,504.3,84.1,504.2z"/>
<path class="st3" d="M338.9,411.4c-2.6-1.4-2.6-2.7,0-4C338.9,408.7,338.9,410,338.9,411.4z"/>
<path class="st3" d="M287,376.4c3,0.2,3.3,1.8,2,4.1C288.1,379.3,287.2,378,287,376.4z"/>
<path class="st3" d="M315.1,493.4c0.1-2,0-4.4,3-2C317.6,492.8,316.5,493.4,315.1,493.4z"/>
<path class="st3" d="M242.1,108.4c-1.7,1.4-3.1,1.9-4-0.8C239.5,107.7,241.1,106.7,242.1,108.4z"/>
<path class="st3" d="M214,323.2c-0.4,1-0.6,2.4-1.8,2.6c-1.1,0.3-1.1-0.9-1.2-1.6C211.7,322.9,213.1,323.8,214,323.2z"/>
<path class="st3" d="M386.1,187.6c-0.4-1.5-2.4-3.3,0.8-4.1C386.8,184.8,388,186.5,386.1,187.6z"/>
<path class="st3" d="M269.6,357.1c-1.1-1.2-2.1-2.5-0.5-4.5C270,354.2,269.7,355.7,269.6,357.1C269.7,357.2,269.6,357.1,269.6,357.1
	z"/>
<path class="st3" d="M83.2,504.5c-0.3,0.9-0.7,1.9-1,2.8c-1.2,0-1.9-0.6-2-1.8C81.1,505.1,81.8,503.8,83.2,504.5z"/>
<path class="st3" d="M388.9,206.9c-1.4,0.4-2.3-0.1-2.6-1.5c-0.3-1.3,0.5-1.8,1.6-2C388.2,204.6,388.6,205.7,388.9,206.9z"/>
<path class="st3" d="M357,584.3c0.7,0.2,1.9,0.1,1.5,1.3c-0.4,1.1-1.6,0.7-2.5,0.7C356.2,585.5,355.8,584.5,357,584.3z"/>
<path class="st1" d="M199.1,228.6c0.4-0.8,1.1-1.3,2-1c0.9,0.4,0.3,1.1,0.1,1.6C200.3,229.4,199.5,229.7,199.1,228.6z"/>
<path class="st8" d="M260.7,572.9c0-0.3,0-0.7,0-1c0.1,0.2,0.1,0.5,0.2,0.7C260.9,572.7,260.8,572.8,260.7,572.9z"/>
<path class="st3" d="M273.1,355.2c0.4-1.6,1.2-2.1,2.6-1C274.9,354.8,274.3,355.8,273.1,355.2z"/>
<path class="st3" d="M294.7,507.5c0.2,0.9,0.7,1.9-0.6,2.2c-0.2,0.1-0.6-0.8-1-1.3C293.6,508.2,294.1,507.8,294.7,507.5z"/>
<path class="st3" d="M260.1,511.5c-0.1,0.6-0.2,1.4-1,1.4s-0.9-0.8-1-1.4C258.8,511.5,259.4,511.5,260.1,511.5z"/>
<path class="st3" d="M346,293.3c-0.1,0.7-0.2,1.5-0.3,2.2c-1-0.4-0.5-1.2-0.7-1.9C345.4,293.5,345.7,293.4,346,293.3z"/>
<path class="st3" d="M101.2,567.4c0-0.6,0-1.2-0.1-1.8c0.3,0.2,0.8,0.3,0.9,0.5C102.3,566.8,101.8,567.2,101.2,567.4z"/>
<path class="st3" d="M276,353.2c0-0.4-0.1-0.8-0.1-1.1c0.1,0,0.4,0,0.4,0c0,0.4,0,0.8,0,1.2C276.4,353.2,276,353.2,276,353.2z"/>
<path class="st1" d="M206.1,368.3c-0.2,0.4-0.5,0.7-0.7,1.1C205.1,368.6,205.5,368.4,206.1,368.3z"/>
<path class="st3" d="M221.6,318.7c0.4,0,1.1-0.2,1.2-0.1c0.3,0.6-0.3,0.6-0.7,0.7C221.9,319.2,221.8,319,221.6,318.7z"/>
<path class="st1" d="M323.1,322.5c-0.4,0.3-0.8,0.5-1.2,0.8C322.1,322.7,322.4,322.3,323.1,322.5z"/>
<path class="st1" d="M369.1,281.6c-0.4,0.3-0.8,0.5-1.1,0.8C368.1,281.8,368.4,281.4,369.1,281.6z"/>
<path class="st3" d="M239.1,502.4c0.4,0.3,0.7,0.5,1,0.8C239.4,503.3,239.1,503,239.1,502.4z"/>
<path class="st1" d="M185.1,100.6c-0.4,0.3-0.7,0.5-1.1,0.8C184.2,100.9,184.4,100.4,185.1,100.6z"/>
<path class="st1" d="M358.1,282.2c0.4-0.3,0.7-0.5,1.1-0.8C359,282,358.8,282.5,358.1,282.2z"/>
<path class="st8" d="M260.5,567.8L260.5,567.8L260.5,567.8z"/>
<path class="st3" d="M145.1,238.4c-0.2,0.3-0.5,0.7-0.7,1C144.1,238.7,144.5,238.5,145.1,238.4z"/>
<path class="st1" d="M374.1,274.2c0.4-0.3,0.8-0.6,1.2-0.9C375,273.9,374.8,274.4,374.1,274.2z"/>
<path class="st6" d="M252.5,621.8L252.5,621.8C252.5,621.8,252.5,621.8,252.5,621.8z"/>
<path class="st6" d="M252.7,638.8L252.7,638.8L252.7,638.8z"/>
<path class="st3" d="M267.7,358.2c0-0.2,0.1-0.4,0.1-0.6c0.1,0,0.1,0,0.2,0.1c-0.1,0.1-0.2,0.2-0.3,0.4
	C267.8,358,267.7,358.2,267.7,358.2z"/>
<path class="st3" d="M276.1,356.6c-0.4,0.2-0.7,0.5-1.1,0.7C275.1,356.8,275.4,356.4,276.1,356.6z"/>
<path class="st1" d="M203,378.1c-0.2,0.4-0.5,0.8-0.7,1.2C202.1,378.7,202.4,378.3,203,378.1z"/>
<path class="st3" d="M139.2,160.4c-0.1,0.1-0.1,0.3-0.2,0.4C139,160.7,139.1,160.6,139.2,160.4C139.1,160.4,139.2,160.4,139.2,160.4
	z"/>
<path class="st3" d="M77.3,508.6c0,0.1,0.1,0.3,0.1,0.4c-0.1,0.1-0.3,0.1-0.4,0.1c0-0.1-0.1-0.3-0.1-0.4
	C77,508.6,77.2,508.6,77.3,508.6z"/>
<path class="st0" d="M359.3,248.4c-3.5,1.3-6.8,3.5-11.5,2.8c2.4-1.3,4.3-2.4,6.8-3.8c-7.1-4.7-14-9.3-21-13.8
	c-1.1-0.8-2.1,0.2-3.1,0.6c-12.2,3.8-24.4,7.8-36.5,12.1c-1.7,0.6-3.6,1.9-6.2,0.3c7.9-3.9,15.5-7.4,23.5-10.3
	c6.6-2.4,13.2-4.8,19.9-7.1c0.7,0,1.3,0,2,0c2.1-0.2,2.9,2.6,5,2.4c0.3,0.3,0.6,0.6,1,0.9l0,0c0.1,0.6,0.3,1,1,0.6
	c5.6,4.1,11.3,8.1,16.9,12.2C357.7,246.4,358.5,247.4,359.3,248.4z"/>
<path class="st3" d="M357,245.4c-5.6-4.1-11.3-8.1-16.9-12.2c-0.3-0.2-0.7-0.4-1-0.6l0,0c2-1,4.2-1.7,6.5-1.8
	c3.8-0.2,7.4-0.2,7.6,5.2c0.1,2.2,1.4,4.1,3.9,3.4c4.2-1.2,4.6,2.1,4.7,4.3C361.9,247.7,358.6,244.7,357,245.4z"/>
<path class="st3" d="M164.1,264.5c-0.1,0.6-0.1,1.5-1,1.4c-1.1-0.1-1.4-1.2-1.6-2.2c-0.1-0.8,0.6-1.1,1.3-1
	C163.8,262.8,164.1,263.6,164.1,264.5z"/>
<path class="st3" d="M285.3,239.8c-0.7,1-1.5,1.7-2.7,1.8c0,0-0.4-0.9-0.2-1.2C283.1,239.2,284.1,239.3,285.3,239.8z"/>
<path class="st3" d="M275,248.3c-0.7,0-1.3-0.1-1.1-0.7c0.1-0.3,0.7-0.6,1.1-0.7c0.1-0.1,0.7,0.4,0.6,0.5
	C275.5,247.7,275.2,248,275,248.3z"/>
<path class="st3" d="M272.7,116.2c-0.1,0.3-0.2,0.7-0.4,0.8c-0.2,0.1-0.5-0.2-0.8-0.3c0.1-0.3,0.2-0.7,0.4-0.8
	C272.1,115.8,272.4,116.1,272.7,116.2z"/>
<path class="st3" d="M152.1,176.4c-0.4-0.4-0.9-0.8-1.3-1.2c0.2-0.1,0.4-0.3,0.6-0.4C151.7,175.4,151.9,175.9,152.1,176.4
	L152.1,176.4z"/>
<path class="st3" d="M337.4,224c-0.1,0.1-0.3,0.2-0.4,0.2s-0.2-0.2-0.3-0.3C337,223.9,337.2,223.9,337.4,224z"/>
<path class="st3" d="M275.4,252.8c0,0.1-0.1,0.2-0.1,0.4c-0.1-0.1-0.3-0.1-0.4-0.2c0,0,0.1-0.2,0.1-0.3
	C275.1,252.7,275.2,252.8,275.4,252.8z"/>
<path class="st3" d="M152.2,176.4c0.1,0.1,0.3,0.1,0.4,0.2C152.4,176.6,152.3,176.5,152.2,176.4
	C152.1,176.4,152.2,176.4,152.2,176.4z"/>
<path class="st3" d="M390,264.4c0.1-0.1,0.2-0.3,0.2-0.4C390.2,264.1,390.1,264.3,390,264.4C390.1,264.4,390,264.4,390,264.4z"/>
<path class="st3" d="M360,248.4c0.1-0.1,0.2-0.3,0.3-0.4C360.2,248.1,360.2,248.3,360,248.4C360.1,248.4,360,248.4,360,248.4z"/>
<path class="st3" d="M287.1,341.4c-1.8-0.2-3.4-0.9-3.3-2.9c0.1-1.9,1.8-2.1,3.4-2.1c0.5,0,1.2-0.1,1.4-0.4c2.9-6,5.1-1.9,7.9,0.3
	c1.3,1.1,1.6,1.7,1.2,3.2c-0.7,2.4-0.5,5-1,7.2c-1.5,5.6,2.2,5.5,5.4,5.6c2.3,0,3.3,0.1,3.2,2.7c-0.2,3,1.9,3.5,4.3,3.4
	c2.8-0.1,4.8,0.8,4.1,3.9c-0.8,3.5,1,4.2,3.7,4c3.2-0.2,4,1.3,3.9,4.2c-0.1,2.6,0,5.3,0.5,7.9c0.4,2,0.1,3.2-1.7,4.1
	c-0.8-0.2-0.7-0.9-1-1.5c-3.5-8.5-7.8-16.5-15.2-22.4c-1.8-1.4-3.2-1.9-5-0.2c-2.9-0.3-5.8-0.7-8.7-0.8c-3.2-0.1-4-2.7-4.8-4.8
	c-0.9-2.3,1.6-2.9,3.2-3.6c2.4-1.1,3.4-3,3-5.5C291.2,341.1,288.6,342.1,287.1,341.4l0.4-0.2l-0.2-0.2L287.1,341.4z"/>
<path class="st3" d="M320.9,384.4c2,0.7,4-1.6,6.1,0c2.2,1.7,3.5,3.9,2.7,6.4c-1.2,3.5-0.4,7.4-2.3,10.8c-0.6,1.1-0.3,2.5,0.8,3.7
	c1.5,1.7,1.5,3.8,0.3,5.5c-0.7,1.1-1.6,2.8-3.5,2.1c-1.5-0.5-1.7-1.9-1.7-3.3c-0.1-3.1,0.6-6.3-1.7-9.1c-0.6-0.7-0.5-2.1-1.8-2.1
	c-7.8-0.2-5.1-6.4-5.2-10.1c-0.1-5.8,0.1-6.2-5.7-6.2c-0.8,0-2.2,0-1.8-1c1.5-4.7-2.1-9.4,0.3-14c7.1,6.8,10.2,16,14.4,24.6
	C323,389,320.9,386.9,320.9,384.4z"/>
<path class="st0" d="M273.1,420.8c3.3-0.1,6.6-0.2,10-0.3c3.3,1,6.9-0.5,10.4,1.5c-5.3,0.9-10.3,1.7-15.4,2.5c-0.7,0-1.3,0-2,0
	c-0.7,0-1.3,0-2,0c-1.7,0.1-3.6-1-5,0.7c-1,0.1-2,0.2-3.1,0.3c-3.6,0-7.3,0-10.9,0c-11.8-0.5-23.3-2.4-34.7-5.6
	C238.1,419.8,255.5,421.9,273.1,420.8z"/>
<path class="st3" d="M278.1,424.5c5-0.8,10.1-1.7,15.4-2.5c-3.5-1.9-7.1-0.5-10.4-1.5c0.1-1.4,0.6-2.2,2.1-2.2c1.2,0,3,0.4,3.4-0.2
	c3-4.1,6.2-1.8,9.5-0.8c3.3,3.3-1,6.2-0.6,9.4c0,0.1-0.7,0.5-0.8,0.4c-4.2-2.6-6.2,1.8-9.2,2.6C283.4,431,280,428.4,278.1,424.5z"/>
<path class="st0" d="M320.9,384.4c0,2.4,2.1,4.6,0.7,7.5c-4.2-8.7-7.3-17.9-14.4-24.6c-0.7-0.7-1.3-1.3-2-2c-1.4-1.7-2.4-3.9-5.1-4
	c-0.4-1-0.8-2-1.3-3c1.7-1.7,3.2-1.2,5,0.2c7.4,5.9,11.7,13.8,15.2,22.4c0.2,0.6,0.2,1.3,1,1.5C320.3,383.1,319.9,384.1,320.9,384.4
	z"/>
<path class="st3" d="M300.1,361.3c2.7,0.1,3.6,2.3,5.1,4c-1.6,0.8-3.3,1.7-5,0.4C298.4,364.3,299.4,362.8,300.1,361.3z"/>
<path class="st3" d="M359.2,350.8c0.4,1.1-0.1,1.5-0.6,1.9c-1.3,1-1.9,3.1-4,2.9c-0.2,0-0.5-1.3-0.3-1.8
	C355.4,352,356.5,349.8,359.2,350.8z"/>
<path class="st3" d="M266,425.5c1-0.1,2-0.2,3.1-0.3c-0.1,0.8-0.2,1.6-1.1,1.8C266.8,427.3,266.3,426.5,266,425.5z"/>
<path class="st3" d="M274.1,424.5c0.7,0,1.3,0,2,0c-0.1,0.6-0.2,1.4-1,1.4C274.3,425.9,274.2,425.2,274.1,424.5z"/>
<path class="st3" d="M249.4,502.9c-0.3,0.1-0.5,0.4-0.8,0.3c-0.2,0-0.5-0.3-0.7-0.4c0.2-0.1,0.5-0.4,0.8-0.3
	C248.9,502.4,249.1,502.7,249.4,502.9z"/>
<path class="st3" d="M280.1,354.4c0.1-0.4,0.3-0.9,0.4-1.3C281.4,353.9,280.4,354.1,280.1,354.4L280.1,354.4z"/>
<path class="st3" d="M394.1,276.4c-0.1,0.1-0.1,0.3-0.2,0.4C393.9,276.7,394,276.5,394.1,276.4L394.1,276.4z"/>
<path class="st3" d="M203.1,363.4c-0.1,0.1-0.1,0.3-0.2,0.4C203,363.6,203,363.5,203.1,363.4L203.1,363.4z"/>
<path class="st1" d="M259.5,417.6c0.1-0.3,0.2-0.7,0.4-0.8c0.2-0.1,0.5,0.2,0.8,0.3c-0.1,0.3-0.2,0.7-0.4,0.8
	C260.1,418,259.8,417.7,259.5,417.6z"/>
<path class="st1" d="M202.8,400.5c0.2-0.1-0.1,0.1-0.6,0.3c-0.1,0-0.4-0.4-0.6-0.5c0.3-0.3,0.6-0.6,1-0.9
	C203.1,399.2,203.3,399.3,202.8,400.5z"/>
<path class="st1" d="M333.1,229.2c-0.7,0-1.3,0-2,0c0.1-0.6,0.2-1.4,1-1.4C332.9,227.8,333,228.6,333.1,229.2z"/>
<path class="st1" d="M272.3,284c-0.3-0.1-0.7-0.2-0.8-0.4c-0.1-0.2,0.2-0.5,0.3-0.8c0.3,0.1,0.7,0.2,0.8,0.4
	C272.7,283.4,272.5,283.7,272.3,284z"/>
<path class="st3" d="M232.9,511.5c2.2-1.4,3.4-1.3,5.2-0.3C236.3,512.7,235,512.3,232.9,511.5z"/>
<path class="st3" d="M275.1,526.3c-0.5,0.8-0.9,1.8-2.1,1.5c-0.2,0-0.4-0.5-0.4-0.7C273.1,526,274.2,526.5,275.1,526.3L275.1,526.3z
	"/>
<path class="st3" d="M281.7,521.1c-0.1,0.3-0.2,0.7-0.4,0.8c-0.2,0.1-0.5-0.2-0.8-0.3c0.1-0.3,0.2-0.7,0.4-0.8
	C281.1,520.7,281.4,521,281.7,521.1z"/>
<path class="st3" d="M275.1,526.3c0.2-0.4,0.3-0.8,0.5-1.3c0.2,0.4,0.3,0.8,0.5,1.3l0,0C275.8,526.3,275.4,526.3,275.1,526.3
	L275.1,526.3z"/>
<path class="st1" d="M190.9,225.9c0.3,0.1,0.5,0.2,0.8,0.4c-0.1,0.3-0.2,0.7-0.4,0.8c-0.2,0.1-0.5-0.2-0.8-0.3
	C190.6,226.4,190.7,226.1,190.9,225.9z"/>
<path class="st1" d="M274,535.5c0.2-0.9-0.2-2.1,0.9-2.6c0.6-0.2,0.9,0.2,0.9,0.8C276,535,274.9,535.2,274,535.5L274,535.5z"/>
<path class="st1" d="M339.1,232.6c0.3,0.2,0.7,0.4,1,0.6C339.4,233.6,339.2,233.2,339.1,232.6z"/>
<polygon class="st1" points="287.1,341.4 287.3,341 287.5,341.2 "/>
</svg>
