<?xml version="1.0" encoding="utf-8"?>
<!-- Generator: Adobe Illustrator 27.5.0, SVG Export Plug-In . SVG Version: 6.00 Build 0)  -->
<svg version="1.1" id="Layer_1" xmlns="http://www.w3.org/2000/svg" xmlns:xlink="http://www.w3.org/1999/xlink" x="0px" y="0px"
	 viewBox="0 0 1834.62 2548" style="enable-background:new 0 0 1834.62 2548;" xml:space="preserve">
<style type="text/css">
	.st0{fill:#2B0C08;}
	.st1{fill:#1E1813;}
	.st2{fill:#35180E;}
	.st3{fill:#F4D295;}
	.st4{opacity:0.39;}
	.st5{fill:#937233;}
	.st6{fill:#C19459;}
	.st7{fill:#3F1C0D;}
	.st8{fill:#4C2423;}
	.st9{fill:#E8BC77;}
	.st10{fill:#916233;}
	.st11{fill:#824331;}
	.st12{opacity:0.45;}
	.st13{fill:#BC975C;}
	.st14{fill:#A3685A;}
	.st15{opacity:0.3;}
	.st16{fill:#EACFA2;}
	.st17{opacity:0.41;}
	.st18{fill:#724747;}
	.st19{opacity:0.11;}
	.st20{fill:#999999;}
	.st21{opacity:0.09;}
</style>
<g>
	<path class="st0" d="M1672.67,2549.63c-528.04,0-1056.09,0-1584.13,0c-20.02-178.22-40.05-356.45-60.08-534.67
		c548.07,26.33,1096.14,52.66,1644.2,78.99v455.68H1672.67z"/>
</g>
<g>
	<path class="st0" d="M569.22,1096.88c-38.56-31.8-175.38,61.69-260.95,150.91c-55.33,57.68-81.65,108.41-132.05,207.5
		c-88.68,174.38-149.34,293.1-103.75,352.12c45.14,58.44,152.77-18.63,245.23,53.45c75.71,59.02,71.01,161.53,115.15,163.88
		c40.65,2.16,75.48-83.14,78.99-91.96c63.91-160.43-53.79-258.63-52.66-455.48C460.45,1256.38,610.52,1130.94,569.22,1096.88z"/>
</g>
<g>
	<path class="st0" d="M1353.63,1238.23c-82.42,60.03,72.64,311.36,113.18,697.95c26.13,249.17-5.05,461.83-40.08,613.07
		c128.9-2.99,257.8,1.03,386.7-1.96c-73.45-216.33-99.43-404.39-109.25-532.51c-25.56-333.42,44.94-521.24-87.64-668.09
		C1539.36,1261.19,1407.9,1198.7,1353.63,1238.23z"/>
</g>
<g>
	<path class="st1" d="M1405.51,1175.48c-34,14.2-64.5,10.75-82.46,11.38c-45.53,1.59-68.44-6.68-118.75,4.34
		c-134.42,29.45-188.5,115.88-229.51,91.17c-8.9-5.36-13.58-13.78-15.77-24.33c-9.08-43.37,23.7-122.78-21.95-173.73
		c-3.86-4.31-8.1-8.21-12.66-11.72c-68.51-52.67-210.61-17.81-279.73-0.85c-31.56,7.74-82.14,23.05-144.63,53.44
		c-87.58,42.6-136.11,86.55-144.65,77.58c-11.14-11.69,75.35-82.22,110.07-222.2c1.9-7.64,7.12-24.89,9.1-47.24
		c4.67-52.66-10.65-101.17-24.82-235.72c-12.1-114.87-62.91-263.93,3.15-374.13c13.31-22.21,22-28.1,80.17-113.18
		c49.34-72.17,51.44-80.14,70.74-97.47C652.1,69.49,708.06,58.25,757.86,46.8c30.63-7.04,87.89-20.2,154.05-9.43
		c155.17,25.25,240.42,162.79,248.37,176.06c13.51,22.56,36.84,67.18,53.44,292.39c15.06,204.17,1.71,246.49,8.39,298.78
		c1.02,7.96,4.48,27.98,10.48,47.05c4.71,14.98,20.83,58.06,96.7,129.03c52.61,49.22,79.9,61.17,103.37,107.15
		c12.89,25.25,16.3,44.45,9.01,59.87C1440.08,1151.07,1433.46,1163.81,1405.51,1175.48z"/>
</g>
<g>
	<path class="st2" d="M1566.95,1315.45c-20.56,23.86-163.78-135.96-362.66-124.25c-94.99,5.59-172.82,48.55-229.51,91.17
		c-5.76-7.71-11.02-15.85-15.77-24.33c-4.54-21.69,1.38-52.38,2.74-84.02c1.68-39.29-17.07-73.9-24.68-89.71
		c-39.46-81.92-6.62-247.23,48.73-262.52c24.65-6.81,45.21,18.51,92.75,58.16c105.13,87.7,146.69,82.9,245.37,149.92
		C1480.46,1136.2,1586,1293.36,1566.95,1315.45z"/>
</g>
<g>
	<path class="st3" d="M1037.67,1244.65c-44.12,95.13-141.57,131.36-160.34,138.34c-161.41,60.01-375.98-22.19-396.14-132.04
		c-14.2-77.42,69.93-158.93,100.61-188.64c53.4-51.74,110.48-76.31,144.62-88.03c-1.44-16.08-2.88-32.15-4.31-48.23
		c-4.75-52.97-9.49-105.95-14.24-158.92c-0.1-1.17-0.2-2.33-0.31-3.5c2.92-1.63,5.84-3.25,8.75-4.87
		c79.35-44.12,158.7-88.25,238.04-132.38c21.43-11.92,42.87-23.84,64.3-35.76c-1.8,13.55-3.37,26.82-4.71,39.8
		c-11.52,111.1-6.88,201.12,0.27,265.35c0.47,4.28,0.96,8.44,1.45,12.49C1036.13,1076.05,1081.56,1150.05,1037.67,1244.65z"/>
</g>
<g class="st4">
	<g>
		<path class="st5" d="M764.15,1231.29c-6.55-5.1-70.72,36.46-82.53,103.75c-11.66,66.47,33.16,127.23,40.09,124.97
			c5.39-1.76-14.75-40.97-8.53-99.51C721.53,1281.68,770.4,1236.16,764.15,1231.29z"/>
	</g>
</g>
<g>
	<path class="st6" d="M1020.55,943.9c-7.5,5.9-79.74,60.7-171.52,35.09c-103.38-28.85-133.14-132.26-134.48-137.25
		c-2.23-24.87-4.46-49.74-6.68-74.62c2.74-2.79,5.55-5.58,8.44-8.37c63.85-61.71,161.27-121.7,238.04-132.38
		c21.98-3.07,42.27-2.09,59.59,4.04c-4.79,44.6-7.73,95.02-6.87,150.25C1008.02,841.3,1013.37,896.11,1020.55,943.9z"/>
</g>
<g>
	<path class="st3" d="M965.36,754.2c-42.48,54.88-120.53,112.25-190.68,106.36c-7.55-0.63-15.01-2-22.33-4.18
		c-42.95-12.82-79.93-53.37-110.83-87.24c-13.48-14.78-29.98-32.88-44.8-58.95c-19.82-34.88-25.42-64.25-35.34-141.5
		c-19.77-153.97-20.91-219.53,4.69-260.92c2.42-3.91,7.36-11.3,15.72-25.15c35.63-59.05,29.51-63.45,45.59-79.38
		c25.65-25.42,63.74-36.52,75.98-40.09c8.05-2.35,8.13-1.81,13.1-3.67c39.83-14.87,55.9-57.15,57.9-56.07
		c1.86,1.01-24.49,30.65-18.86,54.23c10.07,42.22,111.84,9.42,178.42,71.52c61.3,57.17,73.09,175.95,78.05,232.84
		c0.18,2.02,0.36,4.06,0.55,6.1C1021.76,571.07,1030.63,669.84,965.36,754.2z"/>
</g>
<g>
	<path class="st7" d="M375.08,1891.51c-21.42-39.26-43.93-45.94-87.24-84.89c-119.97-107.87-118.36-210.49-162.7-209.86
		c-54.04,0.78-104.7,153.92-109.25,282.95c-3.1,87.89-7.12,201.73,78.6,279.81c104.59,95.27,256.71,58.94,272.97,54.79
		c-25.81-85.77-12.43-124.73,5.26-144.4c25.42-28.25,79.47-38.61,76.91-54.89c-0.66-4.21-4.77-6.68-6.79-7.99
		C410.91,1986.34,394.74,1927.55,375.08,1891.51z"/>
</g>
<g>
	<path class="st8" d="M1334.77,2124.95c-64.58,12.72-156.85,28.21-268.81,37.73c-147.04,12.49-234.39,19.23-317.37-2.17
		c0-0.01,0-0.01,0-0.01c-16.85-4.34-33.52-9.84-50.47-16.69c-59.54-24.06-170.32-68.84-204.36-166.62
		c-21.23-61.01-2.44-108.55-40.87-210.64c-18.07-48.01-24.85-39.83-40.87-81.75c-42.4-110.87-14.96-220.24,6.29-304.96
		c10.03-39.98,27.61-97.41,59.73-163.49c12.26,16.83,102.9,136.81,267.24,147.77c171.27,11.42,279.49-105.1,292.38-119.48
		c64.59,44.96,166.06,129.34,240.51,267.24c19.16,35.49,34.63,71,46.99,106.05C1408.03,1852.95,1351.43,2067.88,1334.77,2124.95z"/>
</g>
<g>
	<path class="st0" d="M999.94,1332.68c-364.25,200.72-479.14,769.09-355.27,858.3c24.75,17.83,54.27-13.7,187.25-21.47
		c67.67-3.95,108.6,0.8,149.15,2.61c75.47,3.36,184.88-1.94,328.28-42.29c71.96-91.1,188.64-268.56,204.62-509.47
		c3.87-58.31,1.29-112.14-4.72-160.34c-15.19-83.29-23.69-129.9-51.87-165.06C1383.44,1202.72,1148.49,1250.82,999.94,1332.68z"/>
</g>
<g>
	<path class="st2" d="M1165,1728.82c-37.84,98.4-31.83,147.22-91.17,238.94c-83.35,128.81-192.03,182.14-179.2,205.93
		c11.7,21.7,101.55-23.82,265.66-31.44c91.6-4.26,142.74-3.76,192.47,25.15c94.46,54.92,86.19,194.59,111.88,193.89
		c45.53-1.23,61.4-441.44,62.61-476.85c11.3-332.42,15.85-499.05-37.57-519.69C1414.37,1335.66,1240.32,1532.91,1165,1728.82z"/>
</g>
<g>
	<path class="st9" d="M617.19,2374.39c-3.45,5.83-15.3,3.04-32.99-0.02c-4.72-0.82-9.86-1.66-15.37-2.36
		c-19.15-2.44-42.75-3.21-68.76,4.34c-38.53,11.18-81.11,40.26-80.25,68.74c0.5,16.17,14.77,25.21,8.68,37.32
		c-5.67,11.26-25.72,18.78-39.05,13.74c-6.55-2.47-9.21-7.13-15.11-20c-3-6.55-6.83-15.22-12.44-26.83
		c-1.52-3.15-3.17-6.52-4.98-10.12c-8.29-16.54-10.24-19.02-13.01-21.61c-17.64-16.44-35.87-6.56-49.89-19.64
		c-10.84-10.11-10.53-27.72-9.92-62.93c0.04-2.56,0.44-8.88,1.25-21.52c3.09-48.57,4.77-54.77,8.67-60.89
		c6.85-10.73,16.84-15.44,34.71-23.56c9.83-4.48,23.33-10.63,38.73-15.25c15-4.5,31.79-7.55,48.73-6.2
		c29.81,2.39,40.93,16.87,118.58,84.29c4.79,4.16,9.36,8.1,13.7,11.84C601.94,2349.84,622.31,2365.73,617.19,2374.39z"/>
</g>
<g>
	<path class="st10" d="M578.65,2374.5c-5.49-0.89-11.02-1.76-16.57-2.62c-2.48-0.38-4.95-0.76-7.42-1.13
		c-10.81-8.45-24.86-20.01-40.56-34.55c-17.81-16.5-35.38-32.76-54.06-56.48c-27.34-34.7-23.86-43.18-40.19-50.74
		c-21.21-9.81-50.74-6.61-52.35-15.79c-0.03-0.19-0.04-0.38-0.04-0.58c0.1-6.82,19.99-18.42,36.32-20.71
		c47.87-6.72,109.1,78.05,131.95,110.6C556.06,2331.47,569.98,2357.12,578.65,2374.5z"/>
</g>
<g>
	<path class="st11" d="M437.3,2016.01c117.48-190.06,223.77-346.83,307.16-465.16c181.68-257.79,251.36-327.41,357.26-370.79
		c49.87-20.43,198.52-81.32,352.12-8.9c167.18,78.82,212.52,255.33,218.82,281.6c-54.27-36.35-223.25-139.27-440.23-113.34
		c-122.28,14.61-209.76,64.11-231.31,76.88c-85.56,50.69-136.78,111.02-190.12,179.39C732.73,1696,629.97,1838.5,519.92,2025.14
		C492.38,2022.1,464.84,2019.05,437.3,2016.01z"/>
</g>
<g class="st12">
	<g>
		<path class="st13" d="M965.36,754.2c-10.79,14.75-38.2,47.48-84.96,75.97c-33.59,20.47-70.64,33.33-105.71,30.38
			c26.56-13.56,61.78-30.78,90.77-52.45c21-15.69,44.29-41.69,53.43-79.06c8.13-33.21-4.47-44.33,5.6-74.28
			c11.23-33.43,36.55-49.37,49.52-61.3c79.97-73.58,4.76-295.95,6.43-296.29c0.87-0.18,23.78,60.35,31.54,164.82
			C1019.72,566.26,1027.76,668.89,965.36,754.2z"/>
	</g>
</g>
<g>
	<path class="st1" d="M1015.12,254.37c-52.49-71.1-143.04-74.22-143.84-72.31c-0.62,1.48,45.57,14.69,63.66,51.09
		c6.43,12.93,9.43,25.94,9.43,25.94c3.81,16.51,1.55,23.87,4.72,40.09c1.42,7.3,4.2,17.7,10.22,29.87
		c6.02,5.76,13.18,13.45,20.22,23.26c40.6,56.57,29.91,117.86,35.58,118.22C1023.25,471.03,1083.96,347.63,1015.12,254.37z"/>
</g>
<g>
	<path class="st7" d="M558.44,2136.77c-19.82,51.76,131.37,146.67,100.04,241.07c-6.61,19.93-17.41,27.91-12.91,39.09
		c13.74,34.17,129.79-2.42,290.45-9.77c123.15-5.63,182.3,10.04,272.97,7.42c4.73-0.14,49.07-2.14,107.84-10.68
		c93.91-13.65,140.87-20.48,157.05-43.95c36.32-52.64-23.29-196.76-131.24-255.77c-100.4-54.88-161.89,6.91-396.95,19.55
		C722.99,2135.71,576.99,2088.35,558.44,2136.77z"/>
</g>
<g>
	<path class="st3" d="M392.64,2029.55c-6.49,3.38-54.73,30.55-63.9,84.28c-6.27,36.77,6.11,84.15,32.19,95.22
		c3.62,1.54,7.19,2.24,12.86,3.36c26.31,5.21,37.48-2.5,51.59,3.71c9.98,4.39,14.81,12.82,18.79,19.22
		c16.33,26.26,36.56,60.6,94.3,111.72c22.43,19.86,53.79,45.4,94.3,72.03c62.46,20.97,98.7,24.53,120.58,23.52
		c9.26-0.43,16.7-1.71,32.46-1.47c32.74,0.5,44.43,6.69,57.2-1.47c8.68-5.55,10.57-13.08,18.55-13.23c7.1-0.14,9.7,5.74,17.01,8.82
		c14.34,6.05,38.37-2.23,43.28-13.23c4.09-9.16-2.99-24.89-80.39-89.67c-67.11-56.16-111.02-85.54-106.67-92.61
		c2.23-3.62,16.01,0.46,29.37,4.41c35.04,10.37,61.9,26.88,81.93,41.16c36.92,26.31,41.43,38.43,66.47,44.1
		c15.04,3.41,38.46,4.71,43.28-4.41c4.45-8.42-8.91-21.99-38.65-51.45c-61.59-61.01-92.7-91.72-108.21-101.43
		c-35.9-22.47-46.52-19.71-71.11-42.63c-23.25-21.67-24.37-34.02-46.38-47.04c-23.53-13.92-37.89-9.05-72.66-16.17
		c-52-10.65-51.35-27.99-98.94-41.16C496.51,2018.66,442.35,2003.68,392.64,2029.55z"/>
</g>
<g>
	<path class="st3" d="M650.66,2074.83c2.17-5.42,35.07-1.36,100.89,6.75c42.49,5.24,40.68,7,54.68,6.5
		c19.72-0.7,34.41-4.6,43.43,4.29c4.78,4.71,7.77,12.83,5.76,19.49c-6.5,21.57-63.68,22.29-69.77,22.32
		C711.27,2134.55,646.13,2086.15,650.66,2074.83z"/>
</g>
<g>
	<path class="st10" d="M405.34,2367.16c-25.84,19.53-32.77,49.34-34.18,55.42c-5.23,22.44-0.13,42.38,3.18,53.58
		c-3-6.55-6.83-15.22-12.44-26.83c-2.81-29.44,13.48-52.84,30.08-76.71c2.16-3.1,7.11-9.85,16.11-14.55
		c6.22-3.24,13.85-5.22,14.55-4C423.51,2355.6,413.02,2361.36,405.34,2367.16z"/>
</g>
<g>
	<path class="st10" d="M406.52,2325.33c-1.62-2.2-55,13.02-65.2,51.55c-6.74,25.45,8.15,50.6,9.37,50.34
		c0.95-0.2-6.52-15.77-3.91-34.23C352.86,2350.12,408.23,2327.65,406.52,2325.33z"/>
</g>
<g>
	<path class="st10" d="M319.17,2406.75c-4.51-14-11.12-55.3-5.39-77.05c10.26-38.98,69.47-50.62,66.8-56.03
		c-2.47-5.01-55.11,1.68-70.74,32.74c-2.26,4.51-3.09,8.22-3.93,28.38c-1.07,25.88-2.18,52.7-0.42,69.51L319.17,2406.75z"/>
</g>
<g>
	<path class="st10" d="M736.9,2127.84c-13.11,0.82-21.97-2.99-26.2-5.24c-6.53-3.47-10.9-7.92-15.98-13.1
		c-6.99-7.12-7.96-10.04-13.1-15.98c-13.09-15.13-27.53-20.2-26.99-21.22c0.5-0.94,13.19,2.38,25.37,11.89
		c12.4,9.68,13.22,17.6,23.63,26.89C714.37,2120.67,726.6,2125.37,736.9,2127.84z"/>
</g>
<g>
	<path class="st10" d="M627.38,2318.31c2.89-3.24,148.89,119.57,146.21,122.96c-1.39,1.75-42.76-27.75-76.2-55.77
		C662.63,2356.36,625.88,2319.99,627.38,2318.31z"/>
</g>
<g>
	<path class="st10" d="M699.69,2288.44c2.79,6.38,7.94,9.87,10.61,11.4c17.98,19.52,43.78,45.58,77.42,73.49
		c33.72,27.98,72.14,55.19,73.84,53.11c0.36-0.44-0.75-2.52-36.11-36.22c-31.2-29.73-37.88-35.41-57.77-54.23
		c-44.38-42-64.35-64.09-69.17-60.52C696.19,2277.19,697.96,2284.46,699.69,2288.44z"/>
</g>
<g class="st4">
	<g>
		<path class="st14" d="M1037.66,1244.65c-56.02,38.58-96.76,86.32-136.56,132.96c-29.31,34.34-97.73,119.08-87.24,129.69
			c15.77,15.96,154.74-192.01,374.91-226.36c204.6-31.93,364.17,104.03,387.49,66.81c17.35-27.69-56.9-125.44-156.41-168.2
			C1246.81,1105.19,1064.69,1226.03,1037.66,1244.65z"/>
	</g>
</g>
<g class="st15">
	<path class="st16" d="M513.61,1176.39c-5.62,8.52-14.65,22.21-14.15,37.73c0.35,10.75,5.45,28.19,66.02,67.59
		c51.37,33.41,77.05,50.12,92.75,42.44c27.06-13.24,30.79-76.2,7.86-119.47c-22.73-42.89-76.65-75.84-114.75-61.31
		C530.46,1151.34,515.87,1172.96,513.61,1176.39z"/>
</g>
<g>
	<path class="st3" d="M804.42,1247.13c-26.24,16.42-69.57,52.97-61.31,81.74c3.36,11.69,14.2,18.5,17.29,20.44
		c9.09,5.7,22.95,9.72,69.17-1.57c30.52-7.46,45.77-11.18,59.73-18.86c41.97-23.09,81.77-75.38,69.17-99.03
		C944.07,1202.79,860.51,1212.03,804.42,1247.13z"/>
</g>
<g class="st17">
	<g>
		<path class="st18" d="M481.19,1250.94c-36.16,10.33-39.62,148.61-4.52,162.03c19.97,7.64,43.54-28.57,63.66-18.86
			c25.95,12.52,8.8,83.34,28.3,89.6c16.49,5.3,35.02-43.39,61.31-40.08c25.44,3.2,38.42,52.62,40.09,58.95
			c13.9,52.89-6.81,93.97,0,96.68c9.02,3.58,31.41-74.15,99.03-141.48c39.96-39.79,72.31-52.64,68.38-63.66
			c-7.19-20.17-111.19,34.95-207.5-4.72C532.58,1349.3,514,1241.57,481.19,1250.94z"/>
	</g>
</g>
<g class="st19">
	<path class="st20" d="M801.28,129.46c0.21,5.92,58.86-5.07,109.25,29.08c11.34,7.69,29.59,20.56,41.79,43.87
		c16.77,32.03,4.95,51.84,24.23,71.67c13.88,14.28,24.04,8.17,37.73,21.22c19.99,19.05,13.39,46.44,16.51,82.53
		c5.45,63.23,32.79,61.35,44.8,129.69c3.97,22.57,0.3,18.89-1.08,117.01c-1.38,98.24,2.14,112.35,5.79,123.5
		c3.17,9.67,21.52,63.15,73.1,96.68c12.48,8.11,31.89,18.29,35.37,14.15c6.86-8.18-66.11-50.77-68.38-113.18
		c-1.38-37.87,24.72-43.27,30.65-101.39c0.83-8.16,3.77-41.82-7.07-82.53c-13.65-51.27-33.42-54.64-33.01-87.24
		c0.48-38.38,28.09-50.17,23.58-80.17c-1.95-12.96-8.97-18.24-51.87-56.59c-65.55-58.59-75.29-68.21-77.81-85.67
		c-3.53-24.46,11.21-35.99,1.57-56.59c-5.37-11.49-14.18-16.94-40.09-30.65c-55.29-29.26-83.39-43.92-106.11-45.59
		C828.52,116.92,801.14,125.41,801.28,129.46z"/>
</g>
<g class="st21">
	<path class="st20" d="M582.78,215.92c-38.35,65.32-18.44,113.89-61.31,168.2c-7.46,9.45-8.96,9.12-12.58,15.72
		c-18.62,34.01,7.98,67.04,18.86,123.4c10.64,55.08-9.06,53.13,1.57,109.25c5.49,29,17.81,56.02,42.44,110.04
		c28.63,62.79,38.84,72.61,36.16,97.46c-3.78,35.03-26.61,38.93-28.3,73.88c-1.96,40.68,28.14,52.17,22.01,81.74
		c-8.93,43.03-82.75,67.23-88.03,59.73c-2.76-3.91,14.98-13.82,28.3-37.73c20.44-36.7,7.54-65.16,3.14-133.62
		c-5.47-85.21,11.33-90.65-1.57-149.34c-8.95-40.68-16.17-34.18-33.01-88.03c-28.38-90.75-3.71-95.91-29.87-181.56
		c-10.94-35.83-24.42-64.93-10.22-92.75c6.68-13.08,12.91-13,27.51-33.8c17.81-25.37,20.28-42.22,31.44-67.59
		c0,0,14.12-32.1,45.59-70.74c55.55-68.2,136.89-86.19,136.76-86.46c-0.1-0.22-53.09,14.05-99.03,62.88
		C594.96,195.42,584.86,212.38,582.78,215.92z"/>
</g>
</svg>
