<?xml version="1.0" encoding="utf-8"?>
<!-- Generator: Adobe Illustrator 27.5.0, SVG Export Plug-In . SVG Version: 6.00 Build 0)  -->
<svg version="1.1" id="央铋_1" xmlns="http://www.w3.org/2000/svg" xmlns:xlink="http://www.w3.org/1999/xlink" x="0px" y="0px"
	 viewBox="0 0 1915.11 2419.55" style="enable-background:new 0 0 1915.11 2419.55;" xml:space="preserve">
<style type="text/css">
	.st0{fill:#525E43;}
	.st1{fill:#83C0E2;}
	.st2{fill:#A5DCEF;}
	.st3{fill:#1C7993;}
	.st4{fill:#368DA8;}
	.st5{fill:#3685B2;}
	.st6{fill:#6CB7D8;}
	.st7{fill:#237E9B;}
	.st8{fill:#387897;}
	.st9{fill:#2892BC;}
	.st10{fill:#54A4C4;}
	.st11{fill:#8FB9C5;}
	.st12{fill:#C4DFC6;}
	.st13{fill:#CDDCC8;}
	.st14{fill:#B5DAD8;}
	.st15{fill:#2580B2;}
	.st16{fill:#97CCB6;}
	.st17{fill:#CFE4D6;}
	.st18{fill:#2A88B7;}
	.st19{fill:#4A90B7;}
	.st20{fill:#1D74B4;}
	.st21{fill:#86BDC1;}
	.st22{fill:#51A1B8;}
	.st23{fill:#6EB2A9;}
	.st24{fill:#75BDC7;}
	.st25{fill:#83C6B9;}
	.st26{fill:#1E90BA;}
	.st27{fill:#489EBC;}
	.st28{fill:#BFBF66;}
	.st29{fill:#B1A775;}
	.st30{fill:#A8D7D5;}
	.st31{fill:#64833C;}
	.st32{fill:#7A8E00;}
	.st33{fill:#B7AE09;}
	.st34{fill:#878100;}
	.st35{fill:#647C00;}
	.st36{fill:#0A7A3D;}
	.st37{fill:#115E11;}
	.st38{fill:#2E540A;}
	.st39{fill:#106632;}
	.st40{fill:#40895E;}
	.st41{fill:#004138;}
	.st42{fill:#DCE8B8;}
	.st43{fill:#317A5A;}
	.st44{fill:#91B596;}
	.st45{fill:#246847;}
	.st46{fill:#616B43;}
	.st47{fill:#143F59;}
	.st48{fill:#808740;}
	.st49{fill:#775E39;}
	.st50{fill:#5F819B;}
	.st51{fill:#422E54;}
	.st52{fill:#77A9C9;}
	.st53{fill:#0082B9;}
	.st54{fill:#86D5EA;}
	.st55{fill:#31774D;}
	.st56{fill:#014648;}
	.st57{fill:#005275;}
	.st58{fill:#534217;}
	.st59{fill:#351007;}
	.st60{fill:#F4DCBA;}
	.st61{fill:#E5BC7F;}
	.st62{fill:#603723;}
	.st63{fill:#3A270D;}
	.st64{fill:#0D572E;}
	.st65{fill:#00422F;}
	.st66{fill:#845717;}
	.st67{fill:#0A3F3F;}
	.st68{fill:#A3946C;}
	.st69{fill:#2A6872;}
	.st70{fill:#92967F;}
	.st71{fill:#463B56;}
	.st72{fill:#6F959E;}
	.st73{fill:#872B1D;}
	.st74{fill:#7D878E;}
	.st75{fill:#354C6D;}
	.st76{fill:#336D99;}
	.st77{fill:#6F8995;}
	.st78{fill:#767F6A;}
	.st79{fill:#56160B;}
	.st80{fill:#443F54;}
	.st81{fill:#50465C;}
	.st82{fill:#8E847D;}
	.st83{fill:#558BAC;}
	.st84{fill:#7D7A00;}
	.st85{fill:#8B7C17;}
</style>
<path class="st0" d="M354.01,2419.55l235.39-102.09c0,0-216.13-95.62-358.49,102.09h100.12H354.01z"/>
<g>
	<path class="st1" d="M1915.11,220.51c-95.33-11.27-193.06,6.25-287,27.93C1200.85,347.01,788.95,521.86,439.28,775l-84.46,51.73
		c-63.86,57.56-128.34,115.82-176.35,185.91c-48.01,70.08-78.71,154.19-67.52,237.12c11.4,84.47,65.18,159.63,132.25,216.18
		c67.06,56.54,147.16,96.94,226.42,136.79c223.64,112.45,449.44,225.73,693.15,290.41c209.16,55.51,453.3,67.85,624.29-59.3
		c46.91-34.88,85.69-78.48,128.06-118.27V220.51z"/>
	<path class="st2" d="M1597.14,0H31.02C19.56,12.34,9.17,25.59,0,39.83v318.14c50.09,99.59,136.45,180.75,232.76,243.37
		c111.5,72.5,238.52,123.38,371.01,148.6c76.84,14.63,157.43,20.54,232.9,0.46c75.46-20.08,145.29-69.62,172.28-139.49
		c12.05-31.21,15.24-64.92,26.18-96.49c10.93-31.57,32.5-62.87,65.97-72.61c48.7-14.16,96.84,22.11,130.16,58.69
		c33.31,36.59,68.65,79.55,119.32,84.42c48.31,4.65,90.98-27.54,127.62-57.79c63.14-52.12,128-106.33,164.07-178.02
		C1698.2,237.95,1671.13,102.69,1597.14,0z"/>
	<path class="st3" d="M31.02,0C19.56,12.34,9.17,25.59,0,39.83v318.05c38.25,76.08,97.62,141.43,166.48,195.95
		c35.93-7.38,71.16-18.08,105.12-31.07c16.63-6.36,32.98-13.43,48.96-21.14c12.76-6.16,27.91-11.91,38.18-21.66
		c12.81-12.16,12.74-32.54,18.52-48.06c7.25-19.5,17.78-39.03,35.03-52.2c15.73-12.01,35.01-15.93,54.5-18.87
		c25.04-3.78,49.84-7.3,72.66-18.51c20.42-10.03,37.18-24.55,51.65-41.37c27.94-32.48,48.06-70.35,81.15-98.83
		c40.78-35.1,93.42-52.39,144.94-67.98c57.69-17.45,115.21-35.07,160.69-74.84c20.02-17.5,36.38-37.66,50.45-59.28H31.02z"/>
	<path class="st4" d="M1561.89,0H858.84c3.28,14.36,12.81,28.65,22.09,40.93c17.83,23.58,35.84,47.35,58.52,66.81
		c22.68,19.46,50.7,34.53,81.13,37.29c83.53,7.56,150.7-75.72,234.6-76.77c38.22-0.48,74.18,16.47,106.74,35.49
		c32.55,19.02,64.05,40.78,100.46,51.82c36.41,11.04,80.02,9.26,108.24-15.21c25.72-22.3,33.11-59.88,22.88-91.5
		C1587.51,30.34,1576.22,13.87,1561.89,0z"/>
	<path class="st5" d="M800.26,90.93c-38.82-3.69-75.63,16.2-107.07,38.14c-40.5,28.26-78.3,62.34-99.18,105.76
		c-20.88,43.42-22.09,97.62,6.93,136.59c7.25,9.73,16.54,18.55,28.22,22.9c11.69,4.35,26.05,3.47,35.52-4.36
		c15.46-12.8,11.85-36.12,18.37-54.58c6.23-17.63,22.27-30.92,40.1-38.61c17.83-7.69,37.5-10.51,56.9-13
		c115.78-14.82,232.86-20.41,349.62-16.71c9.82,0.31,19.89,0.66,29.23-2.24c9.34-2.9,17.97-9.79,19.72-18.98
		c1.57-8.26-2.54-16.46-6.83-23.79C1116.26,127.11,1007.04,62,892.67,62L800.26,90.93z"/>
	<path class="st6" d="M1068.49,224.74c-15.23-2.36-30.77-0.63-45.25,4.44c-49.19,17.25-103.82,20.47-154.81,8.79
		c-31.32-7.18-69.98-17.81-91.29,5.13c-14.51,15.62-12.3,39.41-6.91,59.6c5.4,20.19,13.16,41.3,6.98,61.28
		c-10.31,33.36-53.99,47.74-69.23,79.34c-14.32,29.7,0.78,64.48,19.13,92.1c18.35,27.63,40.95,55.31,42.45,87.95
		c1.89,41.04-30.03,84.55-3.62,119.97c6.82,9.15,16.66,15.83,27.58,20.07c24.66,9.58,50.88,7.32,76.54,5.02
		c68.86-6.15,143.31-14.61,193.37-59.92c30.7-27.79,48.01-66,64.53-103.1c29.58-66.45,59.16-132.89,88.75-199.34
		c13.91-31.24,171.42,0.25,161.83-32.43c-8.82-30.07-180.1-118.13-210.73-129.48c-30.63-11.35-64.54-19.14-97.42-19.14
		L1068.49,224.74z"/>
	<path class="st7" d="M0,0v268.45c1.13,0.22,2.25,0.46,3.38,0.68c21,4.13,44.42,7.9,62.6-2.9c16.44-9.76,23.63-28.52,32-45.13
		c24.52-48.68,68.37-88.29,120.78-109.12c52.41-20.83,112.91-22.67,166.62-5.08c11.19,3.66,23.52,9.7,25.94,20.7
		c2.72,12.33-8.85,23.51-20.93,28.71c-12.08,5.2-25.86,7.28-36.36,14.96c-24.11,17.64-16.09,58.15,9.98,73.07
		c26.07,14.92,60.83,8.46,86.08-7.68c33.12-21.16,53.4-55.65,77.47-85.89c44.86-56.35,106.41-100.59,175.7-126.29
		C721.18,17.83,740.8,11.43,755.1,0H0z"/>
	<path class="st8" d="M178.6,272.56c-3.21-26.18-24.58-50.45-51.97-54.67c-18.76-2.89-37.57,3.21-56.17,6.91
		c-18.6,3.7-39.93,4.43-54.55-7.1C10.18,213.17,5.78,207,0,202.7v173.65c23.41-4.08,48.17-1.95,72.11-4.25
		c27.61-2.66,55.14-11.76,75.88-29.27C168.72,325.32,181.81,298.74,178.6,272.56z"/>
	<path class="st9" d="M501.13,1096.21c-69.1-39.34-30.91-74.89-25.9-112.75c1.46-11.06-5.51-22.6-14.5-29.76
		c-9.53-7.59-23.11-7.96-35.55-7.95c-103.09,0.03-206.18,0.07-309.27,0.1C76.85,945.86,36.84,946.07,0,958.08v461.72
		c68.51,39.41,149.82,58.52,229.77,53.69c25.16-1.52,54.34-8.22,64.22-30.25c10.81-24.12-8.3-50.43-27.61-69.17
		c-19.3-18.74-41.75-40.38-38.58-66.42c2.99-24.53,74.82-83.33,96.99-96.24c34.79-20.26,69.15-39.87,170.37-61.68
		C514.38,1145.59,518.02,1105.83,501.13,1096.21z"/>
	<path class="st10" d="M522.5,728.25c-13.58-7.12-27.41-14.34-42.59-17.37c-15.18-3.03-32.19-1.29-44.19,8.04
		c-16.52,12.84-19.18,35.7-18.22,55.96c1.47,31.08,9.44,63.63,32.22,86c18.44,18.1,44.22,27.34,69.1,36.03
		c32.79,11.46,65.58,22.92,98.37,34.38c33.51,11.71,70.49,23.49,104.06,11.9c23.63-8.16,41.44-26.68,63.04-38.91
		c22.99-13.02,49.64-18.58,74.88-27.03c32.6-10.92,63.32-26.91,90.55-47.14c18.82-13.98,37.54-34.41,32.4-56.57
		c-4.14-17.84-23.18-29.64-42.19-32.42c-19.01-2.78-38.27,1.48-57.15,4.98c-100.76,18.7-202.08-9.83-304.74-9.83L522.5,728.25z"/>
	<g>
		<path class="st11" d="M508.6,539.71c18.62-8.49,25.15-31.85,20.06-50.86c-5.09-19.01-18.89-34.66-32.3-49.58
			c-18.64-20.76-37.78-41.93-65.63-52.06c-9.59-3.49-19.88-5.25-30.11-4.44c-42.5,3.37-60.2,43.09-72.85,77.86
			c-72.13-100.9-194.76-167.65-322.9-175.76c-1.61-0.1-3.25-0.14-4.88-0.21v778.72c4.6-3.93,9.27-7.77,14.22-11.24
			c49.46-34.69,117.47-30.15,177.97-19.73c60.5,10.42,124.05,24.99,182.11,5.76c74.92-24.82,118.94-99.71,136.78-173.13
			c6.01-24.73,9.74-51.17,0.73-75.07c-8.24-21.85-26.8-40.79-27.25-63.99c-0.82-42.46,59.34-83.26,6.46-118.44
			c-4.26-2.84-8.85-5.17-13.59-7.23c-15.22-6.61-32.25-25.32-23.95-40.8C462.71,542.3,490.28,548.06,508.6,539.71z"/>
		<path class="st12" d="M423.75,392.15c-2.3-2.95-4.75-5.83-7.26-8.67c-5.23-0.84-10.55-1.13-15.86-0.71
			c-42.5,3.37-60.2,43.09-72.85,77.86c-21.71-30.37-48.03-57.62-77.66-81.14c0.37,4.83,1.25,9.58,2.8,14.85
			c1.5,5.12,2.75,9.67,0.42,14.78c-6.02,13.17-26.89,16.86-40.06,14.69c-37.48-6.17-75.64-37.4-109.31-5.87
			c-32.4,30.34-35.75,81.38-72.6,107.63C21.48,532.6,10.9,535.73,0,536.32v193.93c5.02-13.95,11.52-27.27,20.87-39.2
			c30.65-39.11,77.45-38.57,123.64-45.41c57.55-8.52,66.96-68.4,103.48-102.67c27.52-25.83,48.71-4.33,78.25,4.83
			c44.72,13.87,105.27-15.26,121.64-57.02C461.22,456.77,445.25,419.67,423.75,392.15z"/>
	</g>
	<g>
		<path class="st13" d="M886.08,1782.53c-4.51-76.11-40.03-147.1-76.18-215.17c-40.32-75.92-82.23-151.06-124.14-226.2
			c-25.25-45.27-53.29-93.24-101.3-116.61c-39.79-19.37-86.7-18.45-131.39-17.09c-36.76,1.12-73.51,2.24-110.27,3.36
			c-42.88,1.31-86.42,2.72-127.23,15.27c-50.12,15.41-145.1,28.55-134.57,77.17c8.3,38.34,185.3,67.79,152.69,91.73
			C153.86,1453.61,50.15,1284.11,0,1324.27v801.57c167.27-19.72,333.19-55.56,501.99-63.66c108.45-5.2,227.09-12.69,306.38-83.16
			C863.92,1929.66,890.35,1854.67,886.08,1782.53z"/>
		<path class="st14" d="M284.96,1732.27c-29.22-25.21-67.66-51.86-103.89-22.18c-28.84,23.63-39.24,60.07-48.08,93.74
			c-6.56,24.99-82.91,106.58-114.02,114.12c-5.49,1.33-11.83,3-18.97,4.68v203.25c114.94-13.55,229.24-34.71,344.27-49.27
			c18.37-30.66,31.68-63.66,36.3-99.62C391.87,1888.97,353.92,1791.76,284.96,1732.27z"/>
		<path class="st14" d="M612.18,1626.93c-5.05-65.92-54.41-158.44-119.01-210.85c-47.99-38.93-107.94-52.72-156.56-89.01
			c-37.13-27.71-56.6-77.27-17.28-111.24c1.77-1.53,3.61-2.98,5.47-4.41c-36.99,1.33-74.12,3.88-109.23,14.68
			c-50.12,15.41-145.1,28.55-134.57,77.17c8.3,38.34,185.3,67.79,152.69,91.73C153.86,1453.61,50.15,1284.11,0,1324.27v122.76
			c17.28-3.21,38.19-1.74,55.35,11.94c37.26,29.7,195.32,224.22,458.77,275.38C572.32,1745.65,615.54,1670.86,612.18,1626.93z"/>
	</g>
	<path class="st15" d="M1298.41,1525.91c9.07,67.88,49.71,131.4,108.96,170.32c7.83,5.14,16.22,9.97,25.6,11.5
		c9.38,1.53,20-0.86,25.83-8.01c6.68-8.18,5.29-20.29-0.12-29.27c-5.41-8.98-14.1-15.68-22.18-22.62
		c-32.53-27.9-58.14-63.03-74.18-101.77c-5.57-13.46-10.3-27.81-20.78-38.31c-10.47-10.5-29.38-15.97-41.43-7.12L1298.41,1525.91z"
		/>
	<path class="st15" d="M1401.11,1445.72c23.86,33.36,59.33,58.08,97.61,75.52c41.26,18.8,85.98,29.71,130.36,40.11
		c6.76,1.58,13.92,1.65,20.52-0.45c23.31-7.39,17.6-32.46,2.82-43.05c-11.67-8.36-26.89-10.32-41.27-12.8
		c-56.8-9.76-111.23-31.78-158-63.92c-11.67-8.02-22.97-16.72-35.91-22.72c-5.05-2.34-9.64-2.75-14.23-2.38
		c-10.42,0.85-15.59,12.5-9.28,20.42L1401.11,1445.72z"/>
	<g>
		<path class="st16" d="M1915.11,1434.51c-1.88,0.34-3.75,0.69-5.64,0.99c-58.87,9.38-118.84-2.39-177.97-10.11
			c-59.13-7.72-122.12-10.84-175.77,14.01c-18.36,8.5-36.95,23.45-36.2,42.83c0.98,25.43,32.39,37.88,58.31,44.34
			c25.92,6.46,57.29,19.18,57.95,44.61c0.7,27.39-36.3,41.22-64.86,37.39c-28.56-3.82-56.68-17.12-84.98-11.8
			c-28.07,5.28-49.22,28.18-60.88,53c-11.65,24.82-15.88,52.11-23.6,78.28c-7.72,26.17-20.04,52.65-43.09,68.75
			c-23.05,16.11-63.32,21.39-82.45,1.19l-38.89,34.52c-19.1,60.5,0.97,128.38,42.67,177.59c41.71,49.21,102.64,81.23,166.33,99.42
			c63.69,18.2,130.59,23.59,196.98,27.34c90.43,5.11,181.04,7.38,271.63,6.8c0.15,0,0.29,0,0.44,0V1434.51z"/>
		<path class="st17" d="M1915.11,1503.47c-19.76-3.77-39.69-6.76-59.73-8.81c-14.89-1.53-30.11-2.56-44.72,0.61
			c-14.6,3.17-28.7,11.15-35.64,23.76c-11.85,21.51,1.09,49.01,21.21,63.99c20.12,14.98,45.73,21.12,69.69,29.59
			c17.02,6.02,33.45,13.48,49.18,22.09V1503.47z"/>
		<path class="st17" d="M1643.62,1761.46c20.09,1.94,33.22-19.91,20.88-35.1c-7.55-9.28-17.29-16.95-28.46-21.96
			c-8.75-3.93-18.65-6.57-23.93-14.96c-3-4.77-3.09-10.96,0.91-15.02c6.12-6.2,15.95-1.84,23.48-4.89
			c6.59-2.68,9.43-10.56,8.13-17.26c-1.3-6.7-5.76-12.41-10.36-17.63c-9.28-10.54-19.71-20.15-31.01-28.71
			c-10.41,3.09-21.92,4.05-32.32,2.65c-28.56-3.82-56.68-17.12-84.98-11.8c-28.07,5.28-49.22,28.18-60.88,53
			c-3.05,6.5-5.57,13.17-7.8,19.94c18.41,23.75,46.11,39.6,74.33,52.07C1539.47,1742.95,1591.1,1756.38,1643.62,1761.46z"/>
	</g>
	<path class="st18" d="M1396.47,859.53c7.1,9.93,16.86,20.09,29.5,20.31c17.04,0.3,27.8-16.9,34.11-31.93
		c29.58-70.51,43.47-146.91,40.48-222.75c-0.69-17.6-2.24-35.56,2.72-52.53c4.96-16.97,18.13-33.1,36.36-36.3
		c20.11-3.53,39.25,9.12,53.93,22.64c14.68,13.51,28.85,29.27,48.55,34.47c19.7,5.21,45.87-7.51,43.68-26.82
		c-1.43-12.64-13.96-21.93-16.59-34.4c-2.71-12.83,5.96-25.68,17.03-33.46c11.08-7.78,24.44-11.92,36.72-17.86
		c53.77-25.99,83.02-90.59,65.9-145.52c-14.23-45.66-55.53-80.14-101.36-99.46c-45.83-19.33-96.35-25.69-146.08-31.84
		c-26.5-3.28-53.87-6.5-79.58,0.4c-25.71,6.91-49.56,26.7-51.67,51.99c-2.2,26.29,18.89,49.33,41.99,63.98
		c23.1,14.65,49.78,24.64,69.64,43.08c19.86,18.44,30.78,49.95,14.3,71.18c-18.68,24.07-57.56,19.95-85.93,32.92
		c-29.22,13.36-44.8,43.81-55.56,72.86C1359.69,634.76,1332.99,770.74,1396.47,859.53z"/>
	<path class="st19" d="M716.14,1104.25c-40.93-14.49-80.48-32.48-118.01-53.68c-12.24-6.91-24.49-14.36-33.47-24.86
		c-8.98-10.5-14.29-24.67-10.68-37.75c54.87-1.6,112.5-3.94,159.49-30.89c39.67-22.75,68.84-61.62,112.38-76.69
		c22.44-7.77,47.14-8.55,69.2-17.22c13.59-5.34,25.87-13.63,35.66-24.05c9.75-10.39,19.65-24.13,34.3-23.61
		c14.65,0.53,23.94,15.92,24.92,29.81c1.73,24.72-13.3,47.79-31.05,65.94c-17.75,18.15-38.85,33.48-54.03,53.63
		c-14.34,19.03-22.69,41.41-31.8,63.15c-9.11,21.74-19.52,43.66-36.9,60.25c-17.38,16.59-43,23.41-67.64,23.41L716.14,1104.25z"/>
	<path class="st18" d="M1285.01,1489.21c0,0,83.79-189.77,36.64-309.9c-47.15-120.14-112.92-120.42-112.92-120.42L1285.01,1489.21z"
		/>
	<path class="st20" d="M1915.11,221.45c-46.13,2.82-92.86,7.25-135.74,23.59c-43.65,16.63-83.41,47.36-99.61,89.28
		c-16.2,41.93-3.4,95.08,36.29,119.03c27.13,16.37,61.55,17.31,93.38,13.08c31.83-4.23,63.02-13.08,95.13-14.47
		c3.49-0.15,7.01-0.19,10.55-0.11V221.45z"/>
	<g>
		<path class="st21" d="M1915.11,0h-576.19c5.2,3.06,10.51,5.89,15.87,8.44c43.85,20.88,93.54,30.96,131.28,62.17
			c9.29,7.68,13.81,19.69,10.79,31.03c-5.14,19.31-26,21.31-42.89,18.35c-18.77-3.29-37.75-11.02-56.31,2.2
			c-15.61,11.12-21.52,30.55-16.6,48.48c8.9,32.45,41.72,49.61,73.86,58.69c28.02,7.92,57.67,11.58,83.82,24.01
			c33.05,15.71,57.27,43.83,85.45,66.54c21.24,17.12,45.11,31.21,70.57,41.94c58.18,24.52,125.85,9.84,168.91-34.67
			c14.19-14.66,32.15-26.62,51.46-35.29V0z"/>
		<path class="st22" d="M1915.11,13.37c-12.81-4.83-25.77-9.29-38.86-13.37h-243.57c-3.93,5.38-6.81,11.37-8.19,17.88
			c-7.92,37.17,32.95,75.1,17.55,110.09c-11.22,25.49-45.28,32.49-74.29,34.5c-29.01,2.01-62.45,4.62-79.2,27.21
			c-10.11,13.63-10.78,30.02-6.56,46.38c19.46,4.45,38.91,8.85,56.74,17.32c33.05,15.71,57.27,43.83,85.45,66.54
			c21.24,17.12,45.11,31.21,70.57,41.94c58.18,24.52,125.85,9.84,168.91-34.67c14.19-14.66,32.15-26.62,51.46-35.29V13.37z"/>
	</g>
	<path class="st23" d="M1915.11,115.78c-6.44,5.2-10.95,12.53-10.67,20.44c0.27,7.36,4.61,13.84,10.67,18.59V115.78z"/>
	<path class="st23" d="M1915.11,276.6c-8.97,7.26-24.27,13.19-53.97,16.19c-10.33,1.04-22.87,1.26-27.88,9.9
		c-4.19,7.23-0.1,16.77,6.84,21.73c6.94,4.96,15.9,6.43,24.51,7.53c16.75,2.15,33.61,3.38,50.5,3.87V276.6z"/>
	<path class="st24" d="M1915.11,708.47c-1.86,0.7-3.71,1.44-5.53,2.28c-21.19,9.8-37.57,32.01-33.01,53.97
		c4.65,22.38,27.96,36.76,38.53,57.12V708.47z"/>
	<path class="st25" d="M1915.11,883.64c-16.01,0.46-32.01,1.45-47.94,3.12c-24.34,2.56-51.56,8.33-64.3,28.19
		c-9.76,15.22-8.08,34.32-8.48,52.13c-0.4,17.81-4.95,38.11-21.34,46.8c-18.34,9.72-40.85-0.12-59.55-9.23
		c-27.1-13.2-55.5-25.14-85.74-28.57c-30.24-3.43-62.86,2.65-85.58,21.9c-22.72,19.25-32.58,53.13-18.06,78.55
		c6.51,11.4,17.15,20.39,22.97,32.12c11.59,23.38,1.47,50.87-9.59,74.47c-11.06,23.61-23.31,49.58-15.48,74.33
		c7.93,25.07,35.19,41.03,62.45,44.89c27.26,3.85,54.88-2.04,81.8-7.65c26.92-5.6,54.77-10.96,81.85-6.06
		c25,4.53,47.74,17.57,72.94,20.98c25.19,3.41,56.34-8.33,59.33-32.33c4.51-36.25-56.14-58.13-50.19-94.19
		c3.6-21.82,33.18-33,54.85-24.98c12.87,4.76,22.82,14.15,30.05,25.45V883.64z"/>
	<path class="st13" d="M1915.11,912.64c-31.27,9.54-61.76,20.94-93.09,31.05c-8.42,2.72-19.16,5.54-27.51,10.56
		c-0.04,4.3-0.02,8.61-0.12,12.83c-0.22,9.58-1.65,19.86-5.46,28.68c5.43,8.58,12.12,16.96,14.44,25.75
		c8.3,31.46-23.32,54.01-53.43,53.53c-15.99-0.26-31.63-4.56-44.46-13.77c-12.12-8.7-18.66-20.88-27.94-31.93
		c-27.76-33.05-76.61-16.08-99.73,13.06c-11.11,14-16.36,32.59-21.39,49.31c-2.61,8.65-5.05,17.91-5.67,27.14
		c1.3,5.44,1.69,11.03,1.36,16.68c0.14,0.55,0.21,1.11,0.38,1.66c5.42,18.25,22.81,28.42,39.84,36.03
		c20.7,9.25,34.34,8.87,50.59-7.56c21.81-22.06,42.32-53.44,77.89-55.1c26.41-1.23,50.49,15.37,71.1,28.92
		c11.39,7.49,30.08,23,47.52,27.26c7.76-7.14,19.2-11.17,30.57-11.16c6.2-8.15,10.48-18.61,16.1-26.05
		c7.51-9.94,17.01-17.2,29.02-20.91V912.64z"/>
	<path class="st26" d="M1915.11,622.59c-18.11,3.52-36.09,7.67-53.84,12.56c-21.4,5.89-42.89,12.95-60.74,25.6
		c-12.5,8.86-23.08,20.9-28.64,34.58c-3.83,9.42,4.39,19.41,14.9,17.89c25.57-3.71,49.45-18.86,72.91-30.84
		c17.69-9.03,36.28-16.45,55.42-22.22V622.59z"/>
	<path class="st27" d="M1478.09,1094.73c-15.17-19.3-30.33-38.6-45.49-57.9c-5.22-6.64-11.26-13.78-19.84-15.22
		c-10.89-1.83-21.44,7.2-23.59,17.49c-2.16,10.3,2.31,20.94,8.79,29.44c6.48,8.5,14.91,15.47,22.22,23.34
		c21.79,23.48,33.08,55.47,30.6,86.68c-0.67,8.45-2.3,17.03-0.43,25.32c1.87,8.29,8.47,16.41,17.38,16.98
		c6.58,0.42,12.84-3.42,16.66-8.52c3.82-5.1,5.6-11.3,6.97-17.43c5.96-26.52,5.52-54.26-1.12-80.63L1478.09,1094.73z"/>
	<path class="st17" d="M1450.41,1811.78c13.91,28.72,36.92,52.58,65.79,68.31c70.2,38.26,148.81,62.6,229.3,70.7
		c13.24,1.33,26.92,2.19,39.62-1.61c12.7-3.81,24.33-13.29,26.57-25.76c2.1-11.73-4.53-23.65-13.97-31.49
		c-9.44-7.84-21.35-12.34-33.06-16.61c-89.52-32.6-181.43-59.26-274.85-79.72c-8.37-1.83-17.17-3.61-25.45-1.43
		C1456.09,1796.34,1448.99,1803.73,1450.41,1811.78L1450.41,1811.78z"/>
	<path class="st27" d="M1536.23,845.65c-0.82,4.98,0.54,10.05,3.73,14.07c29.73,37.54,72.64,65.55,120.27,78.28
		c9.69,2.59,20.04,4.57,29.65,0.77c3.85-1.52,7.27-4.06,9.49-7.42c6.85-10.32-0.44-20.68-9.67-25.52
		c-6.94-3.64-14.94-4.9-22.62-6.78c-30.15-7.36-56.42-24.57-81.97-41.46c-10.92-7.22-23.56-12.21-35.34-18.31
		c-5.6-2.9-12.53,0.24-13.52,6.22L1536.23,845.65z"/>
</g>
<path class="st28" d="M1915.11,1941.24c-17.57,7.51-34.57,16.66-51.03,26.04c-37.94,21.63-75.73,45.33-118.77,55.1
	c-23.16,5.26-48.94,5.95-69.42-5.6c-20.48-11.55-32.47-38.32-20.7-57.98c8.48-14.16,25.84-20.82,38.85-31.43
	c13.01-10.61,20.81-32,7.32-42.06c-75.17-49.52-175.06-46.97-265.24-32.33c-90.18,14.64-180.96,39.47-271.61,27.74
	c-74.61-9.65-146.52-43.9-221.47-36.95c-129.75,12.03-233.44,144.14-361.88,122.93c-68.31-11.28-128.48-65.93-196.95-55.51
	c-55.67,8.47-99.99,59.1-156.3,56.47c-52.47-2.45-90.13-50.07-140.41-64.52c-29.19-8.39-59.79-4.36-87.52,7.64v316.79
	c43.87,15.59,91.34,22.31,138.72,19.71c87.01-4.78,171.12-29.82,255.52-50.49c273.81-67.06,559.74-89.21,841.37-65.17
	c226.84,19.36,461.77,67.46,679.5,13.97V1941.24z"/>
<path class="st28" d="M1042.59,1926.1c0.65,1.79,0.75,3.42,0.49,4.9c13.45,15.73,46.15,18.38,64.16,19.72
	c28.84,2.15,57.65,0.44,86.51,0c50.1-0.77,101.66-7.97,146.43-31.05c22.07-11.38,43.09-26.92,56.2-47.89
	c2.65-4.23,4.82-8.59,6.62-13.04c-79.27,14.42-158.93,32.29-238.49,21.99c-40.44-5.23-80.09-17.68-119.85-26.89
	C1037.38,1878.53,1034.55,1903.96,1042.59,1926.1z"/>
<path class="st29" d="M1701.37,1885.31c-75.17-49.52-175.06-46.97-265.24-32.33c-3.42,0.56-6.85,1.13-10.27,1.71
	c-7.89,25.8-23.44,48.08-48.4,66.43c-64.2,47.21-147.21,50.16-224.43,51.31c-42.53,0.63-136.34,2.85-137.34-57.13
	c-0.03-2.07,0.49-3.78,1.34-5.22c-2.26-19.65,0.91-40.42,6.83-60.7c-26.72-5.2-53.56-8.13-80.81-5.6
	c-129.75,12.03-233.44,144.14-361.88,122.93c-68.31-11.28-128.48-65.93-196.95-55.51c-51.03,7.77-92.54,50.94-142.48,56.05
	c-42.2,11.12-86.59,9.95-130.22,9.88c-28.03-0.04-56.06-0.67-84-2.96c-8.23-0.68-17.59-1.41-27.53-2.43v255.85
	c43.87,15.59,91.34,22.31,138.72,19.71c87.01-4.78,171.12-29.82,255.52-50.49c238.94-58.52,487.12-82.83,733.61-72.1
	c1.99-6.2,4.13-12.36,6.65-18.4c12.07-28.87,32.77-51.27,57.39-70.87c20.5-16.32,43.5-30.33,69.15-37.6
	c26.73-7.57,54.36-5.3,81.54-1.37c61.35,8.86,119.39,22.29,175.42-11.59c20.75-12.55,37.58-29.54,57.36-43.19
	c16.47-11.36,35.71-19.66,55.12-25.05c23.62-6.57,50.51-8.92,73.83-1.89C1709.86,1904.34,1710.59,1892.18,1701.37,1885.31z"/>
<path class="st30" d="M544.37,1229.19c8.37-5.46,8.96-17.7,3.86-26.05c-5.1-8.34-14.24-13.61-23.19-18.17
	c-45.15-23.03-95.28-37.24-146.34-41.48c-16.78-1.39-34.16-1.65-49.93,3.98c-15.77,5.63-29.7,18.28-32.01,34.13
	c-2.23,15.32,6.81,30.62,19.55,40.26c12.74,9.63,28.69,14.51,44.48,18.29c46.42,11.09,95.09,16.22,142.72,11.89
	C519.99,1250.54,534.87,1242.06,544.37,1229.19L544.37,1229.19z"/>
<path class="st31" d="M1915.11,2419.55v-152.68c-31.74-34.72-69.95-63.35-114.42-81.81c-106.28-44.12-231.42-23.93-336.91,21.87
	c-105.49,45.79-197.44,115-295.77,173.43c-23.19,13.78-47.06,27.02-71.51,39.21H1915.11z"/>
<path class="st31" d="M547.53,2419.55c-37.42-8.73-75.19-14.86-113.75-15.25c-41.5-0.42-82.38,5.87-122.74,15.25H547.53z"/>
<path class="st32" d="M1152.4,2069.32c0,0,149.27,50.04,277.34-47.16c128.06-97.2,155.42-75.79,187.5-3.01
	c32.08,72.78-216.53,191.83-365.73,143.21C1102.32,2113.74,1152.4,2069.32,1152.4,2069.32z"/>
<path class="st33" d="M1425.75,2419.55c23.03-33.74,49.47-64.17,85.13-86.04c74.45-45.65,173.21-41.26,255.7-10.51
	c53.56,19.96,101.93,49.65,148.52,82.03v-370.26c-39.36-17.5-81.69-28.96-124.93-33.24c-92.01-9.11-185.87,13.37-266.92,55.72
	c-65.48,34.22-129.09,82.75-203.83,81.58c-95.28-1.5-166.21-82.16-254.04-117.28c-123.37-49.33-282.37,7.89-340.33,122.47
	c-16.37,32.36-25.28,67.76-41.84,100.03c-16.56,32.27-43.4,62.68-80.12,71.23c-31.44,7.33-64.36-2.48-96.71-1.47
	c-60.01,1.88-150.94,43.58-164.29,99.17l25.68,6.56H1425.75z"/>
<path class="st34" d="M700.85,2324.78c55.82,4.52,111.99,5.29,167.32-4.26c27.01-4.66,53.03-11.99,79.37-19.25
	c22.14-6.1,44.95-9.76,66.84-16.72c31.13-9.89,75.08-29.62,95.06-55.65c18.99-24.73-29.64-55.54-46.56-69.39
	c-24.35-19.92-56.34-40.87-70.94-69.06c-9.34-18.03-7.86-39.32,12.47-48.8c18.6-8.67,42.44-5.13,62.04-2.25
	c19.24,2.83,38.23,7.16,57.09,11.94c-18.83-11.32-38.04-21.75-58.15-29.79c-123.37-49.33-282.37,7.89-340.33,122.47
	c-16.37,32.36-25.28,67.76-41.84,100.03c-14.27,27.81-36.21,54.2-65.49,66.45C644.81,2318.12,672.8,2322.51,700.85,2324.78z"/>
<path class="st35" d="M1425.8,2419.55c1.31-1.92,2.61-3.85,3.94-5.74c-5.69-2.97-11.4-5.88-17.11-8.63
	c-90.54-43.57-181.51-21.5-269.39,14.37H1425.8z"/>
<path class="st36" d="M230.91,2419.55c10.87-9.73,21.84-19.34,33.05-28.63c62.52-51.79,140.84-96.1,223.35-87.9
	c55.72,5.53,112.89,34.47,164.8,14.48c30.25-11.65,51.57-38.16,65.48-66.21c13.91-28.04,21.86-58.41,34.41-87.03
	c40.01-91.21,129.35-161.39,231.19-181.62c46.44-9.22,104.59-15.3,121.52-57.39c8.76-21.78,1.78-47.49-14.01-65.34
	c-15.79-17.85-39.19-28.49-63.2-33.32c-56.72-11.4-115.44,7.37-167.03,32.48c-51.6,25.11-99.99,56.94-154.86,74.72
	c-50.99,16.52-105.45,20.21-159.19,23.76c-47.71,3.15-95.42,6.31-143.13,9.46c-54.98,3.63-113.65,8.57-156.84,41.08
	c-34.69,26.11-56.79,68.36-98.13,83.39c-42.94,15.61-90.22-3.77-136.06-7.22c-4.1-0.31-8.19-0.45-12.26-0.5v335.78H230.91z"/>
<path class="st37" d="M620.9,2116.49c9.95,25.46,25.1,48.91,43.16,67.38c9.2,9.41,20.05,1.05,15.88-12.18
	c-11.44-36.29-30.49-70.89-54.61-98.5c-5.28-6.04-12.05-12.34-17.94-8.34c-2.72,1.85-4.14,5.68-4,9.93
	c0.29,8.79,4.81,18.24,9.62,26.09L620.9,2116.49z"/>
<path class="st38" d="M230.91,2419.55c10.87-9.73,21.84-19.34,33.05-28.63c62.52-51.79,140.84-96.1,223.35-87.9
	c55.72,5.53,112.89,34.47,164.8,14.48c30.25-11.65,51.57-38.16,65.48-66.21c13.91-28.04,21.86-58.41,34.41-87.03
	c40.01-91.21,129.35-161.39,231.19-181.62c46.44-9.22,104.59-15.3,121.52-57.39c8.76-21.78,1.78-47.49-14.01-65.34
	c-15.79-17.85-39.19-28.49-63.2-33.32c-56.72-11.4-115.44,7.37-167.03,32.48c-24.18,11.76-47.65,24.99-71.41,37.57
	c0.2,0.14,0.41,0.27,0.61,0.41c19.39,13.51,38.89,31.04,45.49,53.79c8.31,28.65-10.63,51.56-32.29,69.49
	c-52.22,43.23-114.11,73.88-164.62,119.56c-24.02,21.72-43.94,46.38-74.97,59.52c-25.25,10.69-52.9,13.33-80.27,13.64
	c-33.32,0.38-66.72-2.32-99.89,1.88c-36.64,4.64-71.19,17.15-103.41,34.07c-31.54,16.56-58.59,34.68-82.19,60.79
	c-22.47,24.86-41.99,52.59-67.93,74.44c-16.39,13.8-34.66,25.05-53.58,35.31H230.91z"/>
<path class="st37" d="M226.33,2070.34c-1.29-13.34-2.56-27.28-3.79-40.55c-5.82,6.01-11.46,12.22-17.16,18.33
	c3.81,9.78,7.62,19.56,11.42,29.34C220.05,2085.81,227.3,2080.39,226.33,2070.34z"/>
<path class="st39" d="M401.05,2060.89c-3.29-17.91-6.48-37.76-9.34-50c-3.52-15.04-10.55-29.02-20.05-41.46
	c-15.83,1.44-31.64,3.43-47.03,6.5c22,29.69,44,59.38,66.01,89.06C394.18,2069.77,402.11,2066.66,401.05,2060.89z"/>
<path class="st39" d="M157.4,2200.1c-2.42-25.05-4.76-52.82-6.87-69.94c-1.59-12.93-4.19-25.27-7.54-36.94
	c-11.56,3.42-23.41,4.51-35.45,4.21c14.07,36.13,28.13,72.25,42.2,108.38C152.35,2212.53,158.18,2208.18,157.4,2200.1z"/>
<path class="st40" d="M249.36,2345.43c3.29,16.74,7.09,32.76,11.01,48.52c1.2-1.01,2.38-2.03,3.59-3.03
	c7.74-6.41,15.72-12.7,23.92-18.8c-9.47-21.05-20.26-37.76-31.66-48.89C251.36,2318.48,246.89,2332.83,249.36,2345.43z"/>
<path class="st39" d="M44.82,2304.78c18.42,38.26,36.84,76.51,55.26,114.77h27.33c-1.72-14.9-3.39-28.71-4.95-39.01
	c-9.76-64.23-46.25-116.32-88.99-138.23c-6.63-3.4-12.7,6.86-9.34,15.87C30.19,2274.38,37.53,2289.65,44.82,2304.78z"/>
<path class="st39" d="M121.04,2263.8c19.42,51.92,38.83,103.83,58.25,155.75h26.89c-2.48-11.39-4.79-21.81-6.82-30.69
	c-25.69-112.06-67.27-199.87-104.64-233.87c-5.79-5.27-7.23,13.46-2.18,28.96C101.62,2211.84,111.36,2237.93,121.04,2263.8z"/>
<path class="st41" d="M722.26,1927.74c4.74,13.62,12.61,26.79,23.18,38.77c3.88,4.4,13.11,2.76,13.07-2.33
	c-0.23-29.95-16.6-60.47-45.49-83.13c-2.47-1.94-6.11-3-9.55-2.55c-8.16,1.06-7.64,8.56-5.19,13.53l3.49,3.48
	C711.54,1905.22,718.26,1916.24,722.26,1927.74z"/>
<path class="st37" d="M313.32,2206.18c0.27,19.01,6.15,37.87,16.55,54.11c5.3,8.27,18.49,5.21,19.29-4.44
	c2.19-26.48-3.38-53.56-16.22-77.18c-2.81-5.17-6.93-10.84-13.91-9.53c-3.22,0.6-5.92,2.81-7.3,5.64
	c-2.87,5.86-1.98,13.1-0.26,19.35L313.32,2206.18z"/>
<path class="st37" d="M30.9,2403.37c0.09,5.41,0.52,10.8,1.1,16.18h34.95c-4.91-16.31-11.54-32.14-19.9-47.13
	c-3.28-5.88-8.16-12.44-15.55-11.44c-3.3,0.45-6.15,2.55-7.81,5.29c-5.11,8.41,0.13,18.21,4.88,25.91L30.9,2403.37z"/>
<path class="st41" d="M878.87,1893.61c-0.65,18.2,1.94,36.52,7.62,53.91c2.09,6.39,11.74,6.32,13.68-0.11
	c11.39-37.83,7.23-79.86-12.22-114.69c-1.66-2.97-4.81-5.1-8.35-5.28c-8.39-0.42-10.79,9.14-10.33,15.94l2.07,5.14
	C877.12,1862.89,879.42,1878.24,878.87,1893.61z"/>
<path class="st41" d="M966.71,1886.69c3.44,25.89,10.09,50.63,19.57,72.84c3.48,8.15,12.96,4.17,13.42-5.66
	c2.72-57.84-10.79-115.34-37.71-156.55c-2.3-3.52-5.87-5.25-9.39-4.08c-8.34,2.78-8.56,17.21-6.58,26.6l3.18,6.41
	C958.1,1844.16,963.8,1864.83,966.71,1886.69z"/>
<g>
	<path class="st42" d="M1381.85,758.93l37.48,131.08c0,0,15.52-128.86,40.81-215.43c3.88-13.27,3.25-27.36-2.07-40.17
		c-20.05-48.34-69.5-171.14-76.22-222.22c-8.46-64.3-274.45-141.8-274.45-141.8L1381.85,758.93z"/>
	<path class="st43" d="M1419.33,890.01c0,0-3-85.27,18.33-194.08c4.27-21.78,1.31-44.28-8.38-64.43
		c-22.57-46.97-63.21-134.96-75.36-183.82c-3.89-15.63-14.59-28.93-29.61-36.33c-44.37-21.87-137.41-71.76-216.91-140.96
		c0,0-56.62,55.35-212.95,6.93c-9.07-2.81-18.3,3.99-17.48,13.02c3.28,36.54-3.97,117.16-110.52,190.16
		c0,0,108.81,108.5,41.71,225.61c0,0,150.53,48.67,237.58,57.92c87.05,9.25,223.07,179.29,221.25,217.41
		C1266.99,981.44,1377.61,822.46,1419.33,890.01z"/>
	<path class="st44" d="M1145.46,405.37c-47.95-17.59-84.48-25.29-102.83-26.62c-1.57,26.69-0.4,62.58,4.34,88.95
		c5.01,27.87,18.32,52.59,31.43,77.66c25.42,48.62,35.34,102.41,69.12,147.21c10.36,13.73,60.56,152.8,81.21,153.47
		c12.96,0.42,88.86-30.14,58.21-82.01c-16.68-28.22-23.13-105.53,4.72-125.37c5.08-3.62,11.72-0.45,14.91,3.64
		c11.04,14.17,29.93,33.18,50.4,32.57c23.67-0.71,22.43-32.56,20.85-48.2c-5.67-56.16-18.82-130.58-33.46-183.76
		c-2.72-9.88-23.58-24.72-59.24-39.9c-30.78-13.1-133.16-46.78-97.7-12.1C1207.33,410.39,1211.07,429.43,1145.46,405.37z"/>
	<path class="st45" d="M1437.71,695.72c1.28-6.54,3.02-31.4,0.12-25.35c-2.33,4.86-15.73,31.92-17.44,37.44
		c-11.23,36.38-3.37,87.22-41.67,111.16c-11.56,7.23-23.99,6.41-35.52-0.34c-2.53-1.48-4.82-3.36-7.23-5.03
		c-1.98-1.37-6.41-2.37-4.13-2.82c-6.36,1.27-12.41,14.71-15.31,19.41c-27.53,44.73-43.18,97.45-48.02,149.08
		c13.4-18.7,111.97-152.16,150.8-89.27C1419.33,890.01,1416.34,804.62,1437.71,695.72z"/>
	<path class="st45" d="M768.62,478.98c44.74,13.31,80.1-22.84,98.37-58.85c11.25-22.18,14.79-45.1,18.72-69.18
		c2.42-14.77,3.17-34.39,21.1-39.68c8.97-2.65,19.45,0.01,28.3,1.41c16.35,2.6,32.64,5.18,49.19,6.28
		c29.87,1.99,63.67,1.49,90.54-12.6c15.22-7.98,26.23-19.99,35.04-33.83c-0.83-0.72-1.67-1.42-2.5-2.14c0,0-57.51,56.22-216.63,5.78
		c-7.44-2.36-15,3.38-14.15,10.78C880.57,321.44,876.45,404.02,768.62,478.98z"/>
	<path class="st46" d="M694.41,1407.39c45.61-68.75,91.21-137.51,136.82-206.26c28.66-43.2,57.68-86.83,96.07-122.58
		c38.39-35.75,87.61-63.41,141.22-67.3c104.08-7.56,195.26,77.96,224.92,173c29.66,95.04,12.64,196.87-4.9,294.59
		c-17.54,97.71-35.21,199.32-6.74,294.69c12.05,40.35,31.53,85.96,7.96,121.42c-18.68,28.09-56.84,36.83-91.17,43.19
		c-118.1,21.86-236.21,43.72-354.31,65.59c-33.54,6.21-68.95,12.31-101.25,1.72c-39.86-13.07-65.92-48.25-95.23-77.04
		c-54.68-53.72-126.21-123.5-204.88-123.5C442.92,1804.89,613.72,1529.03,694.41,1407.39z"/>
	<path class="st47" d="M739.89,2004.27c31.04-51.49,60.25-104.03,81.24-159.86c14.18-37.73,24.9-77.06,28.41-117.07
		c2.13-24.32,6.75-49,6.98-73.39c0.03-3.32,1.36-11.54-1.34-14.12c-3.5-3.35-16.99,1.07-20.7,1.82
		c-12.09,2.44-25.27,4.57-36.15-2.55c-17.43-11.42-20.73-36.45-22.72-54.71c-5.08-46.76,0.36-95.53,9.36-141.58
		c9.6-49.06,23.34-113.55,70.09-143.47c6.05-3.87,16.67-1.62,19.88,4.85c3.2,6.45,6.05,12.98,9.31,19.33
		c34.04-25.54,51.75-71.46,66.66-108.02c26.31-64.53,51.26-172.03,144.37-167.8c38.46,1.75,75.08,17.19,112.58,24.33
		c5.75,1.09,11.98,2.14,18.41,2.95c-42.11-41.48-97.78-68.07-157.76-63.71c-53.61,3.89-102.83,31.55-141.22,67.3
		c-38.39,35.75-67.41,79.38-96.07,122.58c-45.61,68.75-91.21,137.51-136.82,206.26c-80.69,121.65-251.49,397.51-251.49,397.51
		c78.68,0,150.21,69.78,204.88,123.5C676.32,1956.41,701.81,1990.42,739.89,2004.27z"/>
	<path class="st48" d="M1289.75,1894.93c23.57-35.46,4.09-81.07-7.96-121.42c-28.47-95.36-10.8-196.97,6.74-294.69
		c17.54-97.71,34.56-199.55,4.9-294.59c-6.28-20.11-15.34-39.79-26.66-58.26c-0.87,0.87-1.71,1.84-2.48,3.03c0,0,0-0.01,0-0.01
		c-2.59,5.13-8.36,8.46-15.96,7.28c-7.15-1.11-2.56,26.14-11.49,20.48c-32.64-20.67-46.85-1.35-55.14,14.46
		c-14.11,26.89,13.01,50.52,10.4,59.03c-7.39,24.1-12.56,42.66-19.41,66.9c-9.11,32.3-108.15,210.38-71.88,191.43
		c12.71-6.64,56.26-95.16,62-107.79c10.42-22.91,22.44-47.72,34.26-50.74c11.43-2.91,19.15,0.32,21.28,12.49
		c13.86,79.3-14.67,126.11-54.06,194.84c-34.59,60.35-148.03,319.4-121.25,385.25c5.68,13.96,12.26,27.5,19.58,40.66
		c45.32-8.39,90.64-16.78,135.96-25.17C1232.92,1931.76,1271.08,1923.03,1289.75,1894.93z"/>
	<path class="st49" d="M1268.45,1701.85c-0.87,0.96-1.77,1.89-2.63,2.88c-10.17,11.7-22.87,30.69-40.41,32.78
		c-15.91,1.9-15.73-38.53,5.19-114.6c1.26-4.59-20.92-28.13-68.28,108.75c-14.99,43.33-57.23,23.1-81.09-5.28
		c-29.62,81.05-51.66,163.11-38.19,196.25c5.68,13.96,12.26,27.5,19.58,40.66c45.32-8.39,90.64-16.78,135.96-25.17
		c34.34-6.36,72.5-15.09,91.17-43.19c23.57-35.46,4.09-81.07-7.96-121.42C1274.76,1749.96,1270.55,1726.02,1268.45,1701.85z"/>
	<path class="st50" d="M1226.37,1696.39c2.12-18.29,14.51-83.81,4.23-73.48c-10.28,10.33-33.25,64.3-25.39,126.3
		c7.86,62,27.91,47.65,29.07,70.61c1.16,22.96,17.48,16.65,15.06-20.67C1246.93,1761.84,1221.67,1736.97,1226.37,1696.39z"/>
	<path class="st51" d="M1019.94,1021.32c-10.52,3.59-20.75,8.05-30.65,13.16c-78.11,113.26-153.65,228.12-226.5,344.5
		c-21.42,34.22-50.94,93.01-54.84,132.01c-5.89,58.98,9.16,119.47,22.44,114.58c19.61-7.21,7.94-59.6,22.9-118.04
		c5.47-21.36,18.68-47.33,33.25-72.65c9.58-47.88,24.25-107.22,68.53-135.56c4.54-2.91,11.65-2.36,16.27,0.82
		c15.64-23.8,30.13-48.09,39.62-74.49C942.43,1138.11,980.71,1087.04,1019.94,1021.32z"/>
	<g>
		<g>
			<path class="st52" d="M532.22,681.76c4.97-10.88,17.01-19,29.49-19.51c117.23-4.79,213.58,29.58,243.92,41
				c18.53,6.98,36.26,16.3,55.73,20.36c19.47,4.06,41.93,1.83,55.96-11.61c8.11-7.76,12.72-18.56,21.73-25.37
				c13.1-9.9,31.65-8.83,48.31-7.26c18.9,1.77,41.34,5.93,48.51,22.62c3.89,9.05,1.76,19.73-3.69,28.02
				c-5.46,8.29-13.87,14.47-22.76,19.39c-38.51,21.27-85.93,20.87-127.95,34.91c-23.93,7.99-46.23,20.72-71.14,25.3
				c-26.99,4.97-55.18-0.1-80.67-9.88c-25.49-9.77-48.74-24.07-71.81-38.28c-33.96-20.92-68.95-40.16-102.91-61.08L532.22,681.76z"
				/>
			<path class="st53" d="M1031.54,695.22c-10.09,14.78-22.39,28.57-34.89,40.65c-11.97,11.56-25.17,22.26-39.34,31.51
				c18.23-3.96,35.95-9.05,52.09-17.97c8.9-4.91,17.31-11.09,22.76-19.38c5.46-8.29,7.58-18.97,3.69-28.02
				C1034.76,699.44,1033.28,697.22,1031.54,695.22z"/>
			<path class="st54" d="M798.66,809.77c-65.37-15.5-87.62-75.67-206.86-118.3c-10.6-3.79,48.51-16.79,165.8,7.97
				c17.75,3.75,36.44,4.79,54.6,6.38c-2.18-0.88-4.37-1.75-6.58-2.58c-30.34-11.42-126.69-45.79-243.92-41
				c-12.48,0.51-24.52,8.63-29.49,19.51l22.71,18.61c33.96,20.92,68.95,40.17,102.91,61.08c23.07,14.21,46.31,28.51,71.81,38.28
				c23.18,8.89,48.58,13.86,73.29,10.96C801.51,810.38,800.08,810.1,798.66,809.77z"/>
		</g>
	</g>
	<path class="st55" d="M829.23,519.6c14.95,32.97,29.09,67.1,26.97,102.94c-0.5,8.56-1.63,17.32,0.82,25.56
		c2.46,8.25,9.69,15.97,18.71,16.09c11.8,0.15,19.29-11.59,24.28-21.75c6.58-13.41,13.17-26.83,19.75-40.24
		c6.88-14.01,13.86-28.4,15.19-43.81c2.05-23.82-10.93-48.26-32.31-60.86c-21.38-12.6-49.96-12.13-71.53,0.19
		C831.11,497.72,821.13,501.74,829.23,519.6z"/>
	<g>
		<path class="st56" d="M1068.89,385.78c0,0-64.76-28.18-101.56,19.59c-36.8,47.76-3.79,22.11-36.8,47.76
			c-33.02,25.65,199.51-33.32,199.51-33.32L1068.89,385.78z"/>
		<path class="st57" d="M980.9,413.19c-5.19,1.79-9.97,4.72-13.59,8.68c-2.26,2.47-4.15,5.86-2.89,8.91
			c0.95,2.3,3.52,3.71,6.09,4.06c2.57,0.35,5.18-0.18,7.71-0.75c20.9-4.71,41.05-12.38,59.6-22.67c2.24-1.24,4.67-2.81,5.14-5.23
			c0.56-2.92-2.19-5.63-5.2-6.45c-3.01-0.81-6.21-0.29-9.33-0.08c-3.12,0.21-6.54,0.02-8.93-1.89c-2.39-1.92-2.85-6.09-0.17-7.63
			c-33.08-1.99-66.77,12.64-86.82,37.71c-0.83,1.04-1.67,2.15-1.94,3.43c-0.27,1.28,0.17,2.8,1.39,3.43
			c2.12,1.09,4.41-1.03,5.88-2.85c11.17-13.84,28.57-22.35,46.84-24.14C984.67,407.7,994.83,408.38,980.9,413.19z"/>
		<path class="st58" d="M976.4,558c0,0-52.59,12.06-65.29-48.22c-12.69-60.28,73.45-95.58,114.25-101.61
			c40.8-6.03,94.3-5.17,134.2,31.86c39.9,37.03-39.9,146.39-39.9,146.39L976.4,558z"/>
		<path class="st59" d="M1159.57,440.03c-39.9-37.03-93.4-37.89-134.2-31.86c-10.69,1.58-24.49,5.19-38.81,10.7
			c11.17,10,7.82,25.88-5.05,32.64c-40.47,21.24-43.78,61.6-28.96,70.3c9.16,5.37,21.19,2.93,29.14,11.55
			c3.29,3.56,2.64,6.6,4.68,10.36c2.92,5.39,8.34,6.6,15.27,8.55c6.13,1.72,8.71,6.65,8.01,12.33l110.02,21.82
			C1119.67,586.42,1199.47,477.06,1159.57,440.03z"/>
		<path class="st60" d="M1051.66,618.28c0,0-30.96,25.95-56.22,0c-11.11-11.41-1.36-19.59-10.2-24.54
			c-8.84-4.95,2.34-12.49-6.73-17.65c-9.07-5.17-18.44,0.57-16.32-14.06c2.12-14.64,4.23-37.32-4.23-45.93
			c-8.46-8.61,3.63-36.17,23.58-49.94c19.95-13.78,52.59-41.91,102.16-26.41c49.57,15.5,59.24,79.22,29.62,116.54
			C1083.7,593.59,1051.66,618.28,1051.66,618.28z"/>
		<path class="st61" d="M994.26,611.68c4.52-5.27,10.3-9.26,15.67-13.66c1.47-1.21,8.07-5.3,8.2-7.25c0.17-2.62-5.62-2.23-9.44-2.99
			c-20.8-4.14-29.72-20.44-29.36-40c0.32-17.37,1.99-29.17-11.86-42.69c-3.01-2.93-6.4-5.62-10.01-8.05
			c-2.97,8.13-3.15,15.36,0.49,19.07c8.46,8.61,6.35,31.29,4.23,45.93c-2.12,14.64,7.25,8.9,16.32,14.06
			c9.07,5.17-2.12,12.7,6.73,17.65c7.76,4.35,1.2,11.19,7,20.51C992.86,613.39,993.53,612.53,994.26,611.68z"/>
		<path class="st62" d="M959.55,518.08c4.86-8.77,17.15-32.99,18.69-24.58c2.22,12.07,29.57-24.59,48.71-30.7
			c6.85-2.19,13.51,3.43,13.82,9.77c0.37,7.5-2,14.29-5.01,21.13c-1.7,3.86-11.64,17.8-9.74,21.8c0.65,1.38,5.08,22.41,29.55,0.85
			c9.04-7.96,8.17,20.13,36.41,6.25c14.59-7.17,25.06,10.51,29.09,21.61c19.47-37.66,7.17-90.53-37.38-104.47
			c-49.57-15.5-82.21,12.63-102.16,26.41c-19.95,13.78-32.04,41.33-23.58,49.94C958.54,516.69,959.07,517.36,959.55,518.08z"/>
		<path class="st63" d="M1107.03,452.78c1.19,8.63-1.05,17.07-8.85,23.57c-5.79,4.82-11.33,3.77-17.8,5.92
			c-8.45,2.82-7.17,11.77-10.54,19.1c-2.69,5.83-6.34,10.12-10.63,13.58c5.84,1.11,8.91,19.37,32.79,7.64
			c14.59-7.17,25.06,10.51,29.09,21.61C1136.56,514.28,1131.94,474.74,1107.03,452.78z"/>
		<path class="st64" d="M1032.62,685.45c0,0-53.5-14.64-10.88-66.31c42.62-51.67,145.08-126.58,137.83-179.11
			c0,0,61.54,83.53-29.53,170.5C1038.97,697.5,1032.62,685.45,1032.62,685.45z"/>
		<path class="st65" d="M1043.9,682.21c-4.27-29.24-2.4-52.65,15.46-73.41c11.86-13.79,38.61-25.89,48.36-41
			c9.4-14.58,18.8-29.12,30.67-41.91c26.15-28.17,31.14-47.12,32.64-63.89c-5.48-13.84-11.47-21.98-11.47-21.98
			c7.25,52.53-95.21,127.44-137.83,179.11c-42.62,51.67,10.88,66.31,10.88,66.31s1.34,2.46,11.33-2.99
			C1043.94,682.37,1043.92,682.3,1043.9,682.21z"/>
		<path class="st65" d="M1120.52,581.66c-1.43,2.13-2.83,5.04-1.11,6.97c1.06,1.18,2.97,1.39,4.52,0.9c1.55-0.49,2.82-1.54,4.02-2.6
			c14.58-12.87,24.99-29.94,29.48-48.36c0.66-2.73,1.05-5.99-1.06-7.95c-1.25-1.17-4.4-1.25-7.58,4.99
			C1143.58,545.89,1128.89,569.21,1120.52,581.66z"/>
		<path class="st61" d="M1028.68,573.5c0,0,2.43,5.45,9.99-1.15c7.56-6.6,59.24-37.32,42.62-35.02
			C1064.66,539.63,1025.04,559.72,1028.68,573.5z"/>
		<path class="st66" d="M1061.18,461.56c-1.36,0-19.22,1.72-32.51,21.1c-13.29,19.38-39.58,58.1-28.7,61.55
			C1010.86,547.67,1086.87,459.18,1061.18,461.56z"/>
		<path class="st67" d="M1066.45,440.03c0,0-15.4-12.06-58.32,0C965.21,452.08,1037.37,435.33,1066.45,440.03z"/>
	</g>
	<g>
		<path class="st68" d="M971.65,1049.41c-35.67,24.69-10.45-55.86-1.21-71.76c29.02-49.94,34.8-90.8,6.43-129.24
			c-10.62-14.39-25.76-27.26-28.14-44.69c-2.38-17.45,8.89-33.66,19.63-48c17.76-23.71,35.52-47.42,53.28-71.13
			c16.79-22.42,33.75-45.01,55.03-63.68c12.46-10.93,29.04-20.96,45.38-16.65c9.53,2.52,11.37,22.62,46.96,29.3
			c27.5,5.16,16.48,25.13,30.07,48.42c29.72,50.96,25.13,112.99,19.71,171.01c-3.12,33.43-6.25,66.85-9.37,100.28
			c-2.53,27.09-6.72,57.27-29.01,74.34c-18.64,14.27-47.36,13.18-73.36,1.13C1085.54,1018.76,988.93,1037.45,971.65,1049.41z"/>
		<path class="st69" d="M949.89,808.99c8.87-1.36,17.67-5.03,26.75-11.87c12.98-9.79,24.24-28.04,41.85-30.79
			c21.05-3.29,30.46,16.52,41.24,29.5c18.69,22.51,40.99-2.44,57.91-14.83c8.97-6.57,16.57-9.77,27.7-11.73
			c4.98-0.87,11.54-0.48,14.42-4.74c2.96-4.37,1.57-11.85,1.38-16.8c-0.71-18.44-1.39-36.64,1.54-54.98
			c3.15-19.75,12-35.24,25.45-45.26c-2.6-6.76-7.3-11.71-19.11-13.92c-35.59-6.67-37.43-26.78-46.96-29.3
			c-16.34-4.31-32.92,5.72-45.38,16.65c-21.28,18.66-38.24,41.26-55.03,63.68c-17.76,23.71-35.52,47.42-53.28,71.13
			c-10.74,14.34-22.01,30.55-19.63,48C948.98,805.53,949.39,807.27,949.89,808.99z"/>
		<path class="st70" d="M1070.61,644.74c13.31,2.06,23.84,0.94,36.64-2.73c15.56-4.45,32.6-8.81,49.94-11.52
			c-24.34-8.35-26.79-24.03-35.13-26.23c-16.34-4.31-32.92,5.72-45.38,16.65c-7.77,6.81-14.95,14.16-21.77,21.82
			C1060.11,643.12,1065.26,643.91,1070.61,644.74z"/>
		<path class="st70" d="M1180.09,775.55c-18.97,3.21-39.17-0.61-55.4-10.48c-13.28-8.08-23.8-20.14-29.85-33.95
			c-1.56-3.57,2.52-6.98,6.1-5.14c7.55,3.87,14.61,8.6,20.98,14.05c1.83,1.56,4.68-0.09,4.01-2.33c-3.23-10.75-3.02-22.45,0.6-33.08
			c1-2.92,5.47-2.75,6.3,0.22c3.8,13.71,11.22,26.52,21.46,36.85c5.65,5.7,12.11,10.65,17.54,16.54s9.73,12.98,10.2,20.8
			L1180.09,775.55z"/>
		<path class="st71" d="M1129.47,917.55c-10.15-0.29-19.35,5.6-26.74,12.21c-7.4,6.61-13.97,14.28-22.77,19.09
			c-7.69,4.2-17.39,5.89-25.53,2.52c-8.14-3.37-13.66-12.68-10.65-20.61c2.59-6.82,10.68-13.29,7.07-19.68
			c-3.83-6.8-15.81-3.4-21.8-8.62c-3.92-3.41-3.78-9.59-1.14-13.98c2.64-4.38,7.17-7.39,11.55-10.25
			c13.71-8.95,27.42-17.89,41.14-26.84c6.03-3.93,12.87-9.95,10.54-16.54c-2.68-7.59-14.14-7.17-22.1-4.55
			c-23.63,7.78-44.93,21.84-60.85,40.15c-6.42-11.93-12.84-23.86-19.26-35.78c-2.03-3.77-4.06-7.54-6.09-11.31
			c-6.36-11.82-12.76-23.74-16.6-36.5c-2.24-7.43-3.51-15.11-3.9-22.83c-8.47,12.19-15.52,25.53-13.59,39.69
			c2.38,17.43,17.52,30.29,28.14,44.69c28.36,38.44,22.58,79.3-6.43,129.24c-9.24,15.9-34.46,96.44,1.21,71.76
			c5.92-4.1,21.17-8.99,39.52-13.24c41.53-29.11,83.06-58.22,124.6-87.34c4.77-3.34,9.84-7.09,11.37-12.53
			C1149.75,926.98,1139.62,917.84,1129.47,917.55z"/>
		<path class="st72" d="M1042.61,927.54c-1.72,5.94,0.91,13.49,7.14,15.22c6.41,1.78,12.56-3.07,17.29-7.54
			c13.63-12.87,27.25-25.74,40.88-38.61c18.36-17.33,37.04-35.09,48.58-57.09c1.51-2.87,2.91-5.9,3.05-9.11
			c0.14-3.21-1.24-6.66-4.18-8.25c-3.98-2.16-8.96-0.27-13.02,1.75C1105.3,842.41,1044.33,921.6,1042.61,927.54z"/>
	</g>
	<path class="st73" d="M1041.98,918.21c-6.87,2.56-0.37,7.76-2.81,14.37c-2.71,7.37-9.08-9.44-15.19,10.55
		c-4.08,13.35,6.25,9.44,7.03,13.13c1.36,6.46-9.81,1.67-5.21,15.28c3.4,10.07,11.65,9.35,15.72,9.87
		c4.07,0.52,6.55-8.27,10.58-9.01c11.79-2.15,5.89,9.03,18.6,4.34c5.44-2.01-1.11-6.6-0.24-12.09c1.81-11.52,6.57-1.4,11.56-10.33
		c3.21-5.74,2.28-13.65,0.32-17.1c-3.11-5.47-21.29,5.9-21.06-5.08C1061.57,917.88,1048.85,915.65,1041.98,918.21z"/>
	<path class="st74" d="M681.14,1639.43c-9.52-13.74-10.27-31.15-10.73-47.58c-0.9-32.85-1.81-65.69-2.71-98.54
		c-0.38-13.68-0.78-27.49-2.66-41.03c-9.28,14.33-19.13,29.65-29.3,45.56c2.57,14.59,4.57,29.27,5.81,44.01
		c2.05,24.22,2.19,49.21-6.51,72.07c-3.29,8.65-7.83,16.94-9.78,25.95c-1.95,9.01-0.82,19.31,5.93,25.91
		c8.3,8.12,22.18,8.24,31.82,14.9c9.89,6.83,13.53,19.26,14.22,30.86c0.68,11.59-0.91,23.36,1.46,34.75
		c2.37,11.39,10.08,22.92,22.04,25.35c9.03,1.83,18.64-2.1,24.92-8.53c6.28-6.43,9.62-15.02,11.29-23.65
		c4.92-25.36-4.18-52.79-23.51-70.89C702.83,1658.61,689.33,1651.25,681.14,1639.43z"/>
	<g>
		<path class="st75" d="M1227.32,669.37c-8.52-15.79-39.9-56.26-73.75-11.48c-33.85,44.78,19.34,253.74,19.34,253.74
			s68.47,66.15,72.1,17.93c3.63-48.22-6.81-107.49-0.77-148.82C1250.29,739.41,1243.2,698.79,1227.32,669.37z"/>
		<path class="st76" d="M1244.25,780.74c6.05-41.33-1.05-81.95-16.93-111.37c-6.15-11.4-24.21-35.64-46.51-31.41
			c23.1,29.64,27.09,73.91,29.62,108.74c2.97,40.87,8.27,81.59,10.23,122.53c1.59,33.05,0.95,62.56,12.19,92.87
			c6.17,0.4,11.31-21.26,12.16-32.53C1248.64,881.34,1238.2,822.07,1244.25,780.74z"/>
		<path class="st77" d="M1166.41,918.52c0,0-38.99,115.96-30.83,114.24c8.16-1.72,20.55-23.25,46.55-5.74
			c25.99,17.51,11.49,45.93,11.49,45.93s9.07-4.88,15.11-14.06c6.05-9.19,35.06-108.21,35.97-128.02
			C1245.61,911.06,1189.99,865.13,1166.41,918.52z"/>
		<path class="st78" d="M1216.88,925.7c10.64,2.03,21.31,9.69,24.95,22.3c1.65-7.57,2.71-13.62,2.87-17.14
			c0.91-19.81-54.71-65.73-78.29-12.34c0,0-2.59,7.7-6.28,19.06C1184.46,925.48,1198.63,922.22,1216.88,925.7z"/>
		<path class="st79" d="M1097.5,1164.22c0,0-13.3,43.63-7.86,56.83c5.44,13.2,13.3,67.74,21.76,66.02s21.93,12.06,23.06,4.59
			c0,0,9.59,15.95,15.03,2.23c5.44-13.71-4.23-47.25,0-62.06c4.23-14.81-3.23-45.81,1.71-67.62c4.94-21.81,26.7-59.13,32.14-66.02
			c5.44-6.89,10.28-25.26,10.28-25.26s29.02-36.17,9.07-53.39c-19.95-17.22-56.22-20.09-67.1,13.2
			C1124.7,1066.06,1097.5,1164.22,1097.5,1164.22z"/>
	</g>
	<path class="st80" d="M752.88,828.73c-5.68,0.21-11.55,0.46-16.67,2.8c-5.12,2.34-9.34,7.35-8.74,12.72
		c0.5,4.45,4.03,7.98,7.37,11.15c18.72,17.75,37.45,35.49,56.17,53.24c34.29,32.5,68.75,65.14,107.76,92.43
		c11.31,7.91,26.17,15.62,38.62,9.43c13.53-6.74,13.87-26.27,5.04-38.11c-8.84-11.84-23.44-18.22-36.75-25.35
		c-30.28-16.23-56.75-38.85-76.94-65.73c-8.9-11.85-16.63-24.55-26.77-35.46c-10.14-10.91-22.89-22.61-38.21-22.61L752.88,828.73z"
		/>
	<path class="st81" d="M714.06,869.61c-7.95,5.24-16.24,11-25.79,9.56c-9.55-1.45-18.04-8.08-21.38-16.7
		c-0.85-2.19-1.69-4.81-4.02-5.57c-3.71-1.22-6.55,3.52-6.43,7.24c0.34,10.76,11.49,23.81,22.68,25.55
		c11.18,1.74,23.62-3.56,33.85-8.18c15.05-6.8,27.25-18.69,40.5-28.29c15.52-11.25,30.39-23.29,45.86-34.62
		c35.6-26.07,74.16-48.21,112.63-70.3c-6.96,0.73-13.26,4.1-19.35,7.39c-18.22,9.87-36.45,19.75-54.67,29.62
		C796.44,807.78,745.47,848.91,714.06,869.61z"/>
	<path class="st82" d="M962.77,1317.97c-12.03,26.17-30.2,47.82-51.08,68.37c-40.92,40.26-63.43,96.86-60.74,152.76
		c0.62,12.92,5.53,28.9,19.01,30.72c7.7,1.04,15.32-3.57,19.57-9.75s5.74-13.69,6.69-21.03c3.75-29.06,0.8-60.26,15.89-85.78
		c7.79-13.18,19.77-23.59,29.9-35.26c30.33-34.93,52.73-83.27,48.5-131.2C989.6,1276.62,975.39,1290.52,962.77,1317.97z"/>
	<path class="st45" d="M1230.18,525.3c0.14,11.15,6.97,22.01,17.24,27.41c3.97,2.09,8.82,3.39,13.02,1.75
		c3.71-1.45,6.15-4.94,7.41-8.56c2.94-8.44,0.16-18.41-6.78-24.37c-6.94-5.96-16.34-2.57-25.7-2.57L1230.18,525.3z"/>
	<path class="st82" d="M934.96,1648.63c-14.83,79.73-41.61,157.45-79.27,230.09c-12.97,25.01-27.31,55.09-9.6,78.85
		c10.09,13.53,27.71,19.83,45.04,17.84c32.07-3.67,53.29-28.75,64.07-55.66c8.75-21.85,11.73-45.33,16.57-68.25
		c12.24-57.92,36.88-113.46,71.99-162.22c8.84-12.28,18.49-24.41,23.28-38.58c4.79-14.17,3.76-31.19-7.01-42
		c-8.92-8.95-22.84-12.2-31.68-21.23c-9.09-9.29-11.13-23.19-9.1-35.72c2.04-12.53,7.6-24.25,12.03-36.21
		c19.24-51.9,16.57-110.65-6.46-161.06c-3.16-6.92-14-5.22-14.75,2.28l-4.87,48.3c-7.34,72.77-13.98,149.03-52.89,212.11
		L934.96,1648.63z"/>
	<path class="st83" d="M738.53,1856.56c-57.72-45.69-311.93-272.11-295.61-51.67c0,0,21.76,44.78,54.41,43.06
		c32.64-1.72,29.02,91.28,61.66,89.56c32.64-1.72,64.95,0.72,143.62,59.13c101.29,75.2,268.28-13.23,343.94-25.67
		c77.72-12.78,172.47-36.98,172.47-36.98c-5.37-28.31-63.09-20.81-114.16-15.42C1039.58,1925.45,875.73,1965.17,738.53,1856.56z"/>
	<path class="st49" d="M1237.05,1426.71c29.02-108.06,10.49-191.3-10.78-165.47c-21.26,25.83-43.41,81.47-43.41,81.47l0,0
		c4.69-6.7,9.47-11.46,14.21-12.67c11.43-2.91,19.15,0.32,21.28,12.49c13.86,79.3-14.67,126.11-54.06,194.84
		c-2.48,4.32-5.37,9.69-8.58,15.91C1155.72,1553.28,1208.04,1534.77,1237.05,1426.71z"/>
</g>
<path class="st84" d="M926.08,2131.59c-8.38-0.67-16.87-1.33-25.14,0.12s-16.43,5.31-21.2,12c-4.77,6.69-5.3,16.5,0.16,22.68
	c5.05,5.71,13.45,7.09,21.14,8.11c30.59,4.06,61.17,8.12,91.76,12.19c2.78-4.22,2.66-9.79,0.78-14.45
	c-1.88-4.66-11.66-15.79-15.78-18.82C951.77,2134.27,926.08,2131.59,926.08,2131.59z"/>
<path class="st85" d="M1915.11,2419.55v-116.55c-39.44-5.73-81.07-0.49-118.28,13.72c-54.14,20.69-99.43,58.59-134.83,102.82
	H1915.11z"/>
</svg>
