<?xml version="1.0" encoding="utf-8"?>
<!-- Generator: Adobe Illustrator 27.5.0, SVG Export Plug-In . SVG Version: 6.00 Build 0)  -->
<svg version="1.1" id="图层_1" xmlns="http://www.w3.org/2000/svg" xmlns:xlink="http://www.w3.org/1999/xlink" x="0px" y="0px"
	 viewBox="0 0 595.3 763.8" style="enable-background:new 0 0 595.3 763.8;" xml:space="preserve">
<style type="text/css">
	.st0{fill:#373F46;}
	.st1{fill:#847B75;}
	.st2{fill:#5E5E5A;}
	.st3{fill:#A2A093;}
	.st4{fill:#D3C3B6;}
	.st5{fill:#7FADD1;}
	.st6{fill:#D6DEE5;}
	.st7{fill:#A5C4DB;}
	.st8{fill:#B3CCDD;}
	.st9{fill:#4D89B6;}
	.st10{fill:#548CBA;}
	.st11{fill:#DFE2E4;}
	.st12{fill:#C3D5E2;}
	.st13{fill:#96BAD6;}
</style>
<g>
	<path class="st0" d="M263.5,118.2c1.4-14.2,3.3-28.4,4.4-42.7c0.5-7.1,1.7-14.2,1.7-21.3c0.1-18.3-1.4-36.4-6.8-54
		c3.7,0,7.4,0,11.1,0c0,0.8-0.1,1.8,0.1,2.5c3.2,9.4,2.1,19.4,4.2,28.9c1.2,5.3,0.1,10.7,1.3,16c-1.3,0.5-1.3,1.6-1.4,2.8
		c-0.5,5.9-1.5,11.7-1.6,17.6c-0.1,4.3-2.3,8.6-0.3,12.9c0,0.8-0.1,1.6-0.1,2.4c-2.6,2.7-1.6,5.7-0.8,8.6c-0.6,3.5,0,7.2-2.6,10.2
		c-1.9,0.5-1.7,2.3-1.8,3.4c-0.5,8.7-1.5,17.4-1.4,26.1c0,1.6,2.1,2.7,1.2,4.3c-2,3-0.9,6.3-1.1,9.5c-0.1,1.1-0.5,3,1.2,3.1
		c1.8,0,0.9-2,1.4-3c1.4-2.7-0.7-6.8,3.3-8.5c0,1.7,0,3.4,0,5.1c-0.2,5.2-1.3,10.4,1.1,15.5c0-4.4,2-8.6,1.6-12.8
		c-0.2-2.5,2.9-4.5,0.6-6.9c0-0.6,0-1.1,0-1.7c1.6,0.4,4.7,4,3.6-1.6c-0.1-0.4,0.2-0.8,0.4-1.2c2-7.6,5-15.1,4.6-23.8
		c2.7,2.3,3.4,5.2,2.4,7.1c-2.3,4.3,0,8.8-1.8,13.5c-1.6,4.2-2.3,9.4-2.3,14.3c0,2.4-0.8,3.8-3.4,3.7c-0.2-0.9-0.4-1.7-1.6-1.4
		c-0.2,0-0.5,0.4-0.5,0.5c0.3,1.2,1.3,0.7,2,0.9c-2.1,1.6-1.7,3.9-2,6.1c-0.9,5.7-2.7,11.2-3.3,17.1c-0.3,2.8,0.6,5.8-0.5,8.2
		c-1.5,3.1-0.6,6-1.2,9.6c1.6-1.3,0.4-2.8,1.9-3.5c-0.3,10.7,1.9,21.1,0.9,31.7c-0.2,1.8-0.1,4.3,2.2,4.4c2.6,0.1,2.1-2.5,2.1-4.2
		c0-4.6,0.8-9,4.2-12.4c0.1,1.2,0.2,2.3,0.4,3.5c0.4,6.2-2.3,12.5-0.1,18.7c-6.8,2-13.9,3.7-16.1,12c-0.1,0.4-0.9,0.6-1.4,0.8
		c-3-3.2-2.7-7.5-4-11.3c1.5-2.1,0.6-4.3,0.5-6.5c-0.5-7.4-1.1-14.7-1.3-22.1c-0.2-6.9-0.5-13.8-1.5-20.6c-0.1-1.7-0.1-3.4-0.2-5.1
		c0-1.1-0.1-2.3-0.1-3.4c0-0.6,0-1.2,0-1.8c0.1-0.3,0.1-0.5,0-0.8c0.1-16.4,0.1-32.8,0.2-49.2C263,118.8,263.3,118.5,263.5,118.2z"
		/>
	<path class="st1" d="M272.7,102c2.7-2.9,2-6.7,2.6-10.2c1.8-2.7,0.8-5.7,0.8-8.6c0-0.8,0.1-1.6,0.1-2.4c2.9-10.9,4.3-22,3.3-33.3
		c-1.2-5.3-0.1-10.7-1.3-16c-2.1-9.5-1-19.5-4.2-28.9c-0.3-0.8-0.1-1.7-0.1-2.5c4.8,0,9.6,0,14.5,0c0.3,3.2,0.2,6.5,0.4,9.7
		c0.3,4.7,0,9.6-1,14.2c-1.3,5.9-0.9,12.1-2.7,17.9c-0.3,0.9-0.1,2,0.1,2.9c1.1,4.5,1.1,8.9-0.4,13.3c-1.9,5.6-2.9,11.3-3.3,17.3
		c-0.3,4,1,7.1,3.8,10.2c3.2-8.7,3.1-17.7,5.9-26.2c0.9,0.7,1.2,1.9,2.4,1.9c-2,8.8-4,17.5-6,26.3c-4.6,0.2-4.5,4.9-4.5,6.9
		c0,8.7-4.5,16.2-5.7,24.5c-1.3-0.8-3.5-1-2.6-3.4c1.3-3.8-0.6-7.5-0.1-11.3C274.8,103,274.1,102.1,272.7,102z"/>
	<path class="st2" d="M184.4,0.9c0-0.3,0.1-0.6,0.1-0.8c0.3,0,0.6,0,0.9,0c0.2,5.8-2.7,10.4-5.9,14.9c-2.7,3.7-5.5,7.4-7.4,11.5
		c-2,0-2,1.3-1.8,2.8c0,0.2,0,0.3,0,0.5c-2.3,0.5-1.7,2.3-1.7,3.8c0,0.1,0,0.3,0,0.4c-3.6,2.3-5.8,5.2-5,9.8c-0.2,3-1.9,5.4-2.9,8.2
		c-1.7,4.9-1.8,10.1-1.6,15.2c-3.6,11.8-4.7,24-5.1,36.3c-0.1,3.5,0.7,7,1.8,10.3c-0.1,3.1,0.9,6,1.4,9c1,7.3,5.1,13.9,5.3,21.5
		c0,0.6,0,1.2,0,1.8c-1.5,0.8,0,3.2-2.2,3.9c-0.2-4.2-5.5-4.3-6.3-8.3c-0.3-1.6-0.6-3.5-1.5-5.2c-4.8-9.2-4.4-19.2-3.2-28.9
		c0.9-7.2,3-14.3,2.2-21.7c-0.3-2.7,0.5-5.2,1.6-7.7c1.7-3.9,2.8-8.4,1.4-12.4c-1-2.9-0.8-5.4-0.3-8.1c1.6-8.3,3.5-16.5,8.4-23.7
		c0.5-0.8,0.4-1.3-0.4-1.7c0-0.8,0-1.7,0.1-2.5c0,0,0.2-0.3,0.2-0.3c3.3-0.3,2.7-3.1,3.4-5.1c0.1-0.1,0.3-0.3,0.5-0.4
		c7.5-3.1,9.1-11.2,14-16.4c0.8-1.7,2.4-3,2.6-5c0,0,0,0,0,0C183.7,2.3,184.2,1.8,184.4,0.9z"/>
	<path class="st3" d="M293.5,61.3c-1.2,0-1.5-1.1-2.4-1.9c-2.8,8.5-2.6,17.5-5.9,26.2c-2.8-3.1-4.1-6.2-3.8-10.2
		c0.4-5.9,1.4-11.6,3.3-17.3c1.5-4.4,1.5-8.8,0.4-13.3c-0.2-0.9-0.4-2.1-0.1-2.9c1.8-5.8,1.4-12,2.7-17.9c1-4.6,1.3-9.5,1-14.2
		c-0.2-3.2-0.1-6.5-0.4-9.7c2.6,0,5.1,0,7.7,0c0,4.1,0,8.1,0,13.2c2.4-2.3,0.8-5,3.3-5.6c-0.1,2.6,0.8,5.2-0.6,7.7
		c-2.5,0.8-2.7,4-0.3,6.6c-0.9,7.6-3.3,15-3.4,22.7c1.4,0.6,2.3-0.5,3.4-0.5C298,50.3,295.7,55.7,293.5,61.3z"/>
	<path class="st0" d="M440.5,0.1c0.4,1.6-1,1.8-1.9,2.3c-7.2,3.9-14.2,8.4-22,11.3c-3.7,1.3-6.2,4.2-9.3,6.4c-2.5-0.7-2.5-4-4.9-4.9
		c-0.5-2-2.6-2.5-3.5-4.1c1.1-1.5,3.5-1.5,4.3-3.5c0.5-0.1,1-0.2,1.5-0.2c4.2,1.5,3.5-1.6,3.6-3.9c2.4-1.4,5.6-1.1,7.6-3.5
		C424,0.1,432.2,0.1,440.5,0.1z"/>
	<path class="st0" d="M293.5,61.3c2.2-5.5,4.6-11,4.9-17.1c0.1-1,0-2,0.2-2.9c2.3-13.3,4.1-26.7,4-40.3c0.1-0.3,0.1-0.6,0.2-0.9
		c1.1,0,2.3,0,3.4,0c-0.2,4.2,0.5,8.5-0.8,12.6c-1.1,0.9-1.1,1.8-0.1,2.7c-0.2,2.2-0.5,4.4-0.7,6.6c-0.8,0.5-1,1.1-0.1,1.8
		c0,1.4-0.1,2.7-0.1,4.1c-3,2.5-0.9,5.9-1.4,8.8c-0.1,4.2-0.2,8.4-0.3,12.5c-1.6,3.8-1.4,8.2-3.5,12c-0.9-0.6-0.4-2-1.4-2.1
		c-1-0.1-1.2,1-1.6,1.8c-2.5,5.5-2,11.7-4.4,17.3c-1.7,3.8-0.4,8.8-4.2,11.8c0-0.9,0-1.7,0-2.6C289.5,78.8,291.5,70,293.5,61.3z"/>
	<path class="st4" d="M302.5,1c0.1,13.6-1.6,26.9-4,40.3c-0.2,1-0.1,2-0.2,2.9c-1.1,0-2,1.1-3.4,0.5c0.1-7.7,2.5-15.1,3.4-22.7
		c0.1-2.2,0.2-4.4,0.3-6.7c1.4-2.5,0.5-5.1,0.6-7.7c0-2.5,0.1-5.1,0.1-7.6c0.9,0,1.7,0,2.6,0C302.1,0.4,302.3,0.7,302.5,1z"/>
	<path class="st4" d="M385.2,0.1c4.1,3.1,7.3,7.5,12.3,9.4c0.2,0.8,0.4,1.5,1.3,1.7c0.9,1.6,3.1,2.1,3.5,4.1c0,0-0.1,0.1-0.1,0.1
		c-2.8-0.1-3.9-3.8-7-3.1c-0.5-0.4-1.1-0.7-1.6-1.1c-0.1-0.3-0.1-0.7-0.2-1c-0.2,0.1-0.4,0.2-0.6,0.4c-0.8-0.4-1.6-0.8-2.5-1.2
		c-1.1-2.9-3.2-5-5.8-6.6c-0.3-0.9-0.7-1.7-1-2.6C384.1,0.1,384.6,0.1,385.2,0.1z"/>
	<path class="st1" d="M299.3,0.1c0,2.5-0.1,5.1-0.1,7.6c-2.6,0.6-0.9,3.3-3.3,5.6c0-5.1,0-9.2,0-13.2C297.1,0.1,298.2,0.1,299.3,0.1
		z"/>
	<path class="st5" d="M0.1,737.2c1.8,0.1,3.7,0.2,4.3,2.5c-0.6,0.3-1.1,0.6-1.7,1c-0.9,0-1.7,0-2.6,0C0.1,739.5,0.1,738.4,0.1,737.2
		z"/>
	<path class="st3" d="M302.5,1c-0.2-0.3-0.4-0.6-0.6-0.9c0.3,0,0.6,0,0.9,0C302.7,0.4,302.6,0.7,302.5,1z"/>
	<path class="st4" d="M217.7,581c-4.8-4.1-6.7-9.9-9.4-15.3c-2-3.8-3.8-7.8-6.7-11.1c0-0.6,0-1.2,0.1-1.8c3.4,0.5,5.1,3,6.7,5.7
		c0.4,0.7,0.7,1.8,1.6,1.6c1.4-0.2,1-1.5,0.9-2.4c-0.1-0.9-0.5-1.8-0.9-2.7c-1-2.4-1.3-4.8,0.1-7.1c1.1,0.1,2.1,0.8,2.1,1.8
		c0,4.9,4.4,7.8,5.4,12.4c0.3,1.5,3.1,3.6,5.5,3.4c2.4-0.2,1.3-2.7,1.6-4.2c0.2-0.8,0-1.9,1.1-2c1.5-0.2,1.2,1.1,1.5,2
		c0.8,2.4,1.7,4.7,2.6,7c0.6,2.4,1,4.9,1.8,7.3c0.8,2.3,2.1,4.3,4.9,4.6c-0.2,1.7,0.8,2.8,1.9,4c3.5,4,7.2,8,10.1,12.3
		c7.6,11,17.3,20,25.5,30.4c2.7,3.8,5.1,8,8.4,11.4c5.6,5.7,9.7,12.7,16.3,17.5c1.4,4.2,5.4,5.9,8.4,8.6c0.1,1.1,0.7,1.6,1.8,1.6
		c0.1,0.2,0.1,0.5,0.2,0.7c-0.5,1.5,1.6,3.1-0.2,4.8c-2.4-2.2-5-4.2-8-5.6c-3-3-6.7-4.7-10.6-5.9c-2.5-2.5-2.6-6.6-5.8-8.9
		c-3.7-2.6-3.6-2.9-4.4,1.4c-0.5-0.2-1.2-0.3-1.5-0.7c-6.8-8.4-13.5-16.8-20.3-25.2c-4.3-5.3-7.8-11.4-13.2-15.8
		c0.1-0.8,0-1.4-0.8-1.8c-0.1-0.9-0.7-1.5-1.6-1.8c-2.1-4.7-5.9-8.3-9-12.2c-4-5-7.8-10.2-12.7-14.4
		C218.9,579.1,218.6,580.4,217.7,581z"/>
	<path class="st3" d="M210,547.8c-1.4,2.4-1.1,4.7-0.1,7.1c0.4,0.9,0.8,1.8,0.9,2.7c0.1,0.9,0.5,2.2-0.9,2.4c-1,0.2-1.2-0.9-1.6-1.6
		c-1.5-2.7-3.2-5.2-6.7-5.7c-0.7-1.7-0.7-3.9-2.6-5c0,0,0,0,0,0c0-1.1-0.6-1.6-1.6-1.9c-3.1-3.3-4.7-7.6-7.5-11.2
		c-4.9-6.3-10.6-11.3-19.1-11.7c-1,0-1.9-0.5-2.9-0.7c-0.7-0.2-1.9,0-1.5-1.3c0.3-1,1.3-1.2,2.1-0.8c3.2,1.8,6.8,0.5,10,1.4
		c0.1,0.3,0.1,0.7,0.3,0.8c6.3,4.2,12.3,8.8,16.2,15.5c0.4,0.6,1.1,0.9,2.1,0.7c0.2-3-1.4-5.2-3.2-7.4c-0.7-0.9-2.4-1.6-0.8-3
		c0.5,0.1,1.1,0.1,1.6,0.2c1.2,3.5,4.7,5,6.5,8c0.7,1.3,1.3,2.5,3,2.1c0.6-1.4,1.1-2.8,1.7-4.2c2.8,0.7,0.6,4,2.5,5.2
		C209.4,542.1,210,544.9,210,547.8z"/>
	<path class="st4" d="M193.1,528.2c-1.6,1.5,0,2.1,0.8,3c1.8,2.2,3.4,4.4,3.2,7.4c-1,0.2-1.7-0.1-2.1-0.7
		c-3.9-6.8-9.9-11.3-16.2-15.5c-0.2-0.1-0.2-0.5-0.3-0.8c0.3,0,0.6,0,0.8-0.1C186.5,518.5,189.8,523.4,193.1,528.2z"/>
	<path class="st4" d="M204.2,538.4c-1.8,0.3-2.3-0.8-3-2.1c-1.7-3-5.3-4.5-6.5-8c1.8-2.3,3.6-2,4.8,0.4
		C201.2,531.9,203.5,534.8,204.2,538.4z"/>
	<path class="st1" d="M208.4,539.3c-1.9-1.2,0.4-4.4-2.5-5.2c-0.1-2.1,0.4-4.1,1.4-6c0.3-0.3,0.5-0.7,0.8-1c0.5-1.6,1.1-3.1,3.2-3.6
		c0.1,3.3-2.3,5.9-2.1,9c0,0.2-0.1,0.5,0,0.7C208.9,535.3,208.6,537.3,208.4,539.3z"/>
	<path class="st3" d="M209.1,533.3c0-0.2,0-0.5,0-0.7C209.8,532.9,209.9,533.1,209.1,533.3z"/>
	<path class="st3" d="M208.1,527.2c-0.3,0.3-0.5,0.7-0.8,1C207.6,527.8,207.8,527.5,208.1,527.2z"/>
	<path class="st0" d="M304.2,578.6c0.5-3.9-0.5-7.6-1.4-11.3c-1.1-9.9-2.9-19.5-8.5-28c-0.1-0.8-0.2-1.7-0.3-2.5
		c-1.9-4.8-3.8-9.6-5.7-14.5c-1-4-1.5-8.2-3.6-11.9c0.1-1.6-0.6-3-1.5-4.3c-0.4-1.7-0.7-3.4-1.1-5.1c-0.2-0.3-0.4-0.6-0.7-0.9
		c0.2-2.8-1.7-4.9-2.2-7.5c-0.1-0.8-0.4-1.4-1.1-1.8c-0.1-0.6-0.2-1.1-0.2-1.7c0.8-2.3-1-4-1.6-5.9c-2.6-8.4-3.8-17-5.1-25.6
		c-1.5-9.6-0.7-19.3-2.6-28.8c0-0.8,0-1.7,0-2.5c0-0.8-0.1-1.7-0.1-2.5c-0.4-4-0.8-7.9-1.2-11.9c1.7-1.3,3-0.5,3.8,0.9
		c3.4,6,6.5,11.9,7.2,19.1c0.8,8.7,1.6,17.6,5.2,25.8c2.9,6.8,5.3,13.7,7.4,20.8c1.5,4.8,3.9,8.8,9.8,8.7c2.7,0.3,2-1.4,1.7-2.9
		c-0.3-1.1-1.2-2.5,1-2.7c0.1,1.4,1.1,2.2,1.9,3.2c0,0.7,0.2,1.3,0.9,1.7c3.2,5.7,3.3,12.6,7.5,17.9c0.1,1.4,0.2,2.8,0.2,4.2
		c-1.5,1.3-1.1,2.1,0.7,2.6c0.3,2,0.5,4,0.8,6c0.3,6.6,1.2,13.3,0.8,19.8c-0.6,10.1,1.5,20.1,0,30.2c-0.9,5.7,2.7,11.6,5,17.1
		c2.1,5.1,4.7,10.1,5.6,15.7c0.3,1.7,0.8,3.7,3.6,3.1c2.7-0.6,3.3,0.9,2.6,3.2c-1.1,3.6,1,6.9,0.6,10.5c-0.1,0.8,0.5,1.7,1.5,1.7
		c1,0,1.4-0.8,1.6-1.7c0.1-0.8,0.2-1.7,0-2.5c-2.9-12.8-2.6-26.2-7.2-38.8c-1.7-4.7-2.4-10.3-3.3-15.5c-2.3-12.4-3.8-25-3.8-37.7
		c0-1-0.5-2.3,1-3.1c2.7,2.3,2.9,5.6,3.2,8.8c0.4,4.5,0.3,9.1,1.4,13.4c1.5,5.9,2.2,12,3.4,17.9c1.9,9.5,2.7,19.2,4.6,28.7
		c0.2,0.8,0.7,1.1,1.5,1.3c0,0.5,0,1.1,0,1.6c-1.7,3.1-0.3,5.8,1,8.5c0,1.1,0.1,2.2,0.1,3.3c-0.2,2.7-1,5.6,1.6,7.8
		c0,0.8,0.1,1.6,0.1,2.4c-0.2,1.5-0.7,3,1.3,3.6c0,0.8,0,1.7,0.1,2.5c-0.9,3.9-0.8,7.7,1.6,11.1c0,0.5,0.1,1.1,0.1,1.6
		c-1.2,2.3-1.4,4.6,0.2,6.8c0,0.8,0.1,1.6,0.1,2.4c-0.3,1.1,0.2,1.7,1.3,1.9c0,0.5,0.1,1.1,0.1,1.6c-1.7,6.9,0.7,13.3,2.7,19.8
		c0.1,0.3,1,0.4,1.5,0.6c0,0.6,0,1.1,0,1.7c-1.3,3.1-1.7,6.3-1.1,10c1.9-1.2,0.8-3.1,2-4c-0.4,7.1,1.9,14,1.9,21.1
		c0.1,1.6-1.1,3.6,1.5,4.3c0.3,1.1,0.5,2.3,0.8,3.4c-1.1,2.9-1.7,5.7,1.6,7.7c0,0.8,0.1,1.6,0.1,2.5c-1,2-0.2,3.3,1.5,4.4
		c0,1.1,0.1,2.2,0.1,3.3c-1.4,2.2-0.7,3.6,1.6,4.4c0.6,5.7,1.7,11.4,3.8,16.7c-0.2,1.1,0.4,1.7,1.4,1.9c0,0.5,0.1,1.1,0.1,1.6
		c-1.2,1.4-1.2,2.3,0.9,2.3c0,0,0.1,0.1,0.1,0.1c-0.5,2.2,0.8,3.6,1.8,5.3c1.7,2.8,3.1,5.7,4.6,8.6c-1.2,0.1-1.9-0.3-2.7-1.3
		c-2-2.6-4.2-5.1-6.3-7.6c-1.1-2.3-2.9-3.9-4.8-5.5c-2.3-2.5-3.2-6.1-6.3-7.9c-0.5-3.5-4.2-5.1-4.9-8.4c-1-1.7-2-3.4-3-5.1
		c-3.2-4-4.8-8.8-6.8-13.4c-0.1-3.8-1.5-7.2-3.8-10.3c-2.1-4.8-3-9.8-4-14.9c-0.5-2.4,0.6-5.5-2.1-7.3c-2.5-9-3.4-18.4-6.2-27.3
		c-2.3-7.6-4.4-15.2-6.6-22.8c-2.1-9.9-4.2-19.7-6.4-29.6C306.8,592.2,306.4,585.2,304.2,578.6z"/>
	<path class="st2" d="M370.9,615.8c0.7,3,1.4,6,2.1,9c-1.3,0.9-2.4,2.1-3.8,2.6c-1.8,0.5-4.2,1.1-4.3-2.1c-0.1-4.3-3.5-7.7-3.7-12
		c0-0.9-0.8-1.5-1.8-1.5c-1.2,0-1.9,0.7-2,1.8c-0.2,2-0.3,4,0,5.9c0.3,2,1,3.8-1.2,5.2c-1,0.7-0.3,1.8,0.1,2.7c1.5,4,4.7,7.5,3,12.3
		c-0.2,0.7,0.5,2.4,1.1,2.6c2.7,0.8,5.6,1.2,2.4,4.9c-0.1,0.1,0.4,1.2,0.8,1.3c2.7,0.9,2.3,2.2,1,4.1c-0.7,1-0.9,2.3,0.2,3.4
		c1.5,0,0.5-2.3,2.1-2.2c0,3.3,0,3.5-1.4,5.3c-1.4,1.8-0.2,9.3,2,10c2.4,0.8,2.9,1.9,2,4c-0.5,1.3,0.3,2.5,0.6,3.7
		c1.1,5.3,2.4,10.7,3.1,16.1c1,8.5,5.3,15.5,8,23.3c0.4,1.1,1.2,2.2,0,3c-1.4,0.9-2.4,0-3-1.3c-0.8-1.7-2.1-3-3.5-4.2
		c-5.3-4.5-6.2-11-8.2-17.1c-2.5-7.7,0.7-16.2-4-23.4c-0.3-0.4-0.3-1.3,0-1.6c2.1-2.7,0.2-4.4-1.5-5.9c-1.1-1-0.5-3.2-2.2-3.2
		c-3.8-0.2-3.8-0.1-4.1-3.8c-0.3-3.8,2.5-7.7-0.7-11.4c-0.3-0.3-0.1-1.5,0.3-2c1.6-1.8,0.7-3.7,0.5-5.6c-0.9-8.3-4.5-15.9-5.2-24.2
		c-1-13.2-3.8-26.1-6.2-39.1c-1.6-8.7-2.8-17.4-3.9-26.1c-0.3-2.2-0.8-4.2-1.6-6.3c-1.4-3.7-2.3-7.9-1.8-12.1
		c2.7,2.8,2.3,6.7,3.9,9.9c1.8,3.7,5.3,6.2,6.3,10.3c1.8,6.6,4.2,13.1,5.3,19.9c0.9,5.1,2.9,9.5,5.5,13.8c0.5,0.8,0.3,2.3,1.8,1.4
		c0.9-0.6,1.1-1.9,0.5-2.6c-1.2-1.5-1.5-3.3-2-5c-2.5-9-5-18-7.8-26.9c-2.7-8.6-5.9-17.1-7.3-26.1c3,2.9,3,7.3,5.1,10.7
		c-0.1,1,0.2,1.8,0.9,2.6c2.1,6.2,3.5,12.6,6.3,18.6c1.1,3.1,0.7,6.5,2.6,9.3c-0.3,2.3,1.5,3.9,1.9,5.9c2.1,7.7,4,15.5,6.4,23.2
		C367.3,602.9,368.1,609.6,370.9,615.8z"/>
	<path class="st6" d="M569.3,563c-0.2,0.2-0.3,0.3-0.5,0.5c-0.1-0.2-0.3-0.4-0.4-0.6c0-0.1,0.2-0.3,0.2-0.3
		C568.9,562.8,569.1,562.9,569.3,563z"/>
	<path class="st2" d="M313.7,504.5c-4.1-5.3-4.3-12.2-7.5-17.9c2.8,0.7,5.7,1.9,7.4-1.7c0.5-2,1.3-4,1-6.2
		c-1.1-7.2,2.7-13.4,3.6-20.2c0.1-0.6,0.7-1.3,1.6-0.6c2.6,10.2,5.2,20.4,7.8,30.6c0.8,5.6,2.8,10.8,4.8,16c0,0.4,0.1,0.7,0.1,1.1
		c0.3,0.5,0.6,1,0.9,1.4c-2,3.2-3.6,0.8-5-0.5c-1.4-1.3-3.4-1.1-3,0.4c0.5,2.3-1.2,6.5,3.7,6.5c1.2,0,2.5,1.2,2.1,2.2
		c-1,2.7,1.1,4.6,1.2,6.9c-0.8,0.8-0.8,1.8-0.7,2.8c0.3,7.3,0.2,14.7,1.1,22c0.4,3.6,0.4,7.3,1,10.9c1.7,10.4,3.2,20.9,3.7,31.4
		c-0.7-0.2-1.3-0.5-1.5-1.3c-2-9.5-2.8-19.2-4.6-28.7c-1.2-6-1.9-12-3.4-17.9c-1.1-4.3-1-8.9-1.4-13.4c-0.3-3.2-0.5-6.4-3.2-8.8
		c-1.5,0.8-1,2-1,3.1c0.1,12.7,1.5,25.3,3.8,37.7c1,5.2,1.6,10.7,3.3,15.5c4.6,12.7,4.2,26,7.2,38.8c0.2,0.8,0.1,1.7,0,2.5
		c-0.1,0.9-0.5,1.7-1.6,1.7c-1,0-1.6-0.8-1.5-1.7c0.3-3.5-1.7-6.9-0.6-10.5c0.7-2.3,0.1-3.8-2.6-3.2c-2.8,0.6-3.3-1.4-3.6-3.1
		c-0.9-5.6-3.5-10.5-5.6-15.7c-2.3-5.6-5.8-11.4-5-17.1c1.5-10.2-0.6-20.2,0-30.2c0.4-6.6-0.5-13.2-0.8-19.8c3.3-0.5,1.8-3.8,3-5.2
		c4.5-5.2,1.1-9.9,0-15.4C316,499.5,317.3,503.5,313.7,504.5z"/>
	<path class="st0" d="M332.4,522.5c-0.1-2.3-2.2-4.2-1.2-6.9c0.4-1-0.9-2.2-2.1-2.2c-4.9,0-3.2-4.2-3.7-6.5c-0.3-1.5,1.6-1.7,3-0.4
		c1.4,1.3,3,3.7,5,0.5c2.1,1.1,0.5,4,2.5,5.2c-0.1,1.2-0.1,2.3,1.4,2.5c0.8,4.2,4.9,7,4.8,11.5c1.5,9,4.6,17.5,7.3,26.1
		c2.8,8.9,5.2,17.9,7.8,26.9c0.5,1.7,0.8,3.5,2,5c0.6,0.8,0.4,2.1-0.5,2.6c-1.5,0.9-1.3-0.7-1.8-1.4c-2.6-4.3-4.6-8.6-5.5-13.8
		c-1.1-6.7-3.6-13.2-5.3-19.9c-1.1-4.1-4.6-6.6-6.3-10.3c-1.5-3.2-1.2-7.2-3.9-9.9C334.8,528.6,333.6,525.5,332.4,522.5z"/>
	<path class="st7" d="M424.1,421.8c-0.1,0.7-0.6,1-1.2,0.9c-0.7,0-0.9-0.6-0.9-1.2c0-0.7,0.6-0.9,1.2-0.9
		C423.9,420.8,424,421.3,424.1,421.8z"/>
	<path class="st2" d="M337.3,514.8c-1.5-0.2-1.5-1.4-1.4-2.5C337.9,512.2,337.6,513.5,337.3,514.8z"/>
	<path class="st0" d="M332.5,505.6c0-0.4-0.1-0.7-0.1-1.1C333.3,504.7,333.3,505.1,332.5,505.6z"/>
	<path class="st1" d="M332.4,522.5c1.2,3.1,2.4,6.2,3.5,9.2c-0.6,4.2,0.3,8.3,1.8,12.1c0.8,2.1,1.3,4.1,1.6,6.3
		c1.2,8.7,2.4,17.5,3.9,26.1c2.4,13,5.2,25.9,6.2,39.1c0.6,8.3,4.3,16,5.2,24.2c0.2,1.9,1.1,3.8-0.5,5.6c-0.4,0.4-0.6,1.7-0.3,2
		c3.2,3.6,0.4,7.6,0.7,11.4c0.3,3.7,0.2,3.6,4.1,3.8c1.7,0.1,1.1,2.3,2.2,3.2c1.7,1.5,3.7,3.2,1.5,5.9c-0.3,0.3-0.3,1.2,0,1.6
		c4.7,7.2,1.5,15.7,4,23.4c2,6.1,2.9,12.6,8.2,17.1c1.4,1.2,2.7,2.5,3.5,4.2c0.6,1.3,1.6,2.2,3,1.3c1.2-0.8,0.4-1.8,0-3
		c-2.7-7.7-6.9-14.8-8-23.3c-0.7-5.3-1.9-10.7-3.1-16.1c-0.3-1.2-1.1-2.4-0.6-3.7c0.9-2.1,0.4-3.2-2-4c-2.2-0.7-3.4-8.1-2-10
		c1.3-1.7,1.4-1.9,1.4-5.3c-1.6-0.1-0.6,2.1-2.1,2.2c-1.1-1-0.8-2.4-0.2-3.4c1.3-1.9,1.6-3.3-1-4.1c-0.4-0.1-0.9-1.2-0.8-1.3
		c3.2-3.7,0.3-4.1-2.4-4.9c-0.6-0.2-1.3-1.9-1.1-2.6c1.8-4.8-1.5-8.3-3-12.3c-0.3-0.9-1.1-2-0.1-2.7c2.2-1.5,1.5-3.2,1.2-5.2
		c-0.3-1.9-0.1-3.9,0-5.9c0.1-1.1,0.8-1.8,2-1.8c1,0,1.8,0.6,1.8,1.5c0.2,4.3,3.5,7.7,3.7,12c0.1,3.2,2.5,2.7,4.3,2.1
		c1.4-0.4,2.6-1.7,3.8-2.6c3.2,6,3.1,13.1,6.7,19c1.8,7.3,4.5,14.2,7.3,21.2c3.6,9.4,7.4,18.7,11.2,28c0.2,0.4,0.4,0.8,0.6,1.1
		c-0.6,3.8,2.4,6.6,3.1,10c1.8,9.9,5.5,19.1,10.2,28c2.7,6.4,6.6,12.1,10.4,17.9c0.6,0.9,1.5,1.6,2.7,1.7c0.2,4,1.3,7.5,5.9,8.6
		c1,0.2,0.9,1.3,0.9,2.1c-16.4,0-32.9,0-49.3,0c-0.3-2.2-2.6-2.9-3.7-4.6c-3.3-4.7-6.5-10.1-13-11.5c0,0-0.1-0.1-0.1-0.1
		c-0.1-0.9-0.1-1.7-0.9-2.3c0-0.5-0.1-1.1-0.1-1.6c0.1-1-0.4-1.6-1.4-1.9c-2.2-5.4-3.3-11-3.8-16.7c0.4-1.8-0.1-3.3-1.6-4.4
		c0-1.1-0.1-2.2-0.1-3.3c0.4-1.8-0.1-3.2-1.5-4.4c0-0.8-0.1-1.6-0.1-2.5c0.4-2.8-0.1-5.4-1.6-7.7c-0.3-1.1-0.5-2.3-0.8-3.4
		c-0.1-1.6,0.8-3.5-1.5-4.3c0-7.1-2.3-14-1.9-21.1c1.6-2.3,0.2-4.1-0.9-6c0-0.6,0-1.1,0-1.7c0.8-7.3-1-14-4.2-20.4
		c0-0.5-0.1-1.1-0.1-1.6c0.2-1-0.3-1.6-1.3-1.9c0-0.8-0.1-1.6-0.1-2.4c1.1-2.3,1.2-4.6-0.2-6.8c0-0.5-0.1-1.1-0.1-1.6
		c0.4-3.8-0.1-7.5-1.6-11.1c0-0.8,0-1.7-0.1-2.5c0.1-1.4,0.5-2.9-1.3-3.6c0-0.8-0.1-1.6-0.1-2.4c0.4-2.8,0.8-5.6-1.6-7.8
		c0-1.1-0.1-2.2-0.1-3.3c1.6-3.1,0-5.7-1-8.5c0-0.5,0-1.1,0-1.6c-0.5-10.6-2-21-3.7-31.4c-0.6-3.6-0.6-7.3-1-10.9
		c-0.9-7.3-0.8-14.6-1.1-22C331.6,524.2,331.6,523.2,332.4,522.5z M417.5,760.2c0.6,0,1.1,0.1,1.7,0c1-0.2,2.7,0.5,2.8-1
		c0.1-1.7-1.7-1.5-2.9-1.6c-1.5-0.1-3.9,0.5-4.3-1c-1.1-5-5.7-6.3-8.9-9c-2.8-2.4-4.5-6.5-7.9-7.3c-3.5-0.9-5.5-3.2-7.8-5.3
		c-1.4-1.3-2.3-3.2-3.7-4.4c-6-5.1-11.8-10.4-16.4-16.8c-0.5-0.7-0.8-1.7-1.8-1.5c-1.1,0.2-1,1.3-0.9,2.1c0.1,2.1-0.1,4.2,0.6,6.3
		c1.3,3.9,2.8,7.7,3.5,11.7c1,6,2,11.8,6.2,16.6c0.5,0.6,0.7,1.6,0.7,2.4c0,2.9,1.5,5.2,4,4.9c1.6-0.2,4.1-2.2,2.9-5.3
		c-0.3-0.7,0.3-2.3,0.7-1.9c1.4,1.4,4.1,0,5,2.5c0.5,1.5,1.7,2.4,3.1,3.2C401.3,759.1,409.4,759.6,417.5,760.2z"/>
	<path class="st8" d="M398.9,693.2c0,0.3-0.1,0.6-0.1,0.9c-0.2-0.4-0.4-0.8-0.6-1.1C398.4,693,398.6,693.1,398.9,693.2z"/>
	<path class="st3" d="M300.7,487.3c-5.9,0.1-8.4-3.9-9.8-8.7c-2.2-7-4.5-14-7.4-20.8c-3.5-8.3-4.4-17.1-5.2-25.8
		c-0.7-7.2-3.8-13.1-7.2-19.1c-0.8-1.4-2.2-2.2-3.8-0.9c-0.1-1.7-0.2-3.5-0.3-5.2c-1.7-5.1-5.4-9.6-4.9-15.4c1-0.7,1-1.5,0.1-2.4
		c0.2-2,0.5-4,0.7-5.9c0.5-0.1,1.2-0.2,1.2-0.9c0-0.7-0.6-0.8-1.2-0.9c0.4-2.6-1.1-5-1.1-7.6c-0.3-0.6-0.7-1.2-1-1.8
		c0.1-0.3,0.3-0.6,0.4-1c3,2.5,6.5,4.7,6.7,9.2c0.1,1.5,0.6,2.7,1.7,3.7c-2.7,6.3,0.2,11.8,3.3,16.8c1.7,2.9,2.3,6,3.1,8.9
		c1.5,5.4,1.6,11.3,8,14.2c0.1-1.7,0.2-3.3,0.3-4.9c0.8,4.5,3.8,8.4,3.3,13.2c-0.4,3.8-2.6,7.2-2.4,11.2c-1,4.5,1.1,8.3,2,12.1
		c2.1,0.6,0.4-3.5,3-1.7c-1.2,5.2,1.3,10,2,14.9c0.6,3.8,2.1,8.3,6.3,10.6C298.3,482.1,298.6,485,300.7,487.3z"/>
	<path class="st3" d="M319.9,457.8c-0.9-0.6-1.5,0-1.6,0.6c-0.9,6.8-4.7,13.1-3.6,20.2c0.3,2.2-0.5,4.2-1,6.2
		c-2.8,1.3-5.5,1.2-8.3,0.1c-0.8-1-1.8-1.8-1.9-3.2c-0.6-2.6,2-5.1,0.4-7.8c-2.6,1-0.6,5.6-4.6,5.1c1.9-10.9,0.2-21.6-0.8-32.4
		c-0.2-2.5-1.3-2.8-3.3-2.1c-0.9-4,3.4-8.6,8.4-8.8c1.1-1.6,1.8-2.4,4.1-1.1c4.3,2.5,7.1,6,9.4,11.6c0.6-6.6,0.3-11.8-3.2-16.3
		c-0.7-1.6-0.6-3.3-0.8-5c-0.6-4.9,0.3-9.9-2.2-14.7c-1.3-2.7-2.8-6.3,0.1-9.3c1.8-0.9,2.1-2.5,2.1-4.3l0,0c3-0.3,5.3-2.4,8-3.4
		c2,0.3,5.5-2.1,5.6-3.9c0-0.1-0.5-0.2-0.8-0.3c0.9-1.6,1.5-3.5,2.8-4.6c2-1.8,1.6-4.3,2.6-6.2c1.9-3.9-2.7-2.6-2.9-4.6
		c0-1.4-0.1-2.7-0.1-4.1c0.1-0.8,0-1.4-0.7-1.9c-0.3-2.8-0.6-5.6-1-8.4c0-0.6,0-1.3,0.1-1.9c0.1-3.1-0.2-6.2,1-9.2
		c1.3-0.1,2.3-0.6,3.4-1.4c5.2-3.8,8-3,10.1,2.7c0.1,0.4,0.3,0.8,0.4,1.2c0.6,1.1,1,2.5,2.6,2.3c1.3-0.2,1.4-1.5,1.9-2.5
		c1.6-2.9,0.9-6.6,3.4-9.2c2.2,4.4,0.1,8.2-1.6,12c-0.7,1.5-0.7,2.8,0.6,3.7c1.6,1.1,2.7-0.1,3.4-1.4c1.5-3,3.9-5.6,3.8-9.3
		c1.1,0,2.1,0.1,3.2,0.1c0,2.1-1.9,3.7-1.7,5.8c-2.9,4.4-7.1,7.2-11.6,9.7c-4.4,2.5-5.2,7.5-6.1,12c-1.3,6.9-2.3,13.8-2.7,20.8
		c-1.5,0.7-1.7,2-1.7,3.4c0,0,0,0,0,0c-6.2,4.7-9.3,11.4-10.2,18.8c-1.5,11.2-2.3,22.6-3.4,33.8c0,1.1,0,2.3-0.1,3.4
		c-0.2,1.1-0.5,2.3-0.7,3.4C320.3,457.8,320.1,457.8,319.9,457.8z M313.8,410.3L313.8,410.3c0.5,3.9,0.4,7.9,2.7,12.6
		c3.2-7,2.2-13.4,2.4-19.6c0.1-1.7,2.6-3.5,0.7-4.3c-1.6-0.7-2.7,2.2-4.3,3.2C312.5,404,311.9,407.1,313.8,410.3z M332.1,370.6
		c3-4.6,3.6-11.1,11.3-9.8c1,0.2,1.8-0.8,2.2-1.7c0.5-1.2-0.5-1.7-1.3-2.3c-1.7-1.3-3.6-2.4-4.8-4c-1.5-2-3.1-2-5.2-1.3
		c-3.6,1.2-5.2,3.7-5.3,7.3C329,363,331.6,366.6,332.1,370.6z M308.6,477.5c1.3-2.2,1.9-4,1.8-6c-0.2-4.7,0.2-9.3,1.4-13.8
		c0.5-2,0.4-4.2,0.2-6.3c-0.3-3-2.8-4.9-5.1-4.8c-2.2,0.1-1.6,3-1.7,4.9c0,4.5-0.2,9.1,0.1,13.6
		C305.7,469.2,306.5,473.3,308.6,477.5z"/>
	<path class="st1" d="M349.4,341.4c-2.5,2.5-1.7,6.3-3.4,9.2c-0.5,1-0.6,2.3-1.9,2.5c-1.6,0.2-2.1-1.2-2.6-2.3
		c-0.2-0.4-0.3-0.8-0.4-1.2c-2.1-5.7-4.9-6.5-10.1-2.7c-1.1,0.8-2.1,1.3-3.4,1.4c-0.1-1.7,0.4-3.8-2.5-3.4c-0.2-1.5,1.2-2.3,1.6-3.5
		c0.6-0.2,1.8-0.6,1.9-0.5c2.1,3.9,4.8,1.4,7.1,0.6c1.3-0.4,2.5-1.3,3.7-2c3.7-2.2,5.4-9.1,3.6-15.1c0-0.6,0-1.1,0-1.7
		c0.2-0.3,0.4-0.7,0.6-1c0.2-1.5-0.4-3.1,0.9-4.3c-0.1,6,1.5,11.8,1.2,17.8c2.1-6,1.3-12.2,1.2-18.3c0-1.2-0.7-2.4-2.2-2.8
		c0-3.1-1.3-5.6-3.7-7.5c-0.1-1.2-0.9-1.5-1.9-1.9c-4.5-1.7-8.1-3.8-7.7-9.7c0.1-2-0.9-4.8-3.9-5.4c-0.1-0.8-0.1-1.6-0.2-2.4
		c0.4-1.3-0.3-2.1-1.3-2.7c-1.1-8-3.4-15.8-7.4-23.6c2.3,0.4,4,0.9,4.1,2c0.5,4.9,4.2,6.5,7.8,8.5c2,1.1,4.8,0,5.1-2.2
		c0.5-4.6-0.9-8.5-3.7-12.1c0.3-3.7-1.7-6-4.9-7.5c-1.5-3.6-0.5-4.8,3.2-3.5c0.8,0.3,1.6,0.3,2.4,0.5c0.6,1.5,1.4,2.6,3.3,2.2
		c-0.3,1.8-2.8,3.1-1,5.3c1.6,1.9,3,1.7,5.1,0.5c1.1-0.7,2.7,0,1.6,2.3c-1.4,2.8-0.7,5,2.7,5.5c1.2,0.2,2.5,0.2,3.8,0.3
		c-0.1,0.9-0.2,1.8-0.2,2.7c-2.5-0.7-4.9,0.6-7.4,0.7c-1.7,0.1-2.5,1.9-2.4,3.4c0.1,2.1,2,1.5,3.2,1.5c0.8,0,1.7-0.2,2.5-0.2
		c0,0.9-0.1,1.8-0.1,2.8c-6.3,2.2-6.6,3.3-6.9,9.7c-0.3,5.9,3.7,8.7,7.1,12.1c0.8,0.8,1.3,2.5,2.9,1.8c1.5-0.6,1-2.1,1.1-3.3
		c0.2-4.1-0.8-8.4,0.7-12.4c0.5,4.7,1.2,9.3,1.6,14c0.2,3.1,1.2,5.3,4.5,6.2c1.2,0.3,2.1,1.3,2.5,2.6c-4.7,2.7-3.9,7.4-4.1,11.7
		c-2.5,4.9-2.3,6.1,1.2,7.5c0.1,1.1,0.3,2.2,0.4,3.3c0.1,2,1.1,1.9,2.5,1.2c1.3,6.2,3.6,12.3,1.7,18.7c-1.1,0-2.1-0.1-3.2-0.1
		c-0.9-4.6-2.5-8.9-5.4-12.6c-0.4-0.9-0.5-2.6-1.8-2c-1,0.4-0.6,1.8,0.2,2.7C349.2,336.9,349.5,339.1,349.4,341.4z M353.5,303.5
		c0-0.1,0-0.3-0.1-0.4c-1.2-1-2.7-1.6-4.3-1.4c-4.3,0.5-0.7,4.7-2.9,6.4c-0.4,0.3-0.4,1.8,0.5,2.2c1,0.5,1.5-0.5,1.8-1.3
		c0.8-2,1.6-3.9,4.1-4.3C353.2,304.6,353.5,304.1,353.5,303.5z"/>
	<path class="st2" d="M357.1,327.9c-1.4,0.8-2.4,0.8-2.5-1.2c-0.1-1.1-0.3-2.2-0.4-3.3c0.5-2.6,0.2-5.2-1.2-7.5
		c0.3-4.3-0.6-9,4.1-11.7c0.6,0.8,1.2,1.6,1.8,2.4c-0.1,1.9-0.1,3.9-0.2,5.8c-3,1.6-0.8,3.5-0.4,5.3c0,1.1,0,2.2,0,3.3
		C357.7,323.3,357,325.5,357.1,327.9z"/>
	<path class="st1" d="M163.5,43.7c-0.8-4.5,1.4-7.5,5-9.8C167.6,37.6,165.9,40.8,163.5,43.7z"/>
	<path class="st1" d="M168.5,33.5c-0.1-1.5-0.6-3.3,1.7-3.8C170.2,31.3,170.4,32.9,168.5,33.5z"/>
	<path class="st1" d="M170.2,29.3c-0.2-1.4-0.1-2.7,1.8-2.8C172,27.7,171.6,28.9,170.2,29.3z"/>
	<path class="st9" d="M262.7,168.3c0.1,0.3,0.1,0.5,0,0.8c-0.1-0.2-0.2-0.4-0.3-0.5C262.4,168.5,262.6,168.4,262.7,168.3z"/>
	<path class="st9" d="M263.5,118.2c-0.2,0.3-0.4,0.6-0.7,0.9C263,118.8,263.3,118.5,263.5,118.2z"/>
	<path class="st3" d="M358.6,312.4c0.1,1.8,0.2,3.5,0.3,5.3c-0.2,0-0.5,0-0.7,0C357.9,315.9,355.7,314,358.6,312.4z"/>
	<path class="st1" d="M245.7,616.6c-0.7-1.5-2-2.4-3.2-3.5c-0.3-0.6-0.7-1.1-1-1.7c0.3-1.4,0.5-2.9,0.8-4.3c0.9,0.3,1.5,0.8,1.6,1.8
		c-1.1,1.2-0.1,1.5,0.8,1.8c5.4,4.4,8.9,10.4,13.2,15.8c6.8,8.4,13.5,16.8,20.3,25.2c0.3,0.4,1,0.5,1.5,0.7c1.8,2.4,4.9,3.9,5.3,7.3
		c0,0-0.2,0.2-0.2,0.2c-1.5,2.8-1.3,4.8,2.1,6.3c2.6,1.1,4.7,3.1,3.8,6.6c-2.7-1.7-4.4-4.8-7.9-5.4c-3.1-2.7-3-7.1-5.5-10.1
		c-0.2-0.3-0.5-0.5-0.7-0.8c-0.1-0.3-0.1-0.5-0.2-0.8c-0.8-4.6-4-7.5-7.4-10.3c-0.4-0.6-0.7-1.1-1.1-1.7c0-1.2-0.3-2.3-1.8-2.4
		c0,0,0,0,0,0c0-1.6-0.9-2.4-2.4-2.6c-0.9-1.1-1.9-2.2-2.8-3.4c0-0.4,0.1-1-0.1-1.2C255.1,628.9,252,621.4,245.7,616.6z"/>
	<path class="st3" d="M242.4,607.2c-0.3,1.4-0.5,2.9-0.8,4.3c-6.9-7.9-13.7-15.9-19.6-24.6c0-1-0.5-1.6-1.4-1.9
		c-0.4-1.8-2.1-2.6-2.9-4c0.9-0.5,1.3-1.9,3-0.4c4.9,4.3,8.7,9.5,12.7,14.4C236.5,599,240.2,602.5,242.4,607.2z"/>
	<path class="st4" d="M220.5,585c0.9,0.3,1.4,0.9,1.4,1.9C220.8,586.8,220.3,586.2,220.5,585z"/>
	<path class="st4" d="M344.3,317.5c-1.3,1.2-0.7,2.8-0.9,4.3c-0.2,0.3-0.4,0.7-0.6,1c0,0.6,0,1.1,0,1.7c-1.2,5-2.4,10.1-3.6,15.1
		c-1.2,0.7-2.4,1.6-3.7,2c-2.4,0.8-5.1,3.2-7.1-0.6c-0.1-0.1-1.2,0.3-1.9,0.5c-4.6,0.4-5.2,4.5-6.9,7.6c0,0,0,0,0,0
		c-3.4,3.7-6.3,7.5-7.2,12.7c-1.6,10-5.5,19.9,0.3,29.8c0,0.6,0,1.2,0,1.7c-0.7,0.6-0.7,1.2,0.1,1.7c0,0.6,0,1.1,0,1.7c0,0,0,0,0,0
		c-2,0.8-1.7,2.7-2.1,4.3c-2.9,3.1-1.4,6.7-0.1,9.3c2.4,4.8,1.5,9.8,2.2,14.7c0.2,1.7,0.1,3.4,0.8,5c-1.8-0.4-3.9,0.3-5-2.2
		c-1.5-3.8-3.5-4.3-5.8-0.4c-0.6,1-1.7,0.7-2.7,0.7c-1.7-1.2-3.1-3.2-5.4-2.3c-2.2,0.9-0.8,3.3-1.4,4.9c-1.5,2.4-3.8,2.1-6.1,1.5
		c0.5-4.7-2.4-8.7-3.3-13.2c-0.1,1.6-0.2,3.2-0.3,4.9c-6.4-2.8-6.4-8.7-8-14.2c-0.8-2.9-1.4-6-3.1-8.9c-3-5-6-10.5-3.3-16.8
		c1.7-5,3.3-9.9,6-14.5c0.3-0.5,0.3-1.6,1.2-1c0.4,0.3,0.3,1.3,0.5,1.9c-0.2,0.8-0.3,1.6-0.5,2.5c-2.5,1.8-1.9,4.7-2.5,7.2
		c-0.5,2,0.8,3.1,2.8,3.1c1,2.5-2.4,4.4-1.3,6.4c1.3,2.5,4.6-0.9,6.4,1.4c0.1,0.8-0.1,2,1,1.8c1.3-0.3,0.7-1.5,0.4-2.4
		c-0.1-0.9-0.1-1.7-0.2-2.6c0.7-1.6,1.1-3.3-0.4-4.7c-0.3-1.3-0.7-2.7-1-4c0.4-3-1.3-5.7-1.4-8.7c1.2-1.2,0.7-2.1-0.6-2.8
		c-0.1-1,0.1-2.1-0.3-2.9c-1.6-3.4,0.7-7.6-2.4-10.6c-0.1-0.4-0.3-0.9-0.4-1.3c0.7-1.6,0.3-3-0.9-4c-0.9-0.7-1.6-3.5-3.1-0.5
		c-0.8-0.1-1.7-0.6-2.5-0.1l0.2-0.3l-0.2-0.3c-0.9-1.4-2.2-0.9-3.5-0.8l-0.2-0.1c-1.9-4-4.6-7.7-5.6-11.9
		c-1.5-5.8-5.2-10.2-7.7-15.4c-0.2-0.5-1.2-0.6-1.8-0.8c-1.5-5.8-5.9-6.9-11-7.2c0-0.4-0.1-0.9-0.1-1.3c0.1-0.2,0.2-0.5,0.2-0.7
		c3.5-1.5,4.8-4.1,4.1-7.7c0-1.1,0-2.3,0.1-3.4c0-1.1,0-2.2,0.1-3.4c0.5-2.8,1.2-5.7,0-8.5c0-0.3,0.1-0.6,0.1-0.8
		c0.1-0.1,0.3-0.2,0.2-0.2c0-0.2-0.1-0.4-0.2-0.6c-0.1-2.4,2.8-3.4,2.5-5.9c3.4,0.3,6.9,2.1,10-0.9c0.2,4.8,0.4,9.7-1.1,14.4
		c-0.9,0.5-1.3,1.4-1.4,2.4c-3.8,4.6-4,5.2-2.9,9c0.1,0.5-0.3,1.1-0.3,1.6c-0.1,0.8,0.4,1.7,1,1.7c3.1-0.1,4.8,2.7,6.3,4.3
		c2.2,2.2,5.6,3.6,6.3,7.2c-0.1,4.8,0.4,5.2,6.5,5.3c8.5,2.3,10.9,0.2,9.4-8.4c-0.2-1-0.5-1.9-0.7-2.8c0.2-1.5-0.7-2.6-1.4-3.8
		c-1-1.6-1.9-3.4,1.2-3.9c0.8-0.1,0.9-0.9,0.9-1.7c0.2-1.7-0.3-3.3-1.1-4.9c-1.9-4-1.8-8.3-1.1-12.4c0.8-4.6,0.8-9-0.9-13.3
		c-1.6-3.9-2.5-7.8-0.8-11.8c1.1-1.6,0.3-3.4,0.9-5.1c1.7,0.1,3.4-0.1,5,0.4c3.4,0.9,6.6,2.2,6.5,6.6c-0.8-0.2-1.9-1.4-2.4,0.3
		c-0.4,1.2,0.1,2.3,1.3,2.8c3.4,1.5,6.8,3.1,10.8,2.5c1.2-0.2,1.9-0.5,1.9-1.7c0.1-1.2-0.8-1.3-1.7-1.4c-2.5-0.3-5-0.6-7.5-1
		c1.3-3.5,1.3-3.4,4.3-2.8c0.4,0.1,1.1-0.2,1.4-0.5c2.4-2.8,6.2-2.5,9.3-3.7c3.2-1.2,5.2-3.9,8.3-5.1c0.7-0.3,0.4-1.5,0-2.3
		c-3.1-5.1-6.2-10.2-13.3-10.3c-2.2,0-4.4-0.5-6.7-0.6c-3.9-0.3-7.6,1.1-11.7,0.3c-5.3-0.9-7.8,2.1-7.7,7.7c0.1,2.1,0.6,4.2,0.9,6.2
		c-1.6,2.4-0.7,5.3-1.7,7.8c-2.7,4.4-5.3,8.9-8,13.3c-1.5,1-3.3,0.6-5,1c-0.5-0.1-1.1-0.2-1.6-0.3c-0.4-0.7-0.9-1.4-1.2-2.2
		c-0.6-1.6-0.4-3.9-3.3-3.1c-2.5,0.7-2.2,2.1-1.7,4.2c0.6,2.5-0.7,3.8-3.4,2.7c-2.5-1-4.9-2-7.3-3.1c-1.3-3.9-2-7.9,0.8-11.5
		c2.6,0,4.8,2.4,7.6,1.6l-0.1,0.3c0.9,3.9,3.9,2.8,5.4,1.4c2.7-2.5,5.1-2.4,7.9-0.4c0.7-2.5,1.7-4.6,1.2-6.9
		c-0.7-2.9-0.2-5.6,1.7-7.9c0.5-0.7,1.2-1.4,0.4-2.2c-0.9-0.8-1.6-0.1-2.1,0.6c-1.5,2.3-3.7,2.1-5.9,1.7c-0.3-0.1-0.5-0.1-0.8-0.2
		c0.3-3.7,1.5-6.7,5.5-7.7c1-0.2,1.2-1,1.4-1.8c0.8,0,1.7,0.2,2.3-0.5c0.5-0.3,1.3-0.5,1.4-0.8c2.2-8.3,9.3-9.9,16.1-12
		c2.4,0.2,4.5-0.3,5.8-2.5c0.2-0.1,0.4-0.2,0.7-0.3c2.3-0.9,4.7-0.3,7,0l0.1,0c0.6,1.2,1.2,2.8,2.9,2.1c0.7-0.3,0.2-1.5-0.2-2.2
		c0-0.5,0-0.9,0-1.4c1.2-4.1,1.4-8.4,1.5-12.6c0.6-0.4,0.7,3.5,1.7,0.2c0.2-0.7,0.7-1.1,1.4-1.2c-0.3,5.4,0,10.9-0.9,16.2
		c-0.7,4.3,1.4,4.8,4.5,5.1c1.5,0.9,2.9,1.8,4.4,2.6c1,0.9,2,1.7,2.7,3c0.9,1.7,1.5,3.9,4,4.2c1.3,0.1,2.2-0.5,2.4-1.8
		c0.8-6.4,3.6-12.6,2.6-19.3l0,0c3-0.7,3.6-2.5,2.5-5.2c0.1-0.5,0.2-1.1,0.4-1.6c1.9-1.6,3.3-3.5,4.1-5.9c4.1-1.9,5.7-5.4,5.8-9.7
		c0-0.2,0-0.3,0.1-0.5c3-0.1,4.6-1.3,4.1-4.5c0.3-1.3,0.7-2.6,2.2-3.1c2,0.2,3.5-0.2,3.1-2.7c1.2-1.4,2.3-2.7,3.5-4.1
		c0.4-0.1,0.9,0,1.2-0.3c8.3-6.2,17.2-11.1,26.6-15.5c5.4-2.5,11.1-4.8,15.8-8.7c1.1-0.1,1.9-0.7,2.5-1.7c1.6-0.5,3.3-1,4.2-2.6
		l0.1,0c2.8-0.6,3.3-3.4,5-5.1c7.5-8.6,13-18.5,16.8-29.2c2.3-6.2,4.4-12.5,4.3-19.3c0.3,0,0.6,0,0.9,0c0.3,2.8,0.5,5.6,1,8.3
		c1.4,7.9,0.2,16,1.4,23.9c-1,3.5,1.1,6,2.6,8.7c0.1,0.2,0.2,0.5,0.3,0.7c-0.5,4.4,0.5,8.2,4.2,11c0.3,0.6,0.6,1.3,1,1.9
		c3.7,8.1,7.4,16.3,11.1,24.4c-0.4,0-0.7,0.1-1.1,0.1c-4.7-2.1-8.7-5.9-14.2-6.3c-4.1-3.3-8.8-3.7-13.8-3.1c-2.5-0.2-5-0.4-7.5-0.5
		c-4.7-0.1-9.7-1.6-13.9,2.1c-0.5,0-1.1,0.1-1.6,0.1c-2.1-1.5-3.6-0.5-5.1,1c-14.9,5.2-28.4,12.6-38.5,25.2
		c-8.9,2.3-13.5,9.5-11.6,18c-0.9,1.9-2.4,2.3-4.4,2.1c-3.4-0.3-4.1,0.9-2.7,3.8c0.5,1.1,1.1,2.2,1.7,3.4c0.5,0.9,2.2,1.6,1.4,2.7
		c-0.9,1.2-2.6,0.9-3.9,0.4c-3.9-1.5-4.5,0.4-3.9,3.6c-1.5,1.1-1.6,2.6-1.7,4.4c-0.3,3.9,1.1,7.4,1.6,11.2c-0.8-0.2-1.6-0.2-2.4-0.5
		c-3.8-1.3-4.7-0.1-3.2,3.5c-0.8,2.5,0.6,5.1-0.8,7.7c-1,1.8,2.8,2.1,2.5,4.2c1.6-0.4,2-1.6,2.3-3c0.1-0.5,0.6-0.9,0.9-1.4
		c2.8,3.5,4.2,7.5,3.7,12.1c-0.2,2.2-3.1,3.3-5.1,2.2c-3.6-2-7.3-3.6-7.8-8.5c-0.1-1.1-1.8-1.6-4.1-2c4,7.8,6.3,15.6,7.4,23.6
		c-0.2,1.2-0.1,2.3,1.3,2.7c0.1,0.8,0.1,1.6,0.2,2.4c-2.1,6.3-0.4,10.5,5,13.8c2.7,1.7,5.5,2.6,8.5,3.2c2.4,2,3.7,4.4,3.7,7.5
		C344.5,315.3,344.4,316.4,344.3,317.5z M319.6,326.2c-2.6,1.8-1.6,4-0.8,6.6c1.7-2.3,1.6-4.7,2.5-6.7c-0.7-2.8,1.8-4.8,1.7-7.4
		c1.8-1,1.9-2.6,1.7-4.4c0.7-2.1-1.4-3.3-1.6-5.1c0.3-4.7,0.4-9.4,1-14.1c0.5-4.6-0.1-7.6-3.9-11.8c2.9,9.7,2.4,18.7,1.6,27.6
		c-0.3,1.1-0.7,2.3-1,3.4c-0.1,1.4-1.2,2.7-0.2,4.1C319.1,320.9,320,323.6,319.6,326.2z M301,327.9c0-1.7,0.1-3.4-0.1-5.1
		c-1.1-10.5,3.5-21,0.2-31.6c-0.1-0.2,0.1-0.6,0.1-0.8c0.6-5.3-0.8-10.6,0.5-15.9c0.3-1.1-0.5-2.5-0.8-3.7c-0.3-0.9-1-1.5-1.9-1.4
		c-1.1,0.1-1.2,1-1.3,1.8c-0.5,2.7-0.9,5.3-0.5,8.2c1.2,9.3,2.3,18.6,2.2,28c-0.1,10.1,1.4,20.3-1.3,30.4c-2.4,0.5-2.9-0.8-2.9-2.9
		c0.1-4.7,0.5-9.4-3.4-13.4c-1.7-1.7-1.2-4.5-0.3-6.9c0.8-2.1-1.9-7.4-4-7.9c-0.9-0.2-2.1-0.1-2.1,0.8c-0.2,3-2,5.9-0.6,9.1
		c2.1,5.1,1,8.5-3.3,11.6c-1,0.7-1.8,2-2.5,3.2c-1.6,2.6,0.5,5.1-0.4,7.4c-1.2,3.3-3.1,6.2,0.3,9.5c1.1,1.1,0.8,3.8,3.3,3.5
		c2.2-0.2,4.2-0.8,5-3.7c0.7-2.8,2.7-3.5,5-1.2c0.9,0.9,2.1,1.4,2.4,2.8c0.7,2.7,2.2,1.9,3.7,0.7c0.9-0.8,1.8-1.6,2.8-2.6
		c0.1,1.6,0.2,2.9,0.5,6c3.5-9.6,8.1-6.2,12.6-2.6c0-2.1-0.6-4,0.1-5c1.9-3-0.3-3.6-2-5c-3.1-2.6-7.1-4.9-6.7-9.8
		C305.6,328.2,303.9,327.5,301,327.9z M299.8,364.1c0.1-2.8,2.3-5.6,0.3-9.3c-0.3,3.7-2.5,1.6-4.4,2
		C297.8,359.1,298.8,361.6,299.8,364.1z M250.8,294.4c0-0.9-0.1-1.7-1.1-1.5c-2.6,0.3-2.6,2.5-2.9,4.4c-0.2,0.9,0.4,1.9,1.4,1.4
		C250,297.8,250.3,295.9,250.8,294.4z M301.1,377.7c-0.3-4,0.5-7.1-1.1-10C299.6,370.8,298.7,373.8,301.1,377.7z M305,322.9
		c-0.2,0.8-0.4,1.3-0.4,1.8c0,0.6,0.4,1.1,1,0.8c0.3-0.2,0.4-1,0.4-1.5C305.9,323.8,305.5,323.5,305,322.9z"/>
	<path class="st1" d="M240.7,311.3c5.1,0.2,9.6,1.4,11,7.2c-1.5,0.9-2.6,0.4-3.7-0.7c-1-0.9-2.3-1.5-3.4-0.4c-1.1,1.2-1,3,0.2,3.8
		c4.7,3.3,4.7,9.1,7.3,13.5c1.8-1.4,0.7-4,3.1-6.4c0,4.6,0,8.1,0,11.5c0.2,4.5-0.6,9.1,0.7,13.6c-1.5-0.4-4.4,2.5-4.4-1
		c-0.1-4.4-3.7-7.4-3.9-11.7c-0.1-2.7-2-2.7-4-1.8c-0.7-0.1-1.4-0.1-2.1-0.2c0-2.8,0-5.6,0-8.4c3.9-0.1,2.6-2.6,1.8-4.4
		c-1.1-2.6-2.4-5.1-1.9-8c0.4-2.4,0.5-2.4-2.4-1.8C238.6,314.2,238.7,312.4,240.7,311.3z"/>
	<path class="st2" d="M243.6,339c2-0.9,3.9-0.9,4,1.8c0.2,4.3,3.8,7.3,3.9,11.7c0.1,3.5,2.9,0.6,4.4,1c0.7,0.8,1.4,1.6,2.1,2.3
		c-0.2,0.7-0.1,1.4,0.5,1.8c0,2.4,0.2,4.8-1.8,6.7c-0.5,0-1.1,0-1.6,0l0.1-0.1c-0.9-3.3-5.1-2.8-6.3-5.6c0.6-2.2-0.3-3.9-1.5-5.8
		c-2.3-3.4-4.7-7-4.6-11.4C243.1,340.6,243.3,339.8,243.6,339z"/>
	<path class="st0" d="M261.7,373.8c0,2.6,1.5,4.9,1.1,7.6c0,0.6,0,1.2,0,1.7c-0.2,2-0.5,4-0.7,5.9c-0.3,0-0.7,0-1-0.1
		c-4.6-4.5-9.1-9-13.7-13.6c1.2-2.8,3.6-1,4.5-0.4c3.9,2.3,4.3,0.4,4.1-2.8C257.8,373.3,258.8,376.8,261.7,373.8z"/>
	<path class="st4" d="M242.8,341.4c-0.1,4.4,2.3,8,4.6,11.4c1.3,1.9,2.1,3.6,1.5,5.8c-6.3-1.1-10.4-9.1-8.3-16.3
		C241.3,342,242.1,341.7,242.8,341.4z"/>
	<path class="st2" d="M239.1,316.1c2.8-0.6,2.8-0.6,2.4,1.8c-0.5,2.9,0.8,5.4,1.9,8c0.8,1.8,2,4.3-1.8,4.4c-0.7-2.6-1.1-5.2-2.8-7.5
		C237.1,320.7,238.3,318.3,239.1,316.1z"/>
	<path class="st3" d="M244.7,366.1c3.6,0.5,6.4,2.3,7.9,5.7c-2.9,0.8-6.2-1.4-8.9,1.1C241,370.2,244.3,368.3,244.7,366.1z"/>
	<path class="st2" d="M243.7,372.9c2.7-2.4,6-0.2,8.9-1.1c0,0,0.2,0.1,0.2,0.1c0.1,0.5,0.2,0.6,0.5,0.1c0.9,0.1,1.8,0.2,2.8,0.2
		c0.2,3.2-0.2,5.1-4.1,2.8c-0.9-0.6-3.3-2.4-4.5,0.4C246.1,374.8,244.6,374.2,243.7,372.9z"/>
	<path class="st3" d="M242.8,341.4c-0.7,0.3-1.5,0.6-2.2,0.9c0.1-1.2-0.2-2.5,0.9-3.5c0.7,0.1,1.4,0.1,2.1,0.2
		C243.3,339.8,243.1,340.6,242.8,341.4z"/>
	<path class="st2" d="M261.1,389c0.3,0,0.7,0,1,0.1c0.9,0.8,0.9,1.6-0.1,2.4C261.7,390.6,261.4,389.8,261.1,389z"/>
	<path class="st3" d="M100.3,143.6c0.7-1.7,1.5-3.4,2.2-5.1c2.6-0.3,1.7-3.8,4-4.3c1.1,1.6,0,3.1-0.6,4.3
		c-5.9,12.3-5.2,25.1-3.2,38.1c0.8,5.2,4.4,9.5,4.5,14.8c-2-0.3-2.4-1.8-2.8-3.5c-0.4-2-1.7-3.7-3.2-5.2c-0.1-0.6-0.1-1.2-0.2-1.7
		c-0.7-2.2-0.2-4.7-1.6-6.7c0-1.4-0.1-2.9-0.1-4.3c0.2-0.9,0.2-1.9-0.7-2.5c0-4.3,0-8.5,0-12.8c1.8-2.7,0.5-5.6,1-8.5
		C100.4,145.5,100.4,144.5,100.3,143.6z"/>
	<path class="st1" d="M492.5,153.9c0,0.8,0,1.7-0.1,2.5c-1.7,0.9-2.7,2.2-2.5,4.3c0,0-0.1,0.1-0.1,0c-4,5.6-5.8,12-6.9,18.6
		c-1.5,0.8-1.7,2-1.4,3.5c0,0.5,0,1,0,1.6c-0.4,0-0.8,0.1-1.2,0.1c-1-2.8-0.9-5.7-0.9-8.5c0.3-7.1-1-14.3,1.7-21.3
		c0.6-1.4,0.8-3.6-0.7-5.1c1.8-7,0.8-14.1,0.9-21.2c0.2-2.4,0.1-4.8-1.6-6.7c-0.2-1.2-0.3-2.4-0.5-3.5c0.3-1.1-0.3-1.5-1.3-1.5
		c-0.1-0.3-0.1-0.7-0.2-1c0.3-1.3,0-2.3-1.4-2.6c-0.1-0.8-0.2-1.6-0.3-2.5c-0.6-2.9-3.7-4.7-3.9-7.9c0-0.3-1.2-0.4-1.8-0.7
		c-0.3-0.8-0.7-1.6-1-2.4c0-0.6,0-1.2,0.1-1.8c1.8,1.6,4.7,0.3,6,1.4c6.8,6.3,11,14.4,15.1,22.5c1.3,2.5,3.5,4.5,3.5,7.6
		c0.1,6.9,0.4,13.8-2,20.5C491.4,151.1,490.9,152.6,492.5,153.9z"/>
	<path class="st1" d="M462.6,221.8c-5.3,3.4-10.8,5.9-17.2,6.2c-7.9,0.4-15.3-1.3-22.2-4.8c-2.7-1.3-5.2-2.8-8.2-3
		c-1.4-0.9-2.9-1.8-4.3-2.7c-1.4-2-3.5-3.4-4.5-5.7c2.2-0.8-1.8-2.9,0.7-3.7c3.5,0.3,5.4,3.4,8.2,4.8c10.7,5.1,21.9,8.1,33.9,5.9
		c1.1,0.8,2,0.5,2.6-0.7c4.8-1.6,9.5-3.3,14.3-4.9c1.9-0.3,4.2-0.1,4.4-3c0.3-0.1,0.6-0.2,0.8-0.3c3.6-1.3,6-3.7,6.5-7.7
		c1.4-3.5,2.9-7.1,2.7-11c0.5,0,1.1,0,1.6,0c0.1,1.1,0.1,2.3,0.2,3.4c-0.4,1.7-1.2,3.3-0.7,5.2c0,0.8-0.1,1.7-0.1,2.5
		c-1,2.2-1.9,4.4-2.9,6.6c-2.4,0-2.6,2-3.1,3.6c-0.4,0.3-0.8,0.6-1.1,0.9c-0.5,0.3-1,0.5-1.4,0.8c-1.2,0.6-2.2,1.4-2.6,2.8
		c-0.9,0.3-1.8,0.5-2.2,1.5c-1.3,0.9-2.5,1.7-3.8,2.6C463.6,220.9,463,221.1,462.6,221.8z"/>
	<path class="st2" d="M492.5,153.9c-1.5-1.3-1-2.8-0.5-4.3c2.4-6.7,2.1-13.6,2-20.5c0-3-2.3-5.1-3.5-7.6
		c-4.2-8.1-8.4-16.2-15.1-22.5c-1.3-1.2-4.2,0.2-6-1.4c0,0,0-0.4,0-0.4c-0.7-4-2.7-6.9-6.8-8c-0.2-1.4-1.3-1.5-2.4-1.6
		c0.2-3.9-2.2-5.2-5.5-5.8c-0.5-0.3-1-0.5-1.4-0.8c-0.1-2.7-1.6-3.8-4.2-3.7c-2-2.7-4.6-4.4-7.6-5.8c-0.6-0.9-1.2-1.7-1.7-2.6
		c6.1,0.1,11.3,2.5,16.2,5.8c-0.1,1,0.3,1.7,1.4,1.8c0,0,0.2,0.2,0.2,0.2c-0.1,1.4,0.3,2.5,1.7,3.2c0.7,0.8,1.6,1.4,2.7,1.6
		c0.8,0.7,1.6,1.4,2.3,2.1c4.5,5.1,8.8,10.4,14.5,14.2c0.3,0.3,0.6,0.6,1,0.8c0.1,1,0.6,1.6,1.7,1.6c0.3,0.9,0.9,1.4,1.8,1.7
		c0.7,3,3,4.9,5.1,6.8c0,0,0,0,0,0c0.3,0.4,0.6,0.9,0.9,1.3c0.3,0.4,0.6,0.7,0.8,1.1c1.5,4.5,2.6,9.2,5.8,13c0.5,4.5,0.9,9,1.4,13.5
		C496.9,143.4,494.5,148.6,492.5,153.9z"/>
	<path class="st3" d="M475.5,212.4c0.6-1.6,0.7-3.6,3.1-3.6C478.5,210.8,477.4,211.9,475.5,212.4z"/>
	<path class="st3" d="M473.6,214.1c-0.2,0-0.5,0-0.7-0.1c0.5-0.3,1-0.5,1.4-0.8C474.1,213.6,473.8,213.9,473.6,214.1z"/>
	<path class="st1" d="M451.5,181c-2.5,0.3-4.7-0.2-6.9-1.5c-2.9-1.8-6.2-2.7-9.5-3.2c-7.7-1.3-15.5-3-23.3-1.9
		c-3.8,0.5-7.4,2.2-11.2,3.3c-4.2,0.9-8.3,1.5-12.3,3.9c-2.8,1.6-5.7,3.9-9,4.4c-2.8,0.5-3.8,2-4.3,4.4c-0.5,0.1-1.1,0.1-1.6,0.2
		c-1.8-0.1-2.7,1.1-3.4,2.5c-4.1,1-6.4,4.2-8.6,7.3c-3.4,4.8-6.2,9.9-9.3,14.8c-4.6,4.4-5,10.7-7.3,16.1c-2.8,0.2-2.5,2.3-3,4.2
		c-0.7,2.9-1.1,6.1-4.3,7.6c-1.4-0.4-1.4-1.5-1.5-2.6c-0.2-3.4-1.6-6.4-3.3-9.2c-0.6-3.2,0-5.1,3.9-3.6c1.3,0.5,3,0.8,3.9-0.4
		c0.8-1.1-0.9-1.8-1.4-2.7c-0.6-1.1-1.2-2.2-1.7-3.4c-1.4-2.9-0.7-4.1,2.7-3.8c2,0.2,3.5-0.2,4.4-2.1c2.1-3.1,3.4-6.7,6.2-9.4
		c2.5-2.4,4.9-4.9,5.5-8.6c10.1-12.6,23.5-20,38.5-25.2c1.9,0.7,3.5,0,5.1-1c0.5,0,1.1-0.1,1.6-0.1c4-0.2,8-0.5,11.9-0.7
		c0.9-0.1,1.6-0.5,1.9-1.3c2.5,0.2,5,0.4,7.5,0.5c4.4,1.9,9.1,2.6,13.8,3.1c5.5,0.4,9.5,4.2,14.2,6.3
		C450.9,179.4,451.2,180.2,451.5,181z"/>
	<path class="st4" d="M348.5,281.4c-1.5,4.1-0.5,8.3-0.7,12.4c-0.1,1.2,0.5,2.7-1.1,3.3c-1.6,0.7-2.1-1-2.9-1.8
		c-3.4-3.4-7.4-6.2-7.1-12.1c0.3-6.4,0.6-7.5,6.9-9.7c1.9-0.7,3.3-0.3,4.1,1.7C347.8,277.3,348.9,279.2,348.5,281.4z"/>
	<path class="st2" d="M337.5,243c3.2-1.5,3.5-4.8,4.3-7.6c0.5-1.9,0.2-4,3-4.2c-1.1,5.4-1.4,10.8-2,16.2c-0.3,3,1.1,4.7,3.5,6.1
		c4,2.3,4.6,5.5,1.8,9.3c-1.3-0.1-2.5-0.1-3.8-0.3c-3.4-0.5-4.2-2.7-2.7-5.5c1.2-2.3-0.4-2.9-1.6-2.3c-2.1,1.2-3.5,1.5-5.1-0.5
		c-1.8-2.2,0.7-3.5,1-5.3C336.2,246.8,337.8,245.2,337.5,243z"/>
	<path class="st4" d="M343.7,270.8c-0.8,0.1-1.7,0.3-2.5,0.2c-1.3,0-3.2,0.5-3.2-1.5c-0.1-1.5,0.8-3.4,2.4-3.4
		c2.5-0.1,4.9-1.4,7.4-0.7c0,0.4,0,0.8,0.1,1.2c0,0.7-0.1,1.4-0.1,2.1c0,0,0,0.3,0,0.3C346.4,269.6,345,270.2,343.7,270.8z"/>
	<path class="st3" d="M343.7,270.8c1.3-0.6,2.7-1.2,4-1.8c0.7,2.1,1.7,4.2-0.1,6.3c-0.8-2-2.2-2.3-4.1-1.7
		C343.6,272.6,343.7,271.7,343.7,270.8z"/>
	<path class="st3" d="M347.8,268.7c0-0.7,0.1-1.4,0.1-2.1C348.7,267.3,348.6,268,347.8,268.7z"/>
	<path class="st3" d="M462.6,221.8c0.4-0.7,1-0.9,1.7-0.9C463.7,221.2,463.2,221.5,462.6,221.8z"/>
	<path class="st1" d="M162.2,32.3c0.7,0.4,0.9,0.9,0.4,1.7c-4.8,7.2-6.7,15.4-8.4,23.7c-0.5,2.7-0.7,5.2,0.3,8.1
		c1.3,4,0.3,8.4-1.4,12.4c-1.1,2.5-1.9,5-1.6,7.7c0.8,7.4-1.3,14.5-2.2,21.7c-1.2,9.6-1.7,19.7,3.2,28.9c0.9,1.7,1.2,3.5,1.5,5.2
		c0.8,4,6.1,4.1,6.3,8.3c2.3-0.7,0.7-3.1,2.2-3.9c1.7,1.8,0.4,4.2,1.2,6.1c0,0.8-0.1,1.5-0.1,2.3c-0.5,0.9-1.1,1.8-0.7,2.9
		c-1.5,4.6-2.7,9.2-6.1,12.9c-1.7,0.4-2.7,1.3-2.5,3.2c-0.4,0.8-0.7,1.6-1.1,2.4c-2.2,1.3-4.6,2.5-6.3,4.6c0.5,0.2,0.8,0.4,1,0.4
		c9.1-1.4,18.2-4.2,27.5-0.8c0.5,0.2,1.1,0.1,1.7,0c5.8-0.5,10.8,2.6,16.3,3.7c6.1,1.2,10.6,5.7,15.7,9c3.8,2.4,7.9,4.5,10.5,8.5
		c-0.9,0.3-2-0.7-2.9,0.2c-1.2-0.2-2.1-0.7-3-1.5c-6.2-5.4-13.9-7.7-21.7-9.5c-0.2,0-0.4,0-0.6-0.1c-0.4-0.6-1.1-0.8-1.8-0.8
		c-0.3,0-0.5,0-0.8-0.1c-0.3-0.2-0.6-0.5-0.9-0.7c-5.5-3-11.8-3-17.7-4.3c-3.7-1.4-7.4-1.3-11.1-0.1c-3.6,0.1-7.2,0.2-10.9,0.3
		c-3.9,0.4-6.1-0.9-5.4-5.3c0.1-0.5-0.5-1.2-0.8-1.8c-0.7-3.1,1.8-5.5,1.8-8.4c0.2-1.7,1.5-2.5,2.6-3.5c2.5-2.2,2.9-6,0.8-8.3
		c0.2-2.9,1.8-5.7-0.2-8.6c0-0.6,0-1.2,0-1.8c-0.7-7.7-4.8-14.2-7.6-21.1c0-1.2,0-2.4,0-3.6c0.5,0.2,1.1,0.3,1.6,0.6
		c1.1,0.4,1.8,2.5,3.1,1.4c1.1-1,0.4-2.6-0.3-3.9c-1.5-2.8-0.7-5.7-0.6-8.6c0.2-5.6,2.6-11.1,0-16.9c-0.9-2-0.8-4.7,0.7-6.9
		c0.8-1.1,0.7-2.4,0.8-3.7c0.4-6.7,0.6-13.4,4.3-19.4c0.9-1.5,1.9-3.4-0.9-4.4c0.9-2.5,1.7-5.1,2.6-7.6c1-0.2,1.5-0.8,1.2-1.9
		c0.2-0.8,0.3-1.6,0.5-2.3c1-0.3,1.5-0.9,1.1-2c0.1-0.5,0.3-1,0.4-1.6c0.3-0.5,0.5-1.1,0.8-1.6c0-3.6,3.1-5.7,4.3-8.7
		c1.1,0,1.7-0.5,1.4-1.6c0,0,0.2-0.2,0.2-0.2C161.1,32.7,161.6,32.5,162.2,32.3z"/>
	<path class="st4" d="M134.1,212.9c9.9,7.7,20.2,15,32.5,18.3c7.4,2,14.4,0,21.2-3.5c5.6-2.9,10.3-7.3,16.4-9.4
		c-4.1,5.9-10.5,9-16.1,13c-2.9-0.2-4.8,2-7.1,3c-1.3,0.2-2.9-0.1-3.2,1.8c-2.6,1.3-5.5,1.8-8.3,2.1c-0.8-0.3-1.4-0.2-1.8,0.6
		c-1.4,0-2.8,0.1-4.2,0.1c-6.1-0.1-11.6-2.2-17.1-4.6c-5.8-2.5-11.2-5.8-17-8.2c-0.3-0.3-0.6-0.6-0.9-0.9c0.2-1.5-0.4-2.8-1.6-3.7
		c-3.6-3.2-6.2-7.1-8-11.5c0-2.6-1-5.1-0.5-7.7c2.6-1.2,1.2-3.4,1.3-5.3c1-5.1-0.1-10.1-0.4-15.2c1.7-1.9,4.4-2.7,5.8-5c0,0,0,0,0,0
		c4.5-3.4,9.1-6.8,13.6-10.2c0,0,0,0,0,0c4.4-1.7,5.8-6,8.5-9.2c2,2.3,1.7,6.1-0.8,8.3c-1.2,1-2.4,1.8-2.6,3.5
		c-4,5.7-7.6,11.7-12.7,16.5c-0.1,0.1-0.1,0.3-0.1,0.4c-0.3,0.3-0.6,0.6-0.9,0.9c-1.9,0.6-1.5,2.1-1.4,3.6c-1.2,2.4-2.5,4.7-1.7,7.5
		c-0.5,3.2,0.6,5.9,2.4,8.4c0.6,0.7,1.2,1.5,1.7,2.2c0.2,0.2,0.4,0.4,0.6,0.5c0,0,0.2,0.1,0.2,0.1
		C132.8,210.3,132.6,212.1,134.1,212.9z"/>
	<path class="st1" d="M119.2,181.8c0.3,5.1,1.4,10.1,0.4,15.2c-2.5,1.2-1.1,3.5-1.3,5.3c-0.6,2.6,0.5,5.1,0.5,7.7
		c-2.1,5.1,1.9,8.1,4,11.6c1.2,2,2.5,4.2,5.5,3.6c0.3,0.3,0.6,0.6,0.9,0.9c0.3,1.1,0.6,2.1,1,3.2c-0.4,0.4-0.8,0.8-1.2,1.3
		c-8.1-5.2-12.1-13.1-14.4-22.1c-0.2-1.8,0-3.9-2.4-4.6c0-0.5,0-1-0.1-1.5c1.5-3.8,0.5-6.1-3.4-7.7c-0.1-1.3-0.3-2.5-1.6-3.2
		c-0.1-5.4-3.7-9.6-4.5-14.8c-2-13-2.7-25.8,3.2-38.1c0.6-1.3,1.7-2.7,0.6-4.3c0.2-0.7,0.5-1.5,0.7-2.2c4.6-5.2,7.7-11.5,11.7-17.2
		c1.5-2.1,3.5-4.1,3.6-7c1.6-2.3,5.5-2.8,5.1-6.6c0,0,0,0,0,0c1.4-0.1,2.7-0.1,4.1-0.2c1.3,4.3-1.8,7.5-3.8,10.1
		c-13.2,17.3-16.5,36.5-12.1,57.4c0.7,3.1,0.7,6.1,0.9,9.2C116.8,179.5,117.6,180.9,119.2,181.8z"/>
	<path class="st2" d="M129,230.5c0.4-0.4,0.8-0.8,1.2-1.3c10,6.7,20.7,11.3,33,11.1c0.6,0.3,1.2,0.8,1.9,0.8
		c7.2,0.6,13.5-1.9,19.3-5.8c1.4-0.9,3.9-1.5,3.7-4.1c5.6-4,12-7.1,16.1-13c0,0,0,0,0,0c2.3-0.2,3.2-2.1,4.5-3.5
		c0.2-0.1,0.4-0.3,0.5-0.5c0.3-0.4,0.6-0.8,0.9-1.1c0,0-0.1,0.1-0.1,0.1c0.3-0.1,0.6-0.1,0.9-0.2c1.9,2-0.1,3.6-1,4.7
		c-4.9,6-9.1,12.6-16.5,16.5c-4.1,2.1-7.8,5.3-12.1,7.3c-7.6,3.7-15.4,4-23.4,2c-5.7-1.4-11.5-2.8-17-5
		C136.4,236.9,132.3,234.1,129,230.5z"/>
	<path class="st2" d="M126.9,197.9c-0.8-2.8,0.5-5.1,1.7-7.5c1-0.1,1.6-0.6,1.8-1.6c1.7-0.1,2.5-1,2.3-2.7c4.8-1,6-5.9,9.3-8.6
		c0.3,0.6,0.9,1.3,0.8,1.8c-0.7,4.4,1.5,5.6,5.4,5.3c-4,1.9-8,3.8-12,5.8c-1.6,0.6-2.6,1.9-3.6,3.3c0,0,0,0,0,0
		C130.4,194.6,129.6,197.6,126.9,197.9z"/>
	<path class="st3" d="M192,190.4c7.8,1.8,15.5,4.1,21.7,9.5c0.9,0.8,1.8,1.3,3,1.5c1.3,1.6,2.8,3.1,4.7,4.1c3.2,1.7,6.2,3.7,8.2,6.9
		c-0.7,0.7-1.6,1-2.2,0.3c-4.7-5.5-11.2-8.7-16.8-13c-3.8-3-9.2-4-14-5.8C194.7,193.1,192.8,192.6,192,190.4z"/>
	<path class="st2" d="M229.6,212.4c-2-3.1-5-5.2-8.2-6.9c-1.9-1-3.4-2.4-4.7-4.1c0.9-0.9,1.9,0.1,2.9-0.2c1.6,0.9,3.3,1.9,4.9,2.8
		c0.3,1.8,2,2.2,3.2,3.1c1.9,1.4,4,2.6,4.6,5.2c-0.2,0.1-0.3,0.3-0.5,0.4C231,212.6,230.3,212.5,229.6,212.4z"/>
	<path class="st2" d="M237.3,219.4c-0.2-0.2-0.5-0.3-0.7-0.4c-0.9-2.2-2.7-3.6-4.6-4.9c-0.1-0.4-0.2-0.9-0.3-1.3
		c0.2-0.1,0.3-0.3,0.5-0.4c5.8,2.4,8.8,6.9,10.1,12.8l-0.1,0.1C240.1,223.7,239.7,220.7,237.3,219.4z"/>
	<path class="st1" d="M126.9,197.9c2.7-0.3,3.5-3.3,5.7-4.2c-2.3,3.9-3.5,8.1-3.3,12.7C127.4,203.8,126.3,201.1,126.9,197.9z"/>
	<path class="st3" d="M108.8,194.6c3.9,1.7,4.9,4,3.4,7.7C111,199.8,109.9,197.2,108.8,194.6z"/>
	<path class="st3" d="M232,214.1c1.9,1.3,3.7,2.7,4.6,4.9c-1.1-0.3-2.2-0.5-3.3-0.8C233.4,216.7,230.8,216,232,214.1z"/>
	<path class="st3" d="M159,184.3c3.7-1.2,7.4-1.3,11.1,0.1C166.5,184.4,162.7,184.3,159,184.3z"/>
	<path class="st1" d="M134.1,212.9c-1.5-0.8-1.3-2.6-2.3-3.7c0.6,0,1.1-0.1,1.7-0.1C134.1,210.3,134.6,211.5,134.1,212.9z"/>
	<path class="st3" d="M112.2,203.9c2.5,0.6,2.2,2.7,2.4,4.6C112.7,207.5,112.7,205.6,112.2,203.9z"/>
	<path class="st1" d="M132.6,193.6c0.9-1.4,1.9-2.7,3.6-3.3C136.1,192.6,134.9,193.7,132.6,193.6z"/>
	<path class="st1" d="M131,208.5c0.2-0.2,0.3-0.3,0.5-0.5"/>
	<path class="st3" d="M189.6,189.5c0.7,0,1.4,0.1,1.8,0.8C190.8,190.1,190.2,189.8,189.6,189.5z"/>
	<path class="st3" d="M210.9,213.1c-0.3,0.1-0.6,0.1-0.9,0.2c0.3-0.3,0.6-0.6,0.9-0.9C210.9,212.6,210.9,212.8,210.9,213.1z"/>
	<path class="st3" d="M187.9,188.7c0.3,0.2,0.6,0.5,0.9,0.7C188.5,189.2,188.2,188.9,187.9,188.7z"/>
	<path class="st1" d="M242.3,225.2c-1.3-5.9-4.3-10.4-10.1-12.8c-0.6-2.6-2.7-3.7-4.6-5.2c-1.2-0.9-2.9-1.3-3.2-3.1
		c4.6,2.3,9.2,4.5,13.7,7c1,0.5,1.4,2,2.1,3.1c1.8,2.9,3.8,5.6,7.2,6.8c0.3,1.6,1.5,1.6,2.7,1.7c0.8,2.3-0.3,5.2,2.4,6.8
		c0.1,1.1,0.3,2.1,0.4,3.2c1.4,2.3-0.4,3.7-2,5.5c2,0.6,3.5,1,5.1,1.4c0.8,0.1,1.7,0.2,2.5,0.2c0,4.9-3.5,2.1-5.6,2.1
		c-0.2,2.2,1.4,3.4,1.6,5c0.6,3.7,2.5,4.3,5.6,2.9c0.3,0.1,0.5,0.2,0.8,0.2c0.2,1.4,0.3,2.7,0.5,4.8c-4.5-2.6-5.2,1-6.6,3.5
		c-0.8,1.3-0.7,2.7-0.4,4.1c0.5,2.5-1.3,1-2,1.2c0,0,0.1-0.3,0.1-0.3c0-3,1.8-6.5-1.9-8.7c0.1-0.3,0.2-0.6,0.2-0.8
		c1.3,0,1.9-0.9,1.6-1.9c-1.3-4.2-1-8.9-4.3-12.4c-0.1-0.1-0.1-0.3,0-0.4C248.5,233.5,247.2,228.6,242.3,225.2z"/>
	<path class="st3" d="M257.6,277.8c-3.1,3-6.6,1.2-10,0.9c-2.1-1.2-3-3.1-3.4-5.4c2.4,1,4.9,2.1,7.3,3c2.7,1.1,4-0.2,3.4-2.7
		c-0.5-2.1-0.7-3.5,1.7-4.2c2.9-0.8,2.7,1.5,3.3,3.1c0.3,0.8,0.8,1.5,1.2,2.2C261,277,258.9,276.9,257.6,277.8z"/>
	<path class="st2" d="M250.7,254.7c3.7,2.2,1.9,5.7,1.9,8.7c-2.8,0.8-5-1.6-7.6-1.6c-0.1-1.2-0.3-2.4-0.3-3.5
		C244.4,255.2,246.6,253.9,250.7,254.7z"/>
	<path class="st2" d="M242.3,225.2c4.8,3.4,6.2,8.3,5.9,13.9c-1.7-4.2-4.8-7.8-6-12.2C242.2,226.3,242.2,225.8,242.3,225.2
		L242.3,225.2z"/>
	<path class="st2" d="M248.2,239.5c3.3,3.5,2.9,8.3,4.3,12.4c0.3,1-0.3,1.9-1.6,1.9C250,249.1,249.1,244.3,248.2,239.5z"/>
	<path class="st3" d="M242.2,225.2c0,0.5,0,1.1,0,1.6c-3.3-1.4-4.9-3.9-4.9-7.5C239.7,220.7,240.1,223.7,242.2,225.2z"/>
	<path class="st7" d="M245.1,284.6c0.1,0.2,0.2,0.4,0.2,0.6c0,0.1-0.2,0.2-0.2,0.2C245,285.1,245.1,284.9,245.1,284.6z"/>
	<path class="st3" d="M472.7,62.2c0,0.3,0,0.5,0.1,0.7c1.2,3.8,1.5,7.9,4.2,11.1c-0.1,0.9,0,1.9-1.2,2c-0.6-0.4-1.2-0.8-1.9-1.3
		c0,0-0.3-0.3-0.3-0.3c-0.8-1.9-1.7-3.8-2.6-5.6c-0.9-1.9-0.4-4.6-3.2-5.3c-4-4.7-8.5-8.9-14.4-11c-1.1-2.4-3.9-0.9-5.4-2.3
		c-1.4-3.2-3.6-1.9-5.8-1.1c-2.6,0-5.1,0-7.7,0c-0.3,0-0.5,0-0.8,0c-0.3,0.1-0.7,0.3-1,0.4c-1.5,0.5-3.7-1.3-4.6,1.3
		c-1-0.2-1.8-0.6-2.1-1.6c0.5-0.9,1-1.7,1.5-2.6c1.6-1,3.5-0.8,5.2-1.2c4.5-0.7,8.9-0.6,13.4,0.3c8.1,1.6,16.5,2.7,21.5,10.6
		c0.6,0.9,1.7,1.4,2.5,2.2c0,0,0,0,0,0c0.5,0.4,1,0.8,1.5,1.2c-0.1,0.2-0.1,0.3,0,0.5C471.9,61.1,472.1,61.7,472.7,62.2z"/>
	<path class="st0" d="M428.2,51c0.9-2.6,3-0.9,4.5-1.3c3.2,1.7,6.2,3.5,10.1,4.1c3.9,0.6,7-1,10.5-1.2c6,2.2,10.4,6.3,14.4,11
		c-0.6,0.3-1.2,0.7-1.8,1c-5.3-4.3-11.4-7.1-17.9-8c-4.9-0.7-10,0.4-14.6,2.7c-1.6-0.9-2.3-2.6-3.3-3.9
		C430.3,53.5,429.5,52.2,428.2,51z"/>
	<path class="st3" d="M430.2,55.3c1,1.4,1.7,3.1,3.3,3.9c0.9,3.2,1.8,6.4,2.7,9.6c0.3,0.8,0.6,1.6,0.8,2.4
		c3.5,15.1,5.7,30.3,4.2,45.8c-2.2,1.9-2.2,4.5-2.4,7.1c0,0.5-0.1,0.9-0.1,1.4c-0.7,0.5-0.9,1.2-0.8,2.1c-0.1,1.3-0.1,2.5-0.2,3.8
		c-1.1,0.3-1.7,0.9-1.6,2.1c-0.4,2.3-0.8,4.5-1.1,6.8c-1.5-2.7-3.6-5.3-2.6-8.7c2.7,0.3,3.3-1.4,3.7-3.5c0.5-3.2,0.9-6.4,1.9-9.5
		c2.2-6.8,2.8-13.6,1.8-20.6c-0.8-5.5-1.3-11.1-2.6-16.6c-1.9-8-3.7-16-7.2-23.6C429.6,57,429.2,56.2,430.2,55.3z"/>
	<path class="st4" d="M483,102c-0.9-0.2-1.5-0.8-1.8-1.7c0-1.1-0.6-1.7-1.7-1.6c-0.3-0.3-0.6-0.6-1-0.8c0.1-4.8-4.7-6.1-6.9-9.3
		c-1.6-2.4-3.6-5.6-7.6-4.9c-0.8-0.7-1.6-1.4-2.3-2.1c-0.3-1.4-0.6-2.7-0.9-4.1c0.1-0.1,0.3-0.3,0.4-0.4c10.1,6.3,17.4,15.1,23.6,25
		C484.2,102,483.6,102,483,102z"/>
	<path class="st4" d="M402.3,15.2c2.4,0.9,2.4,4.1,4.9,4.9c3.2,5,6.6,9.9,10.7,14.2c1.9,2,3.7,4.2,4,7.2c0,0-0.2,0.2-0.2,0.2
		c-2.8-2-3.4-6.4-7.5-6.9c-2.2-4.2-5.7-7.4-8.6-11c0.2-1.5-0.5-2.7-1.6-3.6c-1.6-1.3-2-2.9-1.8-4.8L402.3,15.2z"/>
	<path class="st4" d="M455.8,74.8c-4.9-3.4-10.1-5.8-16.2-5.8c-0.6-0.2-1.1-0.4-1.7-0.6c0.1-1.1,0.6-2,1.8-1.8
		c8.1,1.7,15.9,3.8,21.5,10.6c-0.1,0.1-0.3,0.2-0.4,0.4c-0.5,0-1.1,0-1.6,0c-0.4-0.7-1-0.9-1.8-0.6c0,0-0.2-0.2-0.2-0.2
		C457.5,75.4,456.9,74.9,455.8,74.8z"/>
	<path class="st2" d="M466,64.7c0.6-0.3,1.2-0.7,1.8-1c2.8,0.7,2.3,3.4,3.2,5.3c0.9,1.9,1.7,3.7,2.6,5.6c-3.7-0.2-3.7-3.7-5.2-5.9
		C467.5,67.4,466.8,66,466,64.7z"/>
	<path class="st1" d="M495.6,124.1c-3.3-3.7-4.3-8.4-5.8-13c2.1,0.4,2.7,2.1,3.2,3.9C493.9,118.1,494.7,121.1,495.6,124.1z"/>
	<path class="st4" d="M427.6,46.8c-0.5,0.9-1,1.7-1.5,2.6c-0.6-1.7-2-2.6-3.4-3.5c-0.1-0.7-0.1-1.4-0.9-1.7c0-0.8,0-1.7,0-2.5
		c0,0,0.2-0.2,0.2-0.2C424.6,42.4,424.3,46.6,427.6,46.8z"/>
	<path class="st3" d="M483,102c0.6,0,1.3,0,1.9,0c1.6,2,3.4,3.9,3.2,6.8C486,106.8,483.7,105,483,102z"/>
	<path class="st1" d="M437.9,68.3c0.6,0.2,1.1,0.4,1.7,0.6c0.6,0.9,1.2,1.7,1.7,2.6c-1.4,0-2.9-0.1-4.3-0.1
		c-0.3-0.8-0.6-1.6-0.8-2.4C436.8,68.7,437.4,68.5,437.9,68.3z"/>
	<path class="st2" d="M473.9,74.8c0.6,0.4,1.3,0.8,1.9,1.3C474.6,76.4,473.9,76.2,473.9,74.8z"/>
	<path class="st10" d="M471.8,60.3"/>
	<path class="st10" d="M471.8,59.8c-0.5-0.4-1-0.8-1.5-1.2C471,58.7,471.6,59,471.8,59.8z"/>
	<path class="st3" d="M488.9,110.1c-0.3-0.4-0.6-0.9-0.9-1.3C488.7,109,488.9,109.5,488.9,110.1z"/>
	<path class="st2" d="M148.1,60.4c2.7,1,1.8,2.9,0.9,4.4c-3.7,6-4,12.7-4.3,19.4c-0.1,1.3,0,2.5-0.8,3.7c-1.5,2.2-1.6,4.9-0.7,6.9
		c2.6,5.7,0.2,11.3,0,16.9c-0.1,2.9-0.9,5.9,0.6,8.6c0.7,1.3,1.4,2.9,0.3,3.9c-1.3,1.2-2-0.9-3.1-1.4c-0.5-0.2-1.1-0.4-1.6-0.6
		c-0.1-0.3-0.2-0.5-0.4-0.8c0.5-1.7-0.1-3.1-1.4-4.1c-0.1-1.5-0.1-2.9-0.2-4.4c-0.2-0.2-0.3-0.4-0.5-0.6c0-0.9-0.1-1.8-0.1-2.7
		c0.1-6.6-0.3-13.2,0.6-19.8C139.8,79.5,142.6,69.5,148.1,60.4z"/>
	<path class="st4" d="M148.1,60.4c-5.5,9.1-8.3,19.1-10.6,29.3c-0.1-0.7-0.3-1.3-0.4-2c-1.3-4.9,1-9.3,2.2-13.7
		c1.7-6,4.4-11.8,6.3-17.8c3.8-12,10.4-22.4,17.7-32.6c0.4,0.3,0.7,0.6,1.1,0.9c-0.2,1.8-2.2,2.9-1.9,4.9c0,0-0.2,0.3-0.2,0.3
		c-1.7,0.4-1.4,1.9-1.6,3.1c0,0-0.2,0.2-0.2,0.2c-0.8,0.2-1.3,0.8-1.4,1.6c-1.2,3-4.3,5.1-4.3,8.7c-0.6,0.4-0.8,0.9-0.8,1.6
		c-0.1,0.5-0.3,1-0.4,1.6c-0.8,0.4-1.2,1-1.1,2c-0.2,0.8-0.3,1.6-0.5,2.3c-0.9,0.3-1.3,1-1.2,1.9C149.8,55.3,148.9,57.9,148.1,60.4z
		"/>
	<path class="st7" d="M165.6,21.1c3.5-5.5,7.4-10.6,12.9-14.3c0.3,0.3,0.6,0.6,0.9,1c-3.8,2.9-7,6.5-9.4,10.7
		c-0.9,1.5-1.8,2.9-3.6,3.4C166.1,21.5,165.8,21.3,165.6,21.1z"/>
	<path class="st3" d="M137,87.8c0.1,0.7,0.3,1.3,0.4,2c-0.8,6.6-0.5,13.2-0.6,19.8c-1.5-3.6-0.3-7.4-0.7-11.2
		c-0.3-3,0.5-6.1-0.6-9.2C135.2,88.3,136.1,87.8,137,87.8z"/>
	<path class="st3" d="M179.4,7.7c-0.3-0.3-0.6-0.6-0.9-1c0.8-2.1,2-3.7,4.4-4.1c-0.2,2-1.9,3.3-2.6,5C180,7.7,179.7,7.7,179.4,7.7z"
		/>
	<path class="st10" d="M137.6,117.3"/>
	<path class="st8" d="M131.6,100.9c-1.4,0.1-2.7,0.1-4.1,0.2"/>
	<path class="st8" d="M107,127.3c0.1-1.4,0.1-2.8,1.5-3.6c0.1,0.1,0.3,0.2,0.4,0.3c-0.1,1.4,0.4,3-1.7,3.4L107,127.3z"/>
	<path class="st7" d="M164.3,24.7c-0.4-0.3-0.7-0.6-1.1-0.9c0.2-0.9,0.7-1.5,1.5-1.8c0,0,0.2,0.2,0.2,0.2c0.3,0.4,0.7,0.7,1,1.1
		c0.1,0.3,0.2,0.6,0.3,0.8c-0.2,0.1-0.3,0.3-0.5,0.4C165.3,24.5,164.8,24.6,164.3,24.7z"/>
	<path class="st3" d="M184.4,0.9c-0.2,0.9-0.7,1.4-1.6,1.7C182.8,1.5,183.4,1,184.4,0.9z"/>
	<path class="st8" d="M108.5,123.8c0.4-0.8,0.7-1.6,1.1-2.4c0,0,0.2,0.1,0.2,0.1c-0.1,0.9,0,1.9-0.9,2.5
		C108.7,124,108.6,123.9,108.5,123.8z"/>
	<path class="st7" d="M164.7,21.9c0.3-0.3,0.6-0.6,0.8-0.8c0.3,0.2,0.5,0.5,0.8,0.7c-0.1,0.1-0.1,0.3-0.3,0.4c-0.4,0-0.8,0-1.1,0
		C165,22.2,164.7,21.9,164.7,21.9z"/>
	<path class="st10" d="M137,112.3c0.2,0.2,0.3,0.4,0.5,0.6C137.2,112.7,137.1,112.5,137,112.3z"/>
	<path class="st0" d="M304.3,52c0.1,0.3,0.3,0.5,0.4,0.8c0,2,0.1,4,0.1,5.9c-0.4,1.3,0.4,2.2,0.7,3.3c2.2,7.1,3,14.5,3.7,21.9
		c0.8,7.6,0.8,15.4-1.9,22.8c-0.6,1.6-1.8,4.3,0.4,5.2c2,0.8,2.6-1.9,3.5-3.3c0.3-0.5,0.6-1,0.8-1.5c2.1-0.6,1.9-1.8,0.9-3.2
		c0-0.6,0.1-1.3,0.1-1.9c1.6-0.4,1.8-1.2,0.6-2.4c0.2-1,0.3-1.9,0.5-2.9c1.1-7.8,4.5-15,6.6-22.6c2.9-2.9,3.3-7.2,5.7-10.4
		c0.3,1.3-0.5,2.8,1.1,4.1c1.5-5.1,5.8-7.3,9.7-10.2c-7.5,11.9-9.2,25.8-13.7,38.8c3.1-1.9,2.3-6,4.8-8.5c1.8,3.6-2.4,6.1-1.2,9.6
		c0.5-0.6,0.8-1.1,1.1-1.5c3.4-4.8,4.1-10.7,6.1-16c2.7-7,6.6-13.5,10-20.2c2.7-1.6,3.4-5,6.1-6.4c10.3-5.3,17.7-14.3,26.9-20.9
		c4.6-3.9,9.8-6.9,15-9.8c4.7-2.6,5.4-2.4,6.3,3c-7.6,5.1-14.6,10.9-20.7,17.6c-5.8,6.3-11.5,12.5-17,19c-1.4,1.6-3.8,1.9-4.5,4.1
		c-1.7,3.3-6,3.5-7.8,7c-0.9,1.7-0.8,4.1-3.4,4.9c2.6-6.5,4.3-13.4,11.2-18.4c-8.9,1.2-11.7,8-14.3,13.7c-2.8,6.1-3.4,13.1-6.9,19.1
		c-2.5,4.3-4.1,9.2-6.1,13.8c-1.3,3.2-4.1,5.6-4.4,9.2c-4.5,3.2-9.7,5.9-9.3,12.7c-0.3,0.3-0.5,0.6-0.8,0.9c-0.3,0-0.5,0-0.8,0
		c0.5-3.7,1-7.3,1.6-11c0.8-2.7-2-0.9-2.5-2c-1.9,1.6-1.4-1.3-1.8-1.3c-3.1,5.4-3.7,11.3-5.8,16.8c-2.4,6.5-1.7,13.6-3.8,20.2
		c-0.5,1.5,0.7,2,1.3,2.8c-3.5,7.6-8.5,14.6-10.2,22.9c-0.4,1.4-0.8,2.8-1.2,4.2c-1.4,2-3.1,3.9-2.5,6.7c-2.6-1.9-2.2-4.4-1.4-7
		c1.6-5.1,3.4-10.2,1.7-15.6c0-0.3,0.1-0.6,0.1-0.9c1.6-0.1,2.4-0.6,3.3-2.4c2.7-5.6,2.6-11.9,5.3-17.4c1-2.1,1.2-3.7,0-5.8
		c-0.6,3.5-2.7,2.6-4.7,1.7c0.8-7.7,1.4-15.5,4.6-22.7c2.7-10.1,5-20.3,5.9-30.8c2.5-1.4,1.6-3.3,0.7-5.1c0-0.6,0.1-1.1,0.1-1.7
		c0.8-3.5,2.1-7-0.8-10.2c-0.1-0.8-0.1-1.6-0.2-2.5c0.3-1.8-0.5-3.2-1.5-4.5c0-0.5-0.1-0.9-0.1-1.4c0-0.4,0-0.7,0-1.1
		C302.2,57.9,301.9,54.6,304.3,52z M314.4,112.2c-0.1-0.1-0.1-0.2-0.2-0.3c-0.1,0.1-0.2,0.2-0.2,0.2c0,0.1,0.1,0.2,0.1,0.3
		C314.3,112.4,314.3,112.3,314.4,112.2z"/>
	<path class="st2" d="M301.9,62.2c0,0.5,0.1,0.9,0.1,1.4c-1.7,0.7-4.1,1.9-3.7,3.6c1.3,5.7-2.8,10.3-2.6,15.6
		c0.1,2.5-1.5,2.1-3.7,1.3c4.1,3.7,2.6,7.6,1.6,10.5c-1,2.8-1.4,6.1-0.6,7.9c3.3,7.2,1.2,14.5-0.4,21c-3.1,12.5-3.9,25.2-6.1,37.8
		c-0.3,1.7-0.4,4.5,2.9,4.6c1.7,5.5-0.1,10.5-1.7,15.6c-0.8,2.6-1.2,5.1,1.4,7c-0.2,5.5-2.8,10.7-2.4,16.2
		c-3.4,3.5-4.2,7.8-4.2,12.4c0,1.7,0.5,4.3-2.1,4.2c-2.3-0.1-2.3-2.6-2.2-4.4c1.1-10.6-1.2-21-0.9-31.7c-1.5,0.7-0.3,2.2-1.9,3.5
		c0.6-3.6-0.3-6.5,1.2-9.6c1.2-2.4,0.3-5.4,0.5-8.2c0.5-5.8,2.4-11.4,3.3-17.1c0.3-2.2-0.1-4.5,2-6.1l0,0c2.6,0.1,3.4-1.3,3.4-3.7
		c0-4.9,0.7-10.1,2.3-14.3c1.8-4.6-0.5-9.1,1.8-13.5c1-2,0.3-4.9-2.4-7.1c0.5,8.7-2.5,16.2-4.6,23.8c-0.1,0.4-0.4,0.8-0.4,1.2
		c1.1,5.6-2,2-3.6,1.6c-0.9-4.2,2.5-7.9,1.3-12.1c0-0.5,0.1-1,0.1-1.5c1.5-0.9,1.1-2.3,0.8-3.6c-0.4-4,1.3-7.6,2.1-11.4
		c1.2-5.8,1.6-11.8,4.3-17.3c3.9-3.1,2.6-8,4.2-11.8c2.4-5.5,1.9-11.8,4.4-17.3c0.3-0.7,0.5-1.8,1.6-1.8c1,0.1,0.5,1.5,1.4,2.1
		c2-3.8,1.8-8.2,3.5-12c1.7,0.2,1.9,1.3,1.7,2.7c-2.3,2.7-2.1,5.9-2.3,9.1C301.4,61.4,301.3,61.8,301.9,62.2z"/>
	<path class="st2" d="M344.5,59.6c-3.4,6.7-7.3,13.3-10,20.2c-2.1,5.3-2.7,11.2-6.1,16c-0.3,0.4-0.6,0.9-1.1,1.5
		c-1.2-3.5,3-5.9,1.2-9.6c-2.5,2.5-1.7,6.6-4.8,8.5c4.5-13,6.2-26.8,13.7-38.8c-3.8,2.9-8.2,5.1-9.7,10.2c-1.7-1.3-0.9-2.9-1.1-4.1
		c2.7-5.8,7.1-9.9,12.7-12.7c0.5,1.3-0.9,2.6,0,4c3.7-3.8,3.7-3.8,0.9-4.8c0.4-2.2,1.5-3.9,3.9-4.4c2.8-0.7,3.8-3.6,6-5.2
		c7.8-5.6,15.5-11.3,23.2-17c3.1-2.3,6.6-3.7,10.2-4.9c2.3,1.6,5.3-0.1,7.7,1.6c0.6,0.5,1.7-0.7,1.8-1.8c0.3-2,0.1-3.9-1.9-5.1
		c-0.2-1.3-0.4-2.7-0.6-4c0.8,0.4,1.6,0.8,2.5,1.2c0.3,0.2,0.5,0.4,0.8,0.7c0.5,0.4,1.1,0.7,1.6,1.1c3.2,4,6,8.5,10.4,11.5
		c3,3.6,6.5,6.8,8.6,11c1.8,3.7,4.1,7,7.6,9.4c0.7,0.3,0.7,1.1,0.9,1.7c0.8,4.5,2.7,8.7,3.6,13.2c1.2,6,1.8,12,2.3,18.1
		c0.1,0.8,0.3,1.9-0.8,2.1c-1,0.2-1.4-0.8-1.6-1.6c-0.9-2.5-1.3-5.3-2.7-7.5c-2-3.4-1.4-8-4.8-10.7c-0.4-1.1-0.7-2.2-1.1-3.3
		c0.8-3.5-1.1-5.8-3.5-8c0.4-3.4-2.1-5.8-3.7-8.1c-3.6-5-6.1-11-11.5-14.7c-0.8-5.4-1.5-5.6-6.3-3c-5.3,2.9-10.4,5.9-15,9.8
		c-1.9-1.6-3.4-0.4-5,0.6c-2.4,1.4-4.4,3.4-7.1,4.5c-8.6,3.6-14.5,10.8-21.9,16.1C340.8,55.5,341.4,58.4,344.5,59.6z"/>
	<path class="st0" d="M390.9,13.2c1.9,1.2,2.2,3.1,1.9,5.1c-0.2,1.1-1.2,2.3-1.8,1.8c-2.4-1.7-5.4,0-7.7-1.6
		c1.1-2.2,3.1-3.2,5.1-4.3C389.3,13.9,390.1,13.6,390.9,13.2z"/>
	<path class="st1" d="M390.9,13.2c-0.8,0.3-1.7,0.7-2.5,1c0.5-2.6,0-4.8-2.1-6.7c-1.4-1.2-1.8-3-1.8-4.9c2.7,1.6,4.7,3.7,5.8,6.6
		C390.6,10.6,390.7,11.9,390.9,13.2z"/>
	<path class="st2" d="M302.9,36.8c0.5-2.9-1.6-6.3,1.4-8.8C303.9,31,305.9,34.3,302.9,36.8z"/>
	<path class="st0" d="M340,50.1c2.8,1,2.8,1-0.9,4.8c-0.9-1.4,0.5-2.7,0-4C339.5,50.7,339.8,50.4,340,50.1z"/>
	<path class="st2" d="M305.3,15.5c-1-1-1-1.9,0.1-2.7C306.3,13.7,306.3,14.6,305.3,15.5z"/>
	<path class="st2" d="M304.4,23.9c-0.8-0.7-0.7-1.3,0.1-1.8C305.2,22.7,305.2,23.4,304.4,23.9z"/>
	<path class="st3" d="M291.4,181.8c0.4-1.4,0.8-2.8,1.2-4.2c3.1-2.6,5.1-5.9,6.7-9.6c0.4-0.9,0.5-2.1,1.8-1.8c1,0.2,0.7,1.4,0.9,2.1
		c-0.1,1.2,0.2,2.5-0.9,3.4c-3,3.3-4.7,7.3-5.4,11.6c-1.9,11.5-3.6,23.1-3.1,34.8c0.1,2.1-2,4.3,0.1,6.4c-1.3,2.2-3.4,2.7-5.8,2.5
		c-2.2-6.2,0.5-12.5,0.1-18.7c2-1.2,1.9-3.4,2.1-5.2c0.8-5.9,1.1-11.9,3-17.6C292.4,184.2,293,182.8,291.4,181.8z"/>
	<path class="st2" d="M272.7,102c1.4,0.2,2.1,1,1.9,2.3c-0.5,3.8,1.3,7.5,0.1,11.3c-0.8,2.4,1.3,2.6,2.6,3.4c-0.2,3-0.4,6.1-0.6,9.1
		c-0.4,2.9-0.8,5.8-1.2,8.7c-4,1.7-1.8,5.8-3.3,8.5c-0.5,1,0.4,3-1.4,3c-1.8,0-1.3-1.9-1.2-3.1c0.2-3.2-0.9-6.4,1.1-9.5
		c1-1.5-1.1-2.6-1.2-4.3c-0.1-8.7,0.9-17.4,1.4-26.1C271,104.2,270.8,102.4,272.7,102z"/>
	<path class="st8" d="M269.4,239.7c-0.6,0.7-1.5,0.6-2.3,0.5c0-0.2,0-0.4,0-0.6c-2.3-7.7-6.6-14.5-10.7-21.4c-1.5-2.5-6-4.1-3.8-8.4
		c4.9,5.8,8.8,12.2,12.8,18.6C266.7,232.2,266.4,236.6,269.4,239.7z"/>
	<path class="st2" d="M279.5,47.5c1,11.3-0.4,22.4-3.3,33.3c-2-4.3,0.2-8.6,0.3-12.9c0.1-5.9,1-11.7,1.6-17.6
		C278.2,49.1,278.2,48,279.5,47.5z"/>
	<path class="st1" d="M291.4,181.8c1.6,1,1,2.4,0.6,3.7c-1.8,5.7-2.2,11.7-3,17.6c-0.2,1.8,0,4-2.1,5.2c-0.1-1.2-0.2-2.3-0.4-3.5
		c-0.4-5.6,2.2-10.7,2.4-16.2C288.3,185.7,290,183.8,291.4,181.8z"/>
	<path class="st2" d="M278.9,137.7c2.3,2.4-0.8,4.4-0.6,6.9c0.4,4.2-1.6,8.4-1.6,12.8c-2.5-5-1.3-10.3-1.1-15.5
		C278,141.6,276.6,138.2,278.9,137.7z"/>
	<path class="st1" d="M278.9,137.7c-2.2,0.5-0.8,3.9-3.3,4.2c0-1.7,0-3.4,0-5.1c0.4-2.9,0.8-5.8,1.2-8.7c2.3-0.4,0.9-4.1,3.6-4.2
		c1.2,4.2-2.3,7.9-1.3,12.1C278.9,136.5,278.9,137.1,278.9,137.7z"/>
	<path class="st2" d="M276.1,83.2c0,2.9,1.1,5.9-0.8,8.6C274.6,88.8,273.5,85.8,276.1,83.2z"/>
	<path class="st2" d="M282.3,147.8c-0.7-0.2-1.8,0.3-2-0.9c0-0.1,0.3-0.5,0.5-0.5C281.9,146.2,282.2,147,282.3,147.8
		C282.3,147.9,282.3,147.8,282.3,147.8z"/>
	<path class="st3" d="M280.2,123.9c-2.7,0.1-1.3,3.8-3.6,4.2c0.2-3,0.4-6.1,0.6-9.1c1.2-8.3,5.7-15.8,5.7-24.5c0-2-0.1-6.7,4.5-6.9
		c0,0.9,0,1.7,0,2.6c-2.7,5.4-3.1,11.5-4.3,17.3c-0.8,3.8-2.4,7.4-2.1,11.4c-1.7,0.9-1.7,2.1-0.8,3.6
		C280.3,122.9,280.3,123.4,280.2,123.9z"/>
	<path class="st1" d="M166.1,22.1c0.1-0.1,0.2-0.2,0.3-0.4c1.8-0.5,2.7-1.9,3.6-3.4c2.5-4.2,5.6-7.7,9.4-10.7c0.3,0,0.6,0,0.9,0
		c-5,5.2-6.5,13.3-14,16.4c-0.1-0.3-0.2-0.6-0.3-0.8C166,22.9,166.1,22.5,166.1,22.1z"/>
	<path class="st3" d="M164.3,24.7c0.5-0.1,1-0.1,1.5-0.2c-0.7,2-0.1,4.8-3.4,5.1C162.1,27.6,164.1,26.4,164.3,24.7z"/>
	<path class="st3" d="M160.6,32.9c0.3-1.2-0.1-2.7,1.6-3.1c0,0.8,0,1.7-0.1,2.5C161.6,32.5,161.1,32.7,160.6,32.9z"/>
	<path class="st1" d="M298.6,15.4c-0.1,2.2-0.2,4.4-0.3,6.7C295.9,19.4,296.1,16.2,298.6,15.4z"/>
	<path class="st2" d="M372.5,762.5c-0.1-0.5-0.2-0.9-0.2-1.4c0.4-0.2,0.7-0.4,1.1-0.7c-0.3-0.1-0.7-0.2-1-0.3c0,0,0,0.1,0,0.1
		c-1.5-2.9-2.9-5.8-4.6-8.6c-1-1.7-2.4-3.1-1.8-5.3c6.5,1.4,9.7,6.7,13,11.5c1.2,1.7,3.5,2.4,3.7,4.6
		C379.2,762.5,375.9,762.5,372.5,762.5z"/>
	<path class="st2" d="M404.6,7.4c0.2-2.3,1.6-3.4,3.6-3.9C408.1,5.8,408.9,9,404.6,7.4z"/>
	<path class="st2" d="M398.8,11.1c-0.9-0.2-1.2-0.9-1.3-1.7c1.9-0.5,3.5-2.1,5.6-1.8C402.3,9.6,400,9.6,398.8,11.1z"/>
	<path class="st3" d="M405.6,23.8c-4.4-3-7.1-7.5-10.4-11.5c3.1-0.7,4.3,3,7,3.1c-0.2,1.9,0.2,3.5,1.8,4.8
		C405.1,21.1,405.8,22.2,405.6,23.8z"/>
	<path class="st3" d="M393.6,11.1c-0.3-0.2-0.5-0.4-0.8-0.7c0.2-0.1,0.4-0.2,0.6-0.4C393.5,10.5,393.5,10.8,393.6,11.1z"/>
	<path class="st3" d="M300.6,665.9c3,1.3,5.6,3.3,8,5.6c1.8-1.7-0.3-3.3,0.2-4.8c0.6,0.3,1.5,0.4,1.9,0.9
		c5.8,7.2,15.1,11.8,16.4,22.6c0.3,2.5,1,4.4-0.6,6.5c-0.6-0.3-1.1-0.6-1.7-0.9c0-1.1-0.5-1.6-1.6-1.7l0,0c-0.9-2.4-3.1-2.8-5.2-3.2
		c-1.2-0.9-2.4-1.9-4.1-2c-0.4-1.5-1.4-2.7-2.2-4c-2.7-4.5-8.2-6.7-10.1-12c-0.8-2.3-2.3-2.6-4.1-0.7c-0.6-0.9-1.2-1.7-1.8-2.6
		C297.4,668.2,299,667,300.6,665.9z"/>
	<path class="st1" d="M326.5,696.5c1.6-2.1,0.9-4,0.6-6.5c-1.3-10.7-10.6-15.3-16.4-22.6c-0.4-0.5-1.2-0.6-1.9-0.9
		c-0.1-0.2-0.1-0.5-0.2-0.7c0-1.2-0.6-1.7-1.8-1.6c-3-2.6-7-4.3-8.4-8.6c5.5-0.2,8.4,4.6,12.7,6.7c6,3,9.5,8.7,13.3,14.1
		c0.7,0.9,0.7,3.4,3,2.1c2.8,1.8,1.7,4.9,2.1,7.3c1,5.1,1.9,10.1,4,14.9C330.8,700.2,328.2,699.1,326.5,696.5z"/>
	<path class="st1" d="M300.6,665.9c-1.6,1.2-3.2,2.3-4.9,3.5c-1.6-2.9-3.5-5.2-7.3-5.4c-1.8-0.1-3.7-1.4-3.6-4c0,0,0.2-0.2,0.2-0.2
		c1.6,0.5,3.2,3.6,4.9,0.1C294,661.1,297.7,662.8,300.6,665.9z"/>
	<path class="st3" d="M290,659.9c-1.7,3.5-3.3,0.3-4.9-0.1c-0.5-3.4-3.6-4.8-5.3-7.3c0.9-4.3,0.7-4.1,4.4-1.4
		C287.4,653.3,287.4,657.4,290,659.9z"/>
	<path class="st3" d="M306.9,664.3c1.2-0.1,1.8,0.5,1.8,1.6C307.6,665.9,307,665.3,306.9,664.3z"/>
	<path class="st3" d="M244.8,610.8c-0.9-0.3-1.9-0.6-0.8-1.8C244.7,609.4,244.9,610,244.8,610.8z"/>
	<path class="st2" d="M337.5,711c-3.3-5.2-8-8.7-13.4-11.5c-4.6-2-7.9-6.5-13.2-7.4c-3.7-3.4-7.4-6.9-10.3-11.1
		c-0.8-1.2-2-2.4-3.8-2.5l0,0c-0.6-0.6-1.2-1.1-1.8-1.7c0,0,0,0,0,0c-0.3-0.2-0.6-0.5-0.9-0.7c-0.2-0.1-0.5-0.2-0.8-0.2l0.1,0
		c-0.9-1.1-1.8-2.2-2.8-3.2c0.9-3.5-1.2-5.4-3.8-6.6c-3.3-1.5-3.6-3.5-2.1-6.3c-0.2,2.5,1.8,3.9,3.6,4c3.9,0.2,5.7,2.5,7.3,5.4
		c0.6,0.9,1.2,1.7,1.8,2.6c3.4,6.4,8.6,11.3,14,15.9c0.7,0.6,1.4,0.9,2.3,0.8c1.6,0.1,2.8,1.1,4.1,2c1,2.3,3.1,2.7,5.2,3.2
		c0,0,0,0,0,0c0,1.1,0.5,1.7,1.6,1.7c0.6,0.3,1.1,0.6,1.7,0.9c1.7,2.6,4.3,3.6,7.1,4.2C336,703.8,337.3,707.2,337.5,711z"/>
	<path class="st1" d="M313.7,504.5c3.6-1,2.4-5,4.8-7.7c1.1,5.5,4.5,10.2,0,15.4c-1.2,1.4,0.3,4.7-3,5.2c-0.3-2-0.5-4-0.8-6
		c0.1-0.9,0.2-1.9-0.7-2.6C313.8,507.4,313.8,506,313.7,504.5z M318.5,502.6c0,0.2,0,0.3-0.1,0.5c0.1-0.1,0.2-0.1,0.2-0.2
		C318.6,502.8,318.5,502.7,318.5,502.6z"/>
	<path class="st2" d="M345.2,644.7c3.2,6.4,5,13.2,4.2,20.4c-0.5-0.2-1.4-0.3-1.5-0.6C345.9,658,343.5,651.6,345.2,644.7z"/>
	<path class="st1" d="M299.2,479c4,0.5,2-4.1,4.6-5.1c1.6,2.7-1,5.2-0.4,7.8c-2.2,0.2-1.3,1.5-1,2.7c0.3,1.4,1,3.2-1.7,2.9
		c-2.2-2.3-2.4-5.2-2.3-8.1C298.7,479.1,299,479,299.2,479z"/>
	<path class="st2" d="M349.4,666.7c1.1,1.9,2.5,3.7,0.9,6c-1.3,0.9-0.1,2.8-2,4C347.6,673.1,348.1,669.9,349.4,666.7z"/>
	<path class="st2" d="M341.8,619.2c1.5,3.6,2.1,7.3,1.6,11.1C341,626.9,340.9,623.1,341.8,619.2z"/>
	<path class="st2" d="M337.5,591.2c1,2.7,2.6,5.4,1,8.5C337.2,596.9,335.9,594.2,337.5,591.2z"/>
	<path class="st2" d="M354.5,701.6c1.5,2.4,2.1,5,1.6,7.7C352.8,707.3,353.4,704.5,354.5,701.6z"/>
	<path class="st2" d="M338.6,602.9c2.4,2.2,2.1,5,1.6,7.8C337.7,608.5,338.5,605.6,338.6,602.9z"/>
	<path class="st1" d="M305.3,485c2.8,1.1,5.6,1.2,8.3-0.1c-1.8,3.6-4.7,2.4-7.4,1.7C305.6,486.3,305.3,485.7,305.3,485z"/>
	<path class="st2" d="M343.5,631.9c1.4,2.2,1.3,4.5,0.2,6.8C342.1,636.5,342.3,634.2,343.5,631.9z"/>
	<path class="st2" d="M357.9,719.4c1.5,1.1,2,2.6,1.6,4.4C357.2,723,356.4,721.6,357.9,719.4z"/>
	<path class="st2" d="M352.2,693.8c2.4,0.8,1.4,2.8,1.5,4.3C351.1,697.5,352.3,695.4,352.2,693.8z"/>
	<path class="st2" d="M356.2,711.8c1.5,1.1,2,2.6,1.5,4.4C356,715.1,355.2,713.8,356.2,711.8z"/>
	<path class="st2" d="M340.4,613.1c1.8,0.7,1.5,2.2,1.3,3.6C339.7,616.1,340.2,614.5,340.4,613.1z"/>
	<path class="st2" d="M313.9,508.8c0.8,0.7,0.8,1.6,0.7,2.6C312.8,510.9,312.5,510.1,313.9,508.8z"/>
	<path class="st2" d="M364.8,744c0.8,0.5,0.9,1.4,0.9,2.3C363.7,746.3,363.7,745.4,364.8,744z"/>
	<path class="st2" d="M343.8,641.1c1,0.3,1.4,0.9,1.3,1.9C344,642.8,343.5,642.2,343.8,641.1z"/>
	<path class="st2" d="M363.3,740.5c1,0.2,1.5,0.8,1.4,1.9C363.7,742.2,363.1,741.6,363.3,740.5z"/>
	<path class="st8" d="M282.2,501.1c-0.2-0.3-0.4-0.6-0.7-0.9C281.7,500.5,281.9,500.8,282.2,501.1z"/>
	<path class="st3" d="M417.5,760.2c-8.1-0.6-16.2-1.1-23.4-5.6c-1.4-0.9-2.6-1.7-3.1-3.2c-0.8-2.5-3.5-1-5-2.5
		c-0.4-0.4-1,1.3-0.7,1.9c1.2,3-1.3,5.1-2.9,5.3c-2.5,0.3-4.1-2-4-4.9c0-0.8-0.2-1.8-0.7-2.4c-4.1-4.8-5.1-10.7-6.2-16.6
		c-0.7-4-2.3-7.8-3.5-11.7c-0.7-2.1-0.5-4.2-0.6-6.3c0-0.8-0.1-1.9,0.9-2.1c1-0.2,1.3,0.8,1.8,1.5c4.6,6.4,10.4,11.7,16.4,16.8
		c1.5,1.2,2.3,3.2,3.7,4.4c2.4,2.1,4.3,4.4,7.8,5.3c3.4,0.9,5.1,5,7.9,7.3c3.2,2.6,7.8,4,8.9,9c0.3,1.5,2.7,0.9,4.3,1
		c1.2,0.1,3-0.2,2.9,1.6c-0.1,1.5-1.8,0.8-2.8,1C418.6,760.2,418.1,760.2,417.5,760.2z"/>
	<path class="st1" d="M256.8,364.3c2-1.9,1.8-4.3,1.8-6.7c1.1,0.4,2.3,0.6,3.5,0.3c-0.2-0.7-0.4-1.5-0.6-2.2
		c0.5-3.3,1.5-6.5,1.3-9.9c1.6-0.7,2.1,3.8,4.2,0.9c0,0,0.2,0.1,0.2,0.1c0.7,2.2,2.1,1.6,3.5,0.8l0.2,0.3c0,0-0.2,0.3-0.2,0.3
		c-1.4,4.8,3.7,6.8,4.1,11.7c1.5-2.5,2.6-4,2.8-5.8c3.1,3,0.8,7.3,2.4,10.6c0.4,0.8,0.2,1.9,0.3,2.9c-0.1,0.9-0.1,1.8-0.2,2.7
		l-0.2,0.2c-0.8,0-1.6,0-2.4,0c-0.1-0.7-0.1-1.7-0.5-1.9c-0.9-0.6-0.9,0.5-1.2,1c-2.7,4.6-4.3,9.5-6,14.5c-1.1-1-1.6-2.2-1.7-3.7
		c-0.2-4.6-3.7-6.7-6.7-9.2c-0.6-0.5-1.2-1-1.7-1.4c0,0-0.1-0.2-0.1-0.2c0.1-1.8-0.4-3.2-2.4-3.4c0,0,0,0,0,0
		C256.8,365.5,256.8,364.9,256.8,364.3z M268.2,362.5c1.1-2.6,0-4.4-0.7-6.1c-0.5-1.2-1.7-1.6-2.8-0.8c-1.2,0.8-0.5,1.6,0.2,2.4
		C265.9,359.3,266.8,360.7,268.2,362.5z"/>
	<path class="st0" d="M299.2,479c-0.3,0-0.5,0-0.8,0.1c-4.2-2.3-5.7-6.8-6.3-10.6c-0.8-4.9-3.2-9.7-2-14.9c1.7-3,3.4-6.1,5.1-9.1
		c2-0.7,3.1-0.4,3.3,2.1C299.4,457.4,301.2,468.2,299.2,479z"/>
	<path class="st2" d="M300.3,428c1,0,2.1,0.3,2.7-0.7c2.3-3.9,4.3-3.4,5.8,0.4c1,2.5,3.2,1.8,5,2.2c3.6,4.5,3.8,9.6,3.2,16.3
		c-2.2-5.6-5.1-9.1-9.4-11.6c-2.3-1.3-3.1-0.5-4.1,1.1c-2-3.9-3.6-4.2-6-1.1c-0.9,1.2-1.8,1.3-3.2,1.4c-3,0.1-5.9,0.5-6.3,4.5
		c-0.1,1.6-1.4,2.7-3.2,2.8c-0.1-3.9,2-7.4,2.4-11.2c2.3,0.6,4.5,1,6.1-1.5c1.1,0.6,2.1,0.9,2.7-0.6
		C297,428.1,298.6,428.1,300.3,428z"/>
	<path class="st1" d="M285,443.3c1.8-0.1,3-1.2,3.2-2.8c0.4-4,3.3-4.4,6.3-4.5c1.4,0,2.3-0.2,3.2-1.4c2.4-3.2,4-2.8,6,1.1
		c-5,0.2-9.3,4.8-8.4,8.8c-1.7,3-3.4,6.1-5.1,9.1c-2.6-1.8-0.9,2.3-3,1.7C286.1,451.6,284,447.8,285,443.3z"/>
	<path class="st1" d="M262.8,383.1c0-0.6,0-1.2,0-1.7c0.6,0.1,1.2,0.2,1.2,0.9C264,382.9,263.3,383,262.8,383.1z"/>
	<path class="st1" d="M332.1,370.6c-0.5-4.1-3.1-7.6-3-11.9c0.1-3.6,1.7-6.1,5.3-7.3c2.1-0.7,3.6-0.7,5.2,1.3c1.2,1.6,3.1,2.8,4.8,4
		c0.8,0.6,1.8,1.1,1.3,2.3c-0.4,0.9-1.2,1.9-2.2,1.7C335.7,359.6,335.1,366,332.1,370.6z"/>
	<path class="st0" d="M308.6,477.5c-2.1-4.2-2.9-8.3-3.2-12.4c-0.3-4.5-0.1-9-0.1-13.6c0-1.9-0.6-4.9,1.7-4.9
		c2.3-0.1,4.8,1.8,5.1,4.8c0.2,2.1,0.3,4.3-0.2,6.3c-1.2,4.6-1.7,9.1-1.4,13.8C310.5,473.5,309.9,475.3,308.6,477.5z"/>
	<path class="st2" d="M324.9,344.9c3-0.4,2.4,1.7,2.5,3.4c-1.2,3-0.9,6.1-1,9.2c-1.5,0.6-1.8,1.2-0.1,1.9c0.3,2.8,0.6,5.6,1,8.4
		c-1.1,1.1-0.3,1.5,0.7,1.9c0,1.4,0.1,2.7,0.1,4.1c-1.5,0.1-2.1,2.2-3.9,1.6c-0.2-3.5-0.4-7-1.7-10.3c-2-5.1-3.4-10.3-3-15.9
		c0,0,0,0,0,0c0.6,0,1.2,0.1,1.8,0.1c0.3,0.9,0.2,2.2,1.8,2.6c0.5-2.1,1-4.1,1.4-6.2C324.7,345.4,324.8,345.1,324.9,344.9z"/>
	<path class="st4" d="M350.2,333.9c2.9,3.7,4.5,8,5.4,12.6c0.1,3.6-2.3,6.3-3.8,9.3c-0.7,1.3-1.8,2.5-3.4,1.4
		c-1.4-0.9-1.3-2.2-0.6-3.7c1.7-3.8,3.9-7.6,1.6-12c0.1-2.3-0.2-4.6-0.8-6.8C349.1,334.4,349.6,334.2,350.2,333.9z"/>
	<path class="st4" d="M313.8,410.3c-1.8-3.2-1.3-6.3,1.5-8.2c1.6-1.1,2.7-4,4.3-3.2c1.9,0.8-0.7,2.7-0.7,4.3
		c-0.2,6.2,0.8,12.6-2.4,19.6C314.1,418.2,314.3,414.1,313.8,410.3c0.1-0.1,0.1-0.2,0.2-0.3C313.9,410.1,313.8,410.2,313.8,410.3z"
		/>
	<path class="st1" d="M324.3,375.3c1.7,0.6,2.4-1.5,3.9-1.6c0.2,1.9,4.9,0.7,2.9,4.6c-1,1.9-0.6,4.4-2.6,6.2c-1.3,1.1-1.9,3-2.8,4.6
		c-1.5,0.5-2.9,0.8-2.7-1.6C323,383.4,323.6,379.3,324.3,375.3z"/>
	<path class="st1" d="M312.9,396.7c0-0.6,0-1.1,0-1.7c0.8-0.6,0.8-1.2-0.1-1.7c0-0.6,0-1.2,0-1.7c3,0.8,5.3-1.8,8.2-1.8
		c0,1.1-0.1,2.3-0.1,3.4C318.2,394.2,315.9,396.3,312.9,396.7z"/>
	<path class="st4" d="M320.9,393.2c0-1.1,0.1-2.3,0.1-3.4c0.7-0.8,0.3-2.5,2-2.3c-0.2,2.4,1.2,2.1,2.7,1.6c0.3,0.1,0.8,0.2,0.8,0.3
		C326.4,391.1,322.9,393.5,320.9,393.2z"/>
	<path class="st1" d="M310.8,400.9c0.4-1.6,0.1-3.5,2.1-4.3C313,398.4,312.7,400,310.8,400.9z"/>
	<path class="st1" d="M328,369.6c-1-0.3-1.8-0.7-0.7-1.9C328.1,368.2,328.2,368.9,328,369.6z"/>
	<path class="st1" d="M326.4,359.4c-1.7-0.7-1.5-1.3,0.1-1.9C326.4,358.2,326.4,358.8,326.4,359.4z"/>
	<path class="st3" d="M337.5,243c0.3,2.2-1.3,3.9-1.6,5.9c-1.9,0.4-2.7-0.7-3.3-2.2c-0.5-3.7-2-7.3-1.6-11.2
		c0.2-1.7,0.2-3.3,1.7-4.4c1.7,2.9,3.1,5.8,3.3,9.2C336,241.5,336,242.6,337.5,243z"/>
	<path class="st3" d="M340.9,306.7c-3-0.6-5.8-1.5-8.5-3.2c-5.4-3.4-7.1-7.5-5-13.8c3,0.6,4,3.4,3.9,5.4c-0.4,5.9,3.2,8,7.7,9.7
		C340,305.1,340.9,305.5,340.9,306.7z"/>
	<path class="st3" d="M331.8,257.1c-0.3,0.5-0.7,0.9-0.9,1.4c-0.3,1.4-0.7,2.6-2.3,3c0.3-2.2-3.5-2.5-2.5-4.2c1.5-2.6,0-5.2,0.8-7.7
		C330.1,251.1,332,253.4,331.8,257.1z"/>
	<path class="st3" d="M344.3,317.5c0.1-1.1,0.2-2.2,0.2-3.3c1.4,0.4,2.2,1.6,2.2,2.8c0.1,6.1,0.9,12.3-1.2,18.3
		C345.8,329.4,344.2,323.5,344.3,317.5z"/>
	<path class="st3" d="M353.5,303.5c0,0.6-0.3,1.1-0.9,1.2c-2.5,0.4-3.3,2.3-4.1,4.3c-0.3,0.8-0.8,1.7-1.8,1.3
		c-0.9-0.4-0.9-1.9-0.5-2.2c2.2-1.7-1.4-5.9,2.9-6.4c1.6-0.2,3,0.4,4.3,1.4C353.5,303.2,353.5,303.4,353.5,303.5z"/>
	<path class="st3" d="M339.2,339.6c1.2-5,2.4-10.1,3.6-15.1C344.6,330.6,342.9,337.4,339.2,339.6z"/>
	<path class="st3" d="M324.9,344.9c-0.1,0.2-0.2,0.4-0.2,0.7c-2.5-0.2-1.4,3-3.2,3.5c-0.6,0-1.2-0.1-1.8-0.1
		c1.7-3.1,2.2-7.1,6.9-7.6C326.1,342.7,324.7,343.4,324.9,344.9z"/>
	<path class="st3" d="M353,315.9c1.4,2.3,1.7,4.8,1.2,7.5C350.7,322,350.5,320.8,353,315.9z"/>
	<path class="st3" d="M350.2,333.9c-0.5,0.2-1,0.5-1.6,0.7c-0.9-0.9-1.3-2.3-0.2-2.7C349.7,331.3,349.8,333,350.2,333.9z"/>
	<path class="st3" d="M327.2,287.2c-1.4-0.5-1.5-1.5-1.3-2.7C326.9,285.2,327.6,286,327.2,287.2z"/>
	<path class="st3" d="M342.8,322.9c0.2-0.3,0.4-0.7,0.6-1C343.2,322.2,343,322.5,342.8,322.9z"/>
	<path class="st4" d="M163.6,152.3c1.7-0.6,2.7,1.1,4.1,1.3c0,0,0,0.1,0,0.1c0.5,4.7,3.4,7.3,7.5,6.8c5.3,2.8,10.5,5.9,16.2,8
		c10.4,3.9,20.3,9,29.9,14.5c11.4,6.4,21.2,15.1,29.6,25.2c0.3,0.3,0.6,0.6,0.8,0.9c0,0,0,0,0,0c0.3,0.3,0.5,0.6,0.8,0.9
		c0,0,0,0,0,0c-2.2,4.3,2.3,5.9,3.8,8.4c4.1,6.9,8.3,13.7,10.7,21.4c-2.9-1.4-5.7-3.2-8.6,0c-0.8-0.1-1.7-0.2-2.5-0.2
		c-0.2-1.4-2.3-3,0.7-4c0.6-0.2,1.7-1.1,1.1-2.4c-0.6-1.3-1.5-0.8-2.4-0.6c-0.8,0.2-1.6,0-2.5,0.1c-0.1-1.1-0.3-2.1-0.4-3.2
		c-0.2-1.8,1.6-2.3,2.5-3.7c-1.7-1.1-3.3-2.1-4.9-3.1c-1.2-0.1-2.4-0.1-2.7-1.7c-2.1-6.4-4.3-12.6-10.7-16.2
		c-0.7-0.4-1.3-1.1-1.7-1.8c-4.4-8.3-13.4-11.3-20.1-16.7c-4.4-3.6-10.9-5.3-16.7-6.5c-11.4-2.3-22.9-3.6-34.4-5.3
		c-0.4-0.1-0.9,0.1-1.2,0.4c-2.9,2.9-6.2,1.9-9.5,1c0.4-0.8,0.7-1.6,1-2.4c1.7-0.4,2.4-1.6,2.5-3.2c3.4-3.6,4.7-8.3,6.1-12.9
		c1-0.8,3.3-1.2,0.7-2.9C163.6,153.8,163.6,153,163.6,152.3z M178.7,165.1l-0.3,0.2l0.3,0.2L178.7,165.1z"/>
	<path class="st3" d="M175.2,160.5c-4,0.5-6.9-2.1-7.5-6.8c2.2,0.2,2.2,3,4.2,3.5C172.5,158.8,174.2,159.3,175.2,160.5z"/>
	<path class="st8" d="M251.7,209c-0.3-0.3-0.6-0.6-0.8-0.9C251.2,208.4,251.5,208.7,251.7,209z"/>
	<path class="st8" d="M252.5,209.8c-0.3-0.3-0.5-0.6-0.8-0.9C252,209.3,252.3,209.6,252.5,209.8z"/>
	<path class="st3" d="M269,645.4c3.3,2.8,6.5,5.7,7.4,10.3C272.2,653.5,270,649.8,269,645.4z"/>
	<path class="st3" d="M263.7,638.7c1.5,0.2,2.4,1.1,2.4,2.6C264.8,640.9,263.8,640.2,263.7,638.7z"/>
	<path class="st3" d="M266.1,641.3c1.6,0.1,1.8,1.2,1.8,2.4C266.7,643.4,266.1,642.6,266.1,641.3z"/>
	<path class="st3" d="M276.5,656.5c0.2,0.3,0.5,0.5,0.7,0.8C276.7,657.3,276.5,657,276.5,656.5z"/>
	<path class="st0" d="M369,116.3c-0.6,0.3-1.1,0.6-1.7,0.9c-5.7,1.1-8.5,6.3-12.8,9.3c0,0,0,0,0,0c-3.6,2.5-6.9,5.4-9.7,8.6
		c-7,8.1-11.6,17.8-17,26.9c-1,1.6-1.7,3.9-1.2,6.1c-0.1,0.5-0.1,1-0.2,1.5c-0.3,0.6-0.5,1.3-0.8,1.9c-0.9,1.5-2,2.9-2.6,4.7
		c-2.4,7-4.6,14.1-4.6,21.6c-3.9,4.4-3.9,9.8-3.9,15.1c-1.2,0.1-0.6-1.5-1.3-1.3c-0.5,0.1-1,1-1,1.5c0,5.7-2.4,11.3-1.1,17.1
		c-3.1-0.3-5.2-0.8-4.5-5.1c0.9-5.3,0.7-10.8,0.9-16.2c1.4-7.4,2.8-14.8,4.2-22.1c2-5.2,3.5-10.6,3.4-16.5c-1.6,2.7-3.3,5.4-4.9,8
		c-0.4-0.2-0.8-0.3-1.1-0.5c1.7-2.7,0.6-5.6,0.6-8.3c-0.2-7.6,2.6-14.5,4-21.8c1.4-3.3,2.7-6.7,3.3-10.3c2.4-2,3.3-4.8,4.3-7.6
		c3.3-4.3,4.4-10,8.3-13.9c2,0.5,2.2,1.9,1.6,3.6c-0.6,1.5-0.5,3-0.3,4.5c-1.5,2.5-3,5-4.6,7.5l0.1,0c-0.7,0.4-0.9,1.1-0.9,1.8
		c0,0.2,0,0.5,0,0.7c-1.6,0.1-2.7,0.6-2.3,2.6c1.3-0.5,2.1-1.2,2.3-2.5c1.3,0.6,2.4,0.9,2.5-1.1c1-0.5,1.9-1.3,2.9-1.6
		c3.6-1.1,3.7-5.8,7.3-6.7c3.3-0.9,6.5-2.1,8.5-5.1c0.6-0.6,1.1-1.1,1.7-1.7c0.8-0.6,1.7-1.2,2.5-1.7c1.8,0,1.7-1.3,1.7-2.5
		c5.5-3.6,11.3-7,15.2-12.4c6.7-9.3,16-16.4,21.6-26.6c0.9-0.3,2.9,0.4,1.6-1.8c0-1.2,1-1.8,1.7-2.5c1.5-0.2,1.7-1.3,1.6-2.5
		c0.3-0.3,0.5-0.7,0.8-1c1.3,0,2.6,0,2.2-1.9c0.1-0.3,0.2-0.5,0.3-0.8c2.9-1.2,6.4-1.3,7.8-4.7c3.5-2.4,7.4-3.7,11.8-3.4
		c0.4,1.1,0.7,2.2,1.1,3.3c0.7,3-1.1,4.2-3.6,4.9c-3.4,3.2-8.3,5.1-10,9.8c-4.9,13-14.3,22.3-24.5,31
		C376.4,108.9,371.7,111.6,369,116.3z M374.2,106.6c2.3-2.4,4.6-4.7,6.9-7.1c5.6-3.3,7.3-9.4,10.4-14.5c1.3-1.4,2.7-2.8,4-4.3
		c0.9-1,1.3-2.5,0.5-3.5c-1.2-1.3-3.2-0.5-3.8,0.3c-3.3,4.5-8.3,7.6-10.5,13c-1.5,3.5-3.8,6.5-5.9,9.6c-3.7,3.3-6.6,7.3-9.5,11.3
		C369.6,110.9,372.2,109.3,374.2,106.6z"/>
	<path class="st11" d="M301,327.9c2.9-0.3,4.6,0.3,4.3,3.8c-0.4,4.9,3.6,7.3,6.7,9.8c1.8,1.5,4,2,2,5c-0.7,1.1-0.1,2.9-0.1,5
		c-4.5-3.7-9.1-7-12.6,2.6c-0.3-3.1-0.4-4.5-0.5-6c-1.1,1-1.9,1.9-2.8,2.6c-1.5,1.2-3,2-3.7-0.7c-0.4-1.4-1.5-1.9-2.4-2.8
		c-2.3-2.3-4.3-1.7-5,1.2c-0.7,2.8-2.8,3.4-5,3.7c-2.5,0.2-2.2-2.4-3.3-3.5c-3.4-3.3-1.5-6.3-0.3-9.5c0.9-2.3-1.2-4.8,0.4-7.4
		c0.7-1.2,1.5-2.4,2.5-3.2c4.3-3.1,5.4-6.5,3.3-11.6c-1.3-3.2,0.4-6.1,0.6-9.1c0.1-0.9,1.2-1,2.1-0.8c2.1,0.5,4.8,5.8,4,7.9
		c-0.9,2.3-1.3,5.2,0.3,6.9c3.9,3.9,3.5,8.6,3.4,13.4c0,2,0.5,3.4,2.9,2.9c0.6,1.3,1.2,2.6,2.1,4.3c1.6-3,0.4-6,1.7-8.4
		c1.3,0.1,2.7,0,2.5-1.9c-0.2-1.6-1.4-1.4-2.6-1.3C301.5,329.7,301.2,328.8,301,327.9z"/>
	<path class="st11" d="M290,262.6c0.1-4.4-3.1-5.7-6.5-6.6c-1.6-0.4-3.3-0.3-5-0.4c-0.4-0.8-0.8-1.7-1.2-2.5
		c-0.3-2.1-0.8-4.2-0.9-6.2c-0.2-5.6,2.4-8.6,7.7-7.7c4.1,0.7,7.8-0.6,11.7-0.3c2.2,0.1,4.5,0.6,6.7,0.6c7.2,0.1,10.2,5.2,13.3,10.3
		c0.5,0.8,0.7,2,0,2.3c-3.1,1.2-5.1,3.8-8.3,5.1c-3.1,1.2-6.8,0.9-9.3,3.7c-0.3,0.3-1,0.6-1.4,0.5c-3-0.6-3-0.7-4.3,2.8
		C291.2,264.2,290.5,263.6,290,262.6z"/>
	<path class="st1" d="M415,64.6c2.5-0.7,4.3-1.9,3.6-4.9c3.4,2.7,2.8,7.3,4.8,10.7c1.3,2.2,1.8,5,2.7,7.5c0.3,0.8,0.6,1.8,1.6,1.6
		c1.1-0.2,0.9-1.3,0.8-2.1c-0.5-6.1-1.1-12-2.3-18.1c-0.9-4.6-2.8-8.7-3.6-13.2c1.4,0.9,2.9,1.7,3.4,3.5c0.3,1,1.1,1.4,2.1,1.6
		c1.3,1.1,2.2,2.5,2,4.3c-1,0.8-0.6,1.6-0.2,2.6c3.5,7.5,5.3,15.5,7.2,23.6c1.3,5.5,1.8,11,2.6,16.6c1,7,0.4,13.8-1.8,20.6
		c-1,3-1.3,6.3-1.9,9.5c-0.4,2.2-1,3.9-3.7,3.5c-1.2-7.9,0.1-16-1.4-23.9c-0.5-2.7-0.7-5.5-1-8.3c0-3.2-0.5-6.4-1.7-9.4
		c-2.4-8.4-7.1-15.9-10.3-24c-0.7-1.8-2.1-0.8-3.2-0.8C415,65.1,415,64.8,415,64.6z"/>
	<path class="st3" d="M272,323.7c-6-0.1-6.6-0.6-6.5-5.3c4.9-0.8,2-4,1.2-5.6c-0.9-1.8-2.3-5.3-3.6-4.7c-2.9,1.3-2.9-0.5-3.6-2
		c-0.3-0.6-0.6-1.5-1.4-1.2c-3.2,1-1.9-1.2-2.5-2.8c-0.9-2.6,0.9-5.1-0.5-7.5c0.1-1,0.5-1.9,1.5-2.4c1.1-0.2,1.9-0.9,2.2-1.8
		c1.9-5.4,6.9-4,10.8-4.9c0.8-0.2,2.1-0.1,2.2,0.8c0.4,3.4,3.8,5.5,3.6,9.6c-0.1,3,1.7,6.8,6.1,7.3c0,0.7-0.1,1.5-0.9,1.7
		c-3.1,0.5-2.2,2.2-1.2,3.9c0.7,1.2,1.6,2.3,1.4,3.8c-5.7,0.5-8.1,3.1-8.1,8.4C272.6,321.9,272.2,322.8,272,323.7z"/>
	<path class="st1" d="M292.6,224.4c-2-2.1,0-4.3-0.1-6.4c-0.5-11.7,1.3-23.3,3.1-34.8c0.7-4.3,2.4-8.2,5.4-11.6c0,2.1,0,4.2,0,7.3
		c2.2-3.8,2-8.3,7-9.3c-0.6,4.7-1.1,8.9-1.6,13.2c-0.3,2.6-1.2,5.2,0.6,7.7c-0.8,6.5-1.7,13-2.5,19.5c-0.2,4.2-0.4,8.5-1.5,12.6
		c-1.1-0.5-1.3-1.4-1.2-2.5c0.2-3.9-0.4-7.9,0.6-11.7c0.4-1.4,0.9-3.2-1.4-3.7c-1.8-2,0.1-4.9-1.8-7.7c-2,4.3-4.2,7.8-4.1,12.2
		c0,5.1,0.1,10.1-1.8,14.9C293.1,224.2,292.8,224.3,292.6,224.4z"/>
	<path class="st1" d="M281.4,303.2c-4.4-0.5-6.2-4.3-6.1-7.3c0.2-4.1-3.1-6.2-3.6-9.6c-0.1-0.9-1.4-1-2.2-0.8
		c-3.9,0.9-8.9-0.5-10.8,4.9c-0.3,0.9-1.1,1.6-2.2,1.8c1.5-4.7,1.3-9.6,1.1-14.4c1.3-0.9,3.4-0.8,3.5-3c0.5,0.1,1.1,0.2,1.6,0.3
		c-0.4,1.6-0.7,3.3-1.1,4.9c-0.3,1.1-0.3,2.2,0.8,2.5c4.4,1,3.1-4.2,5.7-5.5c1.3-0.7,2.1-2.2-0.4-2.8c2.7-4.4,5.3-8.9,8-13.3
		c0.6-0.1,1.3-0.1,1.9-0.2c-1.7,4.1-0.8,8,0.8,11.8c1.7,4.3,1.7,8.7,0.9,13.3c-0.7,4.2-0.9,8.4,1.1,12.4
		C281.1,299.9,281.6,301.5,281.4,303.2z"/>
	<path class="st3" d="M323,387.4c-1.7-0.1-1.3,1.6-2,2.3c-2.9-0.1-5.2,2.6-8.2,1.8c-5.8-9.9-1.9-19.8-0.3-29.8
		c0.8-5.3,3.8-9,7.2-12.7c-0.5,5.6,0.9,10.8,3,15.9c1.3,3.3,1.5,6.8,1.7,10.3C323.6,379.3,323,383.4,323,387.4z M315.7,364.3
		c-1.1,6.5,2.1,12.3,3.6,18.3c0.1,0.4,0.8,0.7,1.3,0.8c0.2,0.1,0.8-0.5,0.8-0.8c0-5,2.6-9.9,0-14.9c0.1-2.7-1.8-4.7-2.4-7.1
		c-0.2-0.7-0.6-1.3-1.4-1.3c-1,0-1.6,0.6-1.7,1.5C315.6,362,315.7,363.2,315.7,364.3z"/>
	<path class="st1" d="M440.6,154c1.3-0.1,2.6-0.4,3.6,0.7c2,2.3,4.7,3.4,7.6,4.2c1.9,0.5,2.4,2.2,3.5,3.4c-0.3,0.9-0.5,1.9,0.5,2.6
		c2.9,5.9,2.9,12.6,5.3,18.7c0,0.7,0,1.4,0,2.2c-3.8,1-6.1-0.6-7.2-4.3c0.3-1.7-0.5-2.7-2.2-3C448,170.3,444.3,162.1,440.6,154z"/>
	<path class="st3" d="M266.9,346.7c-2.1,2.9-2.6-1.6-4.2-0.9c-2.9-1.5-3.9-5.4-7.5-5.9c0-3.5,0-6.9,0-11.5c-2.4,2.5-1.3,5.1-3.1,6.4
		c-2.6-4.4-2.6-10.1-7.3-13.5c-1.1-0.8-1.3-2.7-0.2-3.8c1.1-1.1,2.4-0.5,3.4,0.4c1.1,1.1,2.3,1.6,3.7,0.7c0.6,0.3,1.6,0.4,1.8,0.8
		c2.5,5.2,6.2,9.6,7.7,15.4C262.3,338.9,264.9,342.7,266.9,346.7z"/>
	<path class="st3" d="M301.8,333.8c-1.4,2.4-0.1,5.4-1.7,8.4c-0.8-1.8-1.5-3-2.1-4.3c2.7-10,1.2-20.2,1.3-30.4
		c0.1-9.4-1-18.7-2.2-28c-0.4-2.9,0-5.5,0.5-8.2c0.2-0.9,0.2-1.8,1.3-1.8c1-0.1,1.6,0.5,1.9,1.4c0.4,1.2,1.1,2.6,0.8,3.7
		c-1.3,5.3,0.1,10.6-0.5,15.9c0,0.3-0.2,0.6-0.1,0.8c3.3,10.5-1.3,21-0.2,31.6c0.2,1.7,0.1,3.4,0.1,5.1c0.2,0.9,0.5,1.8,0.7,2.7
		C301.7,331.6,301.7,332.7,301.8,333.8z"/>
	<path class="st3" d="M252.4,263.7c0.8-0.2,2.5,1.3,2-1.2c-0.3-1.4-0.3-2.8,0.4-4.1c1.4-2.5,2.1-6.1,6.6-3.5
		c-0.2-2.1-0.4-3.5-0.5-4.8c2.3,0.4,4.4,0.6,5.9-1.7c0.5-0.7,1.2-1.4,2.1-0.6c0.9,0.8,0.2,1.5-0.4,2.2c-1.8,2.4-2.3,5-1.7,7.9
		c0.5,2.3-0.5,4.4-1.2,6.9c-2.8-2-5.1-2.1-7.9,0.4C256.3,266.5,253.4,267.6,252.4,263.7z"/>
	<path class="st2" d="M311.2,230.4c-1.3-5.8,1.1-11.4,1.1-17.1c0-0.5,0.6-1.4,1-1.5c0.7-0.2,0.1,1.4,1.3,1.3c0-5.4,0-10.8,3.9-15.1
		c1,2.3-1,4.5-0.4,6.8c0,1.1,0,2.3-0.1,3.4c-1.1,6.1-1.3,12.2-1.6,18.3c-0.1,2.2,0.7,4.5-0.8,6.5
		C314.2,232.1,312.7,231.2,311.2,230.4z"/>
	<path class="st3" d="M293.3,224.2c1.9-4.8,1.8-9.9,1.8-14.9c0-4.3,2.2-7.8,4.1-12.2c1.9,2.8,0,5.7,1.8,7.7
		c-1.1,6.4-2.5,12.9-0.8,19.4C298,223.9,295.6,223.3,293.3,224.2z"/>
	<path class="st1" d="M255,294.6c1.4,2.4-0.4,4.9,0.5,7.5c0.6,1.6-0.7,3.7,2.5,2.8c0.9-0.3,1.1,0.6,1.4,1.2c0.7,1.5,0.7,3.3,3.6,2
		c1.3-0.6,2.8,3,3.6,4.7c0.8,1.7,3.7,4.8-1.2,5.6c-0.7-3.6-4.2-5-6.3-7.2c-1.5-1.6-3.2-4.3-6.3-4.3c-0.6,0-1-0.9-1-1.7
		c0-0.6,0.4-1.2,0.3-1.6C251,299.8,251.2,299.2,255,294.6z"/>
	<path class="st3" d="M258.5,239.7c2.8-3.2,5.7-1.5,8.6,0c0,0.2,0,0.4,0,0.6c-0.2,0.8-0.4,1.6-1.4,1.8c-4,1-5.2,4-5.5,7.7
		c-3.1,1.4-5.1,0.8-5.6-2.9c-0.2-1.6-1.8-2.9-1.6-5C255,241.8,258.4,244.6,258.5,239.7z"/>
	<path class="st3" d="M304.6,210.1c0.8-6.5,1.7-13,2.5-19.5c0.5-1.3,1-2.5,1.5-3.8c1.1,0,2.2,0.1,3.3,0.1
		c-1.4,7.4-2.8,14.8-4.2,22.1c-0.7,0.1-1.2,0.5-1.4,1.2C305.3,213.6,305.2,209.7,304.6,210.1z"/>
	<path class="st3" d="M356.1,197c-0.6,3.7-3,6.2-5.5,8.6c-2.8,2.7-4.1,6.3-6.2,9.4C342.6,206.4,347.2,199.3,356.1,197z"/>
	<path class="st1" d="M272,323.7c0.2-0.9,0.6-1.9,0.6-2.8c0-5.3,2.4-7.9,8.1-8.4c0.2,0.9,0.6,1.9,0.7,2.8
		C282.9,323.9,280.5,326,272,323.7z M277.7,317.8c-1.4,0.1-1.9,1-2,2.2c0,1.6,0.9,2.3,2.3,2.4c1.2,0.1,1.7-0.9,1.7-1.9
		C279.8,319,279.1,318.1,277.7,317.8z"/>
	<path class="st0" d="M283.5,387.8c0.1,0.9,0.1,1.7,0.2,2.6c-0.5,0.2-0.9,0.4-1.4,0.6c-1.8-2.3-5.1,1.1-6.4-1.4
		c-1.1-2,2.3-3.9,1.3-6.4c0.1-1.1,0.2-2.2,0.3-3.4c0.5-0.1,1.1-0.1,1.6-0.2c1-0.2,2-0.4,3-0.5c0.3,1.3,0.7,2.7,1,4
		C281.8,384.8,281.8,386.3,283.5,387.8z"/>
	<path class="st3" d="M321.7,311c0.8-9,1.4-18-1.6-27.6c3.8,4.2,4.5,7.1,3.9,11.8c-0.5,4.7-0.7,9.4-1,14.1
		C322.6,309.8,322.1,310.4,321.7,311z"/>
	<path class="st3" d="M290,262.6c0.5,1,1.3,1.6,2.5,1.6c2.5,0.3,5,0.7,7.5,1c0.9,0.1,1.8,0.2,1.7,1.4c-0.1,1.2-0.8,1.5-1.9,1.7
		c-4,0.6-7.4-1-10.8-2.5c-1.2-0.5-1.7-1.6-1.3-2.8C288.1,261.2,289.1,262.3,290,262.6z"/>
	<path class="st2" d="M300.3,224.2c-1.8-6.6-0.3-13,0.8-19.4c2.3,0.6,1.7,2.3,1.4,3.7c-1,3.9-0.4,7.8-0.6,11.7c-0.1,1,0.1,2,1.2,2.5
		c0,0.5,0,0.9,0,1.4c-0.9,0-1.7,0-2.6,0.1L300.3,224.2z"/>
	<path class="st2" d="M277.3,354.1c-0.2,1.9-1.3,3.3-2.8,5.8c-0.4-4.9-5.5-7-4.1-11.7c0.9-0.6,1.7-0.1,2.5,0.1
		c1.1,1.7,2.3,3.3,4,4.5C277.1,353.2,277.2,353.6,277.3,354.1z"/>
	<path class="st2" d="M267.7,274.2c2.5,0.6,1.7,2.2,0.4,2.8c-2.5,1.3-1.3,6.4-5.7,5.5c-1.1-0.2-1.1-1.4-0.8-2.5
		c0.4-1.6,0.8-3.3,1.1-4.9C264.4,274.8,266.2,275.2,267.7,274.2z"/>
	<path class="st12" d="M322.3,240.2c-0.4-2.9,1.3-5.4,2-8c0.7-3,1.6-5.9,1.4-9c-0.1-1.5,0.1-3.1,1.6-4c1,6.7-1.8,12.9-2.6,19.3
		C324.5,239.7,323.7,240.3,322.3,240.2z"/>
	<path class="st3" d="M277.4,379.8c-0.1,1.1-0.2,2.2-0.3,3.4c-2.1,0-3.4-1.1-2.8-3.1c0.7-2.4,0-5.4,2.5-7.2
		C277.8,375.1,276.8,377.5,277.4,379.8z"/>
	<path class="st3" d="M299.8,364.1c-1-2.5-2-5-4.2-7.3c2-0.4,4.2,1.7,4.4-2C302.1,358.5,299.9,361.3,299.8,364.1z"/>
	<path class="st3" d="M436.4,172.2c-4.7-0.5-9.4-1.1-13.8-3.1C427.6,168.5,432.3,168.9,436.4,172.2z"/>
	<path class="st3" d="M415.1,168.6c-0.4,0.8-1,1.3-1.9,1.3c-4,0.2-8,0.5-11.9,0.7C405.4,166.9,410.4,168.5,415.1,168.6z"/>
	<path class="st1" d="M282.1,379c-1,0.2-2,0.4-3,0.5c0.3-3-1.2-6.2,0.7-9.2c0,0,0.2-0.2,0.2-0.2c0.3,0.1,0.5,0.1,0.8,0.1
		C280.8,373.3,282.4,376,282.1,379z"/>
	<path class="st0" d="M300.3,428c-1.7,0-3.3,0.1-4.1,2c-0.6,1.5-1.6,1.2-2.7,0.6c0.6-1.6-0.8-4,1.4-4.9
		C297.2,424.8,298.7,426.9,300.3,428z"/>
	<path class="st8" d="M334.1,205.5c2.1-2.8,3-6.4,5.8-8.8c0,4.4-1.6,7.8-5.8,9.7C334.2,206.1,334.2,205.8,334.1,205.5z"/>
	<path class="st3" d="M250.8,294.4c-0.5,1.5-0.8,3.5-2.6,4.3c-1,0.5-1.6-0.5-1.4-1.4c0.3-1.9,0.3-4,2.9-4.4
		C250.7,292.7,250.8,293.4,250.8,294.4z"/>
	<path class="st1" d="M320.5,318.5c0.8,0.1,1.7,0.2,2.5,0.2c0,2.6-2.4,4.6-1.7,7.4c-0.6,0-1.1,0.1-1.7,0.1
		C320,323.6,319.1,320.9,320.5,318.5z"/>
	<path class="st3" d="M301.1,377.7c-2.4-3.9-1.5-6.9-1.1-10C301.5,370.6,300.8,373.7,301.1,377.7z"/>
	<path class="st3" d="M319.6,326.2c0.6,0,1.1-0.1,1.7-0.1c-0.9,2-0.8,4.4-2.5,6.7C318,330.2,317,328,319.6,326.2z"/>
	<path class="st2" d="M279.7,370.4c-1.9,2.9-0.3,6.1-0.7,9.2c-0.5,0.1-1.1,0.1-1.6,0.2c-0.6-2.3,0.4-4.7-0.6-6.9
		c0.2-0.8,0.3-1.6,0.5-2.4C278.1,370.4,278.9,370.4,279.7,370.4z"/>
	<path class="st3" d="M277.6,260.7c-0.6,0.1-1.3,0.1-1.9,0.2c1-2.5,0-5.4,1.7-7.8c0.4,0.8,0.8,1.7,1.2,2.5
		C277.9,257.3,278.6,259.1,277.6,260.7z"/>
	<path class="st3" d="M277,352.8c-1.7-1.2-2.9-2.8-4-4.5c1.5-3,2.2-0.3,3.1,0.5C277.3,349.8,277.6,351.2,277,352.8z"/>
	<path class="st1" d="M324.7,314.3c-1.3,0-2.7,0-4,0c0.3-1.1,0.7-2.3,1-3.4c0.5-0.6,0.9-1.2,1.4-1.7
		C323.3,311,325.4,312.2,324.7,314.3z"/>
	<path class="st12" d="M334.1,205.5c0,0.3,0,0.6,0.1,0.9c-0.8,2.4-2.2,4.3-4.1,5.9C329.6,209,331.9,207.3,334.1,205.5z"/>
	<path class="st3" d="M428.5,90.1c1.2,3,1.6,6.2,1.7,9.4c-0.3,0-0.6,0-0.9,0C427.7,96.5,428.8,93.2,428.5,90.1z"/>
	<path class="st8" d="M340.1,196.2c1.2-1.7,2-3.7,4.1-4.5C344.7,194.9,343,196.2,340.1,196.2z"/>
	<path class="st12" d="M327.3,219.1c0.3-1.1,0.7-2.2,1-3.3c0.5-0.6,1-1.2,1.5-1.9C330.9,216.6,330.3,218.5,327.3,219.1z"/>
	<path class="st3" d="M399.6,170.8c-1.6,1-3.2,1.7-5.1,1C396,170.3,397.6,169.2,399.6,170.8z"/>
	<path class="st3" d="M451.7,178.4c1.7,0.3,2.4,1.3,2.2,3c0,0-0.3-0.2-0.3-0.2c-0.7,0-1.4-0.1-2.1-0.1c0,0,0,0,0,0
		c-0.3-0.8-0.6-1.7-0.8-2.5C451,178.5,451.4,178.4,451.7,178.4z"/>
	<path class="st8" d="M346.3,188.6c0-2.1,1.9-2,3.1-2.7C349.8,188.4,348.3,188.7,346.3,188.6z"/>
	<path class="st3" d="M283.5,387.8c-1.7-1.4-1.6-3-0.4-4.7C284.6,384.5,284.2,386.1,283.5,387.8z"/>
	<path class="st1" d="M300.4,224.2c0.9,0,1.7,0,2.6-0.1c0.4,0.7,0.9,2,0.2,2.2C301.6,226.9,301,225.4,300.4,224.2z"/>
	<path class="st11" d="M305,322.9c0.5,0.6,0.9,0.8,0.9,1.1c0,0.5,0,1.3-0.4,1.5c-0.6,0.4-1-0.2-1-0.8
		C304.5,324.3,304.8,323.8,305,322.9z"/>
	<path class="st3" d="M270.5,347.6c-1.4,0.8-2.8,1.4-3.5-0.8C268.3,346.6,269.6,346.2,270.5,347.6z"/>
	<path class="st3" d="M282.3,390.9c0.5-0.2,0.9-0.4,1.4-0.6c0.3,0.9,0.8,2.1-0.4,2.4C282.2,393,282.3,391.7,282.3,390.9z"/>
	<path class="st3" d="M280.7,370.3c-0.3,0-0.5,0-0.8-0.1c0.1-0.9,0.1-1.8,0.2-2.7C281.4,368.3,281.9,369.1,280.7,370.3z"/>
	<path class="st3" d="M312.8,393.3c0.9,0.5,0.9,1.1,0.1,1.7C312.1,394.4,312.1,393.9,312.8,393.3z"/>
	<path class="st4" d="M255.1,339.8c3.7,0.5,4.7,4.4,7.5,5.9c0.3,3.4-0.7,6.6-1.3,9.9c-1.1,0-2.3,0.1-3.4,0.1
		c-0.7-0.8-1.4-1.6-2.1-2.3C254.6,348.9,255.4,344.3,255.1,339.8z"/>
	<path class="st3" d="M258,355.8c1.1,0,2.3-0.1,3.4-0.1c0.2,0.7,0.4,1.5,0.6,2.2c-1.2,0.3-2.3,0.1-3.5-0.3
		C258,357.1,257.8,356.5,258,355.8z"/>
	<path class="st3" d="M253.3,372c-0.2,0.6-0.4,0.5-0.5-0.1C252.9,372,253.1,372,253.3,372z"/>
	<path class="st4" d="M461,183.4c-2.4-6-2.4-12.8-5.3-18.7c3.4,0.1,6.5,1.4,9.7,2.2c2.8,0.7,5.7,0.9,6.3-3.1c0,0,0,0,0,0
		c1.9,0.3,2-2,3.4-2.4l0.3,0.2c0.3,2.7-0.8,5-2.6,6.9c-1.8,1.9-2,4.3-2.5,6.6c-0.2,0.9-0.5,2.2,0.6,2.7c1.3,0.5,1.6-0.8,1.8-1.7
		c0.7-2.5,2.4-2.1,3.9-1.1c0.9,0.6,1.6,1,2.7,1.1c0.1,2.9,0,5.8,0.9,8.5c0,2.2,0.1,4.4,0.1,6.6c0.1,3.9-1.4,7.4-2.7,11
		c-3.3,1.6-4.9,4.6-6.5,7.7c-0.3,0.1-0.6,0.2-0.8,0.3c-2.4-0.3-4.2,0.1-4.4,3c-4.8,1.6-9.5,3.3-14.3,4.9c-1.1-0.5-2-0.6-2.6,0.7
		c-12,2.2-23.2-0.7-33.9-5.9c-2.8-1.4-4.7-4.4-8.2-4.8c-4.9-2.6-9.9-5.2-14.8-7.9c-0.4-2.1-2.2-1.2-3.4-1.7c0.1-0.2,0.1-0.3,0-0.5
		c2.6-0.5,5-0.1,7.3,1.2c8.3,4.9,16.9,9.1,25.6,13.2c0.8,1.3,2.2,1.8,3.5,2.1c13.8,3.1,25.7-1.1,36.1-10.1c1.6-1.4,3.2-3.3,3.1-5.8
		c1.6-1.8,0.6-4,0.7-6c-0.5-2.1,0.1-4.7-2.5-6c-0.1-0.2-0.1-0.4-0.1-0.6C462.6,185,462.5,183.9,461,183.4z"/>
	<path class="st3" d="M479.4,176c-1-0.1-1.8-0.5-2.7-1.1c-1.6-1-3.2-1.3-3.9,1.1c-0.3,0.9-0.5,2.2-1.8,1.7c-1.1-0.4-0.8-1.8-0.6-2.7
		c0.5-2.3,0.7-4.7,2.5-6.6c1.8-1.9,2.9-4.2,2.6-6.9c3.4-3.3,2.4-8.4,4.8-12c1.5,1.5,1.3,3.7,0.7,5.1
		C478.3,161.7,479.7,168.9,479.4,176z"/>
	<path class="st4" d="M480.3,149.6c-2.5,3.7-1.4,8.7-4.8,12c0,0-0.3-0.2-0.2-0.2c-0.1-1.8,1.2-3.5,0.7-5.4c0.1-0.5,0.2-1,0.3-1.4
		c0.2-0.3,0.4-0.7,0.6-1c1.1-8.4,4.2-16.5,3.8-25.2c0.2,0,0.4,0,0.6,0C481.1,135.5,482.2,142.6,480.3,149.6z"/>
	<path class="st3" d="M480.5,191.1c0-2.2-0.1-4.4-0.1-6.6c0.4,0,0.8-0.1,1.2-0.1c1.2,2.2,0.4,4.5,0.6,6.7
		C481.6,191.1,481,191.1,480.5,191.1z"/>
	<path class="st3" d="M481.2,128.4c-0.2,0-0.4,0-0.6,0c-1.8-2-0.7-4.5-1-6.7C481.3,123.6,481.4,126,481.2,128.4z"/>
	<path class="st3" d="M482.9,179.3c0,1.4,0.4,2.9-1.4,3.5C481.2,181.4,481.4,180.1,482.9,179.3z"/>
	<path class="st2" d="M394.6,204.7C394.6,204.7,394.5,204.7,394.6,204.7c-0.2-1.9-3.4-2.1-2.5-4.5c4.9,2.6,9.9,5.2,14.8,7.9"/>
	<path class="st3" d="M471.2,209.8c1.6-3,3.2-6.1,6.5-7.7C477.2,206.1,474.8,208.5,471.2,209.8z"/>
	<path class="st3" d="M466,213.1c0.1-2.9,2-3.4,4.4-3C470.2,213,467.9,212.8,466,213.1z"/>
	<path class="st3" d="M449.1,218.7c0.6-1.2,1.6-1.2,2.6-0.7C451.1,219.2,450.2,219.5,449.1,218.7z"/>
	<path class="st3" d="M464.1,83.6c4-0.6,6,2.5,7.6,4.9c2.2,3.2,6.9,4.6,6.9,9.3C472.9,93.9,468.6,88.7,464.1,83.6z"/>
	<path class="st1" d="M469.3,97.2c-2.2-2.8-6.4-3.8-6.8-8C466.6,90.3,468.5,93.2,469.3,97.2z"/>
	<path class="st1" d="M453.2,80.9c-1.1-0.3-2.2-0.6-3.4-0.9c-0.8-0.8-0.9-1.7-0.8-2.8C451.6,77.1,453.1,78.3,453.2,80.9z"/>
	<path class="st3" d="M459.2,77.4c0.5,0,1.1,0,1.6,0c0.3,1.4,0.6,2.7,0.9,4.1c-1.1-0.1-1.9-0.8-2.7-1.6
		C459.1,79.1,459.1,78.2,459.2,77.4z"/>
	<path class="st1" d="M459.2,77.4c0,0.8-0.1,1.7-0.1,2.5c-1.4-0.6-1.8-1.8-1.7-3.2C458.1,76.5,458.7,76.7,459.2,77.4z"/>
	<path class="st1" d="M455.8,74.8c1.1,0.2,1.6,0.7,1.4,1.8C456.2,76.4,455.8,75.7,455.8,74.8z"/>
	<path class="st3" d="M479.5,98.7c1.1,0,1.7,0.5,1.7,1.6C480.1,100.3,479.6,99.7,479.5,98.7z"/>
	<path class="st3" d="M375,190.3c0.5-2.4,1.5-3.9,4.3-4.4c3.3-0.5,6.2-2.8,9-4.4c4-2.3,8.1-2.9,12.3-3.9c-0.3,1.3-0.7,2.8-2,3
		c-8.3,1-14.8,6-21.9,9.4C376.2,190.3,375.6,190.2,375,190.3z"/>
	<path class="st3" d="M464.9,192.8c-0.6-0.5-1.2-1.1-1.8-1.6c-0.2-1.4-0.5-2.9-0.7-4.3C465,188.1,464.5,190.7,464.9,192.8z"/>
	<path class="st3" d="M370,192.9c0.7-1.4,1.7-2.5,3.4-2.5C373,192.3,371.7,193,370,192.9z"/>
	<path class="st3" d="M461,183.4c1.5,0.4,1.5,1.6,1.4,2.8c-0.4-0.2-0.9-0.5-1.3-0.7C461,184.9,461,184.2,461,183.4z"/>
	<path class="st1" d="M451.5,181c0.7,0,1.4,0.1,2.1,0.1C452.8,181.8,452.1,182.1,451.5,181z"/>
	<path class="st3" d="M193.4,183.7c-5.5-1.1-10.5-4.2-16.3-3.7c-0.6,0.1-1.2,0.2-1.7,0c-9.3-3.4-18.4-0.6-27.5,0.8
		c-0.2,0-0.5-0.2-1-0.4c1.8-2.1,4.1-3.3,6.3-4.6c3.3,0.9,6.6,1.9,9.5-1c0.3-0.3,0.8-0.4,1.2-0.4c11.5,1.7,23.1,3,34.4,5.3
		c5.8,1.2,12.3,2.9,16.7,6.5c6.7,5.5,15.7,8.4,20.1,16.7c0.4,0.7,1,1.4,1.7,1.8c6.3,3.6,8.6,9.8,10.7,16.2c-3.4-1.2-5.3-3.9-7.2-6.8
		c-0.7-1.1-1.1-2.6-2.1-3.1c-4.5-2.5-9.1-4.7-13.7-7c-1.6-0.9-3.3-1.9-4.9-2.8c-2.5-4-6.7-6-10.5-8.5"/>
	<path class="st3" d="M142,177.5c-3.3,2.7-4.4,7.6-9.3,8.6c-0.6,0-1.2-0.1-1.8-0.1c0-0.1,0-0.3,0.1-0.4c5.2-4.8,8.8-10.7,12.7-16.5
		C143.8,172,141.3,174.4,142,177.5z"/>
	<path class="st3" d="M156.7,170.3c-0.1,1.6-0.8,2.8-2.5,3.2C154,171.6,155,170.7,156.7,170.3z"/>
	<path class="st3" d="M163.5,154.5c2.6,1.6,0.4,2.1-0.7,2.9C162.4,156.3,163,155.4,163.5,154.5z"/>
	<path class="st3" d="M150.7,52.8c-0.1-1,0.3-1.6,1.2-1.9C152.2,52,151.7,52.5,150.7,52.8z"/>
	<path class="st3" d="M159,34.7c0.1-0.9,0.6-1.4,1.4-1.6C160.7,34.3,160,34.7,159,34.7z"/>
	<path class="st3" d="M152.4,48.5c-0.1-0.9,0.3-1.5,1.1-2C153.9,47.7,153.4,48.3,152.4,48.5z"/>
	<path class="st3" d="M153.9,45c0-0.7,0.1-1.3,0.8-1.6C154.4,44,154.2,44.5,153.9,45z"/>
	<path class="st3" d="M208.7,214.9c-1.3,1.4-2.2,3.3-4.5,3.5C204.5,215.7,206.2,214.9,208.7,214.9z"/>
	<path class="st3" d="M210.1,213.2c-0.3,0.4-0.6,0.8-0.9,1.1C209.5,214,209.8,213.6,210.1,213.2z"/>
	<path class="st3" d="M163.2,240.4c-12.3,0.2-23-4.4-33-11.1c-0.3-1.1-0.6-2.1-1-3.2c5.8,2.4,11.2,5.7,17,8.2
		c5.6,2.4,11,4.6,17.1,4.6C163.3,239.4,163.3,239.9,163.2,240.4z"/>
	<path class="st1" d="M163.2,240.4c0.1-0.5,0.1-1,0.2-1.5c1.4,0,2.8-0.1,4.2-0.1c1,1,1.4,0.3,1.8-0.6c2.9-0.3,5.7-0.8,8.3-2.1
		c1.4-0.1,3.1,0.6,3.2-1.8c2.4-1,4.3-3.2,7.1-3c0.2,2.6-2.3,3.2-3.7,4.1c-5.8,3.8-12.1,6.4-19.3,5.8
		C164.4,241.1,163.8,240.6,163.2,240.4z"/>
	<path class="st3" d="M128.4,225.2c-3,0.6-4.4-1.6-5.5-3.6c-2.1-3.6-6.1-6.6-4-11.6c1.8,4.4,4.4,8.4,8,11.5
		C127.9,222.4,128.6,223.6,128.4,225.2z"/>
	<path class="st3" d="M118.3,202.2c0.3-1.8-1.2-4,1.3-5.3C119.6,198.8,120.9,201,118.3,202.2z"/>
	<path class="st3" d="M130.4,188.8c-0.2,1-0.8,1.6-1.8,1.6c-0.1-1.4-0.5-3,1.4-3.6C130.1,187.5,130.3,188.1,130.4,188.8z"/>
	<path class="st1" d="M130.4,188.8c-0.1-0.7-0.3-1.3-0.4-2c0.3-0.3,0.6-0.6,0.9-0.9c0.6,0,1.2,0.1,1.8,0.1
		C132.9,187.8,132.1,188.7,130.4,188.8z"/>
	<path class="st3" d="M180.9,234.3c0,2.4-1.8,1.8-3.2,1.8C178,234.2,179.6,234.5,180.9,234.3z"/>
	<path class="st3" d="M169.4,238.2c-0.4,0.9-0.9,1.6-1.8,0.6C168,238.1,168.6,237.9,169.4,238.2z"/>
	<path class="st4" d="M109.7,121.5c5-2.7,6.2-8.7,10.5-12c0.7-0.6,1.2-1.5,2.2-1.8c-0.1,2.9-2.1,4.9-3.6,7c-4,5.7-7.1,12-11.7,17.2
		c0-1.5,0-3,0-4.5"/>
	<path class="st3" d="M252.9,232.6c0.8,0,1.7,0.1,2.5-0.1c1-0.2,1.9-0.7,2.4,0.6c0.5,1.2-0.5,2.2-1.1,2.4c-3,1-0.9,2.6-0.7,4
		c-1.5-0.4-3.1-0.9-5.1-1.4C252.5,236.3,254.3,234.9,252.9,232.6z"/>
	<path class="st3" d="M250.1,222.5c1.6,1,3.2,2,4.9,3.1c-0.9,1.4-2.7,1.9-2.5,3.7C249.9,227.7,250.9,224.8,250.1,222.5z"/>
	<path class="st2" d="M453.4,52.6c-3.5,0.2-6.6,1.8-10.5,1.2c-3.9-0.6-6.9-2.4-10.1-4.1c0.3-0.1,0.7-0.3,1-0.4c0,0,0.4,0,0.4,0
		l0.4-0.1c2.6,0,5.1,0,7.7,0c1.7,1.6,3.9,0.6,5.8,1.1C449.5,51.7,452.2,50.3,453.4,52.6z"/>
	<path class="st1" d="M447.9,50.3c-1.9-0.5-4.1,0.5-5.8-1.1C444.3,48.5,446.5,47.1,447.9,50.3z"/>
	<path class="st1" d="M434.5,49.2l-0.4,0.1c0,0-0.4,0-0.4,0C434,49.2,434.2,49.2,434.5,49.2z"/>
	<path class="st1" d="M441.3,117.2c-0.2,2.6,0.2,5.3-2.4,7.1C439.1,121.7,439,119.1,441.3,117.2z"/>
	<path class="st1" d="M438.8,125.7c1.1,1.2,0.1,1.6-0.8,2C437.9,126.9,438.1,126.2,438.8,125.7z"/>
	<path class="st1" d="M437.9,131.5c0.1,1.2-0.5,1.8-1.6,2.1C436.2,132.5,436.8,131.8,437.9,131.5z"/>
	<path class="st1" d="M421.8,44.2c-3.5-2.4-5.8-5.7-7.6-9.4c4.2,0.5,4.8,4.9,7.5,6.9C421.8,42.5,421.8,43.4,421.8,44.2z"/>
	<path class="st4" d="M166.1,22.1c0,0.4-0.1,0.7-0.1,1.1c-0.3-0.4-0.7-0.7-1-1.1C165.4,22.1,165.7,22.1,166.1,22.1z"/>
	<path class="st1" d="M289.2,165.9c-3.3-0.1-3.2-2.9-2.9-4.6c2.2-12.6,3.1-25.3,6.1-37.8c1.6-6.6,3.7-13.8,0.4-21
		c-0.8-1.8-0.5-5.1,0.6-7.9c1.1-3,2.5-6.8-1.6-10.5c2.2,0.8,3.8,1.2,3.7-1.3c-0.1-5.3,4-9.9,2.6-15.6c-0.4-1.7,2-2.8,3.7-3.6
		c1,1.3,1.8,2.7,1.5,4.5c-3.4,4.6,0.9,11.4-4.6,15.4c-0.1,0.1,0.2,0.5,0.2,0.8c0.3,5.1,0.7,10.3-1,15.3c-1.7,4.8-2.2,9.9-2.2,15
		c0,1.7,0.3,3.1,1.9,3.9c-3.2,7.2-3.8,15-4.6,22.7c-0.6,4.6-3.1,8.9-1.5,13.9c0.5,1.7,0.1,4.2-1.5,5.5c-1.7,1.4-1.3,2.9-0.9,4.5
		C289.3,165.3,289.3,165.6,289.2,165.9z"/>
	<path class="st2" d="M356.5,66.3c-1.5,6.4-4,12.5-7.7,17.9c-2.7,4-5.7,7.8-8.6,11.8c-4.8-0.4-5.9,3.6-7.5,6.7
		c-0.9,1.7-1.5,3.3-3.6,3.6c2-4.6,3.6-9.5,6.1-13.8c3.5-6,4.1-13.1,6.9-19.1c2.7-5.7,5.5-12.5,14.3-13.7c-6.8,5-8.6,12-11.2,18.4
		c2.6-0.8,2.5-3.2,3.4-4.9C350.5,69.8,354.8,69.6,356.5,66.3z"/>
	<path class="st1" d="M317.2,137.7c-0.7,3.6-1.9,6.9-3.3,10.3c-1.4,0-2.8,0.7-3,1.9c-0.7,5.1-4.3,9.1-5.5,14c-0.5,2-1.2,3.7-3.3,4.5
		c-0.2-0.8,0.1-1.9-0.9-2.1c-1.3-0.3-1.4,1-1.8,1.8c-1.5,3.7-3.5,7-6.7,9.6c1.8-8.4,6.7-15.3,10.2-22.9c7-7.1,8.3-16.8,11.8-25.5
		c0.3-0.3,0.5-0.6,0.8-0.9C316.7,131.3,315.7,134.7,317.2,137.7z"/>
	<path class="st2" d="M314.6,129.2c-3.5,8.7-4.8,18.4-11.8,25.5c-0.6-0.8-1.8-1.3-1.3-2.8c2.1-6.6,1.4-13.7,3.8-20.2
		c2-5.5,2.7-11.4,5.8-16.8c0.5,0,0,2.9,1.8,1.3c0.5,1.1,3.3-0.8,2.5,2c-3.6,5.1-4.4,11.1-5,17.3c1.2-2.1,2.3-4.2,3.5-6.3
		C314.1,129.1,314.4,129.1,314.6,129.2z"/>
	<path class="st1" d="M344.5,59.6c-3-1.2-3.7-4.2-0.9-6.2c7.4-5.3,13.3-12.6,21.9-16.1c2.6-1.1,4.7-3,7.1-4.5c1.5-0.9,3.1-2.2,5-0.6
		c-9.3,6.6-16.7,15.6-26.9,20.9C347.9,54.6,347.1,58.1,344.5,59.6z"/>
	<path class="st3" d="M297.8,118.4c-1.6-0.9-1.9-2.3-1.9-3.9c0-5.1,0.5-10.1,2.2-15c1.8-5,1.3-10.2,1-15.3c0-0.3-0.3-0.7-0.2-0.8
		c5.5-4,1.2-10.8,4.6-15.4c0.1,0.8,0.1,1.6,0.2,2.5c0.2,3.4-1,6.9,0.8,10.2c0,0.6-0.1,1.1-0.1,1.7c-1.6,1.5-0.7,3.4-0.7,5.1
		C302.8,98.1,300.5,108.3,297.8,118.4z"/>
	<path class="st1" d="M329.1,106.3c2.1-0.3,2.7-1.9,3.6-3.6c1.6-3.1,2.7-7.1,7.5-6.7c-0.4,1.9-1.1,3.8-0.8,5.8
		c-1.6,0.3-1.6,1.6-1.9,2.8c-1,0-2.3-0.2-2.6,0.8c-1.4,3.8-5,6.4-5.1,10.8c-3.9,4-5,9.6-8.2,13.9c-2.5-0.7-1.5-2.4-1.5-4.1
		c0-4.2,4.3-6.5,4.7-10.5C325,111.8,327.9,109.4,329.1,106.3z"/>
	<path class="st2" d="M289.4,165c-0.4-1.6-0.8-3.1,0.9-4.5c1.6-1.4,2-3.8,1.5-5.5c-1.5-4.9,0.9-9.3,1.5-13.9c2,0.9,4.1,1.8,4.7-1.7
		c1.2,2.1,0.9,3.7,0,5.8c-2.6,5.5-2.6,11.8-5.3,17.4C291.8,164.4,291,164.9,289.4,165z"/>
	<path class="st2" d="M324.7,115.5c-0.4,4-4.6,6.3-4.7,10.5c0,1.6-1,3.4,1.5,4.1c-1,2.8-1.9,5.6-4.3,7.6c-1.5-3-0.5-6.4-1.8-9.4
		C315,121.4,320.2,118.7,324.7,115.5z"/>
	<path class="st1" d="M313.9,129.1c-1.2,2.1-2.3,4.2-3.5,6.3c0.6-6.2,1.4-12.2,5-17.3C314.9,121.8,314.4,125.5,313.9,129.1z"/>
	<path class="st2" d="M304.5,80.7c-1.8-3.3-0.6-6.8-0.8-10.2C306.6,73.7,305.3,77.3,304.5,80.7z"/>
	<path class="st2" d="M303.7,87.6c0-1.7-0.9-3.6,0.7-5.1C305.3,84.3,306.2,86.2,303.7,87.6z"/>
	<path class="st2" d="M312.1,107.1c0-1.1-0.2-2.4,0.9-3.2C314.1,105.3,314.2,106.5,312.1,107.1z"/>
	<path class="st2" d="M313.1,101.9c-0.2-0.9-0.2-1.8,0.6-2.4C314.9,100.7,314.8,101.5,313.1,101.9z"/>
	<path class="st2" d="M314.4,112.2c-0.1,0.1-0.1,0.2-0.2,0.2c-0.1-0.1-0.1-0.2-0.1-0.3c0-0.1,0.1-0.2,0.2-0.2
		C314.3,112,314.3,112.1,314.4,112.2z"/>
	<path class="st1" d="M301.9,62.2c-0.6-0.4-0.5-0.7,0-1.1C301.9,61.5,301.9,61.8,301.9,62.2z"/>
	<path class="st1" d="M280.3,122.3c-0.9-1.4-0.9-2.7,0.8-3.6C281.4,120.1,281.8,121.4,280.3,122.3z"/>
	<path class="st3" d="M351.3,101c1-0.7,2.1-0.9,3.2-0.8c3.3,2.3,4-1.7,6-2.5c0,0-0.1,0.1-0.1,0.1c0.2-0.2,0.5-0.5,0.7-0.7
		c7.6-4.7,13.6-11.3,19.8-17.6c3.4-3.5,6.7-8.1,8.3-13.1c2.8-8.8,8.7-13.7,17.6-15.6c2.4-0.5,5.1-0.5,7.1-2.5c2.4,2.1,4.3,4.5,3.5,8
		c-4.3-0.3-8.2,1-11.8,3.4c-2.1-0.6-4,0.2-6.1,0.5c-3.8-0.2-4.2,2.5-4.5,5.3c0.1,0.6,0.2,1.1,0.3,1.7c-0.3,0.3-0.5,0.7-0.8,1
		c-1.3,0.3-1.9,1.1-1.6,2.5c-0.7,0.7-1.7,1.2-1.7,2.5c-1,0.2-1.6,0.7-1.6,1.8c-5.6,10.1-14.9,17.3-21.6,26.6
		c-3.9,5.4-9.7,8.8-15.2,12.4c-1.6,0.1-1.7,1.3-1.7,2.5c-0.8,0.6-1.7,1.2-2.5,1.7c-3.6-0.9-7.3,0.9-9.1,4.4
		c-0.6,0.3-1.2,0.6-1.8,0.9c-1.4-0.2-2.9,0.1-4-1.1c0.1-0.5,0.1-1.1,0.2-1.6c1.2-1.1,1.1-2.2,0.1-3.4c0.9-2.2,0.4-4.8,2-6.9
		c0.6-0.1,1.5,0.1,1.6-0.2c1.7-3.4,4.9-4.1,8-5.4C347.6,104.1,351.4,105,351.3,101z"/>
	<path class="st0" d="M372.4,760.2c0.3,0.1,0.7,0.2,1,0.3c-0.4,0.2-0.7,0.4-1.1,0.7C372.3,760.8,372.4,760.5,372.4,760.2z"/>
	<path class="st7" d="M313,724.4c0.3-0.4,0.5-0.3,0.8,0c0,0-0.4,0-0.4,0L313,724.4z"/>
	<path class="st2" d="M302,168.3c2.1-0.8,2.8-2.5,3.3-4.5c1.3-4.9,4.8-8.8,5.5-14c0.2-1.2,1.5-2,3-1.9c-1.4,7.2-4.1,14.2-4,21.8
		c0.1,2.7,1.2,5.7-0.6,8.3c0.4,0.2,0.8,0.3,1.1,0.5c0.5,3-2.2,5.3-1.8,8.3c-0.5,1.3-1,2.5-1.5,3.8c-1.8-2.4-0.9-5.1-0.6-7.7
		c0.5-4.3,1-8.5,1.6-13.2c-5,1-4.8,5.5-7,9.3c0-3.2,0-5.3,0-7.3C302.2,170.8,301.9,169.5,302,168.3z"/>
	<path class="st1" d="M313.9,688.6c-0.9,0.1-1.7-0.2-2.3-0.8c-5.4-4.6-10.6-9.5-14-15.9c1.7-1.8,3.2-1.5,4.1,0.7
		c1.9,5.2,7.4,7.4,10.1,12C312.5,685.9,313.5,687.1,313.9,688.6z"/>
	<path class="st1" d="M323.2,693.8c-2.1-0.5-4.2-0.9-5.2-3.2C320.1,691,322.3,691.4,323.2,693.8z"/>
	<path class="st1" d="M324.8,695.6c-1.1-0.1-1.6-0.7-1.6-1.7C324.3,694,324.8,694.6,324.8,695.6z"/>
	<path class="st13" d="M296.8,678.6c-1.1,0-1.7-0.6-1.8-1.7C295.7,677.5,296.2,678.1,296.8,678.6z"/>
	<path class="st6" d="M294.2,676.9c-0.3-0.3-0.6-0.6-0.9-0.9c0.3,0,0.5,0.1,0.8,0.2C294.2,676.5,294.2,676.7,294.2,676.9z"/>
	<path class="st13" d="M294.2,676.9c0-0.2-0.1-0.5-0.1-0.7c0.3,0.2,0.6,0.5,0.9,0.7c0,0-0.4,0-0.4,0L294.2,676.9z"/>
	<path class="st2" d="M318.5,502.6c0,0.1,0.1,0.2,0.1,0.3c0,0.1-0.1,0.2-0.2,0.2C318.5,502.9,318.5,502.7,318.5,502.6z"/>
	<path class="st2" d="M268.2,362.5c-1.3-1.8-2.3-3.2-3.3-4.5c-0.7-0.8-1.4-1.6-0.2-2.4c1.1-0.8,2.3-0.4,2.8,0.8
		C268.2,358.1,269.3,359.9,268.2,362.5z"/>
	<path class="st1" d="M321.5,349.1c1.8-0.5,0.7-3.7,3.2-3.5c-0.5,2-0.9,4-1.4,6.1C321.6,351.3,321.8,350,321.5,349.1z"/>
	<path class="st3" d="M313.8,410.3c0.1-0.1,0.1-0.2,0.2-0.3C313.9,410.1,313.8,410.2,313.8,410.3
		C313.8,410.3,313.8,410.3,313.8,410.3z"/>
	<polygon class="st3" points="178.7,165.1 178.7,165.4 178.4,165.3 	"/>
	<path class="st9" d="M326.5,171.6c-0.3,0-0.6,0-0.8,0c0.3-0.6,0.5-1.3,0.8-1.9C326.5,170.4,326.5,171,326.5,171.6z"/>
	<path class="st8" d="M471.8,163.9c-0.6,4-3.5,3.8-6.3,3.1c-3.2-0.8-6.3-2.1-9.7-2.2c-1-0.7-0.8-1.6-0.5-2.6c1.9,0,3.6,0.1,5.5,1.5
		C464.1,166.2,468,165.3,471.8,163.9z"/>
	<path class="st8" d="M475.9,156c0.6,1.9-0.8,3.6-0.7,5.4c-1.4,0.5-1.5,2.7-3.4,2.4C472.6,160.9,474.3,158.5,475.9,156z"/>
	<path class="st8" d="M476.8,153.5c-0.2,0.3-0.4,0.7-0.6,1C476.4,154.2,476.6,153.9,476.8,153.5z"/>
	<path class="st1" d="M374.2,106.6c-0.6-2.4,1.6-4.2,1.5-6.5c2.1-3.1,4.5-6.1,5.9-9.6c2.2-5.3,7.2-8.5,10.5-13
		c0.6-0.8,2.6-1.7,3.8-0.3c0.9,1,0.5,2.4-0.5,3.5c-1.3,1.5-2.6,2.9-4,4.3c-0.7,0.2-1.7,0.1-1.9,0.5c-2.6,4.8-6.9,8.5-8.5,14"/>
	<path class="st2" d="M334.1,120.7c-0.1,0.5-0.1,1.1-0.2,1.6c-0.9,0.6-1.9,1.3-2.8,1.9c-0.3-1.5-0.3-3,0.3-4.5
		c0.7-1.7,0.4-3-1.6-3.6c0.1-4.3,3.7-7,5.1-10.8c0.4-1,1.7-0.8,2.6-0.8c0,2-1.9,3.6-1.4,5.8c-1.6,2-1.1,4.7-2,6.9
		C333.1,118.4,333.2,119.5,334.1,120.7z"/>
	<path class="st1" d="M308.6,186.8c-0.4-3,2.4-5.3,1.8-8.3c1.6-2.7,3.3-5.4,4.9-8c0,5.9-1.4,11.2-3.4,16.5
		C310.8,186.9,309.7,186.9,308.6,186.8z"/>
	<path class="st1" d="M331,124.2c0.9-0.6,1.9-1.3,2.8-1.9c1.1,1.2,2.6,0.9,4,1.1c0.2,0.5,0.4,1,0.7,1.5c-3.6,1-3.8,5.6-7.3,6.7
		c-1,0.3-1.9,1-2.9,1.6c0-1.2-0.8-1.4-1.8-1.5C328,129.2,329.5,126.7,331,124.2z"/>
	<path class="st2" d="M375.6,100.2c0.2,2.3-2.1,4.1-1.5,6.5c-2,2.7-4.6,4.3-8.1,4.9C369,107.4,371.9,103.5,375.6,100.2z"/>
	<path class="st3" d="M381,99.5c1.6-5.4,5.8-9.2,8.5-14c0.2-0.4,1.3-0.4,1.9-0.5C388.3,90.1,386.7,96.3,381,99.5z"/>
	<path class="st2" d="M399.7,60.2c2-0.3,4-1.1,6.1-0.5c-1.5,3.5-5,3.6-7.8,4.7C398.5,63.1,399.1,61.7,399.7,60.2z"/>
	<path class="st1" d="M339.6,122.6c1.8-3.5,5.5-5.3,9.1-4.4c-0.6,0.6-1.1,1.1-1.7,1.7C344.5,120.8,342,121.7,339.6,122.6z"/>
	<path class="st2" d="M339.6,122.6c2.5-0.9,4.9-1.8,7.4-2.7c-2,3-5.2,4.2-8.5,5.1c-0.2-0.5-0.4-1-0.7-1.5
		C338.4,123.1,339,122.8,339.6,122.6z"/>
	<path class="st1" d="M399.7,60.2c-0.6,1.4-1.2,2.8-1.8,4.3c-0.1,0.2-0.2,0.5-0.3,0.8c-0.8,0.1-1.7,0.2-2.5,0.3
		C395.5,62.7,395.9,60.1,399.7,60.2z"/>
	<path class="st2" d="M326.5,131.7c0.9,0.1,1.7,0.4,1.8,1.5c-0.2,1.9-1.3,1.7-2.5,1.1l-0.1-0.1c0-0.3,0-0.5,0-0.7
		C326.3,133,326.5,132.4,326.5,131.7L326.5,131.7z"/>
	<path class="st2" d="M325.7,134.3c-0.2,1.3-1.1,2-2.3,2.5C322.9,134.8,324,134.3,325.7,134.3C325.6,134.2,325.7,134.3,325.7,134.3z
		"/>
	<path class="st1" d="M351.2,116.4c0.1-1.2,0.1-2.4,1.7-2.5C352.8,115.1,353,116.4,351.2,116.4z"/>
	<path class="st2" d="M395.1,65.5c0.8-0.1,1.7-0.2,2.5-0.3c0.3,1.9-1,1.9-2.2,1.9C395.3,66.6,395.2,66.1,395.1,65.5z"/>
	<path class="st2" d="M389.7,74.9c0-1.1,0.7-1.6,1.6-1.8C392.5,75.3,390.5,74.6,389.7,74.9z"/>
	<path class="st2" d="M393,70.6c-0.2-1.3,0.4-2.1,1.6-2.5C394.7,69.4,394.5,70.5,393,70.6z"/>
	<path class="st1" d="M326.5,131.7c0,0.7-0.2,1.4-0.9,1.8C325.7,132.7,325.8,132.1,326.5,131.7z"/>
	<path class="st4" d="M301.8,333.8c0-1.1,0-2.1-0.1-3.2c1.1-0.1,2.4-0.3,2.6,1.3C304.5,333.7,303.1,333.8,301.8,333.8z"/>
	<path class="st1" d="M321.3,367.8c2.6,4.9,0,9.9,0,14.9c0,0.3-0.6,0.8-0.8,0.8c-0.5-0.1-1.2-0.5-1.3-0.8
		c-1.4-6.1-4.7-11.8-3.6-18.3c1.7,0.6,2.4,2.2,3.1,3.7c0.3,0.7,0,2,1.1,1.8C320.5,369.6,320.8,368.5,321.3,367.8z"/>
	<path class="st2" d="M321.3,367.8c-0.5,0.7-0.8,1.8-1.4,1.9c-1.1,0.2-0.8-1.1-1.1-1.8c-0.7-1.5-1.4-3-3.1-3.7c0-1.1,0-2.2,0.1-3.3
		c0.1-0.9,0.7-1.5,1.7-1.5c0.8,0,1.2,0.6,1.4,1.3C319.5,363.2,321.4,365.2,321.3,367.8z"/>
	<path class="st4" d="M336.1,110.4c-0.5-2.2,1.4-3.8,1.4-5.8c0.3-1.2,0.4-2.5,1.9-2.8c4.1,0.9,7.9-0.7,11.9-0.8
		c0.1,4-3.7,3.1-5.6,3.8c-3.2,1.3-6.4,2-8,5.4C337.5,110.4,336.6,110.3,336.1,110.4z"/>
	<path class="st4" d="M360.5,97.7c-2,0.8-2.7,4.7-6,2.5C356.4,99.1,358.2,97.7,360.5,97.7z"/>
	<path class="st4" d="M361.2,97c-0.2,0.2-0.5,0.5-0.7,0.7C360.7,97.5,361,97.2,361.2,97z"/>
	<path class="st1" d="M334.1,120.7c-0.9-1.2-0.9-2.3,0.1-3.4C335.2,118.4,335.3,119.6,334.1,120.7z"/>
</g>
</svg>
