<?xml version="1.0" encoding="utf-8"?>
<!-- Generator: Adobe Illustrator 27.5.0, SVG Export Plug-In . SVG Version: 6.00 Build 0)  -->
<svg version="1.1" id="央铋_1" xmlns="http://www.w3.org/2000/svg" xmlns:xlink="http://www.w3.org/1999/xlink" x="0px" y="0px"
	 viewBox="0 0 1591.81 2171.18" style="enable-background:new 0 0 1591.81 2171.18;" xml:space="preserve">
<style type="text/css">
	.st0{fill:#715837;}
	.st1{fill:#A8C9EF;}
	.st2{fill:none;stroke:#3E71AF;stroke-width:7;stroke-linecap:round;stroke-linejoin:round;stroke-miterlimit:10;}
	.st3{fill:none;stroke:#34588A;stroke-width:5.0411;stroke-linecap:round;stroke-linejoin:round;stroke-miterlimit:10;}
	.st4{fill:#CD7245;}
	.st5{fill:#764228;}
	.st6{fill:#F2DCD1;}
	.st7{fill:#272727;}
	.st8{fill:#F4C08E;}
	.st9{fill:#F9E6DE;stroke:#211610;stroke-width:5.0411;stroke-linecap:round;stroke-linejoin:round;stroke-miterlimit:10;}
	.st10{stroke:#211610;stroke-width:5.0411;stroke-linecap:round;stroke-linejoin:round;stroke-miterlimit:10;}
	.st11{fill:none;stroke:#211610;stroke-width:5.0411;stroke-linecap:round;stroke-linejoin:round;stroke-miterlimit:10;}
	.st12{fill:#A98C7C;stroke:#211610;stroke-width:5.0411;stroke-linecap:round;stroke-linejoin:round;stroke-miterlimit:10;}
</style>
<g>
	<path class="st0" d="M155.12,2117.54c0,0-134.89-113.59-92.29-372.73c42.6-259.12,160.8-311.55,118.2-460.64
		c-42.62-149.11-72.06-332.74,34.46-472.96c106.49-140.2,170.38-173.93,220.08-346.1s257.36-276.87,349.65-298.17
		c92.29-21.3,335.45-136.67,482.77,53.24c147.32,189.92,172.17,449.04,131.34,635.4c-40.81,186.37-124.24,287.54-140.2,427.74
		c-15.98,140.22,14.2,255.6,30.16,354.98c15.98,99.39-47.91,221.86,28.4,339c76.33,117.14,85.19,165.07,85.19,165.07L155.12,2117.54
		z"/>
	<path class="st1" d="M172.62,875.45c3.57-7.85,7.46-15.92,11.64-24.19c31.79-62.79,80.24-137.28,125.75-213.99
		c92.81-156.32,174.25-516.5,746.44-543.93c728.01-34.91,467.8,817.66,361.45,1084.03c-106.37,266.36,7.42,386.75-2.22,503.57
		c-9.63,116.82-7.82,483.54-7.82,483.54l-366.63-39.11L142.78,976.69C142.78,976.69,148.11,929.41,172.62,875.45z"/>
	<path class="st2" d="M447.66,395.82c196.86,51.77,470.13,27.2,659.5-44.77c47.07-17.88,73.59-91.88,105.18-101.08
		c24.01-6.99,71.67,5.4,92.31-10.97c25.19-19.96,46.1-104.2,37.94-73.14"/>
	<path class="st2" d="M419.78,440.18c200.36,49.49,512.43,59.73,702.94-24.06c18.38-8.07,67.37-73.89,115.6-104.54
		c41.28-26.23,96.65-18.99,110.58-30.59c19.24-16.05,33.76-41.83,44.67-62.83c5.4-10.4,11.37-31.63,8.23-20.46"/>
	<path class="st2" d="M1476.89,269.39c2.33,0.61-18.97,15.62-24.06,19.42c-20.21,14.99-38.84,31.77-55.3,50.51
		c-48.36,55.05-107.05,136.74-111.62,213.2c-4.43,74.27-0.5,159.03-21.59,227.13c-59.37,191.63-86.43,377.32,107.05,547.27"/>
	<path class="st2" d="M1377.34,1449.31c-49.72-67.13-114.83-126.75-152.84-202.44c-106.22-211.57-32.58-434.75-0.02-653.11
		c18.74-125.68,50.08-168.41,119.62-267.58c17.52-24.96,50.4-48.27,74.97-66.47c12.03-8.91,31.49-23.74,28.87-14.92"/>
	<path class="st2" d="M1329.62,296.75c-152.25,112.73-157.43,274.9-189.53,446.46c-23.85,127.47-38.93,310.65-1.83,437.51
		c21.86,74.75,61.2,132.31,100.14,198.35c58.62,99.48,107.05,193.87,175.56,286.39"/>
	<path class="st2" d="M346.87,575.47c5.27-2.03,185.1,32.2,202.69,35.07c145.69,23.81,300.32,14.11,444.83-9.99
		c54.06-9.02,132.06-18.22,176.01-54.49"/>
	<path class="st2" d="M328.65,612.37c30.75,2.94,55.46,35.34,88.18,41.78c51.53,10.2,107.84-15.01,161.43-9.88
		c35.22,3.37,58.24,34.46,91.66,42.53c60.57,14.65,132.56-7.26,192.34-19.13c67.71-13.45,132.87,7.23,198.26-2.62
		c22.56-3.41,46.12-8.84,67.31-17.02c6.99-2.69,38.55-13.54,26.18-8.77"/>
	<path class="st2" d="M306.74,649.94c-3.21,33.55,116.8,45.78,139,45.44c33.24-0.5,65.02-12.8,98.96-4.59
		c40.61,9.81,65.43,48.9,106.13,57.99c70.52,15.76,176.42-21.59,256.59-13.93c54.53,5.2,102.15,30.79,155.26,5.47
		c15.89-7.6,34.86-15.8,52.45-18.45c5.99-0.9,24.58-1.4,21.73-1.67"/>
	<path class="st2" d="M282.77,706.47c12.23-3.62,27.22,22.56,39,28.13c42.12,19.94,94.51,33.94,141.08,38.25
		c74.07,6.87,152.75-1.65,225.3,17.54c59.46,15.76,129.41,59.35,191.52,59.08c70.83-0.29,178.52-23.78,242.59-42.75"/>
	<path class="st2" d="M1063.35,826.09c1.04-2.46-1.74,5.99-2.24,8.61c-1.7,8.7-4.54,17.66-5.25,26.48
		c-2.01,24.85-1.02,48.54-0.75,73.39c0.77,76.6,4.57,151.82,19.85,228.12c23.47,117.16,88.31,220.23,146.28,321.59
		c35.11,61.41,65.57,124.67,105.18,183.29c21.95,32.49,52.84,53.11,76.71,81.19"/>
	<path class="st3" d="M983.06,834.09c7.3,29.75-6.06,71.06-5.13,101.99c1.54,51.3,10.99,104,16.96,154.98
		c25.07,213.5,123.47,425.19,244.79,600.54c41.35,59.78,96.09,146.12,165.79,175.79"/>
	<path class="st3" d="M892.11,850.62c7.05,5.02-0.11,56.05-0.41,64.98c-1.81,57.88,8.37,117.52,18.97,174.25
		c17.23,92.18,56.41,175.65,78.75,265.86c10.47,42.19,14.72,87.36,31.63,127.7c28.06,66.9,79.76,121.07,108.39,187.86
		c43.79,102.28,107.73,174.65,168.78,264.19c19.4,28.44,48.36,49.76,70.7,74.59c8.14,9.04,35.2,31.13,34.19,29.19"/>
	<path class="st3" d="M834.68,857.4c-38.84,54.49,3.89,306.13,17.82,371.67c28.71,135.02,94.19,247.55,146.8,372.98
		c84.94,202.53,203.37,425.21,385.55,555.1"/>
	<path class="st3" d="M736.38,801.2c8.09,15.28,0.72,54.78,0.75,71.85c0.07,69.18,8.55,138.43,18.77,206.76
		c30.54,204.29,90.91,439.02,188.24,622.49c53.61,101.04,110.6,199.12,164.23,300.22c17.32,32.65,42.03,60.43,58.83,92.09
		c5.4,10.2,13.93,20.91,20.89,30.02c1.85,2.4,12.55,16.57,9.11,10.11"/>
	<path class="st2" d="M234.75,774.34c4.93-4.23,7.91-2.69,13.36-0.41c42.8,17.95,71.11,48.93,118.63,62.92
		c71.51,21.03,142.89-21.61,214.58,8.43c39.36,16.5,68.66,2.4,106.33,12.21c11.1,2.89,57.45,13.79,41.47,12.59"/>
	<path class="st2" d="M191.77,842.6c10.35,4.34,32.08,0.86,44.88,4.43c28.37,7.94,49.83,30.09,78.39,38.84
		c31.25,9.59,64.07,5.54,96.13,7.94c52.48,3.96,99.1,26.32,153.49,28.4c46.12,1.74,73.93,1.02,116.69,18.95
		c14.04,5.88,27.18,6.6,41.98,5.61c3.32-0.23,18.54-0.61,15.24-2.01"/>
	<path class="st3" d="M162.18,912.34c15.78-1.04,37.89,22.2,57.18,24.51c60.1,7.17,123.22-3.57,183.11,12.03
		c32.83,8.57,57.27,33.69,90.46,41.51c26.7,6.31,53.31-2.06,79.83,1.11c53,6.31,114.15,62.22,173.46,37.94"/>
	<path class="st3" d="M148.81,957.95c38.3,16.05,54.06,38.91,99.23,44.86c72.01,9.47,151.62-4.75,221.61,17.39
		c99.66,31.52,184.11,98.67,287.52,91.75"/>
	<path class="st3" d="M145.13,1019.6c0.29-0.14,105.29,53.27,126.14,56.45c73.46,11.24,133.91,34.57,202.76,53.81
		c52.68,14.74,109.54,0.59,162.51,15.4c46.03,12.86,91.72,48.86,140.27,45.62"/>
	<path class="st3" d="M285.44,1250.96c19.47,8.16,63.64-13.95,90.21-6.51c101.74,28.42,143.16,84.69,259.57,81.23
		c40.65-1.22,80.33-6.29,121-5.61c6.29,0.09,63.26,2.31,57.13-4.82"/>
	<path class="st3" d="M201.58,1145.1c25.98-22.34,146.85,19.63,176.01,31.83c38.53,16.17,73.64,43.14,116.62,47.68
		c53.54,5.67,106.44-8.3,159.94-1.27c46.57,6.13,85.01,42.87,129.48,39.88"/>
	<path class="st3" d="M816.12,1575.9c-1.02-2.33,6.58,11.06,7.91,14.06c4.48,10.26,6.47,21,9.5,31.74
		c8.89,31.52,18.13,63.17,29.64,93.83c37.78,100.47,86.5,197.15,142.12,288.92c17.59,29.05,35.04,58.69,54.44,86.5
		c6.67,9.54,13.16,19.62,19.71,29.03c1.63,2.33,11.98,11.87,9.54,9.81"/>
	<path class="st2" d="M373.8,525.23c36.24,22.68,116.71,20.55,159.05,24.6c138.23,13.23,287.13,27.83,423.58-3.59
		c58.38-13.45,114.27-33.98,171.08-52.16c18.86-6.01,37.12-18.04,55.1-26.63c5.9-2.8,21.89-13.77,19.94-12.16"/>
	<path class="st4" d="M143.21,973l1005.4,1164.66l-217.7-5.68l-366.2-508.61l-422.43-543.36c0,0-3.41-43.25-3.17-70
		C139.34,983.27,143.21,973,143.21,973z"/>
	<path class="st4" d="M206.65,809.11l1204.54,955.37l-4.66,211.6L184.11,851.23L206.65,809.11z"/>
	<path class="st4" d="M292.11,667.51l428.87,253.06l664.98,357.47l-6.04,214.15L262.85,715.92L292.11,667.51z"/>
	<path class="st5" d="M142.53,1080.31l-1.88-20.12l-1.27-28.92l920.21,1103.84l-108.73-2.78L142.53,1080.31z"/>
	<path class="st5" d="M277.44,691.63L1382,1395.7l1.29,104.61l-323.02-224.94L261.45,717.39L277.44,691.63z"/>
	<path class="st5" d="M194.82,831.25l1211.93,1024.93l-3.23,117.07c0,0-1218.83-1121.45-1219.28-1121.9
		C183.79,850.92,194.82,831.25,194.82,831.25z"/>
	<path class="st6" d="M777.19,1024.21c0,0-21.64-27.52-33.14-82.43c-11.51-54.92-44.9-78.57-59.28-101.88
		c-14.36-23.31-112.07-183.02-14.29-285.01c97.81-101.99,283.86-83.9,315.89,69.16c0,0,7.48,76.26-12.46,148.47
		c-11.6,41.99-27.88,64.73-42.26,86.8c-10.38,15.92-11.19,26.48-17.61,48.18C899.16,957.77,867.46,1083.38,777.19,1024.21z"/>
	<path class="st6" d="M665.07,1170.18c0,0-35-7.17-26.84-49.72c8.16-42.55,23.45-64.48,8.86-130.45c-14.58-65.97,14.58,65.97,0,0
		c-14.58-65.97-22.97-97.69-41.78-146.05c-18.81-48.36-26.27-93.69-29.17-126.27c-2.89-32.58,20.91-89.31,30.79-101.27
		c9.86-11.96,17.36-19.65,12.93,10.6c-4.43,30.23,13.14,171.35,68.3,238.41c55.17,67.06,24.44,107.03,27.67,119.56
		c3.26,12.52-17.34,81.35-19.06,106.83C695.09,1117.27,699.05,1162.29,665.07,1170.18z"/>
	<path class="st6" d="M976.48,1127.99c-10.63-5.72-29.8-83.29-46.96-121.25c-17.14-37.96-6.94-83.68-3.26-103.68
		c3.66-20.01,7.35-35.93,34.71-77.57c27.33-41.65,36.17-144,36.76-174.9c0.59-30.91-0.59,30.91,0,0c0.59-30.91-0.59,30.91,0,0
		c0.59-30.91,13.99-48.41,30.32-12.84c16.32,35.56,14.58,129.46,12.84,144.63c-1.76,15.15-30.34,31.47-60.66,139.36
		c-30.32,107.87,26.25,176.1,26.25,176.1C1000.97,1128.08,987.09,1133.71,976.48,1127.99z"/>
	<path class="st6" d="M756.16,951.48c0,0-11.78,58.35-3.44,90.23c8.34,31.88,58.35,114.74,58.35,114.74s41.19-26.97,58.38-68.17
		c17.16-41.19,26.97-135.84,26.97-135.84S769.88,938.73,756.16,951.48z"/>
	<path class="st7" d="M634.3,933.96c0,0-112.86,27.63-131.77,142.55c-18.88,114.92-9.34,221.68-26.97,259.28
		c-17.64,37.6-33.46,133.03-23.22,178.16c10.24,45.13,47.46,77.12,65.32,65.61c17.86-11.53,58.29-50.46,58.29-50.46
		s-134.75,162.54-104.88,401.45c29.84,238.89,20.89,192.94,20.89,192.94l489.21,10.6c0,0-175.38-113.07-135.02-284.58
		c40.36-171.53,96.31-317.36,96.31-317.36l4.84-36.4c0,0,52.34,116.46,101.58-14.83c49.24-131.31-16.44-334.55-16.44-334.55
		l-16.21-33.82l-26.38-47.43c0,0,16.07,66.83-17.21,45.58c-8.89-5.65-10.33-24.4-17-43.68c-8.73-25.14-25.64-52.14-31.86-78.02
		c-6.92-28.69-2.69-55.05-2.69-55.05s-0.47-6.24-10.85-12.55c-1.81-1.09-15.17,28.96-24.42,67.33
		c-13.5,56.05-30.93,131.97-73.21,159.67c0,0-56.84-76.62-59.57-157.22c-2.74-80.58-24.01-84.15-24.01-84.15l-12.59,5.31
		c0,0,2.83,22.81-3.48,77.16c-7.03,60.48-27.18,148.52-34.5,160.77c-13.9,23.24-44.47,14.7-39.59-20.46
		c3.71-26.59,26.07-66.79,15.8-128.51C651.34,981.39,646.75,958.33,634.3,933.96z"/>
	<path class="st8" d="M1495.41,296.41c0,0-219.04,195.48-155.82,441.67c20.87,81.23-61.63,145.78-75.83,230.59
		c-12.8,76.44,37.94,172.05,129.64,263.76c20.39,20.39,139.25-339.27,154.71-567.92c13.14-194.08-14.45-278.59-38.48-337.51
		C1504.86,315.28,1499.48,306.99,1495.41,296.41z"/>
	<path class="st8" d="M471.42,355.53c0,0,197.65,26.7,305.67-1.85c108.03-28.56,345.62-48.9,367.53-121.64
		c9.61-31.97-132.78-26.97-86.37-52.38c26.09-14.29,198.71,62.2,232.29-4.05c33.57-66.27-189.31-107.21-352.32-86.5
		C800.34,106.65,589.8,202.74,471.42,355.53z"/>
	<path class="st9" d="M698.64,706.58c0-16.87,11.4-30.54,25.44-30.54c14.02,0,25.41,13.68,25.41,30.54
		c0,16.87-11.4,30.54-25.41,30.54C710.04,737.12,698.64,723.45,698.64,706.58z"/>
	<path class="st9" d="M851.55,699.37c0-16.01,11.71-28.96,26.16-28.96c14.45,0,26.16,12.95,26.16,28.96
		c0,15.98-11.71,28.94-26.16,28.94C863.26,728.31,851.55,715.35,851.55,699.37z"/>
	<path class="st10" d="M710.17,723.15c0-4.16,3.14-7.55,7.01-7.55c3.87,0,6.99,3.39,6.99,7.55c0,4.16-3.12,7.55-6.99,7.55
		C713.32,730.7,710.17,727.31,710.17,723.15z"/>
	<path class="st10" d="M864.84,714.7c0-4.05,3.14-7.33,6.99-7.33c3.87,0,7.01,3.28,7.01,7.33s-3.14,7.33-7.01,7.33
		C867.98,722.02,864.84,718.74,864.84,714.7z"/>
	<path class="st11" d="M755.68,995.93c8.77,26.32,28.89,50.26,62.51,53.58c33.64,3.3,56.68-38.44,63.12-51.32"/>
	<path class="st12" d="M819.85,979.85c-36.24,18.74-45.69-162.04-6.1-152.14c22.81,5.7,20.78,40.02,23.94,64.25
		C842.01,925.25,851.64,963.4,819.85,979.85z"/>
	<path class="st11" d="M786.09,778.07l-0.05-0.57l0.18-0.86l-0.07-0.54l0.23-0.57l-0.07-0.57l0.23-0.57l0.2-0.59l0.23-0.59
		l0.52-0.34l0.2-0.57l0.52-0.34l0.54-0.07l0.61,0.5l0.34,0.52l0.34,0.52l0.07,0.54l0.34,0.52l0.32,0.52l0.07,0.54l0.34,0.52
		l0.09,0.84l0.07,0.54l0.05,0.57l-0.2,0.57l0.05,0.57l-0.2,0.57l-0.23,0.59l-0.2,0.59l-0.23,0.57l-0.47,0.61l-0.57,0.07l-0.57-0.23
		l-0.59-0.2l-0.34-0.52l-0.34-0.52l-0.32-0.52l-0.34-0.52l-0.07-0.54l-0.09-0.84l-0.07-0.54l-0.05-0.57l0.18-0.84l-0.07-0.57
		l0.23-0.57l0.2-0.59l0.5-0.61l0,0"/>
	<path class="st11" d="M824.33,771.35l-0.61-0.48l-0.07-0.57l-0.09-0.81l-0.09-0.84l0.23-0.57l0.2-0.59l0.23-0.59l0.52-0.32
		l0.47-0.61l0.57-0.07l0.57,0.2l0.34,0.52l0.34,0.52l0.07,0.57l0.36,0.79l0.07,0.54l0.32,0.52l0.09,0.84l0.07,0.54l0.07,0.54
		l-0.18,0.86l-0.23,0.59l0.07,0.54l-0.23,0.59l-0.2,0.57l-0.23,0.59l-0.2,0.59l-0.52,0.34l-0.57,0.05l-0.32-0.52l-0.34-0.52
		l-0.07-0.54l-0.36-0.79l-0.36-0.79l-0.07-0.57l-0.07-0.54l-0.09-0.84l-0.05-0.54l0.2-0.57l0,0"/>
	<path class="st11" d="M637.39,1120.71c-46.73,70.5-72.17,154.67-117.05,222.38"/>
	<path class="st11" d="M587.41,1527.76c15.46-126.47,154.01-264.16,105.52-400.36"/>
	<path class="st11" d="M959.69,1094.3c-71.74,108.23-54.6,284.49-12.84,401.78"/>
	<path class="st11" d="M714.11,1327.56c33.82,95.03-121.34,300.02-148.93,393.53c-42.01,142.46,25.93,269.18,9.9,400.34"/>
	<path class="st11" d="M776.26,1357.56c-16.93,138.53-106.62,244.88-134.64,379.88c-25.68,123.67,40.31,243.09,26.32,357.52"/>
	<path class="st11" d="M725.64,1691.68c-35.74,53.95-17.02,170.56-11.28,229.71"/>
	<path class="st11" d="M872.14,1363.69c-33.08,270.74-99.46,482.52-45.35,749.29"/>
	<path class="st11" d="M828.31,1286.91c3.78-30.82-8.91,61.45-12.68,92.27c-7.82,64.12-26.52,125.39-34.3,189.08"/>
	<path class="st11" d="M902.71,1503.25c-6.01,49.17-10.38,93.92-27.04,140.94"/>
	<path class="st11" d="M1499.93,313.45c-24.8,23.74-40.94,59.82-56.88,89.98c-35.84,67.83-70.47,132.33-75.13,210.38
		c-1.67,28.17,7.98,55.89,12.82,83.22c5.36,30.39,2.15,68.32-3.96,98.39c-14.47,71.35-74.68,128.24-61.18,204.66
		c9.16,51.77,27,97.42,53.38,142.87c11.24,19.35,37.26,39.77,43.57,60.16"/>
	<path class="st11" d="M1428.17,1161.13c-9.59-10.02-15.37-27.56-22.22-39.59c-35.86-62.94-53.09-123.29-29.71-195.91
		c18.95-58.83,54.35-109.9,62.42-172.87c5.67-44.36-18.09-79.52-18.43-122.22c-0.2-25.66-3.78-49.79,3.21-75.29
		c11.92-43.52,62.99-130.05,109.2-144.29"/>
	<path class="st11" d="M1544.33,488.47c-39.16,30.21-81.96,108.68-77.93,182.86c2.65,48.79,19.69,93.37,14.92,143.3
		c-5.15,53.67-35.18,91.05-50.89,140.74c-19.49,61.63-4.07,110.13,13.54,167.19"/>
	<path class="st11" d="M1477.77,1013.43c-3.73,1.15-7.17-32.13-7.89-36.65c-6.26-39.54,11.51-86.03,17.93-124.87
		c6.38-38.44,26.86-74.43,31.49-113.32c5.61-46.91-5.58-115.15,26.59-154.67"/>
	<path class="st11" d="M949.01,95.66c69.45,8.21,135.41,18.58,203.96,30.79c1.85,0.34,81.64,16.69,63.98,29.01
		c-19.78,13.79-52.59-5.34-75.4-8.03c-38.77-4.59-113.2-9.83-142.28,21.59c-43.57,47.09,99.71,52.7,86.91,84.38
		c-4.93,12.19-122.4,33.21-137.8,36.4c-43.21,8.93-84.94,24.03-128.46,33.03c-109.22,22.61-223.04,30.66-332.69,17.7"/>
	<path class="st11" d="M511.21,313.63c19.04-11.03,83.77-1.18,110.35-4.86c84.22-11.67,167.67-23.42,251.37-34.14
		c9.31-1.2,113.43-22.84,115.03-28.83c0.18-0.75-45.51-14.72-48.41-40.09c-4.21-37.06,115.28-71.17,22.07-73.3
		c-7.82-0.18-15.6,0.54-23.38,1.27c-11.85,1.11-23.6,0.86-35.45,1.61c-42.32,2.65-83.72,9.88-125.3,13.77
		c-10.31,0.97-63.69,14.92-62.92,15.44"/>
	<path class="st11" d="M629.82,213.93c50.12-29.1,122.31-29.78,178.68-36.2c7.64-0.88,53.54-8.27,57.47,0.97
		c3.71,8.73-22,16.87-15.76,27.61c3.73,6.44,35.2,10.45,32.29,17.66c-9.84,24.33-59.96,23.88-81.23,22.54
		c-69.05-4.27-135.86,20.19-203.62,22.84c-20.62,0.79-37.08,18-57.4,15.6"/>
	<path class="st11" d="M597.9,238.46c25.32,3.01,55.3-14.29,80.99-17.59c19.71-2.51,38.25-8.32,57.95-10.56
		c22.9-2.6,47.71-7.3,70.65-4.59c1.85,0.2,8.05,2.17,6.08,5.18c-6.49,9.86-42.8,8.18-52.45,9.43
		c-48.59,6.22-91.07,18.31-138.89,28.22c-9.97,2.06-49.54-0.34-50.85,10.72"/>
	<path class="st11" d="M177.53,1182.09l340.9,445.33"/>
	<path class="st11" d="M206.99,1311.98l131.81,162.54"/>
	<path class="st11" d="M367.06,1505.29l119.35,143.66"/>
	<path class="st11" d="M213.09,1371.96l64.57,77.32"/>
	<path class="st11" d="M300.84,1479.51l180.67,216.14"/>
	<path class="st11" d="M195.7,1421.77l157.97,182.59"/>
	<path class="st11" d="M371.99,1622.72l51.01,56.43"/>
	<path class="st11" d="M451.57,1709.49l19.62,22.25"/>
	<path class="st11" d="M178.59,1478.45l289.4,332.51"/>
	<path class="st11" d="M147.01,1515.3l169.79,193.44"/>
	<path class="st11" d="M347.98,1752.36l106.17,123.88"/>
	<path class="st11" d="M141.51,1602.78l335.86,368.64"/>
	<path class="st11" d="M124.19,1549.83l275.06,296.88"/>
	<path class="st11" d="M292.56,1643.09l119.2,142.41"/>
	<path class="st11" d="M96.32,1626.11l143.5,144.49"/>
	<path class="st11" d="M272.19,1804.2l96.07,95.52"/>
	<path class="st11" d="M406.71,1939.13l73.95,75.06"/>
	<path class="st11" d="M175.49,1756.04l120.23,112.86"/>
	<path class="st11" d="M324.28,1913.04l159.08,148.93"/>
	<path class="st11" d="M83.36,1677.09l69.09,59.21"/>
	<path class="st11" d="M78.97,1717.93l277.5,258.15"/>
	<path class="st11" d="M477.01,2092.9l-87.97-79.49"/>
	<path class="st11" d="M90.8,1780.39l95.7,98.33"/>
	<path class="st11" d="M219.15,1904.31l224.98,213.23"/>
	<path class="st11" d="M71.67,1821l67.78,62.31"/>
	<path class="st11" d="M169.25,1911.87l101.22,94.19"/>
	<path class="st11" d="M299.95,2030.56l82.68,76.6"/>
	<path class="st11" d="M74.34,1872.57l239.27,219.44"/>
	<path class="st11" d="M61,1910.13l104.95,100.38"/>
	<path class="st11" d="M194.55,2036.4l77.1,67.28"/>
	<path class="st11" d="M86.07,1970.22l147.52,128.44"/>
	<path class="st11" d="M116.28,2040.29l83.43,69.41"/>
</g>
</svg>
