<?xml version="1.0" encoding="utf-8"?>
<!-- Generator: Adobe Illustrator 27.5.0, SVG Export Plug-In . SVG Version: 6.00 Build 0)  -->
<svg version="1.1" id="Capa_1" xmlns="http://www.w3.org/2000/svg" xmlns:xlink="http://www.w3.org/1999/xlink" x="0px" y="0px"
	 viewBox="0 0 1663.14 1242.49" style="enable-background:new 0 0 1663.14 1242.49;" xml:space="preserve">
<style type="text/css">
	.st0{fill:#FFFFFF;}
	.st1{fill:#898989;}
	.st2{fill:#999898;}
	.st3{fill:#775D40;}
	.st4{fill:#604830;}
	.st5{fill:#6F8C46;}
	.st6{fill:#9E7272;}
	.st7{fill:#601212;}
	.st8{fill:#9B3E3E;}
	.st9{fill:#7F2B2B;}
	.st10{fill:#C15F5F;}
	.st11{fill:#440808;}
	.st12{fill:#7F4F47;}
	.st13{fill:#916D66;}
	.st14{fill:#876158;}
	.st15{fill:#A07C72;}
	.st16{fill:#87655D;}
	.st17{fill:#D3A092;}
	.st18{fill:#B78C7D;}
	.st19{fill:#93573F;}
	.st20{fill:#BC9186;}
	.st21{fill:#9B6E65;}
	.st22{fill:#875838;}
	.st23{fill:#93645C;}
	.st24{fill:#A57A6F;}
	.st25{fill:#D39C8D;}
	.st26{fill:#842323;}
	.st27{fill:#79816A;}
	.st28{fill:#A9B58F;}
	.st29{fill:#E8AD67;}
	.st30{fill:#EDE2E5;}
	.st31{fill:#DBBAD8;}
	.st32{fill:#DDBDAF;}
	.st33{fill:#EABF5E;}
	.st34{fill:#A87F74;}
	.st35{fill:#89675F;}
	.st36{fill:#874F31;}
	.st37{fill:#724C46;}
	.st38{fill:#3A2928;}
	.st39{fill:#E8D0C4;}
	.st40{fill:#A87E73;}
	.st41{fill:#D39163;}
	.st42{fill:#AD6B3E;}
	.st43{fill:#B56B39;}
	.st44{fill:#E0E0E0;}
	.st45{fill:#CCCAC8;}
	.st46{fill:#D8BAAD;}
	.st47{fill:#302A1D;}
	.st48{fill:#C1A399;}
	.st49{fill:#6D4E47;}
	.st50{fill:#A57467;}
	.st51{fill:#7F3333;}
	.st52{fill:#7C4633;}
	.st53{fill:#160F0E;}
	.st54{fill:#302D2B;}
	.st55{fill:#BA9D95;}
	.st56{fill:#CEAEA3;}
	.st57{fill:#AA857D;}
	.st58{fill:#DDBCB3;}
	.st59{fill:#593F39;}
	.st60{fill:#755651;}
	.st61{fill:#AF8D85;}
	.st62{fill:#7D8C4F;}
</style>
<g id="XMLID_189_">
	<g id="XMLID_192_">
		<g id="XMLID_113_">
			<g id="XMLID_101_">
				<path id="XMLID_781_" class="st0" d="M35.96,365.74c0,38.71,29.5,70.09,65.9,70.09c25.76,0,48.07-15.73,58.9-38.64
					c6.53,5.48,14.77,8.77,23.74,8.77c21.18,0,38.35-18.26,38.35-40.79c0-5.51-1.03-10.76-2.89-15.55
					c20.22-0.8,36.38-18.48,36.38-40.18c0-2.75-0.26-5.44-0.76-8.04c2.29,0.74,4.72,1.14,7.24,1.14c3,0,5.87-0.57,8.54-1.6
					c15.46,16.59,36.9,26.88,60.6,26.88c43.47,0,79.35-34.57,84.66-79.28c7.78,4.39,16.65,6.89,26.07,6.89
					c28.32,0,51.69-22.5,55.18-51.61c2.02,0.68,4.16,1.05,6.39,1.05c11.63,0,21.07-10.03,21.07-22.41
					c0-12.37-9.43-22.41-21.07-22.41c-5.35,0-10.22,2.12-13.94,5.61c-9.75-17.14-27.43-28.59-47.64-28.59
					c-22.72,0-42.25,14.49-50.9,35.25c-15.4-16.11-36.53-26.06-59.83-26.06c-35.18,0-65.39,22.65-78.45,54.98
					c-6.9-4.97-15.22-7.87-24.18-7.87c-11.04,0-21.1,4.41-28.74,11.65c-11.22-8.08-24.75-12.8-39.32-12.8
					c-38.78,0-70.22,33.44-70.22,74.69c0,10.27,1.95,20.05,5.47,28.96C62.62,298.77,35.96,328.94,35.96,365.74z"/>
				<path id="XMLID_00000012465735406440489890000014270216434702743471_" class="st0" d="M842.87,102.85
					c-7.58,11.66-7.02,16.76-7.02,32.01c0,22.03,9.27,41.74,23.88,55c-13.49,6.54-25.17,16.56-34,29.01
					c-10.58-4.97-22.27-7.75-34.58-7.75c-47.31,0-85.66,40.79-85.66,91.11s38.35,91.11,85.66,91.11c26.71,0,50.55-13,66.26-33.38
					c7.13,3.73,14.81,6.45,22.87,8.03c0.79,7.48,1.87,14.87,3.24,22.14c-57.04,26.88-96.83,87.61-96.83,158.23
					c0,54.13,23.38,102.45,59.98,134.17c-115.03,0.68-209.72,92.65-223.3,211.27c-30.91-18.04-66.27-28.49-103.9-29.02
					c-23.82-43.83-68.36-73.33-119.38-73.33c-23.06,0-44.8,6.04-63.9,16.69c-14.97-19.45-32.74-36.36-52.68-50.01
					c22.1-16.9,36.51-44.46,36.51-75.62c0-51.41-39.19-93.09-87.52-93.09c-48.34,0-87.52,41.68-87.52,93.09
					c0,13.48,2.72,26.28,7.56,37.85c-33.66,1.44-65.41,10.73-93.69,26.2v484.34h643.94c12.96-21.05,22.85-44.43,28.99-69.42
					c11.75,8.95,26.13,14.23,41.68,14.23c15.64,0,30.1-5.34,41.88-14.38c10.65,1.64,21.53,2.5,32.61,2.5
					c66.15,0,125.66-30.2,167.03-78.34c47.83-6.06,88.43-37.15,109.89-80.61c8.39,2.88,17.33,4.45,26.61,4.45
					c18.63,0,35.86-6.28,49.99-16.92c10.2,18.42,29.02,30.79,50.57,30.79c32.4,0,58.66-27.93,58.66-62.39
					c0-34.46-26.26-62.39-58.66-62.39c-5.33,0-10.49,0.77-15.4,2.19c-7.36-42.93-42.67-75.47-85.16-75.47
					c-15.6,0-30.22,4.41-42.86,12.09c-18.9-24.43-44.8-42.49-74.44-50.72c-17.21-26.48-39.28-49.12-64.85-66.44
					c63.33-8.26,115.4-55.25,134.64-118.01c7.98,0.82,16.06,1.25,24.24,1.25c29.18,0,57.18-5.34,83.21-15.13
					c27.41,27.71,59.61,50.1,95.12,65.68c-8.11,20.73-12.6,43.46-12.6,67.31c0,96.81,73.78,175.29,164.8,175.29
					c91.02,0,164.8-78.48,164.8-175.29c0-20.06-3.18-39.32-9.01-57.27c17.81-13.04,29.49-34.86,29.49-59.59
					c0-7.07-0.97-13.9-2.75-20.37c8.13-8.52,15.8-17.54,23.01-26.97V103.46"/>
				<path id="XMLID_779_" class="st1" d="M1047.63,1086.48c0-8.95-41.26-92.44-45.01-110.33c-3.75-17.89-20-32.8-33.75-55.17
					c-13.75-22.37-13.75-11.93-33.75-38.77c-20-26.84-17.5-29.82-36.32-59.19c-18.82-29.36-38.69-25.8-48.69-28.78
					c-10-2.98-22.5-19.38-36.25-41.75c-13.75-22.37-78.76-61.13-130.02-73.06s-225.37-74.21-225.37-74.21l-59.67-86.81l-93.76-14.91
					l-51.26-61.13c0,0-235.03,29.82-253.78,29.82v770.4h224.96l215.52-0.92c0,0,229.07-0.72,390.87,0.56
					c161.8,1.28,125.02-15.6,192.52-33.49c67.51-17.89,18.75-34.29,28.75-61.13C1062.63,1120.77,1047.63,1095.43,1047.63,1086.48z"
					/>
				<g id="XMLID_775_">
					<path id="XMLID_777_" class="st2" d="M572.74,840.02l76.96,50.37l44.4-1.57l53.4,31.86c-3.79-5.09-7.65-10.5-11.58-16.2
						c-21.71-31.48-124.32-86.06-205.23-102.85c-80.91-16.79-355.74-104.48-355.74-104.48L80.76,574.94l-56.88-8.07L0,580.28
						c0,4.72,142.07,110.19,142.07,110.19L572.74,840.02z"/>
					<path id="XMLID_776_" class="st2" d="M795.17,1035.4c15.14,3.72,46.77,15.23,68.22,30.71c-0.24-0.29-0.49-0.58-0.73-0.87
						c-31.57-37.78-27.63-41.98-57.33-83.32c-16.72-23.28-33.98-31.86-48.68-35.66l1.53,0.99
						C758.17,947.24,775.93,1030.67,795.17,1035.4z"/>
				</g>
				<path id="XMLID_774_" class="st3" d="M879.32,1003.72c-12.8-19.27-49.92-94.27-61.44-123.17
					c-11.52-28.9-65.28-33.03-70.05-38.02c-4.77-4.99-68.19-41.8-72.03-43.18s-47.36-42.66-125.43-45.41
					c-78.08-2.75-166.89-65.88-198.89-74.13c-32-8.26-9.37-7.94-13.21-14.82c-3.84-6.88-22.32-25.46-28.71-24.09
					c-6.4,1.38-159.18,32.12-164.3,32.12L0,1184.69c74.24,13.76,47.36,13.76,125.43,38.53c78.08,24.77,165.11,5.5,344.31,15.14
					c179.19,9.63,159.99,0,267.51-1.38c107.52-1.38,99.84-68.81,130.55-101.84s-1.28-90.83-6.4-108.72s-20.48-26.15-35.84-41.29
					S892.12,1022.99,879.32,1003.72z"/>
				<path id="XMLID_773_" class="st4" d="M659.39,1078.88c-3.28-1.74,13.86,71.78,19.76,96.77c36.92-3.92,61.15-6.51,61.15-6.51
					S663.34,1080.98,659.39,1078.88z"/>
				<path id="XMLID_00000022557522752587435190000015238253835277856190_" class="st4" d="M0,1192.02
					c19.73,1.05,17.06,4.4,163.09,2.3c146.03-2.1,76.96-23.09,76.96-23.09s-43.41-72.41-49.33-79.76
					c-5.92-7.35-5.92,24.14-11.84,26.24c-5.92,2.1-39.47-76.61-39.47-76.61l116.43,51.42c0,0,58.21,118.59,55.25,120.69
					c-2.25,1.59,245.95-24.6,365.88-37.34l-27.45-52.92c0,0-170.7-55.62-189.44-66.12c-18.75-10.49,82.88,125.94,82.88,125.94
					s-54.27-14.69-65.12-28.34c-10.85-13.64-48.35-50.38-53.28-55.62c-4.93-5.25-42.43-59.82-42.43-59.82s-128.27,6.3-132.22,5.25
					c-3.95-1.05-111.49-87.11-111.49-87.11l234.83,56.67l-143.07-79.76c0,0,252.59,68.22,273.31,67.17
					c20.72-1.05,190.34-31.43,190.34-31.43l-318.61-75.61c0,0-110.51-34.63-158.86-50.38c-48.35-15.74-155.9-46.18-160.83-46.18
					C50.61,797.62,0,799.2,0,799.2"/>
				<path id="XMLID_771_" class="st4" d="M676.97,1175.88l4.12,7.95c0,0-0.74-3.08-1.94-8.18
					C678.43,1175.72,677.71,1175.8,676.97,1175.88z"/>
				<path id="XMLID_770_" class="st5" d="M167.3,806.86c7.64-14.04,42.24-40.33,56.92-45.29c14.68-4.96,57.7-7.29,64.14-6.69
					c6.44,0.6,65.69,6.09,81.15,7.52c15.46,1.43,76.6,15.53,76.6,15.53s36.67,11.83,59.94,28.73
					c23.27,16.91,23.71,27.48,32.55,30.41c8.85,2.93,20.9,8.47,39.65,12.21c18.75,3.74,26.65,2.37,36.27,11.69
					c7.65,7.41,143.66,49.35,199.14,66.24c-19.4-15.96-45.8-31.24-79.6-36.2c-78.23-11.47-196.32-106.69-227.5-122.23
					c-31.17-15.53-31.35-13.44-34.35-24.25c-3.01-10.81-83.74-70.97-90.35-69.48c-6.61,1.49-374.65-68.93-379.8-69.41L0,799.2
					C54.49,805.68,161.73,817.1,167.3,806.86z"/>
				<path id="XMLID_769_" class="st6" d="M1359.51,631.87l-131.07,78.74l226.95,33.56l127.43-67.13l-19.42-12.91l92.23-28.4
					C1655.64,635.75,1363.16,631.87,1359.51,631.87z"/>
				<path id="XMLID_768_" class="st7" d="M1635.27,237.75l-168.62-16.45c0,0-20.88,32.91-23.2,34.56
					c-2.32,1.65-19.34,45.25-19.34,45.25l94.37,139.04l109.84-137.4l-51.05-15.63h27.07L1635.27,237.75z"/>
				<path id="XMLID_767_" class="st8" d="M1389.29,280.53c-28.62,53.48-27.07,192.52-27.07,192.52l208.85-18.1
					c0.77-4.11,59.56-96.26,59.56-96.26s-58.01,6.58-129.17-21.39c-71.16-27.97-34.81-116.01-34.81-116.01
					S1417.91,227.05,1389.29,280.53z"/>
				<path id="XMLID_766_" class="st9" d="M1370.44,456.31l37.99,12.74l138.62-12.01c10.74-6.13,22.24-12.7,34-19.44
					c16.96-27.79,49.57-78.91,49.57-78.91s-45.42,5.15-105.19-13.04l-91.9,82.26l53.4-71L1370.44,456.31z"/>
				<g id="XMLID_763_">
					<path id="XMLID_765_" class="st10" d="M1389.29,280.53c-3.15,5.88-5.93,12.81-8.39,20.46c20.12-21.21,51.51-41.74,79.31-57.62
						c2.73-13.12,6.43-22.08,6.43-22.08S1417.91,227.05,1389.29,280.53z"/>
					<path id="XMLID_764_" class="st10" d="M1375.23,322.23c-4.66,20.95-7.66,44.68-9.59,67.01C1387,331.35,1454.27,283,1454.27,283
						L1375.23,322.23z"/>
				</g>
				<path id="XMLID_762_" class="st7" d="M1415.96,479.94l168.11-14.57c2.35-0.2,4.47-1.61,5.66-3.77
					c8.16-14.79,43.98-71.4,60.29-97.07c3.29-5.18-0.27-12.15-6.15-12.04c-7.93,0.14-18.88-0.02-32.16-1.14
					c-1.84-0.16-3.67,0.44-5.11,1.68c-24.49,20.96-51.12,44.13-72.93,63.39c-6.49,5.73-15.4-2.95-10.61-10.33
					c0.24-0.38,0.49-0.75,0.73-1.12c4.51-6.97-3.26-15.47-9.93-10.86c-29.25,20.23-73.18,50.76-102.55,71.74
					C1405.11,470.27,1408.51,480.58,1415.96,479.94z"/>
				<path id="XMLID_761_" class="st7" d="M727.22,741.59c7.28,0,78.89,85.2,78.89,85.2l118.93,71l118.93-25.82l42.48-77.45
					l31.55-144.58l275.49-18.07c12.14,5.16,163.84,27.11,202.67-20.65c38.84-47.76,27.91-109.72,20.63-118.76
					c-7.28-9.04-21.85-37.44-58.25-49.05c-36.41-11.62-64.32-11.62-76.46-11.62c-12.14,0-80.1,19.36-80.1,19.36
					s-65.54-21.94-69.18-29.69c-3.64-7.75-46.12-101.98-46.12-101.98l-267-25.82l-264.57,76.16L636.2,493.74
					c0,0,25.49,201.38,27.91,206.54C666.54,705.44,719.94,741.59,727.22,741.59z"/>
				<path id="XMLID_760_" class="st11" d="M851.54,587.3c-103.77-70.68-142.01,131.68-142.01,131.68l92.85,33.89
					c43.69,67.78,231.22,58.09,231.22,58.09s-101.95-83.27-100.13-88.11C935.29,718.02,955.32,657.98,851.54,587.3z"/>
				<path id="XMLID_759_" class="st12" d="M834.32,602.82c-4.25-22.27-28.52-73.9-28.52-73.9l-42.17,4.84
					c-1.82,5.16-23.36,72.61,14.26,97.78C815.51,656.71,838.57,625.09,834.32,602.82z"/>
				<path id="XMLID_758_" class="st11" d="M1387.71,481.76c0,0,3.48,1.18,8.81,3.43l2.73-2.94
					C1392.26,481.67,1387.71,481.76,1387.71,481.76z"/>
				<path id="XMLID_757_" class="st11" d="M1356.67,624.96l-0.82,0.11C1355.85,625.06,1356.14,625.03,1356.67,624.96z"/>
				<path id="XMLID_756_" class="st11" d="M1279.39,440.13c0,0-10.01-36.79-127.44-69.71c-117.43-32.92-344.93,37.81-344.93,37.81
					s199.28,156.81,208.81,161.72c9.53,4.91,249.91,60.93,249.91,60.93l99.22-25.17c0,0,86.48-30.02,87.39-65.84
					c0.7-27.58-37.98-47.12-55.82-54.66l-59.44,63.89l0.57,7.23c0,0-1.18-1.51-3.43-4.16l-9.9,10.64c0,0-26.73,12.88-51.31-33.6
					c-24.58-46.48-134.73-92.95-134.73-92.95c99.01,7.71,178.79,95.66,195.93,115.91l2.86-3.07l-1.25-16.01
					c0,0-22.76-30.98-124.71-101.67c-101.95-70.68-274-22.27-274-22.27s60.99-29.05,162.94-29.05
					C1202.01,380.1,1279.39,440.13,1279.39,440.13z"/>
				<path id="XMLID_755_" class="st11" d="M1334.22,552.16c2.24,2.65,3.43,4.16,3.43,4.16l-0.57-7.23L1334.22,552.16z"/>
				<path id="XMLID_754_" class="st11" d="M1356.67,624.96l74.74-9.58c0,0,41.87,0,102.86-5.81c60.99-5.81,45.52-57.13,45.52-57.13
					s-4.55,12.59-24.58,30.02c-20.03,17.43-73.73,6.78-83.75,0.97c-10.01-5.81,94.67,3.87,78.29-64.87
					c-16.39-68.75-124.71-54.22-133.81-54.22l-16.68,17.93c24.19,2.05,77.76,12.34,74.94,63.41
					C1470.73,608.26,1366.91,623.6,1356.67,624.96z"/>
				<path id="XMLID_753_" class="st13" d="M984.54,412.6c0,0,142.44,11.13,162.47,28.56c20.02,17.43,7.74-39.69,7.74-39.69
					l-31.4-10.16c0,0-131.97-6.78-157,15.49C941.3,429.06,984.54,412.6,984.54,412.6z"/>
				<path id="XMLID_752_" class="st14" d="M1213.58,630.25c34.59-15.17,35.8-16.46,34.28-24.53l-10.52-157.53
					c0,0-26.5-36.1-58.36-33.51c-31.86,2.58-50.06,10-50.06,10s-1.21,30.98,16.38,51.63c17.6,20.65,8.19,25.17,8.19,25.17
					s8.8,52.93,15.17,59.7c6.37,6.78-16.69,30.01-16.08,33.56C1153.2,598.3,1178.99,645.42,1213.58,630.25z"/>
				<path id="XMLID_751_" class="st13" d="M1214.79,607.02c9.1,2.26,10.32,4.84,16.99-5.49c6.67-10.33,14.26-40.66,15.17-43.89
					l-20.63-40.02c0,0-62.2,36.14-68.27,72.29C1151.99,626.06,1205.69,604.76,1214.79,607.02z"/>
				<path id="XMLID_750_" class="st15" d="M1227.55,613c25.94,25.65,86.01-2.42,87.83-29.04c1.82-26.62-4.1-67.77-16.84-84.71
					c-12.74-16.94-33.22-31.95-33.22-35.34l-55.98-36.3l-4.1,50.83l19.11,59.54C1224.37,537.97,1201.61,587.34,1227.55,613z"/>
				<path id="XMLID_749_" class="st15" d="M1140.76,499.23l15.17,16.78l47.94-14.2c0,0,8.19-26.14-1.82-50.02
					c-10.01-23.88-14.87-23.88-26.7-18.39c-11.83,5.49-1.21,51.31-0.61,52.28C1175.35,486.64,1142.28,499.23,1140.76,499.23z"/>
				<path id="XMLID_748_" class="st16" d="M970.88,430.51c0,0-13.65-21.3-51.42-30.01c-37.77-8.71-83.28,19.36-83.28,19.36
					l16.84,39.69c1.37-0.97,20.48-2.9,30.04-4.36C892.61,453.75,970.88,430.51,970.88,430.51z"/>
				<path id="XMLID_747_" class="st17" d="M1493.01,607.98c-1.82-27.11-52.79-83.91-70.39-74.87c-17.6,9.04-60.68,60.03-60.68,60.03
					l115.29,57.44C1483.3,648.65,1494.83,635.09,1493.01,607.98z"/>
				<path id="XMLID_746_" class="st18" d="M1493.01,607.98c-1.34-19.89-29.13-55.76-50.79-69.89c-7.18-2.32-13.11-3.27-16.26-2.06
					c-8.26,3.16,12.26,66.54,24.13,101.03l27.14,13.52C1483.3,648.65,1494.83,635.09,1493.01,607.98z"/>
				<path id="XMLID_745_" class="st19" d="M1295.9,538.17c27.31-16.14,7.28-37.44,7.28-37.44l-35.4,3.87
					C1267.79,504.61,1268.59,554.3,1295.9,538.17z"/>
				<path id="XMLID_744_" class="st18" d="M1335.24,526.01l-47.33,9.68c0,0-9.71-9.04-30.34,9.68s-23.67,81.32-23.67,81.32
					l159.59,5.16l-47.94-67.13L1335.24,526.01z"/>
				<path id="XMLID_743_" class="st17" d="M1362.55,550.54c-9.1-17.43-19.42-17.43-38.23,12.26
					c-18.81,29.69-129.86,44.53-129.86,44.53l72.21,37.44C1304.9,646.06,1371.65,567.97,1362.55,550.54z"/>
				<path id="XMLID_742_" class="st18" d="M1256.22,620.74c0,0,16.37,8.92,34.11,17.39c36.81-19.06,79.63-73.41,72.22-87.6
					c-5.79-11.08-12.06-15.11-20.7-8.96c4.72,3.41,8.98,9.26,8.12,19.14C1348.15,581.54,1256.22,620.74,1256.22,620.74z"/>
				<path id="XMLID_741_" class="st20" d="M1209.94,551.51c0,0-37.62,3.55-44.6-30.66s-4.85,36.47-4.85,36.47l45.21,6.13
					L1209.94,551.51z"/>
				<path id="XMLID_740_" class="st20" d="M1218.43,560.54c-34.59,4.84-65.54-28.72-65.84-29.69l13.96,40.34l48.85,9.68
					L1218.43,560.54z"/>
				<path id="XMLID_739_" class="st17" d="M1147.74,485.35c-21.24-25.82-63.11-49.05-63.11-49.05l-54.01,34.21
					c31.55,0,94.66,44.54,94.66,44.54s-1.82,16.14-0.61,29.69c1.21,13.55-6.67,25.82-6.67,25.82l15.78,10.97
					c15.17-7.75,13.96-37.44,13.96-37.44s3.03,23.24,16.99,31.63c13.96,8.39,42.48,15.49,42.48,15.49l1.82-18.07
					c0,0-23.67-8.39-32.77-12.91c-9.1-4.52-5.46-39.37-5.46-39.37S1168.98,511.17,1147.74,485.35z"/>
				<g id="XMLID_734_">
					<path id="XMLID_738_" class="st8" d="M1587.68,606.05c-23.56,33.03-159.54,10.79-187.05,4.21
						c24.9,11.25,138.83,74.68,213.75,12.57c82.53-68.42,21.84-214.28-70.39-210.41c-92.23,3.87-99.83,0.6-132.6,21.9
						c-14.83,9.64-25.37-1.34-32.46-16.24c-4.3-18.27-7.27-34.06-7.27-34.06c-100.73-187.18-449.04-121.34-644.43-6.45
						S609.5,695.12,644.69,737.72c35.19,42.6,94.66,29.69,94.66,29.69s18.2,145.87,180.83,166.52s242.72-222.03,242.72-222.03
						l-40.05,7.75c0,0-29.13,78.74-103.16,135.54c-74.03,56.8-222.09-19.36-219.66-69.71c2.43-50.34,50.6-113.94,50.6-113.94
						l-22.76-5.81c0,0-56.44,45.51-98.31,30.98c-41.87-14.52-89.21-131.68-48.25-216.89c40.96-85.21,153.84-159.76,385.97-157.82
						c232.13,1.94,237.59,70.68,237.59,70.68s-12.24,52.41,21.1,79.11l-1.66,3.88c4.85,2.58,64.93,40.02,101.94,9.04
						c37.02-30.98,125-36.14,144.42-6.45c19.42,29.69,2.43,71,2.43,71s27.91-32.27,20.63-60.67
						C1593.74,488.58,1614.37,568.61,1587.68,606.05z"/>
					<polygon id="XMLID_737_" class="st18" points="1454.18,601.87 1436.89,645.64 1514.25,664.79 1494.23,628 					"/>
					<path id="XMLID_736_" class="st9" d="M1648.06,526.3c0,0,12.74-69.71-73.73-93.92c-86.48-24.21-181.15,61.97-185.7,61.97
						l0.9,2.56c12.91,0.11,25.83-3.07,36.74-12.21c37.02-30.98,125-36.14,144.42-6.45c19.42,29.69,2.43,71,2.43,71
						s27.91-32.27,20.63-60.67c0,0,20.63,80.03-6.07,117.47c-18.49,25.92-106.24,17.8-156.44,9.92l3.52,10.06
						c46.16,19.61,123.73,43.12,179.61-3.2c7.65-6.34,14.07-13.35,19.35-20.85c3.84-11.75,5.95-26.16,5.23-43.73
						c-2.73-66.81-79.2-108.44-79.2-108.44C1632.59,458.52,1648.06,526.3,1648.06,526.3z"/>
					<path id="XMLID_735_" class="st8" d="M1395.92,608.63c-0.71,0.15,1.03,0.75,4.7,1.63
						C1398.1,609.12,1396.48,608.51,1395.92,608.63z"/>
				</g>
				<path id="XMLID_733_" class="st8" d="M1395.92,610.57c-0.71,0.15,1.03,0.75,4.7,1.63
					C1398.1,611.05,1396.48,610.45,1395.92,610.57z"/>
				<path id="XMLID_732_" class="st10" d="M726.01,391.76c92.13-70.55,375.18-100.94,506.2-111.48
					c-149.59-41.35-365.98,15.55-504.98,97.28c-122.14,71.81-137.58,177.93-123.39,257.8c25.55,52.91,50.58,97.19,50.58,97.19
					l78.89,11.62c0,0-86.17-25.82-101.94-85.2c-14.74-55.49,15.03-180.87,18.99-197.06c-3.75,15.45-30.09,130.21,0.43,186.73
					c32.77,60.67,78.89,78.74,78.89,78.74C660.47,691.24,604.65,484.71,726.01,391.76z"/>
				<path id="XMLID_731_" class="st21" d="M873.46,668.33l-9.41-14.52l-48.85,19.04c0,2.58,20.06,15.18,20.06,15.18L873.46,668.33z"
					/>
				<path id="XMLID_730_" class="st22" d="M779.81,642.19c0,0-9.3,15.49,7.69,23.02c16.99,7.53,26.7,3.87,28.92,0.43
					c2.23-3.44,5.87-22.16,6.07-23.24l-12.34-53.57c-1.21,0-21.04-6.24-24.88,5.81c-3.84,12.05-15.58,12.48-15.58,12.48h14.97
					c0,0-18,4.52-13.75,18.07c4.25,13.55-2.83,21.51-2.83,21.51S777.99,644.99,779.81,642.19z"/>
				<path id="XMLID_729_" class="st21" d="M787.9,637.67c2.63,16.57,42.27,23.67,44.5,23.67c2.23,0,29.13-33.56,31.55-40.88
					c2.43-7.31,3.84-18.72,2.83-19.79l-50.97-8.18l-13.65-15.17l14.06,16.03c0,0-19.82-4.52-23.26-1.29
					c-3.44,3.23,0.4,9.04,0.4,9.04S785.27,621.11,787.9,637.67z"/>
				<path id="XMLID_728_" class="st23" d="M815.31,621.11c0,0,5.36,3.23,12.64-2.04c7.28-5.27,3.24-15.71,3.24-15.71
					S832.5,618.1,815.31,621.11z"/>
				<path id="XMLID_727_" class="st11" d="M816.12,595.4c-11.83,1.94-13.96,17.27-13.96,17.27c6.83-11.3,15.47-15.01,15.47-15.01
					L816.12,595.4z"/>
				<path id="XMLID_726_" class="st21" d="M1028.68,779.03c-55.98-27.59-57.8-126.82-57.8-130.69c0-3.87-57.8-33.4-61.44-33.88
					c-3.64-0.48-20.93,64.38-21.39,70.19c-0.46,5.81,5.46,64.38,5.46,64.38s0.91,28.08,8.65,30.98l73.27-5.32
					c0,0,15.47,71.16,74.63,105.52c59.16,34.37,33.22,9.2,33.22,9.2S1084.66,806.62,1028.68,779.03z"/>
				<path id="XMLID_725_" class="st24" d="M912.63,620.26c9.1-8.23-25.03,0.48-30.04-15.01l-51.42,60.51
					c1.37,2.9,42.32,20.81,42.32,20.81s-2.73,30.98,5.46,50.83c0,0-25.03,22.75-20.48,49.37c4.55,26.62,43.23,35.82,55.98,35.34
					c12.74-0.48,91.02-31.95,91.02-31.95l-2.28-15.49c0,0-55.52-34.85-100.57-12.59c0,0-17.29-61.47,1.37-81.32
					C903.99,680.77,903.53,628.49,912.63,620.26z"/>
				<path id="XMLID_724_" class="st18" d="M835.27,688.03c0,0,35.5-62.44,56.43-76l-20.93-6.29c0,0-67.81,38.24-71.45,60.51
					C795.68,688.51,835.27,688.03,835.27,688.03z"/>
				<polygon id="XMLID_723_" class="st18" points="1233,798.06 1253.63,845.83 1281.54,816.14 				"/>
				<path id="XMLID_722_" class="st25" d="M1193.25,728.68c31.55,1.29,79.49,28.4,79.49,28.4l5.16-11.94
					c0,0-109.53-71.32-165.36-71.32s-92.84-18.72-92.84-18.72l-18.2,1.29l-41.99,36.96c1.37,6.78,39.14,75.03,40.5,75.03
					c1.37,0,68.26,9.2,68.26,9.2s130.44-3.07,167.45,36.95l10.92-5.81c0,0-30.61-36.7-61.89-48.73
					c-28.52-10.97-69.78-24.85-69.78-24.85S1161.7,727.39,1193.25,728.68z"/>
				<path id="XMLID_721_" class="st18" d="M1182.04,657.53c-2.28-0.48-138.8-41.63-138.8-41.63l-28.7,37.91
					c0,0,54.64,51.16,116.07,40.51C1192.05,683.67,1184.32,658.02,1182.04,657.53z"/>
				<path id="XMLID_720_" class="st18" d="M1193.25,728.68c13.63,0.56,30.31,5.93,44.87,11.86c-51.61-32.76-172.3-47.36-172.3-47.36
					c-9.1,41.95-67.96,60.03-67.96,60.03l36.12,19.68c17.12,2.33,34.29,4.69,34.29,4.69s130.44-3.07,167.45,36.95l10.92-5.81
					c0,0-30.61-36.7-61.89-48.73c-28.52-10.97-69.78-24.85-69.78-24.85S1161.7,727.39,1193.25,728.68z"/>
				<path id="XMLID_719_" class="st26" d="M1663.14,705.11l-322.85-51.23l-209.98-65.47l-61.29,39.35
					c13.76,9.45,180.8,165.6,180.8,165.6l46.12-0.13l36.82,46.37l-3.69-16.33l21.92-18.29l-7.29-15.74l77.27,74.54l26.12-8.88
					c0,0,71.73,23.98,74.19,68.21l98.46-0.97l-32.43-55.24l62.76-70.34l-109.21-55.62l104.46,22.85L1663.14,705.11z"/>
				<g id="XMLID_715_">
					<path id="XMLID_718_" class="st7" d="M1655.37,730.68c-103.04-21.46-251.91-53.32-251.91-53.32l-138.57-46.98l-109.08-34.01
						l189.5,196.34l-1.61-3.47l77.27,74.54l26.12-8.88c0,0,5.92,1.98,14.41,5.85c-55.88-62.03-138.23-148.29-201.7-193.11
						c82.43,49.74,269.69,163.78,342.96,225.59l-15.46-26.33l39.82-44.62c-127.24-62.11-374.05-182.5-412.53-200.69
						c32.96,13.59,215.55,79.92,330.55,121.53l-4.28-2.18l104.46,22.85L1655.37,730.68z"/>
					<path id="XMLID_717_" class="st7" d="M1295.94,793.23l36.82,46.37l-1.08-4.77c-31.63-42.21-146.59-162.42-208.31-225.76
						l-9.65,12.61l154.97,171.63L1295.94,793.23z"/>
					<path id="XMLID_716_" class="st7" d="M1130.31,588.41l-16.66,10.7c3.06,3.13,6.31,6.46,9.72,9.96l14.1-18.42L1130.31,588.41z"
						/>
				</g>
				<g id="XMLID_706_">
					<path id="XMLID_714_" class="st27" d="M1302.96,956.56l-7-0.96C1295.96,955.6,1298.51,956.02,1302.96,956.56z"/>
					<path id="XMLID_713_" class="st27" d="M1170.77,841.64c0,0-2.04-0.25-5.59-0.52C1167.03,841.33,1168.89,841.51,1170.77,841.64z
						"/>
					<path id="XMLID_712_" class="st27" d="M1217.87,860.38c-6.84,0.69-11.32,2.19-11.32,2.19S1210.92,861.5,1217.87,860.38z"/>
					<path id="XMLID_711_" class="st27" d="M951.01,636.38c-0.55,5.23-13.67,125.01,21.87,150.6
						c35.53,25.58,106.05,11.05,106.05,11.05s36.59,37.29,86.25,43.09c3.55,0.27,5.59,0.52,5.59,0.52c-1.88-0.13-3.74-0.3-5.59-0.52
						c-19.47-1.48-84.36-3.59-107.02,31.34c-26.79,41.28,13.67,43.61,73.8,49.42c60.13,5.81,122.45,33.72,122.45,33.72l109.33,9.3
						l-60.79-8.34c-4.45-0.55-7-0.96-7-0.96l7,0.96c23.96,2.95,102.9,9.77,134.03-23.34l-49.2-15.7c0,0,1.64,20.93-28.7,17.45
						c-30.34-3.49-54.12-23.55-54.12-23.55s39.36,22.68,57.41,5.23c18.04-17.45,68.07-13.96,68.07-13.96s-52.48-19.19-69.71-7.85
						c-17.22,11.34-52.48,0.87-52.48,0.87l27.06-9.59c0,0-47.56,15.7-71.35-9.6c-15.11-16.07-34.17-17.35-46.08-16.15
						c-6.95,1.12-11.32,2.19-11.32,2.19s4.49-1.51,11.32-2.19c17.32-2.8,50.67-5.9,72.32,6.56c0,0-12.3-17.45-35.26-47.1
						c-22.96-29.66-76.27-13.08-98.41-26.17c-22.14-13.08-36.08-49.72-36.08-49.72s-75.45,22.68-112.35,3.49
						c-36.9-19.19-24.6-105.55-24.6-105.55L951.01,636.38z"/>
					<path id="XMLID_710_" class="st28" d="M965.23,743.95c-15.31-29.93-6.19-81.83-0.85-105.31l-3.66-0.62
						c-8.5,37.67-22.64,140.89,34.25,149.53c68.89,10.47,76.27,0.87,76.27,0.87s56.59,46.23,77.09,41.87
						c0,0-55.77-28.79-68.89-54.95c0,0-22.96,1.14-62.09-24.16c-3.28-1.02-6.39-2.26-9.26-3.75
						c-23.73-12.34-27.11-52.46-26.51-79.52c-0.49-10.84,0.05-18.15,0.05-18.15l-8.2-1.74c0,0-12.57,92.45,39.36,116.29
						c20.11,9.23,33.83,13.76,43.09,15.83c-17.49-1.28-43.44-5.58-58.39-19.32c-23.84-21.9-43.37-82.62-29.89-121.62l-0.9-0.15
						c-5.47,18.52-12.38,55.18,0.18,84.56c21.87,51.17,43.23,58.44,73.8,61.64C1040.66,785.23,985.45,783.49,965.23,743.95z"/>
					<g id="XMLID_707_">
						<path id="XMLID_709_" class="st28" d="M1146.13,837.3c1.51,0.43,3.03,0.83,4.57,1.2c1.3-0.24,2.04-0.35,2.04-0.35
							L1146.13,837.3z"/>
						<path id="XMLID_708_" class="st28" d="M1140.74,840.54c-27.43,0.73-66.14,6.57-82.58,31.92
							c-26.79,41.28,13.67,43.61,73.8,49.42c37.45,3.62,75.74,15.81,99.3,24.49l-39.48-21l72.17,18.32l-62.33-27.04l83.65,27.04
							l-82.01-41c0,0,31.16,10.47,69.71,27.91c38.54,17.45,62.33,9.6,62.33,9.6s-86.11-26.17-114.81-42.74
							c-28.7-16.57-119.73-6.98-126.29-27.91C1089.44,854.39,1122.27,844.72,1140.74,840.54z"/>
					</g>
				</g>
				<path id="XMLID_705_" class="st25" d="M880.15,608.7c0,0,45.5,48.95,81.02,50.02c35.52,1.07,50.65-23.66,50.65-23.66
					s-123.2-108.75-126.03-109.31c-2.83-0.56-70.36-17.88-70.36-17.88l-36.77,31.37c0,0,8.9,39.73,37.28,63.37
					C844.32,626.25,880.15,608.7,880.15,608.7z"/>
				<path id="XMLID_704_" class="st29" d="M1019,647.2c-1.72-10.6-15.17-22.89-15.17-22.89l-40.35-2.12c0,0-25.17,8.48-32.76,44.52
					c0,0-13.11,4.24-13.11,14.84c0,10.6,12.76,14.84,12.76,14.84s-7.59,16.96,8.97,22.05c0,0,12.76,15.26,25.52,6.36
					c0,0,33.11,10.6,36.9-13.14c0,0,12.07-1.27,14.14-11.45c2.07-10.18-1.72-13.57-1.72-13.57s8.28-3.39,9.31-12.72
					c1.03-9.33-7.24-15.69-7.24-15.69S1020.72,657.8,1019,647.2z"/>
				<path id="XMLID_703_" class="st30" d="M1064.2,674.83c24-22.47,51.51-69.58,51.51-69.58l67.56-8.09c0,0-11.43-26.32-58.9-19.26
					c-47.48,7.06-112.37,12.15-112.37,12.15l-3.84,54.66C1008.16,644.71,1040.2,697.3,1064.2,674.83z"/>
				<path id="XMLID_702_" class="st31" d="M1417.73,550.07c0,0-60.3,44.65-110.4,55.03c-50.1,10.39-126.77-6.56-126.77-6.56
					s-20.05-9.24-44.27-4.66c-24.21,4.58-48.32,16.96-48.32,16.96l47.74,52.04c0,0,97.19-1.75,103.5-2.69
					c6.31-0.94,173.69-17.53,173.69-17.53l74.37-11.06l3.97-15.25l17.2-5.49l6.27-32.7l-80.1,12.89l-3.71-7.27l8.71-7.16
					L1417.73,550.07z"/>
				<path id="XMLID_701_" class="st32" d="M596.6,558.43c-1.85-8.63-16.26-7.57-16.26-7.57l-15.55,1.44c0,0-20.58,19.36,1.36,39.34
					l11.36-4.3c0,0-8.52-6.77-9.48-17.71c0,0,8.1,14.44,20.61,11.71l7.24-4.77c0,0-10.13-0.88-14.62-7.82
					C581.26,568.75,598.45,567.06,596.6,558.43z"/>
				<path id="XMLID_700_" class="st33" d="M695.02,411.98c0.04,0.76,0.05,1.23,0.05,1.23C695.11,412.77,695.09,412.36,695.02,411.98
					z"/>
				<path id="XMLID_699_" class="st33" d="M682.06,405.91c0,0,2.92,1.3,6.35,9.8c3.43,8.5-3.8,10.61,0.48,19.85
					c4.27,9.24,21.38,5.96,21.38,5.96l40.76,22.74c0,0,6.43,5.91,11.07,8.38c4.64,2.47,6.67,0.42,15.4-1.52
					c8.73-1.94,6.72-9.31,6.72-9.31c5.59-1,8.26-21.79,8.26-21.79s-4.05-17.65-14.15-26.57c-10.1-8.92-29.87-3.35-29.87-3.35
					s0,0-6.64-6.91c-6.64-6.91-14.25-0.95-14.25-0.95s-1.4-4.38-9.12-6.54c-7.72-2.16-13.9,7.85-13.9,7.85
					c-4.45-10.56-17.06-6.45-17.06-6.45c6.19,0.96,7.31,11.28,7.51,14.87c0.07,0.39,0.09,0.79,0.05,1.23c0,0,0-0.47-0.05-1.23
					C694.02,406.4,682.06,405.91,682.06,405.91z"/>
				<path id="XMLID_698_" class="st18" d="M775.12,447.96c2.04-4.33-1.5-11.17-4.38-15.63c-8.74,5.97-20.47,5.96-20.47,5.96
					s-11.94-16.37-25.72-15.18c-11.21,0.97-20.65,11.6-23.79,15.53c3.43,5.5,19.66,32.66,13.43,44.41c0,0,3.99,3.71,11.66,0.58
					l4.39,6.13l3.47,2.78c0,0,11.97,6.84,23.31,1.64c5.15-2.36,11.33-9.26,16.69-17.32c2.47-12.44-7.52-25.85-7.52-25.85
					S771.89,454.81,775.12,447.96z"/>
				<path id="XMLID_695_" class="st34" d="M775.12,447.96c2.04-4.33-1.5-11.17-4.38-15.63c-8.74,5.97-20.47,5.96-20.47,5.96
					s-11.94-16.37-25.72-15.18c-0.77,0.07-1.53,0.18-2.29,0.34c12.62,10.31,28.18,25.34,27.91,36.59
					c-0.27,11.1-7.3,24.71-13.05,34.04c4.36,1.65,12.28,3.6,19.9,0.1c5.15-2.36,11.33-9.26,16.69-17.32
					c2.47-12.44-7.52-25.85-7.52-25.85S771.89,454.81,775.12,447.96z"/>
				<path id="XMLID_694_" class="st25" d="M812.66,471.62c-11.23-12.01-50.86,4.63-50.86,4.63s-12.6-4.97-27.83,8.54
					c-15.23,13.51-10.71,33.85-10.71,33.85l67.12,3.7C795.79,521.54,823.89,483.64,812.66,471.62z"/>
				<path id="XMLID_693_" class="st35" d="M969.34,405.64c-23.06-1.29-62.2,27.11-64.02,27.43l67.96,7.42
					C975.71,437.59,992.4,406.93,969.34,405.64z"/>
				<path id="XMLID_692_" class="st15" d="M1060.66,406.93c-26.7-41.63-81.31-16.46-81.31-16.46s-45.81,49.05-46.72,50.02l71.6-11.3
					C1004.23,429.2,1087.36,448.56,1060.66,406.93z"/>
				<path id="XMLID_689_" class="st31" d="M1056.99,409c-88.72-13.9-177.33,22.36-177.33,22.36l63.53,64l107.85-13.67
					C1054.37,466.97,1052.73,428.03,1056.99,409z"/>
				<g id="XMLID_675_">
					<path id="XMLID_688_" class="st36" d="M719.87,624.78c0,0-0.06,0.22-0.14,0.6C719.83,625,719.87,624.78,719.87,624.78z"/>
					<path id="XMLID_687_" class="st36" d="M699.82,571.7c-3.03,10.17,6.76,32.99,10.96,47.63c4.2,14.64-3.03,19.6-3.03,19.6
						c8.15-0.43,11.31-10.9,11.98-13.54c0.08-0.38,0.14-0.6,0.14-0.6s-0.05,0.22-0.14,0.6c-0.44,2.09-1.5,9.52,3.64,17.51
						c6.06,9.43,8.86,3.97,8.86,3.97c-6.06-4.71,2.57-17.86,2.57-17.86c0.47,5.46,10.03,10.17,10.03,10.17s-7.93-15.13,0.23-23.81
						c8.16-8.68-0.23-16.87-0.23-16.87l33.58-30.02c0,0,3.03-8.43,3.03-17.36c0-8.93-8.16-27.04-23.32-26.05
						c-15.16,0.99-26.35-0.99-34.75,4.47c-8.4,5.46-3.96,24.31-3.96,24.31S702.85,561.53,699.82,571.7z"/>
					<g id="XMLID_676_">
						<path id="XMLID_686_" class="st21" d="M766.69,606.6c10.24-2.38,25.04-15.46,26.33-21.25c1.3-5.79-10.61-24.87-21.11-30.98
							c-3.81-2.22-10.27-4.7-17.41-6.8c-5.47,5.9-17.49,9.51-22.97,12.04c-7.49,3.46-7.56,17.72-7.56,17.72
							c-3.8,2.77,2.42,18.62,6.53,27.96C741.92,606.56,759.92,608.17,766.69,606.6z"/>
						<path id="XMLID_685_" class="st37" d="M770.75,589.7c2.22-0.63,0.62-9.19,0.62-9.19s-1.18,5.99-2.31,6.73
							c-1.12,0.74-28.34-5.48-29.84-4.5l3.56,1.92C743.25,584.77,768.53,590.32,770.75,589.7z"/>
						<path id="XMLID_684_" class="st37" d="M776.62,592.2l1.22-10.78C773.05,585.69,776.62,592.2,776.62,592.2z"/>
						<path id="XMLID_683_" class="st37" d="M779.61,582.63l-1.18,6.33C782.17,586.72,779.61,582.63,779.61,582.63z"/>
						<path id="XMLID_682_" class="st37" d="M739.22,591.14c-2.6,5.72,1.78,12.95,1.78,12.95c-2.59-9.84,3.88-18.91,3.88-18.91
							S741.82,585.43,739.22,591.14z"/>
						<path id="XMLID_681_" class="st37" d="M749.54,555.76c-10,6.65-9.48,20.93-9.48,20.93l2.47,0.75c0,0-0.31-7.73,1.26-12.05
							C745.36,561.08,749.54,555.76,749.54,555.76z"/>
						<path id="XMLID_680_" class="st38" d="M758.03,566.58c0.54-2.4-1.16-4.88-3.79-5.55c-2.63-0.67-5.2,0.74-5.74,3.14
							c-0.54,2.4,1.16,4.88,3.79,5.55C754.92,570.39,757.49,568.98,758.03,566.58z"/>
						<path id="XMLID_678_" class="st38" d="M753.67,593.53c0.54-2.4-1.16-4.88-3.79-5.55c-2.63-0.67-5.2,0.74-5.74,3.14
							c-0.54,2.4,1.16,4.88,3.79,5.55C750.57,597.33,753.13,595.93,753.67,593.53z"/>
					</g>
				</g>
				<path id="XMLID_672_" class="st39" d="M814.43,524.7c34.15-59.05-32.39-49.97-49.78-37.71c0,0-96.43,41.03-113.91,44.13
					c-17.48,3.11-70.47,16.59-70.47,16.59l1.77,13.48C582.05,561.2,780.28,583.75,814.43,524.7z"/>
				<path id="XMLID_669_" class="st18" d="M751.06,512.5c-3.77,20.8-37.39,39.31-70.14,52.73c54.69-1.37,115.15-10.06,133.16-39.93
					C789.44,506.7,755.72,486.75,751.06,512.5z"/>
				<path id="XMLID_668_" class="st32" d="M587.75,557.81l9.72-11.12c0,0-36.04-6.35-52.71-1.32c-16.66,5.02-27.7,18.89-27.7,18.89
					l9.19,8.51C526.25,572.76,554.71,553.05,587.75,557.81z"/>
				<path id="XMLID_667_" class="st39" d="M612.14,556.99l-7-9.71c0,0-16.92-6.28-23.36-6.3c-6.44-0.02-14.16,1.13-15.21,1.29
					c-1.05,0.16-21.3,9.36-11.42,35.59l16.57-1.81l-2.97-17.15C568.76,558.88,595.48,574.46,612.14,556.99z"/>
				<path id="XMLID_666_" class="st18" d="M1077.35,522.14l32.16,65.19l20.63-1.29c0,0-3.64-12.91-20.02-51.63
					c-16.38-38.73-46.12-56.15-46.12-56.15s-1.21-10.33-30.95-19.36c-29.73-9.04-57.65,27.11-57.65,27.11l18.81,101.98
					c0,0,70.39,12.26,67.36-18.07C1058.54,539.57,1077.35,522.14,1077.35,522.14z"/>
				<path id="XMLID_663_" class="st30" d="M816.81,545.44c0,0,116.7,127.97,252.52,107.77l52.53-66.47
					c0,0-137.56-95.54-176.01-154.99c0,0-35.55-4.95-66.2-0.39c-30.65,4.56-80.23,42.38-80.23,42.38l-16.13-1.51l-9.26,11.15
					l-13.52,2.01l-2.42,4.92l-17.34,3.23l-5.52,9.29C735.23,502.83,756.72,554.38,816.81,545.44z"/>
				<g id="XMLID_652_">
					<path id="XMLID_660_" class="st31" d="M759.27,487.91l-1.18,2.4l-17.18,3.2c10.92,14.52,32.25,34.45,69.49,40.5
						C810.41,534.01,774.72,518.17,759.27,487.91z"/>
					<path id="XMLID_656_" class="st31" d="M945.85,431.75c0,0-35.55-4.95-66.2-0.39c-24.8,3.69-62,29.15-75.29,38.74
						c22.26,8.68,64.35,5.77,143.94-34.71C947.44,434.16,946.62,432.94,945.85,431.75z"/>
					<path id="XMLID_653_" class="st31" d="M779.48,476.81l-5.45,6.57l-5.45,0.81c11.3,15.73,25.79,30.86,41.94,36.77
						C810.53,520.96,790.7,500.79,779.48,476.81z"/>
				</g>
				<path id="XMLID_648_" class="st31" d="M868.36,555.37c0,0,40.75-25.61,107.2-37.45l21.4-42.29l-51.11-43.88l-22.07,4.59
					l48.82,35.75l-6.28,36.13C966.32,508.21,904.95,512.13,868.36,555.37z"/>
				<path id="XMLID_644_" class="st30" d="M1027.9,519.91c10.64,1.68,23.43,29.1,23.43,29.1l26.25,4.91l-19.1-15.75
					c0,0-4.56-25.39-26.51-33.86c-21.95-8.47-58.18,28.21-58.18,28.21l-56.11,25.29l65.95-15.68
					C983.65,542.13,1017.27,518.23,1027.9,519.91z"/>
				<path id="XMLID_641_" class="st31" d="M1023.35,525.81c20.73-3.08,35.14,12.35,35.14,12.35s-12.71-26.93-31.25-24.66
					c-18.54,2.27-45.64,26.83-45.64,26.83s-70.14,18.74-73.29,19.21l84.4-8.16C992.71,551.39,1002.61,528.9,1023.35,525.81z"/>
				<path id="XMLID_640_" class="st31" d="M886.96,554.41l77.34-16.39C948.05,522.84,886.96,554.41,886.96,554.41z"/>
				<path id="XMLID_639_" class="st31" d="M869.5,488.09c0,0,3.43,15.62,11.78,23.17L869.5,488.09z"/>
				<path id="XMLID_638_" class="st31" d="M1133.68,589.07l-50.78,1.69c0,0-20.1-16.56-67.07-20.82
					c-46.97-4.25-95.14,31.26-95.14,31.26c80.96-39.24,149.91,0.99,149.91,0.99L1133.68,589.07z"/>
				<path id="XMLID_636_" class="st31" d="M1155.92,589.5c0,0-55.15-41.98-97.43-51.33c0,0-17.14-9.18-35.43-3.85
					c-18.29,5.33-25.65,28.58-25.65,28.58s70.96,3.78,81.56,19.15L1155.92,589.5z"/>
				<path id="XMLID_633_" class="st40" d="M1346.37,662.47c0,0-32.97,22.14-48.89,6.66s-44.14-10.05-44.14-10.05l-40.89,14.7
					c6.24-0.93,90.77,30.2,108.25,39.91c17.48,9.71,76.92,56.88,76.92,56.88l3.16-2.97l-9.99-16.65l13.11,13.73l5.67-5.33
					l-11.81-15.95l14.03,13.86l5.74-5.4l-12.89-16.66l15.03,14.65l12.97-12.19l-33.7-36.23c0,0-17.75,1.41-24.94-9.22
					c-7.18-10.63-5.14-17.09-5.14-17.09L1346.37,662.47z"/>
				<path id="XMLID_632_" class="st39" d="M1353.88,659.76l-3.19-24.29c-43.44,5.16-64.84-13.16-119.15-16.16
					c-32.6-1.8-53.85,7.16-65.63,14.61c-18.6-12.33-52.06-32.94-65.19-30.99l-41.32,16.57l-10.46,27.62l-6.41,21.16
					c0,0,75.9,13.42,103.72,8.95C1197.72,692.18,1353.88,659.76,1353.88,659.76z"/>
				<path id="XMLID_631_" class="st39" d="M1463.94,611.45c-7.55-1.48-59.15,6.84-68.16,8.18c-9.01,1.34-17.85-0.6-33.71-4.76
					c-15.86-4.16-37.41,27.72-37.41,27.72l0.82,15.52c19.1,14.76,132.71,16.75,132.71,16.75l0.62-6.79l-20.13-6.03l20.58,1.09
					l1.18-13.05l-23.55-4.45l23.9,0.61l1.12-12.37c-8.58-1.09-24.19-1.14-24.19-1.14s15.36-3.66,24.83-5.91L1463.94,611.45z"/>
				<g id="XMLID_627_">
					<path id="XMLID_629_" class="st18" d="M1070.11,615.19c-3.56,2.09-7.57,4.46-11.73,6.92l-9.47,25.01l-6.41,21.16
						c0,0,39.55,6.99,72.01,9.2l-54.55-16.35c-0.95-15.67,15.14-41.22,21.33-50.43L1070.11,615.19z"/>
					<path id="XMLID_628_" class="st17" d="M1191.7,670.37c-7.09,5.45-44.68,6.16-44.68,6.16l0.3,1
						c52.55,14.21,206.56-17.77,206.56-17.77l-1.41-10.73l-181.93-6.79C1170.53,642.24,1198.79,664.92,1191.7,670.37z"/>
				</g>
				<path id="XMLID_626_" class="st41" d="M1021.93,441.03l55.02,26.03c0,0,15.57,1.29,21.24-9.04c5.66-10.33,5.26-16.78,5.26-16.78
					s4.45-3.44,3.84-11.19c-0.61-7.75-8.5-9.25-8.5-9.25s2.43-8.61-1.01-11.83c-3.44-3.23-12.14-19.58-25.28-23.67
					c-13.15-4.09-31.96,7.31-31.96,7.31s-10.72-6.45-20.23,3.87c-9.51,10.33-5.46,20.4-5.46,20.4
					C1010.2,423.96,1021.93,441.03,1021.93,441.03z"/>
				<path id="XMLID_625_" class="st42" d="M1067.24,420.13c-14.56,3.62-25.89-23.85-25.89-23.85c-6.47,6.24-3.44,21.51-3.24,22.59
					l26.03,42.13l12.81,6.06c0,0,15.57,1.29,21.24-9.04c5.66-10.33,5.26-16.78,5.26-16.78s4.45-3.44,3.84-11.19
					c-0.03-0.36-0.08-0.71-0.14-1.05c-3.83-4.96-10.99-5.19-10.99-5.19s5.87-3.23,0.4-13.98c-5.46-10.76-25.49-11.4-25.49-11.4
					l7.89,9.25c-5.46-5.16-16.38-5.81-16.38-5.81c8.9,3.01,10.92,10.54,10.92,10.54c-2.43-2.8-14.56-5.38-14.56-5.38
					S1081.8,416.5,1067.24,420.13z"/>
				<path id="XMLID_624_" class="st17" d="M1099.39,446.52c-2.67,0.82-6.57,1.45-12.13,1.18c-13.35-0.65-20.63-26.89-20.63-26.89
					c-14.97,2.37-25.28-7.75-25.28-7.75c-6.55,0.13-14.98,4.2-20.82,7.49c0.04,12.91,1.28,60.58,17.19,67.16
					c10.31,4.27,25.99,3.1,39.13-3.9c2.61-2.13,5.02-4.57,6.77-7.29c6.67-10.33,4.65-16.57,4.65-16.57
					S1097.15,463.38,1099.39,446.52z"/>
				<path id="XMLID_622_" class="st31" d="M1120.19,601.98c0,0-30.7-9.77-61.06,15.6c-30.36,25.37-12.6,57.92-12.6,57.92
					S1047.3,611.52,1120.19,601.98z"/>
				<path id="XMLID_621_" class="st18" d="M905.56,429.45c-8.43,0.11-17.36,0.64-25.9,1.91c-29.55,4.4-76.7,39.71-80.05,42.23
					c11.61,12.19,37.42,32.05,73.32,17.9C901.64,480.18,906.55,451.62,905.56,429.45z"/>
				<path id="XMLID_620_" class="st43" d="M901.58,381.44c6.27-2.8,13.75-8.61,13.96-9.25c0.2-0.65,4.65-25.82-1.21-32.92
					c-5.87-7.1-13.96-3.44-13.96-3.44s-9.3-14.2-28.12-5.81c-18.81,8.39-32.57,32.49-32.57,32.49l23.46,29.69
					c0,0,18.41-3.01,22.86-4.09C890.45,387.03,895.31,384.23,901.58,381.44z"/>
				<path id="XMLID_618_" class="st15" d="M903.8,421.45c24.85,1.67,13.17-58.06,9.47-74.57c-3.78,4.27-15.14,1.2-15.14,1.2
					s-0.81,8.18-13.35,13.77c-7.61,3.39-23.77,0.85-36.3-1.96l10.71,21.87C859.2,381.76,874.98,419.52,903.8,421.45z"/>
				<path id="XMLID_617_" d="M871.94,394.99c3.94-2.26,14.46-4.95,14.46-4.95C879.53,385.74,871.94,394.99,871.94,394.99z"/>
				<path id="XMLID_616_" class="st43" d="M885.5,382.51c0,0-12.44-9.25-18.41,4.63c0,0,4.05-4.73,10.11-5.27
					C883.27,381.33,885.5,382.51,885.5,382.51z"/>
				<path id="XMLID_615_" class="st44" d="M854.55,339.32c-2.81,9.52-30.29,9.52-43.09,9.14c-12.8-0.38-18.11,12.18-18.11,12.18
					s-13.74,2.67-21.86,18.28c-8.12,15.61,0.54,35.59,0.54,35.59h6.24l8.83,5.91l66.82,30.08c0,0,9.99-3.43,16.24-17.13
					c6.24-13.71,4.37-25.13,4.37-25.13l-11.55,3.05l9.68-12.94l-10.3,1.52c0,0,0-6.09,12.49-9.52
					c12.49-3.43,20.92-20.56,20.92-20.56c-5.93,5.33-19.67,6.47-19.67,6.47c-7.81,3.05-19.05-6.85-19.05-6.85s10.62,1.14,24.04,0.38
					c13.43-0.76,14.36-22.08,14.36-22.08s-6.56,20.94-19.05,10.28c-12.49-10.66-29.04-1.9-29.04-1.9
					C857.67,348.46,854.55,339.32,854.55,339.32z"/>
				<g id="XMLID_612_">
					<path id="XMLID_614_" class="st45" d="M874.84,390.34c12.49-3.43,20.92-20.56,20.92-20.56c-5.93,5.33-19.67,6.47-19.67,6.47
						c-5.45,2.13-12.57-2.06-16.38-4.78c-7.04,1.98-16.09,5.75-20.23,12.54c-7.28,11.94-25.49,16.46-25.49,16.46l3.64,11.3
						c0,0,22.45-8.71,27.61-21.62c5.16-12.91,18.51-10.65,18.51-10.65s-9.1,0.97-10.01,8.71c-0.91,7.75-3.03,13.55-3.03,13.55
						l-8.5,18.07l23.06-16.46l-16.38,24.53c0,0,13.57,0.92,25.83-12.69c0.25-4.31-0.18-6.98-0.18-6.98l-11.55,3.05l9.68-12.94
						l-10.3,1.52C862.35,399.86,862.35,393.77,874.84,390.34z"/>
					<path id="XMLID_613_" class="st45" d="M854.99,342.54c-0.95,6.01-5.46,13.13-21.27,14.05c-27.91,1.61-45.21,11.3-50.06,23.88
						c-4.85,12.59-1.82,21.3-1.82,21.3s1.82-28.08,22.76-30.34c20.93-2.26,47.33-9.04,47.33-9.04s-21.48,11.39-34.59,14.52
						c-13.11,3.13-23.67,18.07-23.67,18.07s22.15,2.9,36.41-11.62c8.14-8.29,19.73-11.63,28.18-12.98c-0.77-0.6-1.21-0.99-1.21-0.99
						s2.14,0.23,5.71,0.41c3.92-0.38,6.46-0.32,6.46-0.32s-1.12,0.13-2.95,0.46c4.07,0.13,9.19,0.14,14.82-0.18
						c13.43-0.76,14.36-22.08,14.36-22.08s-6.56,20.94-19.05,10.28c-12.49-10.66-29.04-1.9-29.04-1.9
						C853.85,351.28,855.02,345.88,854.99,342.54z"/>
				</g>
				<path id="XMLID_609_" class="st39" d="M853.35,414.59c-0.99-3.77-2.05-7.51-3.14-10.9c-0.35-0.18-0.69-0.39-1.03-0.64
					c-9.1-6.78-25.79,3.23-25.79,3.23l-16.69-27.11c-11.74,3.3-27.03,20.01-34.44,28.79l0.85,6.46l5.07,3.06l8.54,34.98l10.52-7.29
					l15.41,21.74l34-17.76c-1.53-0.48-2.56-0.79-2.69-0.79c-0.66,0,4.28-29.56,4.28-29.56L853.35,414.59z"/>
				<path id="XMLID_608_" class="st46" d="M853.35,414.59c-0.99-3.77-2.05-7.51-3.14-10.9c-0.35-0.18-0.69-0.39-1.03-0.64
					c-9.1-6.78-25.79,3.23-25.79,3.23l-16.69-27.11c-0.81,0.23-1.64,0.52-2.49,0.87c-0.3,11.37-0.07,25.7,2.79,28.17
					c4.85,4.2,18.51,12.26,16.69,23.88c-1.82,11.62-6.67,22.27-6.67,22.27s7.62,0.87,16.2,1.82l13.45-7.02
					c-1.53-0.48-2.56-0.79-2.69-0.79c-0.66,0,4.28-29.56,4.28-29.56L853.35,414.59z"/>
				<path id="XMLID_607_" class="st17" d="M1352.46,649.03l-27.41,1.13l0.42,7.96c14.61,11.29,84.5,15.11,116.57,16.28l-74.15-19.98
					l26.67-10.32L1352.46,649.03z"/>
				<path id="XMLID_606_" class="st43" d="M960.23,347.55l29.73-20.98c0,0-4.85-10.97-15.47-20.01
					c-10.62-9.04-27.91,4.84-27.91,4.84s-7.59-9.36-26.09,7.1c-18.51,16.46,6.98,37.11,6.98,37.11L960.23,347.55z"/>
				<path id="XMLID_605_" class="st15" d="M985.18,373.1c3.03-3.35,1.62-10.71,0.17-15.68c-9.62,2.83-20.39-0.74-20.39-0.74
					s-6.58-18.65-19.55-21.74c-10.55-2.51-22.07,4.38-26.01,7.05c1.67,6.09,9.29,35.95,0.43,44.85c0,0,2.67,4.62,10.55,4.07
					l2.39,6.95c0,0,6.36-0.95,11.64-4.03c0,0-7.17,6.71-9.21,7.64c0,0,9.16,9.92,20.96,8.58c5.36-0.61,12.88-5.07,19.97-10.84
					c5.61-10.67,0.03-26.02,0.03-26.02S980.38,378.41,985.18,373.1z"/>
				<path id="XMLID_604_" class="st41" d="M976.92,321.73c-9.41-2.26-32.77,4.52-35.5,15.81c-2.73,11.3,4.55,25.17,4.55,25.17
					l48.54,26.79c0,0,11.53-9.68,22.76-9.68c11.23,0,18.51-6.78,18.51-6.78c-5.46,0.32-14.56-6.13-14.56-6.13s6.07,0.97,13.96-0.65
					c7.89-1.61,9.1-17.43,9.1-17.43s-1.82,6.13-10.32,7.42c-8.5,1.29-20.02-10-20.02-10s12.44-1.94,19.72-3.87
					c7.28-1.94,6.98-14.2,6.98-14.2s-5.76,10.33-12.44,4.84c-6.67-5.49-23.06,0.97-23.06,0.97s10.92-9.36,18.81-9.68
					s15.78-12.59,15.78-12.59s-9.71,8.71-19.72,4.84c-10.01-3.87-28.52,6.78-28.52,6.78l3.94-11.94
					C995.43,311.41,986.33,323.99,976.92,321.73z"/>
				<path id="XMLID_602_" class="st18" d="M951.09,392.46l2.39,6.95c0,0,6.36-0.95,11.64-4.03c0,0-7.17,6.71-9.21,7.64
					c0,0,9.16,9.92,20.96,8.58c5.36-0.61,12.88-5.07,19.97-10.84c5.61-10.67,0.03-26.02,0.03-26.02s4.22,5.22,9.02-0.09
					c3.03-3.35,1.62-10.71,0.17-15.68c-8.49,2.5-17.88,0.01-19.96-0.61c-11.81-0.58-17.95-12.08-17.95-12.08h-27.32
					c2.4,9.54,7.62,34.16-0.29,42.11C940.55,388.39,943.21,393.01,951.09,392.46z"/>
				<path id="XMLID_601_" class="st33" d="M917.61,681.54c0,10.6,12.76,14.84,12.76,14.84s-7.59,16.96,8.97,22.05
					c0,0,9.7,11.6,20.64,8.67c2.09-5.62-5.3-14.82-5.3-14.82c8.02,2.71,10.54,8.12,11.09,12.78c3.2,0.89,14.2,3.56,23.27,1.01
					c-0.27-0.97-0.62-2.1-1.08-3.4c-2.76-7.84-23.62-15.26-23.62-15.26s4.66-2.97,15.35,1.06c5.69,2.14,11.68,8.5,16.5,13.9
					c2.74-2.37,4.79-5.81,5.57-10.72c0,0,12.07-1.27,14.14-11.45c2.07-10.18-1.72-13.57-1.72-13.57s8.28-3.39,9.31-12.72
					c0.32-2.87-0.25-5.47-1.18-7.68c-0.02-0.04-0.04-0.09-0.05-0.13c-2.11-4.89-6.01-7.88-6.01-7.88s0.48-0.05,1.06-0.47
					c-6.81-6.35-16.66,5.56-16.66,5.56s-6.29-2.23-9.48,3.29c-3.19,5.51-0.95,13.25-0.95,13.25s-7.76-3.39-11.9,0.85
					c-4.14,4.24-2.07,16.85-2.07,16.85s-2.24-10.18-9.92-10.18c-7.67,0-10.95,7.63-10.95,7.63s-0.86-9.43-8.79-10.81
					c-7.93-1.38-13.79,2.86-13.79,2.86c-5.72-1.97-5.67-12.35-4.99-19.1C923.93,669.88,917.61,674.18,917.61,681.54z"/>
				<path id="XMLID_600_" class="st47" d="M729.65,453.62c0,0-1.52,7.31-9.71,8.82l0.4,2.26
					C720.34,464.7,730.36,463.94,729.65,453.62z"/>
				<path id="XMLID_599_" class="st33" d="M728.33,450.28c-4.55,3.98-13.35,7.1-13.35,7.1l1.01,1.61
					C722.06,457.6,728.33,450.28,728.33,450.28z"/>
				<path id="XMLID_598_" class="st44" d="M846.65,473.11c6.83-0.97,22.75,8.23,29.58-7.26c6.83-15.49,17.75-27.11,23.66-22.27
					c5.92,4.84,22.75,5.32,28.22-4.84c5.46-10.17,15.02-32.43,15.02-32.43s-16.76,29.05-26.39,20.81
					c-9.64-8.24-32.77-13.55-37.77-3.39c-5.01,10.17-15.81,21.92-21.27,18.37c-5.46-3.55-25.18-4.52-27.91,1.29l-19.11,5.81
					c-0.91,0-15.89,33.58,4.13,39.87C834.81,495.37,839.82,474.08,846.65,473.11z"/>
				<path id="XMLID_597_" class="st45" d="M842.87,439.24c-2.78,0.01-5.5,0.27-7.75,0.84c-0.06,0.06-0.13,0.13-0.19,0.19
					c-1.47,1.57-3.15,2.42-5.03,2.88c-0.05,0.08-0.09,0.16-0.13,0.24l-19.11,5.81c-0.24,0-1.46,2.33-2.75,5.88
					c8.51-0.27,25.37-4.95,29.75-11.25C839.05,441.83,840.91,440.34,842.87,439.24z"/>
				<path id="XMLID_594_" class="st46" d="M849,430.78c9.94-5.47,8.22-30.98,1.37-34.99c-6.85-4.01-14.05,11.3-14.05,11.3
					l0.34,10.21C836.66,417.29,839.06,436.25,849,430.78z"/>
				<path id="XMLID_591_" class="st48" d="M849.19,400.47c-2.34-1.37-4.73,0.31-6.63,2.51c1.57-1.31,3.34-1.98,5.08-0.96
					c4.47,2.61,5.97,17.59,1.21,23.84C855.42,421.07,854.08,403.33,849.19,400.47z"/>
				<path id="XMLID_590_" class="st10" d="M1339.2,382.66c7.7,18.73,11.21,32.99,11.21,32.99S1351.81,402.21,1339.2,382.66z"/>
				<path id="XMLID_589_" class="st10" d="M1248.47,314.96c52.97,23.87,78.47,48.68,90.73,67.7
					c-12.58-30.58-36.34-73.12-74.35-85.13c-61.29-19.36-149.88-22.59-149.88-22.59l-151.7,34.21
					C968.12,309.79,1141.06,266.55,1248.47,314.96z"/>
				<path id="XMLID_587_" class="st10" d="M1096.16,307.21l114.08,16.14C1165.34,282.68,1099.8,306.57,1096.16,307.21z"/>
				<path id="XMLID_586_" class="st10" d="M1493.01,447.92c0,0-27.97,7.13-55.24,16.87
					C1465.71,458.21,1493.01,447.92,1493.01,447.92z"/>
				<path id="XMLID_585_" class="st10" d="M1404.42,478.9c9.32-4.96,21.27-9.79,33.35-14.11c-15.74,3.71-31.69,6.23-43.06,5.07
					c-31.55-3.23-60.68-21.3-60.68-21.3C1334.03,451.79,1374.08,495.03,1404.42,478.9z"/>
				<path id="XMLID_584_" class="st10" d="M1455.39,442.75l-97.09,7.75c1.82,1.29,29.13,20.01,57.65,10.33
					C1444.47,451.14,1455.39,442.75,1455.39,442.75z"/>
				<path id="XMLID_583_" class="st10" d="M1420.2,441.46l81.31-12.91C1472.38,409.19,1420.2,441.46,1420.2,441.46z"/>
				<g id="XMLID_580_">
					<path id="XMLID_582_" class="st9" d="M820.87,721.63c-15.88,13.66-38.86,32.68-59.67,47.07c-6.6,4.56-13.34,7.89-20.03,10.28
						c6.24,27.71,31.67,107.87,121.81,142.76c-37.16-21.88-60.53-52.28-74.93-78.69c3.87,4.41,8.42,8.72,13.8,12.78
						c37.62,28.4,137.75,41.31,137.75,41.31s-149.27-44.54-155.34-88.42c-3.38-24.45,14.52-54.11,31.04-75.59
						C817.1,729.2,818.97,725.35,820.87,721.63z"/>
				</g>
				<path id="XMLID_578_" d="M962.36,368.96c0.4-5.16-9.1-0.86-9.1-0.86l0.3,0.43l2.63,7.85
					C956.19,376.38,961.95,374.12,962.36,368.96z"/>
				<path id="XMLID_577_" class="st41" d="M967.42,362.18c-6.78-5.49-16.49-5.16-16.49-5.16l0.2,2.69
					C958.52,357.88,967.42,362.18,967.42,362.18z"/>
				<path id="XMLID_576_" class="st43" d="M926.76,358.52l0.2,2.37c0,0,5.87-1.08,13.86-2.9
					C940.82,357.99,931.51,356.59,926.76,358.52z"/>
				<path id="XMLID_575_" d="M940.72,366.16c0,0-3.03,3.33-6.37,3.66c-3.34,0.32-6.07-2.69-6.07-2.69V371
					C928.28,371,935.25,376.49,940.72,366.16z"/>
				<path id="XMLID_574_" class="st15" d="M978.74,398.54"/>
				<g id="XMLID_573_">
					<g>
						<path class="st15" d="M969.94,448.16c3.22,0,3.22-5,0-5C966.73,443.16,966.72,448.16,969.94,448.16L969.94,448.16z"/>
					</g>
				</g>
				<path id="XMLID_568_" class="st15" d="M1005.89,374.65c3.03-3.35,1.62-10.71,0.17-15.68c-8.49,2.5-17.88,0.01-19.96-0.61
					c-11.81-0.58-17.95-12.08-17.95-12.08h-10.7c12.67,12.82,28.95,31.73,27.54,43.08c-1.4,11.31-7.95,18.4-12.8,22.2
					c1.5,0.19,3.07,0.22,4.69,0.04c5.36-0.61,12.88-5.07,19.97-10.84c5.61-10.67,0.03-26.02,0.03-26.02
					S1001.09,379.96,1005.89,374.65z"/>
				<path id="XMLID_566_" d="M900.87,386.6c3.94-2.26,14.46-4.95,14.46-4.95C908.45,377.35,900.87,386.6,900.87,386.6z"/>
				<path id="XMLID_565_" class="st43" d="M914.42,374.12c0,0-12.44-9.25-18.41,4.63c0,0,4.05-4.73,10.11-5.27
					C912.2,372.94,914.42,374.12,914.42,374.12z"/>
				<path id="XMLID_563_" class="st49" d="M895.31,394.1c-1.21-6.13-7.89-12.67-7.89-12.67s5.46,7.26,6.37,14.2
					c0.91,6.94,0,11.29,0,11.29s8.34,2.58,9.71-4.03l-7.81,2.82C895.69,405.72,896.52,400.23,895.31,394.1z"/>
				<path id="XMLID_561_" class="st49" d="M903.42,409.19c-0.83,2.02-4.48,1.21-4.48,1.21s-6.9,1.69-7.36,1.69l6.98-0.48
					c0,0,1.82,1.29,4.4,0.65c2.58-0.65,2.28-2.82,2.28-2.82l5.84-5.24L903.42,409.19z"/>
				<path id="XMLID_560_" class="st49" d="M891.41,409.51l-0.4,3.33C892.83,411.83,891.41,409.51,891.41,409.51z"/>
				<path id="XMLID_559_" class="st49" d="M907.64,403c0.51,0.43,2.98,2.37,5.16,1.29L907.64,403z"/>
				<path id="XMLID_558_" class="st18" d="M1050.93,490.19c8.33,0.13,17.63-1.97,25.92-6.38c2.61-2.13,5.02-4.57,6.77-7.28
					c6.67-10.33,4.65-16.57,4.65-16.57s8.88,3.41,11.12-13.44c-2.67,0.82-6.57,1.45-12.13,1.18c-13.35-0.65-20.63-26.89-20.63-26.89
					c-2.98,0.47-5.78,0.44-8.35,0.1c4.32,12.16,12.59,38.73,7.54,51.75C1063.03,479.84,1057.01,485.75,1050.93,490.19z"/>
				<path id="XMLID_557_" class="st50" d="M1035.88,445.23c-0.91-3.66-4.75-4.95-4.75-4.95l0.1,0.38c0,0,4.1,3.07,3.34,6.62
					c-0.76,3.55-2.28,19.2-2.28,19.2s4.85,3.39,7.74,2.42c2.88-0.97,4.85-3.71,4.85-3.71s-3.34,1.45-6.37,1.56
					c-3.03,0.11-4.35-1.51-4.35-1.51S1036.79,448.88,1035.88,445.23z"/>
				<path id="XMLID_556_" class="st50" d="M1053.38,472.93c0,0-5.92,0.97-8.8,0.97c-2.88,0-11.23,1.13-11.23,1.13l1.52,1.45
					c0,0,7.74-0.48,11.98-0.65C1051.1,475.67,1053.38,472.93,1053.38,472.93z"/>
				<path id="XMLID_555_" class="st50" d="M1038.97,480.03l8.04-0.81C1042.15,476.31,1038.97,480.03,1038.97,480.03z"/>
				<path id="XMLID_554_" class="st42" d="M1021.98,439.69l10.32,0.97C1028.8,437.27,1021.98,439.69,1021.98,439.69z"/>
				<path id="XMLID_553_" class="st42" d="M1059.3,438.07c-6.37,0-12.89,4.03-12.89,4.03c15.93-3.07,22.76,0.32,22.76,0.32
					S1065.67,438.07,1059.3,438.07z"/>
				<path id="XMLID_552_" d="M1030.32,450.34c0-2.67-1.43-4.84-3.19-4.84c-1.76,0-3.19,2.17-3.19,4.84c0,2.67,1.43,4.84,3.19,4.84
					C1028.9,455.18,1030.32,453.01,1030.32,450.34z"/>
				<path id="XMLID_551_" d="M1053.38,450.34c0-2.67-1.43-4.84-3.19-4.84s-3.19,2.17-3.19,4.84c0,2.67,1.43,4.84,3.19,4.84
					S1053.38,453.01,1053.38,450.34z"/>
				<path id="XMLID_550_" class="st11" d="M794.85,616.49c0.77-1.95,0.68-3.84-0.2-4.23c-0.88-0.39-2.21,0.87-2.97,2.82
					c-0.77,1.95-0.68,3.84,0.2,4.23C792.75,619.7,794.08,618.43,794.85,616.49z"/>
				<g id="XMLID_539_">
					<path id="XMLID_549_" class="st51" d="M1285.7,462c12.7-33.47-14.42-47.81-14.42-47.81c-9.96-25.75-39.83-14.71-39.83-14.71
						s-2.4-2.21-18.54,0.37c-16.14,2.57-17.63,19.37-17.63,19.37l6.64,15.45l50.48,50.51C1252.39,485.17,1272.99,495.47,1285.7,462z
						"/>
					<path id="XMLID_548_" class="st18" d="M1272.53,468.28c-2.78,0.07-6.7-0.4-12.01-2.17c-12.75-4.27-13.44-31.63-13.44-31.63
						c-15.04-1.8-22.56-14.39-22.56-14.39c-6.36-1.66-15.49-0.04-21.93,1.55c-3.08,12.49-13.39,58.9,0.39,69.6
						c8.94,6.94,24.37,10.1,38.76,6.93c3.04-1.35,5.96-3.05,8.31-5.19c8.94-8.16,8.5-14.74,8.5-14.74S1266.3,483.96,1272.53,468.28z
						"/>
					<path id="XMLID_547_" class="st7" d="M1235.83,449.16c-6.16-1.74-13.44,0.38-13.44,0.38c16.13,1.39,21.91,6.53,21.91,6.53
						S1241.99,450.9,1235.83,449.16z"/>
					<path id="XMLID_546_" d="M1208.36,455.99c0.65-2.58-0.21-5.07-1.91-5.55c-1.7-0.48-3.6,1.22-4.25,3.81
						c-0.65,2.58,0.21,5.07,1.91,5.55C1205.82,460.28,1207.72,458.58,1208.36,455.99z"/>
					<path id="XMLID_545_" d="M1235.95,462.3c0.65-2.58-0.21-5.07-1.91-5.55c-1.7-0.48-3.6,1.22-4.25,3.81
						c-0.65,2.58,0.21,5.07,1.91,5.55C1233.4,466.59,1235.3,464.88,1235.95,462.3z"/>
					<path id="XMLID_544_" class="st7" d="M1213.17,448.67c0,0-3.84-9.9-12.95-2.8C1199.98,446.06,1209.23,442.86,1213.17,448.67z"
						/>
					<path id="XMLID_543_" class="st7" d="M1212.47,460.39c0,0-2.22,4.52-4.96,5.27c-2.73,0.75,0.51,10.65,7.79,4.52
						c0,0-7.48,1.18-6.27-1.61C1210.24,465.77,1210.95,466.31,1212.47,460.39z"/>
					<path id="XMLID_542_" class="st7" d="M1207.51,479.7l11.23,0.48C1214.79,474.86,1207.51,479.7,1207.51,479.7z"/>
					<path id="XMLID_541_" class="st7" d="M1217.07,482.93c0,0-6.59-1.35-5.76-0.65C1214.34,484.87,1217.07,482.93,1217.07,482.93z"
						/>
					<path id="XMLID_540_" class="st7" d="M1221.62,488.42c0,0-8.04,3.07-13.96-1.29c-0.12-0.09,0.36,0.36,1.23,0.99
						C1211.62,490.11,1218.16,493.93,1221.62,488.42z"/>
				</g>
				<path id="XMLID_538_" class="st19" d="M1260.91,497.61c1.21,13.88,21.54,20.33,23.36,22.59l55.95-13.77
					c3.08,0.18,4.43,0.54,4.43,0.54s1.27-0.84,3.23-2.43l5.88-1.45c0.75,0.6,7.53-5.59,9.09-15.98c1.58-2.81,2.96-5.88,3.96-9.19
					c5.46-18.07-12.74-22.91-13.65-23.88c-8.54-9.09-17.9-8.07-17.9-8.07c-7.71-14.02-24.99-5.93-30.98-2.55
					c-5.9,1.29-18.61-0.4-28.19,3.2c-10.32,3.87-7.89,29.37-7.89,29.37S1259.7,483.74,1260.91,497.61z"/>
				<path id="XMLID_537_" class="st52" d="M1353.34,503.2l0.41-0.1c0.75,0.6,7.53-5.59,9.09-15.98c1.58-2.81,2.96-5.88,3.96-9.19
					c5.46-18.07-12.74-22.91-13.65-23.88c-8.54-9.09-17.9-8.07-17.9-8.07c-6.11-11.11-18.23-8.33-25.97-5.02
					c10.06,3.42,21,9.3,25.17,19.22c8.5,20.22,4.45,27.54,4.45,27.54S1348.71,498.17,1353.34,503.2z"/>
				<g id="XMLID_527_">
					<path id="XMLID_536_" class="st17" d="M1322.97,553.52c19.7-1.81,35.08-62.41,35.08-62.41c-0.06-0.49-0.12-0.98-0.19-1.46
						c-6-5.7-14.67-12.76-20.5-12.37c-9.71,0.65-22.76-13.23-22.76-13.23s0,5.81-7.28,17.1c-7.28,11.3-25.79,2.9-25.79,2.9
						c-0.48,0.61-0.91,1.34-1.3,2.16c-0.8,11.93-1.06,35.96,7.68,53.25C1298.53,549.22,1312.44,554.48,1322.97,553.52z"/>
					<path id="XMLID_535_" class="st18" d="M1320.06,553.63c0.99,0.01,1.96-0.02,2.91-0.11c19.7-1.81,35.08-62.41,35.08-62.41
						c-0.06-0.49-0.12-0.98-0.19-1.46c-4.57-4.34-10.68-9.46-15.91-11.49c1.26,10.35,3.4,36.15-3.36,55.45
						C1335.32,542.96,1327.99,549.33,1320.06,553.63z"/>
					<path id="XMLID_534_" class="st50" d="M1314.61,522.36c0,0,9.91,3.66,13.35,2.37c3.44-1.29,0.4-9.47,0.4-9.47
						C1329.78,523.86,1314.61,522.36,1314.61,522.36z"/>
					<path id="XMLID_533_" class="st50" d="M1327.81,531.98l3.49,1.29l-3.94-4.2c0,0-3.49,2.58-4.25,2.26
						c-0.76-0.32-3.79-2.1-3.79-2.1l-9.86,3.23l8.95-0.65c0,0,1.97,1.94,4.85,2.42C1326.14,534.73,1327.81,531.98,1327.81,531.98z"
						/>
					<path id="XMLID_532_" class="st50" d="M1315.98,535.21c0.91,0,6.67,4.03,10.16,0.32L1315.98,535.21z"/>
					<path id="XMLID_531_" class="st50" d="M1315.98,497.57l0.48-1.87c-10.17-9.12-21.76,1.03-21.38,0.86
						C1305.14,492.11,1315.98,497.57,1315.98,497.57z"/>
					<path id="XMLID_530_" class="st50" d="M1347.38,506.17c-2.58-16.3-15.32-6.94-15.32-6.94
						C1344.95,495.52,1347.38,506.17,1347.38,506.17z"/>
					<path id="XMLID_529_" class="st53" d="M1311.1,508.64c0.31-3.19-1.68-6.02-4.43-6.32c-2.75-0.3-5.23,2.05-5.53,5.24
						c-0.31,3.19,1.68,6.02,4.43,6.32C1308.31,514.18,1310.79,511.83,1311.1,508.64z"/>
					<path id="XMLID_528_" class="st53" d="M1342.8,513.32c0.31-3.19-1.68-6.02-4.43-6.32c-2.75-0.3-5.23,2.05-5.53,5.24
						c-0.31,3.19,1.68,6.02,4.43,6.32C1340.02,518.86,1342.5,516.51,1342.8,513.32z"/>
				</g>
				<path id="XMLID_526_" class="st51" d="M1197.59,413.06c10.62-18.07,2.43-30.01,2.43-30.01c-4.55-61.64-69.48-31.3-69.48-31.3
					s-18.81,3.87-18.51,25.17c0.3,21.3,11.23,35.5,11.23,35.5l43.69,17.43C1166.94,429.84,1186.97,431.13,1197.59,413.06z"/>
				<path id="XMLID_525_" class="st15" d="M1184.54,413.76l-3.43-8.44c0,0-6.37,9.04-27,6.45c-20.63-2.58-29.73-27.43-29.73-27.43
					s-1.39,1.05-3.2,2.45c-0.45,18.56,1.82,51.06,21.79,62.34C1162.17,459.98,1176.93,432.77,1184.54,413.76z"/>
				<path id="XMLID_524_" class="st11" d="M1150.67,435.87c0,0-6.27,2.58-7.69,1.51c-1.42-1.08-3.64-6.67-3.64-6.67
					s0.61,8.82,2.83,9.68C1144.4,441.25,1150.67,435.87,1150.67,435.87z"/>
				<path id="XMLID_523_" class="st11" d="M1123.79,417.01l15.03,8.09C1138.82,425.1,1132.75,416.32,1123.79,417.01z"/>
				<path id="XMLID_522_" class="st11" d="M1152.09,432.01l20.21,0.51C1164.75,427.96,1152.09,432.01,1152.09,432.01z"/>
				<path id="XMLID_521_" class="st11" d="M1164.41,436.71c1.5-1.08,2.12-3.03,1.73-4.88c-2.76-0.4-5.72-0.47-8.57-0.38
					c-0.26,1.26-0.05,2.65,0.71,3.83C1159.69,437.49,1162.43,438.14,1164.41,436.71z"/>
				<path id="XMLID_520_" class="st11" d="M1135.02,426.39c1.13-0.19,2.08-0.86,2.73-1.79c-2.27-1.41-5.1-3.16-7.53-4.63
					c-0.23,0.73-0.3,1.53-0.18,2.35C1130.43,424.97,1132.66,426.79,1135.02,426.39z"/>
				<polygon id="XMLID_519_" class="st54" points="810.05,410.08 787.6,408.14 784.97,418.04 789.83,411.58 809.04,410.94 				"/>
				<path id="XMLID_518_" class="st54" d="M798.14,417.69c-2.35-1-6.63,2.55-6.63,2.55l4.27,5.21
					C795.78,425.44,800.49,418.68,798.14,417.69z"/>
				<path id="XMLID_517_" class="st46" d="M803.23,421.72c0,0-2.87,6.19-8.9,5.9c0,0,4.68,0.45,6.49-0.58
					C802.63,426.02,803.23,421.72,803.23,421.72z"/>
				<path id="XMLID_516_" class="st45" d="M823.7,486.32c-3.52,1.16-6.28,2.12-8.42,2.91c19.61,5.79,24.6-15.16,31.37-16.12
					c6.83-0.97,22.75,8.23,29.58-7.26c6.83-15.49,17.75-27.11,23.66-22.27c5.92,4.84,22.75,5.32,28.22-4.84
					c5.46-10.17,15.02-32.43,15.02-32.43s-16.76,29.05-26.39,20.81c-1.45-1.24-3.2-2.41-5.15-3.47c-7.34,4.15-16.4,7.99-23.56,7.16
					c-13.96-1.61-16.38,19.69-24.27,27.43c-7.89,7.75-17.29,9.04-20.63,5.49c-3.34-3.55-0.91-9.04-0.91-9.04s-11.23,4.52-7.59,11.29
					C838.27,472.76,836.45,482.12,823.7,486.32z"/>
				<path id="XMLID_515_" class="st44" d="M833.41,442.11c5.16-7.42,16.69-7.75,16.69-7.75s-14.26-1.29-19.42,4.2
					c-5.16,5.49-12.74,2.26-23.36,3.55c-10.62,1.29-12.44,6.78-12.44,6.78s-0.61,2.58,5.16,4.2
					C805.8,454.69,828.25,449.53,833.41,442.11z"/>
				<path id="XMLID_514_" class="st45" d="M831.32,399.83c-0.25,0.79,13.57,19.68,13.57,19.68l-3.21-24.4L831.32,399.83z"/>
				<g id="XMLID_103_">
					<path id="XMLID_513_" class="st55" d="M126.35,815.74c19.95-7.02,16.77-78.62,16.77-78.62l-52.61-36.15
						c0,0-11.56,27.73-10.7,67.04C80.68,807.31,106.41,822.76,126.35,815.74z"/>
					<path id="XMLID_512_" class="st56" d="M130.98,725.96l63.15-87.14c0,0-58.11-16.77-74.7-15.18s-25.33,19.17-25.33,19.17
						s-13.03,19.41-13.17,40.79c-0.14,21.38,21.39,47.5,25.23,48.24C110.01,732.59,130.98,725.96,130.98,725.96z"/>
					<path id="XMLID_511_" class="st55" d="M101.58,727.75c13.65,15.49,32.95,16.03,32.95,16.03l50.59-103.23
						c-2.56-0.5-41.96-13.9-60.94-11.17c-18.98,2.74-22.55,26.13-22.55,26.13s-7.62,3.34-12.85,18.38
						c-5.22,15.04,8.57,34.84,8.57,34.84s-7.27-24.42,1.92-31.74c9.19-7.32,12.26-7.25,12.26-7.25S87.93,712.26,101.58,727.75z"/>
					<path id="XMLID_510_" class="st55" d="M104.2,645.68c-12.49,16.71,1.07,52.4,1.07,52.4l5-22.78c0,0-3.93,58.1,2.5,67.59
						c6.43,9.49,30.34,14.81,30.34,14.81s-20.71-35.31-20.35-42.53l58.19-91.23C180.95,623.94,116.69,628.97,104.2,645.68z"/>
					<path id="XMLID_509_" class="st55" d="M378.01,866.86c0,0,18.74-33.6,50.34-70.06C459.94,760.35,476,675.49,476,675.49
						s5.89-20.5,6.43-33.03c0.54-12.53-6.43-8.54-11.24-8.54c-4.82,0-19.28-10.25-35.88-8.54c-16.6,1.71-21.42,21.64-21.42,21.64
						c-43.37,17.09-68.01,92.84-68.01,92.84s-56.76,30.19-56.23,32.47l15.53,70.06C305.18,844.08,378.01,866.86,378.01,866.86z"/>
					<path id="XMLID_508_" class="st56" d="M382.83,854.33c0,0,0.98,0.02,2.76,0c8.26-13.05,23-34.73,42.76-57.53
						C459.94,760.35,476,675.49,476,675.49s5.89-20.5,6.43-33.03c0.54-12.53-6.43-8.54-11.25-8.54c-2.81,0-8.89-3.48-16.76-6.04
						c-7.13,8.73-14.79,21.2-10.55,28.83c6.96,12.53,17.14,18.23,17.14,18.23s-19.81,39.3-24.63,56.39
						c-4.82,17.09-21.42,45-21.42,45v-26.2L382.83,854.33z"/>
					<path id="XMLID_507_" class="st57" d="M513.13,603.34l-5.18-22.78l-21.42-6.83c0,0-3.57,5.32-4.46,8.35
						c-0.89,3.04,1.07,2.66,1.25,5.32c0.18,2.66,5.35,5.13,7.85,7.4c2.5,2.28,5.18,5.7,5.18,5.7l7.85,3.23l-1.61-8.16
						c0,0,1.43,3.8,3.03,5.51C507.24,602.77,513.13,603.34,513.13,603.34z"/>
					<path id="XMLID_506_" class="st56" d="M370.78,654.13c11.51-2.28,43.37-27.62,46.32-32.18c2.95-4.56,49-37.59,49-37.59
						s-6.43-13.67-10.17-15.09c-3.75-1.42-56.76,24.78-69.61,25.92c-12.85,1.14-49.8,25.06-52.21,25.92l3.75,31.61
						C337.85,652.71,359.26,656.41,370.78,654.13z"/>
					<path id="XMLID_505_" class="st55" d="M336.74,643.39l1.11,9.32c0,0,21.42,3.7,32.93,1.42c11.51-2.28,43.37-27.62,46.32-32.18
						c2.95-4.56,49-37.59,49-37.59s-2.2-4.68-4.77-8.84c-18.57,8.62-72.9,33.95-70.46,34.19c2.95,0.28,23.03-1.71,23.03-1.71
						s-48.46,26.48-60.78,28.19C348.78,636.79,342.6,639.71,336.74,643.39z"/>
					<path id="XMLID_504_" class="st56" d="M328.74,615.97c-7.5-6.83-49.8-2.85-50.6-2.85l15.8,36.45
						C293.94,649.57,336.24,622.8,328.74,615.97z"/>
					<path id="XMLID_503_" class="st55" d="M280.28,672.07c0,0,8.3,3.99,30.79,0.28c22.49-3.7,57.03-42.72,57.03-45
						c0-2.28-6.69-14.52-34.54-16.8c-27.85-2.28-77.91,22.78-78.98,23.64l-2.14,52.4c2.14,6.27,10.44,12.25,11.78,11.96
						C265.56,698.27,280.28,672.07,280.28,672.07z"/>
					<path id="XMLID_502_" class="st55" d="M258.33,645.02c14.46-15.38,48.46-32.18,48.46-32.18s-24.63-16.8-52.48-15.09
						c-27.85,1.71-35.61,27.91-35.61,27.91l12.58,19.08C231.28,644.73,243.87,660.4,258.33,645.02z"/>
					<path id="XMLID_501_" class="st55" d="M267.85,665.7c-2.7-21.52-13.04-45.43-13.04-45.43l-45.41,2.87l-29.68-5.74l-40.02,18.65
						l-22.48,7.17c0,0,4.5,88.48,7.19,102.82c2.7,14.35,99.37,110,99.37,110l100.72-3.35l5.85-99.96l-45.41-1.91l-21.58-38.74
						C263.36,712.09,270.55,687.22,267.85,665.7z"/>
					<path id="XMLID_500_" class="st56" d="M218.38,601.73l-4.44-11.96l-1.2-44.97c0,0-26.51,6.96-29.36,7.1
						c-2.85,0.14-0.62,19.1-5.65,35.16c-5.03,16.06-16.42,59.21-16.42,59.21l31.84,26.05l30.53-29.87L218.38,601.73z"/>
					<g id="XMLID_497_">
						<path id="XMLID_499_" class="st55" d="M175.89,658.19l12.26,10.03c-3.71-15.72-7.51-36.96-7.21-44.28
							C181.36,614.03,177.62,643.79,175.89,658.19z"/>
						<path id="XMLID_498_" class="st55" d="M218.11,601.02c-2.81,0.63-4.77,1.28-4.77,1.28l-1.87,31.61c0,0-10.98,1.71-11.78,1.42
							c-0.52-0.18-1.6,18.51-2.88,33.4l26.88-26.29l-5.31-40.72L218.11,601.02z"/>
					</g>
					<g id="XMLID_480_">
						<path id="XMLID_494_" class="st39" d="M241.36,577.91c0,0-10.5-43.53-14.66-49.04c-4.17-5.51-22.42-0.64-40.33,7.88
							c-17.91,8.51-18.64,49.64-18.64,49.64s6.25,25.48,6.81,28.14c0.56,2.66,53.05,7.67,53.05,7.67l7.28-10.13l-4.69-10.03
							l2.1-4.23l-1.16-3.44l0.95-13.73L241.36,577.91z"/>
						<path id="XMLID_493_" class="st55" d="M241.36,577.91c0,0-10.5-43.53-14.66-49.04c-0.53-0.7-1.28-1.23-2.23-1.6
							c0.29,0.23,0.55,0.48,0.77,0.77c4.17,5.51,14.66,49.04,14.66,49.04l-9.28,2.71l-0.95,13.72l1.16,3.44l-2.1,4.23l4.69,10.03
							l-7.28,10.13c0,0-43.07-4.11-51.6-6.86c0,0.01,0,0.02,0.01,0.03c0.56,2.66,53.05,7.67,53.05,7.67l7.28-10.13l-4.69-10.03
							l2.1-4.23l-1.16-3.44l0.95-13.73L241.36,577.91z"/>
						<path id="XMLID_492_" class="st56" d="M219.37,596.48l-1.1-2.18l1.04,4.4l1.65-0.28l10.71-2.49l-0.53-1.59l0.14-1.96
							C226.78,593.96,219.37,596.48,219.37,596.48z"/>
						<path id="XMLID_491_" class="st58" d="M208.75,548.33c-0.9-8.09-2.05-14.69-3.75-18.99c-5.82,1.8-12.24,4.37-18.63,7.41
							c-17.91,8.51-18.64,49.64-18.64,49.64s6.25,25.48,6.81,28.14c0.31,1.46,16.21,3.62,30.53,5.28
							c-0.18-8.7-0.66-22.09-1.99-26.36c-2.02-6.49-11.44-18.64-11.44-18.64S210.41,563.28,208.75,548.33z"/>
						<path id="XMLID_490_" class="st59" d="M127.89,597.46c-3.21,9.18,9.78,20.11,9.78,20.11s-5.17-11.84,0.99-17.82
							c0,0-5.86,9.23,3.29,17.37c8.52,7.58,7.67,14.53,7.51,15.47c0.18-0.95,1.62-7.88,6.51-10.45c0.69-0.36,2.61,6.01,6.85,7.14
							c4.24,1.13,4.93-8.22,4.93-8.22l12.14-36.34l-6.39-22.1c0,0,16.52-10.24,23.9-17.69c7.38-7.45,5.47-11.09,15.96-12.84
							c10.49-1.75,13.22,0.32,14.43,0.62c1.21,0.29,2.95,2.22,2.95,2.22s1.42-6.79-1.22-10.26c-2.64-3.47-13.66-5.1-13.66-5.1
							s-9.89-3.47-19.77-2.46c-9.89,1.02-11.62,4.56-11.62,4.56s-10.82-2.47-20.14,2.13c-9.32,4.59-16.04,19.7-16.04,19.7
							s-9.4,4.22-16.29,13.12c-6.89,8.89-1.18,22.36,1.79,25.55C136.77,585.35,131.1,588.29,127.89,597.46z"/>
						<path id="XMLID_489_" class="st59" d="M149.48,632.58c-0.01,0.07-0.02,0.11-0.02,0.11S149.47,632.65,149.48,632.58z"/>
						<path id="XMLID_488_" class="st58" d="M181.37,587.04c0.37-6.37-3.09-14.61-3.09-14.61s-7.05-9-16.4-5.58
							c-9.35,3.42,1.17,22.75,7.83,27.89C176.37,599.88,181,593.41,181.37,587.04z"/>
						<g id="XMLID_484_">
							<path id="XMLID_487_" class="st60" d="M217.65,519.87c-1.08-0.21-1.77-0.31-1.77-0.31s-3.58-1.26-8.58-2.04
								c-1.97,0.91-3.94,1.91-5.92,3.03c-19.89,11.32-13.97,18.03-20.75,19.43c-6.77,1.4-10.13,1.75-10.13,1.75
								s10.2,5.68,18.35-4.43C196.41,527.92,202.48,521.9,217.65,519.87z"/>
							<path id="XMLID_486_" class="st60" d="M181.4,530.5c4.21-4.1,12.87-9.23,21.4-13.48c-2.15-0.14-4.42-0.15-6.69,0.09
								c-9.89,1.02-11.62,4.56-11.62,4.56s-0.86-0.2-2.31-0.38c-8.86,8.72-21.32,14.17-20.75,14.03
								C162.03,535.17,172.52,539.16,181.4,530.5z"/>
							<path id="XMLID_485_" class="st60" d="M213.38,532.08c10.49-1.75,13.22,0.32,14.43,0.62c1.21,0.29,2.95,2.22,2.95,2.22
								s1.42-6.79-1.22-10.26c-0.78-1.02-2.28-1.88-4.01-2.59c-3.37,0.32-7.8,1.13-13.62,2.69c-26.16,7.01-11.63,14.91-24.57,20.59
								c-12.94,5.68-21.99,6.47-21.99,6.47s15.67,2.14,20.72,2.36c4.16-2.99,8.46-6.34,11.35-9.26
								C204.8,537.47,202.88,533.83,213.38,532.08z"/>
						</g>
						<path id="XMLID_483_" class="st60" d="M222.57,555.92l-0.66-3.1c0,0-6.24-0.12-12,1.03c-5.76,1.16-12.79,14.49-12.79,14.49
							s9.1-9.64,12.38-11.37C212.79,555.26,222.57,555.92,222.57,555.92z"/>
						<path id="XMLID_482_" class="st60" d="M223.07,560.81c0,0-4.83-1.04-11.24,1.55c-6.42,2.6-6.87,7.01-6.87,7.01
							c6.88-7.48,17.94-5.84,17.94-5.84L223.07,560.81z"/>
						<path id="XMLID_481_" class="st60" d="M220.95,565.74c-0.53-2.52-2.42-4.21-4.22-3.78c-1.79,0.43-2.82,2.83-2.28,5.35
							c0.53,2.52,2.42,4.21,4.22,3.78C220.46,570.65,221.48,568.26,220.95,565.74z"/>
					</g>
					<path id="XMLID_479_" class="st56" d="M157.03,706.82c-11.78-0.38-32.13,12.15-32.13,12.15l2.5-0.76
						c1.07-0.38,5.71,7.97,22.49,12.15c16.78,4.18,47.12-16.71,61.4-18.23c14.28-1.52,40.7-1.9,40.7-1.9s9.64-44.05,9.64-51.26
						c0-7.21-7.5-34.93-7.5-34.93s-20.71,28.1-36.77,37.21c-16.06,9.11-20.71,12.15-20.35,13.67c0.36,1.52,2.5,34.17,2.5,34.17
						l-14.28-31.9c0,0-13.57,6.08-14.64,6.08s12.85,4.56,12.85,4.56s-20.35,0.76-17.49,0.76s12.14,6.46,12.14,6.46
						S168.81,707.2,157.03,706.82z"/>
					<path id="XMLID_478_" class="st56" d="M187.02,734.53c-7.85,7.59-10.35,25.82-10.35,25.82l23.92-10.25
						c-8.57,3.42-13.92,15.57-13.92,15.57l5.71,11.77c0,0,17.49-9.49,25.35-13.67c7.85-4.18-1.78-17.47-1.78-17.47
						s6.78,8.73,14.28,13.29c7.5,4.56,19.99-0.76,23.2-2.28c3.21-1.52,5.35-4.18,5.71-5.32c0.36-1.14-7.5-13.29-7.5-13.29
						L232,738.33l17.85-7.21c0,0-26.06-11.77-37.13-9.11s-8.21,7.97-8.21,7.97S194.87,726.94,187.02,734.53z"/>
					<path id="XMLID_477_" class="st56" d="M278.41,755.42c-19.99,1.14-63.19,33.41-66.76,33.79l23.56-3.04
						c10.71-5.7,69.61-17.47,69.61-17.47S298.4,754.28,278.41,755.42z"/>
					<path id="XMLID_476_" class="st56" d="M366.73,629.58c0.88-1.17,1.37-1.95,1.37-2.22c0-2.28-6.69-14.52-34.54-16.8
						c-11.32-0.93-26.32,2.67-40.2,7.32c-11.16,6.87-17.1,14.9-17.1,14.9l43.37-3.7c0,0-10.98,12.53-12.05,13.95
						C306.67,644.25,353.82,632.75,366.73,629.58z"/>
					<path id="XMLID_475_" class="st55" d="M92.06,856.42c0,0,40.34-15.95,45.69-35.69c5.35-19.74-8.57-34.55-8.57-34.55
						s-19.99-15.57-41.77-12.53c-21.78,3.04-35.34,48.6-30.7,63.41C61.36,851.87,92.06,856.42,92.06,856.42z"/>
					<path id="XMLID_474_" class="st55" d="M115.08,881.1c2.95-0.28,5.09-6.83,5.89-7.12c0.8-0.28,8.57,1.71,8.57,1.71l7.5-11.11
						l4.02,1.42l6.96-18.51c0,0-15.8-18.23-16.87-18.23c-1.07,0-17.14-0.57-17.14-0.57l-21.69,40.15l6.16,7.31
						C98.48,876.17,112.14,881.39,115.08,881.1z"/>
					<path id="XMLID_473_" class="st56" d="M149.89,857.56l6.78-11.39c0,0-17.49-26.2-27.49-28.48c-10-2.28-57.47-8.35-64.97-7.21
						c-7.5,1.14-12.14,25.44-11.07,31.14c1.07,5.7,45.34,34.55,45.34,34.55s1.43-13.29,6.43-14.43c5-1.14,2.14-4.94,5.35-13.29
						c3.21-8.35,13.57-3.42,12.49-11.39C121.69,829.08,149.89,857.56,149.89,857.56z"/>
					<path id="XMLID_472_" class="st55" d="M475.2,590.34c9.1-1.14,19.55-11.68,19.55-11.68l18.03,5.32c0,0,3.21,9.68,7.5,11.58
						c4.28,1.9,9.46,0.95,9.46,0.95s-10.17-19.56-13.03-19.56c-2.86,0-19.01-9.11-19.01-9.11s-35.07-2.85-40.16-3.13
						c-5.09-0.28-27.04,25.35-29.72,27.62l26.24-5.13C454.04,587.21,466.09,591.48,475.2,590.34z"/>
					<path id="XMLID_471_" class="st55" d="M505.45,611.13c0,0,1.87-7.12-0.8-11.96c-2.68-4.84-13.12-8.26-13.12-8.26l-10.71-11.39
						l-29.99,4.84c0,0,14.46,13.67,25.17,13.67c10.71,0,17.14,2.56,20.88,5.13C500.63,605.72,505.45,611.13,505.45,611.13z"/>
					<path id="XMLID_470_" class="st61" d="M369.97,838.96c0,0,17.67-50.12,20.35-71.2c2.68-21.07-5.13-58.64,19.28-73.47
						c7.5-4.56,10.17-33.03,10.17-33.03l-16.06,23.35c0,0-33.74,30.76-33.2,46.7c0.54,15.95-77.11,72.91-77.11,72.91
						s33.2,16.52,34.81,17.09c1.61,0.57,41.23-51.26,40.7-47.84c-0.54,3.42-28.38,86.57-28.38,86.57L369.97,838.96z"/>
					<path id="XMLID_462_" class="st55" d="M236.43,878.52c15.02,11.41,52.21,15.97,52.21,15.97s72.23,33.47,105.85,34.23
						c33.61,0.76,123.73-10.65,123.73-10.65s-19.31-35.75-22.17-38.04c-2.86-2.28-84.39-20.54-84.39-20.54s-70.8-50.97-109.42-62.38
						l-92.26,22.82c0.72,3.04,0.72,3.04,0.72,3.04S221.41,867.11,236.43,878.52z"/>
					<path id="XMLID_419_" class="st55" d="M675.72,948.48c-26.22-6.09-73.91-28.91-90.59-41.59
						c-16.69-12.68-61.99-12.68-61.99-12.68s-10.49-18.26-23.36-21.3s-86.3-1.52-86.3-1.52l39.58,45.14c0,0,30.99,41.08,72.47,59.84
						c41.48,18.76,160.68,7.61,165.45,7.61c4.77,0,4.29-10.14,2.86-14.2C692.41,965.73,701.94,954.57,675.72,948.48z"/>
					<path id="XMLID_117_" class="st61" d="M288.64,894.49c0,0,72.23,33.47,105.85,34.23c14.9,0.34,40.91-1.72,65.24-4.11
						c11.26,12.93,35.78,38.18,65.8,51.76c39.99,18.09,152.18,8.37,164.49,7.65l-158.29-52.79c0,0-28.61,5.07-37.67,1.52
						c-9.06-3.55-33.85-35.5-33.85-35.5s-173.56-41.59-194.54-42.6c-15.69-0.76-42.04-19.66-54.33-29.15
						c2.53,9.51,12.24,43.25,25.1,53.01C251.45,889.93,288.64,894.49,288.64,894.49z"/>
					<path id="XMLID_108_" class="st61" d="M782.47,995.4c-0.84,0,0.84,0.81,3.19,1.81C784.28,996.15,783.08,995.4,782.47,995.4z"/>
					<path id="XMLID_106_" class="st61" d="M798.36,995.02c0,0,3.75-6.27,6.96-13.1c3.21-6.83-27.84-21.07-29.99-22.21
						c-2.14-1.14-25.7,1.14-38.02,1.14c-12.32,0-28.38-18.8-33.2-20.5c-4.82-1.71-48.73,6.83-48.73,6.83l17.14,35.31
						c5.35,0.57,92.64,43.86,92.64,43.86l4.28-1.14l7.5-5.7c0,0,0,0,0.54-1.71c0.54-1.71,4.28-1.14,7.5-4.56
						c3.21-3.42,8.92-8.73,8.92-8.73s-4.74-4.65-8.23-7.31c-2.35-0.99-4.03-1.81-3.19-1.81c0.61,0,1.8,0.75,3.19,1.81
						c3.66,1.54,8.95,3.51,8.95,3.51L798.36,995.02z"/>
					<path id="XMLID_105_" class="st62" d="M248.06,785.61c-0.71,0.19,16.78,12.34,16.78,12.34l-4.64,0.95c0,0,5,4.18,20.88,7.21
						c15.89,3.04,29.27-8.73,29.27-8.73l2.14-0.38c8.92-4.18,17.31-18.23,17.31-18.23l-5.53,1.33c4.82-12.53,2.5-31.71,2.5-31.71
						c-15.53,3.04-17.31,18.8-17.31,18.8l-1.96-5.51l-5.53,10.82l-10.89-17.66l0.18,3.99c-5.53-4.56-20.17-10.25-20.71-11.2
						c-0.54-0.95,5.35,26.01,5.35,26.01l-7.5-1.52l9.64,10.63c0,0-8.39-3.8-13.39-3.8C259.66,778.96,248.78,785.42,248.06,785.61z"
						/>
					<path id="XMLID_104_" class="st62" d="M338.02,801.93c0,0-27.49,1.52-31.06-10.06l-7.68,3.61c0.54,0,17.14,14.43,36.23,13.48
						L338.02,801.93z"/>
				</g>
				<g id="XMLID_97_">
					<polygon id="XMLID_120_" class="st4" points="691.36,1106.85 689.64,1150.87 565.46,1110.51 565.46,1172.88 415.42,1128.86 
						311.94,1125.19 321.96,1243.68 836.23,1241.67 					"/>
				</g>
			</g>
		</g>
	</g>
</g>
</svg>
