<?xml version="1.0" encoding="utf-8"?>
<!-- Generator: Adobe Illustrator 27.5.0, SVG Export Plug-In . SVG Version: 6.00 Build 0)  -->
<svg version="1.1" id="Layer_1" xmlns="http://www.w3.org/2000/svg" xmlns:xlink="http://www.w3.org/1999/xlink" x="0px" y="0px"
	 viewBox="0 0 3233.63 4097.54" style="enable-background:new 0 0 3233.63 4097.54;" xml:space="preserve">
<style type="text/css">
	.st0{fill:#141B33;}
	.st1{fill:#49657F;}
	.st2{fill:#A6A54C;}
	.st3{fill:#B59932;}
	.st4{fill:#26372C;}
	.st5{fill:#407495;}
	.st6{fill:#44524F;}
	.st7{fill:#647410;}
	.st8{fill:#A09B8D;}
	.st9{fill:#212441;}
	.st10{fill:#4E7F9D;}
	.st11{fill:#45747F;}
	.st12{fill:#879397;}
	.st13{fill:#6D889F;}
	.st14{fill:#485A7A;}
	.st15{fill:#4F7F99;}
	.st16{fill:#6A848E;}
	.st17{fill:#82A198;}
	.st18{fill:#C3BB6C;}
	.st19{fill:#B29D1A;}
	.st20{fill:#30605A;}
	.st21{fill:#464238;}
	.st22{fill:#35455C;}
	.st23{fill:#2C3D78;}
	.st24{fill:#70620D;}
	.st25{fill:#101913;}
	.st26{fill:#403C34;}
	.st27{fill:#1F2A53;}
	.st28{fill:#798790;}
	.st29{fill:#78848E;}
	.st30{fill:#A7B2B5;}
	.st31{fill:#536C95;}
	.st32{fill:#939A38;}
	.st33{fill:#6C849E;}
	.st34{fill:#697270;}
	.st35{fill:#85969C;}
	.st36{fill:#3A568E;}
	.st37{fill:#727E77;}
	.st38{fill:#5F6974;}
	.st39{fill:#A9BBBD;}
	.st40{fill:#1E2D6A;}
	.st41{fill:#21374E;}
	.st42{fill:#DACF94;}
	.st43{fill:#3E4732;}
	.st44{fill:#C09E7C;}
	.st45{fill:#8D8D55;}
	.st46{fill:#446997;}
	.st47{fill:#8094AE;}
	.st48{fill:#B0A83E;}
	.st49{fill:#2F3537;}
	.st50{fill:#1C3A67;}
	.st51{fill:#79670C;}
	.st52{fill:#4B5D6C;}
	.st53{fill:#384849;}
	.st54{fill:#838994;}
	.st55{fill:#6881A5;}
	.st56{fill:#768692;}
	.st57{fill:#4F552B;}
	.st58{fill:#515B56;}
	.st59{fill:#7C8799;}
	.st60{fill:#34557B;}
	.st61{fill:#32417C;}
	.st62{fill:#0D2E3F;}
	.st63{fill:#5F7389;}
	.st64{fill:#65777A;}
	.st65{fill:#466BB7;}
	.st66{fill:#889598;}
	.st67{fill:#79888A;}
	.st68{fill:#484C54;}
	.st69{fill:#928D13;}
	.st70{fill:#283249;}
	.st71{fill:#645759;}
	.st72{fill:#0E1625;}
	.st73{fill:#2D3748;}
	.st74{fill:#C3C87B;}
	.st75{fill:#153743;}
	.st76{fill:#24322B;}
	.st77{fill:#A64C3D;}
	.st78{fill:#8C999A;}
	.st79{fill:#C7C7BD;}
	.st80{fill:#2C4E75;}
	.st81{fill:#0E4433;}
	.st82{fill:#83864D;}
	.st83{fill:#9C9716;}
	.st84{fill:#928414;}
	.st85{fill:#C0B963;}
	.st86{fill:#30633C;}
	.st87{fill:#69320F;}
	.st88{fill:#D1BC3D;}
	.st89{fill:#8A6300;}
	.st90{fill:#A0A55D;}
	.st91{fill:#B4B88D;}
	.st92{fill:#EFD6A8;}
	.st93{fill:#A3A200;}
	.st94{fill:#BAB267;}
	.st95{fill:#A87F28;}
	.st96{fill:#B1BDC0;}
	.st97{fill:#657784;}
</style>
<rect class="st0" width="3233.63" height="4097.54"/>
<g>
	<path class="st1" d="M2423.46,2958.39l-8.42,71.75H2091.8l-65.3-23.13l-1.23-12.75l-26.9-261.99h341.72
		c12.32,64.2,32.45,133.12,44.97,187.41C2389.37,2938.09,2403.54,2950.84,2423.46,2958.39z"/>
	<ellipse class="st2" cx="890.2" cy="1263.11" rx="100.54" ry="98.78"/>
	<ellipse class="st3" cx="889.84" cy="1269.7" rx="37.45" ry="38.8"/>
	<polygon class="st4" points="955.42,2280.74 943.07,2373.4 933.03,2280.74 	"/>
	<path class="st5" d="M1047.99,2466.45l-22.68,18.34c-7.14-33.69-33.01-83.11-33.01-83.11l-12.55-124.61h35.23h0.1
		C998.38,2377.36,1047.99,2466.45,1047.99,2466.45z"/>
	<path class="st6" d="M1536.11,2953.51c4.54,69.79-49.42,144.5-49.42,144.5h-97.2c0,0,89-34.65-39.67-231.56
		c-42.86-65.73-45.85-117.28-30.89-156.85c30.12-78.96,132.14-109.94,132.14-109.94c-70.17,31.95-150.19,163.42-43.24,233.49
		c11.97,7.82,26.25,14.86,43.24,20.95c60.91,21.81,82.33,59.84,84.94,99.42H1536.11z"/>
	<path class="st7" d="M3029.82,2914.32V3098h-255.79c0,0-13.71-7.24-34.27-20.95c-10.71-7.14-13.51-19.88-13.71-32.82
		c-0.19-11.78,1.93-23.65,2.41-31.47c1.06-16.41,33.2-38.32,22.3-47.88c-5.31-4.73-9.07-14.77-12.26-28.09
		c-3.19-13.13-5.79-29.44-9.07-46.62c-0.19-1.06-0.39-2.22-0.58-3.28c-2.22-11.68,6.27-19.5,19.5-25.19h0.1
		c27.22-11.78,74.32-14.86,89.86-24.03c23.26-13.71,46.52,21.91,60.13,21.91c13.71,0,30.12,13.61,52.03,13.61
		c21.91,0,41.02,31.47,46.52,31.47C3002.5,2904.67,3029.82,2914.32,3029.82,2914.32z"/>
	<path class="st8" d="M3029.82,2816.44v97.88c0,0-27.32-9.65-32.82-9.65c-5.5,0-24.61-31.47-46.52-31.47
		c-21.91,0-38.32-13.61-52.03-13.61c-13.61,0-36.87-35.62-60.13-21.91c-15.54,9.17-62.64,12.26-89.86,24.03h-0.1l-42.86-2.22
		c0,0-11.49-16.7-11.49-30.79c0-6.27,2.32-11.97,8.88-15.54c3.86-2.03,9.17-3.38,16.41-3.57
		C2766.5,2808.24,3008.58,2791.83,3029.82,2816.44z"/>
	<path class="st9" d="M3029.82,2756.02v60.42c-21.24-24.61-263.32-8.2-310.52-6.85c-7.24,0.19-12.55,1.54-16.41,3.57
		c0,0-31.47-121.91,137.45-113.03c0,0,16.51-3.28,21.62,0.48c1.83,1.25,2.22,3.47,0,7.05c-8.59,13.71-48.26,21.24-55.12,21.24
		s-48.55,7.53-46.52,14.38c2.03,6.85,8.2,16.6,81.37,12.74C2914.86,2752.16,2987.44,2734.5,3029.82,2756.02z"/>
	<path class="st10" d="M3029.82,2710.46v45.56c-42.37-21.52-114.96-3.86-188.12,0c-73.17,3.86-79.34-5.89-81.37-12.74
		c-2.03-6.85,39.67-14.38,46.52-14.38s46.52-7.53,55.12-21.24c2.22-3.57,1.83-5.79,0-7.05
		C2874.51,2698.78,3001.73,2696.08,3029.82,2710.46z"/>
	<path class="st11" d="M3029.82,2623.59v86.87c-28.09-14.38-155.31-11.68-167.85-9.85c-5.12-3.76-21.62-0.48-21.62-0.48
		c-168.92-8.88-137.45,113.03-137.45,113.03c-6.56,3.57-8.88,9.27-8.88,15.54c0,0-78.09,1.06-85.62-15.54
		c-0.29-0.68-0.58-1.25-0.87-1.93c-7.34-16.12-16.89-35.81-16.89-35.81s-88.51,9.85-127.99,3.09c-9.36-1.54-16.02-4.15-18.05-7.92
		c-5.89-11.1-15.35-25.19-21.14-38.32c-4.54-10.23-6.66-20.08-3.09-27.51c8.2-16.89-67.08-35.33-67.08-35.33
		s-179.15-26.06-193.53-47.2c0,0-109.46,19.79-121.14,12.26c-11.58-7.53-90.25-12.26-93.63-23.26c-2.9-9.17-28.57-28.76,1.45-35.71
		c5.6-1.25,13.13-2.12,23.17-2.32c63.61-1.64,173.07-3.67,173.07-3.67s42.76-35.52,58.98-31.76c1.64,1.35,3.38,2.8,5.31,4.34
		c43.34,34.27,93.82,34.84,133.88,26.64c41.6,14.29,177.31,102.7,182.72,39.09c3.28-38.61,25-44.21,41.6-42.66
		c10.81,1.06,19.4,5.02,19.4,5.02s35.52,55.4,47.2,30.79c11.58-24.61,88.22-0.68,88.22-0.68s80.69,86.2,121.72,18.44
		C2882.72,2551.1,3029.82,2623.59,3029.82,2623.59z"/>
	<path class="st12" d="M3029.82,2463.84v159.75c0,0-147.1-72.49-188.12-4.83c-41.02,67.76-121.72-18.44-121.72-18.44
		s-76.64-23.94-88.22,0.68c-11.68,24.61-47.2-30.79-47.2-30.79s-8.59-3.96-19.4-5.02l1.64-13.03c21.81,2.8,44.4-10.04,44.4-10.04
		c19.11,9.65,69.79,0,73.84,0c4.15,0,82.14,43.82,101.25-19.88c2.99-10.04,7.43-17.86,12.93-23.94
		c28.18-32.14,81.47-13.51,81.47-13.51s53.38-50.68,91.7-20.95C3010.71,2493.57,3029.82,2463.84,3029.82,2463.84z"/>
	<path class="st13" d="M3029.82,2216.74v247.1c0,0-19.11,29.73-57.43,0c-38.32-29.73-91.7,20.95-91.7,20.95
		s-53.28-18.63-81.47,13.51l-0.1-0.1c-19.11-43.44-88.03-39.09-126.35-34.36c-41.41,5.02-176.54,25-180.6,14
		c-4.15-10.91-10.91-5.41-55.6-30.02c-44.59-24.71-63.42,38.22-74.42,30.02c-10.71-8.01-233.49-5.5-160.52,59.94
		c-16.22-3.76-58.98,31.76-58.98,31.76s-109.46,2.03-173.07,3.67c-10.04,0.19-17.57,1.06-23.17,2.32c0,0-4.15-42.47-99.71-10.52
		l-6.76-46.24c168.14,29.63,425.57-139.86,447.48-163.61c21.81-23.65,125.87-10.91,142.28,0c16.41,11,62.45-49.23,62.45-49.23
		l94.4,12.84c0,0,40.15-101.64,246.23-80.02C3012.83,2257.67,3028.66,2225.14,3029.82,2216.74z"/>
	<path class="st14" d="M3029.82,2214.71v2.03c-1.16,8.4-16.99,40.93-197.01,22.01c-206.08-21.62-246.23,80.02-246.23,80.02
		l-94.4-12.84c0,0,7.92-50.96,23.17-75.1c2.22-3.67,4.73-6.66,7.34-8.78c20.08-16.41,180.6-40.15,155.11-52.9
		c-25.58-12.74,0-32.82,14.67-47.39c14.67-14.67,120.27-28.96,120.27-28.96s-29.15-20.37-40.83-35.91
		c-11.58-15.54,29.92-25,29.92-25s23.65,22.3,32.82,1.83c9.07-20.56,87.55-28.76,140.44-32.43c52.9-3.57,54.73,111.29,54.73,111.29
		V2214.71z"/>
	<path class="st15" d="M3029.82,1698.5v414.09c0,0-1.83-114.86-54.73-111.29c-52.9,3.67-131.37,11.87-140.44,32.43
		c-9.17,20.46-32.82-1.83-32.82-1.83s-41.51,9.46-29.92,25c11.68,15.54,40.83,35.91,40.83,35.91s-105.6,14.29-120.27,28.96
		c-14.67,14.57-40.25,34.65-14.67,47.39c25.48,12.74-135.04,36.49-155.11,52.9c-2.61,2.12-5.12,5.12-7.34,8.78
		c0,0-292.27,42.28-308.39,62.35c0,0-123.36-95.85-390.15,68.24l-10.04-68.24c0,0,0.29,33.01,0.1,78.47
		c0,0-165.15,96.62-219.88,81.18c0,0-72.1-84.84-160.52-45.66c-88.51,39.19-176.06,88.9-176.06,88.9
		c-35.91-59.94-82.33-113.99-124.9-139.96c-38.71-23.65-57.43-55.6-65.64-86.39h0.1l128.96-30.98c11.1,2.22,22.49,3.38,34.17,3.38
		c40.15,0,77.22-13.51,106.76-36.39c1.16-0.77,2.32-1.74,3.47-2.7c0.39-0.29,0.77-0.58,1.16-0.87
		c86.58-57.91,708.49-135.13,708.49-135.13s304.63,134.94,375.77-77.8c4.34-12.84,10.33-25.19,17.86-37.07
		C2553.09,1767.33,3029.82,1698.5,3029.82,1698.5z"/>
	<path class="st16" d="M3029.82,1552.27v146.23c0,0-476.73,68.82-593.24,253.66c0,0-85.33-381.37-383.59-260.9
		c-6.08,2.51-12.16,4.92-18.05,7.24c0,0,38.61-652.98-711.77-510.71c0,0-301.64,224.61-523.26,265.54
		c-32.05-58.11-22.88-125.09-22.88-125.09s53.86-300.09,0-287.26c-53.76,12.74-38.22,368.43-38.22,368.43
		c6.76,17.47,11.68,33.88,15.15,49.13c0,0-316.69,95.85-525.28-335.03V880.46h819.29v5.02c0,0,27.99,27.51,75.48,60.13
		c-6.18,11.68-9.65,24.9-9.65,39c0,46.91,38.32,84.84,85.52,84.84c32.91,0,61.49-18.44,75.77-45.46
		c15.83,5.6,32.24,10.52,49.13,14.67c5.31,26.16,29.15,45.85,57.72,45.85c23.74,0,44.11-13.51,53.38-33.01
		c105.21-1.74,220.56-45.27,330.4-171.04h883.1c-169.79,47.59-293.72,197.1-293.72,374.13c0,215.44,183.49,390.15,409.84,390.15
		C2865.92,1644.74,2958.39,1609.9,3029.82,1552.27z M2304.73,1401.21c0-63.51-45.66-114.96-101.93-114.96
		c-56.27,0-101.93,51.45-101.93,114.96c0,63.51,45.66,114.96,101.93,114.96C2259.08,1516.17,2304.73,1464.72,2304.73,1401.21z
		 M2059.17,1084.52c0-64.19-53.86-116.31-120.37-116.31c-66.51,0-120.37,52.12-120.37,116.31s53.86,116.31,120.37,116.31
		C2005.31,1200.83,2059.17,1148.7,2059.17,1084.52z M986.6,1264.44c0-52.12-43.34-94.4-96.81-94.4c-53.38,0-96.72,42.28-96.72,94.4
		c0,52.12,43.34,94.4,96.72,94.4C943.26,1358.84,986.6,1316.56,986.6,1264.44z M871.06,1023.61c39.29,0,71.14-29.05,71.14-64.96
		s-31.85-64.96-71.14-64.96c-39.29,0-71.14,29.05-71.14,64.96S831.78,1023.61,871.06,1023.61z M660.35,1004.5
		c0-65.73-54.25-119.01-121.04-119.01c-66.89,0-121.14,53.28-121.14,119.01s54.25,119.01,121.14,119.01
		C606.1,1123.51,660.35,1070.23,660.35,1004.5z"/>
	<path class="st17" d="M3029.82,957.01v595.26c-71.43,57.62-163.9,92.47-264.86,92.47c-226.35,0-409.84-174.71-409.84-390.15
		c0-177.02,123.94-326.54,293.72-374.13h232.24C2936.48,896,2986.96,922.36,3029.82,957.01z M3003.85,1264.82
		c0-144.01-114.57-260.81-255.89-260.81c-141.21,0-255.79,116.79-255.79,260.81c0,144.11,114.57,260.9,255.79,260.9
		C2889.28,1525.73,3003.85,1408.93,3003.85,1264.82z"/>
	<path class="st16" d="M3029.82,880.46v76.54c-42.86-34.65-93.34-61-148.74-76.54H3029.82z"/>
	<path class="st18" d="M2747.97,1004.02c141.31,0,255.89,116.79,255.89,260.81c0,144.11-114.57,260.9-255.89,260.9
		c-141.21,0-255.79-116.79-255.79-260.9C2492.18,1120.81,2606.75,1004.02,2747.97,1004.02z M2812.25,1420.32
		c128.67-19.11,98.55-138.13,98.55-138.13s-79.34,127.22-175.09,16.41c-95.75-110.81,87.55-172.39,87.55-172.39
		s-121.81-25.68-175.19,68.82c-33.11,58.49-19.02,132.04,29.34,178.76C2708.39,1403.82,2753.08,1429.2,2812.25,1420.32z"/>
	<path class="st19" d="M2910.8,1282.2c0,0,30.12,119.01-98.55,138.13c-59.17,8.88-103.86-16.51-134.84-46.52
		c-48.36-46.72-62.45-120.27-29.34-178.76c53.38-94.5,175.19-68.82,175.19-68.82s-183.3,61.58-87.55,172.39
		C2831.46,1409.42,2910.8,1282.2,2910.8,1282.2z"/>
	<path class="st20" d="M2799.13,2498.21l0.1,0.1c-5.5,6.08-9.94,13.9-12.93,23.94c-19.11,63.71-97.1,19.88-101.25,19.88
		c-4.05,0-54.73,9.65-73.84,0c0,0-22.59,12.84-44.4,10.04c-3.96-0.48-7.91-1.45-11.68-3.19c-24.61-10.91-61.58,24.61-142.28-6.85
		c0,0-30.5,18.05-72.01,26.64c-40.06,8.2-90.54,7.63-133.88-26.64c-1.93-1.54-3.67-2.99-5.31-4.34
		c-72.97-65.44,149.81-67.95,160.52-59.94c11,8.2,29.83-54.73,74.42-30.02c44.69,24.61,51.45,19.11,55.6,30.02
		c4.05,11,139.19-8.98,180.6-14C2711.1,2459.11,2780.01,2454.77,2799.13,2498.21z"/>
	<path class="st21" d="M2774.03,3098h-198.45v-53.76h150.48c0.19,12.93,2.99,25.68,13.71,32.82
		C2760.32,3090.77,2774.03,3098,2774.03,3098z"/>
	<path class="st22" d="M2750.77,2964.9c10.91,9.56-21.24,31.47-22.3,47.88c-0.48,7.82-2.61,19.69-2.41,31.47h-150.48l-39.67-107.43
		h39h121.81h41.79C2741.69,2950.13,2745.46,2960.17,2750.77,2964.9z"/>
	<path class="st23" d="M2705.5,2859.49l42.86,2.22c-13.22,5.69-21.72,13.51-19.5,25.19c0.19,1.06,0.39,2.22,0.58,3.28
		c0,0-17.66,0.19-32.72,4.92c-15.06,4.83-0.68,34.94,0,41.7H2574.9c0-4.73,0-66.99,0-66.99l23.94-15.73L2705.5,2859.49z"/>
	<path class="st24" d="M2729.44,2890.19c3.28,17.18,5.89,33.49,9.07,46.62h-41.79c-0.68-6.76-15.06-36.87,0-41.7
		C2711.77,2890.38,2729.44,2890.19,2729.44,2890.19z"/>
	<path class="st25" d="M2705.5,2859.49l-106.66-5.41l-23.94,15.73h-3.38l3.38-38.32l32.62-20.27c0.29,0.68,0.58,1.25,0.87,1.93
		c7.53,16.6,85.62,15.54,85.62,15.54C2694.01,2842.8,2705.5,2859.49,2705.5,2859.49z"/>
	<path class="st26" d="M2607.53,2811.23l-32.62,20.27l-101.16,2.99l-15.06-41.31l3.96-14.67c39.48,6.76,127.99-3.09,127.99-3.09
		S2600.19,2795.11,2607.53,2811.23z"/>
	<path class="st27" d="M2575.58,3044.24V3098H2430.6l-9.56-81.08c0,0-57.43,2.7-50.68-87.55l-102.51,27.41l-52.03-42.47h-12.35
		c-4.15-11.49,0-17.86,0-17.86s6.18-12.26,13.51-21.14c7.24-8.88,13.22-4.83,27.61-17.86c10.42-9.46,25.19-1.06,32.43,4.25
		c2.8,1.93,4.44,3.47,4.44,3.47s7.91,7.05,27.8-0.97v-0.1c7.05-2.7,15.44-7.43,25.58-14.86c39-28.67,75.96,4.83,75.96,4.83
		c11.68-2.41,23.07,5.12,33.78,15.73h0.1c19.79,19.59,36.78,49.42,47.49,44.5c16.41-7.53,43.73,22.49,43.73,22.49L2575.58,3044.24z"
		/>
	<path class="st28" d="M2574.9,2869.82c0,0,0,62.26,0,66.99h-39c0,0-27.32-30.02-43.73-22.49c-10.71,4.92-27.7-24.9-47.49-44.5
		h29.05h97.78H2574.9z"/>
	<polygon class="st29" points="2574.9,2831.5 2571.52,2869.82 2473.74,2869.82 2473.74,2834.49 	"/>
	<path class="st30" d="M2566.79,2552.16l-1.64,13.03c-16.6-1.54-38.32,4.05-41.6,42.66c-5.41,63.61-141.12-24.81-182.72-39.09
		c41.51-8.59,72.01-26.64,72.01-26.64c80.69,31.47,117.66-4.05,142.28,6.85C2558.88,2550.71,2562.84,2551.68,2566.79,2552.16z"/>
	<path class="st31" d="M2515.35,2230.83c-15.25,24.13-23.17,75.1-23.17,75.1s-46.04,60.23-62.45,49.23
		c-16.41-10.91-120.46-23.65-142.28,0c2.7-35.52-80.5-61.97-80.5-61.97C2223.07,2273.11,2515.35,2230.83,2515.35,2230.83z"/>
	<path class="st32" d="M2473.74,2834.49v35.33h-29.05h-0.1c-10.71-10.62-22.1-18.15-33.78-15.73c0,0-36.97-33.49-75.96-4.83
		c-10.14,7.43-18.53,12.16-25.58,14.86l-2.51-70.95h151.93L2473.74,2834.49z"/>
	<path class="st33" d="M2462.64,2778.51l-3.96,14.67h-151.93l-30.69-4.73l-0.58-2.61l-12.64-53.57h160.62
		c5.79,13.13,15.25,27.22,21.14,38.32C2446.62,2774.36,2453.28,2776.97,2462.64,2778.51z"/>
	<path class="st34" d="M2421.04,3016.92l9.56,81.08h-95.75v-42.86l35.52-125.77C2363.61,3019.63,2421.04,3016.92,2421.04,3016.92z"
		/>
	<path class="st35" d="M2423.46,2732.28h-160.62l-11.87-24.13l-125.48-5.5l-28.19,93.53l19.59,78.47l-71.04,4.05l-3.76-29.92
		c0,0-21.91-39.86-31.47-31.66c0,0-4.63,0.39-12.26,1.06c-0.39-4.05-10.62-126.45-41.12-129.15c-30.98-2.8-102.6-70.08-102.6-70.08
		l-7.91-53.96c95.56-31.95,99.71,10.52,99.71,10.52c-30.02,6.95-4.34,26.54-1.45,35.71c3.38,11,82.05,15.73,93.63,23.26
		c11.68,7.53,121.14-12.26,121.14-12.26c14.38,21.14,193.53,47.2,193.53,47.2s75.29,18.44,67.08,35.33
		C2416.8,2712.2,2418.92,2722.04,2423.46,2732.28z"/>
	<path class="st36" d="M2436.58,1952.17c-7.53,11.87-13.51,24.23-17.86,37.07c-71.14,212.74-375.77,77.8-375.77,77.8
		c-118.05-144.11-6.37-175.19-6.37-175.19c9.56-56.47-53.38-21.43-53.38-21.43c-341.02,256.08-514.38,186.48-619.49,57.43
		c-47.1-57.82-80.5-127.51-109.17-185.33c-55.5-111.97,39.86-236.39,145.85-264.38c70.85-18.82,146.43,5.6,184.75,105.5
		c93.82,244.3,166.6,228.76,449.8,114.86c5.89-2.32,11.97-4.73,18.05-7.24C2351.26,1570.8,2436.58,1952.17,2436.58,1952.17z"/>
	<polygon class="st37" points="2370.37,2929.38 2334.85,3055.15 2110.52,3071.17 2127.71,3044.24 2166.12,2984.01 2267.86,2956.79 	
		"/>
	<polygon class="st38" points="2334.85,3055.15 2334.85,3098 1925.78,3098 1925.78,3044.24 2127.61,3044.24 2127.71,3044.24 
		2110.52,3071.17 	"/>
	<path class="st14" d="M2206.95,2293.19c0,0,83.2,26.45,80.5,61.97c-21.91,23.74-279.34,193.24-447.48,163.61l-23.17-157.33
		C2083.59,2197.34,2206.95,2293.19,2206.95,2293.19z"/>
	<path class="st39" d="M2202.8,1286.25c56.27,0,101.93,51.45,101.93,114.96c0,63.51-45.66,114.96-101.93,114.96
		c-56.27,0-101.93-51.45-101.93-114.96C2100.87,1337.7,2146.53,1286.25,2202.8,1286.25z M2229.54,1401.69
		c0-14.09-10.14-25.48-22.59-25.48s-22.59,11.39-22.59,25.48s10.14,25.48,22.59,25.48S2229.54,1415.79,2229.54,1401.69z"/>
	<path class="st40" d="M2277.03,2861.62v0.1c-7.24-5.31-22.01-13.71-32.43-4.25c-14.38,13.03-20.37,8.98-27.61,17.86
		c-7.34,8.88-13.51,21.14-13.51,21.14s-4.15,6.37,0,17.86h-49.23l-3.67-22.88l-33.69-16.8l-19.59-78.47h29.15l35.42,7.14
		c-0.19,1.83-0.29,2.9-0.29,2.9l113.8-3.67h0.39L2277.03,2861.62z"/>
	<path class="st41" d="M2275.39,2785.85l0.39,16.7h-0.39l-113.8,3.67c0,0,0.1-1.06,0.29-2.9c0.97-8.78,3.86-35.52,4.25-40.64
		c0.39-6.08-35.62-6.66-35.62-6.66l-1.35,40.15h-2.7h-29.15l28.19-93.53l125.48,5.5l11.87,24.13l12.64,53.57H2275.39z"/>
	<ellipse class="st42" cx="2206.95" cy="1401.69" rx="22.59" ry="25.48"/>
	<polygon class="st43" points="2215.83,2914.32 2166.12,2984.01 2127.71,3044.24 2127.61,3044.24 1925.78,3044.24 1981.86,2914.32 
		2050.29,2914.32 2154.25,2914.32 2203.48,2914.32 	"/>
	<path class="st44" d="M2130.51,2756.02c0,0,36,0.58,35.62,6.66c-0.39,5.12-3.28,31.85-4.25,40.64l-35.42-7.14h2.7L2130.51,2756.02z
		"/>
	<path class="st45" d="M2045.85,2878.7l4.44,35.62h-68.44l-56.08,129.92V3098h-42.37l-9.17-71.52l-57.43-12.84l-16.8-72.3
		l-7.82-33.88l165.06-4.15c0,0,43.82-77.99,53.38-86.2c9.56-8.2,31.47,31.66,31.47,31.66L2045.85,2878.7z"/>
	<path class="st46" d="M1983.21,1870.41c0,0,62.93-35.04,53.38,21.43c0,0-111.68,31.08,6.37,175.19c0,0-621.9,77.22-708.49,135.13
		c38.9-32.14,63.71-80.69,63.71-135.13c0-51.35-22.1-97.59-57.34-129.63l22.88-9.56C1468.83,2056.9,1642.19,2126.49,1983.21,1870.41
		z"/>
	<path class="st47" d="M1323.18,1187.8c750.38-142.28,711.77,510.71,711.77,510.71c-283.2,113.9-355.98,129.44-449.8-114.86
		c-38.32-99.9-113.9-124.32-184.75-105.5v-0.1c0,0,36.97-30.31-20.46-34.46c-57.43-4.05-214.19,103.57-214.19,103.57
		c-6.47-2.12-13.42-3.19-20.66-3.19c-31.47,0-57.91,21.14-65.06,49.71c0,0,0,0-0.1,0.1c-4.63,4.25-154.25,139.67-221.43,138.51
		c-3.86-66.7-10.33-188.32-10.33-188.32s0-17.76-40.83-78.28c-2.7-4.05-5.21-8.2-7.43-12.35
		C1021.54,1412.41,1323.18,1187.8,1323.18,1187.8z"/>
	<path class="st48" d="M1938.81,968.2c66.5,0,120.37,52.12,120.37,116.31s-53.86,116.31-120.37,116.31
		c-66.51,0-120.37-52.12-120.37-116.31S1872.3,968.2,1938.81,968.2z M1969.6,1074.96c0-14.77-11.97-26.74-26.74-26.74
		c-14.67,0-26.64,11.97-26.64,26.74c0,14.67,11.97,26.64,26.64,26.64C1957.63,1101.6,1969.6,1089.63,1969.6,1074.96z"/>
	<path class="st49" d="M1998.36,2818.18c7.63-0.68,12.26-1.06,12.26-1.06c-9.56,8.2-53.38,86.2-53.38,86.2l-165.06,4.15
		c0,0,2.22-2.9,5.79-7.53c4.63-5.98,11.49-14.77,18.82-24.13c4.63-5.89,9.36-11.87,13.9-17.37c10.04-12.36,18.73-22.59,21.24-23.94
		c2.41-1.25,22.97-3.86,48.55-6.56v-0.1C1934.56,2824.17,1977.71,2820.11,1998.36,2818.18z"/>
	<path class="st50" d="M1957.24,2689.03c30.5,2.7,40.73,125.09,41.12,129.15c-20.66,1.93-63.8,5.98-97.88,9.65v-89.38l-39-54.83
		l-4.54-49.13l-2.32-15.54C1854.64,2618.96,1926.26,2686.23,1957.24,2689.03z"/>
	<path class="st51" d="M1942.86,1048.22c14.77,0,26.74,11.97,26.74,26.74c0,14.67-11.97,26.64-26.74,26.64
		c-14.67,0-26.64-11.97-26.64-26.64C1916.22,1060.19,1928.19,1048.22,1942.86,1048.22z"/>
	<path class="st52" d="M1861.49,2683.63l39,54.83v89.38v0.1c-25.58,2.7-46.14,5.31-48.55,6.56c-2.51,1.35-11.2,11.58-21.24,23.94
		c0,0-8.59-2.51-20.27-5.79v-0.1l-1.64-98.36l41.12-86.87L1861.49,2683.63z"/>
	<path class="st53" d="M1874.23,3026.48l9.17,71.52h-396.71c0,0,53.96-74.71,49.42-144.5l124.71-5.79l139.19-6.37l16.8,72.3
		L1874.23,3026.48z"/>
	<path class="st54" d="M1861.49,2683.63l-11.58-16.31c-3.96-0.39-33.11,12.35-53.38,21.62l-2.41-54.44h62.84L1861.49,2683.63z"/>
	<path class="st55" d="M1802.52,2565c3.19-56.08,4.15-134.94,4.34-193.34c0.19-45.46-0.1-78.47-0.1-78.47l10.04,68.24l23.17,157.33
		l6.76,46.24l7.91,53.96l2.32,15.54h-62.84h-1.93C1797.02,2632.47,1800.39,2604.38,1802.52,2565z"/>
	<path class="st56" d="M1849.91,2667.31l-41.12,86.87l-43.05,11.68l10.91-67.76c0,0,8.59-4.05,19.88-9.17
		C1816.8,2679.67,1845.95,2666.93,1849.91,2667.31z"/>
	<path class="st57" d="M1610.63,2805.44c10.91,3.28,20.17,13.13,18.63,10.62c-1.64-2.7,10.52-10.23,25.1-16.41v-0.1
		c6.66-2.8,13.8-5.31,20.37-7.05c21.24-5.5,19.88,23.26,30.12,15.73c10.23-7.63,17.76,1.35,36.97,0
		c19.11-1.35,0.68,31.47,6.18,29.44c1.35-0.48,7.43,0.58,15.73,2.51c13.32,3.09,32.34,8.3,46.72,12.45
		c11.68,3.28,20.27,5.79,20.27,5.79c-4.54,5.5-9.27,11.49-13.9,17.37l-128.57-19.02l-27.41,39.29v51.64l-124.71,5.79h-0.1
		c-2.61-39.57-24.03-77.61-84.94-99.42c-16.99-6.08-31.27-13.13-43.24-20.95c-2.9-6.47,9.65-21.33,27.12-33.11
		c7.92-5.31,16.8-10.04,25.68-13.03c28.76-9.56,37.64,28.09,36.97,21.91c-0.58-5.02,25.29-10.04,45.17-11.68
		c4.54-0.39,8.78-0.58,12.26-0.58c19.21,0,23.26,26.64,38.32,12.26C1598.56,2803.9,1604.84,2803.7,1610.63,2805.44z"/>
	<path class="st58" d="M1688.23,2856.79l128.57,19.02c-7.34,9.36-14.19,18.15-18.82,24.13l-137.16-3.86L1688.23,2856.79z"/>
	<path class="st59" d="M1810.43,2852.54v0.1c-14.38-4.15-33.4-9.36-46.72-12.45l2.03-74.32l43.05-11.68L1810.43,2852.54z"/>
	<path class="st14" d="M1806.86,2371.66c-0.19,58.4-1.16,137.26-4.34,193.34c-1.74-0.48-43.53-11.2-61.87-0.68
		c-18.73,10.71-47.88-22.2-107.14-11.29c-59.27,11-73.84-53.57-90.73-45.46c-13.13,6.27-42.47,20.85-43.34,34.27
		c0,0-175.48-73.84-226.35-4.34c-6.85-13.9-14.48-27.8-22.68-41.41c0,0,87.55-49.71,176.06-88.9
		c88.42-39.19,160.52,45.66,160.52,45.66C1641.71,2468.28,1806.86,2371.66,1806.86,2371.66z"/>
	<path class="st60" d="M1792.19,2907.47l7.82,33.88l-139.19,6.37v-51.64l137.16,3.86
		C1794.41,2904.57,1792.19,2907.47,1792.19,2907.47z"/>
	<path class="st61" d="M1794.12,2634.5l2.41,54.44c-11.29,5.12-19.88,9.17-19.88,9.17l-47.3-47.39l-24.71,7.72l-14.86,27.7h-68.15
		l-2.12,8.4l-0.48-0.1l-72.2,3.67l-99.81,11.87l-17.37,55.89l5.31,34.17c-17.47,11.78-30.02,26.64-27.12,33.11
		c-106.95-70.08-26.93-201.54,43.24-233.49c72.1,26.45,131.85,9.27,131.85,9.27c12.84,6.95,25.19,11.2,36.1,10.04
		c35.42-3.86,91.12-9.46,96.52,0.19C1721.05,2628.8,1763.23,2649.26,1794.12,2634.5z"/>
	<path class="st62" d="M1792.19,2634.5h1.93c-30.89,14.77-73.07-5.69-78.57-15.35c-5.41-9.65-61.1-4.05-96.52-0.19
		c-10.91,1.16-23.26-3.09-36.1-10.04c-28.76-15.73-59.17-45.08-76.25-55.89c-5.5-3.47-7.63-7.24-7.24-11.2
		c0.87-13.42,30.21-27.99,43.34-34.27c16.89-8.11,31.47,56.47,90.73,45.46c59.27-10.91,88.42,22.01,107.14,11.29
		c18.34-10.52,60.13,0.19,61.87,0.68C1800.39,2604.38,1797.02,2632.47,1792.19,2634.5z"/>
	<polygon class="st63" points="1729.35,2650.71 1776.65,2698.11 1765.74,2765.87 1704.64,2658.43 	"/>
	<path class="st64" d="M1704.64,2658.43l61.1,107.43l-2.03,74.32c-8.3-1.93-14.38-2.99-15.73-2.51c-5.5,2.03,12.93-30.79-6.18-29.44
		c-19.21,1.35-26.74-7.63-36.97,0c-10.23,7.53-8.88-21.24-30.12-15.73c-6.56,1.74-13.71,4.25-20.37,7.05l1.45-50.19l33.98-63.22
		L1704.64,2658.43z"/>
	<path class="st65" d="M1047.99,880.46h717.75c-109.84,125.77-225.19,169.3-330.4,171.04c3.57-7.14,5.5-15.25,5.5-23.74
		c0-31.37-26.35-56.76-58.88-56.76c-32.43,0-58.78,25.39-58.78,56.76c0,3.76,0.39,7.34,1.06,10.91
		c-16.89-4.15-33.3-9.07-49.13-14.67c6.27-11.78,9.75-25.19,9.75-39.38c0-46.81-38.32-84.75-85.52-84.75
		c-33.01,0-61.68,18.53-75.87,45.75c-47.49-32.63-75.48-60.13-75.48-60.13V880.46z"/>
	<polygon class="st66" points="1689.78,2686.14 1655.8,2749.36 1607.06,2743.28 1610.63,2729.19 1619.51,2694.53 1621.63,2686.14 	
		"/>
	<path class="st67" d="M1655.8,2749.36l-1.45,50.19v0.1c-14.58,6.18-26.74,13.71-25.1,16.41c1.54,2.51-7.72-7.34-18.63-10.62
		l-3.57-62.16L1655.8,2749.36z"/>
	<polygon class="st68" points="1619.51,2694.53 1610.63,2729.19 1546.83,2729.57 1546.83,2698.11 1619.03,2694.44 	"/>
	<path class="st69" d="M1610.63,2729.19l-3.57,14.09l3.57,62.16c-5.79-1.74-12.07-1.54-17.28,3.47
		c-15.06,14.38-19.11-12.26-38.32-12.26c-3.47,0-7.72,0.19-12.26,0.58l2.41-40.25l1.64-27.41L1610.63,2729.19z"/>
	<polygon class="st70" points="1546.83,2698.11 1546.83,2729.57 1545.18,2756.99 1520.86,2753.8 	"/>
	<polygon class="st71" points="1546.83,2698.11 1520.86,2753.8 1429.65,2765.87 1447.02,2709.98 	"/>
	<path class="st72" d="M1545.18,2756.99l-2.41,40.25c-19.88,1.64-45.75,6.66-45.17,11.68c0.68,6.18-8.2-31.47-36.97-21.91
		c-8.88,2.99-17.76,7.72-25.68,13.03l-5.31-34.17l91.22-12.07L1545.18,2756.99z"/>
	<path class="st73" d="M1582.93,2608.92c0,0-59.75,17.18-131.85-9.27c0,0-111.77-61.68-167.57-39.96h-0.1
		c-3.19-7.34-6.66-14.77-10.33-22.2c50.87-69.5,226.35,4.34,226.35,4.34c-0.39,3.96,1.74,7.72,7.24,11.2
		C1523.76,2563.84,1554.16,2593.18,1582.93,2608.92z"/>
	<path class="st74" d="M1440.84,1027.76c0,8.49-1.93,16.6-5.5,23.74c-9.27,19.5-29.63,33.01-53.38,33.01
		c-28.57,0-52.41-19.69-57.72-45.85c-0.68-3.57-1.06-7.14-1.06-10.91c0-31.37,26.35-56.76,58.78-56.76
		C1414.49,971,1440.84,996.39,1440.84,1027.76z M1391.61,1029.11c0-6.47-5.21-11.68-11.68-11.68c-6.37,0-11.58,5.21-11.58,11.68
		c0,6.37,5.21,11.58,11.58,11.58C1386.4,1040.69,1391.61,1035.48,1391.61,1029.11z"/>
	<path class="st46" d="M1379.94,1443.58c57.43,4.15,20.46,34.46,20.46,34.46v0.1c-105.98,27.99-201.35,152.41-145.85,264.38
		c28.67,57.82,62.06,127.51,109.17,185.33l-22.88,9.56c-31.18-28.38-72.39-45.56-117.76-45.56c-96.72,0-175.09,78.47-175.09,175.19
		c0,85.04,60.62,155.89,140.92,171.72l-128.96,30.98h-0.1c-13.51-51.06,1.74-98.74,1.74-98.74
		c-26.93,34.56-40.83,70.95-46.52,106.08h-0.1h-35.23l-10.23-101.54l-14.09,105.21h-22.39l-11.39-105.21
		c-5.98-55.11-17.76-406.75-17.76-406.75l-9.17,55.4l-10.91-18.05c0,0-8.2,63.9-4.54,64.77c3.57,0.97-11,12.55-11,12.55
		s-5.41-89.19-7.24-110.13c-0.39-4.92-1.35-20.37-2.51-41.02c67.18,1.16,216.79-134.26,221.43-138.51
		c-1.25,5.02-1.93,10.23-1.93,15.64c0,36.1,30.02,65.44,67.08,65.44s66.99-29.34,66.99-65.44c0-29.15-19.4-53.86-46.33-62.26
		C1165.75,1547.16,1322.5,1439.53,1379.94,1443.58z"/>
	<path class="st75" d="M1349.82,2866.44c128.67,196.91,39.67,231.56,39.67,231.56s108.11-97.49-164.19-206.95
		c0,0-35.62-26.93,92.18-181.85l0.1-0.1l1.35,0.48C1303.97,2749.17,1306.96,2800.71,1349.82,2866.44z"/>
	<path class="st76" d="M1225.3,2891.06C1497.6,3000.52,1389.49,3098,1389.49,3098h-115.35
		c-137.55-100.67-113.13-206.56-61.87-282.43c27.99-41.51,64.09-74.03,85.91-91.7c11-8.88,18.34-14,19.3-14.67
		C1189.69,2864.13,1225.3,2891.06,1225.3,2891.06z"/>
	<path class="st77" d="M1379.94,1017.43c6.47,0,11.68,5.21,11.68,11.68c0,6.37-5.21,11.58-11.68,11.58
		c-6.37,0-11.58-5.21-11.58-11.58C1368.35,1022.64,1373.56,1017.43,1379.94,1017.43z"/>
	<path class="st78" d="M1340.84,1937.4c35.23,32.05,57.34,78.28,57.34,129.63c0,54.44-24.81,102.99-63.71,135.13
		c-0.39,0.29-0.77,0.58-1.16,0.87c-1.25,0.87-2.41,1.83-3.47,2.7c-29.54,22.88-66.6,36.39-106.76,36.39
		c-11.68,0-23.07-1.16-34.17-3.38c-80.31-15.83-140.92-86.68-140.92-171.72c0-96.72,78.38-175.19,175.09-175.19
		C1268.45,1891.84,1309.67,1909.02,1340.84,1937.4z M1359.86,2065.2c0-73.55-60.81-133.2-135.91-133.2
		c-75,0-135.91,59.65-135.91,133.2c0,73.55,60.91,133.11,135.91,133.11C1299.05,2198.31,1359.86,2138.75,1359.86,2065.2z"/>
	<path class="st79" d="M1223.95,1932c75.1,0,135.91,59.65,135.91,133.2c0,73.55-60.81,133.11-135.91,133.11
		c-75,0-135.91-59.56-135.91-133.11C1088.05,1991.65,1148.95,1932,1223.95,1932z M1253.01,2062.3c0-16.8-12.36-30.4-27.7-30.4
		c-15.25,0-27.7,13.61-27.7,30.4c0,16.8,12.45,30.5,27.7,30.5C1240.65,2092.8,1253.01,2079.1,1253.01,2062.3z"/>
	<path class="st80" d="M1451.07,2599.65c0,0-102.03,30.98-132.14,109.94l-1.35-0.48l-0.1,0.1c-0.97,0.68-8.3,5.79-19.3,14.67
		c25.29-33.98,14.29-97.97-14.77-164.19h0.1C1339.3,2537.97,1451.07,2599.65,1451.07,2599.65z"/>
	<path class="st81" d="M1283.41,2559.69c29.05,66.22,40.06,130.21,14.77,164.19c-21.81,17.66-57.91,50.19-85.91,91.7
		c-177.89,127.41-67.95,273.84-61.68,282.04c-8.3-8.4-164.86-168.53-106.27-282.04c60.23-116.5-159.65-215.92-159.65-215.92
		s-125.87-134.07,36.97-424.13l11.39,105.21l10.04,92.66l12.36-92.66l14.09-105.21l10.23,101.54l12.55,124.61
		c0,0,25.87,49.42,33.01,83.11l22.68-18.34c0,0-49.61-89.09-32.91-189.38c5.69-35.13,19.59-71.52,46.52-106.08
		c0,0-15.25,47.68-1.74,98.74c8.2,30.79,26.93,62.74,65.64,86.39c42.57,25.97,88.99,80.02,124.9,139.96
		c8.2,13.61,15.83,27.51,22.68,41.41C1276.75,2544.92,1280.23,2552.35,1283.41,2559.69z"/>
	<path class="st82" d="M1284.86,984.61c0,14.19-3.47,27.61-9.75,39.38c-14.29,27.03-42.86,45.46-75.77,45.46
		c-47.2,0-85.52-37.93-85.52-84.84c0-14.09,3.47-27.32,9.65-39c14.19-27.22,42.86-45.75,75.87-45.75
		C1246.54,899.87,1284.86,937.8,1284.86,984.61z M1214.78,972.84c0-10.52-8.49-19.02-19.02-19.02s-19.02,8.49-19.02,19.02
		c0,10.52,8.49,19.02,19.02,19.02S1214.78,983.36,1214.78,972.84z"/>
	<path class="st81" d="M1274.15,3098h-123.16c0,0,0,0-0.1-0.1c-0.1-0.1-0.1-0.19-0.29-0.29c-6.27-8.2-116.21-154.63,61.68-282.04
		C1161.02,2891.44,1136.6,2997.33,1274.15,3098z"/>
	<path class="st83" d="M1225.3,2031.9c15.35,0,27.7,13.61,27.7,30.4c0,16.8-12.36,30.5-27.7,30.5c-15.25,0-27.7-13.71-27.7-30.5
		C1197.6,2045.51,1210.05,2031.9,1225.3,2031.9z"/>
	
		<ellipse transform="matrix(0.2298 -0.9732 0.9732 0.2298 -25.7772 1913.1047)" class="st84" cx="1195.77" cy="972.84" rx="19.02" ry="19.02"/>
	<path class="st85" d="M1165.75,1547.16c26.93,8.4,46.33,33.11,46.33,62.26c0,36.1-29.92,65.44-66.99,65.44
		s-67.08-29.34-67.08-65.44c0-5.41,0.68-10.62,1.93-15.64c0.1-0.1,0.1-0.1,0.1-0.1c7.14-28.57,33.59-49.71,65.06-49.71
		C1152.33,1543.97,1159.28,1545.03,1165.75,1547.16z M1158.8,1600.73c0-9.46-6.56-17.08-14.58-17.08c-8.11,0-14.67,7.63-14.67,17.08
		s6.56,17.08,14.67,17.08C1152.24,1617.81,1158.8,1610.19,1158.8,1600.73z"/>
	<path class="st86" d="M858.51,1732.29c1.16,20.66,2.12,36.1,2.51,41.02c1.83,20.95,7.24,110.13,7.24,110.13s14.58-11.58,11-12.55
		c-3.67-0.87,4.54-64.77,4.54-64.77l10.91,18.05l9.17-55.4c0,0,11.78,351.64,17.76,406.75c-162.84,290.05-36.97,424.13-36.97,424.13
		s219.88,99.42,159.65,215.92c-58.59,113.51,97.97,273.65,106.27,282.04c0.19,0.1,0.19,0.19,0.29,0.29c0.1,0.1,0.1,0.1,0.1,0.1
		H769.81c0,0-136.87-99.32-190.83-227.22c-26.16-62.06-32.82-130.79,5.21-198.16c36.97-65.44,59.56-112.16,72.39-147.58
		c27.8-76.35,10.14-100.77-8.59-148.36c-8.3-21.04-14.67-57.53-18.24-100c-8.11-97.59-1.06-226.93,33.49-274.22
		c14.58-14.96,23.55-35.42,23.55-58.11c0-25.68-11.58-48.65-29.83-64c2.51-8.2,7.72-31.37-8.49-50.48
		c-6.27-7.34-10.81-13.13-14.09-17.57c-6.76-9.07-8.4-12.74-8.59-13.32l28.18,19.98l-11.2-241.7l59.56,183.3
		c0,0,18.24-41.02,17.28-108.59c-0.87-67.47,12.74-74.71,12.74-74.71l12.84,23.46c0,0,30.21-50.19,8.78-142.18
		c-3.47-15.25-8.4-31.66-15.15-49.13c0,0-15.54-355.69,38.22-368.43c53.86-12.84,0,287.26,0,287.26s-9.17,66.99,22.88,125.09
		c2.22,4.15,4.73,8.3,7.43,12.35c40.83,60.52,40.83,78.28,40.83,78.28S854.65,1665.59,858.51,1732.29z"/>
	<path class="st87" d="M1144.22,1583.64c8.01,0,14.58,7.63,14.58,17.08s-6.56,17.08-14.58,17.08c-8.11,0-14.67-7.63-14.67-17.08
		S1136.12,1583.64,1144.22,1583.64z"/>
	<path class="st88" d="M942.2,958.65c0,35.91-31.85,64.96-71.14,64.96c-39.29,0-71.14-29.05-71.14-64.96s31.85-64.96,71.14-64.96
		C910.35,893.69,942.2,922.74,942.2,958.65z M902.82,958.17c0-10.71-10.52-19.4-23.46-19.4c-12.93,0-23.36,8.69-23.36,19.4
		c0,10.62,10.42,19.3,23.36,19.3C892.3,977.47,902.82,968.78,902.82,958.17z"/>
	<path class="st89" d="M879.36,938.76c12.93,0,23.46,8.69,23.46,19.4c0,10.62-10.52,19.3-23.46,19.3c-12.93,0-23.36-8.69-23.36-19.3
		C856,947.45,866.43,938.76,879.36,938.76z"/>
	<path class="st90" d="M254.27,3020.59c-24.9-18.82-4.34-62.55-4.34-62.55c8.2-119.01,136.77-32.82,136.77-32.82
		c58.88-142.28,161.48-43.82,161.48-43.82c10.91-30.02,30.79-10.62,30.79-10.62C632.94,2998.68,769.81,3098,769.81,3098H228.69
		v-75.67C238.44,3013.16,249.35,3017.7,254.27,3020.59z"/>
	<path class="st47" d="M625.79,1798.99c0.19,0.58,1.83,4.25,8.59,13.32c0,0-205.31,56.76-405.69-142.95v-545.84
		c208.59,430.88,525.28,335.03,525.28,335.03c21.43,91.99-8.78,142.18-8.78,142.18l-12.84-23.46c0,0-13.61,7.24-12.74,74.71
		c0.97,67.57-17.28,108.59-17.28,108.59l-59.56-183.3l11.2,241.7L625.79,1798.99z"/>
	<path class="st91" d="M656.97,1880.36c18.24,15.35,29.83,38.32,29.83,64c0,22.68-8.98,43.15-23.55,58.11
		c-15.25,15.64-36.49,25.29-59.94,25.29c-46.04,0-83.4-37.35-83.4-83.4c0-46.14,37.35-83.49,83.4-83.49
		C623.77,1860.86,642.49,1868.19,656.97,1880.36z M618.36,1947.73c0-10.42-7.63-18.92-17.08-18.92s-17.08,8.49-17.08,18.92
		c0,10.52,7.63,18.92,17.08,18.92S618.36,1958.25,618.36,1947.73z"/>
	<path class="st46" d="M603.3,2027.75c23.46,0,44.69-9.65,59.94-25.29c-34.56,47.3-41.6,176.64-33.49,274.22l-4.15,0.29
		c-4.05-5.79-191.89-270.65-396.91-38.22v-569.39c200.38,199.71,405.69,142.95,405.69,142.95c3.28,4.44,7.82,10.23,14.09,17.57
		c16.22,19.11,11,42.28,8.49,50.48c-14.48-12.16-33.2-19.5-53.67-19.5c-46.04,0-83.4,37.35-83.4,83.49
		C519.91,1990.39,557.26,2027.75,603.3,2027.75z M418.17,1884.22c0-33.11-26.83-60.04-60.04-60.04S298,1851.11,298,1884.22
		c0,33.2,26.93,60.13,60.13,60.13S418.17,1917.42,418.17,1884.22z"/>
	<path class="st15" d="M625.6,2276.97l4.15-0.29c3.57,42.47,9.94,78.96,18.24,100c18.73,47.59,36.39,72.01,8.59,148.36
		c0,0-122.1,13.03-164.48,41.79c-42.47,28.67-124.03-54.73-124.03-54.73s-40.15-67.08-139.38-35.62v-237.74
		C433.71,2006.32,621.55,2271.18,625.6,2276.97z"/>
	<path class="st92" d="M539.31,885.48c66.79,0,121.04,53.28,121.04,119.01s-54.25,119.01-121.04,119.01
		c-66.89,0-121.14-53.28-121.14-119.01S472.42,885.48,539.31,885.48z M574.83,983.26c0-25.29-19.59-45.85-43.73-45.85
		c-24.23,0-43.82,20.56-43.82,45.85c0,25.29,19.59,45.85,43.82,45.85C555.24,1029.11,574.83,1008.55,574.83,983.26z"/>
	<ellipse class="st93" cx="601.28" cy="1947.73" rx="17.08" ry="18.92"/>
	<path class="st14" d="M492.11,2566.83c42.37-28.76,164.48-41.79,164.48-41.79c-12.84,35.42-35.42,82.14-72.39,147.58
		c-38.03,67.37-31.37,136.1-5.21,198.16c0,0-19.88-19.4-30.79,10.62c0,0-102.6-98.45-161.48,43.82c0,0-128.57-86.2-136.77,32.82
		c0,0-20.56,43.73,4.34,62.55c-4.92-2.9-15.83-7.43-25.58,1.74v-545.84c99.23-31.47,139.38,35.62,139.38,35.62
		S449.64,2595.5,492.11,2566.83z"/>
	<path class="st94" d="M531.1,937.41c24.13,0,43.73,20.56,43.73,45.85c0,25.29-19.59,45.85-43.73,45.85
		c-24.23,0-43.82-20.56-43.82-45.85C487.28,957.97,506.88,937.41,531.1,937.41z M544.42,984.13c0-6.85-5.6-12.45-12.55-12.45
		c-6.85,0-12.45,5.6-12.45,12.45c0,6.85,5.6,12.45,12.45,12.45C538.83,996.58,544.42,990.98,544.42,984.13z"/>
	<path class="st95" d="M531.88,971.68c6.95,0,12.55,5.6,12.55,12.45c0,6.85-5.6,12.45-12.55,12.45c-6.85,0-12.45-5.6-12.45-12.45
		C519.42,977.28,525.02,971.68,531.88,971.68z"/>
	<path class="st96" d="M358.13,1824.18c33.2,0,60.04,26.93,60.04,60.04c0,33.2-26.83,60.13-60.04,60.13S298,1917.42,298,1884.22
		C298,1851.11,324.93,1824.18,358.13,1824.18z M368.08,1883.44c0-6.95-5.69-12.55-12.55-12.55c-6.95,0-12.55,5.6-12.55,12.55
		s5.6,12.55,12.55,12.55C362.38,1895.99,368.08,1890.39,368.08,1883.44z"/>
	<circle class="st97" cx="355.53" cy="1883.44" r="12.55"/>
</g>
</svg>
