<?xml version="1.0" encoding="utf-8"?>
<!-- Generator: Adobe Illustrator 27.5.0, SVG Export Plug-In . SVG Version: 6.00 Build 0)  -->
<svg version="1.1" id="图层_1" xmlns="http://www.w3.org/2000/svg" xmlns:xlink="http://www.w3.org/1999/xlink" x="0px" y="0px"
	 viewBox="0 0 123.63 209.49" style="enable-background:new 0 0 123.63 209.49;" xml:space="preserve">
<style type="text/css">
	.st0{fill:#DAD8D3;}
	.st1{fill:#96948E;}
	.st2{fill:#ADABA6;}
	.st3{fill:#F9F6F1;}
	.st4{fill:#62615D;}
	.st5{fill:#4B4A46;}
	.st6{fill:#3C3B3A;}
	.st7{fill:#6B6964;}
	.st8{fill:#565551;}
	.st9{fill:#BFBCB6;}
	.st10{fill:#F9F7F2;}
	.st11{fill:#F4F1EC;}
	.st12{fill:#A2A09B;}
	.st13{fill:#888681;}
	.st14{fill:#F6F3EE;}
	.st15{fill:#FBFAF6;}
	.st16{fill:#7A7974;}
	.st17{fill:#85837D;}
	.st18{fill:#42403E;}
	.st19{fill:#FAF8F3;}
	.st20{fill:#5D5C57;}
	.st21{fill:#F7F4EF;}
	.st22{fill:#74726D;}
</style>
<g>
	<path class="st0" d="M29.43,54.09c0,5.23,0,10.45,0,15.68c-0.4,0.01-0.8,0.02-1.2,0.04c-0.03-1.77-0.06-3.53-0.1-5.3
		c0-0.35,0-0.69,0-1.04c0.01-0.52,0.01-1.04,0.02-1.57c0.19-2.38,0.48-4.75,0.56-7.13c0.1-3,0.04-6.01,0.05-9.02
		c0.38,0.02,0.77,0.03,1.15,0.05c-0.16,0.85-0.33,1.7-0.49,2.55c0.01,1.21,0.02,2.43,0.03,3.64C29.44,52.69,29.43,53.39,29.43,54.09
		z"/>
	<path class="st1" d="M28.19,38.68c-1.44-0.78-2.88-1.56-4.33-2.34c-0.5-0.83-1-1.66-1.5-2.49c0.28-0.05,0.57-0.1,0.85-0.15v0.03
		c0.2,0.17,0.4,0.34,0.6,0.51c0.6,0.36,1.21,0.73,1.81,1.09c0.84,0.66,1.56,1.68,2.53,1.89c1.55,0.34,3.27,0.15,4.92,0.18
		c0.04,0.22,0.08,0.45,0.12,0.67c-0.25,0.15-0.5,0.31-0.75,0.46c-1.03,0.29-2.05,0.58-3.38,0.95
		C28.97,39.41,28.58,39.05,28.19,38.68z"/>
	<path class="st2" d="M33.2,38.08c-0.04-0.22-0.08-0.45-0.12-0.67c1.22-0.88,2.44-1.76,3.66-2.63c1.07-0.86,2.14-1.72,3.2-2.58
		c0.33,0.04,0.66,0.07,1,0.11c-0.03,0.29-0.06,0.58-0.1,0.86c-0.76,0.97-1.52,1.95-2.28,2.92c-0.62,0.39-1.24,0.78-1.85,1.18
		C35.53,37.53,34.37,37.81,33.2,38.08z"/>
	<path class="st3" d="M28.19,38.68c0.39,0.36,0.78,0.72,0.87,0.81c1.33-0.38,2.36-0.66,3.38-0.95c-0.73,0.94-1.35,1.98-2.27,2.77
		c-0.28,0.24-1.35-0.16-2.06-0.26C28.15,40.26,28.17,39.47,28.19,38.68z"/>
	<path class="st0" d="M22.58,18.13c0.21-1.39,0.42-2.77,0.63-4.16c0.2-0.17,0.39-0.35,0.59-0.52c0.45-0.15,0.9-0.3,1.34-0.44
		c-0.65,1.71-1.3,3.42-1.96,5.13C22.98,18.16,22.78,18.16,22.58,18.13z"/>
	<path class="st3" d="M29.91,45.8c-0.38-0.02-0.77-0.03-1.15-0.05c-0.02-0.47-0.04-0.95-0.06-1.42c0.47,0.01,0.94,0.03,1.41,0.04
		C30.03,44.85,29.97,45.33,29.91,45.8z"/>
	<path class="st4" d="M69.61,77.99c3.36,0.16,5.69-1.25,7.47-3.49l0.28-0.03l0.28,0.05c0.43,0.88,0.84,1.76,1.28,2.63
		c0.6,1.18,1.21,2.36,1.81,3.54c0.17,0.69,0.33,1.38,0.5,2.07c-1.2-0.61-2.39-1.22-3.59-1.83c-0.72-0.37-1.44-0.72-2.16-1.08
		c-0.3,0.68-0.69,1.35-0.86,2.05c-0.15,0.61-0.05,1.25-0.05,1.88c-1.42-1.05-2.85-2.1-4.27-3.16c-0.17,0.16-0.34,0.33-0.5,0.49
		c0.78,1.07,1.56,2.13,2.34,3.2c-2.09-0.42-4.17-0.83-6.42-1.28c-0.27,0.44-0.65,1.05-1.29,2.07c-0.73-1.44-1.25-2.45-1.77-3.46
		c0.07-0.32,0.14-0.64,0.21-0.96c0.2-0.01,0.38-0.04,0.56-0.11c0.23-0.14,0.46-0.27,0.69-0.41C65.95,79.44,67.78,78.71,69.61,77.99z
		"/>
	<path class="st5" d="M34.35,24.82c1.43,0.05,2.86,0.1,4.29,0.14c-0.2,1.89-0.41,3.78-0.61,5.67l0,0c-0.41,0.18-0.83,0.35-1.24,0.53
		c-0.43,1.2-0.87,2.39-1.3,3.59c-2.44,1.43-5.09,1.76-7.94,1.05c-0.64-1.03-1.28-2.05-1.92-3.08c-0.2-1.21-0.39-2.43-0.59-3.64
		c0.41-0.53,0.83-1.06,1.24-1.59c0.82,0.6,1.55,1.35,2.48,1.77c1.01,0.45,2.25,0.85,3.34,0.79c0.71-0.04,1.74-0.87,1.93-1.5
		C34.41,27.37,34.28,26.07,34.35,24.82z"/>
	<path class="st6" d="M34.35,24.82c-0.08,1.25,0.05,2.55-0.31,3.74c-0.19,0.63-1.22,1.45-1.93,1.5c-1.1,0.06-2.33-0.33-3.34-0.79
		c-0.94-0.42-1.66-1.17-2.48-1.77l0,0c1.05-0.61,2.1-1.21,3.31-1.91c-0.55-0.25-1.06-0.49-1.57-0.72c-0.37-0.36-0.75-0.72-1.12-1.08
		c0-0.32,0-0.64,0-0.96h0.01c1.02,0.01,2.03,0.01,3.05,0.02c1.07,0.35,2.13,0.69,3.2,1.04C33.55,24.19,33.95,24.5,34.35,24.82z"/>
	<path class="st7" d="M40.47,20.81c0.33,0.84,0.66,1.69,0.99,2.53c-1.56,0.14-3.12,0.28-4.69,0.42c-0.2-0.32-0.4-0.64-0.59-0.96
		c0.2-0.66,0.4-1.32,0.6-1.98c0.62-0.07,1.25-0.13,1.87-0.2C39.26,20.69,39.86,20.75,40.47,20.81z"/>
	<path class="st8" d="M38.03,30.63c0.2-1.89,0.41-3.78,0.61-5.67c0.63,0.01,1.26,0.02,1.89,0.03c0.15,0.13,0.31,0.27,0.46,0.4
		c0.04,0.18,0.07,0.37,0.11,0.55c-0.03,1.05-0.05,2.09-0.08,3.14c0.07,0.36,0.14,0.71,0.22,1.07L41,30.07
		C40.01,30.25,39.02,30.44,38.03,30.63z"/>
	<path class="st5" d="M36.18,22.81c0.2,0.32,0.4,0.64,0.59,0.96c-1.21,0.04-2.41,0.07-3.62,0.11c-1.07-0.35-2.13-0.69-3.2-1.04
		l0.03-0.03C32.05,22.81,34.11,22.81,36.18,22.81z"/>
	<path class="st9" d="M41.02,29.08c0.03-1.05,0.05-2.09,0.08-3.14c0.23,0.17,0.46,0.35,0.69,0.52c-0.03,0.87-0.05,1.73-0.08,2.6
		C41.48,29.06,41.25,29.07,41.02,29.08z"/>
	<path class="st10" d="M60.32,77.01"/>
	<path class="st6" d="M40.99,25.39c-0.15-0.13-0.31-0.27-0.46-0.4C40.69,25.12,40.84,25.26,40.99,25.39z"/>
	<path class="st9" d="M88.23,206.15c-2.1-0.15-4.2-0.3-6.31-0.45c0.95-1.56,1.9-3.12,2.86-4.69c1.36,0.37,2.72,0.74,4.08,1.11
		c-0.42,0.53-0.85,1.06-1.67,2.08c1.93,0.17,3.33,0.29,4.74,0.41c0.63,0.1,1.26,0.19,1.89,0.29c0,0.3-0.01,0.6-0.01,0.9
		c-0.84,0.02-1.68,0.05-2.52,0.07c-0.63,0.09-1.26,0.18-1.9,0.28H89.1l-0.28,0.04C88.62,206.18,88.43,206.16,88.23,206.15z"/>
	<path class="st11" d="M93.8,205.81c0-0.3,0.01-0.6,0.01-0.9c2.05-0.03,4.09-0.07,6.14-0.1c0,0.31,0,0.62,0,0.94
		C97.9,205.76,95.85,205.79,93.8,205.81z"/>
	<path class="st0" d="M78.91,205.82c-0.72,0.32-1.44,0.9-2.17,0.92c-4.61,0.09-9.22,0.07-13.83,0.05c-1.17-0.01-2.78,0.2-1.98-1.6
		c0.41-0.17,0.82-0.35,1.24-0.52c0.42,0.17,0.83,0.34,1.25,0.5c0.41,0.02,0.81,0.04,1.22,0.06c0.84,0.06,1.67,0.12,2.51,0.19
		c0.79-0.04,1.58-0.07,2.37-0.11C72.65,205.47,75.78,205.65,78.91,205.82z"/>
	<path class="st1" d="M73.57,200.41c0.62-0.33,1.23-0.65,1.85-0.98c0.31,1.38,0.61,2.75,0.92,4.13c-2.24,0.21-4.49,0.42-6.73,0.63
		l-0.1-0.19c0.03-0.46,0.07-0.92,0.1-1.38C70.93,201.89,72.25,201.15,73.57,200.41z"/>
	<path class="st12" d="M67.15,205.41c-0.84-0.06-1.67-0.12-2.51-0.19c0.83-0.35,1.67-0.69,2.5-1.04
		C67.15,204.59,67.15,205,67.15,205.41z"/>
	<path class="st13" d="M67.15,205.41c0-0.41,0-0.82,0-1.22c0.4-0.19,0.81-0.37,1.21-0.56c0.38,0.12,0.77,0.25,1.15,0.37l0.1,0.19
		c-0.03,0.37-0.06,0.74-0.1,1.1C68.73,205.33,67.94,205.37,67.15,205.41z"/>
	<path class="st2" d="M69.51,204c-0.38-0.12-0.77-0.25-1.15-0.37c0.42-0.34,0.83-0.67,1.25-1C69.58,203.08,69.54,203.54,69.51,204z"
		/>
	<path class="st2" d="M28.05,79.1c0.02-1.04,0.05-2.09,0.07-3.13c0.15-0.28,0.31-0.57,0.46-0.85c0.17,0.02,0.33,0.03,0.5,0.05
		c0.24,4.91,0.49,9.83,0.73,14.74c-0.32,0.02-0.65,0.03-0.98,0.05c-0.26-2.06-0.52-4.11-0.78-6.17c0.01-0.35,0.01-0.7,0.02-1.05
		C28.06,81.53,28.06,80.32,28.05,79.1z"/>
	<path class="st0" d="M28.83,89.97c0.33-0.02,0.65-0.03,0.98-0.05c0.07,0.21,0.13,0.42,0.2,0.64c0.01,1.39,0.02,2.78,0.03,4.17
		c0,0.87,0.01,1.74,0.01,2.61c-0.01,0.87-0.03,1.73-0.04,2.6c0,0.35-0.01,0.7-0.01,1.05c0,0.89,0,1.77-0.01,2.66
		c-0.16,0.02-0.32,0.01-0.48-0.01c-0.24-0.17-0.48-0.35-0.72-0.52c-0.04-2.45-0.09-4.9-0.13-7.35
		C28.72,93.84,28.77,91.9,28.83,89.97z"/>
	<path class="st7" d="M38.03,30.63c0.99-0.19,1.97-0.38,2.96-0.57c0.04,0.36,0.08,0.72,0.12,1.08c-0.39,0.35-0.78,0.7-1.17,1.05
		c-1.07,0.86-2.14,1.72-3.2,2.58c-0.41-0.01-0.83-0.01-1.24-0.02c0.43-1.2,0.87-2.39,1.3-3.59C37.21,30.99,37.62,30.81,38.03,30.63
		L38.03,30.63z"/>
	<path class="st14" d="M41.02,29.08c0.23-0.01,0.46-0.01,0.69-0.02c0.53,0.1,1.07,0.2,1.6,0.29c0.01,0.15,0.02,0.3,0.03,0.46
		c-0.7,0.11-1.4,0.22-2.1,0.34C41.16,29.79,41.09,29.43,41.02,29.08z"/>
	<path class="st14" d="M39.94,32.19c0.39-0.35,0.78-0.7,1.17-1.05c-0.06,0.38-0.12,0.77-0.18,1.15
		C40.6,32.26,40.27,32.23,39.94,32.19z"/>
	<path class="st15" d="M40.47,20.81c-0.6-0.06-1.21-0.12-1.81-0.18c-0.84-1.36-1.67-1.35-2.48,0.01c-0.82,0-1.65-0.01-2.47-0.01
		c0.2-0.79,0.1-2.04,0.64-2.29c3.89-1.79,0.7-2.61-0.45-3.84c-1.22,0.57-2.26,1.06-3.31,1.55c-0.21-0.7-0.42-1.4-0.63-2.09
		c1.11-0.69,2.54-2.15,3.28-1.93c1.97,0.58,4.07,1.59,5.33,2.95c1.33,1.43,1.74,3.46,2.55,5.23C40.91,20.41,40.69,20.61,40.47,20.81
		z"/>
	<path class="st2" d="M23.18,18.13c0.65-1.71,1.3-3.42,1.96-5.13c0.54,0,1.08,0.01,1.63,0.01c0.47,2.66,0.94,5.32,1.4,7.98
		c-0.68,0.05-1.35,0.1-2.03,0.16c-0.59-0.1-1.17-0.21-1.76-0.31C25.06,19.59,25.09,18.55,23.18,18.13z"/>
	<path class="st0" d="M28.17,20.98c-0.47-2.66-0.93-5.32-1.4-7.98c1.06,0.32,2.13,0.63,3.19,0.95c0.21,0.7,0.42,1.4,0.63,2.09
		c1.66,1.53,0.63,3.07,0.04,4.61c-0.42,0.07-0.84,0.15-1.26,0.22C28.97,20.91,28.57,20.95,28.17,20.98z"/>
	<path class="st2" d="M21.19,25.94c-2.43-0.19-4.85-0.38-7.28-0.58c1.05-0.33,2.08-0.73,3.16-0.98c1.15-0.27,2.35-0.39,3.53-0.58
		c1.69,0,3.39-0.01,5.08-0.01c0.41,0,0.81-0.01,1.22-0.01c0.37,0.36,0.75,0.72,1.12,1.08c-2.17,0.36-4.35,0.73-6.52,1.09
		C21.39,25.99,21.29,25.98,21.19,25.94z"/>
	<path class="st7" d="M25.68,23.8c-1.69,0-3.39,0.01-5.08,0.01c0.26-0.84,0.51-1.69,0.77-2.53c1-0.15,2.01-0.29,3.01-0.44
		c0.59,0.1,1.17,0.21,1.76,0.31c0.26,0.56,0.51,1.12,0.76,1.68h-0.01C26.49,23.15,26.09,23.47,25.68,23.8z"/>
	<path class="st1" d="M24.38,20.83c-1,0.15-2.01,0.29-3.01,0.44c0.4-1.05,0.8-2.1,1.21-3.15c0.2,0.03,0.4,0.03,0.6,0
		C25.09,18.55,25.06,19.59,24.38,20.83z"/>
	<path class="st16" d="M35.49,34.75c0.42,0.01,0.83,0.01,1.24,0.02c-1.22,0.88-2.44,1.76-3.66,2.63c-1.65-0.03-3.37,0.16-4.92-0.18
		c-0.97-0.21-1.7-1.23-2.53-1.89c0.64,0.15,1.28,0.31,1.92,0.47C30.39,36.51,33.04,36.18,35.49,34.75z"/>
	<path class="st16" d="M22.36,33.85c-0.59-0.9-1.17-1.8-1.76-2.7c-0.01-0.52-0.01-1.04-0.02-1.56c0.28-1.04,0.56-2.08,0.84-3.12
		c0.24,0.75,0.44,1.52,0.74,2.25c0.27,0.66,0.65,1.29,0.99,1.93c0.03,0.33,0.06,0.67,0.09,1c-0.01,0.68-0.02,1.37-0.03,2.05
		C22.93,33.75,22.65,33.8,22.36,33.85z"/>
	<path class="st4" d="M23.21,33.7c0.01-0.68,0.02-1.37,0.03-2.05c0.79,0.36,1.59,0.72,2.39,1.07c0.64,1.03,1.28,2.05,1.92,3.08
		c-0.64-0.16-1.28-0.31-1.92-0.47c-0.6-0.36-1.21-0.73-1.81-1.09c-0.2-0.17-0.4-0.34-0.6-0.51L23.21,33.7z"/>
	<path class="st16" d="M23.22,33.74c0.2,0.17,0.4,0.34,0.6,0.51C23.62,34.07,23.42,33.91,23.22,33.74z"/>
	<path class="st5" d="M99.95,204.81c-2.05,0.03-4.09,0.07-6.14,0.1c-0.63-0.1-1.26-0.19-1.89-0.29c1.03-1.17,2.06-2.33,3.08-3.5
		c0.39-0.54,0.79-1.08,1.18-1.62c0.25-0.01,0.51-0.03,0.76-0.04c1.42,1.03,2.84,2.05,4.26,3.08c1.6,0.52,3.21,1.04,4.81,1.56
		C104,204.34,101.97,204.57,99.95,204.81z"/>
	<path class="st12" d="M104.14,171.36c0.08,2.77,0.16,5.55,0.24,8.32c0.15,1.22,0.3,2.44,0.45,3.66c-1.57,1.25-2.77,3.04-5.48,2.59
		c-0.01-0.35-0.01-0.7-0.02-1.04c0.99-1.94,1.98-3.87,2.96-5.81c-0.09-1.95-0.24-3.91-0.25-5.86c0-0.68,0.34-1.35,0.53-2.03
		C103.09,171.25,103.61,171.31,104.14,171.36z"/>
	<path class="st9" d="M106.02,204.11c-1.6-0.52-3.21-1.04-4.81-1.56c0.69-0.92,1.39-1.83,2.26-2.99c0.29,0.1-0.21-0.07-0.72-0.25
		c0.11-0.16,0.21-0.32,0.32-0.48c0.86,0.04,1.71,0.09,2.57,0.13C107.95,200.95,108.09,202.76,106.02,204.11z"/>
	<path class="st12" d="M105.64,198.95c-0.86-0.04-1.71-0.09-2.57-0.13c-0.11,0.16-0.21,0.32-0.32,0.48
		c0.51,0.18,1.01,0.35,0.72,0.25c-0.87,1.15-1.57,2.07-2.26,2.99c-1.42-1.03-2.84-2.05-4.26-3.08c0.36-0.2,0.72-0.4,1.08-0.59
		c1.48-0.3,2.96-0.61,4.43-0.91c0.68-0.06,1.36-0.12,1.98-0.18c-0.05-0.74-0.1-1.33-0.14-1.92c0.38-0.19,0.76-0.38,1.13-0.56
		C105.51,196.52,105.57,197.74,105.64,198.95z"/>
	<path class="st1" d="M99.34,185.94c2.71,0.45,3.91-1.35,5.48-2.59c-0.13,1.22-0.26,2.44-0.39,3.66c-0.88,0.51-1.76,1.01-2.64,1.52
		c-0.01,0.17-0.03,0.33-0.06,0.49c-0.81,0.02-1.61,0.04-2.42,0.06l0,0c-0.39-0.36-0.78-0.72-1.17-1.08
		C98.54,187.31,98.94,186.62,99.34,185.94z"/>
	<path class="st17" d="M101.79,188.53c0.88-0.51,1.76-1.01,2.64-1.52c0.37,1.14,0.94,2.27,1.06,3.44c0.16,1.61-0.01,3.24-0.05,4.86
		c-0.38,0.19-0.76,0.38-1.13,0.56c-0.19-1.05-0.39-2.1-0.58-3.15c-0.02-0.88-0.04-1.75-0.05-2.63
		C103.05,189.57,102.42,189.05,101.79,188.53z"/>
	<path class="st8" d="M104.32,137.48c-0.05,0.49-0.1,0.99-0.15,1.48c-0.37,0.21-0.74,0.42-1.11,0.63c-0.68-0.57-1.29-1.21-2.04-1.7
		c-1.41-0.94-2.87-1.67-3.6,0.58c-0.4,0.02-0.81,0.05-1.22,0.07c-1.23-0.01-2.46-0.01-3.68-0.02c-0.62,0.35-1.24,0.69-1.86,1.04
		c-0.37,0.23-1.11,0.55-1.07,0.68c0.76,2.08,1.57,4.15,2.51,6.18c0.13,0.29,1.07,0.31,1.63,0.45c1.06,1.22,2.12,2.43,3.18,3.65
		c0.38,2.61,0.76,5.22,1.13,7.83c-1.23-0.7-2.45-1.4-3.68-2.11c-0.62-0.69-1.24-1.39-1.86-2.08c0-0.17,0-0.35,0.02-0.52
		c2.13-1.71,1.18-4.9-1.86-6.26c-0.21-0.52-0.43-1.03-0.64-1.55c0.25-2.06-1.42-3.12-3.06-4.19c0.41-1.42-1.23-3.57,1.75-4.08
		c1.97-0.34,4.06-0.18,6.06-0.44c0.74-0.1,1.37-0.75,2.05-1.15c1.8-0.43,4.78,1.07,4.91-2.11c-0.21-1.03-0.42-2.06-0.62-3.1
		c0.44,0.33,0.87,0.65,1.31,0.98c0.02,0.54,0.04,1.07,0.06,1.61c0.28,1.2,0.55,2.4,0.83,3.61c0.26,0,0.53-0.01,0.79-0.01
		C104.18,137.11,104.25,137.29,104.32,137.48z"/>
	<path class="st6" d="M102.42,131.72c-0.44-0.33-0.87-0.65-1.31-0.98c0.37-3.45,0.74-6.91,1.1-10.36c0.01-0.42,0.02-0.84,0.03-1.26
		c-0.39-3.1-0.78-6.2-1.18-9.3c0.05-0.65,0.23-1.31,0.12-1.94c-0.4-2.32-0.89-4.63-1.34-6.94c0.46-1.19,0.93-2.37,1.39-3.56
		c0.59,1.2,1.17,2.4,1.76,3.6c0.13,3.72,0.25,7.44,0.42,11.15c0.01,0.13,0.51,0.24,0.78,0.36c-0.01,0.49-0.01,0.97-0.02,1.46
		c-0.15,0.54-0.29,1.08-0.44,1.62c0.03,1.71,0.05,3.42,0.08,5.12c0.14,0.72,0.28,1.45,0.42,2.17c0,1.56,0,3.13,0.01,4.69
		c0.22,0.52,0.44,1.04,0.67,1.56c-0.02,0.33-0.03,0.66-0.05,1l0.06,0.09c-0.17,0.16-0.35,0.33-0.52,0.49
		c-0.07,0.34-0.14,0.68-0.21,1.02c-0.13-0.02-0.26-0.03-0.4-0.03C103.34,131.7,102.88,131.71,102.42,131.72z"/>
	<path class="st9" d="M104.28,141.64c-0.57,4.65-1.34,9.29-1.64,13.95c-0.19,2.96,0.3,5.96,0.48,8.94c-0.63,0.01-1.27,0.03-1.9,0.04
		c-0.19-0.54-0.38-1.08-0.57-1.62c-0.07-0.33-0.15-0.66-0.22-0.99c-0.04-0.5-0.07-1-0.11-1.49c-0.07-3.14-0.15-6.27-0.22-9.41
		c0.57-0.53,1.51-1,1.64-1.6c0.39-1.89,0.48-3.82,0.69-5.74c0.21-0.7,0.41-1.39,0.62-2.09
		C103.45,141.64,103.86,141.64,104.28,141.64z"/>
	<path class="st13" d="M104.86,130.12c0.02-0.33,0.03-0.66,0.05-1c1.22-0.95,2.44-1.89,4.32-3.36c0.14-1.09,0.38-3.03,0.62-4.97
		c0.56,0.01,1.11,0.01,1.67,0.02c0.09,0.34,0.18,0.68,0.27,1.02c0.01,0.35,0.02,0.7,0.03,1.05c-0.08,1.55-0.16,3.11-0.23,4.66
		c-1.12,0.33-2.25,0.65-3.53,1.03c0.47,0.83,0.8,1.41,1.12,1.98C107.74,130.41,106.3,130.27,104.86,130.12z"/>
	<path class="st0" d="M104.32,137.48c-0.07-0.19-0.15-0.37-0.22-0.56c0.26-1.21,0.51-2.41,0.77-3.62c1.87,0.42,3.74,0.84,5.7,1.29
		C110.21,137.38,110.19,137.39,104.32,137.48z"/>
	<path class="st12" d="M101.21,164.57c0.63-0.01,1.27-0.03,1.9-0.04c0.14,0.88,0.28,1.76,0.43,2.64c-0.79,0.52-1.58,1.05-2.36,1.57
		C99.84,167.34,98.99,165.94,101.21,164.57z"/>
	<path class="st12" d="M109.18,130.55c-0.33-0.58-0.65-1.15-1.12-1.98c1.28-0.37,2.4-0.7,3.53-1.03c0.08,0.18,0.15,0.36,0.23,0.54
		c-0.09,1.01-0.17,2.03-0.27,3.28C110.63,131.05,109.91,130.8,109.18,130.55z"/>
	<path class="st2" d="M101.18,168.74c0.79-0.52,1.58-1.05,2.36-1.57c0.2,1.4,0.4,2.8,0.6,4.2c-0.52-0.06-1.05-0.11-1.56-0.17
		c-0.44-0.32-0.88-0.65-1.33-0.98C101.22,169.73,101.2,169.23,101.18,168.74z"/>
	<path class="st6" d="M104.87,133.31c-0.26,1.21-0.51,2.41-0.77,3.62c-0.26,0-0.53,0.01-0.79,0.01c0.07-1.2,0.15-2.39,0.22-3.59
		c0.07-0.35,0.15-0.71,0.22-1.06c0.2-0.01,0.4-0.03,0.6-0.06C104.52,132.59,104.69,132.95,104.87,133.31z"/>
	<path class="st2" d="M104.28,141.64c-0.41,0-0.83,0-1.24,0c0.01-0.68,0.02-1.36,0.03-2.05c0.37-0.21,0.74-0.42,1.11-0.63
		C104.21,139.85,104.24,140.74,104.28,141.64z"/>
	<path class="st0" d="M104.4,130.7c0.17-0.16,0.35-0.33,0.52-0.49C104.75,130.37,104.57,130.54,104.4,130.7z"/>
	<path class="st8" d="M104.35,132.23c-0.2,0.03-0.4,0.05-0.6,0.06c0.01-0.2,0.03-0.4,0.04-0.6c0.13,0,0.27,0.01,0.4,0.03
		C104.24,131.89,104.3,132.06,104.35,132.23z"/>
	<path class="st1" d="M95.71,75.64c0.4,0.79,0.8,1.58,1.2,2.36c-0.08,0.03-0.17,0.05-0.23,0.1c-0.04,0.03-0.04,0.09-0.05,0.14
		c0.09-0.08,0.18-0.16,0.28-0.24c0.79,0.06,1.58,0.13,2.38,0.19c0.63,0.65,1.26,1.3,1.9,1.95c-0.32,0.97-0.49,2-1.01,2.88
		c-0.78,1.35-1.8,2.59-2.72,3.88c-1.45,0.53-2.89,1.05-4.34,1.58c-0.2,1.39-0.4,2.79-0.6,4.18c-0.21,0.69-0.41,1.37-0.62,2.06
		c-0.35,0.4-0.7,0.8-1.18,1.35c-1.7-1.33-3.37-2.64-5.03-3.95c3.61-2.45,4.61-5.74,4.3-9.45l-0.03,0.06
		c0.09-0.03,0.25-0.07,0.25-0.1c0-0.13-0.06-0.25-0.1-0.37c0.23-0.8,0.47-1.61,0.7-2.41l0.02-0.09c0.32-0.39,0.63-0.79,0.95-1.18
		c0.37-1,0.75-2,1.14-3.06C93.96,75.56,94.83,75.6,95.71,75.64z"/>
	<path class="st9" d="M108.61,80.69c1.7,6.38,2.67,12.79,1.31,19.31c-0.23-0.71-0.47-1.42-0.7-2.13c-0.46-1.31-0.84-2.63-1.38-3.91
		c-1.58-3.7-3.29-7.38-1.16-11.35c0.07-0.12-0.07-0.32-0.14-0.63c-0.51,0.32-0.96,0.59-1.1,0.68c-1.05-0.71-2.02-1.36-2.99-2.01
		c-0.2-0.17-0.41-0.35-0.61-0.52c0-0.53,0.01-1.06,0.01-1.6C104.08,79.26,106.34,79.97,108.61,80.69z"/>
	<path class="st15" d="M95.71,75.64c-0.88-0.04-1.75-0.09-2.78-0.14c-0.39,1.06-0.77,2.06-1.14,3.06c-0.32,0.39-0.63,0.79-0.95,1.18
		l-0.02,0.09c-1.29-0.6-2.57-1.19-3.86-1.78c-0.22-0.18-0.43-0.36-0.65-0.54l0.02,0.04c-0.85-2-0.1-3.4,2.2-4.28
		c0.54-0.21,0.96-0.64,1.44-0.97c0.44,0.01,0.87,0.01,1.31,0.02C93.58,72.65,94.81,73.99,95.71,75.64z"/>
	<path class="st2" d="M101.82,78.54c0,0.53-0.01,1.06-0.01,1.6c-0.21,0-0.42,0.01-0.63,0.01c-0.63-0.65-1.26-1.3-1.9-1.95
		C100.13,78.31,100.98,78.42,101.82,78.54z"/>
	<path class="st8" d="M61.46,86.92c0.23-1.22,0.46-2.43,0.69-3.65c0.02-0.52,0.04-1.04,0.05-1.56c0.15-0.03,0.3-0.05,0.45-0.07
		c0.52,1.01,1.03,2.02,1.77,3.46c0.64-1.02,1.02-1.63,1.29-2.07c2.25,0.45,4.33,0.86,6.42,1.28c3.42,3.04,6.86,6.06,10.23,9.15
		c0.33,0.3,0.32,1.02,0.18,1.5c-1.59,5.7-1.89,11.44-1.25,17.28c0.42,3.86,0.08,7.78,0.09,11.68c-1.64-0.08-2.4,0.51-2.53,1.95
		c-0.09,0.97-0.68,1.9-1.19,3.23c0.45,0.76,1.15,1.96,1.86,3.16c-0.79,0.17-2.23,0.55-2.27,0.47c-0.67-1.39-1.54-2.83-1.6-4.28
		c-0.16-3.44,0.14-6.9,0.1-10.34c-0.01-0.67-0.77-1.34-1.19-2c0.2-1.39,0.4-2.77,0.6-4.16c0.29-0.56,0.75-1.1,0.85-1.69
		c0.28-1.68,0.67-3.4,0.54-5.07c-0.11-1.42-0.88-2.8-1.35-4.2c0-0.52-0.01-1.04-0.01-1.56c0.84-1.96-0.6-4.33,1.58-6.09
		c0.23-0.18-0.15-0.97-0.35-1.44c-1.29-3.05-7.16-5.66-11.14-4.97c-0.69,0.64-1.29,1.39-2.11,1.9c-0.62,0.39-1.51,0.47-2.27,0.69
		c0.18-0.52,0.36-1.03,0.54-1.55C61.44,87.61,61.45,87.26,61.46,86.92z"/>
	<path class="st18" d="M81.37,123.92c0-3.89,0.34-7.81-0.09-11.68c-0.64-5.85-0.33-11.58,1.25-17.28c0.13-0.47,0.14-1.2-0.18-1.5
		c-3.36-3.09-6.81-6.11-10.23-9.15c-0.78-1.07-1.56-2.13-2.34-3.2c0.17-0.16,0.34-0.33,0.5-0.49c1.42,1.05,2.85,2.1,4.27,3.16
		c1.02,0.95,1.99,1.93,3.06,2.83c1.37,1.15,2.34,2.93,4.89,2.4c0.22,0.89,0.44,1.78,0.66,2.67c0.44,0.31,0.88,0.61,1.32,0.92
		c0.06,0.18,0.13,0.36,0.19,0.53c-0.45,2.1-0.89,4.19-1.34,6.29c-0.18,1.36-0.36,2.73-0.53,4.09c-0.02,0.39-0.04,0.78-0.06,1.17
		c-0.01,1.88-0.01,3.77-0.02,5.65c-0.02,0.71-0.04,1.43-0.06,2.14c0.38,5.9,0.76,11.8,1.14,17.7c-0.19,0-0.38,0-0.58,0
		C82.61,128.09,81.99,126,81.37,123.92z"/>
	<path class="st1" d="M89.97,72.31c-0.48,0.33-0.9,0.76-1.44,0.97c-2.3,0.88-3.05,2.27-2.2,4.28c-0.76-0.48-1.52-0.97-2.78-1.76
		c-0.13,1.92-0.22,3.4-0.32,4.87c-0.41,0.01-0.81,0.01-1.22,0.02c-0.24-0.42-0.48-0.84-1.09-1.9c-0.12,1.14-0.16,1.53-0.2,1.91
		c-0.61-1.18-1.22-2.35-1.81-3.54c-0.44-0.87-0.86-1.75-1.28-2.63c0.83-0.73,1.67-1.47,2.5-2.2c0.59,0.8,1.17,1.61,1.76,2.41
		c0.2-0.09,0.41-0.17,0.61-0.26c-0.35-0.88-0.71-1.75-1.06-2.63C84.28,72,87.12,72.15,89.97,72.31z"/>
	<path class="st8" d="M82.51,89.01c-2.55,0.53-3.52-1.25-4.89-2.4c-1.07-0.9-2.04-1.89-3.06-2.83c0.01-0.63-0.09-1.28,0.05-1.88
		c0.17-0.7,0.56-1.37,0.86-2.05c0.72,0.36,1.45,0.72,2.16,1.08c1.2,0.61,2.39,1.22,3.59,1.83c0.27,0.35,0.53,0.7,0.8,1.05
		c0.25-0.11,0.51-0.22,0.76-0.33c0.01,0.87,0.02,1.73,0.03,2.6c-0.4,0.07-0.8,0.13-1.2,0.2c0.3,0.23,0.59,0.46,0.89,0.7
		C82.51,87.65,82.51,88.33,82.51,89.01z"/>
	<path class="st2" d="M82.03,83.81c-0.27-0.35-0.53-0.7-0.8-1.05c-0.17-0.69-0.34-1.38-0.5-2.07c0.04-0.39,0.08-0.77,0.2-1.91
		c0.61,1.06,0.85,1.48,1.09,1.9C82.02,81.72,82.02,82.77,82.03,83.81z"/>
	<path class="st19" d="M63.43,80.58c0.23-0.14,0.46-0.27,0.69-0.41C63.89,80.3,63.66,80.44,63.43,80.58z"/>
	<path class="st4" d="M23.16,30.65c-0.33-0.64-0.72-1.27-0.99-1.93c-0.3-0.74-0.5-1.5-0.74-2.25c-0.08-0.17-0.16-0.35-0.24-0.52
		c0.1,0.04,0.2,0.05,0.31,0.01c1.59,0.51,3.19,1.02,4.78,1.53c0,0,0,0.01,0,0c-0.41,0.53-0.83,1.06-1.24,1.59
		C24.41,29.6,23.79,30.12,23.16,30.65z"/>
	<path class="st8" d="M23.16,30.65c0.63-0.52,1.26-1.04,1.88-1.56c0.2,1.21,0.39,2.43,0.59,3.64c-0.8-0.36-1.59-0.71-2.39-1.07
		C23.22,31.31,23.19,30.98,23.16,30.65z"/>
	<path class="st8" d="M38.03,30.63c-0.41,0.18-0.83,0.35-1.24,0.53C37.21,30.99,37.62,30.81,38.03,30.63z"/>
	<path class="st0" d="M81.44,71.84c0.35,0.88,0.71,1.75,1.06,2.63c-0.2,0.09-0.41,0.17-0.61,0.26c-0.59-0.8-1.17-1.61-1.76-2.41
		C80.57,72.16,81,72,81.44,71.84z"/>
	<path class="st5" d="M26.28,27.49c-1.59-0.51-3.19-1.02-4.78-1.53c2.17-0.36,4.35-0.73,6.52-1.09c0.51,0.23,1.01,0.46,1.57,0.72
		C28.38,26.28,27.33,26.88,26.28,27.49z"/>
	<path class="st5" d="M26.9,22.82c-0.25-0.56-0.51-1.12-0.76-1.68c0.68-0.05,1.35-0.11,2.03-0.16c0.4-0.04,0.8-0.07,1.2-0.11
		c0.2,0.3,0.4,0.6,0.6,0.9c0,0.34,0.01,0.69,0.01,1.03l-0.03,0.03C28.93,22.83,27.92,22.83,26.9,22.82z"/>
	<path class="st5" d="M25.68,23.8c0.4-0.32,0.81-0.65,1.21-0.97c0,0.32,0,0.64,0,0.96C26.49,23.79,26.09,23.79,25.68,23.8z"/>
	<path class="st20" d="M29.98,22.81c0-0.34-0.01-0.69-0.01-1.03c0.63-0.32,1.25-0.64,1.88-0.96c0.62-0.06,1.23-0.12,1.85-0.18
		c0.82,0,1.65,0.01,2.47,0.01c0.2,0.06,0.41,0.12,0.61,0.19c-0.2,0.66-0.4,1.32-0.6,1.98C34.11,22.81,32.05,22.81,29.98,22.81z"/>
	<path class="st21" d="M36.78,20.83c-0.2-0.06-0.41-0.12-0.61-0.19c0.82-1.37,1.64-1.37,2.48-0.01
		C38.03,20.7,37.4,20.76,36.78,20.83z"/>
	<path class="st1" d="M111.52,120.82c-0.56-0.01-1.11-0.01-1.67-0.02c-2.78-2.76-2.86-6.14-3.07-9.5
		c-0.22-3.54-0.46-7.08-0.77-10.62c-0.02-0.27-0.72-0.5-1.1-0.74c-0.01-0.86-0.02-1.73-0.04-2.59c3.29,0.56,2.33,2.91,2.83,4.67
		c0.4,1.41,1.02,2.78,1.53,4.17c0.2,1.23,0.32,2.48,0.64,3.68c0.19,0.73,0.71,1.4,1.07,2.09c0.07,0.51,0.13,1.02,0.2,1.54
		c0,0.69,0,1.39,0.01,2.08c0.22,1.04,0.44,2.09,0.66,3.13c0,0.35,0,0.69,0,1.04C111.72,120.1,111.62,120.46,111.52,120.82z"/>
	<path class="st12" d="M109.24,106.19c-0.52-1.39-1.13-2.76-1.53-4.17c-0.5-1.77,0.46-4.11-2.83-4.67
		c-0.62-1.71-1.24-3.42-1.86-5.14c0.19-0.71,0.37-1.42,0.56-2.13c0.34,0.02,0.68,0.04,1.02,0.07c0.1,0.79,0.01,1.64,0.34,2.35
		c0.95,2.04,1.32,4.45,4.27,5.38c0.23,0.71,0.47,1.42,0.7,2.13c-0.01,0.3-0.01,0.61-0.02,0.91
		C109.68,102.67,109.46,104.43,109.24,106.19z"/>
	<path class="st2" d="M109.24,106.19c0.22-1.76,0.44-3.52,0.66-5.28c2.42,2.4,1.73,5.16,1.28,7.9c0.01,0.69,0.01,1.39,0.02,2.08
		c-0.08,0.36-0.16,0.72-0.24,1.07c-0.37-0.69-0.88-1.36-1.08-2.09C109.56,108.66,109.45,107.42,109.24,106.19z"/>
	<path class="st5" d="M69.52,205.29c0.03-0.37,0.06-0.74,0.1-1.1c2.24-0.21,4.49-0.42,6.73-0.63c1.69-1.18,3.38-2.36,5.07-3.54
		c0.19-0.36,0.38-0.72,0.57-1.08c1.03-0.01,2.05-0.03,3.08-0.04c0.85,0.39,1.7,0.78,2.54,1.16c-0.94,0.31-1.88,0.63-2.83,0.94
		c-0.95,1.56-1.9,3.12-2.86,4.69c-1.01,0.04-2.01,0.08-3.02,0.12C75.78,205.65,72.65,205.47,69.52,205.29z"/>
	<path class="st0" d="M84.78,201.02c0.94-0.31,1.88-0.63,2.83-0.94c0.61-0.23,1.23-0.46,1.84-0.7c0.62-0.64,1.23-1.28,1.85-1.92
		l0.28-0.07l0.29,0.02c0.97,1.39,2.18,2.4,4.31,2.09c-0.39,0.54-0.79,1.08-1.18,1.62c-2.05,0.34-4.1,0.67-6.15,1.01
		C87.5,201.76,86.14,201.39,84.78,201.02z"/>
	<path class="st4" d="M88.86,202.13c2.05-0.34,4.1-0.67,6.15-1.01c-1.03,1.17-2.06,2.33-3.08,3.5c-1.4-0.12-2.81-0.24-4.74-0.41
		C88.01,203.18,88.44,202.66,88.86,202.13z"/>
	<path class="st20" d="M74.47,176.04c-0.34-1.92-0.69-3.83-1.03-5.75c0.77-0.52,1.55-1.05,2.32-1.57c0.03,0.19,0.05,0.38,0.08,0.57
		c0.18,2.79,0.36,5.57,0.54,8.36c1.45,2.07,2.9,4.15,4.36,6.22c1.45,1.04,2.91,2.07,4.36,3.11l0,0c0.22,0.35,0.43,0.7,0.65,1.05
		c0.44,0.28,0.88,0.56,1.39,0.89c0.4-1.47,0.74-2.75,1.09-4.03c0.45,1.02,0.9,2.05,1.36,3.07c-0.28,1.24-0.55,2.47-0.83,3.71
		c-1.44,0.69-2.88,1.37-4.32,2.06c0.03-0.35,0.06-0.7,0.09-1.05c0.3-0.65,1.07-1.65,0.82-1.89c-3.06-2.89-6.27-5.67-9.45-8.48
		c-0.27-1.05-0.54-2.09-0.81-3.14c0-0.35,0-0.7,0-1.04C74.88,177.43,74.68,176.73,74.47,176.04z"/>
	<path class="st18" d="M75.9,182.31c3.17,2.81,6.38,5.59,9.45,8.48c0.25,0.24-0.52,1.24-0.82,1.89c-1.39-1.15-2.66-1.33-4.14,0.02
		c-0.63,0.58-1.78,0.75-2.69,1.11c-0.26-0.02-0.51-0.04-0.77-0.06C76.58,189.93,76.24,186.12,75.9,182.31z"/>
	<path class="st20" d="M76.93,193.74c0.26,0.02,0.51,0.04,0.77,0.06c0.56,1.41,1.11,2.83,1.71,4.35c0.73,0.23,1.65,0.52,2.58,0.81
		c-0.19,0.36-0.38,0.72-0.57,1.08c-1.94-0.34-3.88-0.68-5.82-1.01C76.04,197.25,76.48,195.5,76.93,193.74z"/>
	<path class="st22" d="M75.6,199.01c1.94,0.34,3.88,0.68,5.82,1.01c-1.69,1.18-3.38,2.36-5.07,3.54c-0.31-1.38-0.61-2.75-0.92-4.13
		C75.4,199.27,75.46,199.13,75.6,199.01z"/>
	<path class="st9" d="M29.51,103.64c-0.24-0.17-0.48-0.35-0.72-0.52C29.03,103.29,29.27,103.47,29.51,103.64z"/>
	<path class="st21" d="M33.7,20.63c-0.62,0.06-1.23,0.12-1.85,0.18c-0.41-0.05-0.82-0.11-1.23-0.16c0.59-1.54,1.62-3.08-0.04-4.61
		c1.04-0.49,2.09-0.98,3.31-1.55c1.15,1.23,4.34,2.05,0.45,3.84C33.8,18.59,33.9,19.85,33.7,20.63z"/>
	<path class="st7" d="M30.62,20.66c0.41,0.05,0.82,0.11,1.23,0.16c-0.63,0.32-1.25,0.64-1.88,0.96c-0.2-0.3-0.4-0.6-0.6-0.9
		C29.78,20.8,30.2,20.73,30.62,20.66z"/>
	<path class="st6" d="M88.75,191.66c0.28-1.24,0.55-2.47,0.83-3.71c0.45,0.3,0.89,0.6,1.57,1.05c0.44-2.56,0.84-4.92,1.25-7.28
		c1.17,0.4,2.33,0.8,3.7,1.26c-0.12,0.49-0.29,1.21-0.47,1.93c-0.03,0.67-0.05,1.35-0.08,2.02c-3.09,2.08-2.55,4.44,1.32,5.75
		c0.21,0.36,0.42,0.71,0.62,1.07c-2.92,1.36-3,1.88-0.64,4.17c0.4,0.32,0.79,0.63,1.19,0.95c-0.36,0.2-0.72,0.4-1.08,0.59
		c-0.25,0.01-0.51,0.03-0.76,0.04c-2.13,0.31-3.34-0.71-4.31-2.09C91.68,195.17,91.65,192.86,88.75,191.66z"/>
	<path class="st5" d="M95.63,184.92c0.17-0.72,0.35-1.44,0.47-1.93c-1.37-0.47-2.54-0.86-3.7-1.26c-0.13-1.55-0.27-3.1-0.4-4.66
		c0.5-0.38,1.34-0.71,1.43-1.15c0.4-1.96,1.4-3.05,4-3.21c0.7-0.04,1.27-1.56,1.9-2.4c0.43-0.02,0.87-0.03,1.3-0.05
		c0.21-0.01,0.42-0.02,0.62-0.04c0.44,0.33,0.89,0.65,1.33,0.98c-0.19,0.68-0.54,1.35-0.53,2.03c0.01,1.95,0.16,3.91,0.25,5.86
		c-0.76,0.39-1.52,0.79-2.28,1.18c-0.48-2.06-0.96-4.13-1.44-6.19c-0.31-0.05-0.62-0.11-0.94-0.16c-1.28,1.69-2.73,3.32-3.7,5.13
		c-0.22,0.4,1.59,2.18,1.91,2.08c2.35-0.76,2.08,0.62,2.25,1.7C97.27,183.52,96.45,184.22,95.63,184.92z"/>
	<path class="st7" d="M95.63,184.92c0.82-0.7,1.64-1.4,2.47-2.1c0.21,0,0.41,0,0.62,0c0.2,0.69,0.41,1.38,0.61,2.08
		c0.01,0.35,0.01,0.7,0.02,1.04c-0.4,0.69-0.8,1.37-1.2,2.06c0.39,0.36,0.78,0.72,1.17,1.08l0,0c0.42,0.52,0.85,1.04,1.27,1.57
		c0.11,2.81-1.72,2.26-3.67,1.51c-0.45-1.74-0.9-3.48-1.36-5.22C95.57,186.26,95.6,185.59,95.63,184.92z"/>
	<path class="st22" d="M99.32,184.89c-0.2-0.69-0.41-1.38-0.61-2.08c0.43-0.85,0.87-1.7,1.3-2.55c0.76-0.39,1.52-0.79,2.28-1.18
		C101.3,181.02,100.31,182.96,99.32,184.89z"/>
	<path class="st20" d="M96.9,192.15c1.95,0.75,3.79,1.31,3.67-1.51c0.4-0.37,0.8-0.73,1.2-1.1c0.63,0.18,1.27,0.36,1.9,0.54
		c0.02,0.88,0.04,1.75,0.05,2.63c-1.26,1.61-3.59,3.03-1.26,5.24c-1.48,0.3-2.96,0.61-4.43,0.91c-0.4-0.32-0.79-0.63-1.19-0.95
		c1.24-1.28,4.17-2.38,0.64-4.17c-0.21-0.36-0.42-0.71-0.62-1.07C96.88,192.51,96.89,192.33,96.9,192.15z"/>
	<path class="st22" d="M102.47,197.96c-2.33-2.22,0-3.64,1.26-5.24c0.19,1.05,0.39,2.1,0.58,3.15c0.04,0.59,0.09,1.18,0.14,1.92
		C103.82,197.84,103.15,197.9,102.47,197.96z"/>
	<path class="st17" d="M101.77,189.55c-0.4,0.37-0.8,0.73-1.2,1.1c-0.42-0.52-0.84-1.04-1.27-1.57c0.81-0.02,1.61-0.04,2.42-0.06
		C101.74,189.2,101.76,189.37,101.77,189.55z"/>
	<path class="st22" d="M101.77,189.55c-0.02-0.18-0.03-0.35-0.05-0.53c0.03-0.16,0.06-0.33,0.06-0.49c0.63,0.52,1.26,1.04,1.89,1.56
		C103.04,189.91,102.41,189.73,101.77,189.55z"/>
	<path class="st17" d="M99.31,189.08c-0.39-0.36-0.78-0.72-1.17-1.08C98.53,188.36,98.92,188.72,99.31,189.08z"/>
	<path class="st6" d="M67.04,114.02c0.21-1.39,0.41-2.78,0.62-4.18c0-0.17,0-0.35,0-0.52c0.06-0.35,0.13-0.69,0.19-1.04
		c0.38,0.66,0.67,1.38,1.16,1.97c0.51,0.62,1.21,1.12,1.83,1.67c0.2,0.52,0.41,1.04,0.61,1.57c-0.21,1.39-0.41,2.78-0.62,4.16
		c-0.14,0.96,0.13,2.44-0.49,2.79c-2.36,1.31-1.14,3.05-1.19,4.62c-0.03,0.83,0.29,1.67,0.44,2.5c0.66,1.3-1.02,4.24,3.09,3.13l0,0
		c-0.02,1.75,0.75,2.83,3.09,2.61c0.84,0.49,1.85,1.5,2.49,1.36c1.34-0.3,2.49-1.2,3.72-1.86c0.41-0.88,0.82-1.75,1.23-2.63
		c0.19,0,0.38,0,0.58,0c1.46,1.38,2.92,2.77,4.38,4.15c2.07,0.5,4.14,0.99,6.22,1.49c0.81,0.05,1.62,0.09,2.42,0.14
		c-0.68,0.4-1.31,1.06-2.05,1.15c-2,0.26-4.09,0.1-6.06,0.44c-2.98,0.51-1.34,2.65-1.75,4.08c1.14,1.34-0.68,4.2,3.06,4.19
		c0.21,0.52,0.43,1.03,0.64,1.55c0.42,0.98,0.84,1.96,1.25,2.92c-1.8-0.11-3.66-0.21-5.53-0.32c-0.05-0.85-0.11-1.7-0.16-2.55
		c0.01-0.52,0.03-1.03,0.04-1.55c-0.81-2.45-1.61-4.9-2.42-7.35c-4.99-0.54-6.04,2.99-7.92,5.56c-0.84-0.26-1.54-0.47-2.29-0.7
		c0.31,3.17,0.6,6.14,0.87,8.89c-1.02-1.1-2.05-2.2-3.08-3.31c-0.42-1.39-0.84-2.79-1.26-4.18c-0.36-1.22-0.72-2.45-1.08-3.67
		c0.39-3.95-2.9-7.13-3.27-10.92c0.2-0.69,0.4-1.39,0.6-2.08c0-2.09,0.01-4.17,0.01-6.26c0-1.22,0-2.43,0.01-3.65
		c0-0.52,0-1.04,0-1.56c0.04-0.67,0.08-1.33,0.13-2C66.71,114.42,66.88,114.22,67.04,114.02z M76.8,140.47
		c-0.17-0.06-0.37-0.2-0.49-0.16c-0.12,0.04-0.16,0.26-0.23,0.4c0.17,0.06,0.37,0.2,0.49,0.16
		C76.69,140.83,76.73,140.61,76.8,140.47z"/>
	<path class="st17" d="M94.4,135.82c-2.07-0.5-4.14-0.99-6.22-1.49c-0.49-1.1-0.97-2.2-1.46-3.31c2.78-0.08,3.18-0.61,2.07-2.67
		c-1.55-2.86-2.73-5.73,0-8.6c0.23,0.56,0.7,1.14,0.63,1.68c-0.21,1.66,0.18,2.85,2.47,3.01c0.22,2-0.85,4.29,1.83,5.74h0.02
		c0.2,0.21,0.41,0.42,0.61,0.63c0.96-0.1,1.92-0.2,2.89-0.3c0.03-0.21,0.06-0.41,0.09-0.62c-1.4-0.78-2.8-1.56-4.21-2.33
		c0.18-3.04,0.37-6.07,0.56-9.28c3.15,0.77,5.84,1.43,8.52,2.09c-0.37,3.45-0.74,6.91-1.1,10.36c0.21,1.03,0.42,2.06,0.62,3.1
		C97.12,132.72,96.04,133.01,94.4,135.82z"/>
	<path class="st1" d="M103.06,139.59c-0.01,0.68-0.02,1.36-0.03,2.05c-0.21,0.7-0.41,1.39-0.62,2.09c-0.66,0.56-1.7,1.04-1.9,1.7
		c-0.43,1.49-0.45,3.06-0.63,4.6c-0.39-0.02-0.77-0.04-1.16-0.06c-0.02-1.21-0.03-2.41-0.05-3.62c-0.42-2.63-0.84-5.25-1.26-7.88
		c0.73-2.25,2.19-1.52,3.6-0.58C101.77,138.38,102.39,139.02,103.06,139.59z"/>
	<path class="st6" d="M92.53,153.63c-0.01,0.17-0.02,0.35-0.02,0.52c0.41,0.7,0.83,1.39,1.24,2.09c1.11,2.59,0.03,4.29-2.99,5.21
		c-0.22-0.73-0.39-1.47-0.68-2.18c-0.63-1.54-1.31-3.07-1.97-4.6c-0.33-0.16-0.66-0.31-0.99-0.47c-0.09-0.52-0.17-1.03-0.26-1.55
		C88.87,152.52,91.1,151.42,92.53,153.63z"/>
	<path class="st16" d="M98.68,146.35c0.02,1.21,0.03,2.41,0.05,3.62c-0.42,0-0.84,0.01-1.25,0.01c-0.54-1.32-0.94-2.7-1.67-3.94
		c-0.34-0.57-1.34-0.86-2.04-1.28c-0.01-0.34-0.02-0.69-0.02-1.03c-0.03-0.64,0.06-1.31-0.1-1.92c-0.29-1.11-0.73-2.19-1.11-3.28
		c1.23,0.01,2.46,0.01,3.69,0.01c0.04,1.89-0.16,3.8,0.21,5.64C96.58,144.98,97.89,145.63,98.68,146.35z"/>
	<path class="st18" d="M90.77,161.44c3.01-0.92,4.09-2.62,2.99-5.21c0.21,0,0.41,0,0.62,0c1.23,0.7,2.45,1.4,3.68,2.11
		c0,0.34,0,0.67,0.01,1.01c-4.7,1.86-4.84,2.03-3.67,4.7c-0.02,0.7-0.03,1.4-0.05,2.09c-0.6-0.54-1.25-1.06-1.8-1.64
		c-0.43-0.46-0.75-0.99-1.12-1.49c-0.07-0.18-0.14-0.35-0.21-0.53C91.06,162.14,90.91,161.79,90.77,161.44z"/>
	<path class="st5" d="M92.53,153.63c-1.43-2.21-3.66-1.11-5.66-0.99l0.05-0.03c-0.19-0.17-0.37-0.35-0.56-0.52
		c0.01-0.71,0.02-1.42,0.02-2.12c1.87,0.11,3.73,0.22,5.53,0.32c-0.41-0.96-0.83-1.94-1.25-2.92
		C93.71,148.73,94.66,151.91,92.53,153.63z"/>
	<path class="st22" d="M98.06,159.35c0-0.34,0-0.67-0.01-1.01c-0.38-2.61-0.76-5.22-1.13-7.83c0.19-0.18,0.37-0.35,0.56-0.53
		c0.42,0,0.84,0,1.25-0.01c0.39,0.02,0.78,0.04,1.16,0.06c0.07,0.34,0.13,0.69,0.2,1.03c0.07,3.14,0.15,6.27,0.22,9.41
		C99.56,160.09,98.81,159.72,98.06,159.35z"/>
	<path class="st13" d="M98.68,146.35c-0.79-0.72-2.1-1.36-2.26-2.17c-0.37-1.84-0.18-3.76-0.21-5.64c0.41-0.02,0.81-0.04,1.22-0.07
		C97.84,141.09,98.26,143.72,98.68,146.35z"/>
	<path class="st1" d="M94.4,135.82c1.64-2.81,2.72-3.1,7.34-1.98c-0.14,3.18-3.11,1.68-4.91,2.11
		C96.02,135.91,95.21,135.86,94.4,135.82z"/>
	<path class="st20" d="M93.74,143.73c0.01,0.34,0.02,0.69,0.02,1.03c-0.01,0.7-0.02,1.4-0.02,2.1c-0.56-0.14-1.5-0.16-1.63-0.45
		c-0.95-2.02-1.75-4.1-2.51-6.18c-0.04-0.12,0.69-0.45,1.07-0.68c0.44,0.69,0.85,1.41,1.34,2.08
		C92.54,142.35,93.16,143.03,93.74,143.73z"/>
	<path class="st7" d="M93.74,146.86c0.01-0.7,0.02-1.4,0.02-2.1c0.7,0.42,1.7,0.71,2.04,1.28c0.74,1.24,1.14,2.62,1.67,3.94
		c-0.19,0.18-0.37,0.35-0.56,0.53C95.86,149.29,94.8,148.07,93.74,146.86z"/>
	<path class="st7" d="M93.74,143.73c-0.58-0.7-1.2-1.37-1.74-2.09c-0.49-0.67-0.9-1.38-1.34-2.08c0.62-0.35,1.24-0.69,1.86-1.04
		c0.38,1.09,0.82,2.17,1.11,3.28C93.8,142.42,93.71,143.08,93.74,143.73z"/>
	<path class="st5" d="M90.03,145.82c-3.74,0.01-1.92-2.85-3.06-4.19C88.61,142.7,90.28,143.76,90.03,145.82z"/>
	<path class="st9" d="M103.53,133.35c-0.07,1.2-0.15,2.39-0.22,3.59c-0.28-1.2-0.55-2.4-0.83-3.61
		C102.83,133.33,103.18,133.34,103.53,133.35z"/>
	<path class="st5" d="M94.37,156.23c-0.21,0-0.41,0-0.62,0c-0.41-0.7-0.83-1.39-1.24-2.09C93.13,154.84,93.75,155.54,94.37,156.23z"
		/>
	<path class="st1" d="M103.53,133.35c-0.35-0.01-0.7-0.01-1.05-0.02c-0.02-0.54-0.04-1.07-0.06-1.61c0.46-0.01,0.92-0.02,1.37-0.03
		c-0.01,0.2-0.03,0.4-0.04,0.6C103.68,132.64,103.6,132.99,103.53,133.35z"/>
	<path class="st1" d="M99.85,100.95c0.46,2.31,0.95,4.62,1.34,6.94c0.11,0.63-0.07,1.29-0.12,1.94c-0.84-0.62-1.68-1.24-2.68-1.98
		c-1.6,3.2-3.12,6.25-4.64,9.3c-0.42,0.16-0.85,0.33-1.27,0.49c0.22-1.14,0.66-2.29,0.61-3.42c-0.18-4.01-0.41-8.02-0.88-12.01
		c-0.2-1.69,0-2.86,2.16-3.31c1.07,0.14,2.14,0.28,3.19,0.42c0.39-0.65,0.71-1.19,1.25-2.09C99.24,98.76,99.54,99.85,99.85,100.95z"
		/>
	<path class="st17" d="M104.92,99.94c0.38,0.25,1.07,0.47,1.1,0.74c0.31,3.54,0.55,7.08,0.77,10.62c0.21,3.36,0.29,6.73,3.07,9.5
		c-0.24,1.94-0.49,3.89-0.62,4.97c-1.88,1.46-3.1,2.41-4.32,3.36c-0.22-0.52-0.44-1.04-0.67-1.56c1.12-1.61,2.25-3.22,3.44-4.92
		c-3.23-2.48-1.83-5.84-2.2-8.93c-0.12-0.97-0.75-1.9-1.15-2.85c0.17-2.59,0.35-5.18,0.52-7.77
		C104.87,102.04,104.89,100.99,104.92,99.94z"/>
	<path class="st13" d="M93.75,117.15c1.52-3.05,3.04-6.1,4.64-9.3c1,0.74,1.84,1.36,2.68,1.98c0.39,3.1,0.78,6.2,1.18,9.3
		C99.42,118.47,96.58,117.81,93.75,117.15z"/>
	<path class="st12" d="M99.85,100.95c-0.3-1.09-0.61-2.19-1.03-3.72c-0.54,0.9-0.86,1.44-1.25,2.09c-1.05-0.14-2.12-0.28-3.19-0.42
		c-0.83-1.39-1.65-2.79-2.48-4.18c0.21-0.69,0.41-1.37,0.62-2.06c1.24,0,2.48,0,3.72-0.01l-0.02-0.01c0.25,0.73,0.51,1.46,0.7,2.02
		c0.91-0.18,1.66-0.32,2.4-0.46c0.02,1.03-0.23,2.23,1.76,2.08c0.05,0.37,0.11,0.74,0.16,1.11
		C100.77,98.58,100.31,99.76,99.85,100.95z"/>
	<path class="st22" d="M104.33,110.87c0.4,0.95,1.03,1.88,1.14,2.85c0.37,3.08-1.03,6.45,2.2,8.93c-1.19,1.7-2.31,3.31-3.44,4.92
		c0-1.56,0-3.13-0.01-4.69c-0.14-0.72-0.28-1.45-0.42-2.17c-0.03-1.71-0.05-3.42-0.08-5.12c0.14-0.54,0.29-1.08,0.44-1.62
		c0.01-0.49,0.01-0.97,0.02-1.46C104.24,111.96,104.28,111.41,104.33,110.87z"/>
	<path class="st4" d="M93.75,117.15c2.83,0.66,5.66,1.32,8.5,1.98c-0.01,0.42-0.02,0.84-0.03,1.26c-2.68-0.66-5.37-1.32-8.52-2.09
		c-0.19,3.21-0.38,6.24-0.56,9.28c0.2,0.87,0.4,1.74,0.6,2.61c-2.68-1.44-1.62-3.74-1.83-5.74c0.19-2.27,0.39-4.54,0.58-6.8
		C92.9,117.47,93.33,117.31,93.75,117.15z"/>
	<path class="st7" d="M101.24,97.39c-0.05-0.37-0.11-0.74-0.16-1.11c0.65-1.36,1.29-2.71,1.94-4.07c0.62,1.71,1.24,3.42,1.86,5.14
		c0.01,0.86,0.02,1.73,0.04,2.59c-0.02,1.05-0.04,2.11-0.06,3.16c-0.62-0.7-1.24-1.41-1.86-2.11
		C102.41,99.79,101.82,98.59,101.24,97.39z"/>
	<path class="st8" d="M103,100.99c0.62,0.7,1.24,1.41,1.86,2.11c-0.18,2.59-0.35,5.18-0.53,7.77c-0.04,0.54-0.09,1.09-0.13,1.63
		c-0.27-0.12-0.77-0.23-0.78-0.36C103.25,108.42,103.12,104.71,103,100.99z"/>
	<path class="st8" d="M103.82,120.71c0.14,0.72,0.28,1.45,0.42,2.17C104.1,122.15,103.96,121.43,103.82,120.71z"/>
	<path class="st8" d="M104.17,113.96c-0.15,0.54-0.29,1.08-0.44,1.62C103.88,115.04,104.03,114.5,104.17,113.96z"/>
	<path class="st8" d="M98.06,159.35c0.75,0.37,1.5,0.74,2.25,1.12c0.04,0.5,0.07,1,0.11,1.49c-1.97-0.08-1.71,1.1-1.7,2.14
		c-0.18,0.04-0.36,0.07-0.55,0.07c-1.26-0.04-2.52-0.08-3.79-0.12C93.22,161.38,93.36,161.2,98.06,159.35z"/>
	<path class="st17" d="M98.17,164.17c0.19-0.01,0.37-0.03,0.55-0.08c0.64-0.38,1.28-0.76,1.92-1.15c0.19,0.54,0.38,1.08,0.57,1.62
		c-2.23,1.38-1.38,2.77-0.04,4.17c0.02,0.49,0.05,0.99,0.07,1.48c-0.21,0.01-0.42,0.02-0.62,0.04c-0.62-0.66-1.09-1.55-1.89-1.95
		C96.25,167.07,96.75,165.7,98.17,164.17z"/>
	<path class="st2" d="M100.09,151.05c-0.07-0.34-0.13-0.69-0.2-1.03c0.18-1.54,0.2-3.11,0.63-4.6c0.19-0.66,1.24-1.14,1.9-1.7
		c-0.21,1.92-0.3,3.85-0.69,5.74C101.61,150.05,100.66,150.53,100.09,151.05z"/>
	<path class="st20" d="M100.64,162.94c-0.64,0.38-1.28,0.76-1.92,1.15c-0.01-1.04-0.27-2.22,1.7-2.14
		C100.49,162.29,100.57,162.62,100.64,162.94z"/>
	<path class="st13" d="M92.48,117.64c-0.19,2.27-0.39,4.54-0.58,6.8c-2.28-0.16-2.68-1.35-2.47-3.01c0.07-0.54-0.41-1.12-0.63-1.68
		c0-0.17,0-0.35,0-0.52c1.29-3.12,2.29-6.22-1.24-8.86c0-0.17,0-0.35,0-0.52c4.05,0.33,5.19-0.8,3.47-3.26
		c-1.25-1.79-1.52-3.71-2.6-5.46c-1.19-1.92-2.73-2.53-5.08-1.71c0.45-2.1,0.89-4.19,1.33-6.29c0.34-0.34,0.68-0.68,1.02-1.01
		l-0.01,0.01c1.67,1.31,3.33,2.61,5.03,3.95c0.48-0.55,0.83-0.95,1.18-1.35c0.83,1.39,1.65,2.79,2.48,4.18
		c-2.16,0.44-2.36,1.61-2.16,3.31c0.47,3.99,0.7,8,0.88,12.01C93.15,115.35,92.7,116.5,92.48,117.64z"/>
	<path class="st11" d="M82.51,89.01c0-0.68,0-1.36-0.01-2.04c0.1-0.3,0.21-0.6,0.31-0.89c-0.01-0.87-0.02-1.73-0.03-2.6
		c0.15-0.94,0.29-1.88,0.44-2.81c0.1-1.48,0.19-2.95,0.32-4.87c1.26,0.8,2.02,1.28,2.78,1.76l-0.02-0.04
		c0.22,0.18,0.43,0.36,0.65,0.54c1.29,0.59,2.57,1.19,3.86,1.78c-0.23,0.81-0.47,1.61-0.7,2.42c-0.11,0.14-0.17,0.3-0.15,0.47
		l0.03-0.06c-0.49,0.35-1.2,0.61-1.44,1.06c-1.42,2.61-2.72,5.27-4.07,7.91c-0.44,0.01-0.87,0.03-1.31,0.04
		C82.95,90.79,82.73,89.9,82.51,89.01z"/>
	<path class="st12" d="M93.12,88.48c1.45-0.53,2.89-1.05,4.34-1.58l0.02,0.01c0.63,2.06,1.25,4.12,1.88,6.17
		c-0.69-0.42-1.38-0.83-2.08-1.26c-0.34,0.27-0.7,0.54-1.05,0.81l0.02,0.01c-0.6-0.69-1.24-1.36-1.78-2.08
		C93.96,89.91,93.56,89.18,93.12,88.48z"/>
	<path class="st16" d="M84.48,91.64c1.34-2.64,2.65-5.3,4.07-7.91c0.24-0.44,0.95-0.71,1.44-1.06c0.31,3.71-0.69,7-4.3,9.45
		l0.01-0.01c-0.41,0-0.82,0-1.24,0C84.48,91.96,84.49,91.8,84.48,91.64z"/>
	<path class="st12" d="M101.18,80.14c0.21,0,0.42-0.01,0.63-0.01c0.2,0.17,0.41,0.35,0.61,0.52c-0.09,3.33-2,5.74-4.96,6.26
		l-0.02-0.01c0.92-1.29,1.94-2.53,2.72-3.88C100.69,82.14,100.86,81.11,101.18,80.14z"/>
	<path class="st16" d="M93.12,88.48c0.44,0.7,0.84,1.42,1.34,2.09c0.54,0.72,1.18,1.39,1.78,2.08c-1.24,0-2.48,0-3.72,0.01
		C92.72,91.27,92.92,89.88,93.12,88.48z"/>
	<path class="st11" d="M90.84,79.75c0.32-0.39,0.63-0.79,0.95-1.18C91.47,78.97,91.16,79.36,90.84,79.75z"/>
	<path class="st16" d="M89.96,82.73c-0.01-0.17,0.04-0.33,0.15-0.47c0.04,0.12,0.09,0.25,0.1,0.37
		C90.22,82.66,90.05,82.7,89.96,82.73z"/>
	<path class="st2" d="M96.91,78c-0.09,0.08-0.18,0.16-0.28,0.24c0.02-0.05,0.01-0.12,0.05-0.14C96.75,78.06,96.84,78.04,96.91,78
		C96.91,78.01,96.91,78,96.91,78z"/>
	<path class="st2" d="M97.47,86.92c2.96-0.52,4.87-2.93,4.96-6.26c0.97,0.65,1.94,1.3,2.99,2.01c0.15-0.09,0.59-0.37,1.1-0.68
		c0.08,0.31,0.21,0.51,0.14,0.63c-2.13,3.97-0.42,7.64,1.16,11.35c0.55,1.28,0.93,2.61,1.38,3.91c-2.96-0.92-3.33-3.34-4.27-5.38
		c-0.33-0.71-0.24-1.56-0.34-2.35c-0.34-0.02-0.68-0.04-1.02-0.07c-0.19,0.71-0.37,1.42-0.56,2.13c-0.65,1.36-1.29,2.71-1.94,4.07
		c-1.99,0.15-1.74-1.05-1.76-2.08c0.4-0.04,0.8-0.09,1.2-0.13c-0.39-0.33-0.78-0.65-1.17-0.98C98.72,91.03,98.1,88.98,97.47,86.92z"
		/>
	<path class="st1" d="M86.96,78.06c-0.22-0.18-0.43-0.36-0.65-0.54C86.53,77.7,86.75,77.88,86.96,78.06z"/>
	<path class="st5" d="M69.61,127.57c-0.16-0.83-0.47-1.67-0.44-2.5c0.05-1.56-1.16-3.31,1.19-4.62c0.62-0.35,0.35-1.83,0.49-2.79
		c1.24-0.52,2.47-1.04,3.71-1.55c0.41,0.67,1.18,1.33,1.19,2c0.05,3.45-0.26,6.9-0.1,10.34c0.07,1.45,0.94,2.89,1.6,4.28
		c0.04,0.09,1.48-0.3,2.27-0.47c0.83,0.18,1.66,0.36,2.49,0.54c-1.23,0.66-2.38,1.56-3.72,1.86c-0.65,0.14-1.65-0.87-2.49-1.36
		c0.3-1.98-0.74-2.84-3.09-2.61l0,0C71.67,129.65,70.64,128.61,69.61,127.57z"/>
	<path class="st18" d="M75.18,99.42c0,0.52,0.01,1.04,0.01,1.56c-1.36,0.6-3.45,0.58-3.11,2.61c-1.22-1.11-2.43-2.23-3.77-3.45
		c0.89-0.67,1.73-1.32,2.55-1.94c-1.03-2.68-4.55-4.46-3.12-7.64c1.57-0.75,2.56-0.76,4.03,0.65c1.86,1.78,1.44,3.6,1.54,5.5
		C73.38,97.9,73.07,99.24,75.18,99.42z"/>
	<path class="st5" d="M75.18,99.42c-2.11-0.18-1.8-1.53-1.87-2.72c-0.1-1.9,0.32-3.73-1.54-5.5c-1.47-1.4-2.46-1.39-4.03-0.64
		c-0.61-0.69-1.23-1.38-1.84-2.07c-0.21-0.18-0.43-0.36-0.64-0.54c0-0.34,0-0.68,0-1.03c3.98-0.69,9.85,1.91,11.14,4.97
		c0.2,0.47,0.58,1.26,0.35,1.44C74.58,95.09,76.03,97.47,75.18,99.42z"/>
	<path class="st5" d="M72.08,103.6c-0.34-2.03,1.75-2.01,3.11-2.61c0.48,1.4,1.25,2.78,1.35,4.2c0.13,1.68-0.26,3.39-0.54,5.07
		c-0.1,0.58-0.56,1.13-0.85,1.69c-1.23,0.52-2.46,1.03-3.69,1.55c-0.2-0.52-0.41-1.04-0.61-1.57c2.45-1.55,0.58-3.46,0.62-5.21
		C71.67,105.68,71.87,104.64,72.08,103.6z"/>
	<path class="st20" d="M82,132.8c-0.83-0.18-1.66-0.36-2.49-0.54c-0.71-1.2-1.42-2.41-1.86-3.16c0.51-1.32,1.1-2.26,1.19-3.23
		c0.13-1.44,0.89-2.03,2.53-1.95c0.62,2.08,1.24,4.17,1.86,6.25C82.82,131.05,82.41,131.93,82,132.8z"/>
	<path class="st18" d="M65.27,86.92c0,0.34,0,0.68,0,1.03c-0.21,0.52-0.42,1.04-0.64,1.56c-2,2.08-3.99,4.16-5.99,6.24
		c-0.09-0.34-0.18-0.68-0.27-1.02c0.2-0.52,0.41-1.04,0.61-1.56c0.04-0.33,0.08-0.67,0.12-1c0.22-0.53,0.43-1.06,0.65-1.58
		c0.38-0.36,0.76-0.72,1.13-1.08c0.77-0.22,1.65-0.3,2.27-0.69C63.97,88.31,64.57,87.57,65.27,86.92z"/>
	<path class="st18" d="M71.46,113.5c1.23-0.52,2.46-1.03,3.69-1.55c-0.2,1.39-0.4,2.77-0.6,4.16c-1.24,0.52-2.47,1.04-3.71,1.55
		C71.05,116.27,71.25,114.89,71.46,113.5z"/>
	<path class="st16" d="M88.8,119.23c0,0.17,0,0.35,0,0.52c-2.74,2.86-1.55,5.73,0,8.6c1.12,2.07,0.71,2.6-2.07,2.67
		c0.48,1.1,0.97,2.2,1.46,3.31c-1.46-1.38-2.92-2.77-4.38-4.15c-0.38-5.9-0.76-11.8-1.14-17.7c1.04,0.14,2.09,0.27,3.13,0.41
		c0.11-0.15,0.22-0.3,0.32-0.44c-1.13-0.7-2.26-1.4-3.39-2.1c0.01-1.88,0.01-3.77,0.01-5.65c0.65,0.25,1.31,0.5,2.6,0.98
		c-0.43-1.01-0.66-1.56-0.89-2.11c0.35-0.49,0.69-0.97,1.25-1.76c0.37,0.73,0.52,0.94,0.6,1.18c0.75,2.11,3.05,4.17,0.27,6.38
		c0.33,0.16,0.66,0.32,0.99,0.48c0,0.17,0,0.35,0,0.52c-0.06,0.77-0.28,1.57-0.15,2.31C87.8,114.88,88.33,117.05,88.8,119.23z"/>
	<path class="st17" d="M87.56,109.85c-0.33-0.16-0.66-0.32-0.99-0.48c2.78-2.21,0.48-4.28-0.27-6.38c-0.08-0.23-0.23-0.45-0.6-1.18
		c-0.56,0.78-0.9,1.27-1.25,1.76c-0.55-0.02-1.09-0.04-1.64-0.05c0.18-1.36,0.36-2.73,0.53-4.09c2.35-0.82,3.89-0.21,5.08,1.71
		c1.08,1.74,1.34,3.67,2.6,5.46C92.75,109.04,91.61,110.17,87.56,109.85z"/>
	<path class="st7" d="M82.73,110.34c1.13,0.7,2.26,1.4,3.39,2.1c-0.11,0.15-0.22,0.3-0.32,0.44c-1.04-0.14-2.09-0.27-3.13-0.41
		C82.69,111.76,82.71,111.05,82.73,110.34z"/>
	<path class="st7" d="M82.81,103.51c0.55,0.02,1.09,0.04,1.64,0.05c0.23,0.55,0.46,1.09,0.89,2.1c-1.29-0.49-1.94-0.74-2.6-0.98
		C82.77,104.29,82.79,103.9,82.81,103.51z"/>
	<path class="st1" d="M84.47,92.12c0.41,0,0.82,0,1.24,0c-0.34,0.34-0.68,0.68-1.02,1.01c-0.06-0.18-0.12-0.36-0.19-0.53
		C84.49,92.44,84.48,92.28,84.47,92.12z"/>
	<path class="st13" d="M84.47,92.12c0.01,0.16,0.02,0.32,0.03,0.48c-0.44-0.31-0.88-0.61-1.32-0.92c0.44-0.01,0.87-0.03,1.31-0.04
		C84.49,91.8,84.48,91.96,84.47,92.12z"/>
	<path class="st16" d="M83.23,80.66c-0.15,0.94-0.29,1.88-0.44,2.81c-0.26,0.11-0.51,0.22-0.76,0.33c-0.01-1.04-0.01-2.09-0.02-3.13
		C82.42,80.68,82.82,80.67,83.23,80.66z"/>
	<path class="st12" d="M82.82,86.08c-0.1,0.3-0.21,0.6-0.31,0.89c-0.3-0.23-0.59-0.46-0.89-0.7C82.02,86.21,82.42,86.14,82.82,86.08
		z"/>
	<path class="st2" d="M29.35,125.48c-0.01-1.22-0.01-2.43-0.02-3.65c0.1-0.3,0.19-0.6,0.29-0.9c-0.53,0.07-1.05,0.15-1.58,0.22
		c-0.59,0.09-1.18,0.17-1.77,0.26c-3.14-1.42,0.86-1.25,0.61-2.09c-1.06-0.07-2.14-0.14-3.4-0.23c-0.22-1.34-0.81-2.65,1.49-3.04
		c1.92,1.19,3.84,2.38,5.71,3.53c0.85-1.42,1.6-2.68,2.36-3.95c0.54-0.02,1.09-0.05,1.63-0.07c0.02,0.21,0.04,0.42,0.06,0.62
		c0.74-0.56,1.48-1.12,2.22-1.68c0.15,1.58,0.29,3.16,0.44,4.74c-0.82,0.19-1.63,0.38-2.45,0.57c-1.47,0.81-4.91-0.75-4.3,2.55
		c-0.01,1.04-0.03,2.08-0.04,3.13C30.19,125.48,29.77,125.48,29.35,125.48z"/>
	<path class="st13" d="M33.04,115.64c-0.76,1.27-1.52,2.54-2.36,3.95c-1.87-1.16-3.79-2.34-5.71-3.53c0.62-0.35,1.25-0.7,1.87-1.04
		c0.64-0.36,1.28-0.72,1.92-1.08c0.29-0.03,0.57-0.06,0.86-0.09C29.26,116.48,31.78,115.2,33.04,115.64z"/>
	<path class="st9" d="M29.96,105.72c-0.41,2.47-0.83,4.93-1.24,7.4c0-2.68,0-5.37,0-8.39C29.39,105.27,29.68,105.5,29.96,105.72z"/>
	<path class="st9" d="M28.76,113.94c-0.64,0.36-1.28,0.72-1.92,1.08c0.64-0.58,1.28-1.15,1.92-1.73
		C28.76,113.5,28.76,113.72,28.76,113.94z"/>
	<path class="st5" d="M53.58,102.05c0.2,0,0.38-0.04,0.55-0.14c0.63-0.65,1.26-1.31,1.9-1.96c1.02-0.18,2.04-0.35,3.05-0.53
		c1.17,1.45,2.35,1.43,3.68,0.1c0.49-0.48,1.23-0.79,1.86-1.17c-0.18,2.82-0.36,5.65-0.54,8.47c-0.62,0.84-1.25,1.67-1.87,2.51
		c-0.22,0.16-0.44,0.32-0.66,0.48c-0.2,0-0.4,0.03-0.59,0.09c-0.42-1.06-0.83-2.13-1.25-3.19c-0.2-1.72-1.71-1.56-3.12-1.54
		c-1.66-0.19-3.31-0.38-4.97-0.57c0.24-0.5,0.48-1.01,0.72-1.51C52.75,102.75,53.17,102.4,53.58,102.05z"/>
	<path class="st6" d="M41.13,121.36c-1.07-0.34-2.14-0.67-3.21-1.01c-0.18-0.37-0.35-0.74-0.53-1.11c-0.15-1.58-0.29-3.16-0.44-4.74
		c-0.1-0.33-0.2-0.66-0.29-0.99c0.86,0.52,1.72,1.04,2.58,1.56c1.21,1.78,2.41,3.56,3.62,5.34c-0.42,0.28-0.84,0.56-1.26,0.84
		C41.42,121.23,41.26,121.26,41.13,121.36z"/>
	<path class="st18" d="M71.46,106.72c-0.04,1.75,1.83,3.66-0.62,5.21c-0.62-0.55-1.32-1.06-1.83-1.67c-0.49-0.6-0.78-1.31-1.16-1.97
		c-0.01-0.69-0.02-1.38-0.03-2.07c0.16-0.02,0.32-0.03,0.49-0.04C69.36,106.36,70.41,106.54,71.46,106.72z"/>
	<path class="st4" d="M54.33,114.95c-0.28,0.07-0.56,0.13-0.84,0.2c-0.23,0.14-0.45,0.28-0.68,0.41c-0.58,0.2-1.15,0.39-1.73,0.59
		l-0.15-0.13c2.58-1.91,5.14-3.84,7.79-5.68c0.32-0.23,1.13,0.04,1.72,0.09c-0.25,0.31-0.51,0.63-0.76,0.94
		c-0.82,0.56-1.63,1.12-2.45,1.68C56.26,113.67,55.3,114.31,54.33,114.95z"/>
	<path class="st4" d="M49.8,117.22c-0.61,0.16-1.22,0.32-1.83,0.48c0.99-0.56,1.98-1.12,2.97-1.69l0.15,0.13
		C50.65,116.5,50.23,116.86,49.8,117.22z"/>
	<path class="st21" d="M59.67,111.36c0.25-0.31,0.51-0.63,0.76-0.94c0.17-0.17,0.35-0.34,0.52-0.51"/>
	<path class="st21" d="M28.04,121.16c0.53-0.07,1.05-0.15,1.58-0.22c-0.1,0.3-0.19,0.6-0.29,0.9
		C28.9,121.61,28.47,121.38,28.04,121.16z"/>
	<path class="st21" d="M52.82,115.56c0.23-0.14,0.45-0.28,0.68-0.41C53.27,115.28,53.04,115.42,52.82,115.56z"/>
	<path class="st21" d="M67.04,114.02c-0.16,0.2-0.33,0.4-0.49,0.6C66.71,114.42,66.88,114.22,67.04,114.02z"/>
	<path class="st18" d="M71.43,148.95c1.03,1.11,2.06,2.21,3.08,3.31c-0.27-2.75-0.56-5.72-0.87-8.89c0.75,0.23,1.45,0.44,2.29,0.7
		c1.88-2.57,2.93-6.1,7.92-5.56c-1.82,1.19-3.11,2.57-2.49,4.68c-0.2,0.87-0.39,1.75-0.59,2.62c-0.22,0.34-0.44,0.68-0.66,1.03
		c-0.41,0.18-0.82,0.35-1.23,0.53c-2.43,1.2-0.71,3.15-1.2,4.7c-0.44,1.04-0.88,2.08-1.32,3.13c-2.51-0.17-1.23,1.21-1.2,2.08
		c-0.45,0.01-0.9,0.03-1.36,0.04c-0.36-0.71-0.72-1.42-1.08-2.13c-0.25-1.04-0.5-2.08-0.75-3.12
		C71.8,151.02,71.61,149.98,71.43,148.95z"/>
	<path class="st5" d="M73.82,166.3c0.01-0.75,0.03-1.5,0.04-2.25c-0.01-0.35-0.02-0.69-0.03-1.04c0-1.04,0-2.09,0-3.13
		c-0.01-0.69-0.02-1.39-0.03-2.08c0.08-0.16,0.09-0.32,0.03-0.48c0.45-0.01,0.9-0.03,1.36-0.04c0.41,0.17,0.81,0.34,1.22,0.51
		c0.2,0.52,0.4,1.05,0.6,1.57c-0.12,2.26-0.05,4.48,1.99,6.26c-0.02,0.35-0.04,0.7-0.06,1.05c-1.06,0.69-2.11,1.37-3.17,2.06
		c-0.77,0.52-1.55,1.05-2.32,1.57c-0.07-0.86-0.14-1.73-0.2-2.59C73.43,167.23,73.63,166.76,73.82,166.3z"/>
	<path class="st22" d="M81.99,198.95c-0.92-0.29-1.84-0.58-2.58-0.81c-0.6-1.52-1.16-2.93-1.71-4.35c0.91-0.36,2.05-0.53,2.69-1.11
		c1.48-1.35,2.75-1.17,4.14-0.02c-0.03,0.35-0.06,0.7-0.09,1.05c-1.12,0.06-2.24,0.12-3.37,0.18c-0.02,0.27-0.05,0.55-0.07,0.82
		c1.15,0.2,2.31,0.41,3.46,0.61c0.21,1.19,0.41,2.38,0.62,3.58C84.04,198.92,83.01,198.93,81.99,198.95z"/>
	<path class="st20" d="M85.07,198.91c-0.21-1.19-0.41-2.38-0.62-3.58c3.16-0.11,1.14,2.3,2.12,3.13c0.99,0,1.91,0,2.83,0
		c0.02,0.3,0.04,0.61,0.06,0.91c-0.61,0.23-1.23,0.46-1.84,0.7C86.76,199.69,85.91,199.3,85.07,198.91z"/>
	<path class="st5" d="M89.39,198.47c-0.92,0-1.84,0-2.83,0c-0.98-0.84,1.04-3.24-2.12-3.13c-1.15-0.2-2.31-0.41-3.46-0.61
		c0.02-0.27,0.05-0.55,0.07-0.82c1.12-0.06,2.25-0.12,3.37-0.18c1.44-0.69,2.88-1.37,4.32-2.06c2.91,1.2,2.93,3.51,3.13,5.75
		l-0.29-0.02l-0.28,0.07c-0.36-0.33-0.72-0.65-1.09-0.98C89.94,197.14,89.67,197.8,89.39,198.47z"/>
	<path class="st6" d="M89.39,198.47c0.27-0.66,0.55-1.33,0.82-1.99c0.36,0.33,0.72,0.65,1.09,0.98c-0.62,0.64-1.23,1.28-1.85,1.92
		C89.43,199.07,89.41,198.77,89.39,198.47z"/>
	<path class="st8" d="M87.57,165.68c0.21,0.33,0.6,0.67,0.6,1c-0.01,2.77-0.09,5.54-0.15,8.31c-0.28,0.18-0.56,0.35-0.84,0.53
		c0.28,0.17,0.57,0.35,0.85,0.52c0.06,2.95,0.12,5.89,0.18,8.84c-0.35,1.28-0.69,2.56-1.09,4.03c-0.51-0.33-0.95-0.61-1.39-0.89
		c-0.22-0.35-0.43-0.7-0.65-1.05l0,0c-0.21-0.87-0.41-1.74-0.62-2.6c0.54-2.32,1.18-4.63,1.58-6.96c0.16-0.94-0.21-1.95-0.34-2.93
		c0-0.52,0-1.04-0.01-1.56c0.19-1.39,0.38-2.78,0.58-4.17C86.71,167.73,87.14,166.71,87.57,165.68z"/>
	<path class="st22" d="M86.28,168.75c-0.19,1.39-0.38,2.78-0.58,4.17c-0.57-0.95-1.14-1.89-1.43-2.37c-2.41,0.29-4.51,0.55-6.61,0.8
		c0.01-1.08,0.16-2.24-1.83-2.07c-0.03-0.19-0.05-0.38-0.08-0.57c1.06-0.69,2.11-1.37,3.17-2.06c1.64-0.36,3.28-0.72,4.92-1.08
		l0.01,0.07C84.66,166.68,85.47,167.72,86.28,168.75z"/>
	<path class="st22" d="M80.73,183.87c-1.45-2.07-2.9-4.15-4.36-6.22c0.43-0.19,0.86-0.38,1.29-0.56c1.65,0.35,3.3,0.69,4.96,1.04
		c0.2,0.35,0.4,0.69,0.6,1.04c-0.08,0.05-0.24,0.12-0.23,0.15c0.05,0.13,0.15,0.25,0.23,0.38c0,1.56,0.01,3.12,0.01,4.68
		C82.4,184.2,81.57,184.04,80.73,183.87z"/>
	<path class="st17" d="M77.67,177.08c-0.43,0.19-0.86,0.37-1.29,0.56c-0.18-2.79-0.36-5.57-0.54-8.36c1.99-0.17,1.84,0.99,1.83,2.07
		C77.67,173.26,77.67,175.17,77.67,177.08z"/>
	<path class="st7" d="M80.73,183.87c0.83,0.17,1.67,0.34,2.5,0.5l0,0c0.1,0.22,0.2,0.45,0.3,0.67c0.11-0.22,0.21-0.45,0.32-0.67
		c0.21,0,0.41,0,0.62,0c0.21,0.87,0.41,1.74,0.62,2.6C83.64,185.94,82.19,184.9,80.73,183.87z"/>
	<path class="st7" d="M85.09,186.98c0.22,0.35,0.43,0.7,0.65,1.05C85.52,187.67,85.31,187.33,85.09,186.98z"/>
	<path class="st4" d="M39.24,115.08c-0.86-0.52-1.72-1.04-2.58-1.56c-0.16-0.18-0.33-0.36-0.49-0.54c3.52-1.66,7.04-3.34,10.58-4.98
		c0.76-0.35,1.6-0.57,2.41-0.84c1.05,0.89,2.1,1.77,3.15,2.66c-1.1,0.62-2.4,1.09-3.27,1.89c-1.53,1.42-2.8,3.04-4.86,5.33
		C43.17,112.47,40.92,115.12,39.24,115.08z"/>
	<path class="st20" d="M64.61,98.35c-0.63,0.39-1.37,0.69-1.86,1.17c-1.33,1.32-2.51,1.34-3.68-0.1c0.45-0.5,0.89-1,1.52-1.71
		c-1.74,0.49-2.91,0.82-4.09,1.15c0.71-1.04,1.42-2.07,2.13-3.11c2-2.08,3.99-4.16,5.99-6.24c0.22,0,0.45,0.01,0.67,0.01
		C65.29,92.48,63.22,95.32,64.61,98.35z M62.39,96.06c-0.04-0.06-0.06-0.15-0.11-0.17c-0.07-0.02-0.16,0.02-0.25,0.03
		c0.05,0.09,0.11,0.17,0.16,0.26C62.26,96.14,62.33,96.1,62.39,96.06z"/>
	<path class="st22" d="M52.3,109.81c-1.05-0.89-2.1-1.77-3.15-2.66c0.82-0.85,1.65-1.7,2.47-2.55c1.66,0.19,3.31,0.38,4.97,0.57
		c-0.83,1.54-1.67,3.08-2.5,4.62C53.49,109.8,52.9,109.81,52.3,109.81z"/>
	<path class="st0" d="M36.17,112.97c0.16,0.18,0.33,0.36,0.49,0.54c0.1,0.33,0.2,0.66,0.29,0.99c-0.74,0.56-1.48,1.12-2.22,1.68
		c-0.02-0.21-0.04-0.42-0.06-0.62c-0.54,0.02-1.09,0.05-1.63,0.07c-1.26-0.44-3.78,0.84-3.42-1.79
		C31.8,113.56,33.98,113.26,36.17,112.97z"/>
	<path class="st6" d="M56.51,98.86c1.18-0.33,2.35-0.66,4.09-1.15c-0.63,0.71-1.08,1.21-1.52,1.71c-1.02,0.18-2.04,0.35-3.05,0.53
		c-0.03-0.18-0.07-0.35-0.1-0.53C56.12,99.24,56.32,99.05,56.51,98.86z"/>
	<path class="st11" d="M53.58,102.05c-0.41,0.35-0.83,0.69-1.24,1.04C52.75,102.75,53.17,102.4,53.58,102.05z"/>
	<path class="st8" d="M96.9,192.15c-0.01,0.18-0.03,0.36-0.04,0.53c-3.87-1.31-4.41-3.67-1.31-5.75
		C96,188.67,96.45,190.41,96.9,192.15z"/>
	<path class="st5" d="M97.49,193.75c3.53,1.8,0.6,2.89-0.64,4.17C94.49,195.63,94.57,195.11,97.49,193.75z"/>
	<path class="st6" d="M91.99,177.07c-0.45-3.53-1-7.06-1.3-10.61c-0.1-1.13,0.46-2.3,0.72-3.45c0.37,0.5,0.69,1.03,1.12,1.49
		c0.55,0.58,1.19,1.1,1.8,1.64c-0.03,2.82,1.96,3.93,4.99,4.17c-0.63,0.84-1.2,2.36-1.9,2.4c-2.6,0.16-3.6,1.25-4,3.21
		C93.34,176.36,92.49,176.69,91.99,177.07z"/>
	<path class="st8" d="M100.01,180.27c-0.43,0.85-0.87,1.7-1.3,2.55c-0.21,0-0.41,0-0.62,0c-0.17-1.08,0.1-2.46-2.25-1.7
		c-0.31,0.1-2.12-1.68-1.91-2.08c0.97-1.81,2.42-3.44,3.7-5.13c0.31,0.05,0.62,0.11,0.94,0.16
		C99.05,176.14,99.53,178.21,100.01,180.27z"/>
	<path class="st20" d="M99.32,170.31c-3.02-0.24-5.02-1.34-4.99-4.17c0.02-0.7,0.03-1.39,0.05-2.09c1.26,0.04,2.52,0.08,3.79,0.12
		c-1.42,1.53-1.93,2.9,0.56,4.14c0.81,0.4,1.27,1.29,1.89,1.95C100.19,170.27,99.76,170.29,99.32,170.31z"/>
	<path class="st22" d="M78.99,165.61c-2.04-1.78-2.11-3.99-1.99-6.26c0.88-0.78,1.76-1.56,2.63-2.34c0.94-0.7,2.36-1.42,2.4-2.18
		c0.06-1.37-1.05-2.78-1.01-4.16c0.03-0.93,1.01-2.06,1.95-2.67c0.79-0.52,2.14-0.42,3.25-0.6c0.05,0.85,0.11,1.7,0.16,2.55
		c-0.01,0.71-0.02,1.42-0.02,2.12c0.19,0.17,0.37,0.35,0.56,0.52l-0.05,0.03c0.08,0.52,0.17,1.03,0.25,1.55l-0.25-0.05
		c-0.99,0.43-2.2,0.68-2.95,1.32c-2.27,1.94-2.97,4.37-2.53,7.05C80.59,163.54,79.79,164.57,78.99,165.61z"/>
	<path class="st4" d="M86.23,147.41c-1.1,0.18-2.46,0.08-3.25,0.6c-0.94,0.62-1.92,1.74-1.95,2.67c-0.05,1.38,1.07,2.79,1.01,4.16
		c-0.03,0.76-1.46,1.47-2.4,2.18c-0.88,0.78-1.76,1.56-2.63,2.34c-0.2-0.52-0.4-1.05-0.6-1.57h0.01c0.08-0.05,0.25-0.12,0.24-0.13
		c-0.07-0.13-0.16-0.24-0.24-0.36c-0.01-0.7-0.02-1.4-0.03-2.1c0.44-1.04,0.88-2.08,1.32-3.13c0.76-0.32,1.53-0.64,1.91-0.8
		c-0.27-1.5-0.49-2.7-0.71-3.91c0.41-0.18,0.82-0.35,1.23-0.53c0.22-0.34,0.44-0.68,0.66-1.03c0.2-0.87,0.39-1.75,0.59-2.62
		c1.83-0.53,3.18-0.51,3.22,1.63c0.01,0.35,1.1,0.69,1.68,1.04C86.25,146.37,86.24,146.89,86.23,147.41z"/>
	<path class="st5" d="M86.27,145.86c-0.59-0.35-1.68-0.69-1.68-1.04c-0.04-2.14-1.39-2.16-3.22-1.63c-0.62-2.11,0.67-3.49,2.49-4.68
		C84.65,140.96,85.46,143.41,86.27,145.86z"/>
	<path class="st18" d="M69.61,127.57c1.03,1.04,2.06,2.09,3.09,3.13C68.59,131.81,70.26,128.87,69.61,127.57z"/>
	<path class="st18" d="M72.7,130.7c2.34-0.23,3.38,0.63,3.09,2.61C73.45,133.53,72.68,132.44,72.7,130.7z"/>
	<path class="st18" d="M76.8,140.47c-0.07,0.14-0.11,0.36-0.23,0.4s-0.33-0.1-0.49-0.16c0.07-0.14,0.11-0.36,0.23-0.4
		C76.43,140.27,76.63,140.41,76.8,140.47z"/>
	<path class="st16" d="M93.74,130.18c-0.2-0.87-0.4-1.74-0.6-2.61c1.4,0.78,2.8,1.56,4.21,2.33c-0.03,0.21-0.06,0.41-0.09,0.62
		c-0.96,0.1-1.92,0.2-2.89,0.3c-0.2-0.21-0.41-0.42-0.61-0.63L93.74,130.18z"/>
	<path class="st4" d="M93.75,130.18c0.2,0.21,0.41,0.42,0.61,0.63C94.16,130.61,93.96,130.39,93.75,130.18z"/>
	<path class="st5" d="M88.11,154.66c-0.15,0.37-0.31,0.75-0.46,1.12c-0.26-0.54-0.52-1.09-0.78-1.63l0.25,0.05
		C87.45,154.34,87.78,154.5,88.11,154.66z"/>
	<path class="st6" d="M86.92,152.61c-0.19-0.17-0.37-0.35-0.56-0.52C86.55,152.26,86.73,152.43,86.92,152.61z"/>
	<path class="st16" d="M99.35,93.09c0.39,0.33,0.78,0.65,1.17,0.98c-0.4,0.04-0.8,0.09-1.2,0.13c-0.74,0.14-1.49,0.29-2.4,0.46
		c-0.19-0.56-0.45-1.29-0.7-2.02c0.35-0.27,0.7-0.54,1.05-0.81C97.97,92.26,98.66,92.68,99.35,93.09z"/>
	<path class="st17" d="M88.8,119.23c-0.47-2.18-1-4.36-1.38-6.55c-0.13-0.75,0.09-1.54,0.15-2.31
		C91.08,113.02,90.08,116.11,88.8,119.23z"/>
	<path class="st6" d="M64.61,98.35c-1.4-3.03,0.68-5.87,0.69-8.83c0.2-0.34,0.4-0.69,0.61-1.03c0.61,0.69,1.23,1.38,1.84,2.07
		c-1.43,3.19,2.09,4.97,3.12,7.64c-0.82,0.62-1.67,1.26-2.55,1.94c1.34,1.23,2.55,2.34,3.77,3.45c-0.21,1.04-0.41,2.08-0.62,3.12
		c-1.05-0.18-2.1-0.36-3.15-0.54c0-1.26,0-2.52,0-3.78c-0.19-0.06-0.37-0.12-0.56-0.18c-0.75,1.23-1.49,2.46-2.24,3.68
		c-0.48,0.31-0.96,0.61-1.44,0.92C64.25,104,64.43,101.18,64.61,98.35z"/>
	<path class="st8" d="M65.91,88.49c-0.2,0.34-0.4,0.69-0.61,1.03c-0.22,0-0.45-0.01-0.67-0.01c0.21-0.52,0.42-1.04,0.64-1.56
		C65.48,88.13,65.7,88.31,65.91,88.49z"/>
	<path class="st8" d="M52.3,109.81c0.59,0,1.19-0.01,1.78-0.01c2.89,0.28,4.58-0.98,5.63-3.09c0.42,1.06,0.83,2.13,1.25,3.19
		c-0.17,0.17-0.35,0.34-0.52,0.51c-0.58-0.04-1.39-0.31-1.72-0.09c-2.65,1.84-5.2,3.78-7.79,5.68c-0.99,0.56-1.98,1.12-2.97,1.69
		l0.01-0.01c-2.11,0.02-4.72-0.59-4.39,2.48c-0.24,0.08-0.49,0.17-0.73,0.25c-1.21-1.78-2.41-3.56-3.62-5.34
		c1.68,0.04,3.93-2.61,4.93,1.95c2.06-2.29,3.33-3.91,4.86-5.33C49.9,110.9,51.2,110.43,52.3,109.81z"/>
	<path class="st4" d="M59.71,106.71c-1.04,2.1-2.74,3.37-5.63,3.09c0.83-1.54,1.67-3.08,2.5-4.62
		C58,105.15,59.51,104.99,59.71,106.71z"/>
	<path class="st4" d="M43.59,120.17c-0.33-3.07,2.28-2.46,4.39-2.48c-0.64,0.5-1.27,1.01-1.91,1.51c-0.21,0.05-0.42,0.1-0.63,0.16
		c-0.23,0.12-0.46,0.24-0.68,0.36c-0.19,0.15-0.38,0.31-0.57,0.46l-0.3,0.05L43.59,120.17z"/>
	<path class="st21" d="M44.75,119.72c0.23-0.12,0.46-0.24,0.68-0.36C45.21,119.48,44.98,119.6,44.75,119.72z"/>
	<path class="st8" d="M78.89,147.37c0.22,1.2,0.44,2.41,0.71,3.91c-0.38,0.16-1.14,0.48-1.91,0.8
		C78.18,150.52,76.46,148.57,78.89,147.37z"/>
	<path class="st6" d="M76.38,155.2c0.01,0.7,0.02,1.4,0.03,2.1c0,0.16,0,0.33,0,0.49H76.4c-0.41-0.17-0.81-0.34-1.22-0.51
		C75.15,156.4,73.87,155.03,76.38,155.2z"/>
	<path class="st8" d="M80.77,145.81c-0.22,0.34-0.44,0.68-0.66,1.03C80.33,146.5,80.55,146.15,80.77,145.81z"/>
	<path class="st1" d="M78.99,165.61c0.8-1.04,1.61-2.07,2.41-3.11c1.28-1.99,2.56-3.99,4.3-6.7c0.17,1.6,0.55,2.58,0.31,3.45
		c-0.57,2.14-1.43,4.22-2.17,6.33c-1.64,0.36-3.28,0.72-4.92,1.08C78.95,166.31,78.97,165.96,78.99,165.61z"/>
	<path class="st17" d="M83.84,165.58c0.74-2.11,1.59-4.19,2.17-6.33c0.23-0.87-0.14-1.85-0.31-3.45c-1.74,2.71-3.02,4.71-4.3,6.7
		c-0.44-2.68,0.26-5.11,2.53-7.05c0.74-0.64,1.95-0.89,2.95-1.32c0.26,0.54,0.52,1.09,0.78,1.63c-0.03,2.58-0.06,5.17-0.1,7.75
		c-0.17,0.68-0.33,1.35-0.5,2.03c-1.07,0.03-2.14,0.06-3.2,0.09C83.85,165.65,83.84,165.58,83.84,165.58z"/>
	<path class="st7" d="M83.85,165.65c1.07-0.03,2.14-0.06,3.2-0.09c0.19,0.01,0.36,0.05,0.52,0.12c-0.43,1.02-0.86,2.05-1.29,3.07
		C85.47,167.72,84.66,166.68,83.85,165.65z"/>
	<path class="st20" d="M88.03,176.04c-0.28-0.17-0.57-0.35-0.85-0.52c0.28-0.18,0.56-0.35,0.84-0.53
		C88.03,175.34,88.03,175.69,88.03,176.04z"/>
	<path class="st7" d="M77.67,177.08c0-1.91,0-3.82,0-5.73c2.1-0.26,4.2-0.51,6.61-0.8c0.29,0.48,0.86,1.42,1.43,2.37
		c0,0.52,0,1.04,0.01,1.56c-1.8-0.2-2.68,0.36-2.53,1.99c0.05,0.53-0.36,1.1-0.56,1.65C80.97,177.77,79.32,177.43,77.67,177.08z"/>
	<path class="st4" d="M82.62,178.12c0.2-0.55,0.61-1.11,0.56-1.65c-0.15-1.64,0.73-2.19,2.53-1.99c0.13,0.98,0.5,1.99,0.34,2.93
		c-0.4,2.34-1.04,4.64-1.58,6.96c-0.21,0-0.41,0-0.62,0s-0.41,0-0.62,0l0,0c0-1.56-0.01-3.12-0.01-4.68c0-0.18,0-0.35,0-0.53
		C83.02,178.81,82.82,178.46,82.62,178.12z"/>
	<path class="st7" d="M83.22,179.16c0,0.18,0,0.35,0,0.53c-0.08-0.13-0.17-0.25-0.23-0.38C82.99,179.28,83.14,179.21,83.22,179.16z"
		/>
	<path class="st22" d="M83.23,184.37c0.21,0,0.41,0,0.62,0c-0.11,0.22-0.21,0.45-0.32,0.67C83.43,184.82,83.33,184.59,83.23,184.37z
		"/>
	<path class="st6" d="M62.39,96.06c-0.07,0.04-0.13,0.08-0.2,0.12c-0.05-0.09-0.11-0.17-0.16-0.26c0.08-0.01,0.18-0.05,0.25-0.03
		C62.33,95.91,62.36,96,62.39,96.06z"/>
	<path class="st5" d="M76.4,157.78c0-0.16,0-0.33,0-0.49c0.08,0.12,0.18,0.23,0.24,0.36C76.65,157.66,76.49,157.74,76.4,157.78z"/>
</g>
</svg>
