<?xml version="1.0" encoding="utf-8"?>
<!-- Generator: Adobe Illustrator 27.5.0, SVG Export Plug-In . SVG Version: 6.00 Build 0)  -->
<svg version="1.1" id="图层_1" xmlns="http://www.w3.org/2000/svg" xmlns:xlink="http://www.w3.org/1999/xlink" x="0px" y="0px"
	 viewBox="0 0 3112 3759.96" style="enable-background:new 0 0 3112 3759.96;" xml:space="preserve">
<style type="text/css">
	.st0{fill:#916A43;}
	.st1{fill:#704A28;}
	.st2{fill:#995B1D;}
	.st3{fill:#CECECE;}
	.st4{fill:#664126;}
	.st5{fill:#E6E8E8;}
	.st6{fill:#BC9988;}
	.st7{fill:#D3B09C;}
	.st8{fill:#B55E1D;}
	.st9{fill:#F3D1BB;}
	.st10{fill:#BC9982;}
	.st11{fill:#DBB79A;}
	.st12{opacity:0.38;fill:#BC9982;enable-background:new    ;}
	.st13{opacity:0.75;fill:#5B2B0B;enable-background:new    ;}
	.st14{opacity:0.5;fill:#664026;enable-background:new    ;}
	.st15{fill:#682E07;}
	.st16{fill:#7C5535;}
</style>
<g id="Layer_1">
</g>
<g id="Layer_2">
	<g>
		<path class="st0" d="M1841.81,2119.6c-6.44,16.66-13.53,49.04-27.7,113.83c-22.31,101.99-19.82,120.39-11.28,125.54
			c8.66,5.21,24.23-5.74,55.39-27.66c34-23.92,51-35.87,53.34-55.32c2.84-23.63-18.75-35.11-12.31-51.07
			c6.92-17.13,33.95-9.21,54.37-26.6c21.52-18.33,18.17-49.86,20.52-92.56c5.8-105.32,38.93-144.62,24.62-154.26
			C1976.99,1936.85,1882.11,2015.44,1841.81,2119.6z"/>
		<path class="st1" d="M750.91,1503.56c-2.01-0.96-2.93-6.52-5.85-6.47c-5.62,0.11-6.81,20.99-10.57,21.36
			c-7.32,0.73-33.71-75.27-26.67-165.96c4.56-58.82,21.53-102.43,35.9-139.37c13.66-35.11,13.22-24.13,68.73-130.86
			c1.62-3.11,10.4-20.01,26.67-38.3c12.5-14.05,31.81-35.77,45.13-31.92c19.05,5.51,19.48,61.45,19.49,77.66
			C903.89,1285.22,766.07,1510.8,750.91,1503.56z"/>
		<path class="st2" d="M3056.82,3685.57c-67.12,75.42-244.85-79.1-532.37-117.03c-102.85-13.56-172.51-5.99-239.91,11.39
			c-121.29,31.25-235.29,94.2-522.22,122.65c-136.18,13.5-374.73,35.41-667.91-17.7c-13.51-2.45-27.14-5.05-40.89-7.83
			c-3.48-0.7-6.91-1.4-10.32-2.12c-13.1-2.71-25.67-5.45-37.76-8.21h-0.01c-63.52-14.48-113.54-29.37-156.65-43.19
			c-24.84-7.95-47.39-15.54-68.88-22.5c-64.47-20.86-119.52-35.92-198.95-37.47c-15.8-0.32-32.57-0.1-50.57,0.72
			c-79.61,3.62-148.96,17.31-208.6,32.76c-16.06,4.16-31.42,8.45-46.08,12.7c-23.56,6.83-45.33,13.57-65.35,19.53v0.01
			c-74.84,22.34-125.34,34.01-153.87-0.11c-37.68-45.04-2.89-139.96,66.67-329.8c45.67-124.62,71.36-192.59,120.72-230.12
			c4.36-3.32,8.89-6.39,13.65-9.26c79.92-48.01,152.58-12.8,205.15-78.73c31.4-39.37,15.3-64.25,50.26-112.77
			c38.46-53.39,76.6-49.19,145.9-91.03c0.26-0.15,0.52-0.31,0.78-0.47c101.68-61.67,92.04-114.48,210.28-208.52
			c42.63-33.91,78.89-54.87,117.99-75.82c6.39-3.44,12.87-6.86,19.46-10.35c165.65-87.6,404.87-167.2,591.51-187.65
			c76.35-8.35,143.89-6.81,194.02,8.13c24.33,7.26,44.56,17.67,59.69,31.64c0.67,0.62,1.32,1.22,1.98,1.83
			c117.22,108.38,127.27,130.09,127.27,130.09c2.94,6.35,11.43,26.15,29.15,35.19h0.01c1.5,0.76,3.06,1.45,4.69,2.04
			c17.87,6.52,33.69-1.66,44.11-4.26c45.21-11.26,97.5,55.41,128.22,89.37c36.01,39.8,17.97,7.67,345.68,230.86
			c29.05,19.78,43.56,29.67,48.21,32.98c76.36,54.4,223.5,173.83,339.39,366.59c36.75,61.13,70.37,129.63,97.58,205.77
			C3064.95,3553.86,3096.23,3641.29,3056.82,3685.57z"/>
		<path class="st3" d="M1015.56,2721.7c-4.43,24.62-1.93,100.1,3.08,251.07c0.68,20.44,2.15,62.22,11.28,226.61
			c14.44,259.99,19.13,305.93,34.88,308.52c18.39,3.02,35.77-55.72,70.78-126.6c67.02-135.72,144.8-206.87,217.46-286.18
			c161.05-175.79,512.45-559.35,447.23-674.5C1724.86,2287.49,1062.63,2460.46,1015.56,2721.7z"/>
		<path class="st2" d="M1061.01,3506.2c0.01,1.14,0,2.28-0.01,3.39c-0.45,83.97-7.02,133.64-17.81,165.35
			c-13.1-2.71-25.67-5.45-37.76-8.21h-0.01c-63.52-14.48-113.54-29.37-156.65-43.19c-24.84-7.95-47.39-15.54-68.88-22.5
			c6.19-15.86,13.21-33.31,20.26-52.7c64.88-178.55,18.15-208.67,75.91-490.45c19.03-92.81,65.58-319.93,104.63-317.04
			c7.64,0.56,18.91,10.25,34.61,128.36c0,0.01,0,0.03,0.01,0.04c2.17,16.38,4.43,34.85,6.79,55.67
			c5.83,51.6,12.19,117.62,19.11,202.12C1055.36,3299.74,1061.32,3420.55,1061.01,3506.2z"/>
		<path class="st4" d="M1043.25,2774.89c-0.94,59.27-8.9,107.58-21.16,150.03c-1.46,5.05-2.97,10.01-4.54,14.91v0.01
			c-44.47,138.05-133.73,217.05-165.09,430.83c-14.68,100.09-10.05,184.58-3.69,252.87c-24.84-7.95-47.39-15.54-68.88-22.5
			c-64.47-20.86-119.52-35.92-198.95-37.47c14.58-72.15,42.86-153.97,7.9-275.88c-21.62-75.4-54.39-120.62-37.95-192.56
			c7.24-31.68,29.78-93.77,84.11-135.11c49.33-37.53,93.24-33.9,98.47-60.64c6-30.66-49.34-47.6-67.7-89.37
			c-4.26-9.69-6.49-20.64-6.93-32.51c-4.71-124.35,186.09-350.96,290.04-315.38c15.36,5.26,28.23,16.04,39.01,30.57
			c29.75,40.05,43.63,108.59,50.04,168.36C1043.86,2716.24,1043.43,2763.96,1043.25,2774.89z"/>
		<path class="st5" d="M1010.43,2650.42c-15.8,79.94,5.13,151.07,5.13,151.07c20.6,70.01,62.5,114.03,88.22,140.43
			c37.9,38.92,74.1,76.09,128.22,88.3c81.37,18.37,160.38-48.73,268.75-142.56c35.67-30.87,74.5-64.51,116.42-119.69
			c78.15-102.87,59.67-139.36,131.81-221.82c60.44-69.09,110.54-85.41,107.7-128.73c-2.73-41.78-49.99-69.86-66.67-79.79
			C1588.15,2217.61,1058.1,2409.27,1010.43,2650.42z"/>
		<path class="st6" d="M1064.79,2612.12c-2.64,55.51,50.29,118.35,93.34,171.28c43.78,53.82,72.89,66.85,92.32,72.34
			c7.92,2.23,44.99,11.92,96.42-6.38c96.71-34.41,91.87-113.53,201.05-204.26c51.64-42.92,56.39-28.27,162.07-105.32
			c82.26-59.98,101.37-84.89,112.83-103.2c34.38-54.89,35.87-109.66,40-177.67c5.12-84.06,7.67-126.09,12.82-143.09
			c22.6-74.61,64.59-109.7,49.75-135.64c-12.45-21.77-54.02-18.09-60.01-17.55c-104.02,9.21-138.19,180.61-235.41,307.99
			C1431.74,2530.35,1071.42,2472.77,1064.79,2612.12z"/>
		<path class="st7" d="M1952.08,1661.01c-26.22,112.95-92.28,176.16-114.89,370.23c-9.41,80.73-6.85,146.03-53.34,211.71
			c-45.11,63.75-87.83,59.19-177.46,115.96c-162.76,103.09-138.18,191.72-289.26,273.42c-43.02,23.27-150.39,81.31-239,37.24
			c-31.06-15.45-54.63-52.35-100.52-125.54c-72.55-115.71-116.69-186.09-142.58-291.5c-18.8-76.55-7.43-87.88-31.8-156.39
			c-24.23-68.11-44.66-82.78-64.62-156.39c-4.66-17.19-16.43-63.91-19.49-125.54c-2.51-50.62,3.72-53.6,6.15-127.67
			c0.61-18.28,0.74-33.66,0.62-47.04c-0.54-58.91-6.08-78.76,1.44-133.81c5.95-43.58,10.19-36.79,22.57-100
			c23.12-118.09,9.09-145.6,29.75-192.56c22.59-51.36,66.45-80,110.74-102.37c7.9-3.99,15.82-7.79,23.63-11.47
			c338.39-159.59,507.59-239.39,624.69-206.39C1828.54,974.58,2013.6,1396,1952.08,1661.01z"/>
		<path class="st8" d="M877.59,2289.23c-4.25-15,9.21-23.77,8.21-68.09c-0.73-32.12-8.11-41.15-2.05-47.87
			c16.34-18.13,70.88,46.52,146.68,39.36c43.93-4.15,58.54-28.98,98.47-20.21c15.91,3.49,14.44,9.47,59.49,37.24
			c40.22,24.79,59.63,38.38,60.52,39.36c24.21,26.63,21.5,67.21,18.46,112.77c-2.22,33.3-3.85,57.65-16.41,62.77
			c-19.67,8.02-39.63-44.58-84.11-75.54C1047.17,2285.72,891.49,2338.29,877.59,2289.23z"/>
		<path class="st9" d="M1821.8,1975.92c5.12,22.17,15.9,66.26,53.34,97.88c12.69,10.72,30.41,25.68,53.34,25.53
			c19.19-0.13,42.22-10.84,100.52-95.75c40.69-59.25,61.03-88.88,76.93-128.73c17.3-43.38,63.67-159.62,20.52-201.07
			c-31.27-30.02-96.77-8.6-142.58,6.38c-31.76,10.38-65.25,21.34-97.45,51.07C1815.52,1796.69,1805.04,1903.26,1821.8,1975.92z"/>
		<path class="st10" d="M1964.9,1770.06c-2.33-2.69,15.66-28.19,44.11-46.81c21.39-13.99,45.47-29.76,72.32-20.75
			c24.2,8.12,39.66,32.68,43.59,54.79c3.33,18.7-1.93,33.69-6.15,45.75c-9.94,28.32-27.52,46.27-37.95,55.32
			c5.58-8.84,22.24-37.72,17.44-75.54c-0.97-7.65-6.63-52.14-32.82-62.77C2026.37,1704.21,1968.91,1774.68,1964.9,1770.06z"/>
		<path class="st10" d="M1955.15,1806.76c-10.56,10.26-6.69,30.25-6.15,32.98c3.23,16.68,16.08,33.09,25.13,31.38
			c5.97-1.13,6.1-9.36,11.8-10.11c9.01-1.18,12.43,18.97,26.67,23.41c10.76,3.36,25.33-3,30.26-13.3
			c7.85-16.38-11.1-37.72-15.39-42.55C2007.83,1806.43,1970.61,1791.75,1955.15,1806.76z"/>
		<path class="st11" d="M1997.21,1847.19c-5.8,1.52-22.01,5.8-23.08,14.36c-1.48,11.85,27.84,17.34,31.29,36.7
			c1.83,10.26-4.2,20.25-13.33,30.85c-39.06,45.35-88.57,63.18-87.19,67.02c1.5,4.15,59.77-15.08,65.65-17.02
			c18.09-6,27.27-9.07,33.85-12.77c9.53-5.35,46.81-26.29,50.26-63.83c0.21-2.27,2.92-37.22-20.52-52.13
			C2019.59,1841.14,2002.57,1845.78,1997.21,1847.19z"/>
		<path class="st12" d="M1977.21,1996.66c-23.67,13.93-24.66,18.1-35.9,21.28c-22.75,6.45-38.55-4.99-41.03,0
			c-3.01,6.02,16.4,30.01,42.06,32.98c16.08,1.86,32.41-4.79,42.57-15.43c2.52-2.65,6.5-9.96,14.36-24.47
			c13.91-25.69,13.8-28.15,12.82-29.26C2008.83,1978.06,1993.64,1986.99,1977.21,1996.66z"/>
		<path class="st13" d="M1952.12,1563.66c-28.99-19.39-62.19-30.02-86.2-19.67c-28.37,12.22-17.34,42.26-67.7,126.6
			c-32.59,54.58-50.16,63.69-49.24,92.56c1.42,44.18,45.69,56.24,46.16,97.88c0.42,37.08-27.55,66.88-59.49,94.68
			c-144.08,125.45-293.77,139.97-295.42,198.94c-0.75,26.65,29.31,42.14,29.75,97.88c0.13,17.37,0.06,31.58-9.23,42.55
			c-23.62,27.92-77.59,0.4-90.27,21.28c-6.39,10.52-1.72,27.32,4.65,41.84c-12.1-22.6-31.2-55.49-55.93-86.53
			c-23.32-29.26-52.92-66.4-102.58-89.37c-38.21-17.67-70.92-18.92-133.35-21.28c-73.03-2.77-75.69,9.2-121.04,0
			c-53.59-10.87-78.76-33.46-97.45-19.15c-22.15,16.96-10.6,66.85-18.46,68.09c-7.14,1.12-18-37.71-20.52-46.81
			c-18.06-65.4-4.66-96.14-28.72-135.11c-6.92-11.22-18.43-25.7-23.59-23.41c-4.21,1.87-2.65,14.2,2.01,48.65
			c0.01,0.1,0.03,0.19,0.04,0.29c5.85,43.25,7.66,55.44,9.23,68.09c3.81,30.54,5.12,54.57,6.15,73.41
			c3.07,55.82-0.89,51.73,3.08,69.15c7.49,32.88,19.18,37,28.72,77.66c6.28,26.75,1.21,24.97,7.18,42.56
			c3.88,11.42,11.1,27.17,49.24,71.28c25.59,29.6,23.41,23.75,29.75,32.98c27.77,40.45,11.51,68.08,34.88,129.79
			c8.84,23.34,16.65,43.26,35.9,59.58c8.63,7.31,19.14,13.55,74.88,25.53c58.88,12.65,88.32,18.98,125.14,19.15
			c25.25,0.12,36.31-2.37,62.57,1.06c20.07,2.63,27.35,5.87,41.03,3.19c16.7-3.28,27.51-12.36,45.13-27.66
			c29.56-25.67,44.34-38.5,56.42-50c33.23-31.65,63.82-54.35,78.98-64.9c59.96-41.7,66.92-24.29,103.6-56.39
			c38.45-33.64,58.77-77.26,72.83-107.45c13.76-29.52,8.5-40.58,22.57-59.58c20.15-27.21,42.08-28.38,75.91-50
			c5.07-3.24,50.25-32.63,71.8-71.28c26.04-46.7,0.54-76.38-2.05-185.11c-1.71-71.62-3.58-149.55,38.98-178.73
			c28.96-19.86,56.69-2.2,74.88-26.6c19.77-26.5-5.48-57.43,17.44-97.88c7.48-13.2,10.1-9.8,35.9-40.43
			c24.65-29.27,36.98-43.9,38.98-55.32C2019.55,1627.79,1989.29,1588.51,1952.12,1563.66z M1389.96,2386.58
			c-0.19,0.11-1.35-2.16-3.44-6.29C1388.74,2384.12,1390.15,2386.46,1389.96,2386.58z"/>
		<path class="st14" d="M3056.82,3685.57c-67.12,75.42-244.85-79.1-532.37-117.03c-102.85-13.56-172.51-5.99-239.91,11.39
			c46.02-82.17,113.14-154.39,140.42-183.74c48.49-52.17,177.76-191.26,342.6-202.14c51.65-3.4,103.44,6,153.73,25.09
			c36.75,61.13,70.37,129.63,97.58,205.77C3064.95,3553.86,3096.23,3641.29,3056.82,3685.57z"/>
		<path class="st14" d="M502.68,3131.29c-45.91,117.04-90.61,190.87-110.78,228.73c-44.99,84.45-62.98,168.31-70.12,237.02
			c-16.06,4.16-31.42,8.45-46.08,12.7c-4.32-71.66,2.09-160.92,34.14-247.6c22.03-59.59,53.21-109.91,98.47-182.99
			c39.8-64.26,114.33-175.06,128.22-167.03C547.03,3018.21,518.87,3090,502.68,3131.29z"/>
		<path class="st14" d="M215.46,3277.04c-11.82,130.22-11.46,248.78-5.12,352.24v0.01c-74.84,22.34-125.34,34.01-153.87-0.11
			c-37.68-45.04-2.89-139.96,66.67-329.8c45.67-124.62,71.36-192.59,120.72-230.12C232.15,3133.19,222.22,3202.62,215.46,3277.04z"
			/>
		<path class="st9" d="M878.11,2289.76c2.93-8.48,27.71,1.99,68.73-8.51c23.37-5.98,25.28-11.93,43.08-12.77
			c21.65-1.02,27.24,7.38,52.31,10.64c26,3.37,26.95-4.76,56.42-4.26c20.08,0.34,17.74,4.09,76.93,18.09
			c34.59,8.18,47.4,9.73,55.39,22.34c5.82,9.18,5.21,18.13,5.13,31.92c-0.41,67.91,12.91,85.23,3.08,92.56
			c-17.5,13.03-52.65-46.94-124.12-52.13c-22.23-1.62-24.44,3.78-62.57,2.13c-33.85-1.47-57.24-2.72-82.06-15.96
			c-10.75-5.73-7.32-6-50.26-42.56C887.08,2303.08,876.07,2295.62,878.11,2289.76z"/>
		<path class="st4" d="M2013.62,2553.6c-1.63,56.34-25.03,107.78-71.8,210.65c-81.88,180.04-133.28,186.34-150.79,300.01
			c-5.06,32.8-8.34,81.35-34.88,91.49c-21.53,8.22-32.84-18.59-84.11-28.72c-44.36-8.78-58.65,6.8-98.47-8.51
			c-28.1-10.8-33.93-23.53-44.11-19.15c-26.15,11.28-12.73,106.29-8.21,138.3c8.83,62.55,19.46,68.85,16.41,91.49
			c-7.74,57.45-75.85,77.18-173.35,135.11c0,0-137.76,81.84-260.54,210.65c-3.21,3.36-6.33,6.68-9.38,9.96
			c-13.51-2.45-27.14-5.05-40.89-7.83c-3.48-0.7-6.91-1.4-10.32-2.12c-13.1-2.71-25.67-5.45-37.76-8.21
			c14.32-46.08,33.13-99.75,55.57-157.13c0.35-0.89,0.7-1.79,1.05-2.68c32.59-83.15,72.7-173.95,117.63-260.72
			c185.64-358.4,355.6-328.41,504.67-659.6c34.39-76.43,56.29-144.07,74.67-197.83c11.96-35,22.42-64.12,33.87-85.95
			c14.34-27.36,30.22-43.27,52.51-44.96c65.57-4.99,149.38,115.86,165.58,243.71h0.01
			C2013.17,2518.88,2014.12,2536.33,2013.62,2553.6z"/>
		<path class="st1" d="M1725.38,754.59c-5.08,18.94-41.34,13.96-81.75,18.67c-29.85,3.49-61.96,12.26-85.45,39.84
			c-43.63,51.21-17.19,119.89-43.45,161.69c-3.98,6.35-9.19,12.09-16.04,17.04c-10.31,7.45-12.61,4.67-115.91,13.83
			c-86.93,7.71-101.07,11.07-117.96,19.15c-35.06,16.76-30.42,29.12-80.01,64.9c-43,31.02-77.89,56.19-123.09,56.39
			c-29.64,0.13-30.04-10.64-95.4-22.34c-53.49-9.57-57.06-3.05-72.83-11.7c-13.23-7.26-24.74-19.54-33.91-34.66
			c-26.22-43.19-33.36-109.44-7.12-147.26c26.77-38.6,93.36-54.87,116.94-60.64c23.51-5.74,55.04-10.04,72.83-36.17
			c7.67-11.28,6.6-17.51,15.39-24.47c23.01-18.2,53.67,6.13,68.73-8.51c11.95-11.61-4.57-29.61,5.13-61.7
			c10.79-35.71,43.3-53.32,49.24-56.39c15.72-8.12,24.12-6.65,43.08-10.64c47.74-10.03,55.45-32.11,99.5-50
			c52.56-21.35,104.85-15.64,105.65-10.64c0.99,6.21-75.62,23.04-74.88,26.6c0.71,3.43,70.03-20.59,143.61-15.96
			c93.39,5.88,179.68,57.03,213.37,97.58C1722.46,732.93,1727.83,745.46,1725.38,754.59z"/>
		<path class="st15" d="M2014.65,1655.69c-2,11.43-14.33,26.05-38.98,55.32c-25.8,30.63-28.42,27.22-35.9,40.43
			c-22.92,40.45,2.33,71.38-17.44,97.88c-18.19,24.39-45.92,6.73-74.88,26.6c-42.56,29.18-40.69,107.11-38.98,178.73
			c2.6,108.74,28.1,138.41,2.05,185.11c-21.55,38.65-66.74,68.03-71.8,71.28c-33.83,21.62-55.76,22.79-75.91,50
			c-14.06,19-8.81,30.05-22.57,59.58c-14.06,30.19-34.38,73.81-72.83,107.45c-36.68,32.1-43.65,14.68-103.6,56.39
			c-15.16,10.54-45.75,33.25-78.98,64.9c-12.07,11.5-26.85,24.33-56.42,50c-17.62,15.3-28.43,24.38-45.13,27.66
			c-13.68,2.68-20.96-0.56-41.03-3.19c-26.26-3.44-37.32-0.95-62.57-1.06c-36.82-0.17-66.26-6.5-125.14-19.15
			c-55.74-11.98-66.25-18.22-74.88-25.53c-19.25-16.32-27.06-36.24-35.9-59.58c-23.37-61.72-7.11-89.34-34.88-129.79
			c-6.34-9.23-4.15-3.38-29.75-32.98c-38.14-44.11-45.36-59.86-49.24-71.28c-5.97-17.59-0.9-15.81-7.18-42.56
			c-9.54-40.66-21.23-44.78-28.72-77.66c-3.97-17.43-0.01-13.33-3.08-69.15c-1.04-18.84-2.35-42.86-6.15-73.41
			c-1.57-12.65-3.39-24.84-9.23-68.09c-0.01-0.1-0.03-0.19-0.04-0.29c0.19-0.08,0.38-0.17,0.55-0.24
			c8.01,29.49,20.07,74.88,33.85,130.86c24.58,99.93,24.53,111.4,37.95,137.24c8.27,15.92,16.49,27.37,24.96,36.5
			c30.74,33.17,71.06,47.6,100.19,90.1c15.2,22.17,24,47.77,37.95,88.3c1.75,5.1,11.13,32.58,33.86,59.62
			c14.1,16.78,18.96,16.27,20.5,15.92c17.57-4.04,0.7-78.05,24.62-91.49c31.48-17.69,91.32,93.2,150.79,77.66
			c27.16-7.1,28.03-28.74,91.08-80.81c11.85-9.79,26.52-19.75,46.37-29.83c13.83-7.02,53.17-25.8,82.06-39.36
			c53.77-25.24,53.67-24.12,59.49-28.72c41.25-32.66,27.1-73.9,60.52-134.05c29.32-52.76,47.29-33.82,93.34-97.88
			c26.33-36.63,40.8-72.29,69.75-143.62c5.28-13.03,9.53-23.94,13.16-33.6c11.45-30.45,12.98-40.81,21.72-60.02
			c8.13-17.87,15.26-27.98,19.49-35.11c34.95-58.98-9.29-115.91,22.57-181.92c15.26-31.62,26.87-21.6,55.39-70.22
			c13.76-23.46,21-42.75,42.06-67.02c13.09-15.09,25.8-25.52,34.4-31.93C1989.29,1588.51,2019.55,1627.79,2014.65,1655.69z"/>
		<path class="st1" d="M2178.77,1526.96c-1.6,0.29-4.24-30.68-16.41-67.02c-29.43-87.83-95.8-150.94-104.63-144.69
			c-7.93,5.62,37.64,62.03,70.78,168.09c46.19,147.77,33.05,279.24,17.44,281.93c-10.26,1.77-14.9-52.99-58.47-73.41
			c-23.24-10.89-35.11-1.18-61.55-5.32c-9.82-1.53-18-4.42-25.27-8.45c-29.63-16.42-44.31-51.92-93.71-93.68
			c-31.55-26.68-79.26-67.02-143.61-73.41c-58.3-5.79-91.07,20.2-115.91-3.19c-18.61-17.52-21.05-51.71-14.36-76.6
			c17-63.2,92.85-66.01,100.52-117.03c3.45-22.93-10.46-42.61-37.95-81.92c-32.3-46.18-55.99-53.08-101.55-113.83
			c-13.69-18.27-20.55-27.41-26.67-39.36c-25.03-48.92-15-80.63-37.95-97.88c-5.02-3.78-9.96-5.62-14.73-6.4
			c-14.52-2.4-27.36,4.93-35.53-3.17c-23.41-23.18,14.44-150.16,87.78-218.38c23.73-22.06,51.18-37.99,81.47-42.27
			c21.91-3.09,42.64,0.3,62.58,8.21c45.7,18.13,87.25,60.06,129.24,102.43c90.37,91.21,138.14,198.22,227.72,398.95
			c12.71,28.49,22.9,53.08,43.08,93.62c29.08,58.4,36.96,65.61,48.21,97.88C2180.08,1471.73,2180.88,1526.59,2178.77,1526.96z"/>
		<path class="st16" d="M2000.66,1678.1c-29.63-16.42-44.31-51.92-93.71-93.68c-31.55-26.68-79.26-67.02-143.61-73.41
			c-58.3-5.79-91.07,20.2-115.91-3.19c-18.61-17.52-21.05-51.71-14.36-76.6c17-63.2,92.85-66.01,100.52-117.03
			c3.45-22.93-10.46-42.61-37.95-81.92c-32.3-46.18-55.99-53.08-101.55-113.83c-13.69-18.27-20.55-27.41-26.67-39.36
			c-25.03-48.92-15-80.63-37.95-97.88c-5.02-3.78-9.96-5.62-14.73-6.4c-3.98,6.35-9.19,12.09-16.04,17.04
			c-10.31,7.45-12.61,4.67-115.91,13.83c-86.93,7.71-101.07,11.07-117.96,19.15c-35.06,16.76-30.42,29.12-80.01,64.9
			c-43,31.02-77.89,56.19-123.09,56.39c-29.64,0.13-30.04-10.64-95.4-22.34c-53.49-9.57-57.06-3.05-72.83-11.7
			c-13.23-7.26-24.74-19.54-33.91-34.66c5.68-10.15,9.54-16.49,9.8-16.92c-1.19,3.29-2.05,5.62-2.61,7.12
			c-0.54,1.46-0.68,1.56-0.66,1.74c0.73,4.47,66.25,10.52,79.18-13.14c15.05-27.53-45.88-86.7-41.03-91.49
			c7.49-7.4,147.1,139.06,160.02,127.67c9.63-8.5-52.94-103.33-47.18-107.45c4.34-3.11,32.64,56.17,69.75,55.32
			c27.79-0.64,33.86-34.38,84.11-85.11c18.54-18.71,48.6-39.43,108.73-80.85c46.59-32.1,98.63-67.96,102.58-62.77
			c6.21,8.15-113.55,108.37-104.63,121.28c8.25,11.94,112.29-71.05,280.03-120.22c77.57-22.74,148.24-32.22,150.79-23.41
			c3.56,12.33-126.62,57.5-122.07,74.47c2.02,7.52,29.14,4.26,71.8,3.19c93.38-2.34,170.14,8.13,170.28,13.83
			c0.23,9.53-213.75-10.48-239,61.7c-3.32,9.5-4.15,22.83,89.24,165.96c13.24,20.3,72.04,110.12,105.65,202.14
			c7.33,20.08,12.31,37.1,11.28,58.51c-2.55,53.13-39.32,75.07-30.77,97.88c9.53,25.44,61.07,13.66,106.68,29.79
			C1914.45,1511.81,1964.12,1555.92,2000.66,1678.1z"/>
	</g>
</g>
</svg>
